<?xml version="1.0" encoding="utf-8" standalone="no"?>
<!DOCTYPE svg PUBLIC "-//W3C//DTD SVG 1.1//EN"
  "http://www.w3.org/Graphics/SVG/1.1/DTD/svg11.dtd">
<svg xmlns:xlink="http://www.w3.org/1999/xlink" width="648pt" height="648pt" viewBox="0 0 648 648" xmlns="http://www.w3.org/2000/svg" version="1.1">
 <metadata>
  <rdf:RDF xmlns:dc="http://purl.org/dc/elements/1.1/" xmlns:cc="http://creativecommons.org/ns#" xmlns:rdf="http://www.w3.org/1999/02/22-rdf-syntax-ns#">
   <cc:Work>
    <dc:type rdf:resource="http://purl.org/dc/dcmitype/StillImage"/>
    <dc:date>2025-06-09T11:33:38.881391</dc:date>
    <dc:format>image/svg+xml</dc:format>
    <dc:creator>
     <cc:Agent>
      <dc:title>Matplotlib v3.7.0, https://matplotlib.org/</dc:title>
     </cc:Agent>
    </dc:creator>
   </cc:Work>
  </rdf:RDF>
 </metadata>
 <defs>
  <style type="text/css">*{stroke-linejoin: round; stroke-linecap: butt}</style>
 </defs>
 <g id="figure_1">
  <g id="patch_1">
   <path d="M 0 648 
L 648 648 
L 648 0 
L 0 0 
z
" style="fill: #ffffff"/>
  </g>
  <g id="axes_1">
   <g id="patch_2">
    <path d="M 81 576.72 
L 583.2 576.72 
L 583.2 77.76 
L 81 77.76 
z
" style="fill: #ffffff"/>
   </g>
   <g id="PathCollection_1">
    <defs>
     <path id="mbed652939b" d="M -3.535534 3.535534 
L 3.535534 3.535534 
L 3.535534 -3.535534 
L -3.535534 -3.535534 
z
" style="stroke: #0000ff"/>
    </defs>
    <g clip-path="url(#p699aa281cc)">
     <use xlink:href="#mbed652939b" x="104.009891" y="466.9488" style="fill: #0000ff; stroke: #0000ff"/>
    </g>
   </g>
   <g id="PathCollection_2">
    <defs>
     <path id="m0d87a1cc80" d="M -3.535534 3.535534 
L 3.535534 3.535534 
L 3.535534 -3.535534 
L -3.535534 -3.535534 
z
" style="stroke: #ff0000"/>
    </defs>
    <g clip-path="url(#p699aa281cc)">
     <use xlink:href="#m0d87a1cc80" x="300.141818" y="481.64544" style="fill: #ff0000; stroke: #ff0000"/>
    </g>
   </g>
   <g id="PathCollection_3">
    <g clip-path="url(#p699aa281cc)">
     <use xlink:href="#mbed652939b" x="104.557745" y="373.14432" style="fill: #0000ff; stroke: #0000ff"/>
    </g>
   </g>
   <g id="PathCollection_4">
    <g clip-path="url(#p699aa281cc)">
     <use xlink:href="#m0d87a1cc80" x="379.580727" y="490.35456" style="fill: #ff0000; stroke: #ff0000"/>
    </g>
   </g>
   <g id="PathCollection_5">
    <g clip-path="url(#p699aa281cc)">
     <use xlink:href="#mbed652939b" x="105.836073" y="283.51296" style="fill: #0000ff; stroke: #0000ff"/>
    </g>
   </g>
   <g id="PathCollection_6">
    <g clip-path="url(#p699aa281cc)">
     <use xlink:href="#m0d87a1cc80" x="378.667636" y="495.25344" style="fill: #ff0000; stroke: #ff0000"/>
    </g>
   </g>
   <g id="PathCollection_7">
    <g clip-path="url(#p699aa281cc)">
     <use xlink:href="#mbed652939b" x="105.653455" y="190.97856" style="fill: #0000ff; stroke: #0000ff"/>
    </g>
   </g>
   <g id="PathCollection_8">
    <g clip-path="url(#p699aa281cc)">
     <use xlink:href="#m0d87a1cc80" x="408.982255" y="519.20352" style="fill: #ff0000; stroke: #ff0000"/>
    </g>
   </g>
   <g id="matplotlib.axis_1">
    <g id="xtick_1">
     <g id="line2d_1">
      <path d="M 103.827273 576.72 
L 103.827273 77.76 
" clip-path="url(#p699aa281cc)" style="fill: none; stroke: #b0b0b0; stroke-width: 0.1; stroke-linecap: square"/>
     </g>
     <g id="line2d_2">
      <defs>
       <path id="m2c990a5b62" d="M 0 0 
L 0 3.5 
" style="stroke: #000000; stroke-width: 0.8"/>
      </defs>
      <g>
       <use xlink:href="#m2c990a5b62" x="103.827273" y="576.72" style="stroke: #000000; stroke-width: 0.8"/>
      </g>
     </g>
     <g id="text_1">
      <!-- 0 -->
      <g transform="translate(100.646023 591.318438) scale(0.1 -0.1)">
       <defs>
        <path id="DejaVuSans-30" d="M 2034 4250 
Q 1547 4250 1301 3770 
Q 1056 3291 1056 2328 
Q 1056 1369 1301 889 
Q 1547 409 2034 409 
Q 2525 409 2770 889 
Q 3016 1369 3016 2328 
Q 3016 3291 2770 3770 
Q 2525 4250 2034 4250 
z
M 2034 4750 
Q 2819 4750 3233 4129 
Q 3647 3509 3647 2328 
Q 3647 1150 3233 529 
Q 2819 -91 2034 -91 
Q 1250 -91 836 529 
Q 422 1150 422 2328 
Q 422 3509 836 4129 
Q 1250 4750 2034 4750 
z
" transform="scale(0.015625)"/>
       </defs>
       <use xlink:href="#DejaVuSans-30"/>
      </g>
     </g>
    </g>
    <g id="xtick_2">
     <g id="line2d_3">
      <path d="M 195.136364 576.72 
L 195.136364 77.76 
" clip-path="url(#p699aa281cc)" style="fill: none; stroke: #b0b0b0; stroke-width: 0.1; stroke-linecap: square"/>
     </g>
     <g id="line2d_4">
      <g>
       <use xlink:href="#m2c990a5b62" x="195.136364" y="576.72" style="stroke: #000000; stroke-width: 0.8"/>
      </g>
     </g>
     <g id="text_2">
      <!-- 500 -->
      <g transform="translate(185.592614 591.318438) scale(0.1 -0.1)">
       <defs>
        <path id="DejaVuSans-35" d="M 691 4666 
L 3169 4666 
L 3169 4134 
L 1269 4134 
L 1269 2991 
Q 1406 3038 1543 3061 
Q 1681 3084 1819 3084 
Q 2600 3084 3056 2656 
Q 3513 2228 3513 1497 
Q 3513 744 3044 326 
Q 2575 -91 1722 -91 
Q 1428 -91 1123 -41 
Q 819 9 494 109 
L 494 744 
Q 775 591 1075 516 
Q 1375 441 1709 441 
Q 2250 441 2565 725 
Q 2881 1009 2881 1497 
Q 2881 1984 2565 2268 
Q 2250 2553 1709 2553 
Q 1456 2553 1204 2497 
Q 953 2441 691 2322 
L 691 4666 
z
" transform="scale(0.015625)"/>
       </defs>
       <use xlink:href="#DejaVuSans-35"/>
       <use xlink:href="#DejaVuSans-30" x="63.623047"/>
       <use xlink:href="#DejaVuSans-30" x="127.246094"/>
      </g>
     </g>
    </g>
    <g id="xtick_3">
     <g id="line2d_5">
      <path d="M 286.445455 576.72 
L 286.445455 77.76 
" clip-path="url(#p699aa281cc)" style="fill: none; stroke: #b0b0b0; stroke-width: 0.1; stroke-linecap: square"/>
     </g>
     <g id="line2d_6">
      <g>
       <use xlink:href="#m2c990a5b62" x="286.445455" y="576.72" style="stroke: #000000; stroke-width: 0.8"/>
      </g>
     </g>
     <g id="text_3">
      <!-- 1000 -->
      <g transform="translate(273.720455 591.318438) scale(0.1 -0.1)">
       <defs>
        <path id="DejaVuSans-31" d="M 794 531 
L 1825 531 
L 1825 4091 
L 703 3866 
L 703 4441 
L 1819 4666 
L 2450 4666 
L 2450 531 
L 3481 531 
L 3481 0 
L 794 0 
L 794 531 
z
" transform="scale(0.015625)"/>
       </defs>
       <use xlink:href="#DejaVuSans-31"/>
       <use xlink:href="#DejaVuSans-30" x="63.623047"/>
       <use xlink:href="#DejaVuSans-30" x="127.246094"/>
       <use xlink:href="#DejaVuSans-30" x="190.869141"/>
      </g>
     </g>
    </g>
    <g id="xtick_4">
     <g id="line2d_7">
      <path d="M 377.754545 576.72 
L 377.754545 77.76 
" clip-path="url(#p699aa281cc)" style="fill: none; stroke: #b0b0b0; stroke-width: 0.1; stroke-linecap: square"/>
     </g>
     <g id="line2d_8">
      <g>
       <use xlink:href="#m2c990a5b62" x="377.754545" y="576.72" style="stroke: #000000; stroke-width: 0.8"/>
      </g>
     </g>
     <g id="text_4">
      <!-- 1500 -->
      <g transform="translate(365.029545 591.318438) scale(0.1 -0.1)">
       <use xlink:href="#DejaVuSans-31"/>
       <use xlink:href="#DejaVuSans-35" x="63.623047"/>
       <use xlink:href="#DejaVuSans-30" x="127.246094"/>
       <use xlink:href="#DejaVuSans-30" x="190.869141"/>
      </g>
     </g>
    </g>
    <g id="xtick_5">
     <g id="line2d_9">
      <path d="M 469.063636 576.72 
L 469.063636 77.76 
" clip-path="url(#p699aa281cc)" style="fill: none; stroke: #b0b0b0; stroke-width: 0.1; stroke-linecap: square"/>
     </g>
     <g id="line2d_10">
      <g>
       <use xlink:href="#m2c990a5b62" x="469.063636" y="576.72" style="stroke: #000000; stroke-width: 0.8"/>
      </g>
     </g>
     <g id="text_5">
      <!-- 2000 -->
      <g transform="translate(456.338636 591.318438) scale(0.1 -0.1)">
       <defs>
        <path id="DejaVuSans-32" d="M 1228 531 
L 3431 531 
L 3431 0 
L 469 0 
L 469 531 
Q 828 903 1448 1529 
Q 2069 2156 2228 2338 
Q 2531 2678 2651 2914 
Q 2772 3150 2772 3378 
Q 2772 3750 2511 3984 
Q 2250 4219 1831 4219 
Q 1534 4219 1204 4116 
Q 875 4013 500 3803 
L 500 4441 
Q 881 4594 1212 4672 
Q 1544 4750 1819 4750 
Q 2544 4750 2975 4387 
Q 3406 4025 3406 3419 
Q 3406 3131 3298 2873 
Q 3191 2616 2906 2266 
Q 2828 2175 2409 1742 
Q 1991 1309 1228 531 
z
" transform="scale(0.015625)"/>
       </defs>
       <use xlink:href="#DejaVuSans-32"/>
       <use xlink:href="#DejaVuSans-30" x="63.623047"/>
       <use xlink:href="#DejaVuSans-30" x="127.246094"/>
       <use xlink:href="#DejaVuSans-30" x="190.869141"/>
      </g>
     </g>
    </g>
    <g id="xtick_6">
     <g id="line2d_11">
      <path d="M 560.372727 576.72 
L 560.372727 77.76 
" clip-path="url(#p699aa281cc)" style="fill: none; stroke: #b0b0b0; stroke-width: 0.1; stroke-linecap: square"/>
     </g>
     <g id="line2d_12">
      <g>
       <use xlink:href="#m2c990a5b62" x="560.372727" y="576.72" style="stroke: #000000; stroke-width: 0.8"/>
      </g>
     </g>
     <g id="text_6">
      <!-- 2500 -->
      <g transform="translate(547.647727 591.318438) scale(0.1 -0.1)">
       <use xlink:href="#DejaVuSans-32"/>
       <use xlink:href="#DejaVuSans-35" x="63.623047"/>
       <use xlink:href="#DejaVuSans-30" x="127.246094"/>
       <use xlink:href="#DejaVuSans-30" x="190.869141"/>
      </g>
     </g>
    </g>
    <g id="text_7">
     <!-- Predator population -->
     <g transform="translate(282.64375 604.996562) scale(0.1 -0.1)">
      <defs>
       <path id="DejaVuSans-50" d="M 1259 4147 
L 1259 2394 
L 2053 2394 
Q 2494 2394 2734 2622 
Q 2975 2850 2975 3272 
Q 2975 3691 2734 3919 
Q 2494 4147 2053 4147 
L 1259 4147 
z
M 628 4666 
L 2053 4666 
Q 2838 4666 3239 4311 
Q 3641 3956 3641 3272 
Q 3641 2581 3239 2228 
Q 2838 1875 2053 1875 
L 1259 1875 
L 1259 0 
L 628 0 
L 628 4666 
z
" transform="scale(0.015625)"/>
       <path id="DejaVuSans-72" d="M 2631 2963 
Q 2534 3019 2420 3045 
Q 2306 3072 2169 3072 
Q 1681 3072 1420 2755 
Q 1159 2438 1159 1844 
L 1159 0 
L 581 0 
L 581 3500 
L 1159 3500 
L 1159 2956 
Q 1341 3275 1631 3429 
Q 1922 3584 2338 3584 
Q 2397 3584 2469 3576 
Q 2541 3569 2628 3553 
L 2631 2963 
z
" transform="scale(0.015625)"/>
       <path id="DejaVuSans-65" d="M 3597 1894 
L 3597 1613 
L 953 1613 
Q 991 1019 1311 708 
Q 1631 397 2203 397 
Q 2534 397 2845 478 
Q 3156 559 3463 722 
L 3463 178 
Q 3153 47 2828 -22 
Q 2503 -91 2169 -91 
Q 1331 -91 842 396 
Q 353 884 353 1716 
Q 353 2575 817 3079 
Q 1281 3584 2069 3584 
Q 2775 3584 3186 3129 
Q 3597 2675 3597 1894 
z
M 3022 2063 
Q 3016 2534 2758 2815 
Q 2500 3097 2075 3097 
Q 1594 3097 1305 2825 
Q 1016 2553 972 2059 
L 3022 2063 
z
" transform="scale(0.015625)"/>
       <path id="DejaVuSans-64" d="M 2906 2969 
L 2906 4863 
L 3481 4863 
L 3481 0 
L 2906 0 
L 2906 525 
Q 2725 213 2448 61 
Q 2172 -91 1784 -91 
Q 1150 -91 751 415 
Q 353 922 353 1747 
Q 353 2572 751 3078 
Q 1150 3584 1784 3584 
Q 2172 3584 2448 3432 
Q 2725 3281 2906 2969 
z
M 947 1747 
Q 947 1113 1208 752 
Q 1469 391 1925 391 
Q 2381 391 2643 752 
Q 2906 1113 2906 1747 
Q 2906 2381 2643 2742 
Q 2381 3103 1925 3103 
Q 1469 3103 1208 2742 
Q 947 2381 947 1747 
z
" transform="scale(0.015625)"/>
       <path id="DejaVuSans-61" d="M 2194 1759 
Q 1497 1759 1228 1600 
Q 959 1441 959 1056 
Q 959 750 1161 570 
Q 1363 391 1709 391 
Q 2188 391 2477 730 
Q 2766 1069 2766 1631 
L 2766 1759 
L 2194 1759 
z
M 3341 1997 
L 3341 0 
L 2766 0 
L 2766 531 
Q 2569 213 2275 61 
Q 1981 -91 1556 -91 
Q 1019 -91 701 211 
Q 384 513 384 1019 
Q 384 1609 779 1909 
Q 1175 2209 1959 2209 
L 2766 2209 
L 2766 2266 
Q 2766 2663 2505 2880 
Q 2244 3097 1772 3097 
Q 1472 3097 1187 3025 
Q 903 2953 641 2809 
L 641 3341 
Q 956 3463 1253 3523 
Q 1550 3584 1831 3584 
Q 2591 3584 2966 3190 
Q 3341 2797 3341 1997 
z
" transform="scale(0.015625)"/>
       <path id="DejaVuSans-74" d="M 1172 4494 
L 1172 3500 
L 2356 3500 
L 2356 3053 
L 1172 3053 
L 1172 1153 
Q 1172 725 1289 603 
Q 1406 481 1766 481 
L 2356 481 
L 2356 0 
L 1766 0 
Q 1100 0 847 248 
Q 594 497 594 1153 
L 594 3053 
L 172 3053 
L 172 3500 
L 594 3500 
L 594 4494 
L 1172 4494 
z
" transform="scale(0.015625)"/>
       <path id="DejaVuSans-6f" d="M 1959 3097 
Q 1497 3097 1228 2736 
Q 959 2375 959 1747 
Q 959 1119 1226 758 
Q 1494 397 1959 397 
Q 2419 397 2687 759 
Q 2956 1122 2956 1747 
Q 2956 2369 2687 2733 
Q 2419 3097 1959 3097 
z
M 1959 3584 
Q 2709 3584 3137 3096 
Q 3566 2609 3566 1747 
Q 3566 888 3137 398 
Q 2709 -91 1959 -91 
Q 1206 -91 779 398 
Q 353 888 353 1747 
Q 353 2609 779 3096 
Q 1206 3584 1959 3584 
z
" transform="scale(0.015625)"/>
       <path id="DejaVuSans-20" transform="scale(0.015625)"/>
       <path id="DejaVuSans-70" d="M 1159 525 
L 1159 -1331 
L 581 -1331 
L 581 3500 
L 1159 3500 
L 1159 2969 
Q 1341 3281 1617 3432 
Q 1894 3584 2278 3584 
Q 2916 3584 3314 3078 
Q 3713 2572 3713 1747 
Q 3713 922 3314 415 
Q 2916 -91 2278 -91 
Q 1894 -91 1617 61 
Q 1341 213 1159 525 
z
M 3116 1747 
Q 3116 2381 2855 2742 
Q 2594 3103 2138 3103 
Q 1681 3103 1420 2742 
Q 1159 2381 1159 1747 
Q 1159 1113 1420 752 
Q 1681 391 2138 391 
Q 2594 391 2855 752 
Q 3116 1113 3116 1747 
z
" transform="scale(0.015625)"/>
       <path id="DejaVuSans-75" d="M 544 1381 
L 544 3500 
L 1119 3500 
L 1119 1403 
Q 1119 906 1312 657 
Q 1506 409 1894 409 
Q 2359 409 2629 706 
Q 2900 1003 2900 1516 
L 2900 3500 
L 3475 3500 
L 3475 0 
L 2900 0 
L 2900 538 
Q 2691 219 2414 64 
Q 2138 -91 1772 -91 
Q 1169 -91 856 284 
Q 544 659 544 1381 
z
M 1991 3584 
L 1991 3584 
z
" transform="scale(0.015625)"/>
       <path id="DejaVuSans-6c" d="M 603 4863 
L 1178 4863 
L 1178 0 
L 603 0 
L 603 4863 
z
" transform="scale(0.015625)"/>
       <path id="DejaVuSans-69" d="M 603 3500 
L 1178 3500 
L 1178 0 
L 603 0 
L 603 3500 
z
M 603 4863 
L 1178 4863 
L 1178 4134 
L 603 4134 
L 603 4863 
z
" transform="scale(0.015625)"/>
       <path id="DejaVuSans-6e" d="M 3513 2113 
L 3513 0 
L 2938 0 
L 2938 2094 
Q 2938 2591 2744 2837 
Q 2550 3084 2163 3084 
Q 1697 3084 1428 2787 
Q 1159 2491 1159 1978 
L 1159 0 
L 581 0 
L 581 3500 
L 1159 3500 
L 1159 2956 
Q 1366 3272 1645 3428 
Q 1925 3584 2291 3584 
Q 2894 3584 3203 3211 
Q 3513 2838 3513 2113 
z
" transform="scale(0.015625)"/>
      </defs>
      <use xlink:href="#DejaVuSans-50"/>
      <use xlink:href="#DejaVuSans-72" x="58.552734"/>
      <use xlink:href="#DejaVuSans-65" x="97.416016"/>
      <use xlink:href="#DejaVuSans-64" x="158.939453"/>
      <use xlink:href="#DejaVuSans-61" x="222.416016"/>
      <use xlink:href="#DejaVuSans-74" x="283.695312"/>
      <use xlink:href="#DejaVuSans-6f" x="322.904297"/>
      <use xlink:href="#DejaVuSans-72" x="384.085938"/>
      <use xlink:href="#DejaVuSans-20" x="425.199219"/>
      <use xlink:href="#DejaVuSans-70" x="456.986328"/>
      <use xlink:href="#DejaVuSans-6f" x="520.462891"/>
      <use xlink:href="#DejaVuSans-70" x="581.644531"/>
      <use xlink:href="#DejaVuSans-75" x="645.121094"/>
      <use xlink:href="#DejaVuSans-6c" x="708.5"/>
      <use xlink:href="#DejaVuSans-61" x="736.283203"/>
      <use xlink:href="#DejaVuSans-74" x="797.5625"/>
      <use xlink:href="#DejaVuSans-69" x="836.771484"/>
      <use xlink:href="#DejaVuSans-6f" x="864.554688"/>
      <use xlink:href="#DejaVuSans-6e" x="925.736328"/>
     </g>
    </g>
   </g>
   <g id="matplotlib.axis_2">
    <g id="ytick_1">
     <g id="line2d_13">
      <path d="M 81 554.04 
L 583.2 554.04 
" clip-path="url(#p699aa281cc)" style="fill: none; stroke: #b0b0b0; stroke-width: 0.1; stroke-linecap: square"/>
     </g>
     <g id="line2d_14">
      <defs>
       <path id="m2fab4ede2f" d="M 0 0 
L -3.5 0 
" style="stroke: #000000; stroke-width: 0.8"/>
      </defs>
      <g>
       <use xlink:href="#m2fab4ede2f" x="81" y="554.04" style="stroke: #000000; stroke-width: 0.8"/>
      </g>
     </g>
     <g id="text_8">
      <!-- 0 -->
      <g transform="translate(67.6375 557.839219) scale(0.1 -0.1)">
       <use xlink:href="#DejaVuSans-30"/>
      </g>
     </g>
    </g>
    <g id="ytick_2">
     <g id="line2d_15">
      <path d="M 81 463.32 
L 583.2 463.32 
" clip-path="url(#p699aa281cc)" style="fill: none; stroke: #b0b0b0; stroke-width: 0.1; stroke-linecap: square"/>
     </g>
     <g id="line2d_16">
      <g>
       <use xlink:href="#m2fab4ede2f" x="81" y="463.32" style="stroke: #000000; stroke-width: 0.8"/>
      </g>
     </g>
     <g id="text_9">
      <!-- 500 -->
      <g transform="translate(54.9125 467.119219) scale(0.1 -0.1)">
       <use xlink:href="#DejaVuSans-35"/>
       <use xlink:href="#DejaVuSans-30" x="63.623047"/>
       <use xlink:href="#DejaVuSans-30" x="127.246094"/>
      </g>
     </g>
    </g>
    <g id="ytick_3">
     <g id="line2d_17">
      <path d="M 81 372.6 
L 583.2 372.6 
" clip-path="url(#p699aa281cc)" style="fill: none; stroke: #b0b0b0; stroke-width: 0.1; stroke-linecap: square"/>
     </g>
     <g id="line2d_18">
      <g>
       <use xlink:href="#m2fab4ede2f" x="81" y="372.6" style="stroke: #000000; stroke-width: 0.8"/>
      </g>
     </g>
     <g id="text_10">
      <!-- 1000 -->
      <g transform="translate(48.55 376.399219) scale(0.1 -0.1)">
       <use xlink:href="#DejaVuSans-31"/>
       <use xlink:href="#DejaVuSans-30" x="63.623047"/>
       <use xlink:href="#DejaVuSans-30" x="127.246094"/>
       <use xlink:href="#DejaVuSans-30" x="190.869141"/>
      </g>
     </g>
    </g>
    <g id="ytick_4">
     <g id="line2d_19">
      <path d="M 81 281.88 
L 583.2 281.88 
" clip-path="url(#p699aa281cc)" style="fill: none; stroke: #b0b0b0; stroke-width: 0.1; stroke-linecap: square"/>
     </g>
     <g id="line2d_20">
      <g>
       <use xlink:href="#m2fab4ede2f" x="81" y="281.88" style="stroke: #000000; stroke-width: 0.8"/>
      </g>
     </g>
     <g id="text_11">
      <!-- 1500 -->
      <g transform="translate(48.55 285.679219) scale(0.1 -0.1)">
       <use xlink:href="#DejaVuSans-31"/>
       <use xlink:href="#DejaVuSans-35" x="63.623047"/>
       <use xlink:href="#DejaVuSans-30" x="127.246094"/>
       <use xlink:href="#DejaVuSans-30" x="190.869141"/>
      </g>
     </g>
    </g>
    <g id="ytick_5">
     <g id="line2d_21">
      <path d="M 81 191.16 
L 583.2 191.16 
" clip-path="url(#p699aa281cc)" style="fill: none; stroke: #b0b0b0; stroke-width: 0.1; stroke-linecap: square"/>
     </g>
     <g id="line2d_22">
      <g>
       <use xlink:href="#m2fab4ede2f" x="81" y="191.16" style="stroke: #000000; stroke-width: 0.8"/>
      </g>
     </g>
     <g id="text_12">
      <!-- 2000 -->
      <g transform="translate(48.55 194.959219) scale(0.1 -0.1)">
       <use xlink:href="#DejaVuSans-32"/>
       <use xlink:href="#DejaVuSans-30" x="63.623047"/>
       <use xlink:href="#DejaVuSans-30" x="127.246094"/>
       <use xlink:href="#DejaVuSans-30" x="190.869141"/>
      </g>
     </g>
    </g>
    <g id="ytick_6">
     <g id="line2d_23">
      <path d="M 81 100.44 
L 583.2 100.44 
" clip-path="url(#p699aa281cc)" style="fill: none; stroke: #b0b0b0; stroke-width: 0.1; stroke-linecap: square"/>
     </g>
     <g id="line2d_24">
      <g>
       <use xlink:href="#m2fab4ede2f" x="81" y="100.44" style="stroke: #000000; stroke-width: 0.8"/>
      </g>
     </g>
     <g id="text_13">
      <!-- 2500 -->
      <g transform="translate(48.55 104.239219) scale(0.1 -0.1)">
       <use xlink:href="#DejaVuSans-32"/>
       <use xlink:href="#DejaVuSans-35" x="63.623047"/>
       <use xlink:href="#DejaVuSans-30" x="127.246094"/>
       <use xlink:href="#DejaVuSans-30" x="190.869141"/>
      </g>
     </g>
    </g>
    <g id="text_14">
     <!-- Prey population -->
     <g transform="translate(42.470312 366.342344) rotate(-90) scale(0.1 -0.1)">
      <defs>
       <path id="DejaVuSans-79" d="M 2059 -325 
Q 1816 -950 1584 -1140 
Q 1353 -1331 966 -1331 
L 506 -1331 
L 506 -850 
L 844 -850 
Q 1081 -850 1212 -737 
Q 1344 -625 1503 -206 
L 1606 56 
L 191 3500 
L 800 3500 
L 1894 763 
L 2988 3500 
L 3597 3500 
L 2059 -325 
z
" transform="scale(0.015625)"/>
      </defs>
      <use xlink:href="#DejaVuSans-50"/>
      <use xlink:href="#DejaVuSans-72" x="58.552734"/>
      <use xlink:href="#DejaVuSans-65" x="97.416016"/>
      <use xlink:href="#DejaVuSans-79" x="158.939453"/>
      <use xlink:href="#DejaVuSans-20" x="218.119141"/>
      <use xlink:href="#DejaVuSans-70" x="249.90625"/>
      <use xlink:href="#DejaVuSans-6f" x="313.382812"/>
      <use xlink:href="#DejaVuSans-70" x="374.564453"/>
      <use xlink:href="#DejaVuSans-75" x="438.041016"/>
      <use xlink:href="#DejaVuSans-6c" x="501.419922"/>
      <use xlink:href="#DejaVuSans-61" x="529.203125"/>
      <use xlink:href="#DejaVuSans-74" x="590.482422"/>
      <use xlink:href="#DejaVuSans-69" x="629.691406"/>
      <use xlink:href="#DejaVuSans-6f" x="657.474609"/>
      <use xlink:href="#DejaVuSans-6e" x="718.65625"/>
     </g>
    </g>
   </g>
   <g id="line2d_25">
    <path d="M 104.009891 466.9488 
L 104.009891 392.73984 
L 104.375127 318.34944 
L 105.1056 306.91872 
L 106.201309 327.78432 
L 108.210109 347.92416 
L 111.862473 352.82304 
L 115.1496 355.72608 
L 118.984582 351.00864 
L 124.463127 354.27456 
L 131.585236 358.0848 
L 139.437818 358.81056 
L 150.577527 367.51968 
L 166.465309 381.672 
L 180.709527 383.66784 
L 212.485091 405.2592 
L 233.486182 419.7744 
L 253.391564 425.94336 
L 276.401455 440.27712 
L 300.324436 456.0624 
L 326.986691 477.29088 
L 345.431127 488.90304 
L 365.519127 500.69664 
L 390.172582 519.02208 
L 391.816145 521.3808 
L 384.876655 519.02208 
L 375.380509 513.03456 
L 362.779855 506.68416 
L 346.709455 501.96672 
L 327.899782 491.26176 
L 310.916291 486.54432 
L 291.193527 480.19392 
L 270.740291 469.6704 
L 251.200145 456.24384 
L 215.224364 428.8464 
L 197.875636 406.34784 
L 195.5016 404.53344 
L 212.850327 412.5168 
L 237.869018 423.4032 
L 270.922909 435.74112 
L 309.272727 459.87264 
L 345.796364 477.8352 
L 397.842545 509.40576 
L 416.104364 519.38496 
L 428.887636 526.64256 
L 429.618109 526.27968 
L 427.426691 527.54976 
L 421.765527 526.27968 
L 411.538909 525.37248 
L 396.929455 522.83232 
L 375.928364 519.38496 
L 351.822764 513.216 
L 328.265018 500.33376 
L 298.680873 484.72992 
L 274.210036 465.49728 
L 248.826109 443.72448 
L 228.555491 425.39904 
L 216.685309 418.32288 
L 218.876727 412.87968 
L 227.094545 411.42816 
L 243.530182 419.95584 
L 266.722691 431.38656 
L 298.498255 447.35328 
L 332.830473 465.1344 
L 365.884364 487.08864 
L 389.989964 500.87808 
L 409.530109 509.76864 
L 422.130764 516.66336 
L 430.713818 522.288 
L 434.731418 525.19104 
L 431.079055 525.37248 
L 422.861236 524.46528 
L 407.338691 520.11072 
L 389.442109 516.8448 
L 367.345309 511.58304 
L 345.248509 503.78112 
L 316.942691 488.17728 
L 290.097818 471.84768 
L 265.626982 457.51392 
L 245.7216 442.81728 
L 231.294764 429.57216 
L 225.816218 415.2384 
L 226.546691 406.52928 
L 231.66 403.80768 
L 251.748 412.87968 
L 276.766691 432.4752 
L 306.350836 456.60672 
L 332.1 473.66208 
L 402.225382 514.66752 
L 417.747927 522.46944 
L 420.304582 524.1024 
L 418.295782 525.0096 
L 408.982255 524.1024 
L 398.938255 521.74368 
L 386.3376 520.11072 
L 368.075782 516.8448 
L 346.526836 513.76032 
L 323.516945 505.9584 
L 300.324436 497.61216 
L 279.323345 482.91552 
L 258.322255 465.67872 
L 240.243055 452.4336 
L 227.6424 429.39072 
L 223.259564 416.1456 
L 223.259564 409.97664 
L 231.112145 407.25504 
L 247.7304 417.59712 
L 276.949309 438.64416 
L 308.177018 455.51808 
L 343.604945 476.20224 
L 397.112073 508.13568 
L 414.643418 519.92928 
L 424.687418 525.9168 
L 425.052655 526.824 
L 418.295782 525.37248 
L 410.077964 522.288 
L 399.851345 518.84064 
L 384.146182 513.03456 
L 366.797455 507.40992 
L 350.909673 501.4224 
L 331.552145 493.62048 
L 310.916291 483.09696 
L 288.636873 467.856 
L 269.8272 455.51808 
L 253.208945 446.44608 
L 241.156145 436.28544 
L 235.860218 427.032 
L 240.243055 425.03616 
L 251.930618 427.57632 
L 272.201236 433.20096 
L 304.159418 449.34912 
L 336.848073 471.30336 
L 368.075782 493.2576 
L 391.633527 506.13984 
L 417.565309 522.10656 
L 418.113164 524.46528 
L 415.373891 524.1024 
L 400.764436 521.74368 
L 375.745745 511.4016 
L 358.397018 503.2368 
L 339.769964 499.06368 
L 320.777673 491.98752 
L 302.150618 481.28256 
L 290.280436 470.94048 
L 278.410255 459.32832 
L 269.279345 447.17184 
L 268.366255 439.55136 
L 270.375055 430.47936 
L 280.053818 431.74944 
L 294.663273 442.27296 
L 317.855782 457.8768 
L 337.943782 469.85184 
L 364.423418 487.45152 
L 388.3464 500.5152 
L 402.225382 510.4944 
L 412.634618 520.29216 
L 412.634618 522.46944 
L 406.790836 522.10656 
L 394.738036 520.83648 
L 382.137382 517.38912 
L 365.519127 512.3088 
L 349.083491 505.77696 
L 337.395927 500.87808 
L 324.247418 494.1648 
L 310.0032 486 
L 293.567564 474.93216 
L 279.8712 464.2272 
L 268.548873 456.60672 
L 258.687491 444.99456 
L 247.365164 437.73696 
L 240.790909 428.66496 
L 244.991127 426.30624 
L 256.861309 431.38656 
L 274.757891 439.55136 
L 301.785382 456.42528 
L 330.821673 474.75072 
L 360.405818 489.99168 
L 381.954764 503.41824 
L 398.938255 515.21184 
L 406.4256 521.19936 
L 403.321091 521.01792 
L 398.3904 517.57056 
L 389.076873 513.216 
L 377.024073 508.49856 
L 350.1792 497.61216 
L 336.1176 491.98752 
L 319.134109 488.54016 
L 300.141818 481.64544 
L 300.141818 481.64544 
" clip-path="url(#p699aa281cc)" style="fill: none; stroke-dasharray: 5.55,2.4; stroke-dashoffset: 0; stroke: #008000; stroke-opacity: 0.7; stroke-width: 1.5"/>
   </g>
   <g id="line2d_26">
    <path d="M 103.713136 576.72 
L 106.224136 77.76 
" clip-path="url(#p699aa281cc)" style="fill: none; stroke: #0000ff; stroke-width: 0.75; stroke-linecap: square"/>
   </g>
   <g id="line2d_27">
    <path d="M 81 77.76 
L 583.2 576.72 
" clip-path="url(#p699aa281cc)" style="fill: none; stroke: #000000; stroke-width: 1.5; stroke-linecap: square"/>
   </g>
   <g id="line2d_28">
    <path d="M 81 554.04 
L 649 554.04 
" clip-path="url(#p699aa281cc)" style="fill: none; stroke-dasharray: 9.6,2.4,1.5,2.4; stroke-dashoffset: 0; stroke: #000000; stroke-width: 1.5"/>
   </g>
   <g id="line2d_29">
    <path d="M 103.827273 576.72 
L 103.827273 -1 
" clip-path="url(#p699aa281cc)" style="fill: none; stroke-dasharray: 9.6,2.4,1.5,2.4; stroke-dashoffset: 0; stroke: #000000; stroke-width: 1.5"/>
   </g>
   <g id="line2d_30">
    <path d="M 104.557745 373.14432 
L 104.922982 286.416 
L 105.653455 270.81216 
L 108.210109 305.64864 
L 113.323418 349.0128 
L 120.262909 363.34656 
L 128.663345 364.79808 
L 137.2464 370.96704 
L 149.481818 372.05568 
L 166.465309 382.21632 
L 191.849236 397.0944 
L 215.224364 412.87968 
L 238.964727 426.48768 
L 261.792 436.46688 
L 282.427855 447.17184 
L 302.515855 456.24384 
L 319.864582 462.23136 
L 358.2144 486 
L 374.650036 496.70496 
L 387.068073 507.95424 
L 399.120873 517.93344 
L 387.981164 515.9376 
L 380.3112 511.76448 
L 370.2672 506.68416 
L 351.640145 497.97504 
L 334.291418 487.27008 
L 319.134109 473.84352 
L 302.881091 462.4128 
L 294.298036 456.78816 
L 283.8888 454.248 
L 284.071418 458.42112 
L 285.714982 460.5984 
L 292.106618 464.95296 
L 300.324436 463.50144 
L 309.272727 464.04576 
L 320.0472 469.12608 
L 328.995491 470.75904 
L 339.769964 473.84352 
L 354.562036 479.28672 
L 367.710545 486 
L 378.119782 496.16064 
L 390.3552 509.22432 
L 401.312291 515.9376 
L 403.138473 516.8448 
L 398.207782 515.75616 
L 386.520218 509.95008 
L 374.2848 504.144 
L 360.953673 494.89056 
L 344.700655 489.81024 
L 328.995491 482.18976 
L 315.664364 473.11776 
L 309.090109 466.0416 
L 301.420145 465.49728 
L 300.141818 463.13856 
L 298.133018 466.58592 
L 299.228727 464.77152 
L 306.716073 462.77568 
L 314.0208 466.76736 
L 320.412436 462.23136 
L 322.603855 460.41696 
L 331.552145 464.77152 
L 346.709455 476.38368 
L 362.049382 486 
L 391.998764 516.66336 
L 396.3816 519.92928 
L 394.555418 517.38912 
L 384.694036 511.4016 
L 369.719345 507.04704 
L 350.1792 499.42656 
L 332.830473 491.08032 
L 295.9416 469.85184 
L 276.218836 457.69536 
L 261.426764 452.25216 
L 248.643491 447.35328 
L 242.982327 444.45024 
L 244.260655 444.63168 
L 253.391564 452.07072 
L 265.992218 454.97376 
L 286.080218 461.32416 
L 303.428945 462.23136 
L 323.151709 471.30336 
L 342.144 476.38368 
L 360.953673 484.72992 
L 382.685236 501.05952 
L 400.947055 513.57888 
L 412.086764 520.29216 
L 419.574109 525.55392 
L 417.200073 526.824 
L 406.4256 524.64672 
L 390.903055 519.20352 
L 372.641236 514.66752 
L 345.796364 505.59552 
L 323.334327 493.2576 
L 303.9768 478.7424 
L 285.714982 460.77984 
L 261.061527 442.27296 
L 240.973527 430.11648 
L 230.381673 423.4032 
L 222.894327 424.12896 
L 218.328873 420.86304 
L 227.094545 420.86304 
L 238.964727 427.9392 
L 260.148436 436.64832 
L 278.592873 439.00704 
L 305.437745 448.44192 
L 357.301309 480.01248 
L 382.867855 494.70912 
L 402.955855 506.8656 
L 413.547709 512.85312 
L 421.948145 519.38496 
L 425.052655 524.64672 
L 421.217673 526.46112 
L 409.164873 523.73952 
L 393.094473 521.3808 
L 375.745745 514.30464 
L 356.2056 505.0512 
L 340.865673 493.2576 
L 325.890982 476.928 
L 312.194618 467.67456 
L 300.689673 453.88512 
L 293.567564 445.72032 
L 290.645673 441.00288 
L 287.9064 440.09568 
L 286.993309 442.99872 
L 296.672073 448.44192 
L 312.012 459.87264 
L 333.560945 468.58176 
L 351.274909 475.29504 
L 376.110982 486.18144 
L 399.486109 499.97088 
L 422.678618 515.9376 
L 424.870036 517.20768 
L 420.304582 517.02624 
L 410.625818 511.22016 
L 401.494909 509.5872 
L 390.3552 508.13568 
L 377.937164 503.59968 
L 362.414618 499.97088 
L 348.1704 497.43072 
L 334.291418 492.3504 
L 318.951491 485.45568 
L 301.968 476.38368 
L 298.498255 471.84768 
L 298.498255 466.22304 
L 303.063709 461.68704 
L 311.646764 460.77984 
L 323.516945 463.13856 
L 339.587345 471.30336 
L 356.2056 475.83936 
L 372.276 484.36704 
L 386.154982 495.9792 
L 401.129673 507.95424 
L 408.251782 515.39328 
L 408.251782 515.75616 
L 404.964655 511.94592 
L 398.938255 508.49856 
L 391.450909 507.95424 
L 381.589527 504.32544 
L 370.449818 498.51936 
L 352.735855 494.34624 
L 340.1352 491.98752 
L 325.890982 485.63712 
L 316.212218 483.82272 
L 307.629164 481.82688 
L 301.968 476.56512 
L 295.758982 472.75488 
L 301.785382 470.03328 
L 311.098909 469.48896 
L 320.229818 464.04576 
L 330.821673 468.94464 
L 346.526836 475.29504 
L 365.153891 483.45984 
L 379.580727 497.61216 
L 386.520218 507.22848 
L 393.094473 515.21184 
L 392.729236 516.66336 
L 388.894255 513.94176 
L 376.658836 513.57888 
L 365.153891 507.04704 
L 354.1968 503.2368 
L 348.1704 500.69664 
L 338.674255 495.79776 
L 335.752364 489.6288 
L 333.195709 483.2784 
L 324.977891 477.10944 
L 326.438836 478.19808 
L 326.804073 477.8352 
L 333.378327 479.6496 
L 337.943782 478.7424 
L 347.074691 478.56096 
L 357.118691 483.82272 
L 368.623636 487.27008 
L 379.580727 490.35456 
L 379.580727 490.35456 
" clip-path="url(#p699aa281cc)" style="fill: none; stroke-dasharray: 5.55,2.4; stroke-dashoffset: 0; stroke: #ffa500; stroke-opacity: 0.7; stroke-width: 1.5"/>
   </g>
   <g id="line2d_31">
    <path d="M 103.713136 576.72 
L 106.224136 77.76 
" clip-path="url(#p699aa281cc)" style="fill: none; stroke: #0000ff; stroke-width: 0.75; stroke-linecap: square"/>
   </g>
   <g id="line2d_32">
    <path d="M 81 77.76 
L 583.2 576.72 
" clip-path="url(#p699aa281cc)" style="fill: none; stroke: #000000; stroke-width: 1.5; stroke-linecap: square"/>
   </g>
   <g id="line2d_33">
    <path d="M 81 554.04 
L 649 554.04 
" clip-path="url(#p699aa281cc)" style="fill: none; stroke-dasharray: 9.6,2.4,1.5,2.4; stroke-dashoffset: 0; stroke: #000000; stroke-width: 1.5"/>
   </g>
   <g id="line2d_34">
    <path d="M 103.827273 576.72 
L 103.827273 -1 
" clip-path="url(#p699aa281cc)" style="fill: none; stroke-dasharray: 9.6,2.4,1.5,2.4; stroke-dashoffset: 0; stroke: #000000; stroke-width: 1.5"/>
   </g>
   <g id="line2d_35">
    <path d="M 105.836073 283.51296 
L 106.749164 206.03808 
L 110.401527 218.01312 
L 120.080291 301.8384 
L 142.907564 374.05152 
L 173.4048 409.06944 
L 200.432291 421.5888 
L 232.207855 435.55968 
L 265.079127 446.9904 
L 299.776582 465.31584 
L 329.178109 482.3712 
L 354.014182 493.07616 
L 373.189091 502.14816 
L 389.442109 509.04288 
L 401.860145 514.84896 
L 412.086764 521.92512 
L 417.565309 527.36832 
L 396.3816 528.81984 
L 376.658836 526.824 
L 356.753455 523.73952 
L 332.465236 515.0304 
L 309.637964 502.3296 
L 290.280436 483.09696 
L 265.626982 462.59424 
L 244.443273 441.18432 
L 228.555491 419.95584 
L 217.050545 406.1664 
L 210.658909 397.63872 
L 209.380582 396.1872 
L 215.954836 402.71904 
L 223.442182 401.26752 
L 238.782109 411.79104 
L 257.591782 423.94752 
L 281.514764 436.64832 
L 311.646764 455.33664 
L 337.761164 470.03328 
L 363.692945 483.2784 
L 385.241891 495.9792 
L 400.216582 509.5872 
L 410.991055 516.30048 
L 415.556509 521.19936 
L 412.269382 522.288 
L 393.642327 512.49024 
L 379.032873 505.59552 
L 360.588436 499.42656 
L 336.300218 490.536 
L 315.664364 481.28256 
L 292.106618 471.84768 
L 268.731491 462.04992 
L 245.356364 448.26048 
L 225.450982 430.11648 
L 211.206764 419.04864 
L 200.980145 407.61792 
L 192.031855 396.36864 
L 193.127564 396.36864 
L 197.875636 395.46144 
L 214.676509 403.80768 
L 241.704 417.41568 
L 269.8272 433.56384 
L 293.567564 449.16768 
L 318.768873 462.77568 
L 341.048291 478.56096 
L 359.857964 491.08032 
L 380.493818 505.59552 
L 391.633527 510.4944 
L 398.755636 513.94176 
L 404.782036 517.20768 
L 400.947055 516.66336 
L 393.277091 515.0304 
L 379.215491 512.85312 
L 359.127491 506.32128 
L 340.683055 501.60384 
L 323.882182 497.97504 
L 303.9768 492.89472 
L 281.332145 483.82272 
L 263.252945 472.392 
L 255.035127 458.60256 
L 248.643491 440.82144 
L 245.538982 428.12064 
L 245.904218 424.49184 
L 252.843709 423.04032 
L 259.235345 426.66912 
L 270.740291 430.6608 
L 284.254036 444.81312 
L 303.611564 453.70368 
L 331.186909 470.03328 
L 358.2144 489.99168 
L 380.859055 503.05536 
L 397.294691 511.58304 
L 404.964655 516.8448 
L 406.608218 516.11904 
L 402.955855 515.21184 
L 395.468509 514.84896 
L 388.529018 513.216 
L 380.128582 512.67168 
L 369.719345 509.04288 
L 359.492727 507.95424 
L 346.709455 500.5152 
L 337.578545 497.24928 
L 327.534545 495.072 
L 320.0472 486.72576 
L 306.168218 475.83936 
L 303.246327 467.67456 
L 307.811782 464.2272 
L 309.090109 454.79232 
L 320.229818 453.15936 
L 330.0912 458.96544 
L 351.092291 472.392 
L 370.449818 487.08864 
L 385.972364 499.06368 
L 394.007564 506.68416 
L 396.198982 510.67584 
L 394.555418 510.31296 
L 394.555418 507.22848 
L 388.894255 505.41408 
L 382.685236 502.69248 
L 377.571927 501.78528 
L 372.641236 503.59968 
L 361.684145 496.16064 
L 355.475127 496.34208 
L 341.596145 491.62464 
L 331.552145 489.81024 
L 322.969091 483.82272 
L 316.0296 477.65376 
L 310.551055 468.03744 
L 314.203418 470.75904 
L 320.412436 470.75904 
L 352.553236 487.27008 
L 369.719345 495.25344 
L 381.041673 502.3296 
L 388.529018 505.23264 
L 394.920655 506.68416 
L 395.285891 509.40576 
L 393.642327 507.04704 
L 387.615927 505.9584 
L 378.119782 503.2368 
L 367.527927 499.78944 
L 359.675345 495.9792 
L 349.448727 490.17312 
L 340.683055 488.7216 
L 329.908582 483.82272 
L 320.412436 478.7424 
L 311.281527 477.29088 
L 303.9768 467.856 
L 295.758982 459.87264 
L 291.741382 453.52224 
L 297.767782 448.98624 
L 311.829382 456.0624 
L 332.830473 465.67872 
L 355.292509 478.56096 
L 372.093382 489.81024 
L 383.050473 498.33792 
L 393.459709 509.40576 
L 400.216582 512.67168 
L 402.955855 512.67168 
L 403.686327 515.39328 
L 400.947055 511.4016 
L 394.007564 509.76864 
L 390.537818 509.22432 
L 378.667636 502.69248 
L 367.710545 499.78944 
L 352.188 495.79776 
L 349.266109 497.97504 
L 339.039491 495.9792 
L 333.926182 492.3504 
L 324.612655 484.54848 
L 310.368436 473.11776 
L 302.515855 470.94048 
L 307.263927 462.95712 
L 320.229818 465.86016 
L 337.761164 474.2064 
L 356.022982 481.28256 
L 370.2672 485.27424 
L 383.233091 494.1648 
L 393.094473 495.9792 
L 399.303491 501.60384 
L 402.042764 506.32128 
L 405.512509 507.04704 
L 406.060364 506.13984 
L 400.581818 507.22848 
L 397.112073 504.32544 
L 397.294691 503.05536 
L 389.807345 501.24096 
L 378.3024 499.97088 
L 369.719345 498.7008 
L 357.849164 494.52768 
L 344.700655 488.17728 
L 338.309018 480.5568 
L 332.1 472.57344 
L 334.291418 473.66208 
L 340.865673 476.56512 
L 351.092291 481.64544 
L 365.884364 486.54432 
L 378.667636 495.25344 
L 378.667636 495.25344 
" clip-path="url(#p699aa281cc)" style="fill: none; stroke-dasharray: 5.55,2.4; stroke-dashoffset: 0; stroke: #800080; stroke-opacity: 0.7; stroke-width: 1.5"/>
   </g>
   <g id="line2d_36">
    <path d="M 103.713136 576.72 
L 106.224136 77.76 
" clip-path="url(#p699aa281cc)" style="fill: none; stroke: #0000ff; stroke-width: 0.75; stroke-linecap: square"/>
   </g>
   <g id="line2d_37">
    <path d="M 81 77.76 
L 583.2 576.72 
" clip-path="url(#p699aa281cc)" style="fill: none; stroke: #000000; stroke-width: 1.5; stroke-linecap: square"/>
   </g>
   <g id="line2d_38">
    <path d="M 81 554.04 
L 649 554.04 
" clip-path="url(#p699aa281cc)" style="fill: none; stroke-dasharray: 9.6,2.4,1.5,2.4; stroke-dashoffset: 0; stroke: #000000; stroke-width: 1.5"/>
   </g>
   <g id="line2d_39">
    <path d="M 103.827273 576.72 
L 103.827273 -1 
" clip-path="url(#p699aa281cc)" style="fill: none; stroke-dasharray: 9.6,2.4,1.5,2.4; stroke-dashoffset: 0; stroke: #000000; stroke-width: 1.5"/>
   </g>
   <g id="line2d_40">
    <path d="M 105.653455 190.97856 
L 106.566545 146.88864 
L 110.401527 175.37472 
L 123.002182 270.26784 
L 147.655636 368.9712 
L 178.700727 408.52512 
L 213.032945 429.7536 
L 249.373964 449.712 
L 290.463055 467.31168 
L 329.725964 483.45984 
L 373.006473 503.05536 
L 402.590618 513.216 
L 421.400291 523.55808 
L 431.809527 528.45696 
L 434.183564 528.09408 
L 435.644509 530.4528 
L 431.261673 530.4528 
L 419.208873 530.08992 
L 400.947055 529.36416 
L 384.876655 526.64256 
L 359.857964 521.01792 
L 335.021891 513.216 
L 310.916291 499.24512 
L 286.445455 482.55264 
L 259.052727 457.8768 
L 236.955927 434.47104 
L 219.972436 411.42816 
L 213.215564 400.36032 
L 215.041745 396.00576 
L 238.051636 410.52096 
L 268.183636 425.94336 
L 299.9592 447.17184 
L 335.204509 471.4848 
L 362.597236 487.08864 
L 385.789745 498.88224 
L 404.4168 510.4944 
L 418.843636 520.65504 
L 427.426691 525.9168 
L 431.626909 527.54976 
L 430.165964 527.91264 
L 421.948145 526.46112 
L 408.4344 523.01376 
L 388.529018 517.02624 
L 366.614836 507.04704 
L 339.769964 499.06368 
L 315.299127 489.6288 
L 293.019709 474.02496 
L 267.087927 460.05408 
L 251.382764 445.53888 
L 237.138545 429.20928 
L 224.172655 421.77024 
L 224.355273 415.05696 
L 232.573091 415.41984 
L 248.460873 425.39904 
L 265.079127 432.29376 
L 285.714982 442.27296 
L 308.542255 459.87264 
L 328.447636 470.21472 
L 346.1616 478.19808 
L 367.893164 492.3504 
L 387.068073 505.0512 
L 401.494909 512.67168 
L 414.826036 517.93344 
L 415.921745 517.02624 
L 410.077964 515.75616 
L 394.007564 514.48608 
L 380.859055 509.5872 
L 366.797455 507.04704 
L 349.083491 501.4224 
L 337.578545 494.34624 
L 322.969091 487.45152 
L 313.655564 474.93216 
L 306.533455 466.22304 
L 304.524655 460.23552 
L 305.9856 456.24384 
L 315.299127 459.32832 
L 322.969091 462.59424 
L 334.839273 468.21888 
L 346.709455 467.49312 
L 357.666545 473.84352 
L 369.171491 482.91552 
L 388.163782 499.608 
L 403.321091 508.31712 
L 412.999855 519.38496 
L 413.547709 523.1952 
L 410.077964 524.1024 
L 401.494909 518.11488 
L 390.3552 511.03872 
L 377.571927 503.59968 
L 360.953673 495.43488 
L 348.535636 492.71328 
L 335.752364 485.27424 
L 323.699564 480.73824 
L 313.107709 475.29504 
L 306.168218 469.48896 
L 299.046109 465.31584 
L 295.211127 465.31584 
L 300.141818 466.58592 
L 307.9944 467.67456 
L 313.655564 464.40864 
L 325.890982 468.58176 
L 341.961382 477.47232 
L 358.031782 485.81856 
L 396.016364 507.95424 
L 407.703927 517.02624 
L 409.530109 521.01792 
L 406.242982 521.3808 
L 396.198982 520.4736 
L 379.580727 516.30048 
L 358.944873 509.40576 
L 317.490545 489.81024 
L 299.411345 479.28672 
L 287.723782 471.4848 
L 280.601673 468.21888 
L 271.653382 462.59424 
L 265.626982 454.97376 
L 264.531273 448.8048 
L 267.270545 442.63584 
L 269.096727 440.09568 
L 278.958109 441.5472 
L 303.246327 450.80064 
L 325.525745 462.23136 
L 353.648945 478.7424 
L 380.676436 492.71328 
L 405.877745 507.04704 
L 424.870036 518.47776 
L 432.722618 524.1024 
L 431.079055 525.73536 
L 427.426691 526.27968 
L 418.295782 525.19104 
L 406.790836 521.92512 
L 393.277091 515.21184 
L 375.380509 509.40576 
L 356.022982 499.06368 
L 338.1264 491.26176 
L 320.777673 486.18144 
L 308.724873 475.47648 
L 277.8624 456.42528 
L 268.001018 444.63168 
L 266.357455 433.74528 
L 268.366255 427.75776 
L 278.958109 430.29792 
L 298.498255 441.36576 
L 324.795273 460.77984 
L 352.553236 479.83104 
L 383.050473 499.24512 
L 405.147273 513.94176 
L 419.574109 521.56224 
L 423.774327 524.46528 
L 423.591709 526.27968 
L 414.4608 524.28384 
L 405.512509 521.19936 
L 395.103273 517.38912 
L 381.406909 511.94592 
L 363.875564 505.23264 
L 350.909673 498.7008 
L 337.213309 493.98336 
L 324.612655 487.08864 
L 310.551055 482.73408 
L 298.680873 478.37952 
L 285.8976 461.32416 
L 285.349745 450.25632 
L 292.289236 448.8048 
L 303.794182 446.9904 
L 330.273818 457.51392 
L 362.597236 472.93632 
L 393.459709 489.6288 
L 417.382691 508.49856 
L 430.348582 516.48192 
L 432.357382 519.92928 
L 429.800727 521.56224 
L 425.235273 521.74368 
L 412.817236 519.38496 
L 403.321091 518.29632 
L 394.3728 514.66752 
L 381.224291 510.13152 
L 363.510327 504.32544 
L 346.892073 495.072 
L 333.926182 488.7216 
L 316.760073 481.28256 
L 306.716073 473.11776 
L 293.750182 462.77568 
L 284.436655 450.80064 
L 270.557673 434.83392 
L 271.288145 427.39488 
L 285.349745 432.11232 
L 304.889891 445.176 
L 328.0824 461.14272 
L 354.927273 478.19808 
L 385.059273 501.96672 
L 404.964655 512.85312 
L 415.008655 518.84064 
L 419.208873 521.01792 
L 419.574109 521.3808 
L 417.017455 520.4736 
L 408.982255 519.20352 
L 408.982255 519.20352 
" clip-path="url(#p699aa281cc)" style="fill: none; stroke-dasharray: 5.55,2.4; stroke-dashoffset: 0; stroke: #a52a2a; stroke-opacity: 0.7; stroke-width: 1.5"/>
   </g>
   <g id="line2d_41">
    <path d="M 103.713136 576.72 
L 106.224136 77.76 
" clip-path="url(#p699aa281cc)" style="fill: none; stroke: #0000ff; stroke-width: 0.75; stroke-linecap: square"/>
   </g>
   <g id="line2d_42">
    <path d="M 81 77.76 
L 583.2 576.72 
" clip-path="url(#p699aa281cc)" style="fill: none; stroke: #000000; stroke-width: 1.5; stroke-linecap: square"/>
   </g>
   <g id="line2d_43">
    <path d="M 81 554.04 
L 649 554.04 
" clip-path="url(#p699aa281cc)" style="fill: none; stroke-dasharray: 9.6,2.4,1.5,2.4; stroke-dashoffset: 0; stroke: #000000; stroke-width: 1.5"/>
   </g>
   <g id="line2d_44">
    <path d="M 103.827273 576.72 
L 103.827273 -1 
" clip-path="url(#p699aa281cc)" style="fill: none; stroke-dasharray: 9.6,2.4,1.5,2.4; stroke-dashoffset: 0; stroke: #000000; stroke-width: 1.5"/>
   </g>
   <g id="patch_3">
    <path d="M 81 576.72 
L 81 77.76 
" style="fill: none; stroke: #000000; stroke-width: 0.8; stroke-linejoin: miter; stroke-linecap: square"/>
   </g>
   <g id="patch_4">
    <path d="M 583.2 576.72 
L 583.2 77.76 
" style="fill: none; stroke: #000000; stroke-width: 0.8; stroke-linejoin: miter; stroke-linecap: square"/>
   </g>
   <g id="patch_5">
    <path d="M 81 576.72 
L 583.2 576.72 
" style="fill: none; stroke: #000000; stroke-width: 0.8; stroke-linejoin: miter; stroke-linecap: square"/>
   </g>
   <g id="patch_6">
    <path d="M 81 77.76 
L 583.2 77.76 
" style="fill: none; stroke: #000000; stroke-width: 0.8; stroke-linejoin: miter; stroke-linecap: square"/>
   </g>
   <g id="text_15">
    <!-- Phase diagram with a ratio of 200 predator to prey -->
    <g transform="translate(179.383125 71.76) scale(0.12 -0.12)">
     <defs>
      <path id="DejaVuSans-68" d="M 3513 2113 
L 3513 0 
L 2938 0 
L 2938 2094 
Q 2938 2591 2744 2837 
Q 2550 3084 2163 3084 
Q 1697 3084 1428 2787 
Q 1159 2491 1159 1978 
L 1159 0 
L 581 0 
L 581 4863 
L 1159 4863 
L 1159 2956 
Q 1366 3272 1645 3428 
Q 1925 3584 2291 3584 
Q 2894 3584 3203 3211 
Q 3513 2838 3513 2113 
z
" transform="scale(0.015625)"/>
      <path id="DejaVuSans-73" d="M 2834 3397 
L 2834 2853 
Q 2591 2978 2328 3040 
Q 2066 3103 1784 3103 
Q 1356 3103 1142 2972 
Q 928 2841 928 2578 
Q 928 2378 1081 2264 
Q 1234 2150 1697 2047 
L 1894 2003 
Q 2506 1872 2764 1633 
Q 3022 1394 3022 966 
Q 3022 478 2636 193 
Q 2250 -91 1575 -91 
Q 1294 -91 989 -36 
Q 684 19 347 128 
L 347 722 
Q 666 556 975 473 
Q 1284 391 1588 391 
Q 1994 391 2212 530 
Q 2431 669 2431 922 
Q 2431 1156 2273 1281 
Q 2116 1406 1581 1522 
L 1381 1569 
Q 847 1681 609 1914 
Q 372 2147 372 2553 
Q 372 3047 722 3315 
Q 1072 3584 1716 3584 
Q 2034 3584 2315 3537 
Q 2597 3491 2834 3397 
z
" transform="scale(0.015625)"/>
      <path id="DejaVuSans-67" d="M 2906 1791 
Q 2906 2416 2648 2759 
Q 2391 3103 1925 3103 
Q 1463 3103 1205 2759 
Q 947 2416 947 1791 
Q 947 1169 1205 825 
Q 1463 481 1925 481 
Q 2391 481 2648 825 
Q 2906 1169 2906 1791 
z
M 3481 434 
Q 3481 -459 3084 -895 
Q 2688 -1331 1869 -1331 
Q 1566 -1331 1297 -1286 
Q 1028 -1241 775 -1147 
L 775 -588 
Q 1028 -725 1275 -790 
Q 1522 -856 1778 -856 
Q 2344 -856 2625 -561 
Q 2906 -266 2906 331 
L 2906 616 
Q 2728 306 2450 153 
Q 2172 0 1784 0 
Q 1141 0 747 490 
Q 353 981 353 1791 
Q 353 2603 747 3093 
Q 1141 3584 1784 3584 
Q 2172 3584 2450 3431 
Q 2728 3278 2906 2969 
L 2906 3500 
L 3481 3500 
L 3481 434 
z
" transform="scale(0.015625)"/>
      <path id="DejaVuSans-6d" d="M 3328 2828 
Q 3544 3216 3844 3400 
Q 4144 3584 4550 3584 
Q 5097 3584 5394 3201 
Q 5691 2819 5691 2113 
L 5691 0 
L 5113 0 
L 5113 2094 
Q 5113 2597 4934 2840 
Q 4756 3084 4391 3084 
Q 3944 3084 3684 2787 
Q 3425 2491 3425 1978 
L 3425 0 
L 2847 0 
L 2847 2094 
Q 2847 2600 2669 2842 
Q 2491 3084 2119 3084 
Q 1678 3084 1418 2786 
Q 1159 2488 1159 1978 
L 1159 0 
L 581 0 
L 581 3500 
L 1159 3500 
L 1159 2956 
Q 1356 3278 1631 3431 
Q 1906 3584 2284 3584 
Q 2666 3584 2933 3390 
Q 3200 3197 3328 2828 
z
" transform="scale(0.015625)"/>
      <path id="DejaVuSans-77" d="M 269 3500 
L 844 3500 
L 1563 769 
L 2278 3500 
L 2956 3500 
L 3675 769 
L 4391 3500 
L 4966 3500 
L 4050 0 
L 3372 0 
L 2619 2869 
L 1863 0 
L 1184 0 
L 269 3500 
z
" transform="scale(0.015625)"/>
      <path id="DejaVuSans-66" d="M 2375 4863 
L 2375 4384 
L 1825 4384 
Q 1516 4384 1395 4259 
Q 1275 4134 1275 3809 
L 1275 3500 
L 2222 3500 
L 2222 3053 
L 1275 3053 
L 1275 0 
L 697 0 
L 697 3053 
L 147 3053 
L 147 3500 
L 697 3500 
L 697 3744 
Q 697 4328 969 4595 
Q 1241 4863 1831 4863 
L 2375 4863 
z
" transform="scale(0.015625)"/>
     </defs>
     <use xlink:href="#DejaVuSans-50"/>
     <use xlink:href="#DejaVuSans-68" x="60.302734"/>
     <use xlink:href="#DejaVuSans-61" x="123.681641"/>
     <use xlink:href="#DejaVuSans-73" x="184.960938"/>
     <use xlink:href="#DejaVuSans-65" x="237.060547"/>
     <use xlink:href="#DejaVuSans-20" x="298.583984"/>
     <use xlink:href="#DejaVuSans-64" x="330.371094"/>
     <use xlink:href="#DejaVuSans-69" x="393.847656"/>
     <use xlink:href="#DejaVuSans-61" x="421.630859"/>
     <use xlink:href="#DejaVuSans-67" x="482.910156"/>
     <use xlink:href="#DejaVuSans-72" x="546.386719"/>
     <use xlink:href="#DejaVuSans-61" x="587.5"/>
     <use xlink:href="#DejaVuSans-6d" x="648.779297"/>
     <use xlink:href="#DejaVuSans-20" x="746.191406"/>
     <use xlink:href="#DejaVuSans-77" x="777.978516"/>
     <use xlink:href="#DejaVuSans-69" x="859.765625"/>
     <use xlink:href="#DejaVuSans-74" x="887.548828"/>
     <use xlink:href="#DejaVuSans-68" x="926.757812"/>
     <use xlink:href="#DejaVuSans-20" x="990.136719"/>
     <use xlink:href="#DejaVuSans-61" x="1021.923828"/>
     <use xlink:href="#DejaVuSans-20" x="1083.203125"/>
     <use xlink:href="#DejaVuSans-72" x="1114.990234"/>
     <use xlink:href="#DejaVuSans-61" x="1156.103516"/>
     <use xlink:href="#DejaVuSans-74" x="1217.382812"/>
     <use xlink:href="#DejaVuSans-69" x="1256.591797"/>
     <use xlink:href="#DejaVuSans-6f" x="1284.375"/>
     <use xlink:href="#DejaVuSans-20" x="1345.556641"/>
     <use xlink:href="#DejaVuSans-6f" x="1377.34375"/>
     <use xlink:href="#DejaVuSans-66" x="1438.525391"/>
     <use xlink:href="#DejaVuSans-20" x="1473.730469"/>
     <use xlink:href="#DejaVuSans-32" x="1505.517578"/>
     <use xlink:href="#DejaVuSans-30" x="1569.140625"/>
     <use xlink:href="#DejaVuSans-30" x="1632.763672"/>
     <use xlink:href="#DejaVuSans-20" x="1696.386719"/>
     <use xlink:href="#DejaVuSans-70" x="1728.173828"/>
     <use xlink:href="#DejaVuSans-72" x="1791.650391"/>
     <use xlink:href="#DejaVuSans-65" x="1830.513672"/>
     <use xlink:href="#DejaVuSans-64" x="1892.037109"/>
     <use xlink:href="#DejaVuSans-61" x="1955.513672"/>
     <use xlink:href="#DejaVuSans-74" x="2016.792969"/>
     <use xlink:href="#DejaVuSans-6f" x="2056.001953"/>
     <use xlink:href="#DejaVuSans-72" x="2117.183594"/>
     <use xlink:href="#DejaVuSans-20" x="2158.296875"/>
     <use xlink:href="#DejaVuSans-74" x="2190.083984"/>
     <use xlink:href="#DejaVuSans-6f" x="2229.292969"/>
     <use xlink:href="#DejaVuSans-20" x="2290.474609"/>
     <use xlink:href="#DejaVuSans-70" x="2322.261719"/>
     <use xlink:href="#DejaVuSans-72" x="2385.738281"/>
     <use xlink:href="#DejaVuSans-65" x="2424.601562"/>
     <use xlink:href="#DejaVuSans-79" x="2486.125"/>
    </g>
   </g>
  </g>
 </g>
 <defs>
  <clipPath id="p699aa281cc">
   <rect x="81" y="77.76" width="502.2" height="498.96"/>
  </clipPath>
 </defs>
</svg>
