<?xml version="1.0" encoding="utf-8" standalone="no"?>
<!DOCTYPE svg PUBLIC "-//W3C//DTD SVG 1.1//EN"
  "http://www.w3.org/Graphics/SVG/1.1/DTD/svg11.dtd">
<svg xmlns:xlink="http://www.w3.org/1999/xlink" width="648pt" height="648pt" viewBox="0 0 648 648" xmlns="http://www.w3.org/2000/svg" version="1.1">
 <metadata>
  <rdf:RDF xmlns:dc="http://purl.org/dc/elements/1.1/" xmlns:cc="http://creativecommons.org/ns#" xmlns:rdf="http://www.w3.org/1999/02/22-rdf-syntax-ns#">
   <cc:Work>
    <dc:type rdf:resource="http://purl.org/dc/dcmitype/StillImage"/>
    <dc:date>2025-06-09T11:10:31.286295</dc:date>
    <dc:format>image/svg+xml</dc:format>
    <dc:creator>
     <cc:Agent>
      <dc:title>Matplotlib v3.7.0, https://matplotlib.org/</dc:title>
     </cc:Agent>
    </dc:creator>
   </cc:Work>
  </rdf:RDF>
 </metadata>
 <defs>
  <style type="text/css">*{stroke-linejoin: round; stroke-linecap: butt}</style>
 </defs>
 <g id="figure_1">
  <g id="patch_1">
   <path d="M 0 648 
L 648 648 
L 648 0 
L 0 0 
z
" style="fill: #ffffff"/>
  </g>
  <g id="axes_1">
   <g id="patch_2">
    <path d="M 81 576.72 
L 583.2 576.72 
L 583.2 77.76 
L 81 77.76 
z
" style="fill: #ffffff"/>
   </g>
   <g id="PathCollection_1">
    <defs>
     <path id="mca31cb4b50" d="M -3.535534 3.535534 
L 3.535534 3.535534 
L 3.535534 -3.535534 
L -3.535534 -3.535534 
z
" style="stroke: #0000ff"/>
    </defs>
    <g clip-path="url(#p1c5f24da2b)">
     <use xlink:href="#mca31cb4b50" x="103.827273" y="466.76736" style="fill: #0000ff; stroke: #0000ff"/>
    </g>
   </g>
   <g id="PathCollection_2">
    <defs>
     <path id="mbfe981d1ce" d="M -3.535534 3.535534 
L 3.535534 3.535534 
L 3.535534 -3.535534 
L -3.535534 -3.535534 
z
" style="stroke: #ff0000"/>
    </defs>
    <g clip-path="url(#p1c5f24da2b)">
     <use xlink:href="#mbfe981d1ce" x="103.827273" y="241.78176" style="fill: #ff0000; stroke: #ff0000"/>
    </g>
   </g>
   <g id="PathCollection_3">
    <g clip-path="url(#p1c5f24da2b)">
     <use xlink:href="#mca31cb4b50" x="104.192509" y="372.78144" style="fill: #0000ff; stroke: #0000ff"/>
    </g>
   </g>
   <g id="PathCollection_4">
    <g clip-path="url(#p1c5f24da2b)">
     <use xlink:href="#mbfe981d1ce" x="355.292509" y="402.71904" style="fill: #ff0000; stroke: #ff0000"/>
    </g>
   </g>
   <g id="PathCollection_5">
    <g clip-path="url(#p1c5f24da2b)">
     <use xlink:href="#mca31cb4b50" x="104.192509" y="281.88" style="fill: #0000ff; stroke: #0000ff"/>
    </g>
   </g>
   <g id="PathCollection_6">
    <g clip-path="url(#p1c5f24da2b)">
     <use xlink:href="#mbfe981d1ce" x="425.965745" y="462.4128" style="fill: #ff0000; stroke: #ff0000"/>
    </g>
   </g>
   <g id="PathCollection_7">
    <g clip-path="url(#p1c5f24da2b)">
     <use xlink:href="#mca31cb4b50" x="104.192509" y="189.52704" style="fill: #0000ff; stroke: #0000ff"/>
    </g>
   </g>
   <g id="PathCollection_8">
    <g clip-path="url(#p1c5f24da2b)">
     <use xlink:href="#mbfe981d1ce" x="103.827273" y="242.14464" style="fill: #ff0000; stroke: #ff0000"/>
    </g>
   </g>
   <g id="matplotlib.axis_1">
    <g id="xtick_1">
     <g id="line2d_1">
      <path d="M 103.827273 576.72 
L 103.827273 77.76 
" clip-path="url(#p1c5f24da2b)" style="fill: none; stroke: #b0b0b0; stroke-width: 0.1; stroke-linecap: square"/>
     </g>
     <g id="line2d_2">
      <defs>
       <path id="m7ab4f6d2e3" d="M 0 0 
L 0 3.5 
" style="stroke: #000000; stroke-width: 0.8"/>
      </defs>
      <g>
       <use xlink:href="#m7ab4f6d2e3" x="103.827273" y="576.72" style="stroke: #000000; stroke-width: 0.8"/>
      </g>
     </g>
     <g id="text_1">
      <!-- 0 -->
      <g transform="translate(100.646023 591.318438) scale(0.1 -0.1)">
       <defs>
        <path id="DejaVuSans-30" d="M 2034 4250 
Q 1547 4250 1301 3770 
Q 1056 3291 1056 2328 
Q 1056 1369 1301 889 
Q 1547 409 2034 409 
Q 2525 409 2770 889 
Q 3016 1369 3016 2328 
Q 3016 3291 2770 3770 
Q 2525 4250 2034 4250 
z
M 2034 4750 
Q 2819 4750 3233 4129 
Q 3647 3509 3647 2328 
Q 3647 1150 3233 529 
Q 2819 -91 2034 -91 
Q 1250 -91 836 529 
Q 422 1150 422 2328 
Q 422 3509 836 4129 
Q 1250 4750 2034 4750 
z
" transform="scale(0.015625)"/>
       </defs>
       <use xlink:href="#DejaVuSans-30"/>
      </g>
     </g>
    </g>
    <g id="xtick_2">
     <g id="line2d_3">
      <path d="M 195.136364 576.72 
L 195.136364 77.76 
" clip-path="url(#p1c5f24da2b)" style="fill: none; stroke: #b0b0b0; stroke-width: 0.1; stroke-linecap: square"/>
     </g>
     <g id="line2d_4">
      <g>
       <use xlink:href="#m7ab4f6d2e3" x="195.136364" y="576.72" style="stroke: #000000; stroke-width: 0.8"/>
      </g>
     </g>
     <g id="text_2">
      <!-- 500 -->
      <g transform="translate(185.592614 591.318438) scale(0.1 -0.1)">
       <defs>
        <path id="DejaVuSans-35" d="M 691 4666 
L 3169 4666 
L 3169 4134 
L 1269 4134 
L 1269 2991 
Q 1406 3038 1543 3061 
Q 1681 3084 1819 3084 
Q 2600 3084 3056 2656 
Q 3513 2228 3513 1497 
Q 3513 744 3044 326 
Q 2575 -91 1722 -91 
Q 1428 -91 1123 -41 
Q 819 9 494 109 
L 494 744 
Q 775 591 1075 516 
Q 1375 441 1709 441 
Q 2250 441 2565 725 
Q 2881 1009 2881 1497 
Q 2881 1984 2565 2268 
Q 2250 2553 1709 2553 
Q 1456 2553 1204 2497 
Q 953 2441 691 2322 
L 691 4666 
z
" transform="scale(0.015625)"/>
       </defs>
       <use xlink:href="#DejaVuSans-35"/>
       <use xlink:href="#DejaVuSans-30" x="63.623047"/>
       <use xlink:href="#DejaVuSans-30" x="127.246094"/>
      </g>
     </g>
    </g>
    <g id="xtick_3">
     <g id="line2d_5">
      <path d="M 286.445455 576.72 
L 286.445455 77.76 
" clip-path="url(#p1c5f24da2b)" style="fill: none; stroke: #b0b0b0; stroke-width: 0.1; stroke-linecap: square"/>
     </g>
     <g id="line2d_6">
      <g>
       <use xlink:href="#m7ab4f6d2e3" x="286.445455" y="576.72" style="stroke: #000000; stroke-width: 0.8"/>
      </g>
     </g>
     <g id="text_3">
      <!-- 1000 -->
      <g transform="translate(273.720455 591.318438) scale(0.1 -0.1)">
       <defs>
        <path id="DejaVuSans-31" d="M 794 531 
L 1825 531 
L 1825 4091 
L 703 3866 
L 703 4441 
L 1819 4666 
L 2450 4666 
L 2450 531 
L 3481 531 
L 3481 0 
L 794 0 
L 794 531 
z
" transform="scale(0.015625)"/>
       </defs>
       <use xlink:href="#DejaVuSans-31"/>
       <use xlink:href="#DejaVuSans-30" x="63.623047"/>
       <use xlink:href="#DejaVuSans-30" x="127.246094"/>
       <use xlink:href="#DejaVuSans-30" x="190.869141"/>
      </g>
     </g>
    </g>
    <g id="xtick_4">
     <g id="line2d_7">
      <path d="M 377.754545 576.72 
L 377.754545 77.76 
" clip-path="url(#p1c5f24da2b)" style="fill: none; stroke: #b0b0b0; stroke-width: 0.1; stroke-linecap: square"/>
     </g>
     <g id="line2d_8">
      <g>
       <use xlink:href="#m7ab4f6d2e3" x="377.754545" y="576.72" style="stroke: #000000; stroke-width: 0.8"/>
      </g>
     </g>
     <g id="text_4">
      <!-- 1500 -->
      <g transform="translate(365.029545 591.318438) scale(0.1 -0.1)">
       <use xlink:href="#DejaVuSans-31"/>
       <use xlink:href="#DejaVuSans-35" x="63.623047"/>
       <use xlink:href="#DejaVuSans-30" x="127.246094"/>
       <use xlink:href="#DejaVuSans-30" x="190.869141"/>
      </g>
     </g>
    </g>
    <g id="xtick_5">
     <g id="line2d_9">
      <path d="M 469.063636 576.72 
L 469.063636 77.76 
" clip-path="url(#p1c5f24da2b)" style="fill: none; stroke: #b0b0b0; stroke-width: 0.1; stroke-linecap: square"/>
     </g>
     <g id="line2d_10">
      <g>
       <use xlink:href="#m7ab4f6d2e3" x="469.063636" y="576.72" style="stroke: #000000; stroke-width: 0.8"/>
      </g>
     </g>
     <g id="text_5">
      <!-- 2000 -->
      <g transform="translate(456.338636 591.318438) scale(0.1 -0.1)">
       <defs>
        <path id="DejaVuSans-32" d="M 1228 531 
L 3431 531 
L 3431 0 
L 469 0 
L 469 531 
Q 828 903 1448 1529 
Q 2069 2156 2228 2338 
Q 2531 2678 2651 2914 
Q 2772 3150 2772 3378 
Q 2772 3750 2511 3984 
Q 2250 4219 1831 4219 
Q 1534 4219 1204 4116 
Q 875 4013 500 3803 
L 500 4441 
Q 881 4594 1212 4672 
Q 1544 4750 1819 4750 
Q 2544 4750 2975 4387 
Q 3406 4025 3406 3419 
Q 3406 3131 3298 2873 
Q 3191 2616 2906 2266 
Q 2828 2175 2409 1742 
Q 1991 1309 1228 531 
z
" transform="scale(0.015625)"/>
       </defs>
       <use xlink:href="#DejaVuSans-32"/>
       <use xlink:href="#DejaVuSans-30" x="63.623047"/>
       <use xlink:href="#DejaVuSans-30" x="127.246094"/>
       <use xlink:href="#DejaVuSans-30" x="190.869141"/>
      </g>
     </g>
    </g>
    <g id="xtick_6">
     <g id="line2d_11">
      <path d="M 560.372727 576.72 
L 560.372727 77.76 
" clip-path="url(#p1c5f24da2b)" style="fill: none; stroke: #b0b0b0; stroke-width: 0.1; stroke-linecap: square"/>
     </g>
     <g id="line2d_12">
      <g>
       <use xlink:href="#m7ab4f6d2e3" x="560.372727" y="576.72" style="stroke: #000000; stroke-width: 0.8"/>
      </g>
     </g>
     <g id="text_6">
      <!-- 2500 -->
      <g transform="translate(547.647727 591.318438) scale(0.1 -0.1)">
       <use xlink:href="#DejaVuSans-32"/>
       <use xlink:href="#DejaVuSans-35" x="63.623047"/>
       <use xlink:href="#DejaVuSans-30" x="127.246094"/>
       <use xlink:href="#DejaVuSans-30" x="190.869141"/>
      </g>
     </g>
    </g>
    <g id="text_7">
     <!-- Predator population -->
     <g transform="translate(282.64375 604.996562) scale(0.1 -0.1)">
      <defs>
       <path id="DejaVuSans-50" d="M 1259 4147 
L 1259 2394 
L 2053 2394 
Q 2494 2394 2734 2622 
Q 2975 2850 2975 3272 
Q 2975 3691 2734 3919 
Q 2494 4147 2053 4147 
L 1259 4147 
z
M 628 4666 
L 2053 4666 
Q 2838 4666 3239 4311 
Q 3641 3956 3641 3272 
Q 3641 2581 3239 2228 
Q 2838 1875 2053 1875 
L 1259 1875 
L 1259 0 
L 628 0 
L 628 4666 
z
" transform="scale(0.015625)"/>
       <path id="DejaVuSans-72" d="M 2631 2963 
Q 2534 3019 2420 3045 
Q 2306 3072 2169 3072 
Q 1681 3072 1420 2755 
Q 1159 2438 1159 1844 
L 1159 0 
L 581 0 
L 581 3500 
L 1159 3500 
L 1159 2956 
Q 1341 3275 1631 3429 
Q 1922 3584 2338 3584 
Q 2397 3584 2469 3576 
Q 2541 3569 2628 3553 
L 2631 2963 
z
" transform="scale(0.015625)"/>
       <path id="DejaVuSans-65" d="M 3597 1894 
L 3597 1613 
L 953 1613 
Q 991 1019 1311 708 
Q 1631 397 2203 397 
Q 2534 397 2845 478 
Q 3156 559 3463 722 
L 3463 178 
Q 3153 47 2828 -22 
Q 2503 -91 2169 -91 
Q 1331 -91 842 396 
Q 353 884 353 1716 
Q 353 2575 817 3079 
Q 1281 3584 2069 3584 
Q 2775 3584 3186 3129 
Q 3597 2675 3597 1894 
z
M 3022 2063 
Q 3016 2534 2758 2815 
Q 2500 3097 2075 3097 
Q 1594 3097 1305 2825 
Q 1016 2553 972 2059 
L 3022 2063 
z
" transform="scale(0.015625)"/>
       <path id="DejaVuSans-64" d="M 2906 2969 
L 2906 4863 
L 3481 4863 
L 3481 0 
L 2906 0 
L 2906 525 
Q 2725 213 2448 61 
Q 2172 -91 1784 -91 
Q 1150 -91 751 415 
Q 353 922 353 1747 
Q 353 2572 751 3078 
Q 1150 3584 1784 3584 
Q 2172 3584 2448 3432 
Q 2725 3281 2906 2969 
z
M 947 1747 
Q 947 1113 1208 752 
Q 1469 391 1925 391 
Q 2381 391 2643 752 
Q 2906 1113 2906 1747 
Q 2906 2381 2643 2742 
Q 2381 3103 1925 3103 
Q 1469 3103 1208 2742 
Q 947 2381 947 1747 
z
" transform="scale(0.015625)"/>
       <path id="DejaVuSans-61" d="M 2194 1759 
Q 1497 1759 1228 1600 
Q 959 1441 959 1056 
Q 959 750 1161 570 
Q 1363 391 1709 391 
Q 2188 391 2477 730 
Q 2766 1069 2766 1631 
L 2766 1759 
L 2194 1759 
z
M 3341 1997 
L 3341 0 
L 2766 0 
L 2766 531 
Q 2569 213 2275 61 
Q 1981 -91 1556 -91 
Q 1019 -91 701 211 
Q 384 513 384 1019 
Q 384 1609 779 1909 
Q 1175 2209 1959 2209 
L 2766 2209 
L 2766 2266 
Q 2766 2663 2505 2880 
Q 2244 3097 1772 3097 
Q 1472 3097 1187 3025 
Q 903 2953 641 2809 
L 641 3341 
Q 956 3463 1253 3523 
Q 1550 3584 1831 3584 
Q 2591 3584 2966 3190 
Q 3341 2797 3341 1997 
z
" transform="scale(0.015625)"/>
       <path id="DejaVuSans-74" d="M 1172 4494 
L 1172 3500 
L 2356 3500 
L 2356 3053 
L 1172 3053 
L 1172 1153 
Q 1172 725 1289 603 
Q 1406 481 1766 481 
L 2356 481 
L 2356 0 
L 1766 0 
Q 1100 0 847 248 
Q 594 497 594 1153 
L 594 3053 
L 172 3053 
L 172 3500 
L 594 3500 
L 594 4494 
L 1172 4494 
z
" transform="scale(0.015625)"/>
       <path id="DejaVuSans-6f" d="M 1959 3097 
Q 1497 3097 1228 2736 
Q 959 2375 959 1747 
Q 959 1119 1226 758 
Q 1494 397 1959 397 
Q 2419 397 2687 759 
Q 2956 1122 2956 1747 
Q 2956 2369 2687 2733 
Q 2419 3097 1959 3097 
z
M 1959 3584 
Q 2709 3584 3137 3096 
Q 3566 2609 3566 1747 
Q 3566 888 3137 398 
Q 2709 -91 1959 -91 
Q 1206 -91 779 398 
Q 353 888 353 1747 
Q 353 2609 779 3096 
Q 1206 3584 1959 3584 
z
" transform="scale(0.015625)"/>
       <path id="DejaVuSans-20" transform="scale(0.015625)"/>
       <path id="DejaVuSans-70" d="M 1159 525 
L 1159 -1331 
L 581 -1331 
L 581 3500 
L 1159 3500 
L 1159 2969 
Q 1341 3281 1617 3432 
Q 1894 3584 2278 3584 
Q 2916 3584 3314 3078 
Q 3713 2572 3713 1747 
Q 3713 922 3314 415 
Q 2916 -91 2278 -91 
Q 1894 -91 1617 61 
Q 1341 213 1159 525 
z
M 3116 1747 
Q 3116 2381 2855 2742 
Q 2594 3103 2138 3103 
Q 1681 3103 1420 2742 
Q 1159 2381 1159 1747 
Q 1159 1113 1420 752 
Q 1681 391 2138 391 
Q 2594 391 2855 752 
Q 3116 1113 3116 1747 
z
" transform="scale(0.015625)"/>
       <path id="DejaVuSans-75" d="M 544 1381 
L 544 3500 
L 1119 3500 
L 1119 1403 
Q 1119 906 1312 657 
Q 1506 409 1894 409 
Q 2359 409 2629 706 
Q 2900 1003 2900 1516 
L 2900 3500 
L 3475 3500 
L 3475 0 
L 2900 0 
L 2900 538 
Q 2691 219 2414 64 
Q 2138 -91 1772 -91 
Q 1169 -91 856 284 
Q 544 659 544 1381 
z
M 1991 3584 
L 1991 3584 
z
" transform="scale(0.015625)"/>
       <path id="DejaVuSans-6c" d="M 603 4863 
L 1178 4863 
L 1178 0 
L 603 0 
L 603 4863 
z
" transform="scale(0.015625)"/>
       <path id="DejaVuSans-69" d="M 603 3500 
L 1178 3500 
L 1178 0 
L 603 0 
L 603 3500 
z
M 603 4863 
L 1178 4863 
L 1178 4134 
L 603 4134 
L 603 4863 
z
" transform="scale(0.015625)"/>
       <path id="DejaVuSans-6e" d="M 3513 2113 
L 3513 0 
L 2938 0 
L 2938 2094 
Q 2938 2591 2744 2837 
Q 2550 3084 2163 3084 
Q 1697 3084 1428 2787 
Q 1159 2491 1159 1978 
L 1159 0 
L 581 0 
L 581 3500 
L 1159 3500 
L 1159 2956 
Q 1366 3272 1645 3428 
Q 1925 3584 2291 3584 
Q 2894 3584 3203 3211 
Q 3513 2838 3513 2113 
z
" transform="scale(0.015625)"/>
      </defs>
      <use xlink:href="#DejaVuSans-50"/>
      <use xlink:href="#DejaVuSans-72" x="58.552734"/>
      <use xlink:href="#DejaVuSans-65" x="97.416016"/>
      <use xlink:href="#DejaVuSans-64" x="158.939453"/>
      <use xlink:href="#DejaVuSans-61" x="222.416016"/>
      <use xlink:href="#DejaVuSans-74" x="283.695312"/>
      <use xlink:href="#DejaVuSans-6f" x="322.904297"/>
      <use xlink:href="#DejaVuSans-72" x="384.085938"/>
      <use xlink:href="#DejaVuSans-20" x="425.199219"/>
      <use xlink:href="#DejaVuSans-70" x="456.986328"/>
      <use xlink:href="#DejaVuSans-6f" x="520.462891"/>
      <use xlink:href="#DejaVuSans-70" x="581.644531"/>
      <use xlink:href="#DejaVuSans-75" x="645.121094"/>
      <use xlink:href="#DejaVuSans-6c" x="708.5"/>
      <use xlink:href="#DejaVuSans-61" x="736.283203"/>
      <use xlink:href="#DejaVuSans-74" x="797.5625"/>
      <use xlink:href="#DejaVuSans-69" x="836.771484"/>
      <use xlink:href="#DejaVuSans-6f" x="864.554688"/>
      <use xlink:href="#DejaVuSans-6e" x="925.736328"/>
     </g>
    </g>
   </g>
   <g id="matplotlib.axis_2">
    <g id="ytick_1">
     <g id="line2d_13">
      <path d="M 81 554.04 
L 583.2 554.04 
" clip-path="url(#p1c5f24da2b)" style="fill: none; stroke: #b0b0b0; stroke-width: 0.1; stroke-linecap: square"/>
     </g>
     <g id="line2d_14">
      <defs>
       <path id="m4cf130df34" d="M 0 0 
L -3.5 0 
" style="stroke: #000000; stroke-width: 0.8"/>
      </defs>
      <g>
       <use xlink:href="#m4cf130df34" x="81" y="554.04" style="stroke: #000000; stroke-width: 0.8"/>
      </g>
     </g>
     <g id="text_8">
      <!-- 0 -->
      <g transform="translate(67.6375 557.839219) scale(0.1 -0.1)">
       <use xlink:href="#DejaVuSans-30"/>
      </g>
     </g>
    </g>
    <g id="ytick_2">
     <g id="line2d_15">
      <path d="M 81 463.32 
L 583.2 463.32 
" clip-path="url(#p1c5f24da2b)" style="fill: none; stroke: #b0b0b0; stroke-width: 0.1; stroke-linecap: square"/>
     </g>
     <g id="line2d_16">
      <g>
       <use xlink:href="#m4cf130df34" x="81" y="463.32" style="stroke: #000000; stroke-width: 0.8"/>
      </g>
     </g>
     <g id="text_9">
      <!-- 500 -->
      <g transform="translate(54.9125 467.119219) scale(0.1 -0.1)">
       <use xlink:href="#DejaVuSans-35"/>
       <use xlink:href="#DejaVuSans-30" x="63.623047"/>
       <use xlink:href="#DejaVuSans-30" x="127.246094"/>
      </g>
     </g>
    </g>
    <g id="ytick_3">
     <g id="line2d_17">
      <path d="M 81 372.6 
L 583.2 372.6 
" clip-path="url(#p1c5f24da2b)" style="fill: none; stroke: #b0b0b0; stroke-width: 0.1; stroke-linecap: square"/>
     </g>
     <g id="line2d_18">
      <g>
       <use xlink:href="#m4cf130df34" x="81" y="372.6" style="stroke: #000000; stroke-width: 0.8"/>
      </g>
     </g>
     <g id="text_10">
      <!-- 1000 -->
      <g transform="translate(48.55 376.399219) scale(0.1 -0.1)">
       <use xlink:href="#DejaVuSans-31"/>
       <use xlink:href="#DejaVuSans-30" x="63.623047"/>
       <use xlink:href="#DejaVuSans-30" x="127.246094"/>
       <use xlink:href="#DejaVuSans-30" x="190.869141"/>
      </g>
     </g>
    </g>
    <g id="ytick_4">
     <g id="line2d_19">
      <path d="M 81 281.88 
L 583.2 281.88 
" clip-path="url(#p1c5f24da2b)" style="fill: none; stroke: #b0b0b0; stroke-width: 0.1; stroke-linecap: square"/>
     </g>
     <g id="line2d_20">
      <g>
       <use xlink:href="#m4cf130df34" x="81" y="281.88" style="stroke: #000000; stroke-width: 0.8"/>
      </g>
     </g>
     <g id="text_11">
      <!-- 1500 -->
      <g transform="translate(48.55 285.679219) scale(0.1 -0.1)">
       <use xlink:href="#DejaVuSans-31"/>
       <use xlink:href="#DejaVuSans-35" x="63.623047"/>
       <use xlink:href="#DejaVuSans-30" x="127.246094"/>
       <use xlink:href="#DejaVuSans-30" x="190.869141"/>
      </g>
     </g>
    </g>
    <g id="ytick_5">
     <g id="line2d_21">
      <path d="M 81 191.16 
L 583.2 191.16 
" clip-path="url(#p1c5f24da2b)" style="fill: none; stroke: #b0b0b0; stroke-width: 0.1; stroke-linecap: square"/>
     </g>
     <g id="line2d_22">
      <g>
       <use xlink:href="#m4cf130df34" x="81" y="191.16" style="stroke: #000000; stroke-width: 0.8"/>
      </g>
     </g>
     <g id="text_12">
      <!-- 2000 -->
      <g transform="translate(48.55 194.959219) scale(0.1 -0.1)">
       <use xlink:href="#DejaVuSans-32"/>
       <use xlink:href="#DejaVuSans-30" x="63.623047"/>
       <use xlink:href="#DejaVuSans-30" x="127.246094"/>
       <use xlink:href="#DejaVuSans-30" x="190.869141"/>
      </g>
     </g>
    </g>
    <g id="ytick_6">
     <g id="line2d_23">
      <path d="M 81 100.44 
L 583.2 100.44 
" clip-path="url(#p1c5f24da2b)" style="fill: none; stroke: #b0b0b0; stroke-width: 0.1; stroke-linecap: square"/>
     </g>
     <g id="line2d_24">
      <g>
       <use xlink:href="#m4cf130df34" x="81" y="100.44" style="stroke: #000000; stroke-width: 0.8"/>
      </g>
     </g>
     <g id="text_13">
      <!-- 2500 -->
      <g transform="translate(48.55 104.239219) scale(0.1 -0.1)">
       <use xlink:href="#DejaVuSans-32"/>
       <use xlink:href="#DejaVuSans-35" x="63.623047"/>
       <use xlink:href="#DejaVuSans-30" x="127.246094"/>
       <use xlink:href="#DejaVuSans-30" x="190.869141"/>
      </g>
     </g>
    </g>
    <g id="text_14">
     <!-- Prey population -->
     <g transform="translate(42.470312 366.342344) rotate(-90) scale(0.1 -0.1)">
      <defs>
       <path id="DejaVuSans-79" d="M 2059 -325 
Q 1816 -950 1584 -1140 
Q 1353 -1331 966 -1331 
L 506 -1331 
L 506 -850 
L 844 -850 
Q 1081 -850 1212 -737 
Q 1344 -625 1503 -206 
L 1606 56 
L 191 3500 
L 800 3500 
L 1894 763 
L 2988 3500 
L 3597 3500 
L 2059 -325 
z
" transform="scale(0.015625)"/>
      </defs>
      <use xlink:href="#DejaVuSans-50"/>
      <use xlink:href="#DejaVuSans-72" x="58.552734"/>
      <use xlink:href="#DejaVuSans-65" x="97.416016"/>
      <use xlink:href="#DejaVuSans-79" x="158.939453"/>
      <use xlink:href="#DejaVuSans-20" x="218.119141"/>
      <use xlink:href="#DejaVuSans-70" x="249.90625"/>
      <use xlink:href="#DejaVuSans-6f" x="313.382812"/>
      <use xlink:href="#DejaVuSans-70" x="374.564453"/>
      <use xlink:href="#DejaVuSans-75" x="438.041016"/>
      <use xlink:href="#DejaVuSans-6c" x="501.419922"/>
      <use xlink:href="#DejaVuSans-61" x="529.203125"/>
      <use xlink:href="#DejaVuSans-74" x="590.482422"/>
      <use xlink:href="#DejaVuSans-69" x="629.691406"/>
      <use xlink:href="#DejaVuSans-6f" x="657.474609"/>
      <use xlink:href="#DejaVuSans-6e" x="718.65625"/>
     </g>
    </g>
   </g>
   <g id="line2d_25">
    <path d="M 103.827273 466.76736 
L 103.827273 151.06176 
L 103.827273 241.78176 
" clip-path="url(#p1c5f24da2b)" style="fill: none; stroke-dasharray: 5.55,2.4; stroke-dashoffset: 0; stroke: #008000; stroke-opacity: 0.7; stroke-width: 1.5"/>
   </g>
   <g id="line2d_26">
    <path d="M 103.804445 576.72 
L 104.306645 77.76 
" clip-path="url(#p1c5f24da2b)" style="fill: none; stroke: #0000ff; stroke-width: 0.75; stroke-linecap: square"/>
   </g>
   <g id="line2d_27">
    <path d="M 81 77.76 
L 583.2 576.72 
" clip-path="url(#p1c5f24da2b)" style="fill: none; stroke: #000000; stroke-width: 1.5; stroke-linecap: square"/>
   </g>
   <g id="line2d_28">
    <path d="M 81 554.04 
L 649 554.04 
" clip-path="url(#p1c5f24da2b)" style="fill: none; stroke-dasharray: 9.6,2.4,1.5,2.4; stroke-dashoffset: 0; stroke: #000000; stroke-width: 1.5"/>
   </g>
   <g id="line2d_29">
    <path d="M 103.827273 576.72 
L 103.827273 -1 
" clip-path="url(#p1c5f24da2b)" style="fill: none; stroke-dasharray: 9.6,2.4,1.5,2.4; stroke-dashoffset: 0; stroke: #000000; stroke-width: 1.5"/>
   </g>
   <g id="line2d_30">
    <path d="M 104.192509 372.78144 
L 104.375127 218.55744 
L 104.922982 122.2128 
L 106.383927 165.39552 
L 110.766764 276.07392 
L 113.323418 292.58496 
L 118.801964 269.90496 
L 123.550036 255.38976 
L 131.585236 260.65152 
L 139.985673 271.71936 
L 149.116582 272.08224 
L 157.517018 270.63072 
L 169.569818 288.41184 
L 181.987855 289.50048 
L 194.223273 298.2096 
L 206.823927 319.80096 
L 221.068145 322.88544 
L 235.6776 335.04192 
L 248.095636 339.57792 
L 264.166036 351.37152 
L 282.245236 370.24128 
L 297.219927 373.32576 
L 315.116509 384.03072 
L 332.647855 394.00992 
L 354.379418 404.71488 
L 375.380509 426.85056 
L 395.833745 443.3616 
L 404.964655 449.34912 
L 415.373891 457.51392 
L 424.5048 466.40448 
L 418.843636 461.86848 
L 415.921745 459.87264 
L 411.173673 456.9696 
L 407.156073 450.25632 
L 405.877745 448.8048 
L 397.294691 448.44192 
L 393.277091 441.72864 
L 397.112073 440.27712 
L 396.746836 442.81728 
L 394.738036 438.46272 
L 396.016364 435.1968 
L 397.842545 436.28544 
L 398.207782 440.82144 
L 408.4344 449.53056 
L 412.634618 455.88096 
L 404.051564 454.42944 
L 397.294691 445.53888 
L 383.780945 431.02368 
L 377.937164 419.04864 
L 370.2672 418.14144 
L 375.380509 418.50432 
L 389.807345 434.65248 
L 401.677527 448.62336 
L 402.408 445.35744 
L 397.294691 438.28128 
L 403.686327 439.36992 
L 412.817236 446.62752 
L 420.121964 455.51808 
L 426.148364 466.76736 
L 425.235273 470.03328 
L 414.095564 462.23136 
L 395.468509 452.25216 
L 389.442109 436.82976 
L 385.972364 432.83808 
L 387.068073 436.28544 
L 393.642327 437.55552 
L 396.929455 443.3616 
L 394.738036 439.00704 
L 399.668727 439.55136 
L 399.668727 438.28128 
L 410.077964 444.08736 
L 416.834836 448.62336 
L 422.313382 456.60672 
L 426.330982 460.77984 
L 411.356291 452.79648 
L 400.581818 442.27296 
L 388.3464 437.37408 
L 383.415709 433.74528 
L 381.406909 428.8464 
L 379.032873 429.02784 
L 375.015273 427.032 
L 377.571927 425.03616 
L 385.241891 431.93088 
L 389.076873 435.01536 
L 406.4256 445.176 
L 416.104364 455.51808 
L 424.322182 467.13024 
L 425.235273 470.21472 
L 415.921745 460.77984 
L 401.494909 448.44192 
L 391.268291 436.46688 
L 391.085673 427.75776 
L 385.972364 432.29376 
L 388.3464 435.92256 
L 377.754545 430.29792 
L 372.458618 423.04032 
L 378.3024 427.032 
L 391.085673 435.01536 
L 408.4344 439.00704 
L 423.774327 452.25216 
L 438.201164 464.2272 
L 441.853527 470.39616 
L 437.470691 473.2992 
L 421.217673 467.67456 
L 407.703927 457.8768 
L 395.285891 446.80896 
L 388.163782 439.7328 
L 375.380509 433.92672 
L 363.327709 423.04032 
L 354.562036 409.25088 
L 355.109891 406.34784 
L 364.2408 411.42816 
L 388.711636 427.75776 
L 411.721527 443.54304 
L 429.435491 456.9696 
L 437.288073 468.03744 
L 437.835927 471.4848 
L 431.626909 468.03744 
L 425.783127 461.32416 
L 422.496 461.32416 
L 410.4432 457.33248 
L 394.3728 447.17184 
L 372.641236 427.21344 
L 352.918473 413.424 
L 354.1968 406.89216 
L 355.840364 405.62208 
L 367.162691 417.0528 
L 391.268291 433.56384 
L 405.329891 440.27712 
L 415.008655 446.44608 
L 421.765527 455.33664 
L 433.087855 462.59424 
L 437.653309 470.75904 
L 433.087855 470.03328 
L 421.217673 462.23136 
L 408.617018 457.69536 
L 388.3464 446.0832 
L 368.623636 425.94336 
L 353.466327 412.33536 
L 349.996582 401.08608 
L 356.2056 403.80768 
L 364.423418 409.43232 
L 377.937164 421.40736 
L 392.546618 430.84224 
L 409.530109 444.99456 
L 427.426691 458.784 
L 435.096655 465.1344 
L 433.087855 468.03744 
L 421.948145 460.5984 
L 409.347491 454.06656 
L 396.564218 451.70784 
L 382.867855 443.72448 
L 365.884364 431.02368 
L 354.562036 411.42816 
L 347.074691 404.53344 
L 350.361818 403.98912 
L 365.153891 409.97664 
L 384.3288 428.30208 
L 406.242982 443.54304 
L 423.409091 456.24384 
L 434.914036 465.49728 
L 436.374982 467.856 
L 429.800727 465.86016 
L 427.974545 464.77152 
L 417.565309 460.23552 
L 401.494909 451.16352 
L 374.650036 436.28544 
L 353.283709 418.32288 
L 341.596145 398.54592 
L 340.317818 398.9088 
L 354.562036 403.4448 
L 373.371709 419.95584 
L 392.364 432.65664 
L 406.060364 444.63168 
L 425.600509 456.42528 
L 437.288073 466.22304 
L 440.209964 474.2064 
L 433.087855 470.75904 
L 422.130764 465.67872 
L 407.521309 459.32832 
L 388.894255 446.9904 
L 374.467418 433.92672 
L 355.292509 413.78688 
L 347.987782 409.61376 
L 338.856873 402.5376 
L 346.526836 400.54176 
L 387.798545 434.10816 
L 409.530109 447.53472 
L 423.774327 461.14272 
L 426.5136 467.49312 
L 426.148364 467.67456 
L 420.669818 459.6912 
L 414.095564 454.42944 
L 405.147273 448.26048 
L 391.816145 440.64 
L 370.815055 426.1248 
L 358.762255 413.96832 
L 355.292509 402.71904 
L 355.292509 402.71904 
" clip-path="url(#p1c5f24da2b)" style="fill: none; stroke-dasharray: 5.55,2.4; stroke-dashoffset: 0; stroke: #ffa500; stroke-opacity: 0.7; stroke-width: 1.5"/>
   </g>
   <g id="line2d_31">
    <path d="M 103.804445 576.72 
L 104.306645 77.76 
" clip-path="url(#p1c5f24da2b)" style="fill: none; stroke: #0000ff; stroke-width: 0.75; stroke-linecap: square"/>
   </g>
   <g id="line2d_32">
    <path d="M 81 77.76 
L 583.2 576.72 
" clip-path="url(#p1c5f24da2b)" style="fill: none; stroke: #000000; stroke-width: 1.5; stroke-linecap: square"/>
   </g>
   <g id="line2d_33">
    <path d="M 81 554.04 
L 649 554.04 
" clip-path="url(#p1c5f24da2b)" style="fill: none; stroke-dasharray: 9.6,2.4,1.5,2.4; stroke-dashoffset: 0; stroke: #000000; stroke-width: 1.5"/>
   </g>
   <g id="line2d_34">
    <path d="M 103.827273 576.72 
L 103.827273 -1 
" clip-path="url(#p1c5f24da2b)" style="fill: none; stroke-dasharray: 9.6,2.4,1.5,2.4; stroke-dashoffset: 0; stroke: #000000; stroke-width: 1.5"/>
   </g>
   <g id="line2d_35">
    <path d="M 104.192509 281.88 
L 104.375127 143.0784 
L 105.288218 115.49952 
L 107.1144 196.05888 
L 110.401527 280.60992 
L 114.601745 292.40352 
L 118.619345 268.09056 
L 124.097891 262.46592 
L 133.594036 271.53792 
L 143.090182 268.99776 
L 154.412509 267.00192 
L 171.396 288.04896 
L 188.927345 301.65696 
L 207.189164 308.91456 
L 225.998836 317.98656 
L 243.530182 337.40064 
L 262.705091 352.46016 
L 280.966909 359.35488 
L 300.141818 373.68864 
L 315.481745 388.20384 
L 331.369527 397.0944 
L 344.1528 405.44064 
L 361.501527 418.68576 
L 382.32 435.74112 
L 395.468509 442.09152 
L 406.790836 453.52224 
L 414.826036 461.14272 
L 415.921745 464.59008 
L 413.730327 462.04992 
L 411.356291 458.96544 
L 417.382691 458.96544 
L 419.026255 461.14272 
L 421.035055 466.22304 
L 413.547709 468.03744 
L 395.285891 457.8768 
L 385.241891 440.27712 
L 374.102182 426.66912 
L 373.736945 421.5888 
L 383.415709 429.39072 
L 389.807345 442.09152 
L 397.659927 445.176 
L 397.659927 445.35744 
L 396.016364 444.2688 
L 396.746836 441.91008 
L 404.964655 444.2688 
L 413.912945 455.33664 
L 417.747927 463.32 
L 411.721527 462.23136 
L 403.686327 453.52224 
L 385.241891 441.5472 
L 370.449818 424.67328 
L 370.084582 415.2384 
L 373.189091 415.78272 
L 393.277091 437.19264 
L 401.677527 446.44608 
L 410.077964 453.70368 
L 406.608218 451.16352 
L 402.955855 442.4544 
L 408.982255 444.2688 
L 418.661018 456.24384 
L 426.5136 463.86432 
L 428.5224 469.6704 
L 416.104364 464.40864 
L 400.033964 453.52224 
L 382.32 437.55552 
L 371.180291 424.3104 
L 376.2936 423.22176 
L 393.094473 433.56384 
L 402.773236 445.53888 
L 397.112073 442.27296 
L 391.085673 435.37824 
L 397.659927 441.18432 
L 415.739127 457.51392 
L 421.765527 467.49312 
L 420.852436 470.03328 
L 409.347491 460.23552 
L 391.450909 445.176 
L 378.485018 429.93504 
L 370.2672 423.04032 
L 374.650036 429.39072 
L 385.607127 435.1968 
L 392.546618 441.18432 
L 391.268291 443.3616 
L 384.876655 436.82976 
L 389.076873 429.57216 
L 408.251782 445.53888 
L 411.721527 452.97792 
L 418.295782 458.96544 
L 417.747927 461.86848 
L 405.147273 458.784 
L 388.3464 440.64 
L 378.667636 424.67328 
L 378.850255 421.77024 
L 386.520218 434.2896 
L 395.285891 440.64 
L 397.659927 440.64 
L 393.459709 437.9184 
L 388.529018 437.55552 
L 387.981164 435.01536 
L 400.033964 442.4544 
L 411.356291 451.5264 
L 414.643418 460.23552 
L 408.799636 462.04992 
L 396.198982 450.43776 
L 378.850255 430.84224 
L 370.815055 412.5168 
L 374.2848 412.33536 
L 380.3112 427.57632 
L 385.972364 440.45856 
L 380.676436 435.01536 
L 383.233091 438.09984 
L 387.981164 436.46688 
L 385.607127 433.3824 
L 389.076873 431.74944 
L 395.285891 436.82976 
L 396.198982 441.36576 
L 395.103273 446.0832 
L 391.268291 445.72032 
L 386.702836 437.19264 
L 383.780945 437.55552 
L 374.467418 436.28544 
L 372.823855 428.8464 
L 391.998764 438.28128 
L 398.755636 453.70368 
L 400.947055 452.79648 
L 406.790836 453.15936 
L 403.138473 448.62336 
L 398.938255 442.4544 
L 389.442109 436.104 
L 388.529018 433.01952 
L 383.780945 437.0112 
L 382.32 432.11232 
L 381.589527 425.76192 
L 375.745745 425.2176 
L 373.189091 420.86304 
L 380.128582 424.67328 
L 393.459709 436.46688 
L 408.982255 452.25216 
L 419.026255 455.33664 
L 421.948145 459.32832 
L 424.870036 461.86848 
L 411.904145 456.42528 
L 397.477309 442.4544 
L 389.624727 433.92672 
L 383.050473 430.29792 
L 373.554327 425.76192 
L 367.527927 419.7744 
L 366.432218 410.52096 
L 365.153891 408.34368 
L 375.928364 420.6816 
L 388.3464 430.6608 
L 402.225382 442.09152 
L 417.382691 455.88096 
L 429.070255 465.67872 
L 430.713818 467.67456 
L 419.756727 457.15104 
L 402.042764 446.44608 
L 388.894255 437.0112 
L 387.798545 435.74112 
L 384.511418 436.82976 
L 377.754545 435.92256 
L 369.536727 423.58464 
L 361.136291 410.33952 
L 358.2144 414.87552 
L 366.797455 420.31872 
L 388.163782 425.2176 
L 416.104364 447.35328 
L 435.644509 468.7632 
L 436.922836 471.30336 
L 427.244073 467.856 
L 412.634618 459.14688 
L 403.686327 450.98208 
L 395.285891 442.81728 
L 390.903055 439.55136 
L 387.615927 438.46272 
L 374.102182 431.568 
L 356.2056 420.31872 
L 347.622545 405.44064 
L 354.927273 405.80352 
L 367.893164 423.04032 
L 382.32 440.45856 
L 398.573018 448.8048 
L 405.877745 451.16352 
L 408.982255 448.62336 
L 405.877745 446.80896 
L 396.198982 442.81728 
L 392.546618 437.73696 
L 385.059273 432.4752 
L 378.3024 428.12064 
L 370.815055 419.7744 
L 368.075782 413.24256 
L 366.614836 409.25088 
L 371.545527 414.14976 
L 381.954764 428.12064 
L 395.468509 439.91424 
L 407.521309 448.62336 
L 421.217673 457.69536 
L 425.965745 462.4128 
L 425.965745 462.4128 
" clip-path="url(#p1c5f24da2b)" style="fill: none; stroke-dasharray: 5.55,2.4; stroke-dashoffset: 0; stroke: #800080; stroke-opacity: 0.7; stroke-width: 1.5"/>
   </g>
   <g id="line2d_36">
    <path d="M 103.804445 576.72 
L 104.306645 77.76 
" clip-path="url(#p1c5f24da2b)" style="fill: none; stroke: #0000ff; stroke-width: 0.75; stroke-linecap: square"/>
   </g>
   <g id="line2d_37">
    <path d="M 81 77.76 
L 583.2 576.72 
" clip-path="url(#p1c5f24da2b)" style="fill: none; stroke: #000000; stroke-width: 1.5; stroke-linecap: square"/>
   </g>
   <g id="line2d_38">
    <path d="M 81 554.04 
L 649 554.04 
" clip-path="url(#p1c5f24da2b)" style="fill: none; stroke-dasharray: 9.6,2.4,1.5,2.4; stroke-dashoffset: 0; stroke: #000000; stroke-width: 1.5"/>
   </g>
   <g id="line2d_39">
    <path d="M 103.827273 576.72 
L 103.827273 -1 
" clip-path="url(#p1c5f24da2b)" style="fill: none; stroke-dasharray: 9.6,2.4,1.5,2.4; stroke-dashoffset: 0; stroke: #000000; stroke-width: 1.5"/>
   </g>
   <g id="line2d_40">
    <path d="M 104.192509 189.52704 
L 104.192509 116.58816 
L 104.192509 271.35648 
L 103.827273 238.15296 
L 103.827273 240.51168 
L 103.827273 253.21248 
L 103.827273 231.80256 
L 103.827273 242.14464 
" clip-path="url(#p1c5f24da2b)" style="fill: none; stroke-dasharray: 5.55,2.4; stroke-dashoffset: 0; stroke: #a52a2a; stroke-opacity: 0.7; stroke-width: 1.5"/>
   </g>
   <g id="line2d_41">
    <path d="M 103.804445 576.72 
L 104.306645 77.76 
" clip-path="url(#p1c5f24da2b)" style="fill: none; stroke: #0000ff; stroke-width: 0.75; stroke-linecap: square"/>
   </g>
   <g id="line2d_42">
    <path d="M 81 77.76 
L 583.2 576.72 
" clip-path="url(#p1c5f24da2b)" style="fill: none; stroke: #000000; stroke-width: 1.5; stroke-linecap: square"/>
   </g>
   <g id="line2d_43">
    <path d="M 81 554.04 
L 649 554.04 
" clip-path="url(#p1c5f24da2b)" style="fill: none; stroke-dasharray: 9.6,2.4,1.5,2.4; stroke-dashoffset: 0; stroke: #000000; stroke-width: 1.5"/>
   </g>
   <g id="line2d_44">
    <path d="M 103.827273 576.72 
L 103.827273 -1 
" clip-path="url(#p1c5f24da2b)" style="fill: none; stroke-dasharray: 9.6,2.4,1.5,2.4; stroke-dashoffset: 0; stroke: #000000; stroke-width: 1.5"/>
   </g>
   <g id="patch_3">
    <path d="M 81 576.72 
L 81 77.76 
" style="fill: none; stroke: #000000; stroke-width: 0.8; stroke-linejoin: miter; stroke-linecap: square"/>
   </g>
   <g id="patch_4">
    <path d="M 583.2 576.72 
L 583.2 77.76 
" style="fill: none; stroke: #000000; stroke-width: 0.8; stroke-linejoin: miter; stroke-linecap: square"/>
   </g>
   <g id="patch_5">
    <path d="M 81 576.72 
L 583.2 576.72 
" style="fill: none; stroke: #000000; stroke-width: 0.8; stroke-linejoin: miter; stroke-linecap: square"/>
   </g>
   <g id="patch_6">
    <path d="M 81 77.76 
L 583.2 77.76 
" style="fill: none; stroke: #000000; stroke-width: 0.8; stroke-linejoin: miter; stroke-linecap: square"/>
   </g>
   <g id="text_15">
    <!-- Phase diagram with a ratio of 1000 predator to prey -->
    <g transform="translate(175.565625 71.76) scale(0.12 -0.12)">
     <defs>
      <path id="DejaVuSans-68" d="M 3513 2113 
L 3513 0 
L 2938 0 
L 2938 2094 
Q 2938 2591 2744 2837 
Q 2550 3084 2163 3084 
Q 1697 3084 1428 2787 
Q 1159 2491 1159 1978 
L 1159 0 
L 581 0 
L 581 4863 
L 1159 4863 
L 1159 2956 
Q 1366 3272 1645 3428 
Q 1925 3584 2291 3584 
Q 2894 3584 3203 3211 
Q 3513 2838 3513 2113 
z
" transform="scale(0.015625)"/>
      <path id="DejaVuSans-73" d="M 2834 3397 
L 2834 2853 
Q 2591 2978 2328 3040 
Q 2066 3103 1784 3103 
Q 1356 3103 1142 2972 
Q 928 2841 928 2578 
Q 928 2378 1081 2264 
Q 1234 2150 1697 2047 
L 1894 2003 
Q 2506 1872 2764 1633 
Q 3022 1394 3022 966 
Q 3022 478 2636 193 
Q 2250 -91 1575 -91 
Q 1294 -91 989 -36 
Q 684 19 347 128 
L 347 722 
Q 666 556 975 473 
Q 1284 391 1588 391 
Q 1994 391 2212 530 
Q 2431 669 2431 922 
Q 2431 1156 2273 1281 
Q 2116 1406 1581 1522 
L 1381 1569 
Q 847 1681 609 1914 
Q 372 2147 372 2553 
Q 372 3047 722 3315 
Q 1072 3584 1716 3584 
Q 2034 3584 2315 3537 
Q 2597 3491 2834 3397 
z
" transform="scale(0.015625)"/>
      <path id="DejaVuSans-67" d="M 2906 1791 
Q 2906 2416 2648 2759 
Q 2391 3103 1925 3103 
Q 1463 3103 1205 2759 
Q 947 2416 947 1791 
Q 947 1169 1205 825 
Q 1463 481 1925 481 
Q 2391 481 2648 825 
Q 2906 1169 2906 1791 
z
M 3481 434 
Q 3481 -459 3084 -895 
Q 2688 -1331 1869 -1331 
Q 1566 -1331 1297 -1286 
Q 1028 -1241 775 -1147 
L 775 -588 
Q 1028 -725 1275 -790 
Q 1522 -856 1778 -856 
Q 2344 -856 2625 -561 
Q 2906 -266 2906 331 
L 2906 616 
Q 2728 306 2450 153 
Q 2172 0 1784 0 
Q 1141 0 747 490 
Q 353 981 353 1791 
Q 353 2603 747 3093 
Q 1141 3584 1784 3584 
Q 2172 3584 2450 3431 
Q 2728 3278 2906 2969 
L 2906 3500 
L 3481 3500 
L 3481 434 
z
" transform="scale(0.015625)"/>
      <path id="DejaVuSans-6d" d="M 3328 2828 
Q 3544 3216 3844 3400 
Q 4144 3584 4550 3584 
Q 5097 3584 5394 3201 
Q 5691 2819 5691 2113 
L 5691 0 
L 5113 0 
L 5113 2094 
Q 5113 2597 4934 2840 
Q 4756 3084 4391 3084 
Q 3944 3084 3684 2787 
Q 3425 2491 3425 1978 
L 3425 0 
L 2847 0 
L 2847 2094 
Q 2847 2600 2669 2842 
Q 2491 3084 2119 3084 
Q 1678 3084 1418 2786 
Q 1159 2488 1159 1978 
L 1159 0 
L 581 0 
L 581 3500 
L 1159 3500 
L 1159 2956 
Q 1356 3278 1631 3431 
Q 1906 3584 2284 3584 
Q 2666 3584 2933 3390 
Q 3200 3197 3328 2828 
z
" transform="scale(0.015625)"/>
      <path id="DejaVuSans-77" d="M 269 3500 
L 844 3500 
L 1563 769 
L 2278 3500 
L 2956 3500 
L 3675 769 
L 4391 3500 
L 4966 3500 
L 4050 0 
L 3372 0 
L 2619 2869 
L 1863 0 
L 1184 0 
L 269 3500 
z
" transform="scale(0.015625)"/>
      <path id="DejaVuSans-66" d="M 2375 4863 
L 2375 4384 
L 1825 4384 
Q 1516 4384 1395 4259 
Q 1275 4134 1275 3809 
L 1275 3500 
L 2222 3500 
L 2222 3053 
L 1275 3053 
L 1275 0 
L 697 0 
L 697 3053 
L 147 3053 
L 147 3500 
L 697 3500 
L 697 3744 
Q 697 4328 969 4595 
Q 1241 4863 1831 4863 
L 2375 4863 
z
" transform="scale(0.015625)"/>
     </defs>
     <use xlink:href="#DejaVuSans-50"/>
     <use xlink:href="#DejaVuSans-68" x="60.302734"/>
     <use xlink:href="#DejaVuSans-61" x="123.681641"/>
     <use xlink:href="#DejaVuSans-73" x="184.960938"/>
     <use xlink:href="#DejaVuSans-65" x="237.060547"/>
     <use xlink:href="#DejaVuSans-20" x="298.583984"/>
     <use xlink:href="#DejaVuSans-64" x="330.371094"/>
     <use xlink:href="#DejaVuSans-69" x="393.847656"/>
     <use xlink:href="#DejaVuSans-61" x="421.630859"/>
     <use xlink:href="#DejaVuSans-67" x="482.910156"/>
     <use xlink:href="#DejaVuSans-72" x="546.386719"/>
     <use xlink:href="#DejaVuSans-61" x="587.5"/>
     <use xlink:href="#DejaVuSans-6d" x="648.779297"/>
     <use xlink:href="#DejaVuSans-20" x="746.191406"/>
     <use xlink:href="#DejaVuSans-77" x="777.978516"/>
     <use xlink:href="#DejaVuSans-69" x="859.765625"/>
     <use xlink:href="#DejaVuSans-74" x="887.548828"/>
     <use xlink:href="#DejaVuSans-68" x="926.757812"/>
     <use xlink:href="#DejaVuSans-20" x="990.136719"/>
     <use xlink:href="#DejaVuSans-61" x="1021.923828"/>
     <use xlink:href="#DejaVuSans-20" x="1083.203125"/>
     <use xlink:href="#DejaVuSans-72" x="1114.990234"/>
     <use xlink:href="#DejaVuSans-61" x="1156.103516"/>
     <use xlink:href="#DejaVuSans-74" x="1217.382812"/>
     <use xlink:href="#DejaVuSans-69" x="1256.591797"/>
     <use xlink:href="#DejaVuSans-6f" x="1284.375"/>
     <use xlink:href="#DejaVuSans-20" x="1345.556641"/>
     <use xlink:href="#DejaVuSans-6f" x="1377.34375"/>
     <use xlink:href="#DejaVuSans-66" x="1438.525391"/>
     <use xlink:href="#DejaVuSans-20" x="1473.730469"/>
     <use xlink:href="#DejaVuSans-31" x="1505.517578"/>
     <use xlink:href="#DejaVuSans-30" x="1569.140625"/>
     <use xlink:href="#DejaVuSans-30" x="1632.763672"/>
     <use xlink:href="#DejaVuSans-30" x="1696.386719"/>
     <use xlink:href="#DejaVuSans-20" x="1760.009766"/>
     <use xlink:href="#DejaVuSans-70" x="1791.796875"/>
     <use xlink:href="#DejaVuSans-72" x="1855.273438"/>
     <use xlink:href="#DejaVuSans-65" x="1894.136719"/>
     <use xlink:href="#DejaVuSans-64" x="1955.660156"/>
     <use xlink:href="#DejaVuSans-61" x="2019.136719"/>
     <use xlink:href="#DejaVuSans-74" x="2080.416016"/>
     <use xlink:href="#DejaVuSans-6f" x="2119.625"/>
     <use xlink:href="#DejaVuSans-72" x="2180.806641"/>
     <use xlink:href="#DejaVuSans-20" x="2221.919922"/>
     <use xlink:href="#DejaVuSans-74" x="2253.707031"/>
     <use xlink:href="#DejaVuSans-6f" x="2292.916016"/>
     <use xlink:href="#DejaVuSans-20" x="2354.097656"/>
     <use xlink:href="#DejaVuSans-70" x="2385.884766"/>
     <use xlink:href="#DejaVuSans-72" x="2449.361328"/>
     <use xlink:href="#DejaVuSans-65" x="2488.224609"/>
     <use xlink:href="#DejaVuSans-79" x="2549.748047"/>
    </g>
   </g>
  </g>
 </g>
 <defs>
  <clipPath id="p1c5f24da2b">
   <rect x="81" y="77.76" width="502.2" height="498.96"/>
  </clipPath>
 </defs>
</svg>
