<?xml version="1.0" encoding="utf-8" standalone="no"?>
<!DOCTYPE svg PUBLIC "-//W3C//DTD SVG 1.1//EN"
  "http://www.w3.org/Graphics/SVG/1.1/DTD/svg11.dtd">
<svg xmlns:xlink="http://www.w3.org/1999/xlink" width="648pt" height="648pt" viewBox="0 0 648 648" xmlns="http://www.w3.org/2000/svg" version="1.1">
 <metadata>
  <rdf:RDF xmlns:dc="http://purl.org/dc/elements/1.1/" xmlns:cc="http://creativecommons.org/ns#" xmlns:rdf="http://www.w3.org/1999/02/22-rdf-syntax-ns#">
   <cc:Work>
    <dc:type rdf:resource="http://purl.org/dc/dcmitype/StillImage"/>
    <dc:date>2025-06-09T11:29:45.218545</dc:date>
    <dc:format>image/svg+xml</dc:format>
    <dc:creator>
     <cc:Agent>
      <dc:title>Matplotlib v3.7.0, https://matplotlib.org/</dc:title>
     </cc:Agent>
    </dc:creator>
   </cc:Work>
  </rdf:RDF>
 </metadata>
 <defs>
  <style type="text/css">*{stroke-linejoin: round; stroke-linecap: butt}</style>
 </defs>
 <g id="figure_1">
  <g id="patch_1">
   <path d="M 0 648 
L 648 648 
L 648 0 
L 0 0 
z
" style="fill: #ffffff"/>
  </g>
  <g id="axes_1">
   <g id="patch_2">
    <path d="M 81 576.72 
L 583.2 576.72 
L 583.2 77.76 
L 81 77.76 
z
" style="fill: #ffffff"/>
   </g>
   <g id="PathCollection_1">
    <defs>
     <path id="m6216d79456" d="M -3.535534 3.535534 
L 3.535534 3.535534 
L 3.535534 -3.535534 
L -3.535534 -3.535534 
z
" style="stroke: #0000ff"/>
    </defs>
    <g clip-path="url(#pd15c446cef)">
     <use xlink:href="#m6216d79456" x="186.370691" y="548.77824" style="fill: #0000ff; stroke: #0000ff"/>
    </g>
   </g>
   <g id="PathCollection_2">
    <defs>
     <path id="m2bcdb357c4" d="M -3.535534 3.535534 
L 3.535534 3.535534 
L 3.535534 -3.535534 
L -3.535534 -3.535534 
z
" style="stroke: #ff0000"/>
    </defs>
    <g clip-path="url(#pd15c446cef)">
     <use xlink:href="#m2bcdb357c4" x="328.0824" y="468.7632" style="fill: #ff0000; stroke: #ff0000"/>
    </g>
   </g>
   <g id="PathCollection_3">
    <g clip-path="url(#pd15c446cef)">
     <use xlink:href="#m6216d79456" x="276.949309" y="544.42368" style="fill: #0000ff; stroke: #0000ff"/>
    </g>
   </g>
   <g id="PathCollection_4">
    <g clip-path="url(#pd15c446cef)">
     <use xlink:href="#m2bcdb357c4" x="324.430036" y="465.1344" style="fill: #ff0000; stroke: #ff0000"/>
    </g>
   </g>
   <g id="PathCollection_5">
    <g clip-path="url(#pd15c446cef)">
     <use xlink:href="#m6216d79456" x="365.701745" y="541.70208" style="fill: #0000ff; stroke: #0000ff"/>
    </g>
   </g>
   <g id="PathCollection_6">
    <g clip-path="url(#pd15c446cef)">
     <use xlink:href="#m2bcdb357c4" x="409.347491" y="504.144" style="fill: #ff0000; stroke: #ff0000"/>
    </g>
   </g>
   <g id="PathCollection_7">
    <g clip-path="url(#pd15c446cef)">
     <use xlink:href="#m6216d79456" x="451.897527" y="534.9888" style="fill: #0000ff; stroke: #0000ff"/>
    </g>
   </g>
   <g id="PathCollection_8">
    <g clip-path="url(#pd15c446cef)">
     <use xlink:href="#m2bcdb357c4" x="291.558764" y="490.536" style="fill: #ff0000; stroke: #ff0000"/>
    </g>
   </g>
   <g id="matplotlib.axis_1">
    <g id="xtick_1">
     <g id="line2d_1">
      <path d="M 103.827273 576.72 
L 103.827273 77.76 
" clip-path="url(#pd15c446cef)" style="fill: none; stroke: #b0b0b0; stroke-width: 0.1; stroke-linecap: square"/>
     </g>
     <g id="line2d_2">
      <defs>
       <path id="m02dc07c2ac" d="M 0 0 
L 0 3.5 
" style="stroke: #000000; stroke-width: 0.8"/>
      </defs>
      <g>
       <use xlink:href="#m02dc07c2ac" x="103.827273" y="576.72" style="stroke: #000000; stroke-width: 0.8"/>
      </g>
     </g>
     <g id="text_1">
      <!-- 0 -->
      <g transform="translate(100.646023 591.318438) scale(0.1 -0.1)">
       <defs>
        <path id="DejaVuSans-30" d="M 2034 4250 
Q 1547 4250 1301 3770 
Q 1056 3291 1056 2328 
Q 1056 1369 1301 889 
Q 1547 409 2034 409 
Q 2525 409 2770 889 
Q 3016 1369 3016 2328 
Q 3016 3291 2770 3770 
Q 2525 4250 2034 4250 
z
M 2034 4750 
Q 2819 4750 3233 4129 
Q 3647 3509 3647 2328 
Q 3647 1150 3233 529 
Q 2819 -91 2034 -91 
Q 1250 -91 836 529 
Q 422 1150 422 2328 
Q 422 3509 836 4129 
Q 1250 4750 2034 4750 
z
" transform="scale(0.015625)"/>
       </defs>
       <use xlink:href="#DejaVuSans-30"/>
      </g>
     </g>
    </g>
    <g id="xtick_2">
     <g id="line2d_3">
      <path d="M 195.136364 576.72 
L 195.136364 77.76 
" clip-path="url(#pd15c446cef)" style="fill: none; stroke: #b0b0b0; stroke-width: 0.1; stroke-linecap: square"/>
     </g>
     <g id="line2d_4">
      <g>
       <use xlink:href="#m02dc07c2ac" x="195.136364" y="576.72" style="stroke: #000000; stroke-width: 0.8"/>
      </g>
     </g>
     <g id="text_2">
      <!-- 500 -->
      <g transform="translate(185.592614 591.318438) scale(0.1 -0.1)">
       <defs>
        <path id="DejaVuSans-35" d="M 691 4666 
L 3169 4666 
L 3169 4134 
L 1269 4134 
L 1269 2991 
Q 1406 3038 1543 3061 
Q 1681 3084 1819 3084 
Q 2600 3084 3056 2656 
Q 3513 2228 3513 1497 
Q 3513 744 3044 326 
Q 2575 -91 1722 -91 
Q 1428 -91 1123 -41 
Q 819 9 494 109 
L 494 744 
Q 775 591 1075 516 
Q 1375 441 1709 441 
Q 2250 441 2565 725 
Q 2881 1009 2881 1497 
Q 2881 1984 2565 2268 
Q 2250 2553 1709 2553 
Q 1456 2553 1204 2497 
Q 953 2441 691 2322 
L 691 4666 
z
" transform="scale(0.015625)"/>
       </defs>
       <use xlink:href="#DejaVuSans-35"/>
       <use xlink:href="#DejaVuSans-30" x="63.623047"/>
       <use xlink:href="#DejaVuSans-30" x="127.246094"/>
      </g>
     </g>
    </g>
    <g id="xtick_3">
     <g id="line2d_5">
      <path d="M 286.445455 576.72 
L 286.445455 77.76 
" clip-path="url(#pd15c446cef)" style="fill: none; stroke: #b0b0b0; stroke-width: 0.1; stroke-linecap: square"/>
     </g>
     <g id="line2d_6">
      <g>
       <use xlink:href="#m02dc07c2ac" x="286.445455" y="576.72" style="stroke: #000000; stroke-width: 0.8"/>
      </g>
     </g>
     <g id="text_3">
      <!-- 1000 -->
      <g transform="translate(273.720455 591.318438) scale(0.1 -0.1)">
       <defs>
        <path id="DejaVuSans-31" d="M 794 531 
L 1825 531 
L 1825 4091 
L 703 3866 
L 703 4441 
L 1819 4666 
L 2450 4666 
L 2450 531 
L 3481 531 
L 3481 0 
L 794 0 
L 794 531 
z
" transform="scale(0.015625)"/>
       </defs>
       <use xlink:href="#DejaVuSans-31"/>
       <use xlink:href="#DejaVuSans-30" x="63.623047"/>
       <use xlink:href="#DejaVuSans-30" x="127.246094"/>
       <use xlink:href="#DejaVuSans-30" x="190.869141"/>
      </g>
     </g>
    </g>
    <g id="xtick_4">
     <g id="line2d_7">
      <path d="M 377.754545 576.72 
L 377.754545 77.76 
" clip-path="url(#pd15c446cef)" style="fill: none; stroke: #b0b0b0; stroke-width: 0.1; stroke-linecap: square"/>
     </g>
     <g id="line2d_8">
      <g>
       <use xlink:href="#m02dc07c2ac" x="377.754545" y="576.72" style="stroke: #000000; stroke-width: 0.8"/>
      </g>
     </g>
     <g id="text_4">
      <!-- 1500 -->
      <g transform="translate(365.029545 591.318438) scale(0.1 -0.1)">
       <use xlink:href="#DejaVuSans-31"/>
       <use xlink:href="#DejaVuSans-35" x="63.623047"/>
       <use xlink:href="#DejaVuSans-30" x="127.246094"/>
       <use xlink:href="#DejaVuSans-30" x="190.869141"/>
      </g>
     </g>
    </g>
    <g id="xtick_5">
     <g id="line2d_9">
      <path d="M 469.063636 576.72 
L 469.063636 77.76 
" clip-path="url(#pd15c446cef)" style="fill: none; stroke: #b0b0b0; stroke-width: 0.1; stroke-linecap: square"/>
     </g>
     <g id="line2d_10">
      <g>
       <use xlink:href="#m02dc07c2ac" x="469.063636" y="576.72" style="stroke: #000000; stroke-width: 0.8"/>
      </g>
     </g>
     <g id="text_5">
      <!-- 2000 -->
      <g transform="translate(456.338636 591.318438) scale(0.1 -0.1)">
       <defs>
        <path id="DejaVuSans-32" d="M 1228 531 
L 3431 531 
L 3431 0 
L 469 0 
L 469 531 
Q 828 903 1448 1529 
Q 2069 2156 2228 2338 
Q 2531 2678 2651 2914 
Q 2772 3150 2772 3378 
Q 2772 3750 2511 3984 
Q 2250 4219 1831 4219 
Q 1534 4219 1204 4116 
Q 875 4013 500 3803 
L 500 4441 
Q 881 4594 1212 4672 
Q 1544 4750 1819 4750 
Q 2544 4750 2975 4387 
Q 3406 4025 3406 3419 
Q 3406 3131 3298 2873 
Q 3191 2616 2906 2266 
Q 2828 2175 2409 1742 
Q 1991 1309 1228 531 
z
" transform="scale(0.015625)"/>
       </defs>
       <use xlink:href="#DejaVuSans-32"/>
       <use xlink:href="#DejaVuSans-30" x="63.623047"/>
       <use xlink:href="#DejaVuSans-30" x="127.246094"/>
       <use xlink:href="#DejaVuSans-30" x="190.869141"/>
      </g>
     </g>
    </g>
    <g id="xtick_6">
     <g id="line2d_11">
      <path d="M 560.372727 576.72 
L 560.372727 77.76 
" clip-path="url(#pd15c446cef)" style="fill: none; stroke: #b0b0b0; stroke-width: 0.1; stroke-linecap: square"/>
     </g>
     <g id="line2d_12">
      <g>
       <use xlink:href="#m02dc07c2ac" x="560.372727" y="576.72" style="stroke: #000000; stroke-width: 0.8"/>
      </g>
     </g>
     <g id="text_6">
      <!-- 2500 -->
      <g transform="translate(547.647727 591.318438) scale(0.1 -0.1)">
       <use xlink:href="#DejaVuSans-32"/>
       <use xlink:href="#DejaVuSans-35" x="63.623047"/>
       <use xlink:href="#DejaVuSans-30" x="127.246094"/>
       <use xlink:href="#DejaVuSans-30" x="190.869141"/>
      </g>
     </g>
    </g>
    <g id="text_7">
     <!-- Predator population -->
     <g transform="translate(282.64375 604.996562) scale(0.1 -0.1)">
      <defs>
       <path id="DejaVuSans-50" d="M 1259 4147 
L 1259 2394 
L 2053 2394 
Q 2494 2394 2734 2622 
Q 2975 2850 2975 3272 
Q 2975 3691 2734 3919 
Q 2494 4147 2053 4147 
L 1259 4147 
z
M 628 4666 
L 2053 4666 
Q 2838 4666 3239 4311 
Q 3641 3956 3641 3272 
Q 3641 2581 3239 2228 
Q 2838 1875 2053 1875 
L 1259 1875 
L 1259 0 
L 628 0 
L 628 4666 
z
" transform="scale(0.015625)"/>
       <path id="DejaVuSans-72" d="M 2631 2963 
Q 2534 3019 2420 3045 
Q 2306 3072 2169 3072 
Q 1681 3072 1420 2755 
Q 1159 2438 1159 1844 
L 1159 0 
L 581 0 
L 581 3500 
L 1159 3500 
L 1159 2956 
Q 1341 3275 1631 3429 
Q 1922 3584 2338 3584 
Q 2397 3584 2469 3576 
Q 2541 3569 2628 3553 
L 2631 2963 
z
" transform="scale(0.015625)"/>
       <path id="DejaVuSans-65" d="M 3597 1894 
L 3597 1613 
L 953 1613 
Q 991 1019 1311 708 
Q 1631 397 2203 397 
Q 2534 397 2845 478 
Q 3156 559 3463 722 
L 3463 178 
Q 3153 47 2828 -22 
Q 2503 -91 2169 -91 
Q 1331 -91 842 396 
Q 353 884 353 1716 
Q 353 2575 817 3079 
Q 1281 3584 2069 3584 
Q 2775 3584 3186 3129 
Q 3597 2675 3597 1894 
z
M 3022 2063 
Q 3016 2534 2758 2815 
Q 2500 3097 2075 3097 
Q 1594 3097 1305 2825 
Q 1016 2553 972 2059 
L 3022 2063 
z
" transform="scale(0.015625)"/>
       <path id="DejaVuSans-64" d="M 2906 2969 
L 2906 4863 
L 3481 4863 
L 3481 0 
L 2906 0 
L 2906 525 
Q 2725 213 2448 61 
Q 2172 -91 1784 -91 
Q 1150 -91 751 415 
Q 353 922 353 1747 
Q 353 2572 751 3078 
Q 1150 3584 1784 3584 
Q 2172 3584 2448 3432 
Q 2725 3281 2906 2969 
z
M 947 1747 
Q 947 1113 1208 752 
Q 1469 391 1925 391 
Q 2381 391 2643 752 
Q 2906 1113 2906 1747 
Q 2906 2381 2643 2742 
Q 2381 3103 1925 3103 
Q 1469 3103 1208 2742 
Q 947 2381 947 1747 
z
" transform="scale(0.015625)"/>
       <path id="DejaVuSans-61" d="M 2194 1759 
Q 1497 1759 1228 1600 
Q 959 1441 959 1056 
Q 959 750 1161 570 
Q 1363 391 1709 391 
Q 2188 391 2477 730 
Q 2766 1069 2766 1631 
L 2766 1759 
L 2194 1759 
z
M 3341 1997 
L 3341 0 
L 2766 0 
L 2766 531 
Q 2569 213 2275 61 
Q 1981 -91 1556 -91 
Q 1019 -91 701 211 
Q 384 513 384 1019 
Q 384 1609 779 1909 
Q 1175 2209 1959 2209 
L 2766 2209 
L 2766 2266 
Q 2766 2663 2505 2880 
Q 2244 3097 1772 3097 
Q 1472 3097 1187 3025 
Q 903 2953 641 2809 
L 641 3341 
Q 956 3463 1253 3523 
Q 1550 3584 1831 3584 
Q 2591 3584 2966 3190 
Q 3341 2797 3341 1997 
z
" transform="scale(0.015625)"/>
       <path id="DejaVuSans-74" d="M 1172 4494 
L 1172 3500 
L 2356 3500 
L 2356 3053 
L 1172 3053 
L 1172 1153 
Q 1172 725 1289 603 
Q 1406 481 1766 481 
L 2356 481 
L 2356 0 
L 1766 0 
Q 1100 0 847 248 
Q 594 497 594 1153 
L 594 3053 
L 172 3053 
L 172 3500 
L 594 3500 
L 594 4494 
L 1172 4494 
z
" transform="scale(0.015625)"/>
       <path id="DejaVuSans-6f" d="M 1959 3097 
Q 1497 3097 1228 2736 
Q 959 2375 959 1747 
Q 959 1119 1226 758 
Q 1494 397 1959 397 
Q 2419 397 2687 759 
Q 2956 1122 2956 1747 
Q 2956 2369 2687 2733 
Q 2419 3097 1959 3097 
z
M 1959 3584 
Q 2709 3584 3137 3096 
Q 3566 2609 3566 1747 
Q 3566 888 3137 398 
Q 2709 -91 1959 -91 
Q 1206 -91 779 398 
Q 353 888 353 1747 
Q 353 2609 779 3096 
Q 1206 3584 1959 3584 
z
" transform="scale(0.015625)"/>
       <path id="DejaVuSans-20" transform="scale(0.015625)"/>
       <path id="DejaVuSans-70" d="M 1159 525 
L 1159 -1331 
L 581 -1331 
L 581 3500 
L 1159 3500 
L 1159 2969 
Q 1341 3281 1617 3432 
Q 1894 3584 2278 3584 
Q 2916 3584 3314 3078 
Q 3713 2572 3713 1747 
Q 3713 922 3314 415 
Q 2916 -91 2278 -91 
Q 1894 -91 1617 61 
Q 1341 213 1159 525 
z
M 3116 1747 
Q 3116 2381 2855 2742 
Q 2594 3103 2138 3103 
Q 1681 3103 1420 2742 
Q 1159 2381 1159 1747 
Q 1159 1113 1420 752 
Q 1681 391 2138 391 
Q 2594 391 2855 752 
Q 3116 1113 3116 1747 
z
" transform="scale(0.015625)"/>
       <path id="DejaVuSans-75" d="M 544 1381 
L 544 3500 
L 1119 3500 
L 1119 1403 
Q 1119 906 1312 657 
Q 1506 409 1894 409 
Q 2359 409 2629 706 
Q 2900 1003 2900 1516 
L 2900 3500 
L 3475 3500 
L 3475 0 
L 2900 0 
L 2900 538 
Q 2691 219 2414 64 
Q 2138 -91 1772 -91 
Q 1169 -91 856 284 
Q 544 659 544 1381 
z
M 1991 3584 
L 1991 3584 
z
" transform="scale(0.015625)"/>
       <path id="DejaVuSans-6c" d="M 603 4863 
L 1178 4863 
L 1178 0 
L 603 0 
L 603 4863 
z
" transform="scale(0.015625)"/>
       <path id="DejaVuSans-69" d="M 603 3500 
L 1178 3500 
L 1178 0 
L 603 0 
L 603 3500 
z
M 603 4863 
L 1178 4863 
L 1178 4134 
L 603 4134 
L 603 4863 
z
" transform="scale(0.015625)"/>
       <path id="DejaVuSans-6e" d="M 3513 2113 
L 3513 0 
L 2938 0 
L 2938 2094 
Q 2938 2591 2744 2837 
Q 2550 3084 2163 3084 
Q 1697 3084 1428 2787 
Q 1159 2491 1159 1978 
L 1159 0 
L 581 0 
L 581 3500 
L 1159 3500 
L 1159 2956 
Q 1366 3272 1645 3428 
Q 1925 3584 2291 3584 
Q 2894 3584 3203 3211 
Q 3513 2838 3513 2113 
z
" transform="scale(0.015625)"/>
      </defs>
      <use xlink:href="#DejaVuSans-50"/>
      <use xlink:href="#DejaVuSans-72" x="58.552734"/>
      <use xlink:href="#DejaVuSans-65" x="97.416016"/>
      <use xlink:href="#DejaVuSans-64" x="158.939453"/>
      <use xlink:href="#DejaVuSans-61" x="222.416016"/>
      <use xlink:href="#DejaVuSans-74" x="283.695312"/>
      <use xlink:href="#DejaVuSans-6f" x="322.904297"/>
      <use xlink:href="#DejaVuSans-72" x="384.085938"/>
      <use xlink:href="#DejaVuSans-20" x="425.199219"/>
      <use xlink:href="#DejaVuSans-70" x="456.986328"/>
      <use xlink:href="#DejaVuSans-6f" x="520.462891"/>
      <use xlink:href="#DejaVuSans-70" x="581.644531"/>
      <use xlink:href="#DejaVuSans-75" x="645.121094"/>
      <use xlink:href="#DejaVuSans-6c" x="708.5"/>
      <use xlink:href="#DejaVuSans-61" x="736.283203"/>
      <use xlink:href="#DejaVuSans-74" x="797.5625"/>
      <use xlink:href="#DejaVuSans-69" x="836.771484"/>
      <use xlink:href="#DejaVuSans-6f" x="864.554688"/>
      <use xlink:href="#DejaVuSans-6e" x="925.736328"/>
     </g>
    </g>
   </g>
   <g id="matplotlib.axis_2">
    <g id="ytick_1">
     <g id="line2d_13">
      <path d="M 81 554.04 
L 583.2 554.04 
" clip-path="url(#pd15c446cef)" style="fill: none; stroke: #b0b0b0; stroke-width: 0.1; stroke-linecap: square"/>
     </g>
     <g id="line2d_14">
      <defs>
       <path id="m94ec18796b" d="M 0 0 
L -3.5 0 
" style="stroke: #000000; stroke-width: 0.8"/>
      </defs>
      <g>
       <use xlink:href="#m94ec18796b" x="81" y="554.04" style="stroke: #000000; stroke-width: 0.8"/>
      </g>
     </g>
     <g id="text_8">
      <!-- 0 -->
      <g transform="translate(67.6375 557.839219) scale(0.1 -0.1)">
       <use xlink:href="#DejaVuSans-30"/>
      </g>
     </g>
    </g>
    <g id="ytick_2">
     <g id="line2d_15">
      <path d="M 81 463.32 
L 583.2 463.32 
" clip-path="url(#pd15c446cef)" style="fill: none; stroke: #b0b0b0; stroke-width: 0.1; stroke-linecap: square"/>
     </g>
     <g id="line2d_16">
      <g>
       <use xlink:href="#m94ec18796b" x="81" y="463.32" style="stroke: #000000; stroke-width: 0.8"/>
      </g>
     </g>
     <g id="text_9">
      <!-- 500 -->
      <g transform="translate(54.9125 467.119219) scale(0.1 -0.1)">
       <use xlink:href="#DejaVuSans-35"/>
       <use xlink:href="#DejaVuSans-30" x="63.623047"/>
       <use xlink:href="#DejaVuSans-30" x="127.246094"/>
      </g>
     </g>
    </g>
    <g id="ytick_3">
     <g id="line2d_17">
      <path d="M 81 372.6 
L 583.2 372.6 
" clip-path="url(#pd15c446cef)" style="fill: none; stroke: #b0b0b0; stroke-width: 0.1; stroke-linecap: square"/>
     </g>
     <g id="line2d_18">
      <g>
       <use xlink:href="#m94ec18796b" x="81" y="372.6" style="stroke: #000000; stroke-width: 0.8"/>
      </g>
     </g>
     <g id="text_10">
      <!-- 1000 -->
      <g transform="translate(48.55 376.399219) scale(0.1 -0.1)">
       <use xlink:href="#DejaVuSans-31"/>
       <use xlink:href="#DejaVuSans-30" x="63.623047"/>
       <use xlink:href="#DejaVuSans-30" x="127.246094"/>
       <use xlink:href="#DejaVuSans-30" x="190.869141"/>
      </g>
     </g>
    </g>
    <g id="ytick_4">
     <g id="line2d_19">
      <path d="M 81 281.88 
L 583.2 281.88 
" clip-path="url(#pd15c446cef)" style="fill: none; stroke: #b0b0b0; stroke-width: 0.1; stroke-linecap: square"/>
     </g>
     <g id="line2d_20">
      <g>
       <use xlink:href="#m94ec18796b" x="81" y="281.88" style="stroke: #000000; stroke-width: 0.8"/>
      </g>
     </g>
     <g id="text_11">
      <!-- 1500 -->
      <g transform="translate(48.55 285.679219) scale(0.1 -0.1)">
       <use xlink:href="#DejaVuSans-31"/>
       <use xlink:href="#DejaVuSans-35" x="63.623047"/>
       <use xlink:href="#DejaVuSans-30" x="127.246094"/>
       <use xlink:href="#DejaVuSans-30" x="190.869141"/>
      </g>
     </g>
    </g>
    <g id="ytick_5">
     <g id="line2d_21">
      <path d="M 81 191.16 
L 583.2 191.16 
" clip-path="url(#pd15c446cef)" style="fill: none; stroke: #b0b0b0; stroke-width: 0.1; stroke-linecap: square"/>
     </g>
     <g id="line2d_22">
      <g>
       <use xlink:href="#m94ec18796b" x="81" y="191.16" style="stroke: #000000; stroke-width: 0.8"/>
      </g>
     </g>
     <g id="text_12">
      <!-- 2000 -->
      <g transform="translate(48.55 194.959219) scale(0.1 -0.1)">
       <use xlink:href="#DejaVuSans-32"/>
       <use xlink:href="#DejaVuSans-30" x="63.623047"/>
       <use xlink:href="#DejaVuSans-30" x="127.246094"/>
       <use xlink:href="#DejaVuSans-30" x="190.869141"/>
      </g>
     </g>
    </g>
    <g id="ytick_6">
     <g id="line2d_23">
      <path d="M 81 100.44 
L 583.2 100.44 
" clip-path="url(#pd15c446cef)" style="fill: none; stroke: #b0b0b0; stroke-width: 0.1; stroke-linecap: square"/>
     </g>
     <g id="line2d_24">
      <g>
       <use xlink:href="#m94ec18796b" x="81" y="100.44" style="stroke: #000000; stroke-width: 0.8"/>
      </g>
     </g>
     <g id="text_13">
      <!-- 2500 -->
      <g transform="translate(48.55 104.239219) scale(0.1 -0.1)">
       <use xlink:href="#DejaVuSans-32"/>
       <use xlink:href="#DejaVuSans-35" x="63.623047"/>
       <use xlink:href="#DejaVuSans-30" x="127.246094"/>
       <use xlink:href="#DejaVuSans-30" x="190.869141"/>
      </g>
     </g>
    </g>
    <g id="text_14">
     <!-- Prey population -->
     <g transform="translate(42.470312 366.342344) rotate(-90) scale(0.1 -0.1)">
      <defs>
       <path id="DejaVuSans-79" d="M 2059 -325 
Q 1816 -950 1584 -1140 
Q 1353 -1331 966 -1331 
L 506 -1331 
L 506 -850 
L 844 -850 
Q 1081 -850 1212 -737 
Q 1344 -625 1503 -206 
L 1606 56 
L 191 3500 
L 800 3500 
L 1894 763 
L 2988 3500 
L 3597 3500 
L 2059 -325 
z
" transform="scale(0.015625)"/>
      </defs>
      <use xlink:href="#DejaVuSans-50"/>
      <use xlink:href="#DejaVuSans-72" x="58.552734"/>
      <use xlink:href="#DejaVuSans-65" x="97.416016"/>
      <use xlink:href="#DejaVuSans-79" x="158.939453"/>
      <use xlink:href="#DejaVuSans-20" x="218.119141"/>
      <use xlink:href="#DejaVuSans-70" x="249.90625"/>
      <use xlink:href="#DejaVuSans-6f" x="313.382812"/>
      <use xlink:href="#DejaVuSans-70" x="374.564453"/>
      <use xlink:href="#DejaVuSans-75" x="438.041016"/>
      <use xlink:href="#DejaVuSans-6c" x="501.419922"/>
      <use xlink:href="#DejaVuSans-61" x="529.203125"/>
      <use xlink:href="#DejaVuSans-74" x="590.482422"/>
      <use xlink:href="#DejaVuSans-69" x="629.691406"/>
      <use xlink:href="#DejaVuSans-6f" x="657.474609"/>
      <use xlink:href="#DejaVuSans-6e" x="718.65625"/>
     </g>
    </g>
   </g>
   <g id="line2d_25">
    <path d="M 186.370691 548.77824 
L 186.735927 549.14112 
L 189.840436 548.95968 
L 191.666618 549.504 
L 191.666618 550.22976 
L 190.936145 549.86688 
L 190.388291 550.04832 
L 188.927345 549.86688 
L 186.918545 548.5968 
L 185.274982 548.23392 
L 182.718327 546.05664 
L 178.335491 545.14944 
L 175.961455 543.87936 
L 173.770036 540.79488 
L 169.204582 536.8032 
L 166.830545 532.08576 
L 169.204582 525.55392 
L 172.126473 515.57472 
L 179.613818 505.0512 
L 187.831636 494.89056 
L 203.719418 488.17728 
L 225.816218 487.27008 
L 244.260655 483.2784 
L 270.009818 483.09696 
L 297.9504 481.64544 
L 328.265018 483.82272 
L 356.2056 489.6288 
L 379.763345 500.15232 
L 407.338691 511.76448 
L 415.008655 514.30464 
L 415.556509 513.39744 
L 413.547709 515.75616 
L 409.530109 513.39744 
L 404.964655 512.3088 
L 380.493818 505.9584 
L 345.248509 488.7216 
L 314.203418 470.21472 
L 302.698473 462.23136 
L 297.767782 455.69952 
L 296.306836 447.35328 
L 302.698473 442.99872 
L 321.142909 448.62336 
L 341.230909 464.59008 
L 363.875564 478.56096 
L 384.876655 491.08032 
L 406.060364 504.68832 
L 416.834836 513.39744 
L 422.496 517.20768 
L 422.130764 518.84064 
L 416.652218 519.5664 
L 409.530109 517.38912 
L 389.442109 510.31296 
L 378.667636 504.86976 
L 364.606036 500.5152 
L 345.796364 492.71328 
L 326.256218 481.64544 
L 310.551055 467.67456 
L 297.9504 458.42112 
L 291.376145 452.25216 
L 291.741382 442.27296 
L 299.411345 444.63168 
L 314.933891 453.15936 
L 334.1088 461.68704 
L 357.666545 478.01664 
L 383.780945 494.70912 
L 406.4256 505.9584 
L 418.661018 512.85312 
L 427.244073 519.38496 
L 420.852436 517.20768 
L 416.286982 519.38496 
L 410.260582 518.29632 
L 398.573018 516.66336 
L 386.885455 513.57888 
L 375.563127 508.49856 
L 361.318909 497.7936 
L 345.431127 490.536 
L 328.630255 485.63712 
L 315.481745 481.64544 
L 310.0032 473.48064 
L 307.263927 470.94048 
L 307.263927 465.1344 
L 312.925091 467.49312 
L 324.0648 464.95296 
L 342.874473 473.84352 
L 368.623636 486.54432 
L 388.3464 497.43072 
L 411.721527 511.4016 
L 415.008655 514.84896 
L 414.826036 517.20768 
L 407.521309 516.30048 
L 403.686327 514.66752 
L 395.468509 513.94176 
L 381.772145 507.22848 
L 372.823855 501.78528 
L 361.866764 498.15648 
L 346.709455 493.80192 
L 331.186909 484.54848 
L 314.751273 476.56512 
L 305.620364 467.13024 
L 305.9856 463.86432 
L 307.9944 459.14688 
L 314.386036 460.77984 
L 331.186909 464.77152 
L 353.283709 474.38784 
L 375.928364 489.81024 
L 398.025164 498.88224 
L 413.547709 505.41408 
L 420.852436 511.22016 
L 427.426691 517.57056 
L 422.678618 514.66752 
L 415.191273 513.39744 
L 410.991055 510.85728 
L 398.755636 506.13984 
L 386.702836 501.78528 
L 381.406909 498.51936 
L 371.362909 494.52768 
L 356.2056 489.26592 
L 339.404727 482.55264 
L 328.265018 478.7424 
L 324.612655 475.1136 
L 321.690764 467.31168 
L 317.673164 462.04992 
L 325.343127 462.04992 
L 340.500436 469.85184 
L 354.562036 473.84352 
L 370.632436 484.1856 
L 385.424509 495.79776 
L 394.555418 504.32544 
L 402.225382 510.13152 
L 404.782036 508.86144 
L 406.4256 510.67584 
L 405.147273 511.94592 
L 400.033964 512.85312 
L 391.633527 513.39744 
L 381.772145 509.40576 
L 366.432218 506.32128 
L 352.735855 499.24512 
L 340.1352 490.536 
L 326.986691 482.00832 
L 319.316727 479.6496 
L 311.464145 473.48064 
L 304.524655 468.40032 
L 309.090109 466.58592 
L 313.655564 465.49728 
L 322.056 466.76736 
L 337.213309 475.47648 
L 349.996582 481.10112 
L 370.632436 489.99168 
L 379.580727 496.52352 
L 382.685236 495.79776 
L 383.050473 497.97504 
L 386.885455 501.4224 
L 389.259491 504.144 
L 393.094473 506.13984 
L 391.268291 507.95424 
L 385.059273 505.77696 
L 379.032873 505.59552 
L 361.684145 499.608 
L 343.787564 492.89472 
L 326.986691 484.54848 
L 312.377236 474.02496 
L 304.889891 467.49312 
L 296.306836 465.1344 
L 289.9152 460.05408 
L 284.801891 456.78816 
L 288.636873 458.23968 
L 301.602764 462.04992 
L 328.812873 482.73408 
L 342.691855 486 
L 361.501527 495.072 
L 372.823855 496.16064 
L 379.580727 495.9792 
L 384.511418 500.87808 
L 384.876655 503.41824 
L 382.32 505.77696 
L 379.215491 507.40992 
L 365.701745 497.24928 
L 357.666545 494.52768 
L 348.353018 494.34624 
L 335.752364 489.6288 
L 324.0648 483.64128 
L 318.951491 475.83936 
L 313.838182 472.93632 
L 308.542255 459.87264 
L 304.159418 453.88512 
L 300.689673 453.88512 
L 303.794182 454.79232 
L 315.664364 460.23552 
L 328.0824 468.7632 
L 328.0824 468.7632 
" clip-path="url(#pd15c446cef)" style="fill: none; stroke-dasharray: 5.55,2.4; stroke-dashoffset: 0; stroke: #008000; stroke-opacity: 0.7; stroke-width: 1.5"/>
   </g>
   <g id="line2d_26">
    <path d="M 81 555.174 
L 583.2 530.226 
" clip-path="url(#pd15c446cef)" style="fill: none; stroke: #0000ff; stroke-width: 0.75; stroke-linecap: square"/>
   </g>
   <g id="line2d_27">
    <path d="M 81 77.76 
L 583.2 576.72 
" clip-path="url(#pd15c446cef)" style="fill: none; stroke: #000000; stroke-width: 1.5; stroke-linecap: square"/>
   </g>
   <g id="line2d_28">
    <path d="M 81 554.04 
L 649 554.04 
" clip-path="url(#pd15c446cef)" style="fill: none; stroke-dasharray: 9.6,2.4,1.5,2.4; stroke-dashoffset: 0; stroke: #000000; stroke-width: 1.5"/>
   </g>
   <g id="line2d_29">
    <path d="M 103.827273 576.72 
L 103.827273 -1 
" clip-path="url(#pd15c446cef)" style="fill: none; stroke-dasharray: 9.6,2.4,1.5,2.4; stroke-dashoffset: 0; stroke: #000000; stroke-width: 1.5"/>
   </g>
   <g id="line2d_30">
    <path d="M 276.949309 544.42368 
L 279.688582 550.22976 
L 280.053818 550.59264 
L 279.8712 551.49984 
L 269.279345 552.04416 
L 262.887709 552.40704 
L 257.043927 552.58848 
L 250.104436 552.2256 
L 230.016436 552.58848 
L 220.520291 552.2256 
L 207.919636 552.58848 
L 193.858036 552.04416 
L 181.987855 550.4112 
L 171.030764 548.41536 
L 160.621527 546.23808 
L 144.916364 544.0608 
L 140.350909 540.25056 
L 137.2464 536.62176 
L 139.803055 534.26304 
L 143.455418 530.4528 
L 148.933964 525.0096 
L 157.517018 521.74368 
L 181.257382 507.95424 
L 197.327782 502.3296 
L 213.5808 499.97088 
L 232.390473 497.97504 
L 250.652291 491.98752 
L 272.018618 487.8144 
L 295.576364 485.63712 
L 318.768873 485.63712 
L 341.413527 492.53184 
L 364.058182 495.9792 
L 384.3288 501.78528 
L 398.573018 506.50272 
L 406.242982 510.85728 
L 404.782036 514.1232 
L 400.764436 512.85312 
L 392.729236 509.76864 
L 383.963564 505.77696 
L 374.102182 502.51104 
L 364.423418 495.072 
L 355.475127 493.43904 
L 348.1704 490.35456 
L 344.335418 490.17312 
L 336.848073 487.8144 
L 329.908582 485.45568 
L 326.438836 484.91136 
L 323.699564 481.28256 
L 324.612655 482.73408 
L 330.0912 477.10944 
L 340.317818 473.2992 
L 354.927273 474.93216 
L 374.832655 484.72992 
L 395.468509 495.9792 
L 421.582909 512.12736 
L 422.130764 513.94176 
L 416.652218 513.216 
L 406.608218 511.4016 
L 394.738036 506.68416 
L 381.954764 501.78528 
L 368.075782 495.79776 
L 352.370618 490.35456 
L 337.943782 482.91552 
L 321.508145 472.21056 
L 300.689673 462.95712 
L 290.645673 451.34496 
L 287.358545 446.44608 
L 286.445455 448.26048 
L 289.002109 444.2688 
L 293.019709 442.63584 
L 307.9944 447.53472 
L 328.265018 459.32832 
L 355.840364 476.928 
L 385.241891 495.9792 
L 406.973455 508.13568 
L 421.035055 515.39328 
L 430.348582 519.92928 
L 430.348582 520.11072 
L 426.878836 518.84064 
L 421.948145 516.30048 
L 416.834836 514.1232 
L 409.164873 512.67168 
L 398.755636 512.12736 
L 388.894255 508.68 
L 373.554327 501.96672 
L 351.640145 495.43488 
L 331.552145 484.54848 
L 316.577455 471.4848 
L 305.072509 455.88096 
L 300.324436 449.712 
L 295.758982 439.18848 
L 308.177018 444.45024 
L 328.265018 455.1552 
L 354.744655 467.49312 
L 382.32 483.45984 
L 407.338691 497.61216 
L 429.252873 511.4016 
L 438.5664 517.02624 
L 438.5664 518.47776 
L 436.009745 516.66336 
L 430.348582 514.48608 
L 425.783127 512.12736 
L 420.121964 510.67584 
L 397.659927 501.4224 
L 381.041673 496.8864 
L 361.136291 487.99584 
L 346.526836 479.10528 
L 334.291418 469.12608 
L 325.708364 459.87264 
L 320.412436 457.33248 
L 318.0384 456.9696 
L 324.0648 461.14272 
L 332.465236 462.23136 
L 344.1528 462.23136 
L 364.058182 470.5776 
L 387.433309 485.81856 
L 408.617018 501.4224 
L 421.035055 509.40576 
L 427.974545 515.75616 
L 430.896436 517.57056 
L 428.157164 518.29632 
L 423.956945 517.57056 
L 417.017455 516.8448 
L 403.868945 513.57888 
L 384.146182 509.95008 
L 362.597236 501.05952 
L 345.796364 493.2576 
L 331.552145 484.00416 
L 311.098909 477.29088 
L 297.219927 467.31168 
L 286.080218 456.9696 
L 289.367345 448.07904 
L 295.211127 444.81312 
L 307.9944 450.25632 
L 322.421236 458.784 
L 338.856873 463.86432 
L 362.232 475.29504 
L 383.050473 489.44736 
L 402.408 500.69664 
L 417.382691 511.94592 
L 425.600509 517.02624 
L 429.435491 520.4736 
L 426.5136 520.4736 
L 419.391491 517.752 
L 406.973455 514.30464 
L 395.285891 509.95008 
L 383.598327 505.77696 
L 366.980073 498.15648 
L 345.978982 489.99168 
L 333.013091 485.45568 
L 316.942691 480.19392 
L 319.134109 478.92384 
L 319.134109 471.84768 
L 325.343127 469.6704 
L 334.656655 466.0416 
L 346.526836 470.75904 
L 362.414618 478.92384 
L 378.485018 483.64128 
L 395.468509 493.07616 
L 409.347491 502.14816 
L 423.043855 511.76448 
L 429.983345 517.752 
L 429.252873 519.02208 
L 424.5048 518.29632 
L 416.652218 515.39328 
L 403.321091 511.58304 
L 390.3552 506.50272 
L 375.928364 498.33792 
L 360.405818 488.17728 
L 344.883273 479.6496 
L 332.647855 472.21056 
L 324.977891 465.86016 
L 320.777673 465.86016 
L 325.160509 466.58592 
L 327.534545 469.85184 
L 333.013091 471.30336 
L 343.970182 469.6704 
L 353.101091 478.7424 
L 368.2584 483.2784 
L 386.520218 490.17312 
L 401.494909 498.33792 
L 415.008655 507.7728 
L 426.330982 513.76032 
L 429.435491 517.57056 
L 425.783127 519.5664 
L 417.565309 517.38912 
L 403.138473 513.39744 
L 388.711636 508.68 
L 377.937164 501.60384 
L 364.788655 495.43488 
L 348.1704 483.09696 
L 339.769964 475.83936 
L 324.430036 465.1344 
L 324.430036 465.1344 
" clip-path="url(#pd15c446cef)" style="fill: none; stroke-dasharray: 5.55,2.4; stroke-dashoffset: 0; stroke: #ffa500; stroke-opacity: 0.7; stroke-width: 1.5"/>
   </g>
   <g id="line2d_31">
    <path d="M 81 555.174 
L 583.2 530.226 
" clip-path="url(#pd15c446cef)" style="fill: none; stroke: #0000ff; stroke-width: 0.75; stroke-linecap: square"/>
   </g>
   <g id="line2d_32">
    <path d="M 81 77.76 
L 583.2 576.72 
" clip-path="url(#pd15c446cef)" style="fill: none; stroke: #000000; stroke-width: 1.5; stroke-linecap: square"/>
   </g>
   <g id="line2d_33">
    <path d="M 81 554.04 
L 649 554.04 
" clip-path="url(#pd15c446cef)" style="fill: none; stroke-dasharray: 9.6,2.4,1.5,2.4; stroke-dashoffset: 0; stroke: #000000; stroke-width: 1.5"/>
   </g>
   <g id="line2d_34">
    <path d="M 103.827273 576.72 
L 103.827273 -1 
" clip-path="url(#pd15c446cef)" style="fill: none; stroke-dasharray: 9.6,2.4,1.5,2.4; stroke-dashoffset: 0; stroke: #000000; stroke-width: 1.5"/>
   </g>
   <g id="line2d_35">
    <path d="M 365.701745 541.70208 
L 371.545527 551.68128 
L 369.719345 553.1328 
L 365.701745 553.67712 
L 195.5016 553.67712 
L 178.335491 553.49568 
L 153.682036 552.76992 
L 142.177091 552.2256 
L 135.602836 551.3184 
L 125.010982 547.6896 
L 121.358618 545.51232 
L 119.715055 543.1536 
L 117.888873 537.52896 
L 117.888873 531.72288 
L 120.262909 526.824 
L 122.636945 522.46944 
L 126.837164 516.30048 
L 133.776655 508.31712 
L 142.359709 502.87392 
L 152.951564 496.34208 
L 166.647927 492.53184 
L 186.918545 492.71328 
L 204.815127 489.99168 
L 226.911927 489.08448 
L 272.018618 486.72576 
L 295.758982 490.35456 
L 314.568655 488.7216 
L 335.934982 489.44736 
L 352.005382 486.9072 
L 367.527927 488.90304 
L 381.224291 497.43072 
L 396.016364 508.68 
L 405.512509 515.75616 
L 406.242982 520.83648 
L 404.234182 522.65088 
L 389.807345 517.93344 
L 375.015273 510.85728 
L 358.031782 501.24096 
L 339.952582 488.54016 
L 321.690764 478.19808 
L 310.185818 475.29504 
L 299.9592 471.30336 
L 294.663273 460.05408 
L 290.097818 456.9696 
L 292.654473 456.24384 
L 297.037309 455.69952 
L 305.437745 461.32416 
L 316.577455 462.04992 
L 333.013091 469.48896 
L 342.874473 471.84768 
L 358.397018 483.09696 
L 376.2936 490.536 
L 404.964655 511.22016 
L 415.739127 518.6592 
L 420.121964 522.65088 
L 413.730327 522.83232 
L 406.608218 522.65088 
L 394.920655 518.47776 
L 381.406909 512.85312 
L 364.971273 504.86976 
L 349.813964 495.072 
L 340.317818 489.99168 
L 334.1088 488.54016 
L 325.525745 483.82272 
L 312.377236 477.10944 
L 303.9768 471.84768 
L 301.054909 459.87264 
L 300.324436 458.05824 
L 309.272727 462.23136 
L 325.890982 468.7632 
L 343.422327 478.01664 
L 364.058182 486.54432 
L 384.511418 496.34208 
L 400.033964 503.96256 
L 412.086764 512.49024 
L 417.382691 514.30464 
L 418.4784 515.39328 
L 415.008655 515.0304 
L 406.973455 513.94176 
L 395.103273 505.41408 
L 385.972364 501.78528 
L 377.206691 499.78944 
L 367.527927 498.15648 
L 359.492727 495.79776 
L 351.640145 497.06784 
L 342.326618 495.43488 
L 335.934982 491.62464 
L 326.256218 482.18976 
L 315.664364 470.94048 
L 316.942691 466.40448 
L 322.056 462.4128 
L 334.474036 462.4128 
L 351.640145 472.93632 
L 369.536727 485.27424 
L 383.050473 495.25344 
L 396.564218 506.13984 
L 400.033964 510.31296 
L 402.042764 515.9376 
L 397.477309 517.20768 
L 390.3552 513.94176 
L 382.137382 506.50272 
L 374.832655 496.70496 
L 371.728145 488.7216 
L 369.354109 493.62048 
L 366.066982 494.52768 
L 354.379418 489.44736 
L 329.543345 481.10112 
L 319.499345 476.56512 
L 318.768873 478.56096 
L 322.603855 476.74656 
L 343.422327 477.10944 
L 356.022982 481.82688 
L 375.015273 490.89888 
L 385.789745 493.62048 
L 399.303491 502.51104 
L 407.703927 510.13152 
L 410.077964 511.22016 
L 407.886545 508.86144 
L 392.911855 500.5152 
L 383.233091 497.24928 
L 379.398109 496.52352 
L 379.763345 496.16064 
L 368.075782 494.89056 
L 359.675345 490.17312 
L 352.188 486.18144 
L 349.631345 478.37952 
L 351.092291 479.6496 
L 356.936073 481.10112 
L 360.953673 481.64544 
L 364.788655 480.91968 
L 371.362909 486 
L 377.206691 493.07616 
L 379.215491 494.89056 
L 387.615927 498.33792 
L 394.3728 502.51104 
L 394.190182 508.49856 
L 388.163782 506.8656 
L 383.050473 505.9584 
L 376.2936 502.14816 
L 374.832655 498.51936 
L 370.815055 492.89472 
L 359.310109 487.63296 
L 351.822764 483.45984 
L 347.439927 481.82688 
L 343.970182 486.54432 
L 343.422327 489.81024 
L 347.439927 489.08448 
L 348.718255 486.36288 
L 349.996582 484.00416 
L 352.553236 482.73408 
L 363.510327 489.08448 
L 368.988873 486.54432 
L 377.937164 491.62464 
L 389.442109 501.60384 
L 395.468509 509.40576 
L 399.303491 510.31296 
L 394.920655 511.76448 
L 390.537818 512.49024 
L 381.954764 511.22016 
L 370.815055 508.49856 
L 359.857964 502.87392 
L 351.274909 496.70496 
L 346.1616 494.1648 
L 338.856873 488.17728 
L 336.482836 490.536 
L 332.282618 486.72576 
L 333.743564 486.36288 
L 336.1176 485.27424 
L 331.917382 477.47232 
L 330.0912 468.94464 
L 336.665455 469.30752 
L 346.526836 471.4848 
L 357.849164 471.4848 
L 370.815055 476.928 
L 383.780945 487.45152 
L 408.251782 501.60384 
L 409.712727 502.3296 
L 409.347491 504.144 
L 409.347491 504.144 
" clip-path="url(#pd15c446cef)" style="fill: none; stroke-dasharray: 5.55,2.4; stroke-dashoffset: 0; stroke: #800080; stroke-opacity: 0.7; stroke-width: 1.5"/>
   </g>
   <g id="line2d_36">
    <path d="M 81 555.174 
L 583.2 530.226 
" clip-path="url(#pd15c446cef)" style="fill: none; stroke: #0000ff; stroke-width: 0.75; stroke-linecap: square"/>
   </g>
   <g id="line2d_37">
    <path d="M 81 77.76 
L 583.2 576.72 
" clip-path="url(#pd15c446cef)" style="fill: none; stroke: #000000; stroke-width: 1.5; stroke-linecap: square"/>
   </g>
   <g id="line2d_38">
    <path d="M 81 554.04 
L 649 554.04 
" clip-path="url(#pd15c446cef)" style="fill: none; stroke-dasharray: 9.6,2.4,1.5,2.4; stroke-dashoffset: 0; stroke: #000000; stroke-width: 1.5"/>
   </g>
   <g id="line2d_39">
    <path d="M 103.827273 576.72 
L 103.827273 -1 
" clip-path="url(#pd15c446cef)" style="fill: none; stroke-dasharray: 9.6,2.4,1.5,2.4; stroke-dashoffset: 0; stroke: #000000; stroke-width: 1.5"/>
   </g>
   <g id="line2d_40">
    <path d="M 451.897527 534.9888 
L 457.010836 551.86272 
L 454.088945 552.76992 
L 448.427782 552.76992 
L 441.305673 553.1328 
L 383.233091 553.1328 
L 326.804073 552.40704 
L 304.342036 552.58848 
L 279.505964 552.40704 
L 253.939418 551.68128 
L 233.6688 551.3184 
L 213.398182 549.504 
L 195.5016 548.05248 
L 170.848145 541.70208 
L 165.3696 540.61344 
L 163.3608 540.79488 
L 159.3432 536.98464 
L 159.160582 531.54144 
L 161.717236 523.37664 
L 166.830545 515.39328 
L 176.509309 510.85728 
L 190.936145 504.32544 
L 209.015345 499.06368 
L 234.399273 494.70912 
L 260.148436 494.1648 
L 282.975709 493.43904 
L 301.968 491.26176 
L 326.621455 493.62048 
L 342.874473 490.536 
L 357.483927 489.26592 
L 374.467418 493.80192 
L 391.450909 501.78528 
L 402.408 505.77696 
L 406.060364 510.13152 
L 406.973455 512.67168 
L 402.225382 510.31296 
L 398.755636 504.32544 
L 388.529018 501.24096 
L 379.580727 495.9792 
L 368.623636 487.99584 
L 357.849164 478.7424 
L 348.535636 472.392 
L 347.622545 474.2064 
L 352.370618 476.20224 
L 358.2144 480.73824 
L 362.414618 482.18976 
L 366.2496 481.28256 
L 372.093382 485.27424 
L 381.772145 486.9072 
L 390.172582 488.7216 
L 402.042764 495.79776 
L 411.721527 501.24096 
L 420.852436 508.31712 
L 427.791927 511.58304 
L 426.148364 511.94592 
L 418.295782 508.31712 
L 409.895345 506.68416 
L 394.555418 502.51104 
L 380.859055 494.89056 
L 361.318909 484.91136 
L 350.909673 478.56096 
L 345.248509 473.48064 
L 336.300218 468.03744 
L 346.1616 472.02912 
L 350.909673 477.29088 
L 356.936073 480.37536 
L 361.136291 483.45984 
L 366.980073 489.26592 
L 375.197891 489.08448 
L 383.415709 490.71744 
L 396.746836 496.52352 
L 405.877745 498.15648 
L 411.173673 499.608 
L 420.4872 505.41408 
L 429.252873 515.0304 
L 426.148364 518.6592 
L 415.373891 517.38912 
L 404.782036 514.66752 
L 388.163782 507.04704 
L 372.276 497.7936 
L 356.753455 488.54016 
L 344.1528 475.29504 
L 332.1 471.12192 
L 327.351927 471.12192 
L 331.004291 472.93632 
L 331.917382 474.02496 
L 337.578545 479.28672 
L 341.961382 481.82688 
L 346.344218 478.19808 
L 358.031782 482.00832 
L 365.884364 481.10112 
L 380.859055 488.35872 
L 391.085673 495.43488 
L 401.129673 501.05952 
L 415.556509 516.30048 
L 417.200073 518.47776 
L 409.895345 516.8448 
L 399.120873 514.1232 
L 389.259491 509.04288 
L 373.371709 500.33376 
L 358.762255 487.45152 
L 341.596145 473.48064 
L 325.890982 463.50144 
L 311.829382 455.1552 
L 301.054909 445.72032 
L 307.9944 451.70784 
L 311.829382 451.34496 
L 326.986691 463.13856 
L 345.613745 471.66624 
L 363.875564 484.54848 
L 377.937164 490.17312 
L 389.807345 497.06784 
L 401.312291 501.4224 
L 414.4608 510.67584 
L 425.600509 517.02624 
L 427.974545 520.11072 
L 421.582909 519.74784 
L 412.452 517.20768 
L 400.3992 512.3088 
L 387.250691 507.95424 
L 371.728145 498.88224 
L 352.553236 489.81024 
L 328.0824 478.56096 
L 306.533455 465.67872 
L 295.576364 460.41696 
L 288.636873 456.78816 
L 286.628073 453.88512 
L 285.167127 450.80064 
L 296.854691 454.61088 
L 317.673164 462.59424 
L 336.482836 469.6704 
L 349.813964 475.47648 
L 369.536727 485.27424 
L 391.998764 497.43072 
L 409.347491 510.85728 
L 422.678618 519.92928 
L 427.426691 525.19104 
L 425.783127 525.9168 
L 418.4784 527.00544 
L 408.069164 525.55392 
L 394.920655 522.65088 
L 377.571927 513.39744 
L 352.188 502.51104 
L 327.717164 487.27008 
L 310.0032 473.66208 
L 289.549964 459.50976 
L 272.018618 444.2688 
L 259.600582 438.46272 
L 254.122036 432.4752 
L 263.435564 433.3824 
L 279.505964 444.08736 
L 297.402545 448.44192 
L 314.203418 454.79232 
L 343.787564 470.94048 
L 374.650036 483.64128 
L 404.4168 499.24512 
L 428.157164 512.49024 
L 439.844727 520.4736 
L 441.670909 522.65088 
L 437.470691 521.56224 
L 431.626909 521.19936 
L 424.687418 519.20352 
L 411.173673 518.47776 
L 395.833745 514.1232 
L 379.398109 508.68 
L 362.049382 502.69248 
L 340.865673 494.89056 
L 299.593964 474.38784 
L 277.131927 459.14688 
L 265.992218 445.90176 
L 263.252945 437.19264 
L 266.722691 429.93504 
L 281.88 437.0112 
L 302.698473 444.99456 
L 331.552145 465.86016 
L 365.153891 489.99168 
L 392.911855 509.04288 
L 412.999855 521.92512 
L 424.139564 528.45696 
L 425.235273 529.72704 
L 419.939345 528.27552 
L 412.269382 527.54976 
L 387.250691 523.55808 
L 369.354109 520.65504 
L 357.118691 515.39328 
L 336.1176 509.76864 
L 314.751273 501.96672 
L 291.558764 490.536 
L 291.558764 490.536 
" clip-path="url(#pd15c446cef)" style="fill: none; stroke-dasharray: 5.55,2.4; stroke-dashoffset: 0; stroke: #a52a2a; stroke-opacity: 0.7; stroke-width: 1.5"/>
   </g>
   <g id="line2d_41">
    <path d="M 81 555.174 
L 583.2 530.226 
" clip-path="url(#pd15c446cef)" style="fill: none; stroke: #0000ff; stroke-width: 0.75; stroke-linecap: square"/>
   </g>
   <g id="line2d_42">
    <path d="M 81 77.76 
L 583.2 576.72 
" clip-path="url(#pd15c446cef)" style="fill: none; stroke: #000000; stroke-width: 1.5; stroke-linecap: square"/>
   </g>
   <g id="line2d_43">
    <path d="M 81 554.04 
L 649 554.04 
" clip-path="url(#pd15c446cef)" style="fill: none; stroke-dasharray: 9.6,2.4,1.5,2.4; stroke-dashoffset: 0; stroke: #000000; stroke-width: 1.5"/>
   </g>
   <g id="line2d_44">
    <path d="M 103.827273 576.72 
L 103.827273 -1 
" clip-path="url(#pd15c446cef)" style="fill: none; stroke-dasharray: 9.6,2.4,1.5,2.4; stroke-dashoffset: 0; stroke: #000000; stroke-width: 1.5"/>
   </g>
   <g id="patch_3">
    <path d="M 81 576.72 
L 81 77.76 
" style="fill: none; stroke: #000000; stroke-width: 0.8; stroke-linejoin: miter; stroke-linecap: square"/>
   </g>
   <g id="patch_4">
    <path d="M 583.2 576.72 
L 583.2 77.76 
" style="fill: none; stroke: #000000; stroke-width: 0.8; stroke-linejoin: miter; stroke-linecap: square"/>
   </g>
   <g id="patch_5">
    <path d="M 81 576.72 
L 583.2 576.72 
" style="fill: none; stroke: #000000; stroke-width: 0.8; stroke-linejoin: miter; stroke-linecap: square"/>
   </g>
   <g id="patch_6">
    <path d="M 81 77.76 
L 583.2 77.76 
" style="fill: none; stroke: #000000; stroke-width: 0.8; stroke-linejoin: miter; stroke-linecap: square"/>
   </g>
   <g id="text_15">
    <!-- Phase diagram with a ratio of 0.05 predator to prey -->
    <g transform="translate(177.47625 71.76) scale(0.12 -0.12)">
     <defs>
      <path id="DejaVuSans-68" d="M 3513 2113 
L 3513 0 
L 2938 0 
L 2938 2094 
Q 2938 2591 2744 2837 
Q 2550 3084 2163 3084 
Q 1697 3084 1428 2787 
Q 1159 2491 1159 1978 
L 1159 0 
L 581 0 
L 581 4863 
L 1159 4863 
L 1159 2956 
Q 1366 3272 1645 3428 
Q 1925 3584 2291 3584 
Q 2894 3584 3203 3211 
Q 3513 2838 3513 2113 
z
" transform="scale(0.015625)"/>
      <path id="DejaVuSans-73" d="M 2834 3397 
L 2834 2853 
Q 2591 2978 2328 3040 
Q 2066 3103 1784 3103 
Q 1356 3103 1142 2972 
Q 928 2841 928 2578 
Q 928 2378 1081 2264 
Q 1234 2150 1697 2047 
L 1894 2003 
Q 2506 1872 2764 1633 
Q 3022 1394 3022 966 
Q 3022 478 2636 193 
Q 2250 -91 1575 -91 
Q 1294 -91 989 -36 
Q 684 19 347 128 
L 347 722 
Q 666 556 975 473 
Q 1284 391 1588 391 
Q 1994 391 2212 530 
Q 2431 669 2431 922 
Q 2431 1156 2273 1281 
Q 2116 1406 1581 1522 
L 1381 1569 
Q 847 1681 609 1914 
Q 372 2147 372 2553 
Q 372 3047 722 3315 
Q 1072 3584 1716 3584 
Q 2034 3584 2315 3537 
Q 2597 3491 2834 3397 
z
" transform="scale(0.015625)"/>
      <path id="DejaVuSans-67" d="M 2906 1791 
Q 2906 2416 2648 2759 
Q 2391 3103 1925 3103 
Q 1463 3103 1205 2759 
Q 947 2416 947 1791 
Q 947 1169 1205 825 
Q 1463 481 1925 481 
Q 2391 481 2648 825 
Q 2906 1169 2906 1791 
z
M 3481 434 
Q 3481 -459 3084 -895 
Q 2688 -1331 1869 -1331 
Q 1566 -1331 1297 -1286 
Q 1028 -1241 775 -1147 
L 775 -588 
Q 1028 -725 1275 -790 
Q 1522 -856 1778 -856 
Q 2344 -856 2625 -561 
Q 2906 -266 2906 331 
L 2906 616 
Q 2728 306 2450 153 
Q 2172 0 1784 0 
Q 1141 0 747 490 
Q 353 981 353 1791 
Q 353 2603 747 3093 
Q 1141 3584 1784 3584 
Q 2172 3584 2450 3431 
Q 2728 3278 2906 2969 
L 2906 3500 
L 3481 3500 
L 3481 434 
z
" transform="scale(0.015625)"/>
      <path id="DejaVuSans-6d" d="M 3328 2828 
Q 3544 3216 3844 3400 
Q 4144 3584 4550 3584 
Q 5097 3584 5394 3201 
Q 5691 2819 5691 2113 
L 5691 0 
L 5113 0 
L 5113 2094 
Q 5113 2597 4934 2840 
Q 4756 3084 4391 3084 
Q 3944 3084 3684 2787 
Q 3425 2491 3425 1978 
L 3425 0 
L 2847 0 
L 2847 2094 
Q 2847 2600 2669 2842 
Q 2491 3084 2119 3084 
Q 1678 3084 1418 2786 
Q 1159 2488 1159 1978 
L 1159 0 
L 581 0 
L 581 3500 
L 1159 3500 
L 1159 2956 
Q 1356 3278 1631 3431 
Q 1906 3584 2284 3584 
Q 2666 3584 2933 3390 
Q 3200 3197 3328 2828 
z
" transform="scale(0.015625)"/>
      <path id="DejaVuSans-77" d="M 269 3500 
L 844 3500 
L 1563 769 
L 2278 3500 
L 2956 3500 
L 3675 769 
L 4391 3500 
L 4966 3500 
L 4050 0 
L 3372 0 
L 2619 2869 
L 1863 0 
L 1184 0 
L 269 3500 
z
" transform="scale(0.015625)"/>
      <path id="DejaVuSans-66" d="M 2375 4863 
L 2375 4384 
L 1825 4384 
Q 1516 4384 1395 4259 
Q 1275 4134 1275 3809 
L 1275 3500 
L 2222 3500 
L 2222 3053 
L 1275 3053 
L 1275 0 
L 697 0 
L 697 3053 
L 147 3053 
L 147 3500 
L 697 3500 
L 697 3744 
Q 697 4328 969 4595 
Q 1241 4863 1831 4863 
L 2375 4863 
z
" transform="scale(0.015625)"/>
      <path id="DejaVuSans-2e" d="M 684 794 
L 1344 794 
L 1344 0 
L 684 0 
L 684 794 
z
" transform="scale(0.015625)"/>
     </defs>
     <use xlink:href="#DejaVuSans-50"/>
     <use xlink:href="#DejaVuSans-68" x="60.302734"/>
     <use xlink:href="#DejaVuSans-61" x="123.681641"/>
     <use xlink:href="#DejaVuSans-73" x="184.960938"/>
     <use xlink:href="#DejaVuSans-65" x="237.060547"/>
     <use xlink:href="#DejaVuSans-20" x="298.583984"/>
     <use xlink:href="#DejaVuSans-64" x="330.371094"/>
     <use xlink:href="#DejaVuSans-69" x="393.847656"/>
     <use xlink:href="#DejaVuSans-61" x="421.630859"/>
     <use xlink:href="#DejaVuSans-67" x="482.910156"/>
     <use xlink:href="#DejaVuSans-72" x="546.386719"/>
     <use xlink:href="#DejaVuSans-61" x="587.5"/>
     <use xlink:href="#DejaVuSans-6d" x="648.779297"/>
     <use xlink:href="#DejaVuSans-20" x="746.191406"/>
     <use xlink:href="#DejaVuSans-77" x="777.978516"/>
     <use xlink:href="#DejaVuSans-69" x="859.765625"/>
     <use xlink:href="#DejaVuSans-74" x="887.548828"/>
     <use xlink:href="#DejaVuSans-68" x="926.757812"/>
     <use xlink:href="#DejaVuSans-20" x="990.136719"/>
     <use xlink:href="#DejaVuSans-61" x="1021.923828"/>
     <use xlink:href="#DejaVuSans-20" x="1083.203125"/>
     <use xlink:href="#DejaVuSans-72" x="1114.990234"/>
     <use xlink:href="#DejaVuSans-61" x="1156.103516"/>
     <use xlink:href="#DejaVuSans-74" x="1217.382812"/>
     <use xlink:href="#DejaVuSans-69" x="1256.591797"/>
     <use xlink:href="#DejaVuSans-6f" x="1284.375"/>
     <use xlink:href="#DejaVuSans-20" x="1345.556641"/>
     <use xlink:href="#DejaVuSans-6f" x="1377.34375"/>
     <use xlink:href="#DejaVuSans-66" x="1438.525391"/>
     <use xlink:href="#DejaVuSans-20" x="1473.730469"/>
     <use xlink:href="#DejaVuSans-30" x="1505.517578"/>
     <use xlink:href="#DejaVuSans-2e" x="1569.140625"/>
     <use xlink:href="#DejaVuSans-30" x="1600.927734"/>
     <use xlink:href="#DejaVuSans-35" x="1664.550781"/>
     <use xlink:href="#DejaVuSans-20" x="1728.173828"/>
     <use xlink:href="#DejaVuSans-70" x="1759.960938"/>
     <use xlink:href="#DejaVuSans-72" x="1823.4375"/>
     <use xlink:href="#DejaVuSans-65" x="1862.300781"/>
     <use xlink:href="#DejaVuSans-64" x="1923.824219"/>
     <use xlink:href="#DejaVuSans-61" x="1987.300781"/>
     <use xlink:href="#DejaVuSans-74" x="2048.580078"/>
     <use xlink:href="#DejaVuSans-6f" x="2087.789062"/>
     <use xlink:href="#DejaVuSans-72" x="2148.970703"/>
     <use xlink:href="#DejaVuSans-20" x="2190.083984"/>
     <use xlink:href="#DejaVuSans-74" x="2221.871094"/>
     <use xlink:href="#DejaVuSans-6f" x="2261.080078"/>
     <use xlink:href="#DejaVuSans-20" x="2322.261719"/>
     <use xlink:href="#DejaVuSans-70" x="2354.048828"/>
     <use xlink:href="#DejaVuSans-72" x="2417.525391"/>
     <use xlink:href="#DejaVuSans-65" x="2456.388672"/>
     <use xlink:href="#DejaVuSans-79" x="2517.912109"/>
    </g>
   </g>
  </g>
 </g>
 <defs>
  <clipPath id="pd15c446cef">
   <rect x="81" y="77.76" width="502.2" height="498.96"/>
  </clipPath>
 </defs>
</svg>
