<?xml version="1.0" encoding="utf-8" standalone="no"?>
<!DOCTYPE svg PUBLIC "-//W3C//DTD SVG 1.1//EN"
  "http://www.w3.org/Graphics/SVG/1.1/DTD/svg11.dtd">
<svg xmlns:xlink="http://www.w3.org/1999/xlink" width="648pt" height="648pt" viewBox="0 0 648 648" xmlns="http://www.w3.org/2000/svg" version="1.1">
 <metadata>
  <rdf:RDF xmlns:dc="http://purl.org/dc/elements/1.1/" xmlns:cc="http://creativecommons.org/ns#" xmlns:rdf="http://www.w3.org/1999/02/22-rdf-syntax-ns#">
   <cc:Work>
    <dc:type rdf:resource="http://purl.org/dc/dcmitype/StillImage"/>
    <dc:date>2025-06-09T11:21:28.579591</dc:date>
    <dc:format>image/svg+xml</dc:format>
    <dc:creator>
     <cc:Agent>
      <dc:title>Matplotlib v3.7.0, https://matplotlib.org/</dc:title>
     </cc:Agent>
    </dc:creator>
   </cc:Work>
  </rdf:RDF>
 </metadata>
 <defs>
  <style type="text/css">*{stroke-linejoin: round; stroke-linecap: butt}</style>
 </defs>
 <g id="figure_1">
  <g id="patch_1">
   <path d="M 0 648 
L 648 648 
L 648 0 
L 0 0 
z
" style="fill: #ffffff"/>
  </g>
  <g id="axes_1">
   <g id="patch_2">
    <path d="M 81 576.72 
L 583.2 576.72 
L 583.2 77.76 
L 81 77.76 
z
" style="fill: #ffffff"/>
   </g>
   <g id="PathCollection_1">
    <defs>
     <path id="m42d2e938cb" d="M -3.535534 3.535534 
L 3.535534 3.535534 
L 3.535534 -3.535534 
L -3.535534 -3.535534 
z
" style="stroke: #0000ff"/>
    </defs>
    <g clip-path="url(#pb18364a26d)">
     <use xlink:href="#m42d2e938cb" x="104.740364" y="467.67456" style="fill: #0000ff; stroke: #0000ff"/>
    </g>
   </g>
   <g id="PathCollection_2">
    <defs>
     <path id="me7814429b4" d="M -3.535534 3.535534 
L 3.535534 3.535534 
L 3.535534 -3.535534 
L -3.535534 -3.535534 
z
" style="stroke: #ff0000"/>
    </defs>
    <g clip-path="url(#pb18364a26d)">
     <use xlink:href="#me7814429b4" x="389.989964" y="487.45152" style="fill: #ff0000; stroke: #ff0000"/>
    </g>
   </g>
   <g id="PathCollection_3">
    <g clip-path="url(#pb18364a26d)">
     <use xlink:href="#m42d2e938cb" x="105.1056" y="373.68864" style="fill: #0000ff; stroke: #0000ff"/>
    </g>
   </g>
   <g id="PathCollection_4">
    <g clip-path="url(#pb18364a26d)">
     <use xlink:href="#me7814429b4" x="331.369527" y="453.3408" style="fill: #ff0000; stroke: #ff0000"/>
    </g>
   </g>
   <g id="PathCollection_5">
    <g clip-path="url(#pb18364a26d)">
     <use xlink:href="#m42d2e938cb" x="106.201309" y="283.87584" style="fill: #0000ff; stroke: #0000ff"/>
    </g>
   </g>
   <g id="PathCollection_6">
    <g clip-path="url(#pb18364a26d)">
     <use xlink:href="#me7814429b4" x="212.850327" y="408.70656" style="fill: #ff0000; stroke: #ff0000"/>
    </g>
   </g>
   <g id="PathCollection_7">
    <g clip-path="url(#pb18364a26d)">
     <use xlink:href="#m42d2e938cb" x="107.479636" y="192.79296" style="fill: #0000ff; stroke: #0000ff"/>
    </g>
   </g>
   <g id="PathCollection_8">
    <g clip-path="url(#pb18364a26d)">
     <use xlink:href="#me7814429b4" x="407.521309" y="491.4432" style="fill: #ff0000; stroke: #ff0000"/>
    </g>
   </g>
   <g id="matplotlib.axis_1">
    <g id="xtick_1">
     <g id="line2d_1">
      <path d="M 103.827273 576.72 
L 103.827273 77.76 
" clip-path="url(#pb18364a26d)" style="fill: none; stroke: #b0b0b0; stroke-width: 0.1; stroke-linecap: square"/>
     </g>
     <g id="line2d_2">
      <defs>
       <path id="mc525f460d4" d="M 0 0 
L 0 3.5 
" style="stroke: #000000; stroke-width: 0.8"/>
      </defs>
      <g>
       <use xlink:href="#mc525f460d4" x="103.827273" y="576.72" style="stroke: #000000; stroke-width: 0.8"/>
      </g>
     </g>
     <g id="text_1">
      <!-- 0 -->
      <g transform="translate(100.646023 591.318438) scale(0.1 -0.1)">
       <defs>
        <path id="DejaVuSans-30" d="M 2034 4250 
Q 1547 4250 1301 3770 
Q 1056 3291 1056 2328 
Q 1056 1369 1301 889 
Q 1547 409 2034 409 
Q 2525 409 2770 889 
Q 3016 1369 3016 2328 
Q 3016 3291 2770 3770 
Q 2525 4250 2034 4250 
z
M 2034 4750 
Q 2819 4750 3233 4129 
Q 3647 3509 3647 2328 
Q 3647 1150 3233 529 
Q 2819 -91 2034 -91 
Q 1250 -91 836 529 
Q 422 1150 422 2328 
Q 422 3509 836 4129 
Q 1250 4750 2034 4750 
z
" transform="scale(0.015625)"/>
       </defs>
       <use xlink:href="#DejaVuSans-30"/>
      </g>
     </g>
    </g>
    <g id="xtick_2">
     <g id="line2d_3">
      <path d="M 195.136364 576.72 
L 195.136364 77.76 
" clip-path="url(#pb18364a26d)" style="fill: none; stroke: #b0b0b0; stroke-width: 0.1; stroke-linecap: square"/>
     </g>
     <g id="line2d_4">
      <g>
       <use xlink:href="#mc525f460d4" x="195.136364" y="576.72" style="stroke: #000000; stroke-width: 0.8"/>
      </g>
     </g>
     <g id="text_2">
      <!-- 500 -->
      <g transform="translate(185.592614 591.318438) scale(0.1 -0.1)">
       <defs>
        <path id="DejaVuSans-35" d="M 691 4666 
L 3169 4666 
L 3169 4134 
L 1269 4134 
L 1269 2991 
Q 1406 3038 1543 3061 
Q 1681 3084 1819 3084 
Q 2600 3084 3056 2656 
Q 3513 2228 3513 1497 
Q 3513 744 3044 326 
Q 2575 -91 1722 -91 
Q 1428 -91 1123 -41 
Q 819 9 494 109 
L 494 744 
Q 775 591 1075 516 
Q 1375 441 1709 441 
Q 2250 441 2565 725 
Q 2881 1009 2881 1497 
Q 2881 1984 2565 2268 
Q 2250 2553 1709 2553 
Q 1456 2553 1204 2497 
Q 953 2441 691 2322 
L 691 4666 
z
" transform="scale(0.015625)"/>
       </defs>
       <use xlink:href="#DejaVuSans-35"/>
       <use xlink:href="#DejaVuSans-30" x="63.623047"/>
       <use xlink:href="#DejaVuSans-30" x="127.246094"/>
      </g>
     </g>
    </g>
    <g id="xtick_3">
     <g id="line2d_5">
      <path d="M 286.445455 576.72 
L 286.445455 77.76 
" clip-path="url(#pb18364a26d)" style="fill: none; stroke: #b0b0b0; stroke-width: 0.1; stroke-linecap: square"/>
     </g>
     <g id="line2d_6">
      <g>
       <use xlink:href="#mc525f460d4" x="286.445455" y="576.72" style="stroke: #000000; stroke-width: 0.8"/>
      </g>
     </g>
     <g id="text_3">
      <!-- 1000 -->
      <g transform="translate(273.720455 591.318438) scale(0.1 -0.1)">
       <defs>
        <path id="DejaVuSans-31" d="M 794 531 
L 1825 531 
L 1825 4091 
L 703 3866 
L 703 4441 
L 1819 4666 
L 2450 4666 
L 2450 531 
L 3481 531 
L 3481 0 
L 794 0 
L 794 531 
z
" transform="scale(0.015625)"/>
       </defs>
       <use xlink:href="#DejaVuSans-31"/>
       <use xlink:href="#DejaVuSans-30" x="63.623047"/>
       <use xlink:href="#DejaVuSans-30" x="127.246094"/>
       <use xlink:href="#DejaVuSans-30" x="190.869141"/>
      </g>
     </g>
    </g>
    <g id="xtick_4">
     <g id="line2d_7">
      <path d="M 377.754545 576.72 
L 377.754545 77.76 
" clip-path="url(#pb18364a26d)" style="fill: none; stroke: #b0b0b0; stroke-width: 0.1; stroke-linecap: square"/>
     </g>
     <g id="line2d_8">
      <g>
       <use xlink:href="#mc525f460d4" x="377.754545" y="576.72" style="stroke: #000000; stroke-width: 0.8"/>
      </g>
     </g>
     <g id="text_4">
      <!-- 1500 -->
      <g transform="translate(365.029545 591.318438) scale(0.1 -0.1)">
       <use xlink:href="#DejaVuSans-31"/>
       <use xlink:href="#DejaVuSans-35" x="63.623047"/>
       <use xlink:href="#DejaVuSans-30" x="127.246094"/>
       <use xlink:href="#DejaVuSans-30" x="190.869141"/>
      </g>
     </g>
    </g>
    <g id="xtick_5">
     <g id="line2d_9">
      <path d="M 469.063636 576.72 
L 469.063636 77.76 
" clip-path="url(#pb18364a26d)" style="fill: none; stroke: #b0b0b0; stroke-width: 0.1; stroke-linecap: square"/>
     </g>
     <g id="line2d_10">
      <g>
       <use xlink:href="#mc525f460d4" x="469.063636" y="576.72" style="stroke: #000000; stroke-width: 0.8"/>
      </g>
     </g>
     <g id="text_5">
      <!-- 2000 -->
      <g transform="translate(456.338636 591.318438) scale(0.1 -0.1)">
       <defs>
        <path id="DejaVuSans-32" d="M 1228 531 
L 3431 531 
L 3431 0 
L 469 0 
L 469 531 
Q 828 903 1448 1529 
Q 2069 2156 2228 2338 
Q 2531 2678 2651 2914 
Q 2772 3150 2772 3378 
Q 2772 3750 2511 3984 
Q 2250 4219 1831 4219 
Q 1534 4219 1204 4116 
Q 875 4013 500 3803 
L 500 4441 
Q 881 4594 1212 4672 
Q 1544 4750 1819 4750 
Q 2544 4750 2975 4387 
Q 3406 4025 3406 3419 
Q 3406 3131 3298 2873 
Q 3191 2616 2906 2266 
Q 2828 2175 2409 1742 
Q 1991 1309 1228 531 
z
" transform="scale(0.015625)"/>
       </defs>
       <use xlink:href="#DejaVuSans-32"/>
       <use xlink:href="#DejaVuSans-30" x="63.623047"/>
       <use xlink:href="#DejaVuSans-30" x="127.246094"/>
       <use xlink:href="#DejaVuSans-30" x="190.869141"/>
      </g>
     </g>
    </g>
    <g id="xtick_6">
     <g id="line2d_11">
      <path d="M 560.372727 576.72 
L 560.372727 77.76 
" clip-path="url(#pb18364a26d)" style="fill: none; stroke: #b0b0b0; stroke-width: 0.1; stroke-linecap: square"/>
     </g>
     <g id="line2d_12">
      <g>
       <use xlink:href="#mc525f460d4" x="560.372727" y="576.72" style="stroke: #000000; stroke-width: 0.8"/>
      </g>
     </g>
     <g id="text_6">
      <!-- 2500 -->
      <g transform="translate(547.647727 591.318438) scale(0.1 -0.1)">
       <use xlink:href="#DejaVuSans-32"/>
       <use xlink:href="#DejaVuSans-35" x="63.623047"/>
       <use xlink:href="#DejaVuSans-30" x="127.246094"/>
       <use xlink:href="#DejaVuSans-30" x="190.869141"/>
      </g>
     </g>
    </g>
    <g id="text_7">
     <!-- Predator population -->
     <g transform="translate(282.64375 604.996562) scale(0.1 -0.1)">
      <defs>
       <path id="DejaVuSans-50" d="M 1259 4147 
L 1259 2394 
L 2053 2394 
Q 2494 2394 2734 2622 
Q 2975 2850 2975 3272 
Q 2975 3691 2734 3919 
Q 2494 4147 2053 4147 
L 1259 4147 
z
M 628 4666 
L 2053 4666 
Q 2838 4666 3239 4311 
Q 3641 3956 3641 3272 
Q 3641 2581 3239 2228 
Q 2838 1875 2053 1875 
L 1259 1875 
L 1259 0 
L 628 0 
L 628 4666 
z
" transform="scale(0.015625)"/>
       <path id="DejaVuSans-72" d="M 2631 2963 
Q 2534 3019 2420 3045 
Q 2306 3072 2169 3072 
Q 1681 3072 1420 2755 
Q 1159 2438 1159 1844 
L 1159 0 
L 581 0 
L 581 3500 
L 1159 3500 
L 1159 2956 
Q 1341 3275 1631 3429 
Q 1922 3584 2338 3584 
Q 2397 3584 2469 3576 
Q 2541 3569 2628 3553 
L 2631 2963 
z
" transform="scale(0.015625)"/>
       <path id="DejaVuSans-65" d="M 3597 1894 
L 3597 1613 
L 953 1613 
Q 991 1019 1311 708 
Q 1631 397 2203 397 
Q 2534 397 2845 478 
Q 3156 559 3463 722 
L 3463 178 
Q 3153 47 2828 -22 
Q 2503 -91 2169 -91 
Q 1331 -91 842 396 
Q 353 884 353 1716 
Q 353 2575 817 3079 
Q 1281 3584 2069 3584 
Q 2775 3584 3186 3129 
Q 3597 2675 3597 1894 
z
M 3022 2063 
Q 3016 2534 2758 2815 
Q 2500 3097 2075 3097 
Q 1594 3097 1305 2825 
Q 1016 2553 972 2059 
L 3022 2063 
z
" transform="scale(0.015625)"/>
       <path id="DejaVuSans-64" d="M 2906 2969 
L 2906 4863 
L 3481 4863 
L 3481 0 
L 2906 0 
L 2906 525 
Q 2725 213 2448 61 
Q 2172 -91 1784 -91 
Q 1150 -91 751 415 
Q 353 922 353 1747 
Q 353 2572 751 3078 
Q 1150 3584 1784 3584 
Q 2172 3584 2448 3432 
Q 2725 3281 2906 2969 
z
M 947 1747 
Q 947 1113 1208 752 
Q 1469 391 1925 391 
Q 2381 391 2643 752 
Q 2906 1113 2906 1747 
Q 2906 2381 2643 2742 
Q 2381 3103 1925 3103 
Q 1469 3103 1208 2742 
Q 947 2381 947 1747 
z
" transform="scale(0.015625)"/>
       <path id="DejaVuSans-61" d="M 2194 1759 
Q 1497 1759 1228 1600 
Q 959 1441 959 1056 
Q 959 750 1161 570 
Q 1363 391 1709 391 
Q 2188 391 2477 730 
Q 2766 1069 2766 1631 
L 2766 1759 
L 2194 1759 
z
M 3341 1997 
L 3341 0 
L 2766 0 
L 2766 531 
Q 2569 213 2275 61 
Q 1981 -91 1556 -91 
Q 1019 -91 701 211 
Q 384 513 384 1019 
Q 384 1609 779 1909 
Q 1175 2209 1959 2209 
L 2766 2209 
L 2766 2266 
Q 2766 2663 2505 2880 
Q 2244 3097 1772 3097 
Q 1472 3097 1187 3025 
Q 903 2953 641 2809 
L 641 3341 
Q 956 3463 1253 3523 
Q 1550 3584 1831 3584 
Q 2591 3584 2966 3190 
Q 3341 2797 3341 1997 
z
" transform="scale(0.015625)"/>
       <path id="DejaVuSans-74" d="M 1172 4494 
L 1172 3500 
L 2356 3500 
L 2356 3053 
L 1172 3053 
L 1172 1153 
Q 1172 725 1289 603 
Q 1406 481 1766 481 
L 2356 481 
L 2356 0 
L 1766 0 
Q 1100 0 847 248 
Q 594 497 594 1153 
L 594 3053 
L 172 3053 
L 172 3500 
L 594 3500 
L 594 4494 
L 1172 4494 
z
" transform="scale(0.015625)"/>
       <path id="DejaVuSans-6f" d="M 1959 3097 
Q 1497 3097 1228 2736 
Q 959 2375 959 1747 
Q 959 1119 1226 758 
Q 1494 397 1959 397 
Q 2419 397 2687 759 
Q 2956 1122 2956 1747 
Q 2956 2369 2687 2733 
Q 2419 3097 1959 3097 
z
M 1959 3584 
Q 2709 3584 3137 3096 
Q 3566 2609 3566 1747 
Q 3566 888 3137 398 
Q 2709 -91 1959 -91 
Q 1206 -91 779 398 
Q 353 888 353 1747 
Q 353 2609 779 3096 
Q 1206 3584 1959 3584 
z
" transform="scale(0.015625)"/>
       <path id="DejaVuSans-20" transform="scale(0.015625)"/>
       <path id="DejaVuSans-70" d="M 1159 525 
L 1159 -1331 
L 581 -1331 
L 581 3500 
L 1159 3500 
L 1159 2969 
Q 1341 3281 1617 3432 
Q 1894 3584 2278 3584 
Q 2916 3584 3314 3078 
Q 3713 2572 3713 1747 
Q 3713 922 3314 415 
Q 2916 -91 2278 -91 
Q 1894 -91 1617 61 
Q 1341 213 1159 525 
z
M 3116 1747 
Q 3116 2381 2855 2742 
Q 2594 3103 2138 3103 
Q 1681 3103 1420 2742 
Q 1159 2381 1159 1747 
Q 1159 1113 1420 752 
Q 1681 391 2138 391 
Q 2594 391 2855 752 
Q 3116 1113 3116 1747 
z
" transform="scale(0.015625)"/>
       <path id="DejaVuSans-75" d="M 544 1381 
L 544 3500 
L 1119 3500 
L 1119 1403 
Q 1119 906 1312 657 
Q 1506 409 1894 409 
Q 2359 409 2629 706 
Q 2900 1003 2900 1516 
L 2900 3500 
L 3475 3500 
L 3475 0 
L 2900 0 
L 2900 538 
Q 2691 219 2414 64 
Q 2138 -91 1772 -91 
Q 1169 -91 856 284 
Q 544 659 544 1381 
z
M 1991 3584 
L 1991 3584 
z
" transform="scale(0.015625)"/>
       <path id="DejaVuSans-6c" d="M 603 4863 
L 1178 4863 
L 1178 0 
L 603 0 
L 603 4863 
z
" transform="scale(0.015625)"/>
       <path id="DejaVuSans-69" d="M 603 3500 
L 1178 3500 
L 1178 0 
L 603 0 
L 603 3500 
z
M 603 4863 
L 1178 4863 
L 1178 4134 
L 603 4134 
L 603 4863 
z
" transform="scale(0.015625)"/>
       <path id="DejaVuSans-6e" d="M 3513 2113 
L 3513 0 
L 2938 0 
L 2938 2094 
Q 2938 2591 2744 2837 
Q 2550 3084 2163 3084 
Q 1697 3084 1428 2787 
Q 1159 2491 1159 1978 
L 1159 0 
L 581 0 
L 581 3500 
L 1159 3500 
L 1159 2956 
Q 1366 3272 1645 3428 
Q 1925 3584 2291 3584 
Q 2894 3584 3203 3211 
Q 3513 2838 3513 2113 
z
" transform="scale(0.015625)"/>
      </defs>
      <use xlink:href="#DejaVuSans-50"/>
      <use xlink:href="#DejaVuSans-72" x="58.552734"/>
      <use xlink:href="#DejaVuSans-65" x="97.416016"/>
      <use xlink:href="#DejaVuSans-64" x="158.939453"/>
      <use xlink:href="#DejaVuSans-61" x="222.416016"/>
      <use xlink:href="#DejaVuSans-74" x="283.695312"/>
      <use xlink:href="#DejaVuSans-6f" x="322.904297"/>
      <use xlink:href="#DejaVuSans-72" x="384.085938"/>
      <use xlink:href="#DejaVuSans-20" x="425.199219"/>
      <use xlink:href="#DejaVuSans-70" x="456.986328"/>
      <use xlink:href="#DejaVuSans-6f" x="520.462891"/>
      <use xlink:href="#DejaVuSans-70" x="581.644531"/>
      <use xlink:href="#DejaVuSans-75" x="645.121094"/>
      <use xlink:href="#DejaVuSans-6c" x="708.5"/>
      <use xlink:href="#DejaVuSans-61" x="736.283203"/>
      <use xlink:href="#DejaVuSans-74" x="797.5625"/>
      <use xlink:href="#DejaVuSans-69" x="836.771484"/>
      <use xlink:href="#DejaVuSans-6f" x="864.554688"/>
      <use xlink:href="#DejaVuSans-6e" x="925.736328"/>
     </g>
    </g>
   </g>
   <g id="matplotlib.axis_2">
    <g id="ytick_1">
     <g id="line2d_13">
      <path d="M 81 554.04 
L 583.2 554.04 
" clip-path="url(#pb18364a26d)" style="fill: none; stroke: #b0b0b0; stroke-width: 0.1; stroke-linecap: square"/>
     </g>
     <g id="line2d_14">
      <defs>
       <path id="m86549b387a" d="M 0 0 
L -3.5 0 
" style="stroke: #000000; stroke-width: 0.8"/>
      </defs>
      <g>
       <use xlink:href="#m86549b387a" x="81" y="554.04" style="stroke: #000000; stroke-width: 0.8"/>
      </g>
     </g>
     <g id="text_8">
      <!-- 0 -->
      <g transform="translate(67.6375 557.839219) scale(0.1 -0.1)">
       <use xlink:href="#DejaVuSans-30"/>
      </g>
     </g>
    </g>
    <g id="ytick_2">
     <g id="line2d_15">
      <path d="M 81 463.32 
L 583.2 463.32 
" clip-path="url(#pb18364a26d)" style="fill: none; stroke: #b0b0b0; stroke-width: 0.1; stroke-linecap: square"/>
     </g>
     <g id="line2d_16">
      <g>
       <use xlink:href="#m86549b387a" x="81" y="463.32" style="stroke: #000000; stroke-width: 0.8"/>
      </g>
     </g>
     <g id="text_9">
      <!-- 500 -->
      <g transform="translate(54.9125 467.119219) scale(0.1 -0.1)">
       <use xlink:href="#DejaVuSans-35"/>
       <use xlink:href="#DejaVuSans-30" x="63.623047"/>
       <use xlink:href="#DejaVuSans-30" x="127.246094"/>
      </g>
     </g>
    </g>
    <g id="ytick_3">
     <g id="line2d_17">
      <path d="M 81 372.6 
L 583.2 372.6 
" clip-path="url(#pb18364a26d)" style="fill: none; stroke: #b0b0b0; stroke-width: 0.1; stroke-linecap: square"/>
     </g>
     <g id="line2d_18">
      <g>
       <use xlink:href="#m86549b387a" x="81" y="372.6" style="stroke: #000000; stroke-width: 0.8"/>
      </g>
     </g>
     <g id="text_10">
      <!-- 1000 -->
      <g transform="translate(48.55 376.399219) scale(0.1 -0.1)">
       <use xlink:href="#DejaVuSans-31"/>
       <use xlink:href="#DejaVuSans-30" x="63.623047"/>
       <use xlink:href="#DejaVuSans-30" x="127.246094"/>
       <use xlink:href="#DejaVuSans-30" x="190.869141"/>
      </g>
     </g>
    </g>
    <g id="ytick_4">
     <g id="line2d_19">
      <path d="M 81 281.88 
L 583.2 281.88 
" clip-path="url(#pb18364a26d)" style="fill: none; stroke: #b0b0b0; stroke-width: 0.1; stroke-linecap: square"/>
     </g>
     <g id="line2d_20">
      <g>
       <use xlink:href="#m86549b387a" x="81" y="281.88" style="stroke: #000000; stroke-width: 0.8"/>
      </g>
     </g>
     <g id="text_11">
      <!-- 1500 -->
      <g transform="translate(48.55 285.679219) scale(0.1 -0.1)">
       <use xlink:href="#DejaVuSans-31"/>
       <use xlink:href="#DejaVuSans-35" x="63.623047"/>
       <use xlink:href="#DejaVuSans-30" x="127.246094"/>
       <use xlink:href="#DejaVuSans-30" x="190.869141"/>
      </g>
     </g>
    </g>
    <g id="ytick_5">
     <g id="line2d_21">
      <path d="M 81 191.16 
L 583.2 191.16 
" clip-path="url(#pb18364a26d)" style="fill: none; stroke: #b0b0b0; stroke-width: 0.1; stroke-linecap: square"/>
     </g>
     <g id="line2d_22">
      <g>
       <use xlink:href="#m86549b387a" x="81" y="191.16" style="stroke: #000000; stroke-width: 0.8"/>
      </g>
     </g>
     <g id="text_12">
      <!-- 2000 -->
      <g transform="translate(48.55 194.959219) scale(0.1 -0.1)">
       <use xlink:href="#DejaVuSans-32"/>
       <use xlink:href="#DejaVuSans-30" x="63.623047"/>
       <use xlink:href="#DejaVuSans-30" x="127.246094"/>
       <use xlink:href="#DejaVuSans-30" x="190.869141"/>
      </g>
     </g>
    </g>
    <g id="ytick_6">
     <g id="line2d_23">
      <path d="M 81 100.44 
L 583.2 100.44 
" clip-path="url(#pb18364a26d)" style="fill: none; stroke: #b0b0b0; stroke-width: 0.1; stroke-linecap: square"/>
     </g>
     <g id="line2d_24">
      <g>
       <use xlink:href="#m86549b387a" x="81" y="100.44" style="stroke: #000000; stroke-width: 0.8"/>
      </g>
     </g>
     <g id="text_13">
      <!-- 2500 -->
      <g transform="translate(48.55 104.239219) scale(0.1 -0.1)">
       <use xlink:href="#DejaVuSans-32"/>
       <use xlink:href="#DejaVuSans-35" x="63.623047"/>
       <use xlink:href="#DejaVuSans-30" x="127.246094"/>
       <use xlink:href="#DejaVuSans-30" x="190.869141"/>
      </g>
     </g>
    </g>
    <g id="text_14">
     <!-- Prey population -->
     <g transform="translate(42.470312 366.342344) rotate(-90) scale(0.1 -0.1)">
      <defs>
       <path id="DejaVuSans-79" d="M 2059 -325 
Q 1816 -950 1584 -1140 
Q 1353 -1331 966 -1331 
L 506 -1331 
L 506 -850 
L 844 -850 
Q 1081 -850 1212 -737 
Q 1344 -625 1503 -206 
L 1606 56 
L 191 3500 
L 800 3500 
L 1894 763 
L 2988 3500 
L 3597 3500 
L 2059 -325 
z
" transform="scale(0.015625)"/>
      </defs>
      <use xlink:href="#DejaVuSans-50"/>
      <use xlink:href="#DejaVuSans-72" x="58.552734"/>
      <use xlink:href="#DejaVuSans-65" x="97.416016"/>
      <use xlink:href="#DejaVuSans-79" x="158.939453"/>
      <use xlink:href="#DejaVuSans-20" x="218.119141"/>
      <use xlink:href="#DejaVuSans-70" x="249.90625"/>
      <use xlink:href="#DejaVuSans-6f" x="313.382812"/>
      <use xlink:href="#DejaVuSans-70" x="374.564453"/>
      <use xlink:href="#DejaVuSans-75" x="438.041016"/>
      <use xlink:href="#DejaVuSans-6c" x="501.419922"/>
      <use xlink:href="#DejaVuSans-61" x="529.203125"/>
      <use xlink:href="#DejaVuSans-74" x="590.482422"/>
      <use xlink:href="#DejaVuSans-69" x="629.691406"/>
      <use xlink:href="#DejaVuSans-6f" x="657.474609"/>
      <use xlink:href="#DejaVuSans-6e" x="718.65625"/>
     </g>
    </g>
   </g>
   <g id="line2d_25">
    <path d="M 104.740364 467.67456 
L 105.288218 390.744 
L 105.653455 317.44224 
L 107.1144 288.2304 
L 110.949382 300.56832 
L 117.1584 328.51008 
L 126.471927 339.39648 
L 141.629236 348.46848 
L 160.256291 351.00864 
L 182.535709 364.61664 
L 207.006545 380.03904 
L 236.773309 396.00576 
L 273.114327 418.50432 
L 302.150618 433.92672 
L 331.552145 452.07072 
L 358.2144 469.85184 
L 382.137382 486.36288 
L 400.3992 496.16064 
L 414.826036 504.50688 
L 424.139564 512.12736 
L 428.5224 520.4736 
L 425.965745 524.1024 
L 420.121964 525.55392 
L 407.703927 525.19104 
L 388.894255 521.92512 
L 370.449818 516.48192 
L 349.813964 506.8656 
L 330.456436 492.16896 
L 302.881091 472.21056 
L 274.575273 449.34912 
L 251.017527 427.57632 
L 231.842618 412.33536 
L 219.424582 402.17472 
L 207.371782 395.82432 
L 202.623709 389.8368 
L 202.623709 383.30496 
L 212.667709 383.4864 
L 234.581891 399.816 
L 259.052727 412.15392 
L 283.8888 426.66912 
L 307.081309 439.18848 
L 334.1088 456.78816 
L 360.2232 472.02912 
L 388.163782 487.08864 
L 414.826036 504.86976 
L 432.722618 514.66752 
L 443.131855 522.46944 
L 443.862327 523.37664 
L 438.201164 524.46528 
L 424.5048 521.74368 
L 406.973455 516.30048 
L 392.729236 512.85312 
L 374.832655 505.0512 
L 354.927273 497.97504 
L 335.934982 485.63712 
L 322.969091 476.20224 
L 305.620364 462.04992 
L 299.776582 452.79648 
L 294.298036 446.62752 
L 291.376145 443.54304 
L 291.741382 442.27296 
L 299.411345 438.8256 
L 312.925091 437.73696 
L 326.804073 444.2688 
L 348.900873 460.41696 
L 371.910764 473.66208 
L 393.094473 488.90304 
L 413.365091 502.69248 
L 432.905236 517.57056 
L 433.453091 519.74784 
L 424.870036 517.38912 
L 413.365091 513.39744 
L 397.294691 509.76864 
L 383.050473 503.59968 
L 370.2672 496.8864 
L 351.640145 487.99584 
L 328.995491 478.37952 
L 315.481745 469.30752 
L 302.333236 461.5056 
L 292.654473 457.33248 
L 286.262836 453.15936 
L 283.340945 448.07904 
L 291.010909 443.18016 
L 298.680873 443.18016 
L 311.646764 446.80896 
L 331.369527 454.42944 
L 349.996582 466.58592 
L 370.2672 478.56096 
L 386.885455 491.80608 
L 398.573018 502.87392 
L 409.530109 515.9376 
L 413.730327 522.83232 
L 413.912945 525.73536 
L 408.251782 526.27968 
L 396.929455 522.10656 
L 385.607127 517.20768 
L 366.432218 508.13568 
L 347.074691 494.89056 
L 322.786473 477.47232 
L 296.124218 461.86848 
L 244.443273 425.76192 
L 220.702909 408.34368 
L 198.971345 391.6512 
L 182.718327 380.22048 
L 171.213382 369.69696 
L 166.465309 363.34656 
L 167.3784 361.35072 
L 178.335491 366.06816 
L 194.953745 369.8784 
L 210.841527 378.0432 
L 235.129745 391.28832 
L 263.252945 409.06944 
L 291.741382 428.30208 
L 319.864582 445.176 
L 342.326618 460.77984 
L 365.153891 476.38368 
L 381.224291 487.63296 
L 411.173673 509.76864 
L 418.113164 515.57472 
L 418.843636 519.5664 
L 414.095564 518.84064 
L 404.964655 516.48192 
L 387.433309 509.95008 
L 363.145091 502.14816 
L 341.230909 491.4432 
L 320.412436 479.83104 
L 297.585164 466.22304 
L 273.296945 447.53472 
L 250.469673 430.47936 
L 229.103345 417.59712 
L 214.676509 403.08192 
L 203.171564 395.28 
L 199.884436 387.84096 
L 197.875636 384.93792 
L 201.162764 383.84928 
L 213.215564 382.76064 
L 231.66 395.28 
L 254.487273 407.0736 
L 280.236436 422.85888 
L 316.212218 446.80896 
L 348.353018 464.95296 
L 377.754545 482.3712 
L 426.878836 517.57056 
L 436.009745 525.73536 
L 433.270473 525.37248 
L 421.217673 522.83232 
L 409.712727 517.752 
L 391.998764 512.67168 
L 370.815055 506.32128 
L 346.526836 497.24928 
L 324.977891 486.72576 
L 297.9504 474.75072 
L 272.931709 459.32832 
L 250.287055 445.53888 
L 226.181455 428.8464 
L 207.737018 410.7024 
L 199.153964 398.36448 
L 194.953745 388.20384 
L 194.771127 381.30912 
L 206.276073 386.57088 
L 226.364073 392.92128 
L 251.200145 406.1664 
L 279.505964 422.85888 
L 310.185818 444.99456 
L 340.1352 463.68288 
L 364.971273 476.74656 
L 391.450909 491.80608 
L 407.703927 503.59968 
L 419.208873 513.216 
L 426.5136 520.65504 
L 425.600509 521.74368 
L 420.852436 518.47776 
L 409.164873 514.84896 
L 389.624727 508.49856 
L 371.362909 501.78528 
L 353.466327 490.71744 
L 326.986691 479.28672 
L 301.054909 466.76736 
L 278.227636 453.52224 
L 251.200145 442.4544 
L 225.268364 427.75776 
L 205.728218 413.60544 
L 192.214473 394.19136 
L 174.317891 374.77728 
L 165.552218 361.16928 
L 163.908655 360.44352 
L 169.3872 362.80224 
L 187.4664 369.51552 
L 211.024145 384.03072 
L 242.799709 400.17888 
L 273.296945 418.32288 
L 308.177018 440.45856 
L 340.1352 458.05824 
L 364.788655 470.75904 
L 389.989964 487.45152 
L 389.989964 487.45152 
" clip-path="url(#pb18364a26d)" style="fill: none; stroke-dasharray: 5.55,2.4; stroke-dashoffset: 0; stroke: #008000; stroke-opacity: 0.7; stroke-width: 1.5"/>
   </g>
   <g id="line2d_26">
    <path d="M 103.599 576.72 
L 108.621 77.76 
" clip-path="url(#pb18364a26d)" style="fill: none; stroke: #0000ff; stroke-width: 0.75; stroke-linecap: square"/>
   </g>
   <g id="line2d_27">
    <path d="M 81 77.76 
L 583.2 576.72 
" clip-path="url(#pb18364a26d)" style="fill: none; stroke: #000000; stroke-width: 1.5; stroke-linecap: square"/>
   </g>
   <g id="line2d_28">
    <path d="M 81 554.04 
L 649 554.04 
" clip-path="url(#pb18364a26d)" style="fill: none; stroke-dasharray: 9.6,2.4,1.5,2.4; stroke-dashoffset: 0; stroke: #000000; stroke-width: 1.5"/>
   </g>
   <g id="line2d_29">
    <path d="M 103.827273 576.72 
L 103.827273 -1 
" clip-path="url(#pb18364a26d)" style="fill: none; stroke-dasharray: 9.6,2.4,1.5,2.4; stroke-dashoffset: 0; stroke: #000000; stroke-width: 1.5"/>
   </g>
   <g id="line2d_30">
    <path d="M 105.1056 373.68864 
L 106.018691 283.6944 
L 108.027491 251.39808 
L 113.871273 273.35232 
L 127.567636 327.42144 
L 147.473018 366.61248 
L 170.665527 380.58336 
L 191.849236 380.40192 
L 218.876727 384.03072 
L 253.7568 408.52512 
L 288.636873 431.20512 
L 329.360727 455.33664 
L 363.875564 472.75488 
L 385.059273 481.64544 
L 402.955855 492.16896 
L 417.747927 503.2368 
L 428.887636 511.76448 
L 436.5576 519.5664 
L 436.922836 522.83232 
L 430.5312 525.37248 
L 419.574109 524.64672 
L 405.877745 521.92512 
L 389.624727 517.38912 
L 369.171491 506.68416 
L 344.518036 492.3504 
L 318.221018 475.1136 
L 289.367345 451.16352 
L 260.513673 428.12064 
L 237.321164 401.26752 
L 219.972436 386.57088 
L 213.5808 382.03488 
L 221.250764 392.01408 
L 239.147345 401.08608 
L 256.861309 411.6096 
L 276.036218 420.13728 
L 300.324436 432.4752 
L 325.525745 445.90176 
L 355.840364 464.2272 
L 383.963564 483.45984 
L 408.799636 498.15648 
L 430.713818 510.13152 
L 444.5928 519.02208 
L 448.6104 522.65088 
L 446.6016 523.55808 
L 439.296873 522.46944 
L 422.861236 520.65504 
L 405.329891 517.02624 
L 383.233091 508.13568 
L 361.318909 495.79776 
L 333.560945 480.01248 
L 308.177018 453.52224 
L 279.8712 435.74112 
L 251.565382 422.496 
L 222.346473 402.90048 
L 204.449891 391.10688 
L 190.936145 374.23296 
L 181.257382 365.70528 
L 177.057164 364.07232 
L 181.987855 366.06816 
L 200.980145 374.23296 
L 232.755709 387.65952 
L 271.470764 411.79104 
L 307.629164 429.7536 
L 343.057091 452.97792 
L 379.398109 478.56096 
L 407.886545 493.80192 
L 430.5312 508.13568 
L 450.436582 520.29216 
L 453.175855 523.01376 
L 448.975636 523.37664 
L 442.401382 521.74368 
L 433.087855 519.5664 
L 417.382691 514.84896 
L 398.755636 508.31712 
L 378.119782 499.24512 
L 354.744655 487.8144 
L 324.0648 474.75072 
L 292.471855 452.61504 
L 266.905309 437.73696 
L 245.538982 421.77024 
L 228.007636 409.7952 
L 228.190255 403.4448 
L 235.129745 400.54176 
L 249.008727 403.08192 
L 278.045018 412.69824 
L 312.559855 437.19264 
L 347.987782 456.9696 
L 384.146182 477.8352 
L 413.730327 496.34208 
L 434.000945 510.67584 
L 452.080145 523.92096 
L 450.801818 526.09824 
L 445.871127 526.09824 
L 438.749018 525.0096 
L 428.339782 523.92096 
L 410.808436 520.65504 
L 390.720436 514.48608 
L 366.614836 504.68832 
L 336.300218 491.4432 
L 302.881091 472.02912 
L 272.566473 449.712 
L 241.704 426.1248 
L 206.823927 398.9088 
L 177.605018 373.14432 
L 152.221091 353.91168 
L 139.803055 336.67488 
L 133.411418 332.13888 
L 138.159491 336.13056 
L 148.568727 341.02944 
L 164.456509 350.46432 
L 186.370691 367.70112 
L 214.128655 382.21632 
L 247.7304 401.81184 
L 274.757891 411.06528 
L 309.090109 434.83392 
L 340.683055 455.33664 
L 369.536727 474.2064 
L 393.094473 486.9072 
L 412.999855 499.24512 
L 428.339782 509.95008 
L 437.288073 515.57472 
L 437.835927 518.11488 
L 436.5576 520.11072 
L 427.426691 521.19936 
L 416.4696 520.29216 
L 398.3904 515.57472 
L 380.3112 507.40992 
L 353.648945 496.52352 
L 327.169309 482.3712 
L 300.141818 468.40032 
L 249.008727 428.48352 
L 224.903127 407.43648 
L 207.189164 393.4656 
L 200.797527 383.84928 
L 197.145164 378.58752 
L 204.997745 381.672 
L 219.424582 390.92544 
L 238.782109 403.98912 
L 258.870109 411.97248 
L 283.706182 425.76192 
L 307.9944 436.104 
L 332.647855 451.5264 
L 360.2232 471.30336 
L 385.424509 486.72576 
L 406.608218 501.60384 
L 422.678618 515.0304 
L 428.157164 520.83648 
L 426.330982 523.92096 
L 419.574109 523.55808 
L 407.156073 521.3808 
L 391.085673 515.57472 
L 376.110982 509.22432 
L 356.388218 496.16064 
L 334.1088 479.83104 
L 307.263927 466.40448 
L 263.252945 442.81728 
L 229.103345 415.60128 
L 215.406982 401.44896 
L 207.371782 388.74816 
L 203.354182 383.66784 
L 206.641309 381.85344 
L 216.502691 383.84928 
L 232.025236 392.92128 
L 252.113236 405.2592 
L 278.045018 424.12896 
L 299.776582 437.9184 
L 321.142909 452.97792 
L 340.683055 464.40864 
L 358.762255 475.47648 
L 396.198982 501.60384 
L 408.251782 508.49856 
L 408.4344 508.86144 
L 406.973455 508.68 
L 398.573018 505.59552 
L 387.798545 502.51104 
L 372.823855 497.43072 
L 352.370618 486.36288 
L 331.369527 472.21056 
L 308.359636 456.9696 
L 265.626982 430.47936 
L 246.086836 417.23424 
L 229.468582 405.44064 
L 214.311273 396.91296 
L 199.5192 388.0224 
L 199.336582 380.7648 
L 199.701818 380.58336 
L 207.5544 383.4864 
L 225.6336 392.5584 
L 242.982327 396.36864 
L 260.513673 407.43648 
L 284.436655 423.94752 
L 307.263927 438.8256 
L 331.369527 453.3408 
L 331.369527 453.3408 
" clip-path="url(#pb18364a26d)" style="fill: none; stroke-dasharray: 5.55,2.4; stroke-dashoffset: 0; stroke: #ffa500; stroke-opacity: 0.7; stroke-width: 1.5"/>
   </g>
   <g id="line2d_31">
    <path d="M 103.599 576.72 
L 108.621 77.76 
" clip-path="url(#pb18364a26d)" style="fill: none; stroke: #0000ff; stroke-width: 0.75; stroke-linecap: square"/>
   </g>
   <g id="line2d_32">
    <path d="M 81 77.76 
L 583.2 576.72 
" clip-path="url(#pb18364a26d)" style="fill: none; stroke: #000000; stroke-width: 1.5; stroke-linecap: square"/>
   </g>
   <g id="line2d_33">
    <path d="M 81 554.04 
L 649 554.04 
" clip-path="url(#pb18364a26d)" style="fill: none; stroke-dasharray: 9.6,2.4,1.5,2.4; stroke-dashoffset: 0; stroke: #000000; stroke-width: 1.5"/>
   </g>
   <g id="line2d_34">
    <path d="M 103.827273 576.72 
L 103.827273 -1 
" clip-path="url(#pb18364a26d)" style="fill: none; stroke-dasharray: 9.6,2.4,1.5,2.4; stroke-dashoffset: 0; stroke: #000000; stroke-width: 1.5"/>
   </g>
   <g id="line2d_35">
    <path d="M 106.201309 283.87584 
L 106.931782 202.59072 
L 110.401527 204.04224 
L 120.810764 263.01024 
L 144.185891 346.65408 
L 175.230982 387.65952 
L 207.737018 399.27168 
L 242.799709 408.888 
L 277.131927 422.85888 
L 312.742473 445.90176 
L 347.257309 469.12608 
L 396.929455 499.608 
L 414.095564 508.13568 
L 428.5224 516.8448 
L 437.470691 521.56224 
L 438.018545 524.82816 
L 434.5488 527.36832 
L 408.069164 525.9168 
L 388.711636 521.01792 
L 365.153891 514.1232 
L 338.1264 502.14816 
L 310.0032 480.5568 
L 277.131927 457.51392 
L 253.391564 434.2896 
L 225.816218 411.42816 
L 204.449891 394.55424 
L 198.240873 383.4864 
L 196.049455 381.85344 
L 202.988945 376.95456 
L 213.946036 382.03488 
L 229.285964 387.65952 
L 251.565382 400.36032 
L 275.8536 415.78272 
L 303.246327 431.568 
L 331.369527 444.45024 
L 356.570836 458.784 
L 389.442109 480.5568 
L 419.574109 498.88224 
L 438.5664 512.49024 
L 446.418982 518.6592 
L 447.879927 521.19936 
L 441.853527 520.4736 
L 435.644509 518.11488 
L 424.5048 514.48608 
L 410.4432 508.13568 
L 391.085673 499.97088 
L 365.884364 487.27008 
L 348.535636 474.75072 
L 326.256218 468.21888 
L 305.802982 460.96128 
L 289.549964 456.0624 
L 283.340945 452.97792 
L 282.793091 452.97792 
L 283.158327 447.17184 
L 286.262836 444.63168 
L 303.611564 449.53056 
L 319.681964 446.0832 
L 345.065891 455.1552 
L 370.449818 469.12608 
L 392.546618 483.64128 
L 411.173673 495.61632 
L 425.783127 507.22848 
L 433.087855 513.39744 
L 435.827127 516.11904 
L 434.914036 517.38912 
L 429.435491 517.752 
L 419.026255 513.39744 
L 401.677527 506.8656 
L 379.945964 497.97504 
L 361.501527 485.45568 
L 309.272727 457.15104 
L 300.507055 446.44608 
L 291.010909 438.8256 
L 289.184727 433.20096 
L 288.271636 426.1248 
L 293.567564 427.39488 
L 302.881091 427.39488 
L 322.056 441.00288 
L 342.326618 448.62336 
L 363.875564 459.87264 
L 390.172582 475.83936 
L 415.739127 490.89888 
L 433.270473 502.87392 
L 444.410182 513.216 
L 450.253964 520.11072 
L 446.6016 519.92928 
L 435.279273 517.93344 
L 419.939345 512.3088 
L 390.537818 495.25344 
L 371.728145 485.45568 
L 355.109891 477.47232 
L 339.952582 470.5776 
L 320.229818 456.9696 
L 300.141818 443.72448 
L 284.619273 430.6608 
L 271.836 420.13728 
L 268.366255 421.40736 
L 268.548873 418.8672 
L 277.497164 421.77024 
L 295.576364 430.11648 
L 313.290327 437.19264 
L 351.274909 465.49728 
L 373.006473 477.29088 
L 395.103273 494.1648 
L 416.104364 508.49856 
L 429.070255 517.93344 
L 430.165964 521.19936 
L 425.052655 523.37664 
L 414.643418 520.11072 
L 400.3992 516.11904 
L 381.589527 507.22848 
L 360.588436 498.51936 
L 339.222109 484.54848 
L 319.681964 466.9488 
L 295.393745 448.62336 
L 269.461964 430.29792 
L 249.7392 415.2384 
L 239.329964 410.52096 
L 230.929527 412.69824 
L 227.6424 405.80352 
L 225.816218 398.54592 
L 233.851418 396.1872 
L 247.182545 401.99328 
L 263.435564 414.87552 
L 283.706182 423.94752 
L 316.394836 444.63168 
L 350.727055 464.95296 
L 382.867855 483.09696 
L 410.077964 499.608 
L 431.626909 513.03456 
L 444.227564 521.3808 
L 448.062545 525.73536 
L 444.227564 527.7312 
L 433.087855 527.54976 
L 417.565309 526.64256 
L 402.955855 524.1024 
L 384.3288 519.20352 
L 360.405818 509.95008 
L 336.848073 493.80192 
L 307.263927 475.65792 
L 284.619273 455.88096 
L 259.965818 437.73696 
L 230.016436 417.0528 
L 202.258473 394.55424 
L 179.065964 373.68864 
L 165.734836 359.53632 
L 156.238691 350.10144 
L 158.612727 347.92416 
L 174.135273 355.18176 
L 201.528 369.51552 
L 241.704 402.90048 
L 282.610473 428.48352 
L 323.699564 453.70368 
L 360.405818 472.93632 
L 395.285891 489.6288 
L 421.217673 504.32544 
L 438.018545 514.30464 
L 446.966836 519.02208 
L 450.6192 522.10656 
L 450.984436 524.1024 
L 444.958036 522.46944 
L 440.209964 522.10656 
L 425.965745 520.29216 
L 404.782036 516.66336 
L 384.511418 510.67584 
L 356.570836 500.69664 
L 328.812873 484.91136 
L 300.141818 466.58592 
L 271.653382 445.53888 
L 248.643491 422.13312 
L 231.477382 404.352 
L 221.981236 395.46144 
L 222.894327 387.47808 
L 232.573091 393.4656 
L 250.834909 401.99328 
L 283.523564 424.12896 
L 320.0472 447.53472 
L 357.301309 468.03744 
L 391.085673 487.63296 
L 418.843636 507.7728 
L 431.626909 515.9376 
L 439.114255 521.3808 
L 440.392582 524.82816 
L 436.009745 525.37248 
L 426.878836 524.46528 
L 414.826036 522.83232 
L 401.860145 519.20352 
L 385.059273 512.67168 
L 335.752364 487.99584 
L 307.629164 471.66624 
L 277.314545 455.51808 
L 246.634691 435.74112 
L 212.850327 408.70656 
L 212.850327 408.70656 
" clip-path="url(#pb18364a26d)" style="fill: none; stroke-dasharray: 5.55,2.4; stroke-dashoffset: 0; stroke: #800080; stroke-opacity: 0.7; stroke-width: 1.5"/>
   </g>
   <g id="line2d_36">
    <path d="M 103.599 576.72 
L 108.621 77.76 
" clip-path="url(#pb18364a26d)" style="fill: none; stroke: #0000ff; stroke-width: 0.75; stroke-linecap: square"/>
   </g>
   <g id="line2d_37">
    <path d="M 81 77.76 
L 583.2 576.72 
" clip-path="url(#pb18364a26d)" style="fill: none; stroke: #000000; stroke-width: 1.5; stroke-linecap: square"/>
   </g>
   <g id="line2d_38">
    <path d="M 81 554.04 
L 649 554.04 
" clip-path="url(#pb18364a26d)" style="fill: none; stroke-dasharray: 9.6,2.4,1.5,2.4; stroke-dashoffset: 0; stroke: #000000; stroke-width: 1.5"/>
   </g>
   <g id="line2d_39">
    <path d="M 103.827273 576.72 
L 103.827273 -1 
" clip-path="url(#pb18364a26d)" style="fill: none; stroke-dasharray: 9.6,2.4,1.5,2.4; stroke-dashoffset: 0; stroke: #000000; stroke-width: 1.5"/>
   </g>
   <g id="line2d_40">
    <path d="M 107.479636 192.79296 
L 110.401527 148.34016 
L 116.610545 168.29856 
L 133.776655 253.93824 
L 168.108873 356.45184 
L 212.485091 408.888 
L 263.070327 439.7328 
L 309.090109 458.60256 
L 353.831564 473.2992 
L 392.729236 493.07616 
L 421.035055 511.58304 
L 437.653309 520.4736 
L 446.053745 525.37248 
L 447.879927 526.824 
L 447.879927 526.824 
L 446.6016 527.00544 
L 442.401382 527.00544 
L 432.174764 526.64256 
L 413.730327 526.46112 
L 386.520218 524.82816 
L 357.483927 519.20352 
L 322.786473 510.13152 
L 288.819491 490.35456 
L 252.113236 462.59424 
L 228.372873 426.1248 
L 200.614909 392.73984 
L 179.613818 369.15264 
L 175.230982 361.7136 
L 175.778836 357.90336 
L 183.4488 361.53216 
L 204.267273 373.87008 
L 227.277164 390.38112 
L 254.122036 411.42816 
L 283.523564 428.48352 
L 316.942691 452.25216 
L 347.987782 468.94464 
L 380.493818 486 
L 407.886545 501.60384 
L 429.435491 513.216 
L 441.123055 523.1952 
L 442.584 526.27968 
L 438.5664 526.27968 
L 427.791927 525.19104 
L 413.547709 521.56224 
L 393.642327 517.02624 
L 357.849164 507.04704 
L 335.387127 501.24096 
L 314.568655 489.6288 
L 292.837091 479.28672 
L 276.401455 467.49312 
L 256.678691 451.16352 
L 244.443273 439.55136 
L 235.494982 425.2176 
L 231.294764 416.50848 
L 237.869018 416.87136 
L 255.7656 421.22592 
L 283.158327 430.11648 
L 307.263927 441.72864 
L 332.830473 459.32832 
L 353.648945 473.48064 
L 375.015273 490.71744 
L 401.312291 507.40992 
L 408.617018 512.49024 
L 409.712727 513.03456 
L 406.608218 511.03872 
L 400.764436 505.77696 
L 393.094473 499.97088 
L 384.146182 497.06784 
L 374.650036 496.16064 
L 361.136291 490.35456 
L 348.1704 485.27424 
L 328.265018 476.56512 
L 309.637964 469.85184 
L 300.689673 460.96128 
L 300.689673 460.5984 
L 304.889891 462.23136 
L 314.0208 463.50144 
L 322.238618 455.88096 
L 330.273818 453.15936 
L 346.709455 461.86848 
L 361.501527 469.12608 
L 379.945964 484.1856 
L 395.651127 495.43488 
L 410.260582 504.68832 
L 419.756727 511.76448 
L 417.930545 512.49024 
L 410.991055 511.94592 
L 397.842545 509.04288 
L 382.137382 503.05536 
L 366.797455 494.1648 
L 351.822764 485.0928 
L 336.1176 473.48064 
L 322.421236 458.784 
L 311.281527 452.25216 
L 302.698473 446.62752 
L 299.046109 448.8048 
L 298.680873 448.8048 
L 297.219927 441.5472 
L 297.585164 439.7328 
L 301.420145 436.64832 
L 305.9856 432.65664 
L 318.768873 437.73696 
L 334.1088 448.07904 
L 359.310109 462.95712 
L 384.694036 480.19392 
L 406.060364 492.3504 
L 424.687418 506.50272 
L 434.366182 513.03456 
L 433.453091 513.76032 
L 427.974545 513.216 
L 421.217673 512.12736 
L 413.547709 510.13152 
L 402.590618 505.9584 
L 390.537818 498.7008 
L 378.119782 492.71328 
L 362.962473 482.18976 
L 350.1792 475.65792 
L 336.1176 469.48896 
L 328.630255 468.94464 
L 325.343127 466.22304 
L 324.247418 463.68288 
L 323.334327 457.15104 
L 327.351927 455.51808 
L 336.1176 460.23552 
L 352.918473 467.49312 
L 370.815055 474.75072 
L 391.450909 484.91136 
L 408.799636 498.51936 
L 420.4872 505.23264 
L 429.435491 512.85312 
L 431.261673 517.02624 
L 425.965745 517.93344 
L 417.200073 517.752 
L 398.755636 516.48192 
L 383.415709 508.13568 
L 364.606036 501.60384 
L 346.892073 492.89472 
L 332.647855 485.0928 
L 317.673164 471.30336 
L 304.889891 459.6912 
L 292.289236 449.712 
L 290.097818 442.4544 
L 290.280436 441.36576 
L 292.654473 437.73696 
L 303.428945 439.36992 
L 314.203418 440.64 
L 330.456436 447.17184 
L 353.101091 458.784 
L 376.2936 475.65792 
L 400.033964 493.62048 
L 420.852436 509.04288 
L 432.722618 515.9376 
L 440.209964 521.19936 
L 440.940436 525.19104 
L 431.626909 523.1952 
L 418.843636 519.38496 
L 406.608218 514.66752 
L 391.268291 507.40992 
L 374.2848 501.78528 
L 359.310109 491.26176 
L 346.526836 485.0928 
L 328.630255 480.73824 
L 316.394836 470.39616 
L 302.698473 457.8768 
L 293.750182 453.3408 
L 282.427855 444.08736 
L 280.784291 429.57216 
L 285.714982 426.48768 
L 289.732582 428.12064 
L 295.576364 434.65248 
L 311.098909 440.82144 
L 329.543345 451.34496 
L 352.735855 467.13024 
L 371.728145 480.91968 
L 399.120873 501.78528 
L 405.512509 504.86976 
L 407.521309 510.85728 
L 408.617018 513.39744 
L 404.051564 512.12736 
L 395.468509 507.7728 
L 386.3376 501.96672 
L 381.772145 495.9792 
L 374.650036 491.62464 
L 370.2672 488.7216 
L 360.405818 488.35872 
L 355.657745 485.63712 
L 349.631345 479.28672 
L 349.996582 477.47232 
L 355.475127 476.56512 
L 357.849164 469.12608 
L 363.327709 469.48896 
L 373.189091 472.75488 
L 379.398109 478.56096 
L 388.3464 481.64544 
L 399.668727 486.9072 
L 407.521309 491.4432 
L 407.521309 491.4432 
" clip-path="url(#pb18364a26d)" style="fill: none; stroke-dasharray: 5.55,2.4; stroke-dashoffset: 0; stroke: #a52a2a; stroke-opacity: 0.7; stroke-width: 1.5"/>
   </g>
   <g id="line2d_41">
    <path d="M 103.599 576.72 
L 108.621 77.76 
" clip-path="url(#pb18364a26d)" style="fill: none; stroke: #0000ff; stroke-width: 0.75; stroke-linecap: square"/>
   </g>
   <g id="line2d_42">
    <path d="M 81 77.76 
L 583.2 576.72 
" clip-path="url(#pb18364a26d)" style="fill: none; stroke: #000000; stroke-width: 1.5; stroke-linecap: square"/>
   </g>
   <g id="line2d_43">
    <path d="M 81 554.04 
L 649 554.04 
" clip-path="url(#pb18364a26d)" style="fill: none; stroke-dasharray: 9.6,2.4,1.5,2.4; stroke-dashoffset: 0; stroke: #000000; stroke-width: 1.5"/>
   </g>
   <g id="line2d_44">
    <path d="M 103.827273 576.72 
L 103.827273 -1 
" clip-path="url(#pb18364a26d)" style="fill: none; stroke-dasharray: 9.6,2.4,1.5,2.4; stroke-dashoffset: 0; stroke: #000000; stroke-width: 1.5"/>
   </g>
   <g id="patch_3">
    <path d="M 81 576.72 
L 81 77.76 
" style="fill: none; stroke: #000000; stroke-width: 0.8; stroke-linejoin: miter; stroke-linecap: square"/>
   </g>
   <g id="patch_4">
    <path d="M 583.2 576.72 
L 583.2 77.76 
" style="fill: none; stroke: #000000; stroke-width: 0.8; stroke-linejoin: miter; stroke-linecap: square"/>
   </g>
   <g id="patch_5">
    <path d="M 81 576.72 
L 583.2 576.72 
" style="fill: none; stroke: #000000; stroke-width: 0.8; stroke-linejoin: miter; stroke-linecap: square"/>
   </g>
   <g id="patch_6">
    <path d="M 81 77.76 
L 583.2 77.76 
" style="fill: none; stroke: #000000; stroke-width: 0.8; stroke-linejoin: miter; stroke-linecap: square"/>
   </g>
   <g id="text_15">
    <!-- Phase diagram with a ratio of 100 predator to prey -->
    <g transform="translate(179.383125 71.76) scale(0.12 -0.12)">
     <defs>
      <path id="DejaVuSans-68" d="M 3513 2113 
L 3513 0 
L 2938 0 
L 2938 2094 
Q 2938 2591 2744 2837 
Q 2550 3084 2163 3084 
Q 1697 3084 1428 2787 
Q 1159 2491 1159 1978 
L 1159 0 
L 581 0 
L 581 4863 
L 1159 4863 
L 1159 2956 
Q 1366 3272 1645 3428 
Q 1925 3584 2291 3584 
Q 2894 3584 3203 3211 
Q 3513 2838 3513 2113 
z
" transform="scale(0.015625)"/>
      <path id="DejaVuSans-73" d="M 2834 3397 
L 2834 2853 
Q 2591 2978 2328 3040 
Q 2066 3103 1784 3103 
Q 1356 3103 1142 2972 
Q 928 2841 928 2578 
Q 928 2378 1081 2264 
Q 1234 2150 1697 2047 
L 1894 2003 
Q 2506 1872 2764 1633 
Q 3022 1394 3022 966 
Q 3022 478 2636 193 
Q 2250 -91 1575 -91 
Q 1294 -91 989 -36 
Q 684 19 347 128 
L 347 722 
Q 666 556 975 473 
Q 1284 391 1588 391 
Q 1994 391 2212 530 
Q 2431 669 2431 922 
Q 2431 1156 2273 1281 
Q 2116 1406 1581 1522 
L 1381 1569 
Q 847 1681 609 1914 
Q 372 2147 372 2553 
Q 372 3047 722 3315 
Q 1072 3584 1716 3584 
Q 2034 3584 2315 3537 
Q 2597 3491 2834 3397 
z
" transform="scale(0.015625)"/>
      <path id="DejaVuSans-67" d="M 2906 1791 
Q 2906 2416 2648 2759 
Q 2391 3103 1925 3103 
Q 1463 3103 1205 2759 
Q 947 2416 947 1791 
Q 947 1169 1205 825 
Q 1463 481 1925 481 
Q 2391 481 2648 825 
Q 2906 1169 2906 1791 
z
M 3481 434 
Q 3481 -459 3084 -895 
Q 2688 -1331 1869 -1331 
Q 1566 -1331 1297 -1286 
Q 1028 -1241 775 -1147 
L 775 -588 
Q 1028 -725 1275 -790 
Q 1522 -856 1778 -856 
Q 2344 -856 2625 -561 
Q 2906 -266 2906 331 
L 2906 616 
Q 2728 306 2450 153 
Q 2172 0 1784 0 
Q 1141 0 747 490 
Q 353 981 353 1791 
Q 353 2603 747 3093 
Q 1141 3584 1784 3584 
Q 2172 3584 2450 3431 
Q 2728 3278 2906 2969 
L 2906 3500 
L 3481 3500 
L 3481 434 
z
" transform="scale(0.015625)"/>
      <path id="DejaVuSans-6d" d="M 3328 2828 
Q 3544 3216 3844 3400 
Q 4144 3584 4550 3584 
Q 5097 3584 5394 3201 
Q 5691 2819 5691 2113 
L 5691 0 
L 5113 0 
L 5113 2094 
Q 5113 2597 4934 2840 
Q 4756 3084 4391 3084 
Q 3944 3084 3684 2787 
Q 3425 2491 3425 1978 
L 3425 0 
L 2847 0 
L 2847 2094 
Q 2847 2600 2669 2842 
Q 2491 3084 2119 3084 
Q 1678 3084 1418 2786 
Q 1159 2488 1159 1978 
L 1159 0 
L 581 0 
L 581 3500 
L 1159 3500 
L 1159 2956 
Q 1356 3278 1631 3431 
Q 1906 3584 2284 3584 
Q 2666 3584 2933 3390 
Q 3200 3197 3328 2828 
z
" transform="scale(0.015625)"/>
      <path id="DejaVuSans-77" d="M 269 3500 
L 844 3500 
L 1563 769 
L 2278 3500 
L 2956 3500 
L 3675 769 
L 4391 3500 
L 4966 3500 
L 4050 0 
L 3372 0 
L 2619 2869 
L 1863 0 
L 1184 0 
L 269 3500 
z
" transform="scale(0.015625)"/>
      <path id="DejaVuSans-66" d="M 2375 4863 
L 2375 4384 
L 1825 4384 
Q 1516 4384 1395 4259 
Q 1275 4134 1275 3809 
L 1275 3500 
L 2222 3500 
L 2222 3053 
L 1275 3053 
L 1275 0 
L 697 0 
L 697 3053 
L 147 3053 
L 147 3500 
L 697 3500 
L 697 3744 
Q 697 4328 969 4595 
Q 1241 4863 1831 4863 
L 2375 4863 
z
" transform="scale(0.015625)"/>
     </defs>
     <use xlink:href="#DejaVuSans-50"/>
     <use xlink:href="#DejaVuSans-68" x="60.302734"/>
     <use xlink:href="#DejaVuSans-61" x="123.681641"/>
     <use xlink:href="#DejaVuSans-73" x="184.960938"/>
     <use xlink:href="#DejaVuSans-65" x="237.060547"/>
     <use xlink:href="#DejaVuSans-20" x="298.583984"/>
     <use xlink:href="#DejaVuSans-64" x="330.371094"/>
     <use xlink:href="#DejaVuSans-69" x="393.847656"/>
     <use xlink:href="#DejaVuSans-61" x="421.630859"/>
     <use xlink:href="#DejaVuSans-67" x="482.910156"/>
     <use xlink:href="#DejaVuSans-72" x="546.386719"/>
     <use xlink:href="#DejaVuSans-61" x="587.5"/>
     <use xlink:href="#DejaVuSans-6d" x="648.779297"/>
     <use xlink:href="#DejaVuSans-20" x="746.191406"/>
     <use xlink:href="#DejaVuSans-77" x="777.978516"/>
     <use xlink:href="#DejaVuSans-69" x="859.765625"/>
     <use xlink:href="#DejaVuSans-74" x="887.548828"/>
     <use xlink:href="#DejaVuSans-68" x="926.757812"/>
     <use xlink:href="#DejaVuSans-20" x="990.136719"/>
     <use xlink:href="#DejaVuSans-61" x="1021.923828"/>
     <use xlink:href="#DejaVuSans-20" x="1083.203125"/>
     <use xlink:href="#DejaVuSans-72" x="1114.990234"/>
     <use xlink:href="#DejaVuSans-61" x="1156.103516"/>
     <use xlink:href="#DejaVuSans-74" x="1217.382812"/>
     <use xlink:href="#DejaVuSans-69" x="1256.591797"/>
     <use xlink:href="#DejaVuSans-6f" x="1284.375"/>
     <use xlink:href="#DejaVuSans-20" x="1345.556641"/>
     <use xlink:href="#DejaVuSans-6f" x="1377.34375"/>
     <use xlink:href="#DejaVuSans-66" x="1438.525391"/>
     <use xlink:href="#DejaVuSans-20" x="1473.730469"/>
     <use xlink:href="#DejaVuSans-31" x="1505.517578"/>
     <use xlink:href="#DejaVuSans-30" x="1569.140625"/>
     <use xlink:href="#DejaVuSans-30" x="1632.763672"/>
     <use xlink:href="#DejaVuSans-20" x="1696.386719"/>
     <use xlink:href="#DejaVuSans-70" x="1728.173828"/>
     <use xlink:href="#DejaVuSans-72" x="1791.650391"/>
     <use xlink:href="#DejaVuSans-65" x="1830.513672"/>
     <use xlink:href="#DejaVuSans-64" x="1892.037109"/>
     <use xlink:href="#DejaVuSans-61" x="1955.513672"/>
     <use xlink:href="#DejaVuSans-74" x="2016.792969"/>
     <use xlink:href="#DejaVuSans-6f" x="2056.001953"/>
     <use xlink:href="#DejaVuSans-72" x="2117.183594"/>
     <use xlink:href="#DejaVuSans-20" x="2158.296875"/>
     <use xlink:href="#DejaVuSans-74" x="2190.083984"/>
     <use xlink:href="#DejaVuSans-6f" x="2229.292969"/>
     <use xlink:href="#DejaVuSans-20" x="2290.474609"/>
     <use xlink:href="#DejaVuSans-70" x="2322.261719"/>
     <use xlink:href="#DejaVuSans-72" x="2385.738281"/>
     <use xlink:href="#DejaVuSans-65" x="2424.601562"/>
     <use xlink:href="#DejaVuSans-79" x="2486.125"/>
    </g>
   </g>
  </g>
 </g>
 <defs>
  <clipPath id="pb18364a26d">
   <rect x="81" y="77.76" width="502.2" height="498.96"/>
  </clipPath>
 </defs>
</svg>
