<?xml version="1.0" encoding="utf-8" standalone="no"?>
<!DOCTYPE svg PUBLIC "-//W3C//DTD SVG 1.1//EN"
  "http://www.w3.org/Graphics/SVG/1.1/DTD/svg11.dtd">
<svg xmlns:xlink="http://www.w3.org/1999/xlink" width="648pt" height="648pt" viewBox="0 0 648 648" xmlns="http://www.w3.org/2000/svg" version="1.1">
 <metadata>
  <rdf:RDF xmlns:dc="http://purl.org/dc/elements/1.1/" xmlns:cc="http://creativecommons.org/ns#" xmlns:rdf="http://www.w3.org/1999/02/22-rdf-syntax-ns#">
   <cc:Work>
    <dc:type rdf:resource="http://purl.org/dc/dcmitype/StillImage"/>
    <dc:date>2025-06-09T10:37:21.898520</dc:date>
    <dc:format>image/svg+xml</dc:format>
    <dc:creator>
     <cc:Agent>
      <dc:title>Matplotlib v3.7.0, https://matplotlib.org/</dc:title>
     </cc:Agent>
    </dc:creator>
   </cc:Work>
  </rdf:RDF>
 </metadata>
 <defs>
  <style type="text/css">*{stroke-linejoin: round; stroke-linecap: butt}</style>
 </defs>
 <g id="figure_1">
  <g id="patch_1">
   <path d="M 0 648 
L 648 648 
L 648 0 
L 0 0 
z
" style="fill: #ffffff"/>
  </g>
  <g id="axes_1">
   <g id="patch_2">
    <path d="M 81 576.72 
L 583.2 576.72 
L 583.2 77.76 
L 81 77.76 
z
" style="fill: #ffffff"/>
   </g>
   <g id="PathCollection_1">
    <defs>
     <path id="m9c52afcdd7" d="M -3.535534 3.535534 
L 3.535534 3.535534 
L 3.535534 -3.535534 
L -3.535534 -3.535534 
z
" style="stroke: #0000ff"/>
    </defs>
    <g clip-path="url(#p5fa3ff47d2)">
     <use xlink:href="#m9c52afcdd7" x="144.551127" y="507.22848" style="fill: #0000ff; stroke: #0000ff"/>
    </g>
   </g>
   <g id="PathCollection_2">
    <defs>
     <path id="mf8b2dfc42d" d="M -3.535534 3.535534 
L 3.535534 3.535534 
L 3.535534 -3.535534 
L -3.535534 -3.535534 
z
" style="stroke: #ff0000"/>
    </defs>
    <g clip-path="url(#p5fa3ff47d2)">
     <use xlink:href="#mf8b2dfc42d" x="235.312364" y="406.1664" style="fill: #ff0000; stroke: #ff0000"/>
    </g>
   </g>
   <g id="PathCollection_3">
    <g clip-path="url(#p5fa3ff47d2)">
     <use xlink:href="#m9c52afcdd7" x="201.893236" y="469.85184" style="fill: #0000ff; stroke: #0000ff"/>
    </g>
   </g>
   <g id="PathCollection_4">
    <g clip-path="url(#p5fa3ff47d2)">
     <use xlink:href="#mf8b2dfc42d" x="235.129745" y="401.99328" style="fill: #ff0000; stroke: #ff0000"/>
    </g>
   </g>
   <g id="PathCollection_5">
    <g clip-path="url(#p5fa3ff47d2)">
     <use xlink:href="#m9c52afcdd7" x="241.886618" y="418.68576" style="fill: #0000ff; stroke: #0000ff"/>
    </g>
   </g>
   <g id="PathCollection_6">
    <g clip-path="url(#p5fa3ff47d2)">
     <use xlink:href="#mf8b2dfc42d" x="250.652291" y="413.78688" style="fill: #ff0000; stroke: #ff0000"/>
    </g>
   </g>
   <g id="PathCollection_7">
    <g clip-path="url(#p5fa3ff47d2)">
     <use xlink:href="#m9c52afcdd7" x="283.8888" y="368.064" style="fill: #0000ff; stroke: #0000ff"/>
    </g>
   </g>
   <g id="PathCollection_8">
    <g clip-path="url(#p5fa3ff47d2)">
     <use xlink:href="#mf8b2dfc42d" x="242.251855" y="410.7024" style="fill: #ff0000; stroke: #ff0000"/>
    </g>
   </g>
   <g id="matplotlib.axis_1">
    <g id="xtick_1">
     <g id="line2d_1">
      <path d="M 103.827273 576.72 
L 103.827273 77.76 
" clip-path="url(#p5fa3ff47d2)" style="fill: none; stroke: #b0b0b0; stroke-width: 0.1; stroke-linecap: square"/>
     </g>
     <g id="line2d_2">
      <defs>
       <path id="m60588f60cb" d="M 0 0 
L 0 3.5 
" style="stroke: #000000; stroke-width: 0.8"/>
      </defs>
      <g>
       <use xlink:href="#m60588f60cb" x="103.827273" y="576.72" style="stroke: #000000; stroke-width: 0.8"/>
      </g>
     </g>
     <g id="text_1">
      <!-- 0 -->
      <g transform="translate(100.646023 591.318438) scale(0.1 -0.1)">
       <defs>
        <path id="DejaVuSans-30" d="M 2034 4250 
Q 1547 4250 1301 3770 
Q 1056 3291 1056 2328 
Q 1056 1369 1301 889 
Q 1547 409 2034 409 
Q 2525 409 2770 889 
Q 3016 1369 3016 2328 
Q 3016 3291 2770 3770 
Q 2525 4250 2034 4250 
z
M 2034 4750 
Q 2819 4750 3233 4129 
Q 3647 3509 3647 2328 
Q 3647 1150 3233 529 
Q 2819 -91 2034 -91 
Q 1250 -91 836 529 
Q 422 1150 422 2328 
Q 422 3509 836 4129 
Q 1250 4750 2034 4750 
z
" transform="scale(0.015625)"/>
       </defs>
       <use xlink:href="#DejaVuSans-30"/>
      </g>
     </g>
    </g>
    <g id="xtick_2">
     <g id="line2d_3">
      <path d="M 195.136364 576.72 
L 195.136364 77.76 
" clip-path="url(#p5fa3ff47d2)" style="fill: none; stroke: #b0b0b0; stroke-width: 0.1; stroke-linecap: square"/>
     </g>
     <g id="line2d_4">
      <g>
       <use xlink:href="#m60588f60cb" x="195.136364" y="576.72" style="stroke: #000000; stroke-width: 0.8"/>
      </g>
     </g>
     <g id="text_2">
      <!-- 500 -->
      <g transform="translate(185.592614 591.318438) scale(0.1 -0.1)">
       <defs>
        <path id="DejaVuSans-35" d="M 691 4666 
L 3169 4666 
L 3169 4134 
L 1269 4134 
L 1269 2991 
Q 1406 3038 1543 3061 
Q 1681 3084 1819 3084 
Q 2600 3084 3056 2656 
Q 3513 2228 3513 1497 
Q 3513 744 3044 326 
Q 2575 -91 1722 -91 
Q 1428 -91 1123 -41 
Q 819 9 494 109 
L 494 744 
Q 775 591 1075 516 
Q 1375 441 1709 441 
Q 2250 441 2565 725 
Q 2881 1009 2881 1497 
Q 2881 1984 2565 2268 
Q 2250 2553 1709 2553 
Q 1456 2553 1204 2497 
Q 953 2441 691 2322 
L 691 4666 
z
" transform="scale(0.015625)"/>
       </defs>
       <use xlink:href="#DejaVuSans-35"/>
       <use xlink:href="#DejaVuSans-30" x="63.623047"/>
       <use xlink:href="#DejaVuSans-30" x="127.246094"/>
      </g>
     </g>
    </g>
    <g id="xtick_3">
     <g id="line2d_5">
      <path d="M 286.445455 576.72 
L 286.445455 77.76 
" clip-path="url(#p5fa3ff47d2)" style="fill: none; stroke: #b0b0b0; stroke-width: 0.1; stroke-linecap: square"/>
     </g>
     <g id="line2d_6">
      <g>
       <use xlink:href="#m60588f60cb" x="286.445455" y="576.72" style="stroke: #000000; stroke-width: 0.8"/>
      </g>
     </g>
     <g id="text_3">
      <!-- 1000 -->
      <g transform="translate(273.720455 591.318438) scale(0.1 -0.1)">
       <defs>
        <path id="DejaVuSans-31" d="M 794 531 
L 1825 531 
L 1825 4091 
L 703 3866 
L 703 4441 
L 1819 4666 
L 2450 4666 
L 2450 531 
L 3481 531 
L 3481 0 
L 794 0 
L 794 531 
z
" transform="scale(0.015625)"/>
       </defs>
       <use xlink:href="#DejaVuSans-31"/>
       <use xlink:href="#DejaVuSans-30" x="63.623047"/>
       <use xlink:href="#DejaVuSans-30" x="127.246094"/>
       <use xlink:href="#DejaVuSans-30" x="190.869141"/>
      </g>
     </g>
    </g>
    <g id="xtick_4">
     <g id="line2d_7">
      <path d="M 377.754545 576.72 
L 377.754545 77.76 
" clip-path="url(#p5fa3ff47d2)" style="fill: none; stroke: #b0b0b0; stroke-width: 0.1; stroke-linecap: square"/>
     </g>
     <g id="line2d_8">
      <g>
       <use xlink:href="#m60588f60cb" x="377.754545" y="576.72" style="stroke: #000000; stroke-width: 0.8"/>
      </g>
     </g>
     <g id="text_4">
      <!-- 1500 -->
      <g transform="translate(365.029545 591.318438) scale(0.1 -0.1)">
       <use xlink:href="#DejaVuSans-31"/>
       <use xlink:href="#DejaVuSans-35" x="63.623047"/>
       <use xlink:href="#DejaVuSans-30" x="127.246094"/>
       <use xlink:href="#DejaVuSans-30" x="190.869141"/>
      </g>
     </g>
    </g>
    <g id="xtick_5">
     <g id="line2d_9">
      <path d="M 469.063636 576.72 
L 469.063636 77.76 
" clip-path="url(#p5fa3ff47d2)" style="fill: none; stroke: #b0b0b0; stroke-width: 0.1; stroke-linecap: square"/>
     </g>
     <g id="line2d_10">
      <g>
       <use xlink:href="#m60588f60cb" x="469.063636" y="576.72" style="stroke: #000000; stroke-width: 0.8"/>
      </g>
     </g>
     <g id="text_5">
      <!-- 2000 -->
      <g transform="translate(456.338636 591.318438) scale(0.1 -0.1)">
       <defs>
        <path id="DejaVuSans-32" d="M 1228 531 
L 3431 531 
L 3431 0 
L 469 0 
L 469 531 
Q 828 903 1448 1529 
Q 2069 2156 2228 2338 
Q 2531 2678 2651 2914 
Q 2772 3150 2772 3378 
Q 2772 3750 2511 3984 
Q 2250 4219 1831 4219 
Q 1534 4219 1204 4116 
Q 875 4013 500 3803 
L 500 4441 
Q 881 4594 1212 4672 
Q 1544 4750 1819 4750 
Q 2544 4750 2975 4387 
Q 3406 4025 3406 3419 
Q 3406 3131 3298 2873 
Q 3191 2616 2906 2266 
Q 2828 2175 2409 1742 
Q 1991 1309 1228 531 
z
" transform="scale(0.015625)"/>
       </defs>
       <use xlink:href="#DejaVuSans-32"/>
       <use xlink:href="#DejaVuSans-30" x="63.623047"/>
       <use xlink:href="#DejaVuSans-30" x="127.246094"/>
       <use xlink:href="#DejaVuSans-30" x="190.869141"/>
      </g>
     </g>
    </g>
    <g id="xtick_6">
     <g id="line2d_11">
      <path d="M 560.372727 576.72 
L 560.372727 77.76 
" clip-path="url(#p5fa3ff47d2)" style="fill: none; stroke: #b0b0b0; stroke-width: 0.1; stroke-linecap: square"/>
     </g>
     <g id="line2d_12">
      <g>
       <use xlink:href="#m60588f60cb" x="560.372727" y="576.72" style="stroke: #000000; stroke-width: 0.8"/>
      </g>
     </g>
     <g id="text_6">
      <!-- 2500 -->
      <g transform="translate(547.647727 591.318438) scale(0.1 -0.1)">
       <use xlink:href="#DejaVuSans-32"/>
       <use xlink:href="#DejaVuSans-35" x="63.623047"/>
       <use xlink:href="#DejaVuSans-30" x="127.246094"/>
       <use xlink:href="#DejaVuSans-30" x="190.869141"/>
      </g>
     </g>
    </g>
    <g id="text_7">
     <!-- Predator population -->
     <g transform="translate(282.64375 604.996562) scale(0.1 -0.1)">
      <defs>
       <path id="DejaVuSans-50" d="M 1259 4147 
L 1259 2394 
L 2053 2394 
Q 2494 2394 2734 2622 
Q 2975 2850 2975 3272 
Q 2975 3691 2734 3919 
Q 2494 4147 2053 4147 
L 1259 4147 
z
M 628 4666 
L 2053 4666 
Q 2838 4666 3239 4311 
Q 3641 3956 3641 3272 
Q 3641 2581 3239 2228 
Q 2838 1875 2053 1875 
L 1259 1875 
L 1259 0 
L 628 0 
L 628 4666 
z
" transform="scale(0.015625)"/>
       <path id="DejaVuSans-72" d="M 2631 2963 
Q 2534 3019 2420 3045 
Q 2306 3072 2169 3072 
Q 1681 3072 1420 2755 
Q 1159 2438 1159 1844 
L 1159 0 
L 581 0 
L 581 3500 
L 1159 3500 
L 1159 2956 
Q 1341 3275 1631 3429 
Q 1922 3584 2338 3584 
Q 2397 3584 2469 3576 
Q 2541 3569 2628 3553 
L 2631 2963 
z
" transform="scale(0.015625)"/>
       <path id="DejaVuSans-65" d="M 3597 1894 
L 3597 1613 
L 953 1613 
Q 991 1019 1311 708 
Q 1631 397 2203 397 
Q 2534 397 2845 478 
Q 3156 559 3463 722 
L 3463 178 
Q 3153 47 2828 -22 
Q 2503 -91 2169 -91 
Q 1331 -91 842 396 
Q 353 884 353 1716 
Q 353 2575 817 3079 
Q 1281 3584 2069 3584 
Q 2775 3584 3186 3129 
Q 3597 2675 3597 1894 
z
M 3022 2063 
Q 3016 2534 2758 2815 
Q 2500 3097 2075 3097 
Q 1594 3097 1305 2825 
Q 1016 2553 972 2059 
L 3022 2063 
z
" transform="scale(0.015625)"/>
       <path id="DejaVuSans-64" d="M 2906 2969 
L 2906 4863 
L 3481 4863 
L 3481 0 
L 2906 0 
L 2906 525 
Q 2725 213 2448 61 
Q 2172 -91 1784 -91 
Q 1150 -91 751 415 
Q 353 922 353 1747 
Q 353 2572 751 3078 
Q 1150 3584 1784 3584 
Q 2172 3584 2448 3432 
Q 2725 3281 2906 2969 
z
M 947 1747 
Q 947 1113 1208 752 
Q 1469 391 1925 391 
Q 2381 391 2643 752 
Q 2906 1113 2906 1747 
Q 2906 2381 2643 2742 
Q 2381 3103 1925 3103 
Q 1469 3103 1208 2742 
Q 947 2381 947 1747 
z
" transform="scale(0.015625)"/>
       <path id="DejaVuSans-61" d="M 2194 1759 
Q 1497 1759 1228 1600 
Q 959 1441 959 1056 
Q 959 750 1161 570 
Q 1363 391 1709 391 
Q 2188 391 2477 730 
Q 2766 1069 2766 1631 
L 2766 1759 
L 2194 1759 
z
M 3341 1997 
L 3341 0 
L 2766 0 
L 2766 531 
Q 2569 213 2275 61 
Q 1981 -91 1556 -91 
Q 1019 -91 701 211 
Q 384 513 384 1019 
Q 384 1609 779 1909 
Q 1175 2209 1959 2209 
L 2766 2209 
L 2766 2266 
Q 2766 2663 2505 2880 
Q 2244 3097 1772 3097 
Q 1472 3097 1187 3025 
Q 903 2953 641 2809 
L 641 3341 
Q 956 3463 1253 3523 
Q 1550 3584 1831 3584 
Q 2591 3584 2966 3190 
Q 3341 2797 3341 1997 
z
" transform="scale(0.015625)"/>
       <path id="DejaVuSans-74" d="M 1172 4494 
L 1172 3500 
L 2356 3500 
L 2356 3053 
L 1172 3053 
L 1172 1153 
Q 1172 725 1289 603 
Q 1406 481 1766 481 
L 2356 481 
L 2356 0 
L 1766 0 
Q 1100 0 847 248 
Q 594 497 594 1153 
L 594 3053 
L 172 3053 
L 172 3500 
L 594 3500 
L 594 4494 
L 1172 4494 
z
" transform="scale(0.015625)"/>
       <path id="DejaVuSans-6f" d="M 1959 3097 
Q 1497 3097 1228 2736 
Q 959 2375 959 1747 
Q 959 1119 1226 758 
Q 1494 397 1959 397 
Q 2419 397 2687 759 
Q 2956 1122 2956 1747 
Q 2956 2369 2687 2733 
Q 2419 3097 1959 3097 
z
M 1959 3584 
Q 2709 3584 3137 3096 
Q 3566 2609 3566 1747 
Q 3566 888 3137 398 
Q 2709 -91 1959 -91 
Q 1206 -91 779 398 
Q 353 888 353 1747 
Q 353 2609 779 3096 
Q 1206 3584 1959 3584 
z
" transform="scale(0.015625)"/>
       <path id="DejaVuSans-20" transform="scale(0.015625)"/>
       <path id="DejaVuSans-70" d="M 1159 525 
L 1159 -1331 
L 581 -1331 
L 581 3500 
L 1159 3500 
L 1159 2969 
Q 1341 3281 1617 3432 
Q 1894 3584 2278 3584 
Q 2916 3584 3314 3078 
Q 3713 2572 3713 1747 
Q 3713 922 3314 415 
Q 2916 -91 2278 -91 
Q 1894 -91 1617 61 
Q 1341 213 1159 525 
z
M 3116 1747 
Q 3116 2381 2855 2742 
Q 2594 3103 2138 3103 
Q 1681 3103 1420 2742 
Q 1159 2381 1159 1747 
Q 1159 1113 1420 752 
Q 1681 391 2138 391 
Q 2594 391 2855 752 
Q 3116 1113 3116 1747 
z
" transform="scale(0.015625)"/>
       <path id="DejaVuSans-75" d="M 544 1381 
L 544 3500 
L 1119 3500 
L 1119 1403 
Q 1119 906 1312 657 
Q 1506 409 1894 409 
Q 2359 409 2629 706 
Q 2900 1003 2900 1516 
L 2900 3500 
L 3475 3500 
L 3475 0 
L 2900 0 
L 2900 538 
Q 2691 219 2414 64 
Q 2138 -91 1772 -91 
Q 1169 -91 856 284 
Q 544 659 544 1381 
z
M 1991 3584 
L 1991 3584 
z
" transform="scale(0.015625)"/>
       <path id="DejaVuSans-6c" d="M 603 4863 
L 1178 4863 
L 1178 0 
L 603 0 
L 603 4863 
z
" transform="scale(0.015625)"/>
       <path id="DejaVuSans-69" d="M 603 3500 
L 1178 3500 
L 1178 0 
L 603 0 
L 603 3500 
z
M 603 4863 
L 1178 4863 
L 1178 4134 
L 603 4134 
L 603 4863 
z
" transform="scale(0.015625)"/>
       <path id="DejaVuSans-6e" d="M 3513 2113 
L 3513 0 
L 2938 0 
L 2938 2094 
Q 2938 2591 2744 2837 
Q 2550 3084 2163 3084 
Q 1697 3084 1428 2787 
Q 1159 2491 1159 1978 
L 1159 0 
L 581 0 
L 581 3500 
L 1159 3500 
L 1159 2956 
Q 1366 3272 1645 3428 
Q 1925 3584 2291 3584 
Q 2894 3584 3203 3211 
Q 3513 2838 3513 2113 
z
" transform="scale(0.015625)"/>
      </defs>
      <use xlink:href="#DejaVuSans-50"/>
      <use xlink:href="#DejaVuSans-72" x="58.552734"/>
      <use xlink:href="#DejaVuSans-65" x="97.416016"/>
      <use xlink:href="#DejaVuSans-64" x="158.939453"/>
      <use xlink:href="#DejaVuSans-61" x="222.416016"/>
      <use xlink:href="#DejaVuSans-74" x="283.695312"/>
      <use xlink:href="#DejaVuSans-6f" x="322.904297"/>
      <use xlink:href="#DejaVuSans-72" x="384.085938"/>
      <use xlink:href="#DejaVuSans-20" x="425.199219"/>
      <use xlink:href="#DejaVuSans-70" x="456.986328"/>
      <use xlink:href="#DejaVuSans-6f" x="520.462891"/>
      <use xlink:href="#DejaVuSans-70" x="581.644531"/>
      <use xlink:href="#DejaVuSans-75" x="645.121094"/>
      <use xlink:href="#DejaVuSans-6c" x="708.5"/>
      <use xlink:href="#DejaVuSans-61" x="736.283203"/>
      <use xlink:href="#DejaVuSans-74" x="797.5625"/>
      <use xlink:href="#DejaVuSans-69" x="836.771484"/>
      <use xlink:href="#DejaVuSans-6f" x="864.554688"/>
      <use xlink:href="#DejaVuSans-6e" x="925.736328"/>
     </g>
    </g>
   </g>
   <g id="matplotlib.axis_2">
    <g id="ytick_1">
     <g id="line2d_13">
      <path d="M 81 554.04 
L 583.2 554.04 
" clip-path="url(#p5fa3ff47d2)" style="fill: none; stroke: #b0b0b0; stroke-width: 0.1; stroke-linecap: square"/>
     </g>
     <g id="line2d_14">
      <defs>
       <path id="maf17ade065" d="M 0 0 
L -3.5 0 
" style="stroke: #000000; stroke-width: 0.8"/>
      </defs>
      <g>
       <use xlink:href="#maf17ade065" x="81" y="554.04" style="stroke: #000000; stroke-width: 0.8"/>
      </g>
     </g>
     <g id="text_8">
      <!-- 0 -->
      <g transform="translate(67.6375 557.839219) scale(0.1 -0.1)">
       <use xlink:href="#DejaVuSans-30"/>
      </g>
     </g>
    </g>
    <g id="ytick_2">
     <g id="line2d_15">
      <path d="M 81 463.32 
L 583.2 463.32 
" clip-path="url(#p5fa3ff47d2)" style="fill: none; stroke: #b0b0b0; stroke-width: 0.1; stroke-linecap: square"/>
     </g>
     <g id="line2d_16">
      <g>
       <use xlink:href="#maf17ade065" x="81" y="463.32" style="stroke: #000000; stroke-width: 0.8"/>
      </g>
     </g>
     <g id="text_9">
      <!-- 500 -->
      <g transform="translate(54.9125 467.119219) scale(0.1 -0.1)">
       <use xlink:href="#DejaVuSans-35"/>
       <use xlink:href="#DejaVuSans-30" x="63.623047"/>
       <use xlink:href="#DejaVuSans-30" x="127.246094"/>
      </g>
     </g>
    </g>
    <g id="ytick_3">
     <g id="line2d_17">
      <path d="M 81 372.6 
L 583.2 372.6 
" clip-path="url(#p5fa3ff47d2)" style="fill: none; stroke: #b0b0b0; stroke-width: 0.1; stroke-linecap: square"/>
     </g>
     <g id="line2d_18">
      <g>
       <use xlink:href="#maf17ade065" x="81" y="372.6" style="stroke: #000000; stroke-width: 0.8"/>
      </g>
     </g>
     <g id="text_10">
      <!-- 1000 -->
      <g transform="translate(48.55 376.399219) scale(0.1 -0.1)">
       <use xlink:href="#DejaVuSans-31"/>
       <use xlink:href="#DejaVuSans-30" x="63.623047"/>
       <use xlink:href="#DejaVuSans-30" x="127.246094"/>
       <use xlink:href="#DejaVuSans-30" x="190.869141"/>
      </g>
     </g>
    </g>
    <g id="ytick_4">
     <g id="line2d_19">
      <path d="M 81 281.88 
L 583.2 281.88 
" clip-path="url(#p5fa3ff47d2)" style="fill: none; stroke: #b0b0b0; stroke-width: 0.1; stroke-linecap: square"/>
     </g>
     <g id="line2d_20">
      <g>
       <use xlink:href="#maf17ade065" x="81" y="281.88" style="stroke: #000000; stroke-width: 0.8"/>
      </g>
     </g>
     <g id="text_11">
      <!-- 1500 -->
      <g transform="translate(48.55 285.679219) scale(0.1 -0.1)">
       <use xlink:href="#DejaVuSans-31"/>
       <use xlink:href="#DejaVuSans-35" x="63.623047"/>
       <use xlink:href="#DejaVuSans-30" x="127.246094"/>
       <use xlink:href="#DejaVuSans-30" x="190.869141"/>
      </g>
     </g>
    </g>
    <g id="ytick_5">
     <g id="line2d_21">
      <path d="M 81 191.16 
L 583.2 191.16 
" clip-path="url(#p5fa3ff47d2)" style="fill: none; stroke: #b0b0b0; stroke-width: 0.1; stroke-linecap: square"/>
     </g>
     <g id="line2d_22">
      <g>
       <use xlink:href="#maf17ade065" x="81" y="191.16" style="stroke: #000000; stroke-width: 0.8"/>
      </g>
     </g>
     <g id="text_12">
      <!-- 2000 -->
      <g transform="translate(48.55 194.959219) scale(0.1 -0.1)">
       <use xlink:href="#DejaVuSans-32"/>
       <use xlink:href="#DejaVuSans-30" x="63.623047"/>
       <use xlink:href="#DejaVuSans-30" x="127.246094"/>
       <use xlink:href="#DejaVuSans-30" x="190.869141"/>
      </g>
     </g>
    </g>
    <g id="ytick_6">
     <g id="line2d_23">
      <path d="M 81 100.44 
L 583.2 100.44 
" clip-path="url(#p5fa3ff47d2)" style="fill: none; stroke: #b0b0b0; stroke-width: 0.1; stroke-linecap: square"/>
     </g>
     <g id="line2d_24">
      <g>
       <use xlink:href="#maf17ade065" x="81" y="100.44" style="stroke: #000000; stroke-width: 0.8"/>
      </g>
     </g>
     <g id="text_13">
      <!-- 2500 -->
      <g transform="translate(48.55 104.239219) scale(0.1 -0.1)">
       <use xlink:href="#DejaVuSans-32"/>
       <use xlink:href="#DejaVuSans-35" x="63.623047"/>
       <use xlink:href="#DejaVuSans-30" x="127.246094"/>
       <use xlink:href="#DejaVuSans-30" x="190.869141"/>
      </g>
     </g>
    </g>
    <g id="text_14">
     <!-- Prey population -->
     <g transform="translate(42.470312 366.342344) rotate(-90) scale(0.1 -0.1)">
      <defs>
       <path id="DejaVuSans-79" d="M 2059 -325 
Q 1816 -950 1584 -1140 
Q 1353 -1331 966 -1331 
L 506 -1331 
L 506 -850 
L 844 -850 
Q 1081 -850 1212 -737 
Q 1344 -625 1503 -206 
L 1606 56 
L 191 3500 
L 800 3500 
L 1894 763 
L 2988 3500 
L 3597 3500 
L 2059 -325 
z
" transform="scale(0.015625)"/>
      </defs>
      <use xlink:href="#DejaVuSans-50"/>
      <use xlink:href="#DejaVuSans-72" x="58.552734"/>
      <use xlink:href="#DejaVuSans-65" x="97.416016"/>
      <use xlink:href="#DejaVuSans-79" x="158.939453"/>
      <use xlink:href="#DejaVuSans-20" x="218.119141"/>
      <use xlink:href="#DejaVuSans-70" x="249.90625"/>
      <use xlink:href="#DejaVuSans-6f" x="313.382812"/>
      <use xlink:href="#DejaVuSans-70" x="374.564453"/>
      <use xlink:href="#DejaVuSans-75" x="438.041016"/>
      <use xlink:href="#DejaVuSans-6c" x="501.419922"/>
      <use xlink:href="#DejaVuSans-61" x="529.203125"/>
      <use xlink:href="#DejaVuSans-74" x="590.482422"/>
      <use xlink:href="#DejaVuSans-69" x="629.691406"/>
      <use xlink:href="#DejaVuSans-6f" x="657.474609"/>
      <use xlink:href="#DejaVuSans-6e" x="718.65625"/>
     </g>
    </g>
   </g>
   <g id="line2d_25">
    <path d="M 144.551127 507.22848 
L 146.742545 483.64128 
L 152.038473 435.1968 
L 162.265091 400.7232 
L 181.622618 382.76064 
L 222.163855 398.0016 
L 249.373964 416.1456 
L 264.531273 436.104 
L 264.896509 447.8976 
L 243.347564 442.4544 
L 227.6424 427.9392 
L 221.981236 418.50432 
L 225.998836 410.52096 
L 231.294764 410.52096 
L 238.234255 411.24672 
L 245.538982 414.51264 
L 253.574182 421.5888 
L 258.139636 429.57216 
L 251.382764 429.57216 
L 234.399273 414.3312 
L 227.6424 406.89216 
L 235.129745 402.5376 
L 250.469673 407.9808 
L 258.322255 417.0528 
L 253.7568 420.6816 
L 235.312364 416.87136 
L 242.434473 419.95584 
L 248.095636 421.04448 
L 245.356364 420.31872 
L 247.182545 423.58464 
L 248.460873 417.59712 
L 246.634691 412.33536 
L 245.173745 407.0736 
L 246.817309 406.71072 
L 258.687491 420.31872 
L 271.470764 429.20928 
L 258.322255 430.29792 
L 248.826109 423.76608 
L 246.634691 419.23008 
L 249.556582 417.59712 
L 249.008727 421.40736 
L 249.921818 424.3104 
L 254.122036 428.66496 
L 252.478473 425.94336 
L 237.138545 414.87552 
L 232.938327 413.24256 
L 241.521382 417.59712 
L 245.538982 417.77856 
L 241.704 409.25088 
L 249.7392 410.52096 
L 257.043927 412.33536 
L 254.487273 408.34368 
L 264.713891 410.88384 
L 274.575273 421.77024 
L 279.8712 429.20928 
L 267.453164 430.84224 
L 239.6952 418.8672 
L 233.851418 412.15392 
L 240.790909 406.89216 
L 242.799709 409.7952 
L 243.530182 405.07776 
L 244.808509 414.51264 
L 249.191345 426.48768 
L 253.7568 430.6608 
L 242.799709 424.67328 
L 233.851418 421.77024 
L 240.060436 425.03616 
L 244.260655 422.85888 
L 242.799709 422.67744 
L 245.904218 423.22176 
L 244.625891 419.95584 
L 242.799709 412.69824 
L 243.7128 408.70656 
L 251.382764 404.352 
L 257.409164 410.33952 
L 265.261745 420.31872 
L 256.130836 418.8672 
L 245.173745 416.1456 
L 247.547782 416.68992 
L 252.295855 415.78272 
L 246.817309 406.71072 
L 243.530182 401.99328 
L 243.164945 404.17056 
L 251.017527 409.7952 
L 254.669891 415.41984 
L 259.965818 428.12064 
L 263.8008 439.91424 
L 246.452073 428.48352 
L 229.103345 417.96 
L 232.390473 413.24256 
L 232.938327 402.35616 
L 237.503782 400.17888 
L 257.226545 412.5168 
L 259.052727 419.95584 
L 254.304655 422.67744 
L 256.496073 420.50016 
L 257.043927 421.5888 
L 260.331055 429.7536 
L 253.574182 427.39488 
L 247.547782 423.58464 
L 250.287055 423.76608 
L 251.748 423.04032 
L 250.652291 421.22592 
L 253.939418 419.04864 
L 254.669891 416.68992 
L 257.226545 417.41568 
L 257.957018 424.67328 
L 251.930618 422.67744 
L 245.538982 417.23424 
L 253.208945 421.40736 
L 260.878909 424.12896 
L 258.870109 424.3104 
L 258.504873 427.9392 
L 248.460873 421.40736 
L 243.347564 416.1456 
L 255.217745 425.2176 
L 269.644582 427.9392 
L 258.139636 424.67328 
L 248.460873 418.50432 
L 252.295855 413.96832 
L 260.513673 413.96832 
L 263.252945 424.3104 
L 265.8096 432.29376 
L 258.139636 430.47936 
L 248.643491 423.22176 
L 244.808509 417.96 
L 241.156145 406.89216 
L 241.156145 409.97664 
L 246.634691 412.87968 
L 253.7568 418.32288 
L 255.948218 421.04448 
L 253.939418 422.67744 
L 250.287055 421.5888 
L 250.834909 426.48768 
L 246.452073 424.67328 
L 241.156145 420.31872 
L 241.521382 414.87552 
L 251.748 418.32288 
L 257.957018 423.04032 
L 255.035127 426.85056 
L 251.017527 422.13312 
L 253.939418 423.58464 
L 254.122036 421.5888 
L 247.365164 412.15392 
L 245.356364 408.52512 
L 252.478473 411.24672 
L 269.8272 418.14144 
L 268.731491 421.95168 
L 271.105527 425.94336 
L 268.366255 431.74944 
L 243.895418 421.22592 
L 229.103345 410.15808 
L 235.494982 406.34784 
L 237.503782 408.70656 
L 248.460873 422.67744 
L 256.313455 430.84224 
L 242.251855 429.93504 
L 230.016436 423.58464 
L 230.016436 417.0528 
L 232.755709 413.96832 
L 240.790909 411.06528 
L 245.538982 411.97248 
L 245.7216 411.24672 
L 249.921818 417.96 
L 246.269455 418.8672 
L 238.782109 414.87552 
L 237.503782 412.69824 
L 251.017527 414.14976 
L 254.487273 415.60128 
L 253.391564 419.7744 
L 244.808509 419.95584 
L 247.7304 420.6816 
L 245.7216 414.87552 
L 249.373964 415.2384 
L 250.834909 414.51264 
L 251.565382 421.5888 
L 263.983418 435.01536 
L 254.304655 431.20512 
L 249.7392 429.02784 
L 238.416873 416.87136 
L 240.425673 411.97248 
L 258.504873 417.0528 
L 258.870109 419.23008 
L 257.043927 419.41152 
L 262.157236 423.22176 
L 257.957018 427.39488 
L 254.852509 424.85472 
L 233.120945 407.9808 
L 245.356364 403.4448 
L 256.861309 414.3312 
L 267.087927 423.22176 
L 260.513673 427.032 
L 246.999927 428.12064 
L 242.799709 428.8464 
L 234.947127 419.23008 
L 232.938327 408.70656 
L 235.312364 406.1664 
L 235.312364 406.1664 
" clip-path="url(#p5fa3ff47d2)" style="fill: none; stroke-dasharray: 5.55,2.4; stroke-dashoffset: 0; stroke: #008000; stroke-opacity: 0.7; stroke-width: 1.5"/>
   </g>
   <g id="line2d_26">
    <path d="M 81 77.76 
L 583.2 576.72 
" clip-path="url(#p5fa3ff47d2)" style="fill: none; stroke: #000000; stroke-width: 1.5; stroke-linecap: square"/>
   </g>
   <g id="line2d_27">
    <path d="M 81 554.04 
L 649 554.04 
" clip-path="url(#p5fa3ff47d2)" style="fill: none; stroke-dasharray: 9.6,2.4,1.5,2.4; stroke-dashoffset: 0; stroke: #000000; stroke-width: 1.5"/>
   </g>
   <g id="line2d_28">
    <path d="M 103.827273 576.72 
L 103.827273 -1 
" clip-path="url(#p5fa3ff47d2)" style="fill: none; stroke-dasharray: 9.6,2.4,1.5,2.4; stroke-dashoffset: 0; stroke: #000000; stroke-width: 1.5"/>
   </g>
   <g id="line2d_29">
    <path d="M 201.893236 469.85184 
L 207.189164 439.00704 
L 212.485091 407.43648 
L 238.964727 406.1664 
L 257.043927 424.49184 
L 274.392655 448.98624 
L 275.488364 463.68288 
L 243.347564 461.68704 
L 211.937236 443.54304 
L 202.988945 425.58048 
L 200.980145 409.7952 
L 211.572 398.18304 
L 224.172655 399.99744 
L 239.6952 402.90048 
L 256.861309 414.87552 
L 271.470764 433.56384 
L 260.148436 433.01952 
L 238.782109 424.49184 
L 231.66 414.3312 
L 233.120945 405.44064 
L 238.416873 405.62208 
L 240.608291 406.34784 
L 251.748 416.50848 
L 268.548873 425.03616 
L 269.096727 435.1968 
L 253.574182 436.82976 
L 227.6424 427.9392 
L 224.172655 412.87968 
L 228.920727 407.0736 
L 235.6776 405.44064 
L 246.634691 411.6096 
L 260.331055 427.39488 
L 265.992218 441.5472 
L 255.7656 441.91008 
L 230.016436 428.48352 
L 225.816218 417.77856 
L 229.833818 405.98496 
L 239.6952 405.98496 
L 251.382764 411.06528 
L 259.600582 417.0528 
L 255.582982 421.5888 
L 254.122036 421.77024 
L 251.565382 417.59712 
L 246.817309 417.23424 
L 255.7656 416.87136 
L 251.748 416.50848 
L 260.513673 425.58048 
L 266.722691 430.84224 
L 262.705091 430.47936 
L 243.895418 423.94752 
L 239.6952 425.94336 
L 241.156145 422.85888 
L 251.565382 424.12896 
L 255.582982 425.2176 
L 258.687491 426.85056 
L 257.957018 428.66496 
L 244.808509 424.67328 
L 230.746909 414.51264 
L 236.225455 413.424 
L 245.904218 408.70656 
L 255.400364 408.34368 
L 264.531273 418.68576 
L 266.174836 418.14144 
L 258.504873 419.95584 
L 256.861309 417.96 
L 253.208945 411.24672 
L 248.643491 413.78688 
L 254.669891 419.7744 
L 255.948218 424.85472 
L 253.208945 425.39904 
L 244.078036 414.51264 
L 243.7128 408.70656 
L 253.574182 406.89216 
L 261.244145 409.25088 
L 263.435564 419.41152 
L 260.148436 419.59296 
L 265.261745 428.12064 
L 272.931709 429.93504 
L 254.487273 423.22176 
L 240.608291 412.15392 
L 250.287055 408.34368 
L 268.731491 418.8672 
L 275.123127 428.48352 
L 259.235345 434.10816 
L 250.104436 433.92672 
L 244.991127 427.75776 
L 238.782109 416.87136 
L 242.982327 410.52096 
L 254.852509 412.15392 
L 263.983418 419.04864 
L 276.766691 429.39072 
L 279.140727 434.47104 
L 272.749091 437.19264 
L 258.139636 430.47936 
L 240.425673 416.87136 
L 224.355273 399.63456 
L 226.364073 386.38944 
L 241.886618 397.27584 
L 261.792 419.04864 
L 266.540073 438.46272 
L 254.669891 437.73696 
L 232.207855 427.032 
L 223.442182 414.14976 
L 223.259564 400.90464 
L 236.225455 392.01408 
L 246.452073 403.80768 
L 253.391564 413.06112 
L 243.347564 414.87552 
L 233.486182 418.68576 
L 239.877818 414.14976 
L 244.078036 411.42816 
L 242.982327 410.88384 
L 250.287055 416.68992 
L 258.687491 417.59712 
L 266.722691 423.76608 
L 255.7656 422.67744 
L 249.191345 421.04448 
L 252.661091 423.94752 
L 258.139636 425.94336 
L 256.130836 419.59296 
L 250.287055 421.04448 
L 256.313455 419.23008 
L 254.669891 416.32704 
L 253.939418 417.23424 
L 249.556582 421.95168 
L 254.122036 428.12064 
L 252.478473 423.22176 
L 250.287055 418.32288 
L 251.565382 411.97248 
L 250.652291 415.96416 
L 258.870109 424.49184 
L 267.270545 434.2896 
L 264.896509 442.4544 
L 252.113236 436.82976 
L 241.338764 425.76192 
L 234.216655 419.95584 
L 238.964727 415.2384 
L 244.625891 420.13728 
L 246.817309 421.04448 
L 250.104436 421.95168 
L 252.843709 422.496 
L 247.182545 424.3104 
L 242.799709 417.96 
L 236.042836 416.1456 
L 243.164945 417.96 
L 255.582982 427.032 
L 256.130836 430.29792 
L 249.373964 428.30208 
L 245.356364 425.39904 
L 246.999927 418.32288 
L 243.895418 408.34368 
L 253.391564 413.78688 
L 251.017527 408.52512 
L 248.095636 412.87968 
L 259.7832 423.94752 
L 265.444364 421.95168 
L 254.852509 425.03616 
L 238.782109 418.14144 
L 232.755709 406.34784 
L 236.773309 405.62208 
L 249.191345 414.69408 
L 265.079127 426.48768 
L 260.878909 436.28544 
L 251.200145 439.36992 
L 245.356364 431.02368 
L 225.085745 414.14976 
L 223.442182 403.62624 
L 237.321164 401.6304 
L 240.060436 401.99328 
L 246.086836 410.15808 
L 239.329964 411.42816 
L 225.450982 409.06944 
L 221.798618 405.2592 
L 234.764509 408.34368 
L 240.425673 413.24256 
L 246.269455 414.87552 
L 254.852509 419.04864 
L 257.226545 426.30624 
L 253.026327 421.77024 
L 242.434473 420.31872 
L 237.869018 416.68992 
L 245.173745 417.77856 
L 259.052727 422.67744 
L 258.139636 422.67744 
L 247.182545 420.13728 
L 245.904218 425.94336 
L 242.617091 426.48768 
L 248.460873 428.8464 
L 245.7216 414.51264 
L 239.329964 410.52096 
L 242.069236 415.41984 
L 253.391564 414.69408 
L 265.8096 418.14144 
L 272.018618 426.66912 
L 263.070327 424.3104 
L 249.191345 419.59296 
L 240.973527 411.79104 
L 236.955927 407.25504 
L 235.129745 401.99328 
L 235.129745 401.99328 
" clip-path="url(#p5fa3ff47d2)" style="fill: none; stroke-dasharray: 5.55,2.4; stroke-dashoffset: 0; stroke: #ffa500; stroke-opacity: 0.7; stroke-width: 1.5"/>
   </g>
   <g id="line2d_30">
    <path d="M 81 77.76 
L 583.2 576.72 
" clip-path="url(#p5fa3ff47d2)" style="fill: none; stroke: #000000; stroke-width: 1.5; stroke-linecap: square"/>
   </g>
   <g id="line2d_31">
    <path d="M 81 554.04 
L 649 554.04 
" clip-path="url(#p5fa3ff47d2)" style="fill: none; stroke-dasharray: 9.6,2.4,1.5,2.4; stroke-dashoffset: 0; stroke: #000000; stroke-width: 1.5"/>
   </g>
   <g id="line2d_32">
    <path d="M 103.827273 576.72 
L 103.827273 -1 
" clip-path="url(#p5fa3ff47d2)" style="fill: none; stroke-dasharray: 9.6,2.4,1.5,2.4; stroke-dashoffset: 0; stroke: #000000; stroke-width: 1.5"/>
   </g>
   <g id="line2d_33">
    <path d="M 241.886618 418.68576 
L 266.357455 394.00992 
L 289.002109 396.36864 
L 317.855782 431.568 
L 331.004291 476.56512 
L 294.845891 490.536 
L 240.060436 484.72992 
L 203.902036 469.12608 
L 187.649018 449.53056 
L 178.335491 419.59296 
L 179.4312 398.18304 
L 192.214473 382.94208 
L 203.5368 371.32992 
L 220.885527 382.76064 
L 246.086836 408.34368 
L 262.887709 423.04032 
L 252.843709 426.1248 
L 246.817309 422.13312 
L 249.7392 421.22592 
L 249.373964 415.78272 
L 248.826109 422.31456 
L 247.7304 422.13312 
L 241.886618 420.13728 
L 239.6952 421.95168 
L 246.999927 429.7536 
L 245.904218 429.57216 
L 241.704 422.31456 
L 232.755709 415.41984 
L 232.755709 407.25504 
L 233.6688 402.5376 
L 240.973527 411.06528 
L 258.504873 421.40736 
L 256.861309 422.67744 
L 253.391564 427.75776 
L 249.373964 421.5888 
L 251.565382 423.22176 
L 255.400364 422.67744 
L 244.991127 420.13728 
L 244.260655 414.69408 
L 247.913018 408.888 
L 250.469673 410.52096 
L 260.331055 414.14976 
L 264.348655 426.85056 
L 261.792 431.02368 
L 244.443273 426.66912 
L 229.6512 417.0528 
L 231.294764 417.59712 
L 249.556582 421.22592 
L 264.166036 430.84224 
L 266.357455 433.56384 
L 246.269455 427.032 
L 241.156145 417.0528 
L 237.321164 406.52928 
L 238.416873 404.352 
L 249.191345 406.71072 
L 255.400364 406.34784 
L 252.478473 412.5168 
L 257.591782 419.23008 
L 266.905309 430.29792 
L 267.087927 433.56384 
L 247.547782 427.21344 
L 239.147345 415.41984 
L 245.173745 408.34368 
L 238.051636 398.72736 
L 245.356364 406.52928 
L 258.687491 416.87136 
L 263.070327 428.66496 
L 260.148436 433.74528 
L 246.452073 430.84224 
L 228.738109 421.40736 
L 227.094545 408.888 
L 239.512582 409.61376 
L 245.7216 410.15808 
L 249.373964 415.96416 
L 267.453164 428.66496 
L 265.079127 432.4752 
L 243.530182 424.12896 
L 221.798618 411.24672 
L 223.807418 405.44064 
L 238.599491 409.25088 
L 253.939418 415.05696 
L 263.252945 424.12896 
L 260.513673 426.66912 
L 251.382764 416.32704 
L 247.182545 415.05696 
L 266.174836 419.95584 
L 273.479564 429.39072 
L 268.366255 427.57632 
L 253.391564 423.4032 
L 244.443273 417.59712 
L 247.913018 415.41984 
L 255.217745 416.87136 
L 248.095636 415.41984 
L 246.086836 419.41152 
L 251.748 424.3104 
L 256.130836 434.83392 
L 247.182545 428.48352 
L 237.503782 422.31456 
L 237.503782 412.5168 
L 239.877818 405.07776 
L 235.312364 403.98912 
L 235.860218 397.82016 
L 246.269455 410.88384 
L 258.322255 419.95584 
L 261.792 428.48352 
L 259.7832 434.47104 
L 252.478473 431.20512 
L 238.416873 423.58464 
L 230.746909 415.41984 
L 245.356364 417.96 
L 253.939418 421.40736 
L 250.652291 415.78272 
L 246.999927 413.424 
L 249.921818 421.5888 
L 249.191345 417.96 
L 251.017527 418.8672 
L 249.191345 417.0528 
L 252.843709 415.60128 
L 268.183636 425.94336 
L 264.713891 425.94336 
L 256.496073 423.58464 
L 256.861309 423.4032 
L 243.7128 417.23424 
L 237.321164 411.97248 
L 246.817309 414.14976 
L 250.469673 418.14144 
L 249.373964 418.50432 
L 245.173745 412.69824 
L 240.608291 405.2592 
L 251.565382 415.78272 
L 257.043927 418.32288 
L 247.547782 419.59296 
L 239.6952 413.424 
L 239.329964 407.43648 
L 243.7128 404.89632 
L 247.7304 408.52512 
L 248.095636 413.424 
L 244.991127 409.61376 
L 246.452073 409.97664 
L 255.400364 417.96 
L 258.504873 425.2176 
L 254.487273 424.85472 
L 246.817309 423.04032 
L 239.512582 414.87552 
L 254.852509 420.13728 
L 261.609382 425.94336 
L 254.122036 428.30208 
L 249.921818 425.76192 
L 255.217745 422.85888 
L 247.913018 418.14144 
L 248.643491 419.59296 
L 251.565382 422.85888 
L 257.591782 427.57632 
L 257.957018 429.20928 
L 246.634691 425.39904 
L 233.120945 413.96832 
L 232.755709 409.7952 
L 241.886618 412.33536 
L 249.921818 417.41568 
L 249.556582 422.67744 
L 241.338764 425.76192 
L 232.207855 422.67744 
L 229.6512 420.50016 
L 229.833818 415.41984 
L 233.851418 411.97248 
L 243.895418 414.51264 
L 255.035127 412.87968 
L 265.261745 423.4032 
L 255.400364 423.22176 
L 245.173745 422.31456 
L 258.322255 429.7536 
L 254.487273 428.12064 
L 238.782109 425.58048 
L 232.938327 416.32704 
L 244.625891 417.23424 
L 250.469673 423.58464 
L 246.269455 424.85472 
L 238.964727 420.6816 
L 240.060436 416.50848 
L 253.208945 419.23008 
L 253.574182 416.87136 
L 242.617091 411.06528 
L 229.833818 397.0944 
L 231.477382 400.36032 
L 253.939418 409.43232 
L 265.626982 423.04032 
L 261.974618 437.0112 
L 250.652291 432.83808 
L 233.6688 420.31872 
L 224.537891 402.90048 
L 232.207855 399.09024 
L 249.556582 409.7952 
L 255.400364 413.06112 
L 258.504873 424.85472 
L 258.504873 434.10816 
L 245.538982 428.8464 
L 236.773309 423.76608 
L 242.069236 416.50848 
L 250.652291 413.78688 
L 250.652291 413.78688 
" clip-path="url(#p5fa3ff47d2)" style="fill: none; stroke-dasharray: 5.55,2.4; stroke-dashoffset: 0; stroke: #800080; stroke-opacity: 0.7; stroke-width: 1.5"/>
   </g>
   <g id="line2d_34">
    <path d="M 81 77.76 
L 583.2 576.72 
" clip-path="url(#p5fa3ff47d2)" style="fill: none; stroke: #000000; stroke-width: 1.5; stroke-linecap: square"/>
   </g>
   <g id="line2d_35">
    <path d="M 81 554.04 
L 649 554.04 
" clip-path="url(#p5fa3ff47d2)" style="fill: none; stroke-dasharray: 9.6,2.4,1.5,2.4; stroke-dashoffset: 0; stroke: #000000; stroke-width: 1.5"/>
   </g>
   <g id="line2d_36">
    <path d="M 103.827273 576.72 
L 103.827273 -1 
" clip-path="url(#p5fa3ff47d2)" style="fill: none; stroke-dasharray: 9.6,2.4,1.5,2.4; stroke-dashoffset: 0; stroke: #000000; stroke-width: 1.5"/>
   </g>
   <g id="line2d_37">
    <path d="M 283.8888 368.064 
L 318.403636 383.12352 
L 353.831564 429.93504 
L 355.109891 474.75072 
L 304.889891 493.62048 
L 234.399273 483.82272 
L 194.405891 461.14272 
L 187.4664 437.9184 
L 188.379491 419.04864 
L 199.336582 407.79936 
L 216.320073 405.07776 
L 227.825018 413.24256 
L 242.251855 422.13312 
L 252.661091 429.57216 
L 260.878909 439.91424 
L 252.843709 434.65248 
L 244.808509 430.47936 
L 232.573091 417.59712 
L 226.546691 409.97664 
L 231.477382 411.06528 
L 245.173745 413.60544 
L 255.035127 419.59296 
L 265.444364 425.2176 
L 260.331055 427.9392 
L 246.817309 422.67744 
L 240.608291 412.69824 
L 241.704 411.06528 
L 254.852509 418.14144 
L 257.7744 423.94752 
L 255.582982 429.02784 
L 244.991127 428.48352 
L 245.356364 425.58048 
L 247.182545 419.23008 
L 251.017527 416.1456 
L 261.792 424.12896 
L 253.7568 419.23008 
L 246.086836 419.23008 
L 245.173745 414.14976 
L 247.182545 416.50848 
L 249.556582 416.68992 
L 246.452073 411.6096 
L 250.287055 406.34784 
L 255.582982 409.25088 
L 261.792 412.87968 
L 269.096727 418.50432 
L 274.027418 427.39488 
L 278.775491 433.01952 
L 265.079127 429.39072 
L 254.122036 421.5888 
L 243.895418 418.50432 
L 248.643491 418.14144 
L 244.625891 415.60128 
L 236.042836 408.16224 
L 228.555491 403.4448 
L 240.608291 407.25504 
L 262.157236 422.13312 
L 264.531273 426.30624 
L 255.035127 430.84224 
L 252.843709 429.20928 
L 250.834909 423.04032 
L 243.164945 419.23008 
L 239.512582 414.3312 
L 237.869018 406.89216 
L 233.303564 410.15808 
L 242.434473 414.3312 
L 245.173745 413.424 
L 248.095636 412.87968 
L 247.913018 407.79936 
L 256.861309 414.87552 
L 253.026327 418.68576 
L 259.052727 425.03616 
L 263.983418 427.21344 
L 255.035127 426.85056 
L 245.7216 421.5888 
L 241.886618 418.8672 
L 248.460873 423.22176 
L 244.443273 420.6816 
L 241.156145 415.2384 
L 249.008727 421.5888 
L 245.173745 421.22592 
L 238.599491 415.78272 
L 236.225455 417.0528 
L 245.356364 421.04448 
L 253.939418 424.12896 
L 243.347564 413.424 
L 233.120945 413.06112 
L 247.365164 418.8672 
L 262.339855 426.66912 
L 264.896509 435.1968 
L 255.400364 440.45856 
L 243.164945 436.28544 
L 232.207855 415.96416 
L 232.025236 406.1664 
L 247.547782 409.97664 
L 270.192436 420.50016 
L 273.8448 434.2896 
L 261.061527 436.104 
L 245.356364 430.6608 
L 233.6688 419.95584 
L 233.303564 411.79104 
L 238.234255 407.0736 
L 249.008727 411.06528 
L 257.226545 416.87136 
L 257.957018 418.68576 
L 257.226545 424.12896 
L 254.122036 425.76192 
L 253.574182 429.93504 
L 251.930618 426.85056 
L 237.503782 408.888 
L 235.312364 405.98496 
L 246.999927 410.52096 
L 256.678691 415.96416 
L 259.417964 419.04864 
L 253.391564 422.85888 
L 253.208945 424.67328 
L 249.7392 420.13728 
L 239.512582 406.34784 
L 230.381673 403.62624 
L 234.216655 400.7232 
L 238.234255 402.71904 
L 253.7568 414.69408 
L 270.009818 427.032 
L 278.227636 431.568 
L 262.887709 428.30208 
L 249.191345 423.4032 
L 249.556582 420.13728 
L 248.278255 408.70656 
L 240.060436 406.52928 
L 246.634691 409.97664 
L 250.834909 416.1456 
L 258.139636 423.04032 
L 255.7656 424.67328 
L 249.191345 424.67328 
L 245.538982 421.5888 
L 243.530182 417.96 
L 249.008727 412.69824 
L 253.391564 415.96416 
L 262.705091 421.5888 
L 273.296945 433.56384 
L 263.983418 432.11232 
L 254.487273 431.38656 
L 246.269455 423.04032 
L 243.164945 422.13312 
L 247.547782 424.49184 
L 243.530182 419.59296 
L 239.6952 414.3312 
L 232.207855 406.1664 
L 238.782109 405.62208 
L 251.200145 413.78688 
L 262.887709 424.3104 
L 270.922909 435.74112 
L 256.861309 433.92672 
L 242.069236 425.58048 
L 237.869018 411.79104 
L 236.955927 401.26752 
L 237.6864 406.89216 
L 251.200145 419.23008 
L 260.696291 423.22176 
L 255.7656 428.30208 
L 246.634691 427.21344 
L 249.373964 425.58048 
L 248.460873 419.41152 
L 248.095636 421.40736 
L 254.304655 422.85888 
L 247.365164 421.22592 
L 236.590691 413.78688 
L 231.112145 408.70656 
L 239.329964 403.26336 
L 251.930618 410.52096 
L 262.339855 415.60128 
L 265.992218 421.22592 
L 255.582982 423.76608 
L 243.347564 418.68576 
L 244.443273 415.05696 
L 239.147345 409.97664 
L 240.608291 410.33952 
L 255.7656 419.95584 
L 258.687491 425.58048 
L 246.817309 417.41568 
L 250.104436 419.7744 
L 262.887709 414.69408 
L 265.992218 426.85056 
L 265.261745 438.09984 
L 249.556582 440.45856 
L 235.6776 425.39904 
L 224.172655 414.51264 
L 227.825018 401.99328 
L 235.6776 401.81184 
L 256.130836 404.17056 
L 268.001018 415.05696 
L 264.713891 422.85888 
L 262.339855 425.94336 
L 253.7568 420.31872 
L 245.904218 421.22592 
L 244.078036 418.50432 
L 247.365164 417.59712 
L 242.434473 415.78272 
L 242.617091 416.68992 
L 242.251855 410.7024 
L 242.251855 410.7024 
" clip-path="url(#p5fa3ff47d2)" style="fill: none; stroke-dasharray: 5.55,2.4; stroke-dashoffset: 0; stroke: #a52a2a; stroke-opacity: 0.7; stroke-width: 1.5"/>
   </g>
   <g id="line2d_38">
    <path d="M 81 77.76 
L 583.2 576.72 
" clip-path="url(#p5fa3ff47d2)" style="fill: none; stroke: #000000; stroke-width: 1.5; stroke-linecap: square"/>
   </g>
   <g id="line2d_39">
    <path d="M 81 554.04 
L 649 554.04 
" clip-path="url(#p5fa3ff47d2)" style="fill: none; stroke-dasharray: 9.6,2.4,1.5,2.4; stroke-dashoffset: 0; stroke: #000000; stroke-width: 1.5"/>
   </g>
   <g id="line2d_40">
    <path d="M 103.827273 576.72 
L 103.827273 -1 
" clip-path="url(#p5fa3ff47d2)" style="fill: none; stroke-dasharray: 9.6,2.4,1.5,2.4; stroke-dashoffset: 0; stroke: #000000; stroke-width: 1.5"/>
   </g>
   <g id="patch_3">
    <path d="M 81 576.72 
L 81 77.76 
" style="fill: none; stroke: #000000; stroke-width: 0.8; stroke-linejoin: miter; stroke-linecap: square"/>
   </g>
   <g id="patch_4">
    <path d="M 583.2 576.72 
L 583.2 77.76 
" style="fill: none; stroke: #000000; stroke-width: 0.8; stroke-linejoin: miter; stroke-linecap: square"/>
   </g>
   <g id="patch_5">
    <path d="M 81 576.72 
L 583.2 576.72 
" style="fill: none; stroke: #000000; stroke-width: 0.8; stroke-linejoin: miter; stroke-linecap: square"/>
   </g>
   <g id="patch_6">
    <path d="M 81 77.76 
L 583.2 77.76 
" style="fill: none; stroke: #000000; stroke-width: 0.8; stroke-linejoin: miter; stroke-linecap: square"/>
   </g>
   <g id="text_15">
    <!-- Phase diagram with a ratio of 1.0 predator to prey -->
    <g transform="translate(181.29375 71.76) scale(0.12 -0.12)">
     <defs>
      <path id="DejaVuSans-68" d="M 3513 2113 
L 3513 0 
L 2938 0 
L 2938 2094 
Q 2938 2591 2744 2837 
Q 2550 3084 2163 3084 
Q 1697 3084 1428 2787 
Q 1159 2491 1159 1978 
L 1159 0 
L 581 0 
L 581 4863 
L 1159 4863 
L 1159 2956 
Q 1366 3272 1645 3428 
Q 1925 3584 2291 3584 
Q 2894 3584 3203 3211 
Q 3513 2838 3513 2113 
z
" transform="scale(0.015625)"/>
      <path id="DejaVuSans-73" d="M 2834 3397 
L 2834 2853 
Q 2591 2978 2328 3040 
Q 2066 3103 1784 3103 
Q 1356 3103 1142 2972 
Q 928 2841 928 2578 
Q 928 2378 1081 2264 
Q 1234 2150 1697 2047 
L 1894 2003 
Q 2506 1872 2764 1633 
Q 3022 1394 3022 966 
Q 3022 478 2636 193 
Q 2250 -91 1575 -91 
Q 1294 -91 989 -36 
Q 684 19 347 128 
L 347 722 
Q 666 556 975 473 
Q 1284 391 1588 391 
Q 1994 391 2212 530 
Q 2431 669 2431 922 
Q 2431 1156 2273 1281 
Q 2116 1406 1581 1522 
L 1381 1569 
Q 847 1681 609 1914 
Q 372 2147 372 2553 
Q 372 3047 722 3315 
Q 1072 3584 1716 3584 
Q 2034 3584 2315 3537 
Q 2597 3491 2834 3397 
z
" transform="scale(0.015625)"/>
      <path id="DejaVuSans-67" d="M 2906 1791 
Q 2906 2416 2648 2759 
Q 2391 3103 1925 3103 
Q 1463 3103 1205 2759 
Q 947 2416 947 1791 
Q 947 1169 1205 825 
Q 1463 481 1925 481 
Q 2391 481 2648 825 
Q 2906 1169 2906 1791 
z
M 3481 434 
Q 3481 -459 3084 -895 
Q 2688 -1331 1869 -1331 
Q 1566 -1331 1297 -1286 
Q 1028 -1241 775 -1147 
L 775 -588 
Q 1028 -725 1275 -790 
Q 1522 -856 1778 -856 
Q 2344 -856 2625 -561 
Q 2906 -266 2906 331 
L 2906 616 
Q 2728 306 2450 153 
Q 2172 0 1784 0 
Q 1141 0 747 490 
Q 353 981 353 1791 
Q 353 2603 747 3093 
Q 1141 3584 1784 3584 
Q 2172 3584 2450 3431 
Q 2728 3278 2906 2969 
L 2906 3500 
L 3481 3500 
L 3481 434 
z
" transform="scale(0.015625)"/>
      <path id="DejaVuSans-6d" d="M 3328 2828 
Q 3544 3216 3844 3400 
Q 4144 3584 4550 3584 
Q 5097 3584 5394 3201 
Q 5691 2819 5691 2113 
L 5691 0 
L 5113 0 
L 5113 2094 
Q 5113 2597 4934 2840 
Q 4756 3084 4391 3084 
Q 3944 3084 3684 2787 
Q 3425 2491 3425 1978 
L 3425 0 
L 2847 0 
L 2847 2094 
Q 2847 2600 2669 2842 
Q 2491 3084 2119 3084 
Q 1678 3084 1418 2786 
Q 1159 2488 1159 1978 
L 1159 0 
L 581 0 
L 581 3500 
L 1159 3500 
L 1159 2956 
Q 1356 3278 1631 3431 
Q 1906 3584 2284 3584 
Q 2666 3584 2933 3390 
Q 3200 3197 3328 2828 
z
" transform="scale(0.015625)"/>
      <path id="DejaVuSans-77" d="M 269 3500 
L 844 3500 
L 1563 769 
L 2278 3500 
L 2956 3500 
L 3675 769 
L 4391 3500 
L 4966 3500 
L 4050 0 
L 3372 0 
L 2619 2869 
L 1863 0 
L 1184 0 
L 269 3500 
z
" transform="scale(0.015625)"/>
      <path id="DejaVuSans-66" d="M 2375 4863 
L 2375 4384 
L 1825 4384 
Q 1516 4384 1395 4259 
Q 1275 4134 1275 3809 
L 1275 3500 
L 2222 3500 
L 2222 3053 
L 1275 3053 
L 1275 0 
L 697 0 
L 697 3053 
L 147 3053 
L 147 3500 
L 697 3500 
L 697 3744 
Q 697 4328 969 4595 
Q 1241 4863 1831 4863 
L 2375 4863 
z
" transform="scale(0.015625)"/>
      <path id="DejaVuSans-2e" d="M 684 794 
L 1344 794 
L 1344 0 
L 684 0 
L 684 794 
z
" transform="scale(0.015625)"/>
     </defs>
     <use xlink:href="#DejaVuSans-50"/>
     <use xlink:href="#DejaVuSans-68" x="60.302734"/>
     <use xlink:href="#DejaVuSans-61" x="123.681641"/>
     <use xlink:href="#DejaVuSans-73" x="184.960938"/>
     <use xlink:href="#DejaVuSans-65" x="237.060547"/>
     <use xlink:href="#DejaVuSans-20" x="298.583984"/>
     <use xlink:href="#DejaVuSans-64" x="330.371094"/>
     <use xlink:href="#DejaVuSans-69" x="393.847656"/>
     <use xlink:href="#DejaVuSans-61" x="421.630859"/>
     <use xlink:href="#DejaVuSans-67" x="482.910156"/>
     <use xlink:href="#DejaVuSans-72" x="546.386719"/>
     <use xlink:href="#DejaVuSans-61" x="587.5"/>
     <use xlink:href="#DejaVuSans-6d" x="648.779297"/>
     <use xlink:href="#DejaVuSans-20" x="746.191406"/>
     <use xlink:href="#DejaVuSans-77" x="777.978516"/>
     <use xlink:href="#DejaVuSans-69" x="859.765625"/>
     <use xlink:href="#DejaVuSans-74" x="887.548828"/>
     <use xlink:href="#DejaVuSans-68" x="926.757812"/>
     <use xlink:href="#DejaVuSans-20" x="990.136719"/>
     <use xlink:href="#DejaVuSans-61" x="1021.923828"/>
     <use xlink:href="#DejaVuSans-20" x="1083.203125"/>
     <use xlink:href="#DejaVuSans-72" x="1114.990234"/>
     <use xlink:href="#DejaVuSans-61" x="1156.103516"/>
     <use xlink:href="#DejaVuSans-74" x="1217.382812"/>
     <use xlink:href="#DejaVuSans-69" x="1256.591797"/>
     <use xlink:href="#DejaVuSans-6f" x="1284.375"/>
     <use xlink:href="#DejaVuSans-20" x="1345.556641"/>
     <use xlink:href="#DejaVuSans-6f" x="1377.34375"/>
     <use xlink:href="#DejaVuSans-66" x="1438.525391"/>
     <use xlink:href="#DejaVuSans-20" x="1473.730469"/>
     <use xlink:href="#DejaVuSans-31" x="1505.517578"/>
     <use xlink:href="#DejaVuSans-2e" x="1569.140625"/>
     <use xlink:href="#DejaVuSans-30" x="1600.927734"/>
     <use xlink:href="#DejaVuSans-20" x="1664.550781"/>
     <use xlink:href="#DejaVuSans-70" x="1696.337891"/>
     <use xlink:href="#DejaVuSans-72" x="1759.814453"/>
     <use xlink:href="#DejaVuSans-65" x="1798.677734"/>
     <use xlink:href="#DejaVuSans-64" x="1860.201172"/>
     <use xlink:href="#DejaVuSans-61" x="1923.677734"/>
     <use xlink:href="#DejaVuSans-74" x="1984.957031"/>
     <use xlink:href="#DejaVuSans-6f" x="2024.166016"/>
     <use xlink:href="#DejaVuSans-72" x="2085.347656"/>
     <use xlink:href="#DejaVuSans-20" x="2126.460938"/>
     <use xlink:href="#DejaVuSans-74" x="2158.248047"/>
     <use xlink:href="#DejaVuSans-6f" x="2197.457031"/>
     <use xlink:href="#DejaVuSans-20" x="2258.638672"/>
     <use xlink:href="#DejaVuSans-70" x="2290.425781"/>
     <use xlink:href="#DejaVuSans-72" x="2353.902344"/>
     <use xlink:href="#DejaVuSans-65" x="2392.765625"/>
     <use xlink:href="#DejaVuSans-79" x="2454.289062"/>
    </g>
   </g>
  </g>
 </g>
 <defs>
  <clipPath id="p5fa3ff47d2">
   <rect x="81" y="77.76" width="502.2" height="498.96"/>
  </clipPath>
 </defs>
</svg>
