<?xml version="1.0" encoding="utf-8" standalone="no"?>
<!DOCTYPE svg PUBLIC "-//W3C//DTD SVG 1.1//EN"
  "http://www.w3.org/Graphics/SVG/1.1/DTD/svg11.dtd">
<svg xmlns:xlink="http://www.w3.org/1999/xlink" width="648pt" height="648pt" viewBox="0 0 648 648" xmlns="http://www.w3.org/2000/svg" version="1.1">
 <metadata>
  <rdf:RDF xmlns:dc="http://purl.org/dc/elements/1.1/" xmlns:cc="http://creativecommons.org/ns#" xmlns:rdf="http://www.w3.org/1999/02/22-rdf-syntax-ns#">
   <cc:Work>
    <dc:type rdf:resource="http://purl.org/dc/dcmitype/StillImage"/>
    <dc:date>2025-06-09T12:54:21.622280</dc:date>
    <dc:format>image/svg+xml</dc:format>
    <dc:creator>
     <cc:Agent>
      <dc:title>Matplotlib v3.7.0, https://matplotlib.org/</dc:title>
     </cc:Agent>
    </dc:creator>
   </cc:Work>
  </rdf:RDF>
 </metadata>
 <defs>
  <style type="text/css">*{stroke-linejoin: round; stroke-linecap: butt}</style>
 </defs>
 <g id="figure_1">
  <g id="patch_1">
   <path d="M 0 648 
L 648 648 
L 648 0 
L 0 0 
z
" style="fill: #ffffff"/>
  </g>
  <g id="axes_1">
   <g id="patch_2">
    <path d="M 81 576.72 
L 583.2 576.72 
L 583.2 77.76 
L 81 77.76 
z
" style="fill: #ffffff"/>
   </g>
   <g id="PathCollection_1">
    <defs>
     <path id="med360582ae" d="M -3.535534 3.535534 
L 3.535534 3.535534 
L 3.535534 -3.535534 
L -3.535534 -3.535534 
z
" style="stroke: #0000ff"/>
    </defs>
    <g clip-path="url(#p61ed1436af)">
     <use xlink:href="#med360582ae" x="201.893236" y="469.85184" style="fill: #0000ff; stroke: #0000ff"/>
    </g>
   </g>
   <g id="PathCollection_2">
    <defs>
     <path id="m25d32b95df" d="M -3.535534 3.535534 
L 3.535534 3.535534 
L 3.535534 -3.535534 
L -3.535534 -3.535534 
z
" style="stroke: #ff0000"/>
    </defs>
    <g clip-path="url(#p61ed1436af)">
     <use xlink:href="#m25d32b95df" x="282.062618" y="335.04192" style="fill: #ff0000; stroke: #ff0000"/>
    </g>
   </g>
   <g id="PathCollection_3">
    <g clip-path="url(#p61ed1436af)">
     <use xlink:href="#med360582ae" x="201.893236" y="469.85184" style="fill: #0000ff; stroke: #0000ff"/>
    </g>
   </g>
   <g id="PathCollection_4">
    <g clip-path="url(#p61ed1436af)">
     <use xlink:href="#m25d32b95df" x="334.474036" y="416.50848" style="fill: #ff0000; stroke: #ff0000"/>
    </g>
   </g>
   <g id="matplotlib.axis_1">
    <g id="xtick_1">
     <g id="line2d_1">
      <path d="M 103.827273 576.72 
L 103.827273 77.76 
" clip-path="url(#p61ed1436af)" style="fill: none; stroke: #b0b0b0; stroke-width: 0.1; stroke-linecap: square"/>
     </g>
     <g id="line2d_2">
      <defs>
       <path id="m7b9d9ecd23" d="M 0 0 
L 0 3.5 
" style="stroke: #000000; stroke-width: 0.8"/>
      </defs>
      <g>
       <use xlink:href="#m7b9d9ecd23" x="103.827273" y="576.72" style="stroke: #000000; stroke-width: 0.8"/>
      </g>
     </g>
     <g id="text_1">
      <!-- 0 -->
      <g transform="translate(100.646023 591.318438) scale(0.1 -0.1)">
       <defs>
        <path id="DejaVuSans-30" d="M 2034 4250 
Q 1547 4250 1301 3770 
Q 1056 3291 1056 2328 
Q 1056 1369 1301 889 
Q 1547 409 2034 409 
Q 2525 409 2770 889 
Q 3016 1369 3016 2328 
Q 3016 3291 2770 3770 
Q 2525 4250 2034 4250 
z
M 2034 4750 
Q 2819 4750 3233 4129 
Q 3647 3509 3647 2328 
Q 3647 1150 3233 529 
Q 2819 -91 2034 -91 
Q 1250 -91 836 529 
Q 422 1150 422 2328 
Q 422 3509 836 4129 
Q 1250 4750 2034 4750 
z
" transform="scale(0.015625)"/>
       </defs>
       <use xlink:href="#DejaVuSans-30"/>
      </g>
     </g>
    </g>
    <g id="xtick_2">
     <g id="line2d_3">
      <path d="M 195.136364 576.72 
L 195.136364 77.76 
" clip-path="url(#p61ed1436af)" style="fill: none; stroke: #b0b0b0; stroke-width: 0.1; stroke-linecap: square"/>
     </g>
     <g id="line2d_4">
      <g>
       <use xlink:href="#m7b9d9ecd23" x="195.136364" y="576.72" style="stroke: #000000; stroke-width: 0.8"/>
      </g>
     </g>
     <g id="text_2">
      <!-- 500 -->
      <g transform="translate(185.592614 591.318438) scale(0.1 -0.1)">
       <defs>
        <path id="DejaVuSans-35" d="M 691 4666 
L 3169 4666 
L 3169 4134 
L 1269 4134 
L 1269 2991 
Q 1406 3038 1543 3061 
Q 1681 3084 1819 3084 
Q 2600 3084 3056 2656 
Q 3513 2228 3513 1497 
Q 3513 744 3044 326 
Q 2575 -91 1722 -91 
Q 1428 -91 1123 -41 
Q 819 9 494 109 
L 494 744 
Q 775 591 1075 516 
Q 1375 441 1709 441 
Q 2250 441 2565 725 
Q 2881 1009 2881 1497 
Q 2881 1984 2565 2268 
Q 2250 2553 1709 2553 
Q 1456 2553 1204 2497 
Q 953 2441 691 2322 
L 691 4666 
z
" transform="scale(0.015625)"/>
       </defs>
       <use xlink:href="#DejaVuSans-35"/>
       <use xlink:href="#DejaVuSans-30" x="63.623047"/>
       <use xlink:href="#DejaVuSans-30" x="127.246094"/>
      </g>
     </g>
    </g>
    <g id="xtick_3">
     <g id="line2d_5">
      <path d="M 286.445455 576.72 
L 286.445455 77.76 
" clip-path="url(#p61ed1436af)" style="fill: none; stroke: #b0b0b0; stroke-width: 0.1; stroke-linecap: square"/>
     </g>
     <g id="line2d_6">
      <g>
       <use xlink:href="#m7b9d9ecd23" x="286.445455" y="576.72" style="stroke: #000000; stroke-width: 0.8"/>
      </g>
     </g>
     <g id="text_3">
      <!-- 1000 -->
      <g transform="translate(273.720455 591.318438) scale(0.1 -0.1)">
       <defs>
        <path id="DejaVuSans-31" d="M 794 531 
L 1825 531 
L 1825 4091 
L 703 3866 
L 703 4441 
L 1819 4666 
L 2450 4666 
L 2450 531 
L 3481 531 
L 3481 0 
L 794 0 
L 794 531 
z
" transform="scale(0.015625)"/>
       </defs>
       <use xlink:href="#DejaVuSans-31"/>
       <use xlink:href="#DejaVuSans-30" x="63.623047"/>
       <use xlink:href="#DejaVuSans-30" x="127.246094"/>
       <use xlink:href="#DejaVuSans-30" x="190.869141"/>
      </g>
     </g>
    </g>
    <g id="xtick_4">
     <g id="line2d_7">
      <path d="M 377.754545 576.72 
L 377.754545 77.76 
" clip-path="url(#p61ed1436af)" style="fill: none; stroke: #b0b0b0; stroke-width: 0.1; stroke-linecap: square"/>
     </g>
     <g id="line2d_8">
      <g>
       <use xlink:href="#m7b9d9ecd23" x="377.754545" y="576.72" style="stroke: #000000; stroke-width: 0.8"/>
      </g>
     </g>
     <g id="text_4">
      <!-- 1500 -->
      <g transform="translate(365.029545 591.318438) scale(0.1 -0.1)">
       <use xlink:href="#DejaVuSans-31"/>
       <use xlink:href="#DejaVuSans-35" x="63.623047"/>
       <use xlink:href="#DejaVuSans-30" x="127.246094"/>
       <use xlink:href="#DejaVuSans-30" x="190.869141"/>
      </g>
     </g>
    </g>
    <g id="xtick_5">
     <g id="line2d_9">
      <path d="M 469.063636 576.72 
L 469.063636 77.76 
" clip-path="url(#p61ed1436af)" style="fill: none; stroke: #b0b0b0; stroke-width: 0.1; stroke-linecap: square"/>
     </g>
     <g id="line2d_10">
      <g>
       <use xlink:href="#m7b9d9ecd23" x="469.063636" y="576.72" style="stroke: #000000; stroke-width: 0.8"/>
      </g>
     </g>
     <g id="text_5">
      <!-- 2000 -->
      <g transform="translate(456.338636 591.318438) scale(0.1 -0.1)">
       <defs>
        <path id="DejaVuSans-32" d="M 1228 531 
L 3431 531 
L 3431 0 
L 469 0 
L 469 531 
Q 828 903 1448 1529 
Q 2069 2156 2228 2338 
Q 2531 2678 2651 2914 
Q 2772 3150 2772 3378 
Q 2772 3750 2511 3984 
Q 2250 4219 1831 4219 
Q 1534 4219 1204 4116 
Q 875 4013 500 3803 
L 500 4441 
Q 881 4594 1212 4672 
Q 1544 4750 1819 4750 
Q 2544 4750 2975 4387 
Q 3406 4025 3406 3419 
Q 3406 3131 3298 2873 
Q 3191 2616 2906 2266 
Q 2828 2175 2409 1742 
Q 1991 1309 1228 531 
z
" transform="scale(0.015625)"/>
       </defs>
       <use xlink:href="#DejaVuSans-32"/>
       <use xlink:href="#DejaVuSans-30" x="63.623047"/>
       <use xlink:href="#DejaVuSans-30" x="127.246094"/>
       <use xlink:href="#DejaVuSans-30" x="190.869141"/>
      </g>
     </g>
    </g>
    <g id="xtick_6">
     <g id="line2d_11">
      <path d="M 560.372727 576.72 
L 560.372727 77.76 
" clip-path="url(#p61ed1436af)" style="fill: none; stroke: #b0b0b0; stroke-width: 0.1; stroke-linecap: square"/>
     </g>
     <g id="line2d_12">
      <g>
       <use xlink:href="#m7b9d9ecd23" x="560.372727" y="576.72" style="stroke: #000000; stroke-width: 0.8"/>
      </g>
     </g>
     <g id="text_6">
      <!-- 2500 -->
      <g transform="translate(547.647727 591.318438) scale(0.1 -0.1)">
       <use xlink:href="#DejaVuSans-32"/>
       <use xlink:href="#DejaVuSans-35" x="63.623047"/>
       <use xlink:href="#DejaVuSans-30" x="127.246094"/>
       <use xlink:href="#DejaVuSans-30" x="190.869141"/>
      </g>
     </g>
    </g>
    <g id="text_7">
     <!-- Predator population -->
     <g transform="translate(282.64375 604.996562) scale(0.1 -0.1)">
      <defs>
       <path id="DejaVuSans-50" d="M 1259 4147 
L 1259 2394 
L 2053 2394 
Q 2494 2394 2734 2622 
Q 2975 2850 2975 3272 
Q 2975 3691 2734 3919 
Q 2494 4147 2053 4147 
L 1259 4147 
z
M 628 4666 
L 2053 4666 
Q 2838 4666 3239 4311 
Q 3641 3956 3641 3272 
Q 3641 2581 3239 2228 
Q 2838 1875 2053 1875 
L 1259 1875 
L 1259 0 
L 628 0 
L 628 4666 
z
" transform="scale(0.015625)"/>
       <path id="DejaVuSans-72" d="M 2631 2963 
Q 2534 3019 2420 3045 
Q 2306 3072 2169 3072 
Q 1681 3072 1420 2755 
Q 1159 2438 1159 1844 
L 1159 0 
L 581 0 
L 581 3500 
L 1159 3500 
L 1159 2956 
Q 1341 3275 1631 3429 
Q 1922 3584 2338 3584 
Q 2397 3584 2469 3576 
Q 2541 3569 2628 3553 
L 2631 2963 
z
" transform="scale(0.015625)"/>
       <path id="DejaVuSans-65" d="M 3597 1894 
L 3597 1613 
L 953 1613 
Q 991 1019 1311 708 
Q 1631 397 2203 397 
Q 2534 397 2845 478 
Q 3156 559 3463 722 
L 3463 178 
Q 3153 47 2828 -22 
Q 2503 -91 2169 -91 
Q 1331 -91 842 396 
Q 353 884 353 1716 
Q 353 2575 817 3079 
Q 1281 3584 2069 3584 
Q 2775 3584 3186 3129 
Q 3597 2675 3597 1894 
z
M 3022 2063 
Q 3016 2534 2758 2815 
Q 2500 3097 2075 3097 
Q 1594 3097 1305 2825 
Q 1016 2553 972 2059 
L 3022 2063 
z
" transform="scale(0.015625)"/>
       <path id="DejaVuSans-64" d="M 2906 2969 
L 2906 4863 
L 3481 4863 
L 3481 0 
L 2906 0 
L 2906 525 
Q 2725 213 2448 61 
Q 2172 -91 1784 -91 
Q 1150 -91 751 415 
Q 353 922 353 1747 
Q 353 2572 751 3078 
Q 1150 3584 1784 3584 
Q 2172 3584 2448 3432 
Q 2725 3281 2906 2969 
z
M 947 1747 
Q 947 1113 1208 752 
Q 1469 391 1925 391 
Q 2381 391 2643 752 
Q 2906 1113 2906 1747 
Q 2906 2381 2643 2742 
Q 2381 3103 1925 3103 
Q 1469 3103 1208 2742 
Q 947 2381 947 1747 
z
" transform="scale(0.015625)"/>
       <path id="DejaVuSans-61" d="M 2194 1759 
Q 1497 1759 1228 1600 
Q 959 1441 959 1056 
Q 959 750 1161 570 
Q 1363 391 1709 391 
Q 2188 391 2477 730 
Q 2766 1069 2766 1631 
L 2766 1759 
L 2194 1759 
z
M 3341 1997 
L 3341 0 
L 2766 0 
L 2766 531 
Q 2569 213 2275 61 
Q 1981 -91 1556 -91 
Q 1019 -91 701 211 
Q 384 513 384 1019 
Q 384 1609 779 1909 
Q 1175 2209 1959 2209 
L 2766 2209 
L 2766 2266 
Q 2766 2663 2505 2880 
Q 2244 3097 1772 3097 
Q 1472 3097 1187 3025 
Q 903 2953 641 2809 
L 641 3341 
Q 956 3463 1253 3523 
Q 1550 3584 1831 3584 
Q 2591 3584 2966 3190 
Q 3341 2797 3341 1997 
z
" transform="scale(0.015625)"/>
       <path id="DejaVuSans-74" d="M 1172 4494 
L 1172 3500 
L 2356 3500 
L 2356 3053 
L 1172 3053 
L 1172 1153 
Q 1172 725 1289 603 
Q 1406 481 1766 481 
L 2356 481 
L 2356 0 
L 1766 0 
Q 1100 0 847 248 
Q 594 497 594 1153 
L 594 3053 
L 172 3053 
L 172 3500 
L 594 3500 
L 594 4494 
L 1172 4494 
z
" transform="scale(0.015625)"/>
       <path id="DejaVuSans-6f" d="M 1959 3097 
Q 1497 3097 1228 2736 
Q 959 2375 959 1747 
Q 959 1119 1226 758 
Q 1494 397 1959 397 
Q 2419 397 2687 759 
Q 2956 1122 2956 1747 
Q 2956 2369 2687 2733 
Q 2419 3097 1959 3097 
z
M 1959 3584 
Q 2709 3584 3137 3096 
Q 3566 2609 3566 1747 
Q 3566 888 3137 398 
Q 2709 -91 1959 -91 
Q 1206 -91 779 398 
Q 353 888 353 1747 
Q 353 2609 779 3096 
Q 1206 3584 1959 3584 
z
" transform="scale(0.015625)"/>
       <path id="DejaVuSans-20" transform="scale(0.015625)"/>
       <path id="DejaVuSans-70" d="M 1159 525 
L 1159 -1331 
L 581 -1331 
L 581 3500 
L 1159 3500 
L 1159 2969 
Q 1341 3281 1617 3432 
Q 1894 3584 2278 3584 
Q 2916 3584 3314 3078 
Q 3713 2572 3713 1747 
Q 3713 922 3314 415 
Q 2916 -91 2278 -91 
Q 1894 -91 1617 61 
Q 1341 213 1159 525 
z
M 3116 1747 
Q 3116 2381 2855 2742 
Q 2594 3103 2138 3103 
Q 1681 3103 1420 2742 
Q 1159 2381 1159 1747 
Q 1159 1113 1420 752 
Q 1681 391 2138 391 
Q 2594 391 2855 752 
Q 3116 1113 3116 1747 
z
" transform="scale(0.015625)"/>
       <path id="DejaVuSans-75" d="M 544 1381 
L 544 3500 
L 1119 3500 
L 1119 1403 
Q 1119 906 1312 657 
Q 1506 409 1894 409 
Q 2359 409 2629 706 
Q 2900 1003 2900 1516 
L 2900 3500 
L 3475 3500 
L 3475 0 
L 2900 0 
L 2900 538 
Q 2691 219 2414 64 
Q 2138 -91 1772 -91 
Q 1169 -91 856 284 
Q 544 659 544 1381 
z
M 1991 3584 
L 1991 3584 
z
" transform="scale(0.015625)"/>
       <path id="DejaVuSans-6c" d="M 603 4863 
L 1178 4863 
L 1178 0 
L 603 0 
L 603 4863 
z
" transform="scale(0.015625)"/>
       <path id="DejaVuSans-69" d="M 603 3500 
L 1178 3500 
L 1178 0 
L 603 0 
L 603 3500 
z
M 603 4863 
L 1178 4863 
L 1178 4134 
L 603 4134 
L 603 4863 
z
" transform="scale(0.015625)"/>
       <path id="DejaVuSans-6e" d="M 3513 2113 
L 3513 0 
L 2938 0 
L 2938 2094 
Q 2938 2591 2744 2837 
Q 2550 3084 2163 3084 
Q 1697 3084 1428 2787 
Q 1159 2491 1159 1978 
L 1159 0 
L 581 0 
L 581 3500 
L 1159 3500 
L 1159 2956 
Q 1366 3272 1645 3428 
Q 1925 3584 2291 3584 
Q 2894 3584 3203 3211 
Q 3513 2838 3513 2113 
z
" transform="scale(0.015625)"/>
      </defs>
      <use xlink:href="#DejaVuSans-50"/>
      <use xlink:href="#DejaVuSans-72" x="58.552734"/>
      <use xlink:href="#DejaVuSans-65" x="97.416016"/>
      <use xlink:href="#DejaVuSans-64" x="158.939453"/>
      <use xlink:href="#DejaVuSans-61" x="222.416016"/>
      <use xlink:href="#DejaVuSans-74" x="283.695312"/>
      <use xlink:href="#DejaVuSans-6f" x="322.904297"/>
      <use xlink:href="#DejaVuSans-72" x="384.085938"/>
      <use xlink:href="#DejaVuSans-20" x="425.199219"/>
      <use xlink:href="#DejaVuSans-70" x="456.986328"/>
      <use xlink:href="#DejaVuSans-6f" x="520.462891"/>
      <use xlink:href="#DejaVuSans-70" x="581.644531"/>
      <use xlink:href="#DejaVuSans-75" x="645.121094"/>
      <use xlink:href="#DejaVuSans-6c" x="708.5"/>
      <use xlink:href="#DejaVuSans-61" x="736.283203"/>
      <use xlink:href="#DejaVuSans-74" x="797.5625"/>
      <use xlink:href="#DejaVuSans-69" x="836.771484"/>
      <use xlink:href="#DejaVuSans-6f" x="864.554688"/>
      <use xlink:href="#DejaVuSans-6e" x="925.736328"/>
     </g>
    </g>
   </g>
   <g id="matplotlib.axis_2">
    <g id="ytick_1">
     <g id="line2d_13">
      <path d="M 81 554.04 
L 583.2 554.04 
" clip-path="url(#p61ed1436af)" style="fill: none; stroke: #b0b0b0; stroke-width: 0.1; stroke-linecap: square"/>
     </g>
     <g id="line2d_14">
      <defs>
       <path id="m3a863f3e0a" d="M 0 0 
L -3.5 0 
" style="stroke: #000000; stroke-width: 0.8"/>
      </defs>
      <g>
       <use xlink:href="#m3a863f3e0a" x="81" y="554.04" style="stroke: #000000; stroke-width: 0.8"/>
      </g>
     </g>
     <g id="text_8">
      <!-- 0 -->
      <g transform="translate(67.6375 557.839219) scale(0.1 -0.1)">
       <use xlink:href="#DejaVuSans-30"/>
      </g>
     </g>
    </g>
    <g id="ytick_2">
     <g id="line2d_15">
      <path d="M 81 463.32 
L 583.2 463.32 
" clip-path="url(#p61ed1436af)" style="fill: none; stroke: #b0b0b0; stroke-width: 0.1; stroke-linecap: square"/>
     </g>
     <g id="line2d_16">
      <g>
       <use xlink:href="#m3a863f3e0a" x="81" y="463.32" style="stroke: #000000; stroke-width: 0.8"/>
      </g>
     </g>
     <g id="text_9">
      <!-- 500 -->
      <g transform="translate(54.9125 467.119219) scale(0.1 -0.1)">
       <use xlink:href="#DejaVuSans-35"/>
       <use xlink:href="#DejaVuSans-30" x="63.623047"/>
       <use xlink:href="#DejaVuSans-30" x="127.246094"/>
      </g>
     </g>
    </g>
    <g id="ytick_3">
     <g id="line2d_17">
      <path d="M 81 372.6 
L 583.2 372.6 
" clip-path="url(#p61ed1436af)" style="fill: none; stroke: #b0b0b0; stroke-width: 0.1; stroke-linecap: square"/>
     </g>
     <g id="line2d_18">
      <g>
       <use xlink:href="#m3a863f3e0a" x="81" y="372.6" style="stroke: #000000; stroke-width: 0.8"/>
      </g>
     </g>
     <g id="text_10">
      <!-- 1000 -->
      <g transform="translate(48.55 376.399219) scale(0.1 -0.1)">
       <use xlink:href="#DejaVuSans-31"/>
       <use xlink:href="#DejaVuSans-30" x="63.623047"/>
       <use xlink:href="#DejaVuSans-30" x="127.246094"/>
       <use xlink:href="#DejaVuSans-30" x="190.869141"/>
      </g>
     </g>
    </g>
    <g id="ytick_4">
     <g id="line2d_19">
      <path d="M 81 281.88 
L 583.2 281.88 
" clip-path="url(#p61ed1436af)" style="fill: none; stroke: #b0b0b0; stroke-width: 0.1; stroke-linecap: square"/>
     </g>
     <g id="line2d_20">
      <g>
       <use xlink:href="#m3a863f3e0a" x="81" y="281.88" style="stroke: #000000; stroke-width: 0.8"/>
      </g>
     </g>
     <g id="text_11">
      <!-- 1500 -->
      <g transform="translate(48.55 285.679219) scale(0.1 -0.1)">
       <use xlink:href="#DejaVuSans-31"/>
       <use xlink:href="#DejaVuSans-35" x="63.623047"/>
       <use xlink:href="#DejaVuSans-30" x="127.246094"/>
       <use xlink:href="#DejaVuSans-30" x="190.869141"/>
      </g>
     </g>
    </g>
    <g id="ytick_5">
     <g id="line2d_21">
      <path d="M 81 191.16 
L 583.2 191.16 
" clip-path="url(#p61ed1436af)" style="fill: none; stroke: #b0b0b0; stroke-width: 0.1; stroke-linecap: square"/>
     </g>
     <g id="line2d_22">
      <g>
       <use xlink:href="#m3a863f3e0a" x="81" y="191.16" style="stroke: #000000; stroke-width: 0.8"/>
      </g>
     </g>
     <g id="text_12">
      <!-- 2000 -->
      <g transform="translate(48.55 194.959219) scale(0.1 -0.1)">
       <use xlink:href="#DejaVuSans-32"/>
       <use xlink:href="#DejaVuSans-30" x="63.623047"/>
       <use xlink:href="#DejaVuSans-30" x="127.246094"/>
       <use xlink:href="#DejaVuSans-30" x="190.869141"/>
      </g>
     </g>
    </g>
    <g id="ytick_6">
     <g id="line2d_23">
      <path d="M 81 100.44 
L 583.2 100.44 
" clip-path="url(#p61ed1436af)" style="fill: none; stroke: #b0b0b0; stroke-width: 0.1; stroke-linecap: square"/>
     </g>
     <g id="line2d_24">
      <g>
       <use xlink:href="#m3a863f3e0a" x="81" y="100.44" style="stroke: #000000; stroke-width: 0.8"/>
      </g>
     </g>
     <g id="text_13">
      <!-- 2500 -->
      <g transform="translate(48.55 104.239219) scale(0.1 -0.1)">
       <use xlink:href="#DejaVuSans-32"/>
       <use xlink:href="#DejaVuSans-35" x="63.623047"/>
       <use xlink:href="#DejaVuSans-30" x="127.246094"/>
       <use xlink:href="#DejaVuSans-30" x="190.869141"/>
      </g>
     </g>
    </g>
    <g id="text_14">
     <!-- Prey population -->
     <g transform="translate(42.470312 366.342344) rotate(-90) scale(0.1 -0.1)">
      <defs>
       <path id="DejaVuSans-79" d="M 2059 -325 
Q 1816 -950 1584 -1140 
Q 1353 -1331 966 -1331 
L 506 -1331 
L 506 -850 
L 844 -850 
Q 1081 -850 1212 -737 
Q 1344 -625 1503 -206 
L 1606 56 
L 191 3500 
L 800 3500 
L 1894 763 
L 2988 3500 
L 3597 3500 
L 2059 -325 
z
" transform="scale(0.015625)"/>
      </defs>
      <use xlink:href="#DejaVuSans-50"/>
      <use xlink:href="#DejaVuSans-72" x="58.552734"/>
      <use xlink:href="#DejaVuSans-65" x="97.416016"/>
      <use xlink:href="#DejaVuSans-79" x="158.939453"/>
      <use xlink:href="#DejaVuSans-20" x="218.119141"/>
      <use xlink:href="#DejaVuSans-70" x="249.90625"/>
      <use xlink:href="#DejaVuSans-6f" x="313.382812"/>
      <use xlink:href="#DejaVuSans-70" x="374.564453"/>
      <use xlink:href="#DejaVuSans-75" x="438.041016"/>
      <use xlink:href="#DejaVuSans-6c" x="501.419922"/>
      <use xlink:href="#DejaVuSans-61" x="529.203125"/>
      <use xlink:href="#DejaVuSans-74" x="590.482422"/>
      <use xlink:href="#DejaVuSans-69" x="629.691406"/>
      <use xlink:href="#DejaVuSans-6f" x="657.474609"/>
      <use xlink:href="#DejaVuSans-6e" x="718.65625"/>
     </g>
    </g>
   </g>
   <g id="line2d_25">
    <path d="M 201.893236 469.85184 
L 207.006545 442.81728 
L 215.224364 415.41984 
L 233.851418 418.50432 
L 250.469673 434.2896 
L 256.678691 442.27296 
L 242.434473 451.5264 
L 223.6248 447.8976 
L 211.937236 429.02784 
L 210.476291 415.96416 
L 216.685309 404.89632 
L 221.068145 410.15808 
L 226.911927 405.44064 
L 224.172655 405.62208 
L 224.720509 405.44064 
L 231.842618 406.71072 
L 236.042836 411.24672 
L 233.6688 408.16224 
L 237.6864 416.50848 
L 248.095636 415.41984 
L 253.574182 419.7744 
L 247.7304 410.7024 
L 237.6864 407.43648 
L 234.764509 403.62624 
L 241.521382 404.352 
L 257.226545 416.1456 
L 256.313455 419.95584 
L 242.617091 416.50848 
L 237.869018 409.61376 
L 238.416873 409.06944 
L 245.538982 408.888 
L 244.443273 411.79104 
L 241.338764 408.16224 
L 241.886618 413.24256 
L 247.365164 414.69408 
L 243.530182 414.69408 
L 236.225455 409.25088 
L 230.564291 401.44896 
L 238.051636 407.0736 
L 246.086836 409.61376 
L 242.617091 409.06944 
L 244.443273 410.52096 
L 244.078036 408.70656 
L 241.704 399.816 
L 244.808509 403.26336 
L 248.643491 410.15808 
L 253.208945 410.7024 
L 253.208945 413.78688 
L 256.313455 424.67328 
L 246.452073 417.59712 
L 235.312364 415.96416 
L 226.729309 407.43648 
L 228.738109 404.53344 
L 234.216655 403.4448 
L 238.782109 402.90048 
L 244.078036 410.7024 
L 248.095636 409.25088 
L 245.7216 414.69408 
L 249.556582 414.87552 
L 250.287055 413.06112 
L 250.652291 409.43232 
L 251.382764 407.0736 
L 245.538982 408.70656 
L 238.416873 399.63456 
L 242.617091 396.55008 
L 251.565382 405.07776 
L 258.687491 408.888 
L 267.453164 420.50016 
L 260.148436 422.85888 
L 249.373964 418.68576 
L 239.512582 416.50848 
L 242.251855 415.41984 
L 247.7304 412.69824 
L 243.530182 411.79104 
L 243.7128 411.79104 
L 247.365164 407.43648 
L 255.7656 413.96832 
L 267.635782 420.50016 
L 262.522473 423.04032 
L 243.347564 420.50016 
L 243.530182 419.41152 
L 246.817309 417.41568 
L 240.243055 416.1456 
L 232.755709 409.61376 
L 241.704 409.25088 
L 248.278255 410.52096 
L 251.017527 415.2384 
L 247.365164 413.06112 
L 239.6952 408.34368 
L 246.817309 410.15808 
L 247.913018 410.15808 
L 247.547782 410.33952 
L 253.026327 429.93504 
L 246.086836 436.64832 
L 231.842618 431.20512 
L 220.337673 428.48352 
L 217.233164 422.67744 
L 213.398182 420.86304 
L 216.685309 427.21344 
L 216.320073 427.9392 
L 211.024145 421.95168 
L 214.859127 424.67328 
L 215.224364 425.58048 
L 221.798618 426.1248 
L 230.929527 429.39072 
L 224.172655 429.39072 
L 220.702909 429.02784 
L 222.894327 425.76192 
L 222.711709 431.38656 
L 218.511491 434.83392 
L 220.885527 430.6608 
L 214.493891 423.22176 
L 218.328873 426.48768 
L 229.103345 436.28544 
L 225.450982 433.3824 
L 217.415782 424.67328 
L 219.6072 422.496 
L 233.486182 424.67328 
L 243.530182 430.6608 
L 242.251855 439.91424 
L 238.416873 435.1968 
L 225.085745 428.66496 
L 221.433382 421.04448 
L 224.903127 422.496 
L 228.372873 428.48352 
L 221.616 427.39488 
L 214.128655 422.13312 
L 213.032945 419.41152 
L 216.502691 417.96 
L 228.007636 426.1248 
L 230.564291 429.57216 
L 229.103345 430.84224 
L 226.181455 429.7536 
L 227.277164 426.1248 
L 228.007636 421.95168 
L 228.007636 422.13312 
L 235.129745 419.04864 
L 239.512582 423.04032 
L 246.452073 433.20096 
L 238.964727 433.74528 
L 237.138545 435.01536 
L 234.216655 430.84224 
L 223.442182 421.04448 
L 218.328873 411.24672 
L 231.66 413.06112 
L 249.921818 426.48768 
L 249.556582 426.66912 
L 240.425673 429.7536 
L 241.156145 428.48352 
L 238.234255 428.48352 
L 236.773309 429.57216 
L 230.199055 425.58048 
L 228.372873 422.13312 
L 236.042836 427.39488 
L 245.7216 435.01536 
L 243.7128 437.55552 
L 237.321164 439.55136 
L 226.181455 431.568 
L 217.415782 425.94336 
L 224.903127 427.39488 
L 226.364073 430.11648 
L 217.415782 426.30624 
L 209.015345 416.68992 
L 217.050545 411.97248 
L 226.911927 418.8672 
L 227.094545 411.97248 
L 226.364073 411.6096 
L 237.321164 422.85888 
L 248.278255 425.58048 
L 248.095636 432.4752 
L 240.973527 431.02368 
L 232.755709 423.4032 
L 236.773309 417.96 
L 244.443273 415.60128 
L 243.7128 414.14976 
L 251.565382 414.51264 
L 262.157236 427.21344 
L 267.270545 440.64 
L 259.417964 451.70784 
L 240.243055 441.00288 
L 225.268364 423.58464 
L 215.954836 400.54176 
L 224.720509 390.38112 
L 242.617091 395.09856 
L 256.130836 405.07776 
L 264.896509 415.96416 
L 262.157236 426.66912 
L 256.678691 426.1248 
L 251.017527 425.76192 
L 246.269455 424.49184 
L 261.426764 427.57632 
L 259.7832 428.12064 
L 248.826109 424.12896 
L 247.182545 418.68576 
L 247.182545 416.68992 
L 242.982327 406.1664 
L 243.347564 409.43232 
L 253.208945 405.62208 
L 264.348655 407.79936 
L 262.157236 415.05696 
L 272.383855 429.57216 
L 277.131927 437.9184 
L 259.417964 431.38656 
L 235.860218 411.24672 
L 236.225455 401.6304 
L 252.843709 404.89632 
L 268.183636 399.99744 
L 270.009818 395.28 
L 266.174836 399.99744 
L 275.670982 403.62624 
L 287.175927 406.89216 
L 280.601673 406.89216 
L 276.036218 408.16224 
L 279.323345 400.90464 
L 272.749091 394.19136 
L 270.922909 395.46144 
L 276.584073 396.73152 
L 286.445455 406.1664 
L 291.376145 411.24672 
L 287.9064 406.71072 
L 280.053818 401.26752 
L 275.123127 398.54592 
L 280.784291 390.56256 
L 287.358545 399.816 
L 287.358545 404.17056 
L 282.062618 408.888 
L 269.096727 398.9088 
L 255.7656 388.0224 
L 266.357455 361.35072 
L 280.236436 349.19424 
L 294.845891 360.44352 
L 310.733673 378.58752 
L 310.551055 390.01824 
L 291.924 385.84512 
L 270.375055 369.15264 
L 257.043927 349.55712 
L 256.678691 341.57376 
L 263.983418 339.75936 
L 278.592873 346.10976 
L 298.133018 369.69696 
L 315.664364 392.37696 
L 309.820582 402.35616 
L 288.271636 408.16224 
L 276.766691 400.17888 
L 265.079127 382.94208 
L 249.008727 355.3632 
L 247.182545 338.67072 
L 263.618182 342.11808 
L 278.045018 349.19424 
L 290.645673 372.41856 
L 305.072509 395.64288 
L 297.767782 405.98496 
L 272.383855 393.82848 
L 245.538982 378.22464 
L 240.608291 357.90336 
L 242.617091 337.40064 
L 258.139636 335.58624 
L 281.88 342.6624 
L 297.037309 371.32992 
L 315.481745 404.89632 
L 313.838182 423.22176 
L 284.984509 419.7744 
L 256.496073 395.64288 
L 225.6336 360.26208 
L 217.233164 324.33696 
L 234.399273 302.38272 
L 250.834909 303.10848 
L 272.201236 326.69568 
L 297.037309 366.43104 
L 321.690764 409.43232 
L 332.282618 438.28128 
L 295.758982 418.14144 
L 238.416873 380.7648 
L 196.414691 335.94912 
L 188.014255 295.66944 
L 202.441091 265.18752 
L 216.320073 249.76512 
L 234.034036 262.8288 
L 250.652291 288.77472 
L 271.105527 325.06272 
L 305.9856 364.25376 
L 318.768873 388.0224 
L 309.820582 395.64288 
L 281.149527 383.30496 
L 238.416873 356.2704 
L 226.911927 320.16384 
L 228.372873 297.66528 
L 247.547782 295.488 
L 264.531273 306.3744 
L 291.376145 335.94912 
L 303.9768 360.44352 
L 313.290327 380.40192 
L 310.0032 384.21216 
L 298.498255 378.9504 
L 278.592873 376.04736 
L 258.504873 367.70112 
L 248.826109 345.74688 
L 241.521382 328.1472 
L 247.182545 322.15968 
L 249.373964 313.26912 
L 250.104436 314.90208 
L 259.7832 329.23584 
L 265.444364 336.13056 
L 275.488364 335.58624 
L 266.174836 332.32032 
L 253.208945 328.32864 
L 227.277164 305.83008 
L 216.320073 286.416 
L 223.990036 271.71936 
L 240.790909 276.61824 
L 266.722691 302.38272 
L 285.167127 328.1472 
L 296.854691 349.73856 
L 303.246327 373.5072 
L 294.663273 380.7648 
L 291.741382 376.41024 
L 268.183636 351.19008 
L 241.521382 327.78432 
L 223.807418 307.2816 
L 239.147345 292.22208 
L 264.166036 297.3024 
L 294.480655 330.68736 
L 309.637964 359.53632 
L 323.882182 382.76064 
L 316.212218 403.98912 
L 296.306836 394.00992 
L 266.357455 358.992 
L 237.503782 327.78432 
L 223.6248 302.20128 
L 224.355273 283.87584 
L 242.251855 276.07392 
L 267.270545 297.84672 
L 285.167127 322.88544 
L 300.689673 347.01696 
L 309.820582 368.064 
L 309.455345 378.22464 
L 295.9416 375.3216 
L 266.905309 356.08896 
L 236.955927 323.06688 
L 219.789818 299.66112 
L 219.972436 281.88 
L 248.826109 282.60576 
L 281.514764 309.64032 
L 301.602764 346.83552 
L 320.777673 379.8576 
L 325.160509 397.82016 
L 317.490545 405.07776 
L 292.471855 387.47808 
L 235.312364 321.07104 
L 217.5984 293.85504 
L 222.711709 277.344 
L 246.817309 279.70272 
L 265.626982 298.93536 
L 283.158327 324.69984 
L 298.680873 350.46432 
L 299.228727 367.1568 
L 289.732582 365.3424 
L 272.383855 352.82304 
L 262.157236 342.6624 
L 252.478473 331.59456 
L 247.547782 312.36192 
L 255.948218 311.27328 
L 269.461964 324.69984 
L 294.663273 351.37152 
L 305.802982 365.16096 
L 308.542255 374.95872 
L 299.228727 384.21216 
L 288.271636 380.03904 
L 263.983418 361.35072 
L 253.391564 342.6624 
L 240.060436 324.15552 
L 242.799709 312.18048 
L 261.609382 318.71232 
L 273.296945 326.51424 
L 288.454255 345.56544 
L 296.124218 368.42688 
L 295.576364 379.67616 
L 296.306836 375.86592 
L 293.384945 368.24544 
L 276.766691 355.00032 
L 255.948218 346.10976 
L 246.086836 329.9616 
L 233.486182 310.36608 
L 239.329964 290.22624 
L 244.443273 293.85504 
L 255.035127 304.01568 
L 266.174836 321.97824 
L 285.167127 337.40064 
L 297.585164 353.73024 
L 301.420145 367.88256 
L 294.663273 367.33824 
L 283.8888 353.36736 
L 262.157236 344.65824 
L 257.591782 334.67904 
L 258.687491 321.07104 
L 261.426764 312.7248 
L 262.705091 322.88544 
L 276.036218 339.9408 
L 295.576364 350.8272 
L 308.359636 368.42688 
L 313.472945 379.13184 
L 306.716073 381.49056 
L 295.393745 381.12768 
L 285.532364 374.59584 
L 258.870109 352.82304 
L 243.347564 332.32032 
L 239.877818 314.5392 
L 252.113236 308.00736 
L 271.288145 317.44224 
L 300.141818 347.74272 
L 318.951491 380.7648 
L 320.0472 394.55424 
L 296.489455 389.11104 
L 271.470764 370.05984 
L 254.487273 340.30368 
L 246.269455 319.0752 
L 249.556582 319.0752 
L 265.8096 327.60288 
L 284.984509 333.40896 
L 304.342036 358.81056 
L 314.751273 385.66368 
L 299.046109 387.47808 
L 276.584073 380.40192 
L 255.948218 351.37152 
L 248.278255 318.34944 
L 249.191345 304.92288 
L 248.095636 302.01984 
L 258.687491 307.82592 
L 275.488364 318.89376 
L 287.358545 337.40064 
L 295.758982 356.45184 
L 300.324436 367.33824 
L 297.037309 376.95456 
L 279.323345 371.32992 
L 252.661091 341.57376 
L 223.990036 312.36192 
L 219.241964 298.2096 
L 240.973527 295.488 
L 265.079127 304.37856 
L 289.367345 333.22752 
L 296.854691 356.81472 
L 293.567564 369.51552 
L 284.071418 377.31744 
L 280.601673 378.0432 
L 276.584073 365.88672 
L 261.792 340.30368 
L 246.452073 330.68736 
L 246.086836 326.69568 
L 269.096727 331.41312 
L 296.854691 350.46432 
L 322.238618 384.75648 
L 317.125309 408.70656 
L 293.384945 411.6096 
L 272.566473 402.5376 
L 252.478473 376.59168 
L 235.6776 352.82304 
L 232.938327 337.2192 
L 246.452073 337.58208 
L 255.948218 345.384 
L 270.922909 355.90752 
L 294.845891 376.41024 
L 290.828291 388.38528 
L 268.366255 374.23296 
L 241.886618 360.44352 
L 243.530182 355.72608 
L 260.148436 355.3632 
L 268.001018 350.64576 
L 269.096727 361.89504 
L 273.114327 375.68448 
L 281.697382 390.19968 
L 287.541164 392.19552 
L 269.8272 379.13184 
L 242.434473 365.70528 
L 232.025236 356.45184 
L 252.661091 354.456 
L 265.626982 351.00864 
L 263.070327 351.7344 
L 264.531273 369.51552 
L 282.610473 386.57088 
L 292.106618 398.0016 
L 276.949309 402.90048 
L 259.600582 392.37696 
L 248.643491 380.94624 
L 238.234255 364.61664 
L 229.468582 344.29536 
L 227.6424 326.69568 
L 241.338764 322.52256 
L 265.079127 344.65824 
L 281.332145 367.70112 
L 273.8448 391.28832 
L 269.096727 406.89216 
L 258.322255 401.6304 
L 248.278255 407.79936 
L 243.347564 407.79936 
L 232.573091 404.71488 
L 223.6248 393.10272 
L 218.146255 379.49472 
L 235.129745 380.22048 
L 259.7832 381.672 
L 282.062618 398.36448 
L 275.670982 399.45312 
L 268.001018 396.73152 
L 264.896509 398.18304 
L 267.635782 397.27584 
L 270.557673 398.72736 
L 275.8536 398.0016 
L 281.332145 390.744 
L 284.254036 402.35616 
L 294.480655 413.78688 
L 293.567564 418.32288 
L 284.254036 421.95168 
L 272.201236 413.96832 
L 262.887709 405.2592 
L 264.166036 397.45728 
L 275.123127 398.54592 
L 289.184727 407.79936 
L 300.872291 424.85472 
L 283.523564 429.20928 
L 259.052727 419.95584 
L 244.991127 409.06944 
L 245.7216 399.27168 
L 249.191345 401.99328 
L 253.939418 409.25088 
L 259.600582 413.06112 
L 268.731491 423.4032 
L 272.201236 424.12896 
L 258.322255 425.39904 
L 243.530182 419.04864 
L 236.773309 408.888 
L 246.634691 406.89216 
L 252.843709 406.1664 
L 258.139636 409.25088 
L 262.522473 413.78688 
L 263.252945 422.67744 
L 263.983418 422.67744 
L 250.469673 419.04864 
L 247.7304 416.87136 
L 250.287055 414.14976 
L 253.7568 419.59296 
L 254.669891 426.85056 
L 239.877818 419.41152 
L 228.190255 408.16224 
L 227.094545 403.08192 
L 239.512582 407.61792 
L 255.7656 419.7744 
L 264.348655 423.22176 
L 247.7304 422.496 
L 235.860218 419.23008 
L 238.599491 414.3312 
L 246.086836 413.78688 
L 260.148436 425.2176 
L 268.731491 436.28544 
L 262.157236 450.6192 
L 242.982327 442.4544 
L 220.520291 431.02368 
L 214.493891 418.50432 
L 217.050545 410.7024 
L 225.6336 413.96832 
L 234.034036 422.13312 
L 240.973527 431.74944 
L 243.895418 440.27712 
L 234.947127 436.28544 
L 225.450982 425.94336 
L 224.537891 422.13312 
L 221.433382 422.13312 
L 223.990036 421.95168 
L 225.998836 422.13312 
L 230.381673 419.04864 
L 232.938327 419.23008 
L 235.312364 423.4032 
L 239.147345 428.8464 
L 238.599491 430.6608 
L 240.425673 437.73696 
L 238.782109 440.45856 
L 231.66 435.01536 
L 216.502691 426.85056 
L 215.041745 418.50432 
L 222.163855 421.77024 
L 227.459782 423.94752 
L 234.034036 430.11648 
L 232.390473 431.02368 
L 228.372873 435.55968 
L 217.233164 437.55552 
L 213.5808 431.20512 
L 209.380582 422.496 
L 222.894327 425.58048 
L 230.016436 425.03616 
L 225.450982 426.66912 
L 227.6424 430.47936 
L 229.103345 434.83392 
L 224.355273 431.568 
L 219.424582 426.48768 
L 215.041745 427.75776 
L 215.406982 427.032 
L 216.320073 420.13728 
L 221.433382 430.11648 
L 228.555491 438.46272 
L 230.199055 442.4544 
L 226.546691 443.54304 
L 221.433382 439.7328 
L 219.789818 434.65248 
L 223.259564 426.48768 
L 227.825018 432.11232 
L 228.555491 431.20512 
L 227.277164 429.57216 
L 223.807418 428.12064 
L 227.277164 428.12064 
L 230.016436 431.02368 
L 226.911927 430.47936 
L 221.068145 433.3824 
L 220.702909 428.30208 
L 212.485091 422.67744 
L 210.111055 422.67744 
L 215.954836 421.04448 
L 217.415782 421.04448 
L 223.076945 426.1248 
L 231.66 433.20096 
L 228.920727 431.20512 
L 222.711709 435.92256 
L 223.259564 437.19264 
L 221.981236 441.72864 
L 222.163855 443.3616 
L 208.467491 445.53888 
L 197.693018 435.37824 
L 192.579709 427.57632 
L 201.345382 432.11232 
L 210.658909 428.30208 
L 208.832727 437.19264 
L 202.441091 418.14144 
L 198.788727 393.4656 
L 204.267273 385.84512 
L 222.346473 384.3936 
L 239.877818 388.38528 
L 248.826109 395.28 
L 257.409164 413.96832 
L 262.522473 423.4032 
L 263.435564 431.20512 
L 260.878909 428.66496 
L 248.460873 421.22592 
L 240.243055 415.41984 
L 233.851418 408.34368 
L 241.156145 408.70656 
L 248.095636 414.87552 
L 251.200145 416.1456 
L 256.496073 420.6816 
L 253.391564 421.04448 
L 238.599491 418.8672 
L 237.869018 412.69824 
L 234.581891 407.79936 
L 235.312364 405.98496 
L 231.112145 411.79104 
L 233.486182 409.25088 
L 239.329964 413.424 
L 245.538982 415.05696 
L 245.356364 416.32704 
L 240.790909 420.13728 
L 239.512582 418.14144 
L 234.216655 414.51264 
L 231.66 404.17056 
L 234.216655 401.99328 
L 238.416873 403.4448 
L 249.921818 405.2592 
L 256.313455 407.61792 
L 250.834909 408.70656 
L 252.113236 406.71072 
L 249.008727 416.32704 
L 244.991127 413.24256 
L 239.329964 411.97248 
L 245.7216 414.14976 
L 252.661091 418.68576 
L 250.652291 421.22592 
L 250.104436 420.86304 
L 249.373964 417.59712 
L 239.512582 410.15808 
L 242.617091 402.5376 
L 249.921818 409.25088 
L 248.643491 409.7952 
L 236.955927 404.89632 
L 241.521382 407.79936 
L 253.391564 416.87136 
L 257.226545 425.2176 
L 256.313455 424.67328 
L 253.208945 425.2176 
L 248.460873 422.67744 
L 244.260655 415.96416 
L 236.955927 414.87552 
L 235.494982 409.61376 
L 237.321164 405.98496 
L 242.617091 408.70656 
L 250.287055 417.96 
L 248.643491 423.4032 
L 241.521382 420.31872 
L 236.955927 414.14976 
L 230.564291 405.98496 
L 237.321164 404.89632 
L 249.008727 409.25088 
L 258.139636 416.32704 
L 260.331055 423.94752 
L 253.391564 429.57216 
L 246.269455 426.66912 
L 240.790909 419.7744 
L 233.120945 407.61792 
L 231.66 401.81184 
L 235.129745 402.90048 
L 244.625891 411.42816 
L 247.7304 416.1456 
L 248.826109 421.40736 
L 250.287055 422.67744 
L 238.416873 415.96416 
L 226.364073 404.53344 
L 231.477382 398.54592 
L 236.955927 397.0944 
L 242.251855 402.90048 
L 247.547782 416.32704 
L 250.104436 420.13728 
L 239.6952 417.41568 
L 234.216655 413.60544 
L 227.459782 412.5168 
L 225.6336 412.87968 
L 236.225455 411.6096 
L 236.042836 409.61376 
L 235.129745 417.96 
L 236.955927 416.87136 
L 245.538982 421.77024 
L 243.7128 416.32704 
L 235.860218 415.78272 
L 230.199055 404.89632 
L 232.025236 404.352 
L 245.7216 411.06528 
L 253.391564 414.69408 
L 252.295855 412.69824 
L 253.574182 412.5168 
L 253.7568 415.96416 
L 253.391564 416.87136 
L 254.852509 412.5168 
L 254.122036 414.14976 
L 254.669891 414.3312 
L 256.678691 417.23424 
L 259.600582 417.0528 
L 258.322255 416.68992 
L 250.469673 412.87968 
L 249.921818 416.68992 
L 250.834909 414.87552 
L 238.964727 400.36032 
L 240.243055 402.17472 
L 248.643491 406.34784 
L 244.443273 412.15392 
L 246.634691 408.70656 
L 252.661091 409.7952 
L 251.930618 411.06528 
L 245.356364 406.89216 
L 240.243055 404.352 
L 234.947127 404.53344 
L 238.234255 404.53344 
L 249.921818 407.9808 
L 262.522473 416.87136 
L 270.375055 430.47936 
L 267.453164 427.21344 
L 257.7744 425.03616 
L 256.861309 422.13312 
L 253.208945 416.68992 
L 246.452073 412.5168 
L 241.704 407.0736 
L 242.434473 408.70656 
L 240.060436 402.5376 
L 230.564291 405.80352 
L 237.321164 409.06944 
L 246.817309 415.60128 
L 249.7392 421.95168 
L 254.304655 426.66912 
L 250.834909 421.5888 
L 240.973527 417.0528 
L 238.051636 410.15808 
L 237.869018 413.60544 
L 241.521382 415.78272 
L 238.051636 419.04864 
L 237.869018 421.40736 
L 227.459782 414.3312 
L 224.537891 405.98496 
L 235.494982 406.89216 
L 251.017527 417.59712 
L 257.409164 416.87136 
L 241.156145 415.78272 
L 238.599491 413.60544 
L 237.6864 404.71488 
L 246.817309 412.69824 
L 249.921818 413.60544 
L 250.834909 415.05696 
L 255.035127 423.4032 
L 263.618182 423.94752 
L 250.287055 420.6816 
L 244.625891 422.67744 
L 245.7216 421.22592 
L 246.817309 424.85472 
L 241.886618 419.04864 
L 237.321164 410.15808 
L 242.069236 405.98496 
L 247.7304 405.80352 
L 251.565382 413.424 
L 247.913018 415.41984 
L 243.530182 412.69824 
L 237.138545 410.88384 
L 243.530182 413.78688 
L 248.643491 419.59296 
L 250.287055 422.496 
L 243.530182 418.14144 
L 234.764509 413.78688 
L 223.076945 423.58464 
L 225.450982 440.45856 
L 224.537891 444.81312 
L 212.485091 437.0112 
L 200.980145 423.94752 
L 198.058255 420.86304 
L 205.5456 418.50432 
L 211.206764 425.58048 
L 212.667709 431.568 
L 215.772218 435.1968 
L 218.694109 432.29376 
L 222.163855 435.01536 
L 221.250764 435.92256 
L 220.702909 435.01536 
L 220.520291 427.39488 
L 219.424582 427.75776 
L 219.241964 421.95168 
L 222.529091 428.66496 
L 219.059345 430.47936 
L 219.241964 434.2896 
L 227.825018 430.84224 
L 229.6512 436.46688 
L 227.277164 436.64832 
L 221.068145 424.49184 
L 220.520291 424.49184 
L 218.511491 417.41568 
L 215.5896 419.95584 
L 218.146255 420.13728 
L 227.825018 425.76192 
L 232.573091 432.83808 
L 237.869018 435.74112 
L 234.581891 434.2896 
L 221.068145 427.39488 
L 220.702909 427.75776 
L 240.243055 428.12064 
L 247.182545 433.20096 
L 234.399273 431.74944 
L 224.720509 426.48768 
L 228.190255 425.2176 
L 233.303564 425.76192 
L 239.512582 437.0112 
L 237.138545 438.46272 
L 230.929527 438.64416 
L 228.738109 439.55136 
L 234.764509 435.55968 
L 230.199055 427.75776 
L 219.241964 427.21344 
L 215.5896 423.58464 
L 215.5896 415.96416 
L 225.6336 421.22592 
L 236.042836 431.93088 
L 238.964727 433.3824 
L 241.156145 429.02784 
L 234.399273 428.48352 
L 230.564291 429.39072 
L 222.163855 421.95168 
L 221.798618 422.85888 
L 236.408073 427.032 
L 236.590691 429.7536 
L 238.964727 437.0112 
L 240.608291 435.37824 
L 232.573091 429.7536 
L 233.851418 432.11232 
L 234.581891 428.66496 
L 227.459782 419.23008 
L 222.529091 413.424 
L 227.825018 414.3312 
L 226.364073 416.87136 
L 227.094545 419.95584 
L 236.590691 422.496 
L 240.060436 427.21344 
L 237.869018 424.67328 
L 234.034036 424.67328 
L 235.6776 421.77024 
L 232.025236 418.68576 
L 235.860218 418.68576 
L 244.078036 428.12064 
L 251.565382 439.7328 
L 246.817309 439.55136 
L 228.738109 428.8464 
L 226.546691 412.69824 
L 227.277164 403.4448 
L 233.303564 403.4448 
L 248.278255 413.60544 
L 253.7568 420.86304 
L 250.834909 423.94752 
L 245.904218 421.5888 
L 244.808509 418.50432 
L 248.826109 414.69408 
L 249.556582 411.79104 
L 259.600582 421.22592 
L 265.992218 425.03616 
L 271.470764 435.55968 
L 268.366255 434.2896 
L 252.661091 426.85056 
L 239.147345 409.43232 
L 227.094545 399.816 
L 242.069236 395.64288 
L 256.861309 403.4448 
L 268.183636 409.7952 
L 270.557673 421.04448 
L 276.218836 427.21344 
L 261.244145 423.76608 
L 247.547782 413.78688 
L 244.808509 403.98912 
L 249.7392 402.90048 
L 257.043927 405.80352 
L 261.609382 407.79936 
L 261.792 415.2384 
L 264.348655 413.424 
L 263.435564 414.14976 
L 264.348655 416.32704 
L 265.261745 412.87968 
L 269.644582 415.41984 
L 266.540073 403.26336 
L 263.8008 397.0944 
L 265.444364 401.99328 
L 277.314545 405.07776 
L 272.749091 401.08608 
L 272.018618 402.17472 
L 271.653382 395.82432 
L 270.557673 395.82432 
L 275.123127 392.19552 
L 281.697382 397.45728 
L 284.071418 401.99328 
L 285.8976 405.80352 
L 282.245236 406.34784 
L 276.218836 400.36032 
L 274.757891 400.36032 
L 272.566473 399.27168 
L 270.922909 391.6512 
L 265.626982 388.20384 
L 261.609382 383.12352 
L 268.366255 383.12352 
L 281.697382 391.83264 
L 291.924 404.352 
L 292.289236 410.7024 
L 283.340945 387.84096 
L 282.062618 367.88256 
L 276.584073 358.0848 
L 279.323345 355.90752 
L 299.228727 366.79392 
L 305.072509 375.14016 
L 300.324436 383.84928 
L 299.046109 398.9088 
L 299.046109 400.90464 
L 281.332145 387.47808 
L 251.382764 357.90336 
L 253.939418 345.20256 
L 273.296945 344.4768 
L 287.175927 353.91168 
L 300.689673 377.68032 
L 307.9944 396.55008 
L 306.898691 405.07776 
L 283.706182 404.53344 
L 250.104436 384.3936 
L 225.085745 361.7136 
L 232.025236 340.30368 
L 249.556582 336.67488 
L 284.071418 355.18176 
L 305.437745 377.31744 
L 302.698473 395.82432 
L 289.549964 406.34784 
L 279.8712 402.90048 
L 268.914109 383.4864 
L 251.565382 355.00032 
L 257.226545 337.94496 
L 268.731491 340.12224 
L 290.097818 358.0848 
L 287.175927 370.7856 
L 275.488364 379.13184 
L 274.027418 390.56256 
L 274.027418 389.11104 
L 259.052727 373.32576 
L 242.617091 353.36736 
L 234.216655 332.6832 
L 239.877818 323.06688 
L 254.852509 335.22336 
L 279.505964 351.7344 
L 287.541164 364.4352 
L 285.714982 380.03904 
L 277.131927 374.4144 
L 267.8184 364.79808 
L 253.026327 346.65408 
L 233.486182 321.07104 
L 226.546691 299.66112 
L 238.964727 299.1168 
L 265.8096 312.36192 
L 281.697382 328.87296 
L 296.489455 355.72608 
L 292.837091 365.16096 
L 290.097818 370.42272 
L 278.592873 378.40608 
L 272.018618 367.33824 
L 265.8096 353.36736 
L 255.400364 334.31616 
L 249.7392 327.42144 
L 258.870109 324.33696 
L 276.766691 339.39648 
L 295.028509 356.63328 
L 303.246327 372.05568 
L 300.689673 377.31744 
L 274.575273 362.98368 
L 247.547782 337.76352 
L 240.060436 323.97408 
L 244.991127 311.45472 
L 246.634691 295.12512 
L 258.322255 301.47552 
L 269.096727 326.15136 
L 293.750182 356.08896 
L 317.673164 378.0432 
L 312.012 381.30912 
L 283.8888 369.69696 
L 243.7128 340.848 
L 217.050545 296.03232 
L 197.327782 258.65568 
L 195.136364 231.984 
L 208.284873 233.97984 
L 235.860218 255.02688 
L 267.635782 287.3232 
L 286.628073 327.24 
L 296.306836 357.72192 
L 306.168218 379.49472 
L 300.507055 387.65952 
L 289.184727 384.3936 
L 239.512582 331.41312 
L 227.094545 312.7248 
L 244.443273 305.28576 
L 262.705091 306.3744 
L 290.280436 329.23584 
L 310.368436 362.25792 
L 321.873382 385.3008 
L 324.612655 398.9088 
L 312.012 404.71488 
L 291.558764 387.47808 
L 242.434473 327.60288 
L 234.764509 306.19296 
L 238.964727 296.75808 
L 258.504873 298.39104 
L 286.445455 326.87712 
L 313.472945 364.79808 
L 327.717164 387.47808 
L 322.603855 397.63872 
L 301.968 384.75648 
L 274.940509 358.992 
L 251.565382 332.6832 
L 237.321164 312.18048 
L 244.625891 295.12512 
L 266.357455 302.92704 
L 279.8712 328.1472 
L 289.9152 339.39648 
L 297.037309 356.81472 
L 299.046109 363.16512 
L 297.037309 365.52384 
L 291.193527 353.18592 
L 272.749091 344.4768 
L 259.052727 331.59456 
L 255.035127 327.24 
L 260.148436 326.15136 
L 274.027418 332.13888 
L 281.332145 334.31616 
L 281.332145 335.76768 
L 275.8536 338.1264 
L 279.505964 340.848 
L 289.549964 339.75936 
L 282.062618 335.04192 
L 282.062618 335.04192 
" clip-path="url(#p61ed1436af)" style="fill: none; stroke-dasharray: 5.55,2.4; stroke-dashoffset: 0; stroke: #008000; stroke-opacity: 0.7; stroke-width: 1.5"/>
   </g>
   <g id="line2d_26">
    <path d="M 81 77.76 
L 583.2 576.72 
" clip-path="url(#p61ed1436af)" style="fill: none; stroke: #000000; stroke-width: 1.5; stroke-linecap: square"/>
   </g>
   <g id="line2d_27">
    <path d="M 81 554.04 
L 649 554.04 
" clip-path="url(#p61ed1436af)" style="fill: none; stroke-dasharray: 9.6,2.4,1.5,2.4; stroke-dashoffset: 0; stroke: #000000; stroke-width: 1.5"/>
   </g>
   <g id="line2d_28">
    <path d="M 103.827273 576.72 
L 103.827273 -1 
" clip-path="url(#p61ed1436af)" style="fill: none; stroke-dasharray: 9.6,2.4,1.5,2.4; stroke-dashoffset: 0; stroke: #000000; stroke-width: 1.5"/>
   </g>
   <g id="line2d_29">
    <path d="M 201.893236 469.85184 
L 205.362982 438.28128 
L 218.146255 414.69408 
L 242.251855 431.02368 
L 256.130836 442.27296 
L 253.939418 455.51808 
L 241.886618 456.60672 
L 223.259564 451.70784 
L 208.832727 434.65248 
L 208.102255 421.40736 
L 217.233164 412.69824 
L 217.050545 405.44064 
L 216.685309 400.36032 
L 232.938327 406.89216 
L 246.452073 414.14976 
L 241.521382 420.50016 
L 241.886618 422.496 
L 240.790909 416.87136 
L 232.025236 407.61792 
L 226.364073 398.0016 
L 225.268364 394.73568 
L 239.329964 399.09024 
L 250.104436 409.25088 
L 247.182545 422.31456 
L 246.634691 419.7744 
L 241.886618 420.13728 
L 239.147345 417.41568 
L 236.225455 415.2384 
L 237.138545 411.79104 
L 235.129745 410.52096 
L 234.216655 408.888 
L 235.6776 407.61792 
L 244.443273 413.424 
L 253.939418 421.95168 
L 259.052727 426.1248 
L 252.478473 422.13312 
L 248.643491 422.67744 
L 244.260655 409.97664 
L 249.008727 405.98496 
L 260.513673 403.98912 
L 265.444364 415.60128 
L 263.435564 421.40736 
L 254.304655 425.2176 
L 252.661091 424.85472 
L 246.999927 423.04032 
L 239.6952 413.424 
L 237.869018 409.61376 
L 244.991127 409.25088 
L 249.556582 409.43232 
L 249.373964 411.24672 
L 249.373964 412.69824 
L 255.7656 417.96 
L 251.200145 423.22176 
L 241.338764 416.87136 
L 245.538982 415.05696 
L 251.565382 410.15808 
L 255.035127 415.05696 
L 255.400364 417.41568 
L 247.913018 416.32704 
L 238.964727 410.88384 
L 236.225455 414.14976 
L 240.973527 417.23424 
L 242.069236 421.22592 
L 234.947127 412.5168 
L 238.051636 406.1664 
L 240.425673 402.35616 
L 245.904218 403.26336 
L 263.618182 416.32704 
L 263.435564 422.31456 
L 253.391564 423.4032 
L 247.7304 419.41152 
L 255.582982 421.40736 
L 253.208945 420.6816 
L 249.373964 417.59712 
L 245.538982 413.78688 
L 242.982327 412.69824 
L 242.799709 406.34784 
L 244.078036 409.7952 
L 249.008727 415.2384 
L 255.7656 421.22592 
L 252.113236 417.0528 
L 246.634691 415.2384 
L 251.382764 415.41984 
L 258.322255 416.50848 
L 258.322255 411.42816 
L 240.608291 405.07776 
L 236.590691 403.4448 
L 245.904218 402.17472 
L 250.104436 407.0736 
L 254.122036 408.52512 
L 244.625891 407.25504 
L 246.999927 425.76192 
L 248.460873 438.64416 
L 235.312364 440.45856 
L 226.729309 441.18432 
L 213.398182 431.38656 
L 210.841527 424.67328 
L 226.911927 429.20928 
L 229.103345 428.48352 
L 213.5808 421.77024 
L 211.206764 416.68992 
L 215.224364 421.22592 
L 219.059345 428.66496 
L 214.859127 432.65664 
L 206.823927 430.84224 
L 203.171564 425.03616 
L 205.910836 425.2176 
L 208.467491 422.496 
L 218.328873 418.32288 
L 221.798618 423.94752 
L 218.876727 425.39904 
L 219.059345 426.66912 
L 211.937236 423.22176 
L 210.111055 416.32704 
L 217.233164 421.5888 
L 231.294764 427.75776 
L 232.755709 435.55968 
L 227.6424 433.20096 
L 218.876727 429.02784 
L 219.789818 425.94336 
L 226.911927 421.22592 
L 220.885527 426.1248 
L 229.468582 433.3824 
L 230.381673 436.104 
L 233.303564 436.104 
L 211.572 421.77024 
L 215.954836 419.7744 
L 217.963636 417.41568 
L 225.6336 423.58464 
L 237.6864 429.93504 
L 236.773309 431.93088 
L 229.833818 431.74944 
L 229.833818 425.2176 
L 230.564291 423.04032 
L 236.408073 428.12064 
L 234.581891 434.2896 
L 229.6512 434.2896 
L 221.433382 426.1248 
L 218.328873 426.66912 
L 219.6072 420.86304 
L 221.616 424.3104 
L 231.842618 425.58048 
L 235.860218 423.58464 
L 231.294764 423.94752 
L 233.303564 422.85888 
L 246.086836 426.30624 
L 244.991127 427.9392 
L 240.243055 429.02784 
L 237.138545 427.21344 
L 243.164945 426.1248 
L 238.599491 427.032 
L 237.6864 431.93088 
L 232.755709 432.11232 
L 229.833818 426.85056 
L 229.6512 424.3104 
L 236.408073 427.75776 
L 232.025236 425.03616 
L 236.955927 424.12896 
L 241.156145 427.39488 
L 241.338764 428.66496 
L 232.025236 428.48352 
L 221.068145 417.23424 
L 226.181455 410.33952 
L 237.503782 412.15392 
L 243.7128 426.66912 
L 244.443273 434.2896 
L 240.243055 433.74528 
L 235.6776 426.48768 
L 237.503782 419.23008 
L 243.895418 416.87136 
L 241.521382 411.97248 
L 241.886618 412.69824 
L 247.7304 413.424 
L 247.182545 413.424 
L 254.487273 417.96 
L 259.417964 425.58048 
L 254.487273 429.02784 
L 249.556582 424.3104 
L 247.547782 419.04864 
L 253.208945 414.69408 
L 261.609382 417.96 
L 270.557673 426.1248 
L 270.009818 425.03616 
L 261.061527 428.12064 
L 258.504873 424.3104 
L 251.748 420.31872 
L 240.608291 411.79104 
L 235.494982 407.0736 
L 241.338764 408.70656 
L 251.200145 411.97248 
L 253.026327 411.6096 
L 255.7656 412.5168 
L 263.252945 411.6096 
L 256.313455 405.2592 
L 250.469673 404.53344 
L 258.322255 409.06944 
L 272.749091 415.2384 
L 270.922909 419.95584 
L 268.914109 421.77024 
L 262.522473 418.14144 
L 267.8184 418.14144 
L 265.992218 414.69408 
L 251.748 407.61792 
L 256.496073 397.27584 
L 265.992218 390.92544 
L 270.922909 390.744 
L 283.158327 398.0016 
L 285.532364 405.80352 
L 279.688582 405.80352 
L 280.419055 405.62208 
L 293.019709 411.06528 
L 291.558764 405.98496 
L 277.131927 403.62624 
L 279.323345 397.82016 
L 277.497164 396.91296 
L 274.575273 395.64288 
L 279.8712 397.27584 
L 284.071418 400.7232 
L 290.097818 401.26752 
L 295.576364 409.25088 
L 292.471855 409.97664 
L 278.592873 402.90048 
L 273.114327 396.00576 
L 280.966909 391.6512 
L 284.254036 395.82432 
L 284.984509 400.54176 
L 274.575273 377.49888 
L 267.087927 351.19008 
L 276.584073 340.30368 
L 297.9504 355.3632 
L 317.307927 383.84928 
L 326.986691 413.78688 
L 309.637964 413.60544 
L 278.592873 402.17472 
L 261.792 382.94208 
L 246.452073 362.07648 
L 248.095636 344.29536 
L 268.001018 342.29952 
L 289.9152 358.26624 
L 297.9504 380.22048 
L 291.558764 391.46976 
L 278.592873 388.20384 
L 264.348655 374.77728 
L 257.226545 366.79392 
L 242.617091 349.73856 
L 243.895418 338.48928 
L 255.035127 340.12224 
L 271.288145 350.28288 
L 277.497164 363.34656 
L 283.158327 379.49472 
L 281.88 389.11104 
L 270.009818 383.12352 
L 257.043927 372.96288 
L 250.287055 351.00864 
L 265.261745 357.35904 
L 290.280436 371.6928 
L 310.368436 389.65536 
L 312.559855 408.34368 
L 289.732582 404.352 
L 266.905309 399.27168 
L 249.373964 391.10688 
L 248.643491 366.97536 
L 249.373964 340.30368 
L 251.930618 329.41728 
L 262.887709 339.57792 
L 286.628073 354.27456 
L 306.898691 381.85344 
L 321.690764 409.25088 
L 307.629164 411.79104 
L 263.252945 384.93792 
L 222.163855 351.7344 
L 209.928436 306.01152 
L 213.398182 273.35232 
L 222.894327 264.46176 
L 249.921818 291.31488 
L 282.793091 322.704 
L 308.907491 361.35072 
L 316.760073 390.92544 
L 299.9592 402.71904 
L 267.453164 389.11104 
L 245.356364 361.53216 
L 232.025236 327.78432 
L 222.711709 292.40352 
L 228.372873 282.96864 
L 240.608291 279.70272 
L 260.696291 297.84672 
L 291.010909 335.04192 
L 311.098909 363.34656 
L 319.864582 387.29664 
L 311.098909 401.08608 
L 289.002109 395.28 
L 264.348655 376.77312 
L 241.704 348.1056 
L 231.294764 327.60288 
L 243.895418 312.54336 
L 261.609382 316.17216 
L 273.296945 327.78432 
L 285.532364 350.64576 
L 292.106618 365.16096 
L 287.9064 368.42688 
L 268.183636 355.54464 
L 241.338764 333.22752 
L 220.520291 303.10848 
L 211.937236 276.61824 
L 226.911927 277.70688 
L 255.400364 290.77056 
L 284.436655 320.16384 
L 295.393745 350.8272 
L 297.9504 374.95872 
L 298.315636 390.38112 
L 281.149527 377.136 
L 265.8096 352.82304 
L 256.130836 342.29952 
L 243.530182 327.42144 
L 238.964727 312.18048 
L 242.617091 303.28992 
L 252.295855 303.47136 
L 267.453164 309.096 
L 267.8184 324.15552 
L 280.053818 338.1264 
L 294.298036 349.0128 
L 302.698473 362.43936 
L 292.289236 368.9712 
L 274.392655 369.33408 
L 260.148436 350.64576 
L 255.582982 330.68736 
L 251.748 311.63616 
L 253.208945 304.01568 
L 250.834909 304.19712 
L 255.582982 313.45056 
L 258.870109 314.35776 
L 262.705091 317.80512 
L 265.992218 328.69152 
L 277.679782 335.22336 
L 279.323345 333.95328 
L 270.740291 334.86048 
L 264.531273 336.13056 
L 249.7392 326.15136 
L 241.886618 311.8176 
L 241.704 298.57248 
L 250.834909 302.56416 
L 253.7568 302.38272 
L 267.270545 317.2608 
L 280.966909 337.58208 
L 287.9064 353.5488 
L 292.289236 365.52384 
L 294.663273 373.68864 
L 280.236436 363.528 
L 258.687491 345.20256 
L 241.886618 322.704 
L 242.799709 310.0032 
L 257.226545 314.17632 
L 272.383855 313.632 
L 291.376145 332.32032 
L 305.802982 359.53632 
L 315.846982 381.12768 
L 315.846982 396.36864 
L 306.716073 393.64704 
L 277.8624 374.95872 
L 264.348655 356.63328 
L 243.7128 333.77184 
L 235.494982 312.54336 
L 248.643491 304.37856 
L 269.8272 306.01152 
L 286.445455 324.33696 
L 294.480655 341.7552 
L 290.645673 349.37568 
L 281.697382 347.74272 
L 271.105527 343.5696 
L 258.504873 330.50592 
L 237.138545 306.01152 
L 230.564291 292.40352 
L 231.66 290.77056 
L 252.113236 297.48384 
L 285.167127 322.34112 
L 315.664364 354.09312 
L 334.474036 388.0224 
L 335.934982 409.97664 
L 323.334327 413.06112 
L 293.9328 406.34784 
L 260.878909 386.208 
L 236.590691 352.46016 
L 218.511491 310.9104 
L 204.815127 271.17504 
L 204.267273 255.38976 
L 212.850327 248.3136 
L 229.833818 260.47008 
L 263.618182 292.22208 
L 290.463055 329.9616 
L 316.394836 364.25376 
L 336.300218 396.1872 
L 331.552145 405.98496 
L 305.9856 393.28416 
L 273.114327 374.77728 
L 242.799709 346.65408 
L 225.6336 307.82592 
L 226.729309 284.6016 
L 245.538982 286.59744 
L 255.035127 300.56832 
L 279.688582 329.23584 
L 312.559855 361.7136 
L 333.378327 398.54592 
L 329.908582 406.71072 
L 299.228727 387.65952 
L 256.313455 362.98368 
L 230.199055 331.05024 
L 227.6424 298.57248 
L 234.764509 283.33152 
L 263.8008 302.7456 
L 292.654473 335.4048 
L 305.9856 361.16928 
L 303.9768 375.86592 
L 285.532364 376.41024 
L 273.8448 371.6928 
L 259.600582 345.56544 
L 246.452073 322.15968 
L 233.303564 307.82592 
L 235.312364 294.94368 
L 243.895418 292.94784 
L 261.974618 307.82592 
L 285.714982 339.39648 
L 295.576364 356.81472 
L 289.002109 360.8064 
L 270.009818 355.90752 
L 259.052727 346.10976 
L 256.496073 335.4048 
L 243.347564 314.72064 
L 232.573091 309.45888 
L 236.773309 312.7248 
L 262.887709 324.69984 
L 287.175927 345.02112 
L 293.202327 364.25376 
L 296.489455 384.93792 
L 291.376145 384.57504 
L 274.027418 373.14432 
L 247.182545 354.09312 
L 228.920727 332.86464 
L 213.946036 305.4672 
L 218.876727 276.98112 
L 245.173745 283.87584 
L 268.731491 309.27744 
L 286.080218 333.77184 
L 292.106618 352.09728 
L 291.741382 363.34656 
L 281.149527 372.6 
L 261.609382 367.70112 
L 252.843709 353.36736 
L 243.347564 333.95328 
L 249.556582 330.68736 
L 256.496073 325.78848 
L 261.792 330.68736 
L 269.644582 340.30368 
L 281.697382 353.73024 
L 297.037309 371.6928 
L 300.324436 389.11104 
L 288.819491 396.36864 
L 264.713891 385.66368 
L 246.269455 373.14432 
L 246.817309 366.97536 
L 263.983418 355.54464 
L 283.706182 354.27456 
L 285.532364 366.43104 
L 288.271636 383.12352 
L 284.984509 394.00992 
L 278.592873 395.28 
L 262.522473 379.13184 
L 232.390473 350.64576 
L 225.450982 333.22752 
L 245.904218 330.8688 
L 276.766691 345.74688 
L 309.272727 383.4864 
L 310.368436 405.98496 
L 300.141818 422.13312 
L 279.323345 422.13312 
L 254.304655 402.17472 
L 235.312364 374.4144 
L 215.954836 344.83968 
L 221.433382 326.3328 
L 241.338764 321.25248 
L 266.174836 335.4048 
L 286.993309 362.98368 
L 296.489455 391.6512 
L 299.593964 417.23424 
L 288.636873 423.04032 
L 258.504873 404.71488 
L 232.207855 374.59584 
L 225.268364 350.28288 
L 236.955927 339.75936 
L 249.7392 337.58208 
L 259.7832 346.10976 
L 270.192436 366.79392 
L 278.592873 403.26336 
L 289.002109 429.02784 
L 283.706182 440.45856 
L 255.400364 440.27712 
L 219.424582 418.14144 
L 198.971345 386.57088 
L 206.458691 360.44352 
L 232.573091 359.8992 
L 257.226545 371.51136 
L 274.210036 387.65952 
L 281.149527 402.90048 
L 281.88 409.61376 
L 278.592873 407.9808 
L 271.653382 405.44064 
L 258.687491 395.82432 
L 254.852509 390.38112 
L 268.731491 391.46976 
L 280.236436 401.08608 
L 280.419055 406.52928 
L 284.619273 412.69824 
L 290.463055 416.1456 
L 285.349745 415.60128 
L 286.810691 409.97664 
L 277.131927 404.89632 
L 278.592873 417.96 
L 279.688582 418.50432 
L 261.244145 411.97248 
L 248.826109 407.9808 
L 246.999927 406.34784 
L 262.522473 407.79936 
L 269.096727 407.0736 
L 272.018618 416.87136 
L 278.592873 425.76192 
L 279.8712 436.28544 
L 257.409164 430.47936 
L 243.7128 416.50848 
L 242.251855 405.62208 
L 247.365164 401.99328 
L 258.870109 404.71488 
L 271.470764 417.0528 
L 282.793091 430.29792 
L 268.183636 431.20512 
L 249.7392 427.21344 
L 242.434473 424.67328 
L 234.947127 420.6816 
L 238.051636 413.06112 
L 236.955927 408.52512 
L 236.225455 402.35616 
L 242.434473 406.71072 
L 242.799709 408.34368 
L 241.521382 410.15808 
L 252.661091 418.50432 
L 268.366255 427.9392 
L 271.836 430.84224 
L 259.417964 428.48352 
L 245.356364 420.86304 
L 239.512582 413.24256 
L 242.982327 407.61792 
L 250.287055 411.79104 
L 254.852509 429.39072 
L 256.313455 431.568 
L 243.347564 430.29792 
L 229.285964 420.50016 
L 225.450982 413.78688 
L 236.590691 416.32704 
L 234.581891 415.96416 
L 238.599491 420.31872 
L 245.904218 430.6608 
L 251.382764 436.82976 
L 251.748 440.27712 
L 242.799709 435.92256 
L 226.364073 428.12064 
L 233.120945 423.58464 
L 246.086836 423.22176 
L 247.365164 427.39488 
L 235.860218 427.39488 
L 231.477382 431.02368 
L 230.746909 425.94336 
L 233.303564 428.30208 
L 232.025236 424.3104 
L 231.112145 420.6816 
L 237.138545 416.50848 
L 237.869018 417.23424 
L 239.6952 419.23008 
L 244.625891 424.3104 
L 246.452073 426.85056 
L 246.634691 428.12064 
L 238.051636 427.21344 
L 231.66 418.68576 
L 232.207855 417.59712 
L 229.6512 420.6816 
L 230.564291 425.58048 
L 234.947127 425.76192 
L 237.503782 427.75776 
L 237.138545 428.12064 
L 234.216655 428.66496 
L 230.564291 426.48768 
L 226.729309 422.85888 
L 225.998836 427.9392 
L 226.729309 435.37824 
L 230.564291 442.63584 
L 231.66 444.99456 
L 226.364073 443.3616 
L 218.328873 434.47104 
L 204.267273 427.57632 
L 205.910836 426.1248 
L 212.485091 429.20928 
L 211.389382 431.93088 
L 212.302473 436.28544 
L 210.293673 435.74112 
L 203.719418 426.1248 
L 205.180364 422.13312 
L 209.928436 420.13728 
L 219.6072 425.2176 
L 222.711709 427.75776 
L 228.738109 435.37824 
L 229.285964 432.29376 
L 230.016436 430.11648 
L 232.025236 428.30208 
L 223.442182 432.83808 
L 221.433382 436.64832 
L 218.876727 432.29376 
L 212.667709 425.58048 
L 212.667709 423.22176 
L 215.406982 424.12896 
L 215.041745 421.77024 
L 224.355273 427.57632 
L 234.581891 429.7536 
L 229.103345 432.65664 
L 231.112145 440.45856 
L 226.364073 437.73696 
L 222.346473 436.82976 
L 224.172655 432.29376 
L 223.076945 429.39072 
L 213.032945 427.032 
L 209.197964 426.85056 
L 210.293673 429.57216 
L 215.954836 417.77856 
L 217.781018 404.89632 
L 225.450982 398.36448 
L 237.869018 397.45728 
L 255.582982 409.43232 
L 275.305745 422.496 
L 267.087927 426.30624 
L 252.661091 426.1248 
L 249.556582 413.06112 
L 235.494982 403.4448 
L 238.416873 399.09024 
L 243.7128 401.81184 
L 252.113236 410.15808 
L 262.157236 416.32704 
L 264.166036 427.57632 
L 253.391564 425.94336 
L 247.7304 423.76608 
L 244.808509 416.32704 
L 241.886618 403.08192 
L 241.156145 395.82432 
L 242.251855 397.0944 
L 259.965818 414.51264 
L 265.079127 423.76608 
L 244.625891 421.40736 
L 237.138545 423.4032 
L 240.790909 417.96 
L 244.443273 413.60544 
L 259.417964 420.50016 
L 248.643491 418.50432 
L 235.312364 411.06528 
L 239.329964 412.33536 
L 245.356364 409.25088 
L 240.425673 406.34784 
L 239.512582 401.44896 
L 243.164945 402.35616 
L 245.904218 404.89632 
L 248.460873 408.70656 
L 251.382764 410.52096 
L 251.565382 411.24672 
L 256.861309 410.15808 
L 258.870109 409.06944 
L 261.061527 410.7024 
L 268.001018 412.15392 
L 262.157236 415.78272 
L 255.217745 413.24256 
L 258.870109 412.5168 
L 247.7304 410.88384 
L 246.269455 405.07776 
L 248.278255 406.71072 
L 250.469673 406.1664 
L 255.217745 415.2384 
L 256.130836 418.8672 
L 247.7304 420.31872 
L 239.147345 413.96832 
L 238.782109 412.15392 
L 236.955927 408.34368 
L 238.782109 404.89632 
L 239.877818 404.89632 
L 244.078036 409.7952 
L 246.452073 416.50848 
L 248.278255 417.0528 
L 247.913018 423.76608 
L 242.069236 423.58464 
L 234.764509 417.96 
L 234.947127 413.78688 
L 234.216655 409.25088 
L 239.512582 409.43232 
L 241.886618 411.24672 
L 244.808509 414.14976 
L 248.278255 415.60128 
L 240.060436 417.59712 
L 238.599491 414.51264 
L 242.069236 413.24256 
L 240.608291 412.87968 
L 233.120945 410.52096 
L 239.329964 412.5168 
L 250.104436 416.68992 
L 246.999927 419.41152 
L 243.347564 414.14976 
L 231.842618 405.2592 
L 234.764509 405.98496 
L 243.895418 407.43648 
L 242.069236 403.08192 
L 246.817309 408.34368 
L 248.460873 413.60544 
L 244.625891 408.70656 
L 240.790909 409.61376 
L 246.999927 416.68992 
L 247.7304 421.95168 
L 246.634691 419.04864 
L 238.416873 420.50016 
L 238.782109 423.94752 
L 243.347564 425.39904 
L 239.329964 415.05696 
L 228.555491 407.79936 
L 225.998836 404.352 
L 227.094545 407.0736 
L 234.034036 413.78688 
L 247.7304 419.04864 
L 253.939418 425.2176 
L 251.930618 432.11232 
L 238.416873 421.40736 
L 233.6688 415.78272 
L 235.6776 410.88384 
L 235.6776 416.68992 
L 240.973527 410.33952 
L 239.6952 414.14976 
L 245.356364 414.3312 
L 245.173745 416.87136 
L 252.661091 421.40736 
L 250.469673 419.41152 
L 231.112145 411.42816 
L 227.825018 407.25504 
L 238.234255 406.52928 
L 252.661091 418.8672 
L 254.122036 415.96416 
L 239.147345 419.59296 
L 231.294764 416.1456 
L 230.746909 415.05696 
L 236.773309 415.78272 
L 242.617091 419.23008 
L 248.826109 419.41152 
L 237.6864 417.41568 
L 234.216655 412.15392 
L 232.207855 405.44064 
L 238.234255 399.63456 
L 242.434473 408.888 
L 241.156145 412.69824 
L 236.408073 407.61792 
L 234.581891 407.43648 
L 240.060436 405.80352 
L 253.026327 411.24672 
L 255.7656 420.50016 
L 242.617091 419.41152 
L 236.773309 417.96 
L 242.982327 415.05696 
L 246.817309 417.96 
L 246.999927 413.78688 
L 240.060436 411.24672 
L 237.321164 406.1664 
L 239.147345 405.07776 
L 243.530182 407.43648 
L 251.930618 420.13728 
L 256.130836 417.23424 
L 240.608291 416.1456 
L 244.078036 412.69824 
L 252.478473 417.77856 
L 253.208945 416.87136 
L 236.590691 417.23424 
L 232.207855 413.78688 
L 245.7216 418.68576 
L 252.843709 418.50432 
L 246.269455 411.6096 
L 238.416873 408.16224 
L 238.599491 413.06112 
L 237.138545 406.89216 
L 238.051636 409.06944 
L 234.764509 407.61792 
L 230.929527 407.9808 
L 234.399273 400.54176 
L 236.225455 405.2592 
L 237.6864 403.26336 
L 248.643491 411.97248 
L 252.843709 413.78688 
L 260.148436 422.67744 
L 255.948218 429.02784 
L 249.191345 421.77024 
L 239.6952 418.68576 
L 238.051636 408.52512 
L 240.060436 402.17472 
L 238.782109 400.90464 
L 242.251855 408.16224 
L 251.017527 411.42816 
L 251.200145 416.50848 
L 244.443273 415.96416 
L 234.034036 407.25504 
L 232.390473 399.63456 
L 234.764509 394.55424 
L 241.521382 426.66912 
L 251.565382 445.72032 
L 243.347564 452.25216 
L 225.085745 441.72864 
L 223.076945 433.01952 
L 223.259564 429.57216 
L 219.059345 430.47936 
L 215.772218 426.66912 
L 214.493891 423.76608 
L 221.433382 423.04032 
L 231.477382 427.75776 
L 238.782109 435.92256 
L 238.782109 437.37408 
L 228.555491 438.46272 
L 225.6336 436.64832 
L 223.807418 435.37824 
L 223.807418 434.65248 
L 219.059345 421.22592 
L 216.137455 422.85888 
L 225.450982 431.02368 
L 225.085745 432.11232 
L 221.616 428.66496 
L 214.493891 422.496 
L 214.859127 419.23008 
L 216.137455 422.496 
L 221.250764 428.66496 
L 230.746909 437.19264 
L 234.581891 447.8976 
L 214.859127 436.46688 
L 216.685309 426.30624 
L 218.876727 420.13728 
L 224.720509 423.04032 
L 230.746909 429.7536 
L 237.321164 433.01952 
L 238.599491 438.46272 
L 227.6424 432.65664 
L 214.311273 425.39904 
L 218.876727 419.95584 
L 224.720509 418.8672 
L 230.746909 424.85472 
L 236.773309 432.65664 
L 232.938327 434.47104 
L 231.294764 436.104 
L 223.990036 429.57216 
L 216.867927 424.67328 
L 223.259564 417.0528 
L 232.755709 418.8672 
L 234.947127 419.7744 
L 239.329964 424.12896 
L 242.251855 427.75776 
L 245.7216 433.92672 
L 245.7216 435.92256 
L 238.234255 433.92672 
L 227.6424 430.84224 
L 225.085745 421.77024 
L 224.355273 417.23424 
L 228.920727 418.32288 
L 241.521382 427.21344 
L 237.869018 429.20928 
L 245.7216 438.28128 
L 248.095636 443.3616 
L 235.860218 434.65248 
L 222.711709 430.6608 
L 220.337673 424.49184 
L 219.424582 419.04864 
L 224.903127 422.496 
L 226.911927 423.22176 
L 230.929527 426.66912 
L 232.025236 429.20928 
L 225.085745 424.67328 
L 224.720509 422.496 
L 222.529091 414.14976 
L 223.6248 406.71072 
L 233.120945 407.9808 
L 242.251855 415.41984 
L 246.634691 422.85888 
L 248.278255 436.28544 
L 243.164945 439.36992 
L 234.216655 430.11648 
L 223.076945 415.2384 
L 225.6336 410.33952 
L 235.494982 412.33536 
L 243.530182 413.06112 
L 246.999927 418.14144 
L 250.104436 421.22592 
L 245.904218 422.67744 
L 239.6952 418.50432 
L 240.243055 412.33536 
L 247.182545 409.61376 
L 250.287055 411.06528 
L 255.400364 408.888 
L 257.409164 416.50848 
L 256.313455 420.86304 
L 250.834909 419.95584 
L 249.008727 424.49184 
L 250.287055 423.04032 
L 257.409164 428.30208 
L 254.304655 428.48352 
L 245.7216 422.31456 
L 244.991127 418.68576 
L 241.338764 411.06528 
L 243.7128 405.2592 
L 257.226545 406.52928 
L 274.027418 417.41568 
L 268.366255 420.6816 
L 263.435564 417.59712 
L 264.166036 413.06112 
L 266.174836 413.60544 
L 273.8448 413.78688 
L 277.131927 414.3312 
L 275.8536 416.32704 
L 263.435564 411.97248 
L 261.426764 416.87136 
L 265.8096 419.95584 
L 259.965818 403.98912 
L 259.052727 392.92128 
L 268.731491 390.19968 
L 276.766691 394.91712 
L 284.984509 402.90048 
L 296.124218 410.15808 
L 299.593964 412.15392 
L 280.053818 411.6096 
L 268.914109 399.99744 
L 266.905309 391.46976 
L 275.488364 398.9088 
L 290.828291 404.352 
L 280.784291 401.26752 
L 267.635782 391.10688 
L 265.444364 382.94208 
L 276.584073 385.11936 
L 289.367345 396.36864 
L 295.576364 409.43232 
L 295.576364 415.78272 
L 278.958109 407.9808 
L 257.591782 395.09856 
L 253.391564 379.67616 
L 265.079127 378.22464 
L 280.053818 360.08064 
L 291.193527 355.72608 
L 305.072509 366.61248 
L 309.272727 375.68448 
L 310.368436 387.29664 
L 308.724873 396.1872 
L 300.324436 398.72736 
L 293.202327 387.1152 
L 273.8448 376.59168 
L 269.461964 367.33824 
L 273.662182 353.91168 
L 284.436655 356.81472 
L 299.776582 373.32576 
L 308.907491 399.99744 
L 309.272727 413.96832 
L 279.688582 406.52928 
L 238.051636 382.39776 
L 228.372873 351.19008 
L 242.617091 332.86464 
L 259.052727 330.8688 
L 274.940509 340.12224 
L 297.585164 372.05568 
L 311.829382 398.72736 
L 306.898691 408.16224 
L 286.810691 404.71488 
L 265.444364 387.29664 
L 244.443273 358.81056 
L 241.338764 330.68736 
L 263.618182 327.42144 
L 289.9152 348.83136 
L 303.9768 375.68448 
L 302.881091 396.55008 
L 292.654473 408.16224 
L 281.332145 394.00992 
L 257.226545 366.79392 
L 236.773309 344.11392 
L 225.6336 330.8688 
L 238.782109 321.7968 
L 257.7744 320.16384 
L 278.958109 334.86048 
L 293.567564 359.71776 
L 295.576364 386.208 
L 292.106618 401.44896 
L 287.723782 396.91296 
L 265.079127 376.04736 
L 233.851418 340.66656 
L 217.050545 310.36608 
L 222.163855 284.96448 
L 235.6776 278.97696 
L 263.070327 308.1888 
L 297.037309 346.65408 
L 328.995491 384.93792 
L 331.004291 408.888 
L 307.446545 409.7952 
L 271.470764 379.49472 
L 238.782109 350.10144 
L 224.903127 321.97824 
L 230.929527 293.12928 
L 238.416873 281.69856 
L 250.834909 288.95616 
L 263.435564 313.99488 
L 285.714982 341.93664 
L 302.515855 366.43104 
L 306.168218 382.21632 
L 283.340945 371.6928 
L 253.391564 359.8992 
L 228.920727 342.29952 
L 224.172655 310.72896 
L 228.372873 286.77888 
L 235.312364 284.96448 
L 249.008727 295.12512 
L 263.252945 308.1888 
L 275.305745 330.14304 
L 286.080218 345.02112 
L 293.567564 360.8064 
L 295.211127 364.97952 
L 280.053818 355.3632 
L 249.556582 342.6624 
L 239.6952 328.32864 
L 233.6688 307.82592 
L 240.060436 296.21376 
L 247.913018 289.1376 
L 260.513673 302.56416 
L 281.332145 327.42144 
L 308.724873 361.16928 
L 322.969091 383.4864 
L 314.203418 396.00576 
L 284.071418 380.7648 
L 258.687491 352.46016 
L 244.808509 333.22752 
L 249.191345 319.61952 
L 262.705091 308.1888 
L 275.8536 326.69568 
L 296.124218 350.46432 
L 314.751273 369.15264 
L 321.508145 379.49472 
L 319.316727 382.76064 
L 305.802982 384.57504 
L 287.358545 377.68032 
L 273.479564 363.16512 
L 259.7832 339.75936 
L 250.834909 321.7968 
L 250.834909 321.43392 
L 259.600582 323.97408 
L 270.192436 330.14304 
L 285.714982 341.57376 
L 305.255127 358.992 
L 320.412436 376.95456 
L 311.829382 386.208 
L 294.480655 386.38944 
L 272.566473 366.79392 
L 251.748 330.68736 
L 233.120945 297.12096 
L 221.068145 271.9008 
L 229.468582 272.808 
L 256.678691 291.67776 
L 298.133018 331.776 
L 330.273818 371.32992 
L 342.326618 399.816 
L 324.977891 404.17056 
L 283.523564 376.59168 
L 243.164945 341.02944 
L 215.954836 300.74976 
L 210.476291 266.63904 
L 222.894327 252.30528 
L 244.260655 269.90496 
L 267.453164 298.93536 
L 303.794182 337.94496 
L 338.674255 378.0432 
L 351.640145 411.42816 
L 334.474036 416.50848 
L 334.474036 416.50848 
" clip-path="url(#p61ed1436af)" style="fill: none; stroke-dasharray: 5.55,2.4; stroke-dashoffset: 0; stroke: #800080; stroke-opacity: 0.7; stroke-width: 1.5"/>
   </g>
   <g id="line2d_30">
    <path d="M 81 77.76 
L 583.2 576.72 
" clip-path="url(#p61ed1436af)" style="fill: none; stroke: #000000; stroke-width: 1.5; stroke-linecap: square"/>
   </g>
   <g id="line2d_31">
    <path d="M 81 554.04 
L 649 554.04 
" clip-path="url(#p61ed1436af)" style="fill: none; stroke-dasharray: 9.6,2.4,1.5,2.4; stroke-dashoffset: 0; stroke: #000000; stroke-width: 1.5"/>
   </g>
   <g id="line2d_32">
    <path d="M 103.827273 576.72 
L 103.827273 -1 
" clip-path="url(#p61ed1436af)" style="fill: none; stroke-dasharray: 9.6,2.4,1.5,2.4; stroke-dashoffset: 0; stroke: #000000; stroke-width: 1.5"/>
   </g>
   <g id="patch_3">
    <path d="M 81 576.72 
L 81 77.76 
" style="fill: none; stroke: #000000; stroke-width: 0.8; stroke-linejoin: miter; stroke-linecap: square"/>
   </g>
   <g id="patch_4">
    <path d="M 583.2 576.72 
L 583.2 77.76 
" style="fill: none; stroke: #000000; stroke-width: 0.8; stroke-linejoin: miter; stroke-linecap: square"/>
   </g>
   <g id="patch_5">
    <path d="M 81 576.72 
L 583.2 576.72 
" style="fill: none; stroke: #000000; stroke-width: 0.8; stroke-linejoin: miter; stroke-linecap: square"/>
   </g>
   <g id="patch_6">
    <path d="M 81 77.76 
L 583.2 77.76 
" style="fill: none; stroke: #000000; stroke-width: 0.8; stroke-linejoin: miter; stroke-linecap: square"/>
   </g>
   <g id="text_15">
    <!-- Phase diagram with an approximate initial 20% predator population -->
    <g transform="translate(128.307188 71.76) scale(0.12 -0.12)">
     <defs>
      <path id="DejaVuSans-68" d="M 3513 2113 
L 3513 0 
L 2938 0 
L 2938 2094 
Q 2938 2591 2744 2837 
Q 2550 3084 2163 3084 
Q 1697 3084 1428 2787 
Q 1159 2491 1159 1978 
L 1159 0 
L 581 0 
L 581 4863 
L 1159 4863 
L 1159 2956 
Q 1366 3272 1645 3428 
Q 1925 3584 2291 3584 
Q 2894 3584 3203 3211 
Q 3513 2838 3513 2113 
z
" transform="scale(0.015625)"/>
      <path id="DejaVuSans-73" d="M 2834 3397 
L 2834 2853 
Q 2591 2978 2328 3040 
Q 2066 3103 1784 3103 
Q 1356 3103 1142 2972 
Q 928 2841 928 2578 
Q 928 2378 1081 2264 
Q 1234 2150 1697 2047 
L 1894 2003 
Q 2506 1872 2764 1633 
Q 3022 1394 3022 966 
Q 3022 478 2636 193 
Q 2250 -91 1575 -91 
Q 1294 -91 989 -36 
Q 684 19 347 128 
L 347 722 
Q 666 556 975 473 
Q 1284 391 1588 391 
Q 1994 391 2212 530 
Q 2431 669 2431 922 
Q 2431 1156 2273 1281 
Q 2116 1406 1581 1522 
L 1381 1569 
Q 847 1681 609 1914 
Q 372 2147 372 2553 
Q 372 3047 722 3315 
Q 1072 3584 1716 3584 
Q 2034 3584 2315 3537 
Q 2597 3491 2834 3397 
z
" transform="scale(0.015625)"/>
      <path id="DejaVuSans-67" d="M 2906 1791 
Q 2906 2416 2648 2759 
Q 2391 3103 1925 3103 
Q 1463 3103 1205 2759 
Q 947 2416 947 1791 
Q 947 1169 1205 825 
Q 1463 481 1925 481 
Q 2391 481 2648 825 
Q 2906 1169 2906 1791 
z
M 3481 434 
Q 3481 -459 3084 -895 
Q 2688 -1331 1869 -1331 
Q 1566 -1331 1297 -1286 
Q 1028 -1241 775 -1147 
L 775 -588 
Q 1028 -725 1275 -790 
Q 1522 -856 1778 -856 
Q 2344 -856 2625 -561 
Q 2906 -266 2906 331 
L 2906 616 
Q 2728 306 2450 153 
Q 2172 0 1784 0 
Q 1141 0 747 490 
Q 353 981 353 1791 
Q 353 2603 747 3093 
Q 1141 3584 1784 3584 
Q 2172 3584 2450 3431 
Q 2728 3278 2906 2969 
L 2906 3500 
L 3481 3500 
L 3481 434 
z
" transform="scale(0.015625)"/>
      <path id="DejaVuSans-6d" d="M 3328 2828 
Q 3544 3216 3844 3400 
Q 4144 3584 4550 3584 
Q 5097 3584 5394 3201 
Q 5691 2819 5691 2113 
L 5691 0 
L 5113 0 
L 5113 2094 
Q 5113 2597 4934 2840 
Q 4756 3084 4391 3084 
Q 3944 3084 3684 2787 
Q 3425 2491 3425 1978 
L 3425 0 
L 2847 0 
L 2847 2094 
Q 2847 2600 2669 2842 
Q 2491 3084 2119 3084 
Q 1678 3084 1418 2786 
Q 1159 2488 1159 1978 
L 1159 0 
L 581 0 
L 581 3500 
L 1159 3500 
L 1159 2956 
Q 1356 3278 1631 3431 
Q 1906 3584 2284 3584 
Q 2666 3584 2933 3390 
Q 3200 3197 3328 2828 
z
" transform="scale(0.015625)"/>
      <path id="DejaVuSans-77" d="M 269 3500 
L 844 3500 
L 1563 769 
L 2278 3500 
L 2956 3500 
L 3675 769 
L 4391 3500 
L 4966 3500 
L 4050 0 
L 3372 0 
L 2619 2869 
L 1863 0 
L 1184 0 
L 269 3500 
z
" transform="scale(0.015625)"/>
      <path id="DejaVuSans-78" d="M 3513 3500 
L 2247 1797 
L 3578 0 
L 2900 0 
L 1881 1375 
L 863 0 
L 184 0 
L 1544 1831 
L 300 3500 
L 978 3500 
L 1906 2253 
L 2834 3500 
L 3513 3500 
z
" transform="scale(0.015625)"/>
      <path id="DejaVuSans-25" d="M 4653 2053 
Q 4381 2053 4226 1822 
Q 4072 1591 4072 1178 
Q 4072 772 4226 539 
Q 4381 306 4653 306 
Q 4919 306 5073 539 
Q 5228 772 5228 1178 
Q 5228 1588 5073 1820 
Q 4919 2053 4653 2053 
z
M 4653 2450 
Q 5147 2450 5437 2106 
Q 5728 1763 5728 1178 
Q 5728 594 5436 251 
Q 5144 -91 4653 -91 
Q 4153 -91 3862 251 
Q 3572 594 3572 1178 
Q 3572 1766 3864 2108 
Q 4156 2450 4653 2450 
z
M 1428 4353 
Q 1159 4353 1004 4120 
Q 850 3888 850 3481 
Q 850 3069 1003 2837 
Q 1156 2606 1428 2606 
Q 1700 2606 1854 2837 
Q 2009 3069 2009 3481 
Q 2009 3884 1853 4118 
Q 1697 4353 1428 4353 
z
M 4250 4750 
L 4750 4750 
L 1831 -91 
L 1331 -91 
L 4250 4750 
z
M 1428 4750 
Q 1922 4750 2215 4408 
Q 2509 4066 2509 3481 
Q 2509 2891 2217 2550 
Q 1925 2209 1428 2209 
Q 931 2209 642 2551 
Q 353 2894 353 3481 
Q 353 4063 643 4406 
Q 934 4750 1428 4750 
z
" transform="scale(0.015625)"/>
     </defs>
     <use xlink:href="#DejaVuSans-50"/>
     <use xlink:href="#DejaVuSans-68" x="60.302734"/>
     <use xlink:href="#DejaVuSans-61" x="123.681641"/>
     <use xlink:href="#DejaVuSans-73" x="184.960938"/>
     <use xlink:href="#DejaVuSans-65" x="237.060547"/>
     <use xlink:href="#DejaVuSans-20" x="298.583984"/>
     <use xlink:href="#DejaVuSans-64" x="330.371094"/>
     <use xlink:href="#DejaVuSans-69" x="393.847656"/>
     <use xlink:href="#DejaVuSans-61" x="421.630859"/>
     <use xlink:href="#DejaVuSans-67" x="482.910156"/>
     <use xlink:href="#DejaVuSans-72" x="546.386719"/>
     <use xlink:href="#DejaVuSans-61" x="587.5"/>
     <use xlink:href="#DejaVuSans-6d" x="648.779297"/>
     <use xlink:href="#DejaVuSans-20" x="746.191406"/>
     <use xlink:href="#DejaVuSans-77" x="777.978516"/>
     <use xlink:href="#DejaVuSans-69" x="859.765625"/>
     <use xlink:href="#DejaVuSans-74" x="887.548828"/>
     <use xlink:href="#DejaVuSans-68" x="926.757812"/>
     <use xlink:href="#DejaVuSans-20" x="990.136719"/>
     <use xlink:href="#DejaVuSans-61" x="1021.923828"/>
     <use xlink:href="#DejaVuSans-6e" x="1083.203125"/>
     <use xlink:href="#DejaVuSans-20" x="1146.582031"/>
     <use xlink:href="#DejaVuSans-61" x="1178.369141"/>
     <use xlink:href="#DejaVuSans-70" x="1239.648438"/>
     <use xlink:href="#DejaVuSans-70" x="1303.125"/>
     <use xlink:href="#DejaVuSans-72" x="1366.601562"/>
     <use xlink:href="#DejaVuSans-6f" x="1405.464844"/>
     <use xlink:href="#DejaVuSans-78" x="1463.521484"/>
     <use xlink:href="#DejaVuSans-69" x="1522.701172"/>
     <use xlink:href="#DejaVuSans-6d" x="1550.484375"/>
     <use xlink:href="#DejaVuSans-61" x="1647.896484"/>
     <use xlink:href="#DejaVuSans-74" x="1709.175781"/>
     <use xlink:href="#DejaVuSans-65" x="1748.384766"/>
     <use xlink:href="#DejaVuSans-20" x="1809.908203"/>
     <use xlink:href="#DejaVuSans-69" x="1841.695312"/>
     <use xlink:href="#DejaVuSans-6e" x="1869.478516"/>
     <use xlink:href="#DejaVuSans-69" x="1932.857422"/>
     <use xlink:href="#DejaVuSans-74" x="1960.640625"/>
     <use xlink:href="#DejaVuSans-69" x="1999.849609"/>
     <use xlink:href="#DejaVuSans-61" x="2027.632812"/>
     <use xlink:href="#DejaVuSans-6c" x="2088.912109"/>
     <use xlink:href="#DejaVuSans-20" x="2116.695312"/>
     <use xlink:href="#DejaVuSans-32" x="2148.482422"/>
     <use xlink:href="#DejaVuSans-30" x="2212.105469"/>
     <use xlink:href="#DejaVuSans-25" x="2275.728516"/>
     <use xlink:href="#DejaVuSans-20" x="2370.748047"/>
     <use xlink:href="#DejaVuSans-70" x="2402.535156"/>
     <use xlink:href="#DejaVuSans-72" x="2466.011719"/>
     <use xlink:href="#DejaVuSans-65" x="2504.875"/>
     <use xlink:href="#DejaVuSans-64" x="2566.398438"/>
     <use xlink:href="#DejaVuSans-61" x="2629.875"/>
     <use xlink:href="#DejaVuSans-74" x="2691.154297"/>
     <use xlink:href="#DejaVuSans-6f" x="2730.363281"/>
     <use xlink:href="#DejaVuSans-72" x="2791.544922"/>
     <use xlink:href="#DejaVuSans-20" x="2832.658203"/>
     <use xlink:href="#DejaVuSans-70" x="2864.445312"/>
     <use xlink:href="#DejaVuSans-6f" x="2927.921875"/>
     <use xlink:href="#DejaVuSans-70" x="2989.103516"/>
     <use xlink:href="#DejaVuSans-75" x="3052.580078"/>
     <use xlink:href="#DejaVuSans-6c" x="3115.958984"/>
     <use xlink:href="#DejaVuSans-61" x="3143.742188"/>
     <use xlink:href="#DejaVuSans-74" x="3205.021484"/>
     <use xlink:href="#DejaVuSans-69" x="3244.230469"/>
     <use xlink:href="#DejaVuSans-6f" x="3272.013672"/>
     <use xlink:href="#DejaVuSans-6e" x="3333.195312"/>
    </g>
   </g>
   <g id="legend_1">
    <g id="patch_7">
     <path d="M 460.1375 115.11625 
L 576.2 115.11625 
Q 578.2 115.11625 578.2 113.11625 
L 578.2 84.76 
Q 578.2 82.76 576.2 82.76 
L 460.1375 82.76 
Q 458.1375 82.76 458.1375 84.76 
L 458.1375 113.11625 
Q 458.1375 115.11625 460.1375 115.11625 
z
" style="fill: #ffffff; opacity: 0.8; stroke: #cccccc; stroke-linejoin: miter"/>
    </g>
    <g id="PathCollection_5">
     <g>
      <use xlink:href="#med360582ae" x="472.1375" y="91.733437" style="fill: #0000ff; stroke: #0000ff"/>
     </g>
    </g>
    <g id="text_16">
     <!-- Initial population -->
     <g transform="translate(490.1375 94.358437) scale(0.1 -0.1)">
      <defs>
       <path id="DejaVuSans-49" d="M 628 4666 
L 1259 4666 
L 1259 0 
L 628 0 
L 628 4666 
z
" transform="scale(0.015625)"/>
      </defs>
      <use xlink:href="#DejaVuSans-49"/>
      <use xlink:href="#DejaVuSans-6e" x="29.492188"/>
      <use xlink:href="#DejaVuSans-69" x="92.871094"/>
      <use xlink:href="#DejaVuSans-74" x="120.654297"/>
      <use xlink:href="#DejaVuSans-69" x="159.863281"/>
      <use xlink:href="#DejaVuSans-61" x="187.646484"/>
      <use xlink:href="#DejaVuSans-6c" x="248.925781"/>
      <use xlink:href="#DejaVuSans-20" x="276.708984"/>
      <use xlink:href="#DejaVuSans-70" x="308.496094"/>
      <use xlink:href="#DejaVuSans-6f" x="371.972656"/>
      <use xlink:href="#DejaVuSans-70" x="433.154297"/>
      <use xlink:href="#DejaVuSans-75" x="496.630859"/>
      <use xlink:href="#DejaVuSans-6c" x="560.009766"/>
      <use xlink:href="#DejaVuSans-61" x="587.792969"/>
      <use xlink:href="#DejaVuSans-74" x="649.072266"/>
      <use xlink:href="#DejaVuSans-69" x="688.28125"/>
      <use xlink:href="#DejaVuSans-6f" x="716.064453"/>
      <use xlink:href="#DejaVuSans-6e" x="777.246094"/>
     </g>
    </g>
    <g id="PathCollection_6">
     <g>
      <use xlink:href="#m25d32b95df" x="472.1375" y="106.411562" style="fill: #ff0000; stroke: #ff0000"/>
     </g>
    </g>
    <g id="text_17">
     <!-- Final population -->
     <g transform="translate(490.1375 109.036562) scale(0.1 -0.1)">
      <defs>
       <path id="DejaVuSans-46" d="M 628 4666 
L 3309 4666 
L 3309 4134 
L 1259 4134 
L 1259 2759 
L 3109 2759 
L 3109 2228 
L 1259 2228 
L 1259 0 
L 628 0 
L 628 4666 
z
" transform="scale(0.015625)"/>
      </defs>
      <use xlink:href="#DejaVuSans-46"/>
      <use xlink:href="#DejaVuSans-69" x="50.269531"/>
      <use xlink:href="#DejaVuSans-6e" x="78.052734"/>
      <use xlink:href="#DejaVuSans-61" x="141.431641"/>
      <use xlink:href="#DejaVuSans-6c" x="202.710938"/>
      <use xlink:href="#DejaVuSans-20" x="230.494141"/>
      <use xlink:href="#DejaVuSans-70" x="262.28125"/>
      <use xlink:href="#DejaVuSans-6f" x="325.757812"/>
      <use xlink:href="#DejaVuSans-70" x="386.939453"/>
      <use xlink:href="#DejaVuSans-75" x="450.416016"/>
      <use xlink:href="#DejaVuSans-6c" x="513.794922"/>
      <use xlink:href="#DejaVuSans-61" x="541.578125"/>
      <use xlink:href="#DejaVuSans-74" x="602.857422"/>
      <use xlink:href="#DejaVuSans-69" x="642.066406"/>
      <use xlink:href="#DejaVuSans-6f" x="669.849609"/>
      <use xlink:href="#DejaVuSans-6e" x="731.03125"/>
     </g>
    </g>
   </g>
  </g>
 </g>
 <defs>
  <clipPath id="p61ed1436af">
   <rect x="81" y="77.76" width="502.2" height="498.96"/>
  </clipPath>
 </defs>
</svg>
