<?xml version="1.0" encoding="utf-8" standalone="no"?>
<!DOCTYPE svg PUBLIC "-//W3C//DTD SVG 1.1//EN"
  "http://www.w3.org/Graphics/SVG/1.1/DTD/svg11.dtd">
<svg xmlns:xlink="http://www.w3.org/1999/xlink" width="648pt" height="648pt" viewBox="0 0 648 648" xmlns="http://www.w3.org/2000/svg" version="1.1">
 <metadata>
  <rdf:RDF xmlns:dc="http://purl.org/dc/elements/1.1/" xmlns:cc="http://creativecommons.org/ns#" xmlns:rdf="http://www.w3.org/1999/02/22-rdf-syntax-ns#">
   <cc:Work>
    <dc:type rdf:resource="http://purl.org/dc/dcmitype/StillImage"/>
    <dc:date>2025-06-09T12:56:57.832465</dc:date>
    <dc:format>image/svg+xml</dc:format>
    <dc:creator>
     <cc:Agent>
      <dc:title>Matplotlib v3.7.0, https://matplotlib.org/</dc:title>
     </cc:Agent>
    </dc:creator>
   </cc:Work>
  </rdf:RDF>
 </metadata>
 <defs>
  <style type="text/css">*{stroke-linejoin: round; stroke-linecap: butt}</style>
 </defs>
 <g id="figure_1">
  <g id="patch_1">
   <path d="M 0 648 
L 648 648 
L 648 0 
L 0 0 
z
" style="fill: #ffffff"/>
  </g>
  <g id="axes_1">
   <g id="patch_2">
    <path d="M 81 576.72 
L 583.2 576.72 
L 583.2 77.76 
L 81 77.76 
z
" style="fill: #ffffff"/>
   </g>
   <g id="PathCollection_1">
    <defs>
     <path id="m1f8b7f5647" d="M -3.535534 3.535534 
L 3.535534 3.535534 
L 3.535534 -3.535534 
L -3.535534 -3.535534 
z
" style="stroke: #0000ff"/>
    </defs>
    <g clip-path="url(#pd90b35fbff)">
     <use xlink:href="#m1f8b7f5647" x="241.338764" y="509.04288" style="fill: #0000ff; stroke: #0000ff"/>
    </g>
   </g>
   <g id="PathCollection_2">
    <defs>
     <path id="m41fc84d9c5" d="M -3.535534 3.535534 
L 3.535534 3.535534 
L 3.535534 -3.535534 
L -3.535534 -3.535534 
z
" style="stroke: #ff0000"/>
    </defs>
    <g clip-path="url(#pd90b35fbff)">
     <use xlink:href="#m41fc84d9c5" x="313.472945" y="378.22464" style="fill: #ff0000; stroke: #ff0000"/>
    </g>
   </g>
   <g id="PathCollection_3">
    <g clip-path="url(#pd90b35fbff)">
     <use xlink:href="#m1f8b7f5647" x="241.338764" y="509.04288" style="fill: #0000ff; stroke: #0000ff"/>
    </g>
   </g>
   <g id="PathCollection_4">
    <g clip-path="url(#pd90b35fbff)">
     <use xlink:href="#m41fc84d9c5" x="290.463055" y="383.4864" style="fill: #ff0000; stroke: #ff0000"/>
    </g>
   </g>
   <g id="matplotlib.axis_1">
    <g id="xtick_1">
     <g id="line2d_1">
      <path d="M 103.827273 576.72 
L 103.827273 77.76 
" clip-path="url(#pd90b35fbff)" style="fill: none; stroke: #b0b0b0; stroke-width: 0.1; stroke-linecap: square"/>
     </g>
     <g id="line2d_2">
      <defs>
       <path id="m64b5acf5f8" d="M 0 0 
L 0 3.5 
" style="stroke: #000000; stroke-width: 0.8"/>
      </defs>
      <g>
       <use xlink:href="#m64b5acf5f8" x="103.827273" y="576.72" style="stroke: #000000; stroke-width: 0.8"/>
      </g>
     </g>
     <g id="text_1">
      <!-- 0 -->
      <g transform="translate(100.646023 591.318438) scale(0.1 -0.1)">
       <defs>
        <path id="DejaVuSans-30" d="M 2034 4250 
Q 1547 4250 1301 3770 
Q 1056 3291 1056 2328 
Q 1056 1369 1301 889 
Q 1547 409 2034 409 
Q 2525 409 2770 889 
Q 3016 1369 3016 2328 
Q 3016 3291 2770 3770 
Q 2525 4250 2034 4250 
z
M 2034 4750 
Q 2819 4750 3233 4129 
Q 3647 3509 3647 2328 
Q 3647 1150 3233 529 
Q 2819 -91 2034 -91 
Q 1250 -91 836 529 
Q 422 1150 422 2328 
Q 422 3509 836 4129 
Q 1250 4750 2034 4750 
z
" transform="scale(0.015625)"/>
       </defs>
       <use xlink:href="#DejaVuSans-30"/>
      </g>
     </g>
    </g>
    <g id="xtick_2">
     <g id="line2d_3">
      <path d="M 195.136364 576.72 
L 195.136364 77.76 
" clip-path="url(#pd90b35fbff)" style="fill: none; stroke: #b0b0b0; stroke-width: 0.1; stroke-linecap: square"/>
     </g>
     <g id="line2d_4">
      <g>
       <use xlink:href="#m64b5acf5f8" x="195.136364" y="576.72" style="stroke: #000000; stroke-width: 0.8"/>
      </g>
     </g>
     <g id="text_2">
      <!-- 500 -->
      <g transform="translate(185.592614 591.318438) scale(0.1 -0.1)">
       <defs>
        <path id="DejaVuSans-35" d="M 691 4666 
L 3169 4666 
L 3169 4134 
L 1269 4134 
L 1269 2991 
Q 1406 3038 1543 3061 
Q 1681 3084 1819 3084 
Q 2600 3084 3056 2656 
Q 3513 2228 3513 1497 
Q 3513 744 3044 326 
Q 2575 -91 1722 -91 
Q 1428 -91 1123 -41 
Q 819 9 494 109 
L 494 744 
Q 775 591 1075 516 
Q 1375 441 1709 441 
Q 2250 441 2565 725 
Q 2881 1009 2881 1497 
Q 2881 1984 2565 2268 
Q 2250 2553 1709 2553 
Q 1456 2553 1204 2497 
Q 953 2441 691 2322 
L 691 4666 
z
" transform="scale(0.015625)"/>
       </defs>
       <use xlink:href="#DejaVuSans-35"/>
       <use xlink:href="#DejaVuSans-30" x="63.623047"/>
       <use xlink:href="#DejaVuSans-30" x="127.246094"/>
      </g>
     </g>
    </g>
    <g id="xtick_3">
     <g id="line2d_5">
      <path d="M 286.445455 576.72 
L 286.445455 77.76 
" clip-path="url(#pd90b35fbff)" style="fill: none; stroke: #b0b0b0; stroke-width: 0.1; stroke-linecap: square"/>
     </g>
     <g id="line2d_6">
      <g>
       <use xlink:href="#m64b5acf5f8" x="286.445455" y="576.72" style="stroke: #000000; stroke-width: 0.8"/>
      </g>
     </g>
     <g id="text_3">
      <!-- 1000 -->
      <g transform="translate(273.720455 591.318438) scale(0.1 -0.1)">
       <defs>
        <path id="DejaVuSans-31" d="M 794 531 
L 1825 531 
L 1825 4091 
L 703 3866 
L 703 4441 
L 1819 4666 
L 2450 4666 
L 2450 531 
L 3481 531 
L 3481 0 
L 794 0 
L 794 531 
z
" transform="scale(0.015625)"/>
       </defs>
       <use xlink:href="#DejaVuSans-31"/>
       <use xlink:href="#DejaVuSans-30" x="63.623047"/>
       <use xlink:href="#DejaVuSans-30" x="127.246094"/>
       <use xlink:href="#DejaVuSans-30" x="190.869141"/>
      </g>
     </g>
    </g>
    <g id="xtick_4">
     <g id="line2d_7">
      <path d="M 377.754545 576.72 
L 377.754545 77.76 
" clip-path="url(#pd90b35fbff)" style="fill: none; stroke: #b0b0b0; stroke-width: 0.1; stroke-linecap: square"/>
     </g>
     <g id="line2d_8">
      <g>
       <use xlink:href="#m64b5acf5f8" x="377.754545" y="576.72" style="stroke: #000000; stroke-width: 0.8"/>
      </g>
     </g>
     <g id="text_4">
      <!-- 1500 -->
      <g transform="translate(365.029545 591.318438) scale(0.1 -0.1)">
       <use xlink:href="#DejaVuSans-31"/>
       <use xlink:href="#DejaVuSans-35" x="63.623047"/>
       <use xlink:href="#DejaVuSans-30" x="127.246094"/>
       <use xlink:href="#DejaVuSans-30" x="190.869141"/>
      </g>
     </g>
    </g>
    <g id="xtick_5">
     <g id="line2d_9">
      <path d="M 469.063636 576.72 
L 469.063636 77.76 
" clip-path="url(#pd90b35fbff)" style="fill: none; stroke: #b0b0b0; stroke-width: 0.1; stroke-linecap: square"/>
     </g>
     <g id="line2d_10">
      <g>
       <use xlink:href="#m64b5acf5f8" x="469.063636" y="576.72" style="stroke: #000000; stroke-width: 0.8"/>
      </g>
     </g>
     <g id="text_5">
      <!-- 2000 -->
      <g transform="translate(456.338636 591.318438) scale(0.1 -0.1)">
       <defs>
        <path id="DejaVuSans-32" d="M 1228 531 
L 3431 531 
L 3431 0 
L 469 0 
L 469 531 
Q 828 903 1448 1529 
Q 2069 2156 2228 2338 
Q 2531 2678 2651 2914 
Q 2772 3150 2772 3378 
Q 2772 3750 2511 3984 
Q 2250 4219 1831 4219 
Q 1534 4219 1204 4116 
Q 875 4013 500 3803 
L 500 4441 
Q 881 4594 1212 4672 
Q 1544 4750 1819 4750 
Q 2544 4750 2975 4387 
Q 3406 4025 3406 3419 
Q 3406 3131 3298 2873 
Q 3191 2616 2906 2266 
Q 2828 2175 2409 1742 
Q 1991 1309 1228 531 
z
" transform="scale(0.015625)"/>
       </defs>
       <use xlink:href="#DejaVuSans-32"/>
       <use xlink:href="#DejaVuSans-30" x="63.623047"/>
       <use xlink:href="#DejaVuSans-30" x="127.246094"/>
       <use xlink:href="#DejaVuSans-30" x="190.869141"/>
      </g>
     </g>
    </g>
    <g id="xtick_6">
     <g id="line2d_11">
      <path d="M 560.372727 576.72 
L 560.372727 77.76 
" clip-path="url(#pd90b35fbff)" style="fill: none; stroke: #b0b0b0; stroke-width: 0.1; stroke-linecap: square"/>
     </g>
     <g id="line2d_12">
      <g>
       <use xlink:href="#m64b5acf5f8" x="560.372727" y="576.72" style="stroke: #000000; stroke-width: 0.8"/>
      </g>
     </g>
     <g id="text_6">
      <!-- 2500 -->
      <g transform="translate(547.647727 591.318438) scale(0.1 -0.1)">
       <use xlink:href="#DejaVuSans-32"/>
       <use xlink:href="#DejaVuSans-35" x="63.623047"/>
       <use xlink:href="#DejaVuSans-30" x="127.246094"/>
       <use xlink:href="#DejaVuSans-30" x="190.869141"/>
      </g>
     </g>
    </g>
    <g id="text_7">
     <!-- Predator population -->
     <g transform="translate(282.64375 604.996562) scale(0.1 -0.1)">
      <defs>
       <path id="DejaVuSans-50" d="M 1259 4147 
L 1259 2394 
L 2053 2394 
Q 2494 2394 2734 2622 
Q 2975 2850 2975 3272 
Q 2975 3691 2734 3919 
Q 2494 4147 2053 4147 
L 1259 4147 
z
M 628 4666 
L 2053 4666 
Q 2838 4666 3239 4311 
Q 3641 3956 3641 3272 
Q 3641 2581 3239 2228 
Q 2838 1875 2053 1875 
L 1259 1875 
L 1259 0 
L 628 0 
L 628 4666 
z
" transform="scale(0.015625)"/>
       <path id="DejaVuSans-72" d="M 2631 2963 
Q 2534 3019 2420 3045 
Q 2306 3072 2169 3072 
Q 1681 3072 1420 2755 
Q 1159 2438 1159 1844 
L 1159 0 
L 581 0 
L 581 3500 
L 1159 3500 
L 1159 2956 
Q 1341 3275 1631 3429 
Q 1922 3584 2338 3584 
Q 2397 3584 2469 3576 
Q 2541 3569 2628 3553 
L 2631 2963 
z
" transform="scale(0.015625)"/>
       <path id="DejaVuSans-65" d="M 3597 1894 
L 3597 1613 
L 953 1613 
Q 991 1019 1311 708 
Q 1631 397 2203 397 
Q 2534 397 2845 478 
Q 3156 559 3463 722 
L 3463 178 
Q 3153 47 2828 -22 
Q 2503 -91 2169 -91 
Q 1331 -91 842 396 
Q 353 884 353 1716 
Q 353 2575 817 3079 
Q 1281 3584 2069 3584 
Q 2775 3584 3186 3129 
Q 3597 2675 3597 1894 
z
M 3022 2063 
Q 3016 2534 2758 2815 
Q 2500 3097 2075 3097 
Q 1594 3097 1305 2825 
Q 1016 2553 972 2059 
L 3022 2063 
z
" transform="scale(0.015625)"/>
       <path id="DejaVuSans-64" d="M 2906 2969 
L 2906 4863 
L 3481 4863 
L 3481 0 
L 2906 0 
L 2906 525 
Q 2725 213 2448 61 
Q 2172 -91 1784 -91 
Q 1150 -91 751 415 
Q 353 922 353 1747 
Q 353 2572 751 3078 
Q 1150 3584 1784 3584 
Q 2172 3584 2448 3432 
Q 2725 3281 2906 2969 
z
M 947 1747 
Q 947 1113 1208 752 
Q 1469 391 1925 391 
Q 2381 391 2643 752 
Q 2906 1113 2906 1747 
Q 2906 2381 2643 2742 
Q 2381 3103 1925 3103 
Q 1469 3103 1208 2742 
Q 947 2381 947 1747 
z
" transform="scale(0.015625)"/>
       <path id="DejaVuSans-61" d="M 2194 1759 
Q 1497 1759 1228 1600 
Q 959 1441 959 1056 
Q 959 750 1161 570 
Q 1363 391 1709 391 
Q 2188 391 2477 730 
Q 2766 1069 2766 1631 
L 2766 1759 
L 2194 1759 
z
M 3341 1997 
L 3341 0 
L 2766 0 
L 2766 531 
Q 2569 213 2275 61 
Q 1981 -91 1556 -91 
Q 1019 -91 701 211 
Q 384 513 384 1019 
Q 384 1609 779 1909 
Q 1175 2209 1959 2209 
L 2766 2209 
L 2766 2266 
Q 2766 2663 2505 2880 
Q 2244 3097 1772 3097 
Q 1472 3097 1187 3025 
Q 903 2953 641 2809 
L 641 3341 
Q 956 3463 1253 3523 
Q 1550 3584 1831 3584 
Q 2591 3584 2966 3190 
Q 3341 2797 3341 1997 
z
" transform="scale(0.015625)"/>
       <path id="DejaVuSans-74" d="M 1172 4494 
L 1172 3500 
L 2356 3500 
L 2356 3053 
L 1172 3053 
L 1172 1153 
Q 1172 725 1289 603 
Q 1406 481 1766 481 
L 2356 481 
L 2356 0 
L 1766 0 
Q 1100 0 847 248 
Q 594 497 594 1153 
L 594 3053 
L 172 3053 
L 172 3500 
L 594 3500 
L 594 4494 
L 1172 4494 
z
" transform="scale(0.015625)"/>
       <path id="DejaVuSans-6f" d="M 1959 3097 
Q 1497 3097 1228 2736 
Q 959 2375 959 1747 
Q 959 1119 1226 758 
Q 1494 397 1959 397 
Q 2419 397 2687 759 
Q 2956 1122 2956 1747 
Q 2956 2369 2687 2733 
Q 2419 3097 1959 3097 
z
M 1959 3584 
Q 2709 3584 3137 3096 
Q 3566 2609 3566 1747 
Q 3566 888 3137 398 
Q 2709 -91 1959 -91 
Q 1206 -91 779 398 
Q 353 888 353 1747 
Q 353 2609 779 3096 
Q 1206 3584 1959 3584 
z
" transform="scale(0.015625)"/>
       <path id="DejaVuSans-20" transform="scale(0.015625)"/>
       <path id="DejaVuSans-70" d="M 1159 525 
L 1159 -1331 
L 581 -1331 
L 581 3500 
L 1159 3500 
L 1159 2969 
Q 1341 3281 1617 3432 
Q 1894 3584 2278 3584 
Q 2916 3584 3314 3078 
Q 3713 2572 3713 1747 
Q 3713 922 3314 415 
Q 2916 -91 2278 -91 
Q 1894 -91 1617 61 
Q 1341 213 1159 525 
z
M 3116 1747 
Q 3116 2381 2855 2742 
Q 2594 3103 2138 3103 
Q 1681 3103 1420 2742 
Q 1159 2381 1159 1747 
Q 1159 1113 1420 752 
Q 1681 391 2138 391 
Q 2594 391 2855 752 
Q 3116 1113 3116 1747 
z
" transform="scale(0.015625)"/>
       <path id="DejaVuSans-75" d="M 544 1381 
L 544 3500 
L 1119 3500 
L 1119 1403 
Q 1119 906 1312 657 
Q 1506 409 1894 409 
Q 2359 409 2629 706 
Q 2900 1003 2900 1516 
L 2900 3500 
L 3475 3500 
L 3475 0 
L 2900 0 
L 2900 538 
Q 2691 219 2414 64 
Q 2138 -91 1772 -91 
Q 1169 -91 856 284 
Q 544 659 544 1381 
z
M 1991 3584 
L 1991 3584 
z
" transform="scale(0.015625)"/>
       <path id="DejaVuSans-6c" d="M 603 4863 
L 1178 4863 
L 1178 0 
L 603 0 
L 603 4863 
z
" transform="scale(0.015625)"/>
       <path id="DejaVuSans-69" d="M 603 3500 
L 1178 3500 
L 1178 0 
L 603 0 
L 603 3500 
z
M 603 4863 
L 1178 4863 
L 1178 4134 
L 603 4134 
L 603 4863 
z
" transform="scale(0.015625)"/>
       <path id="DejaVuSans-6e" d="M 3513 2113 
L 3513 0 
L 2938 0 
L 2938 2094 
Q 2938 2591 2744 2837 
Q 2550 3084 2163 3084 
Q 1697 3084 1428 2787 
Q 1159 2491 1159 1978 
L 1159 0 
L 581 0 
L 581 3500 
L 1159 3500 
L 1159 2956 
Q 1366 3272 1645 3428 
Q 1925 3584 2291 3584 
Q 2894 3584 3203 3211 
Q 3513 2838 3513 2113 
z
" transform="scale(0.015625)"/>
      </defs>
      <use xlink:href="#DejaVuSans-50"/>
      <use xlink:href="#DejaVuSans-72" x="58.552734"/>
      <use xlink:href="#DejaVuSans-65" x="97.416016"/>
      <use xlink:href="#DejaVuSans-64" x="158.939453"/>
      <use xlink:href="#DejaVuSans-61" x="222.416016"/>
      <use xlink:href="#DejaVuSans-74" x="283.695312"/>
      <use xlink:href="#DejaVuSans-6f" x="322.904297"/>
      <use xlink:href="#DejaVuSans-72" x="384.085938"/>
      <use xlink:href="#DejaVuSans-20" x="425.199219"/>
      <use xlink:href="#DejaVuSans-70" x="456.986328"/>
      <use xlink:href="#DejaVuSans-6f" x="520.462891"/>
      <use xlink:href="#DejaVuSans-70" x="581.644531"/>
      <use xlink:href="#DejaVuSans-75" x="645.121094"/>
      <use xlink:href="#DejaVuSans-6c" x="708.5"/>
      <use xlink:href="#DejaVuSans-61" x="736.283203"/>
      <use xlink:href="#DejaVuSans-74" x="797.5625"/>
      <use xlink:href="#DejaVuSans-69" x="836.771484"/>
      <use xlink:href="#DejaVuSans-6f" x="864.554688"/>
      <use xlink:href="#DejaVuSans-6e" x="925.736328"/>
     </g>
    </g>
   </g>
   <g id="matplotlib.axis_2">
    <g id="ytick_1">
     <g id="line2d_13">
      <path d="M 81 554.04 
L 583.2 554.04 
" clip-path="url(#pd90b35fbff)" style="fill: none; stroke: #b0b0b0; stroke-width: 0.1; stroke-linecap: square"/>
     </g>
     <g id="line2d_14">
      <defs>
       <path id="madccd24cd1" d="M 0 0 
L -3.5 0 
" style="stroke: #000000; stroke-width: 0.8"/>
      </defs>
      <g>
       <use xlink:href="#madccd24cd1" x="81" y="554.04" style="stroke: #000000; stroke-width: 0.8"/>
      </g>
     </g>
     <g id="text_8">
      <!-- 0 -->
      <g transform="translate(67.6375 557.839219) scale(0.1 -0.1)">
       <use xlink:href="#DejaVuSans-30"/>
      </g>
     </g>
    </g>
    <g id="ytick_2">
     <g id="line2d_15">
      <path d="M 81 463.32 
L 583.2 463.32 
" clip-path="url(#pd90b35fbff)" style="fill: none; stroke: #b0b0b0; stroke-width: 0.1; stroke-linecap: square"/>
     </g>
     <g id="line2d_16">
      <g>
       <use xlink:href="#madccd24cd1" x="81" y="463.32" style="stroke: #000000; stroke-width: 0.8"/>
      </g>
     </g>
     <g id="text_9">
      <!-- 500 -->
      <g transform="translate(54.9125 467.119219) scale(0.1 -0.1)">
       <use xlink:href="#DejaVuSans-35"/>
       <use xlink:href="#DejaVuSans-30" x="63.623047"/>
       <use xlink:href="#DejaVuSans-30" x="127.246094"/>
      </g>
     </g>
    </g>
    <g id="ytick_3">
     <g id="line2d_17">
      <path d="M 81 372.6 
L 583.2 372.6 
" clip-path="url(#pd90b35fbff)" style="fill: none; stroke: #b0b0b0; stroke-width: 0.1; stroke-linecap: square"/>
     </g>
     <g id="line2d_18">
      <g>
       <use xlink:href="#madccd24cd1" x="81" y="372.6" style="stroke: #000000; stroke-width: 0.8"/>
      </g>
     </g>
     <g id="text_10">
      <!-- 1000 -->
      <g transform="translate(48.55 376.399219) scale(0.1 -0.1)">
       <use xlink:href="#DejaVuSans-31"/>
       <use xlink:href="#DejaVuSans-30" x="63.623047"/>
       <use xlink:href="#DejaVuSans-30" x="127.246094"/>
       <use xlink:href="#DejaVuSans-30" x="190.869141"/>
      </g>
     </g>
    </g>
    <g id="ytick_4">
     <g id="line2d_19">
      <path d="M 81 281.88 
L 583.2 281.88 
" clip-path="url(#pd90b35fbff)" style="fill: none; stroke: #b0b0b0; stroke-width: 0.1; stroke-linecap: square"/>
     </g>
     <g id="line2d_20">
      <g>
       <use xlink:href="#madccd24cd1" x="81" y="281.88" style="stroke: #000000; stroke-width: 0.8"/>
      </g>
     </g>
     <g id="text_11">
      <!-- 1500 -->
      <g transform="translate(48.55 285.679219) scale(0.1 -0.1)">
       <use xlink:href="#DejaVuSans-31"/>
       <use xlink:href="#DejaVuSans-35" x="63.623047"/>
       <use xlink:href="#DejaVuSans-30" x="127.246094"/>
       <use xlink:href="#DejaVuSans-30" x="190.869141"/>
      </g>
     </g>
    </g>
    <g id="ytick_5">
     <g id="line2d_21">
      <path d="M 81 191.16 
L 583.2 191.16 
" clip-path="url(#pd90b35fbff)" style="fill: none; stroke: #b0b0b0; stroke-width: 0.1; stroke-linecap: square"/>
     </g>
     <g id="line2d_22">
      <g>
       <use xlink:href="#madccd24cd1" x="81" y="191.16" style="stroke: #000000; stroke-width: 0.8"/>
      </g>
     </g>
     <g id="text_12">
      <!-- 2000 -->
      <g transform="translate(48.55 194.959219) scale(0.1 -0.1)">
       <use xlink:href="#DejaVuSans-32"/>
       <use xlink:href="#DejaVuSans-30" x="63.623047"/>
       <use xlink:href="#DejaVuSans-30" x="127.246094"/>
       <use xlink:href="#DejaVuSans-30" x="190.869141"/>
      </g>
     </g>
    </g>
    <g id="ytick_6">
     <g id="line2d_23">
      <path d="M 81 100.44 
L 583.2 100.44 
" clip-path="url(#pd90b35fbff)" style="fill: none; stroke: #b0b0b0; stroke-width: 0.1; stroke-linecap: square"/>
     </g>
     <g id="line2d_24">
      <g>
       <use xlink:href="#madccd24cd1" x="81" y="100.44" style="stroke: #000000; stroke-width: 0.8"/>
      </g>
     </g>
     <g id="text_13">
      <!-- 2500 -->
      <g transform="translate(48.55 104.239219) scale(0.1 -0.1)">
       <use xlink:href="#DejaVuSans-32"/>
       <use xlink:href="#DejaVuSans-35" x="63.623047"/>
       <use xlink:href="#DejaVuSans-30" x="127.246094"/>
       <use xlink:href="#DejaVuSans-30" x="190.869141"/>
      </g>
     </g>
    </g>
    <g id="text_14">
     <!-- Prey population -->
     <g transform="translate(42.470312 366.342344) rotate(-90) scale(0.1 -0.1)">
      <defs>
       <path id="DejaVuSans-79" d="M 2059 -325 
Q 1816 -950 1584 -1140 
Q 1353 -1331 966 -1331 
L 506 -1331 
L 506 -850 
L 844 -850 
Q 1081 -850 1212 -737 
Q 1344 -625 1503 -206 
L 1606 56 
L 191 3500 
L 800 3500 
L 1894 763 
L 2988 3500 
L 3597 3500 
L 2059 -325 
z
" transform="scale(0.015625)"/>
      </defs>
      <use xlink:href="#DejaVuSans-50"/>
      <use xlink:href="#DejaVuSans-72" x="58.552734"/>
      <use xlink:href="#DejaVuSans-65" x="97.416016"/>
      <use xlink:href="#DejaVuSans-79" x="158.939453"/>
      <use xlink:href="#DejaVuSans-20" x="218.119141"/>
      <use xlink:href="#DejaVuSans-70" x="249.90625"/>
      <use xlink:href="#DejaVuSans-6f" x="313.382812"/>
      <use xlink:href="#DejaVuSans-70" x="374.564453"/>
      <use xlink:href="#DejaVuSans-75" x="438.041016"/>
      <use xlink:href="#DejaVuSans-6c" x="501.419922"/>
      <use xlink:href="#DejaVuSans-61" x="529.203125"/>
      <use xlink:href="#DejaVuSans-74" x="590.482422"/>
      <use xlink:href="#DejaVuSans-69" x="629.691406"/>
      <use xlink:href="#DejaVuSans-6f" x="657.474609"/>
      <use xlink:href="#DejaVuSans-6e" x="718.65625"/>
     </g>
    </g>
   </g>
   <g id="line2d_25">
    <path d="M 241.338764 509.04288 
L 222.894327 512.12736 
L 190.570909 499.97088 
L 164.639127 482.3712 
L 158.795345 468.03744 
L 158.795345 451.5264 
L 160.438909 437.0112 
L 160.621527 413.96832 
L 170.665527 402.90048 
L 184.727127 397.82016 
L 196.962545 399.63456 
L 201.710618 401.44896 
L 207.919636 406.52928 
L 215.224364 401.6304 
L 219.424582 403.26336 
L 224.355273 412.87968 
L 233.6688 412.15392 
L 230.381673 411.42816 
L 231.66 411.24672 
L 232.025236 411.06528 
L 235.129745 408.888 
L 239.329964 403.62624 
L 236.773309 409.61376 
L 237.321164 409.61376 
L 241.704 414.69408 
L 248.460873 418.14144 
L 243.347564 421.77024 
L 238.416873 418.8672 
L 232.025236 411.42816 
L 232.390473 410.52096 
L 233.6688 414.14976 
L 247.182545 408.52512 
L 248.643491 409.7952 
L 249.921818 408.70656 
L 245.904218 415.2384 
L 240.973527 422.13312 
L 242.982327 417.77856 
L 249.008727 422.31456 
L 234.764509 419.7744 
L 228.920727 413.424 
L 226.364073 408.34368 
L 222.346473 401.81184 
L 234.947127 409.61376 
L 244.808509 415.41984 
L 240.060436 418.14144 
L 227.825018 410.52096 
L 230.199055 407.9808 
L 240.060436 410.88384 
L 237.869018 411.24672 
L 235.129745 410.52096 
L 243.7128 412.5168 
L 246.634691 416.1456 
L 242.799709 414.3312 
L 237.6864 409.25088 
L 234.947127 401.6304 
L 238.051636 404.17056 
L 245.356364 409.06944 
L 250.104436 415.2384 
L 249.556582 414.14976 
L 249.191345 411.97248 
L 244.443273 413.424 
L 246.269455 411.06528 
L 244.625891 411.24672 
L 241.338764 415.96416 
L 236.225455 408.70656 
L 235.860218 403.62624 
L 242.982327 410.15808 
L 245.356364 411.6096 
L 246.269455 405.44064 
L 247.913018 401.6304 
L 251.930618 407.79936 
L 247.913018 406.52928 
L 253.208945 406.89216 
L 256.313455 411.6096 
L 257.7744 422.13312 
L 257.043927 424.3104 
L 238.234255 417.59712 
L 226.181455 409.61376 
L 221.250764 396.36864 
L 225.268364 398.0016 
L 233.303564 398.36448 
L 241.704 406.1664 
L 253.208945 413.06112 
L 253.7568 415.96416 
L 253.026327 420.50016 
L 255.582982 419.59296 
L 254.487273 419.95584 
L 248.460873 416.68992 
L 242.434473 413.24256 
L 241.704 407.9808 
L 238.964727 401.26752 
L 247.365164 398.36448 
L 259.235345 423.22176 
L 263.8008 443.3616 
L 255.582982 456.0624 
L 233.303564 448.8048 
L 221.433382 438.8256 
L 212.667709 426.66912 
L 210.111055 423.76608 
L 218.146255 422.31456 
L 224.903127 428.8464 
L 231.112145 433.74528 
L 226.911927 430.47936 
L 218.511491 436.46688 
L 212.302473 429.02784 
L 211.024145 428.48352 
L 217.233164 427.9392 
L 222.346473 428.66496 
L 226.546691 433.01952 
L 223.076945 427.75776 
L 219.972436 426.30624 
L 228.555491 429.39072 
L 238.782109 434.47104 
L 241.338764 432.83808 
L 238.964727 426.48768 
L 234.034036 427.032 
L 226.364073 424.85472 
L 231.294764 428.12064 
L 236.042836 430.11648 
L 238.416873 435.74112 
L 239.877818 437.55552 
L 234.216655 437.19264 
L 231.294764 437.55552 
L 227.277164 429.57216 
L 219.241964 420.13728 
L 225.998836 421.5888 
L 231.294764 425.76192 
L 228.372873 424.67328 
L 223.259564 426.1248 
L 225.6336 425.39904 
L 222.894327 418.50432 
L 228.372873 419.95584 
L 229.6512 419.23008 
L 225.450982 422.85888 
L 228.190255 420.50016 
L 239.512582 430.47936 
L 246.086836 439.7328 
L 236.408073 437.19264 
L 230.016436 431.20512 
L 225.998836 422.85888 
L 214.859127 416.68992 
L 223.259564 420.86304 
L 234.216655 423.22176 
L 230.199055 420.86304 
L 236.042836 425.94336 
L 236.590691 422.67744 
L 232.573091 420.86304 
L 231.294764 417.41568 
L 229.833818 422.67744 
L 222.163855 421.22592 
L 220.702909 416.68992 
L 236.773309 417.0528 
L 244.443273 425.39904 
L 247.182545 434.83392 
L 256.130836 438.28128 
L 251.382764 433.74528 
L 244.991127 432.29376 
L 245.538982 432.29376 
L 243.895418 431.02368 
L 237.869018 428.66496 
L 237.138545 431.02368 
L 239.877818 435.74112 
L 234.399273 428.66496 
L 230.929527 421.40736 
L 238.599491 421.40736 
L 245.356364 425.58048 
L 247.7304 427.9392 
L 242.069236 429.57216 
L 232.573091 421.04448 
L 222.711709 406.34784 
L 227.825018 406.52928 
L 237.321164 408.52512 
L 243.164945 408.16224 
L 248.460873 413.424 
L 249.556582 417.41568 
L 251.017527 425.58048 
L 253.574182 429.57216 
L 245.173745 424.3104 
L 238.416873 410.33952 
L 241.156145 410.52096 
L 251.748 415.41984 
L 256.496073 420.86304 
L 265.626982 425.94336 
L 259.052727 423.94752 
L 251.382764 423.94752 
L 251.200145 419.95584 
L 244.991127 417.41568 
L 242.434473 411.6096 
L 240.973527 412.69824 
L 242.069236 414.3312 
L 256.496073 421.40736 
L 252.295855 421.5888 
L 248.460873 416.87136 
L 242.799709 406.52928 
L 240.608291 394.00992 
L 243.164945 393.82848 
L 281.332145 420.31872 
L 282.975709 431.74944 
L 265.261745 428.12064 
L 255.217745 428.12064 
L 253.026327 423.58464 
L 243.347564 412.87968 
L 244.260655 407.9808 
L 254.669891 403.4448 
L 259.965818 396.91296 
L 265.444364 394.3728 
L 275.670982 396.73152 
L 284.436655 405.44064 
L 285.167127 413.06112 
L 281.149527 412.15392 
L 267.453164 408.70656 
L 259.052727 396.73152 
L 255.948218 385.11936 
L 261.974618 385.11936 
L 278.045018 390.01824 
L 295.758982 399.816 
L 303.246327 410.52096 
L 309.272727 425.58048 
L 295.211127 426.30624 
L 260.696291 403.4448 
L 242.434473 388.38528 
L 248.095636 373.14432 
L 268.914109 378.40608 
L 289.002109 394.55424 
L 303.063709 408.34368 
L 291.558764 415.78272 
L 279.323345 410.15808 
L 260.331055 372.41856 
L 249.921818 332.32032 
L 257.591782 310.0032 
L 289.367345 335.76768 
L 340.865673 394.55424 
L 358.762255 439.00704 
L 317.307927 446.80896 
L 259.965818 412.5168 
L 227.277164 367.33824 
L 213.032945 314.5392 
L 217.415782 284.78304 
L 240.608291 289.1376 
L 277.679782 321.07104 
L 325.525745 387.29664 
L 350.544436 442.27296 
L 322.421236 458.05824 
L 265.626982 440.27712 
L 217.781018 395.82432 
L 192.397091 343.93248 
L 199.336582 296.3952 
L 219.059345 277.344 
L 253.574182 289.68192 
L 287.358545 330.68736 
L 320.960291 388.0224 
L 334.474036 434.65248 
L 315.299127 455.1552 
L 268.183636 433.3824 
L 223.442182 385.66368 
L 198.971345 335.22336 
L 199.5192 294.5808 
L 226.729309 284.78304 
L 265.444364 299.47968 
L 299.593964 337.58208 
L 311.281527 378.40608 
L 310.368436 411.42816 
L 309.090109 435.55968 
L 284.254036 425.76192 
L 242.251855 398.18304 
L 209.745818 364.61664 
L 201.345382 325.78848 
L 208.467491 286.59744 
L 234.581891 268.63488 
L 261.609382 289.50048 
L 289.002109 330.14304 
L 313.107709 375.3216 
L 332.1 410.15808 
L 328.0824 425.76192 
L 292.654473 410.15808 
L 248.460873 375.86592 
L 216.320073 338.67072 
L 209.5632 297.66528 
L 226.546691 270.81216 
L 246.634691 283.15008 
L 272.018618 312.18048 
L 292.289236 347.37984 
L 301.785382 370.60416 
L 306.533455 382.94208 
L 300.689673 384.57504 
L 271.470764 355.90752 
L 235.494982 326.51424 
L 219.059345 303.10848 
L 225.6336 289.1376 
L 247.182545 290.22624 
L 267.453164 309.64032 
L 279.8712 322.704 
L 277.497164 345.384 
L 283.158327 363.89088 
L 284.254036 361.35072 
L 277.314545 357.90336 
L 256.678691 345.02112 
L 248.095636 330.68736 
L 242.982327 310.0032 
L 235.312364 302.20128 
L 241.156145 303.28992 
L 263.618182 311.27328 
L 286.445455 331.23168 
L 289.732582 349.37568 
L 296.306836 371.87424 
L 297.9504 384.21216 
L 287.175927 378.76896 
L 271.470764 364.07232 
L 243.895418 341.93664 
L 231.66 317.80512 
L 240.608291 304.56 
L 259.052727 304.92288 
L 277.8624 315.99072 
L 295.028509 341.21088 
L 301.054909 365.52384 
L 300.872291 366.06816 
L 290.097818 362.07648 
L 280.784291 360.62496 
L 277.8624 353.00448 
L 266.357455 335.04192 
L 261.061527 327.24 
L 268.001018 325.96992 
L 273.479564 331.05024 
L 285.8976 336.85632 
L 283.523564 347.74272 
L 284.984509 356.2704 
L 283.340945 358.0848 
L 285.167127 355.72608 
L 281.149527 353.5488 
L 281.514764 353.73024 
L 278.227636 347.1984 
L 273.8448 341.21088 
L 271.836 342.29952 
L 280.601673 341.02944 
L 290.280436 346.65408 
L 294.115418 356.63328 
L 301.054909 366.61248 
L 314.568655 376.95456 
L 316.577455 389.11104 
L 297.402545 382.03488 
L 266.540073 357.54048 
L 245.538982 330.68736 
L 236.042836 313.99488 
L 238.964727 298.57248 
L 247.547782 296.3952 
L 264.531273 314.72064 
L 288.454255 329.23584 
L 291.376145 346.47264 
L 293.567564 356.63328 
L 289.367345 361.53216 
L 289.549964 357.1776 
L 286.262836 354.81888 
L 274.757891 343.5696 
L 262.522473 328.51008 
L 259.965818 315.99072 
L 259.600582 311.8176 
L 270.557673 320.16384 
L 290.645673 337.03776 
L 318.221018 369.8784 
L 333.195709 398.18304 
L 322.603855 402.90048 
L 304.524655 399.45312 
L 272.018618 376.41024 
L 254.487273 343.38816 
L 245.7216 320.8896 
L 256.678691 318.34944 
L 268.731491 314.72064 
L 281.149527 324.88128 
L 285.714982 341.57376 
L 293.202327 352.46016 
L 296.124218 349.92 
L 300.689673 356.2704 
L 301.602764 364.79808 
L 297.219927 373.5072 
L 289.184727 363.34656 
L 271.105527 350.46432 
L 259.7832 337.58208 
L 257.043927 321.61536 
L 256.496073 314.35776 
L 252.843709 304.01568 
L 261.426764 304.92288 
L 274.757891 318.89376 
L 292.837091 342.29952 
L 309.272727 357.72192 
L 308.359636 372.78144 
L 295.393745 380.58336 
L 281.332145 376.2288 
L 266.905309 353.73024 
L 250.469673 333.22752 
L 232.390473 303.83424 
L 233.486182 286.05312 
L 241.156145 285.69024 
L 256.861309 301.8384 
L 292.289236 333.04608 
L 318.221018 362.80224 
L 326.804073 391.6512 
L 316.760073 409.06944 
L 301.237527 409.06944 
L 275.488364 391.83264 
L 256.130836 369.15264 
L 234.216655 338.30784 
L 237.503782 317.44224 
L 240.973527 303.6528 
L 260.148436 306.55584 
L 274.027418 329.41728 
L 287.9064 355.54464 
L 310.916291 383.84928 
L 324.430036 395.64288 
L 307.446545 382.5792 
L 245.173745 337.2192 
L 226.546691 318.168 
L 240.790909 306.3744 
L 268.366255 311.27328 
L 289.184727 331.95744 
L 306.716073 360.98784 
L 306.350836 381.672 
L 304.524655 391.6512 
L 289.184727 377.31744 
L 263.252945 349.73856 
L 237.321164 327.96576 
L 216.502691 300.20544 
L 209.015345 272.808 
L 218.146255 265.18752 
L 246.269455 281.15424 
L 275.670982 309.64032 
L 292.837091 335.76768 
L 310.0032 372.41856 
L 326.256218 401.08608 
L 316.942691 409.7952 
L 291.741382 407.61792 
L 257.7744 389.11104 
L 226.181455 353.91168 
L 209.380582 309.64032 
L 208.832727 278.97696 
L 229.285964 267.00192 
L 256.313455 283.33152 
L 275.670982 309.096 
L 282.062618 335.22336 
L 295.758982 364.07232 
L 313.290327 396.1872 
L 312.194618 406.52928 
L 286.628073 394.19136 
L 249.191345 362.25792 
L 218.146255 320.16384 
L 206.641309 287.50464 
L 224.903127 279.88416 
L 259.417964 299.47968 
L 298.680873 341.57376 
L 333.926182 390.01824 
L 339.222109 420.86304 
L 315.116509 442.09152 
L 278.045018 440.64 
L 240.060436 405.07776 
L 211.206764 350.10144 
L 186.918545 305.4672 
L 188.927345 272.26368 
L 213.215564 271.53792 
L 249.921818 288.2304 
L 290.828291 335.22336 
L 330.273818 391.46976 
L 338.309018 431.93088 
L 332.465236 458.05824 
L 294.480655 455.33664 
L 230.746909 417.41568 
L 185.822836 363.70944 
L 173.587418 319.80096 
L 188.379491 286.96032 
L 218.876727 277.344 
L 242.251855 284.96448 
L 263.435564 317.80512 
L 290.280436 358.992 
L 301.237527 398.0016 
L 289.732582 420.50016 
L 268.731491 420.6816 
L 239.6952 402.5376 
L 212.667709 369.69696 
L 201.528 329.41728 
L 207.371782 299.1168 
L 223.442182 291.8592 
L 264.531273 313.08768 
L 308.542255 360.44352 
L 331.917382 411.97248 
L 328.995491 444.2688 
L 298.498255 447.17184 
L 246.086836 423.94752 
L 207.919636 390.56256 
L 191.301382 355.18176 
L 190.570909 316.17216 
L 198.423491 295.12512 
L 217.415782 292.04064 
L 234.399273 306.19296 
L 251.930618 356.2704 
L 278.775491 409.43232 
L 293.384945 442.4544 
L 277.314545 457.33248 
L 242.799709 452.07072 
L 205.728218 425.39904 
L 195.136364 395.82432 
L 205.5456 364.97952 
L 223.259564 349.19424 
L 247.365164 355.72608 
L 274.392655 374.59584 
L 306.898691 408.888 
L 315.299127 435.01536 
L 291.924 432.11232 
L 256.678691 416.87136 
L 238.599491 395.46144 
L 241.156145 385.3008 
L 248.095636 375.86592 
L 268.001018 387.65952 
L 292.106618 404.71488 
L 293.019709 419.41152 
L 279.688582 421.04448 
L 268.366255 407.79936 
L 259.052727 389.65536 
L 261.792 383.84928 
L 278.227636 408.52512 
L 290.645673 423.58464 
L 278.045018 426.30624 
L 260.696291 420.50016 
L 246.086836 413.424 
L 244.078036 405.98496 
L 241.704 401.81184 
L 252.295855 404.53344 
L 267.270545 415.2384 
L 269.096727 420.50016 
L 254.122036 416.32704 
L 256.496073 416.32704 
L 263.252945 418.50432 
L 257.957018 419.59296 
L 260.513673 424.67328 
L 259.235345 421.95168 
L 249.921818 417.41568 
L 250.652291 421.04448 
L 259.965818 421.04448 
L 262.522473 427.21344 
L 253.7568 423.04032 
L 250.469673 413.78688 
L 263.983418 420.31872 
L 265.8096 418.68576 
L 257.226545 420.86304 
L 257.226545 419.41152 
L 249.7392 419.23008 
L 245.904218 414.3312 
L 247.7304 415.60128 
L 250.834909 416.1456 
L 253.939418 415.60128 
L 253.026327 416.32704 
L 251.930618 418.68576 
L 256.130836 421.40736 
L 251.748 421.77024 
L 249.7392 423.76608 
L 258.322255 427.9392 
L 247.913018 424.67328 
L 238.599491 426.1248 
L 236.590691 421.5888 
L 234.034036 423.4032 
L 230.381673 425.03616 
L 229.285964 422.496 
L 233.303564 428.12064 
L 231.294764 419.95584 
L 224.537891 414.14976 
L 219.6072 411.42816 
L 221.068145 410.52096 
L 226.911927 423.04032 
L 236.408073 436.104 
L 236.042836 441.00288 
L 231.112145 442.4544 
L 230.016436 436.28544 
L 225.268364 432.29376 
L 232.938327 430.29792 
L 234.216655 424.85472 
L 237.138545 426.85056 
L 236.042836 429.02784 
L 241.521382 433.92672 
L 241.886618 430.47936 
L 240.425673 433.74528 
L 232.390473 429.20928 
L 229.285964 425.94336 
L 233.486182 437.37408 
L 232.025236 432.65664 
L 223.442182 429.02784 
L 231.294764 425.39904 
L 229.103345 419.59296 
L 231.842618 424.67328 
L 236.042836 419.41152 
L 229.833818 422.31456 
L 232.390473 427.57632 
L 230.381673 427.9392 
L 228.920727 429.93504 
L 222.894327 425.58048 
L 219.972436 427.39488 
L 220.885527 428.66496 
L 224.537891 427.57632 
L 229.103345 426.66912 
L 232.938327 429.20928 
L 233.486182 431.568 
L 229.6512 433.56384 
L 222.529091 429.02784 
L 224.903127 429.39072 
L 231.66 427.75776 
L 222.711709 425.2176 
L 221.616 421.77024 
L 229.103345 424.85472 
L 232.025236 425.58048 
L 229.6512 427.9392 
L 229.833818 426.85056 
L 236.773309 434.65248 
L 240.425673 437.0112 
L 230.746909 434.47104 
L 227.6424 431.568 
L 227.6424 428.12064 
L 238.051636 433.74528 
L 238.051636 438.28128 
L 242.799709 442.4544 
L 229.833818 439.00704 
L 223.6248 433.56384 
L 223.259564 434.47104 
L 221.798618 436.46688 
L 216.320073 430.29792 
L 213.5808 425.39904 
L 217.050545 423.4032 
L 226.181455 434.2896 
L 226.546691 433.56384 
L 220.702909 429.20928 
L 216.137455 425.2176 
L 207.371782 414.51264 
L 210.293673 422.496 
L 212.485091 413.60544 
L 209.745818 398.9088 
L 216.137455 396.36864 
L 228.190255 394.19136 
L 234.399273 402.90048 
L 239.329964 408.52512 
L 241.156145 408.52512 
L 246.086836 418.68576 
L 247.365164 415.78272 
L 237.138545 414.51264 
L 235.312364 411.6096 
L 249.191345 407.0736 
L 250.652291 407.43648 
L 248.460873 410.15808 
L 256.313455 415.2384 
L 252.478473 415.96416 
L 254.487273 419.59296 
L 251.200145 419.59296 
L 237.138545 413.24256 
L 228.372873 410.15808 
L 229.103345 412.15392 
L 236.042836 404.352 
L 234.947127 405.07776 
L 242.617091 408.16224 
L 249.556582 411.79104 
L 249.373964 412.69824 
L 255.217745 410.7024 
L 265.079127 417.23424 
L 272.931709 426.85056 
L 261.244145 424.12896 
L 239.512582 418.68576 
L 228.555491 407.61792 
L 233.851418 398.9088 
L 246.634691 401.99328 
L 259.965818 409.06944 
L 251.930618 417.41568 
L 243.347564 415.2384 
L 233.851418 405.44064 
L 226.364073 407.61792 
L 229.103345 406.71072 
L 238.234255 406.34784 
L 244.260655 413.24256 
L 246.817309 414.51264 
L 249.008727 421.04448 
L 240.060436 418.14144 
L 234.399273 412.87968 
L 244.078036 413.96832 
L 255.582982 421.22592 
L 251.017527 413.24256 
L 244.078036 413.78688 
L 244.078036 416.50848 
L 242.251855 418.68576 
L 242.799709 415.05696 
L 243.7128 415.05696 
L 242.799709 414.3312 
L 245.7216 417.77856 
L 241.521382 413.96832 
L 242.434473 411.06528 
L 247.365164 408.888 
L 250.834909 411.06528 
L 250.652291 419.23008 
L 243.347564 417.41568 
L 240.790909 412.69824 
L 251.565382 416.87136 
L 250.104436 423.76608 
L 238.234255 418.68576 
L 230.929527 418.50432 
L 234.399273 414.51264 
L 233.851418 412.87968 
L 234.216655 410.7024 
L 237.321164 408.70656 
L 243.7128 414.69408 
L 248.278255 420.6816 
L 242.617091 418.68576 
L 235.129745 415.78272 
L 232.573091 409.61376 
L 232.207855 402.90048 
L 240.608291 399.99744 
L 247.182545 403.98912 
L 253.939418 405.98496 
L 247.365164 410.52096 
L 244.808509 411.6096 
L 244.991127 410.88384 
L 248.643491 408.52512 
L 251.200145 403.98912 
L 248.278255 408.16224 
L 253.7568 417.59712 
L 255.582982 414.3312 
L 245.356364 411.6096 
L 241.338764 409.97664 
L 252.478473 412.33536 
L 266.540073 423.22176 
L 267.087927 429.7536 
L 253.574182 429.20928 
L 241.338764 421.04448 
L 243.164945 415.2384 
L 244.078036 408.888 
L 251.200145 415.2384 
L 257.591782 417.77856 
L 255.7656 420.86304 
L 255.948218 421.40736 
L 253.208945 418.50432 
L 249.921818 414.69408 
L 246.817309 410.33952 
L 248.460873 413.78688 
L 249.008727 406.71072 
L 248.460873 415.60128 
L 249.556582 419.04864 
L 245.904218 416.50848 
L 251.930618 420.13728 
L 252.478473 419.95584 
L 240.243055 417.23424 
L 232.207855 412.5168 
L 229.6512 398.72736 
L 230.381673 400.7232 
L 238.782109 408.70656 
L 245.7216 413.06112 
L 247.7304 414.69408 
L 248.643491 415.60128 
L 243.7128 411.6096 
L 234.216655 401.08608 
L 239.512582 400.7232 
L 254.852509 407.9808 
L 258.870109 418.32288 
L 251.382764 418.32288 
L 242.799709 415.60128 
L 231.112145 407.79936 
L 227.459782 401.6304 
L 232.938327 401.08608 
L 248.460873 403.80768 
L 257.043927 411.24672 
L 254.122036 416.87136 
L 256.861309 415.78272 
L 256.861309 418.14144 
L 258.504873 417.77856 
L 253.026327 410.52096 
L 246.086836 410.52096 
L 244.625891 409.06944 
L 243.895418 410.15808 
L 249.7392 415.2384 
L 251.565382 411.42816 
L 246.452073 409.97664 
L 246.269455 410.33952 
L 254.852509 415.2384 
L 256.130836 414.87552 
L 247.913018 420.50016 
L 246.634691 418.50432 
L 248.278255 418.14144 
L 249.556582 415.60128 
L 242.982327 412.33536 
L 240.973527 412.5168 
L 242.982327 414.14976 
L 234.216655 410.15808 
L 238.051636 403.80768 
L 250.287055 407.61792 
L 256.130836 408.888 
L 257.957018 419.04864 
L 249.921818 412.69824 
L 255.7656 411.79104 
L 254.487273 408.70656 
L 244.808509 414.14976 
L 245.904218 413.78688 
L 233.486182 408.70656 
L 236.955927 410.52096 
L 235.6776 411.79104 
L 229.285964 410.88384 
L 234.399273 409.06944 
L 239.512582 413.60544 
L 237.869018 413.424 
L 240.060436 411.97248 
L 245.538982 406.52928 
L 238.964727 400.90464 
L 244.625891 405.07776 
L 253.939418 409.43232 
L 249.373964 407.61792 
L 245.538982 404.71488 
L 240.608291 402.90048 
L 241.521382 423.76608 
L 242.617091 439.36992 
L 239.512582 444.63168 
L 223.807418 437.37408 
L 217.5984 431.74944 
L 218.328873 427.9392 
L 215.406982 423.22176 
L 211.572 421.5888 
L 228.555491 422.85888 
L 228.190255 428.30208 
L 236.773309 439.91424 
L 235.6776 446.9904 
L 228.007636 439.91424 
L 217.5984 434.10816 
L 208.832727 424.12896 
L 213.215564 425.76192 
L 221.616 426.1248 
L 221.798618 428.30208 
L 219.6072 428.48352 
L 218.511491 432.11232 
L 226.364073 431.38656 
L 223.259564 432.11232 
L 213.946036 431.02368 
L 217.5984 429.02784 
L 227.825018 432.65664 
L 227.6424 438.46272 
L 218.694109 432.65664 
L 218.328873 430.29792 
L 214.493891 434.65248 
L 220.337673 439.36992 
L 224.903127 436.82976 
L 216.320073 435.74112 
L 211.937236 429.57216 
L 212.119855 426.48768 
L 218.511491 426.66912 
L 225.085745 429.7536 
L 226.546691 425.39904 
L 226.546691 424.85472 
L 227.277164 423.4032 
L 235.860218 430.6608 
L 241.156145 436.46688 
L 242.251855 441.18432 
L 237.138545 433.92672 
L 230.381673 431.568 
L 234.034036 425.94336 
L 239.877818 426.48768 
L 238.051636 424.67328 
L 236.408073 428.30208 
L 236.408073 428.12064 
L 239.147345 434.10816 
L 234.216655 430.47936 
L 222.346473 421.04448 
L 226.364073 421.04448 
L 229.285964 419.95584 
L 230.746909 425.39904 
L 236.408073 430.11648 
L 244.991127 438.46272 
L 234.947127 440.09568 
L 222.894327 431.74944 
L 225.085745 424.85472 
L 228.372873 425.58048 
L 223.807418 426.30624 
L 224.903127 424.3104 
L 224.172655 421.22592 
L 215.954836 415.96416 
L 231.66 417.77856 
L 238.051636 424.49184 
L 232.207855 423.94752 
L 230.199055 431.568 
L 233.6688 429.7536 
L 238.782109 423.4032 
L 240.608291 418.50432 
L 242.251855 416.68992 
L 249.556582 421.95168 
L 241.338764 416.87136 
L 246.086836 418.8672 
L 254.487273 426.1248 
L 257.409164 426.30624 
L 255.7656 424.85472 
L 257.957018 417.59712 
L 261.244145 417.77856 
L 259.600582 420.13728 
L 263.252945 418.8672 
L 261.792 421.40736 
L 257.226545 422.496 
L 257.7744 424.3104 
L 255.7656 424.67328 
L 254.304655 423.4032 
L 262.339855 425.2176 
L 257.7744 426.66912 
L 252.113236 423.4032 
L 265.444364 427.39488 
L 254.669891 423.22176 
L 243.164945 421.95168 
L 239.6952 417.59712 
L 237.6864 406.1664 
L 243.347564 404.352 
L 258.322255 404.89632 
L 268.731491 421.04448 
L 276.036218 433.01952 
L 268.731491 436.104 
L 256.861309 431.568 
L 241.704 415.96416 
L 234.581891 406.89216 
L 244.078036 398.36448 
L 246.269455 390.19968 
L 250.104436 390.19968 
L 263.618182 403.62624 
L 287.358545 417.77856 
L 291.193527 425.2176 
L 265.261745 422.67744 
L 251.382764 401.6304 
L 248.643491 392.19552 
L 261.792 388.9296 
L 279.323345 397.0944 
L 286.445455 404.89632 
L 297.9504 415.05696 
L 304.889891 422.31456 
L 289.549964 417.0528 
L 271.470764 407.79936 
L 267.8184 392.19552 
L 272.201236 380.58336 
L 272.018618 377.136 
L 276.401455 384.3936 
L 298.680873 402.71904 
L 307.446545 417.41568 
L 296.672073 413.60544 
L 262.705091 398.9088 
L 256.861309 387.84096 
L 273.114327 385.3008 
L 298.315636 397.0944 
L 300.872291 405.07776 
L 298.315636 410.88384 
L 294.845891 406.71072 
L 271.836 367.70112 
L 261.061527 340.66656 
L 274.210036 327.24 
L 285.8976 339.9408 
L 318.768873 376.41024 
L 337.578545 413.96832 
L 322.421236 427.9392 
L 284.254036 408.888 
L 246.269455 376.41024 
L 228.920727 344.29536 
L 239.329964 323.42976 
L 260.878909 322.15968 
L 281.697382 344.83968 
L 296.306836 365.16096 
L 305.620364 401.44896 
L 301.237527 418.14144 
L 274.027418 408.70656 
L 235.494982 383.84928 
L 207.5544 341.57376 
L 206.458691 311.8176 
L 236.955927 310.54752 
L 276.766691 332.86464 
L 305.620364 368.064 
L 316.212218 402.5376 
L 321.690764 428.12064 
L 298.680873 434.83392 
L 256.861309 409.06944 
L 221.068145 371.87424 
L 211.389382 338.85216 
L 223.6248 312.90624 
L 248.643491 310.9104 
L 270.922909 327.42144 
L 284.254036 347.56128 
L 283.340945 367.1568 
L 286.080218 386.75232 
L 291.558764 400.54176 
L 282.427855 399.63456 
L 256.678691 382.39776 
L 225.6336 351.7344 
L 221.068145 325.06272 
L 235.860218 312.54336 
L 253.574182 314.5392 
L 269.279345 330.68736 
L 275.670982 342.11808 
L 270.740291 350.28288 
L 264.713891 362.6208 
L 264.348655 362.6208 
L 267.270545 346.47264 
L 253.7568 334.31616 
L 241.521382 324.15552 
L 243.7128 316.89792 
L 255.217745 324.88128 
L 269.096727 334.13472 
L 279.140727 343.38816 
L 288.454255 361.16928 
L 291.741382 365.88672 
L 290.280436 365.88672 
L 282.975709 364.07232 
L 271.288145 351.7344 
L 268.183636 341.39232 
L 263.435564 323.24832 
L 255.035127 318.71232 
L 264.166036 314.72064 
L 271.653382 322.88544 
L 282.427855 341.93664 
L 297.9504 356.08896 
L 310.916291 375.3216 
L 301.785382 384.75648 
L 288.089018 385.11936 
L 274.575273 374.59584 
L 255.948218 354.09312 
L 231.477382 315.62784 
L 219.241964 285.87168 
L 227.459782 272.62656 
L 257.409164 287.14176 
L 286.262836 317.2608 
L 301.054909 341.21088 
L 303.246327 364.4352 
L 294.845891 372.23712 
L 292.837091 368.60832 
L 271.470764 350.8272 
L 249.373964 325.96992 
L 237.6864 304.01568 
L 238.599491 297.84672 
L 253.391564 299.84256 
L 280.966909 320.70816 
L 301.968 352.27872 
L 317.490545 374.05152 
L 316.394836 388.56672 
L 290.828291 382.39776 
L 265.992218 358.62912 
L 248.460873 329.9616 
L 239.877818 314.90208 
L 255.948218 311.27328 
L 274.575273 313.08768 
L 289.9152 336.312 
L 310.733673 366.43104 
L 317.855782 389.47392 
L 303.246327 383.66784 
L 266.357455 358.0848 
L 230.564291 327.42144 
L 208.467491 291.8592 
L 204.267273 260.65152 
L 209.197964 251.0352 
L 232.025236 268.63488 
L 260.148436 289.50048 
L 283.8888 317.44224 
L 295.758982 346.47264 
L 300.141818 367.51968 
L 296.306836 369.15264 
L 273.114327 361.16928 
L 252.661091 343.5696 
L 240.608291 314.35776 
L 236.408073 296.57664 
L 246.269455 298.2096 
L 257.226545 309.82176 
L 274.940509 327.60288 
L 281.697382 339.75936 
L 296.306836 351.7344 
L 307.9944 367.51968 
L 294.115418 368.60832 
L 283.158327 365.88672 
L 266.357455 358.0848 
L 257.591782 343.38816 
L 260.696291 325.60704 
L 261.974618 315.80928 
L 261.061527 319.43808 
L 274.210036 329.23584 
L 296.489455 349.73856 
L 312.012 364.97952 
L 313.472945 378.22464 
L 313.472945 378.22464 
" clip-path="url(#pd90b35fbff)" style="fill: none; stroke-dasharray: 5.55,2.4; stroke-dashoffset: 0; stroke: #008000; stroke-opacity: 0.7; stroke-width: 1.5"/>
   </g>
   <g id="line2d_26">
    <path d="M 81 77.76 
L 583.2 576.72 
" clip-path="url(#pd90b35fbff)" style="fill: none; stroke: #000000; stroke-width: 1.5; stroke-linecap: square"/>
   </g>
   <g id="line2d_27">
    <path d="M 81 554.04 
L 649 554.04 
" clip-path="url(#pd90b35fbff)" style="fill: none; stroke-dasharray: 9.6,2.4,1.5,2.4; stroke-dashoffset: 0; stroke: #000000; stroke-width: 1.5"/>
   </g>
   <g id="line2d_28">
    <path d="M 103.827273 576.72 
L 103.827273 -1 
" clip-path="url(#pd90b35fbff)" style="fill: none; stroke-dasharray: 9.6,2.4,1.5,2.4; stroke-dashoffset: 0; stroke: #000000; stroke-width: 1.5"/>
   </g>
   <g id="line2d_29">
    <path d="M 241.338764 509.04288 
L 223.807418 512.3088 
L 192.579709 499.97088 
L 166.100073 486.18144 
L 160.986764 475.1136 
L 158.977964 460.05408 
L 162.082473 440.09568 
L 164.456509 419.95584 
L 166.830545 407.0736 
L 173.4048 399.27168 
L 186.735927 396.36864 
L 191.118764 390.92544 
L 203.719418 389.11104 
L 213.946036 398.36448 
L 225.816218 404.71488 
L 231.842618 406.89216 
L 230.381673 413.78688 
L 232.755709 413.06112 
L 234.216655 416.1456 
L 242.069236 417.23424 
L 238.964727 414.69408 
L 237.6864 415.78272 
L 243.347564 416.87136 
L 239.6952 412.69824 
L 230.564291 403.08192 
L 233.120945 399.27168 
L 243.530182 403.80768 
L 245.7216 410.15808 
L 240.060436 410.88384 
L 239.147345 413.78688 
L 234.399273 414.14976 
L 238.416873 418.50432 
L 243.164945 415.78272 
L 235.129745 409.97664 
L 238.782109 408.52512 
L 242.434473 412.15392 
L 251.382764 421.5888 
L 253.7568 421.40736 
L 249.556582 423.76608 
L 244.078036 423.94752 
L 248.460873 424.85472 
L 244.991127 418.68576 
L 250.287055 425.58048 
L 255.035127 424.12896 
L 254.304655 428.66496 
L 254.122036 424.12896 
L 245.173745 419.7744 
L 243.347564 421.77024 
L 245.538982 425.39904 
L 231.66 415.41984 
L 230.199055 410.88384 
L 239.6952 411.42816 
L 245.173745 414.14976 
L 244.991127 416.68992 
L 236.590691 417.77856 
L 233.120945 411.42816 
L 229.285964 407.43648 
L 232.207855 407.61792 
L 224.720509 398.9088 
L 219.6072 391.10688 
L 230.746909 401.08608 
L 244.625891 410.52096 
L 252.113236 416.50848 
L 253.7568 419.59296 
L 256.861309 423.94752 
L 251.382764 423.58464 
L 233.851418 416.87136 
L 235.494982 412.69824 
L 237.503782 407.0736 
L 231.477382 402.5376 
L 232.390473 402.90048 
L 238.599491 408.52512 
L 236.590691 404.71488 
L 247.7304 410.52096 
L 247.547782 408.888 
L 242.069236 406.71072 
L 246.817309 409.43232 
L 255.217745 413.78688 
L 257.226545 418.50432 
L 250.834909 420.50016 
L 257.226545 422.67744 
L 249.008727 417.41568 
L 240.243055 409.06944 
L 242.982327 409.97664 
L 244.625891 406.89216 
L 239.512582 407.0736 
L 245.538982 406.89216 
L 250.104436 411.24672 
L 241.156145 402.5376 
L 236.773309 401.6304 
L 241.886618 404.17056 
L 246.817309 427.57632 
L 245.356364 440.82144 
L 228.190255 437.19264 
L 207.919636 425.76192 
L 198.240873 421.04448 
L 202.258473 423.04032 
L 206.276073 421.5888 
L 211.572 429.93504 
L 214.859127 432.65664 
L 206.641309 433.3824 
L 205.5456 421.5888 
L 207.5544 417.0528 
L 206.823927 416.50848 
L 211.389382 422.496 
L 214.493891 424.49184 
L 220.885527 424.3104 
L 222.346473 425.58048 
L 228.372873 428.12064 
L 225.6336 432.4752 
L 230.016436 439.7328 
L 225.085745 439.7328 
L 213.5808 430.84224 
L 211.754618 419.95584 
L 211.937236 416.32704 
L 214.859127 417.23424 
L 229.468582 430.29792 
L 236.773309 440.45856 
L 230.929527 444.99456 
L 225.085745 442.27296 
L 214.676509 439.91424 
L 207.5544 428.66496 
L 211.937236 427.032 
L 219.241964 422.496 
L 223.442182 422.496 
L 223.6248 423.76608 
L 230.746909 432.29376 
L 237.6864 435.1968 
L 237.321164 434.65248 
L 225.816218 430.29792 
L 227.459782 436.64832 
L 222.894327 435.92256 
L 215.406982 438.28128 
L 213.032945 429.02784 
L 211.572 425.03616 
L 219.241964 419.95584 
L 219.789818 417.96 
L 221.250764 421.04448 
L 226.911927 417.41568 
L 232.573091 420.31872 
L 242.982327 431.74944 
L 237.503782 434.2896 
L 235.312364 432.83808 
L 236.590691 426.85056 
L 240.060436 424.12896 
L 250.287055 433.20096 
L 251.017527 436.46688 
L 244.078036 438.8256 
L 227.825018 430.29792 
L 221.068145 424.85472 
L 227.459782 422.85888 
L 238.782109 426.1248 
L 235.129745 426.1248 
L 233.6688 430.11648 
L 240.243055 433.56384 
L 234.399273 435.55968 
L 230.016436 434.83392 
L 227.825018 429.7536 
L 224.903127 426.66912 
L 225.816218 424.12896 
L 228.738109 422.31456 
L 244.443273 431.74944 
L 249.373964 440.27712 
L 234.764509 433.56384 
L 218.511491 425.58048 
L 220.885527 419.23008 
L 232.207855 421.5888 
L 237.869018 418.50432 
L 241.704 415.96416 
L 258.322255 422.31456 
L 255.035127 423.04032 
L 245.173745 417.77856 
L 245.356364 413.60544 
L 248.643491 411.6096 
L 260.696291 416.68992 
L 261.974618 425.76192 
L 255.400364 427.032 
L 240.608291 419.7744 
L 227.825018 407.9808 
L 234.034036 406.1664 
L 251.017527 412.33536 
L 258.687491 415.60128 
L 251.382764 420.50016 
L 259.235345 425.2176 
L 258.322255 422.85888 
L 249.7392 421.95168 
L 243.347564 411.6096 
L 245.904218 408.34368 
L 261.244145 415.2384 
L 264.896509 423.58464 
L 264.531273 429.39072 
L 255.035127 424.3104 
L 241.156145 415.96416 
L 243.7128 413.06112 
L 246.269455 411.42816 
L 246.634691 413.424 
L 249.556582 416.68992 
L 251.930618 420.31872 
L 253.7568 425.2176 
L 245.538982 414.69408 
L 238.964727 407.25504 
L 234.399273 397.45728 
L 246.999927 397.45728 
L 265.626982 396.00576 
L 280.784291 404.71488 
L 282.975709 408.34368 
L 274.392655 407.79936 
L 264.166036 402.5376 
L 267.087927 395.46144 
L 269.461964 394.3728 
L 284.436655 403.08192 
L 286.445455 403.08192 
L 273.662182 400.7232 
L 272.383855 396.36864 
L 282.427855 399.99744 
L 289.732582 413.78688 
L 281.88 415.05696 
L 267.087927 412.5168 
L 266.357455 403.80768 
L 268.183636 398.54592 
L 266.722691 395.82432 
L 266.905309 392.5584 
L 264.531273 385.48224 
L 261.244145 377.31744 
L 276.949309 383.66784 
L 287.541164 397.27584 
L 283.340945 385.48224 
L 280.784291 371.51136 
L 287.9064 366.61248 
L 290.645673 366.61248 
L 290.645673 366.97536 
L 283.8888 357.35904 
L 275.123127 360.08064 
L 290.463055 365.52384 
L 302.698473 379.49472 
L 300.689673 398.18304 
L 297.402545 409.7952 
L 292.837091 404.352 
L 263.618182 375.86592 
L 234.581891 345.384 
L 241.521382 326.51424 
L 255.217745 317.98656 
L 264.896509 328.87296 
L 284.801891 363.34656 
L 306.716073 391.6512 
L 293.9328 396.91296 
L 270.375055 397.27584 
L 255.582982 390.56256 
L 248.278255 376.41024 
L 250.834909 358.26624 
L 249.373964 343.02528 
L 257.226545 333.95328 
L 268.914109 343.5696 
L 286.993309 356.45184 
L 298.680873 377.136 
L 311.646764 400.36032 
L 305.9856 410.88384 
L 277.131927 404.53344 
L 255.035127 382.76064 
L 238.782109 359.53632 
L 238.051636 339.57792 
L 241.156145 322.15968 
L 254.304655 317.07936 
L 263.435564 334.67904 
L 268.914109 351.19008 
L 291.558764 381.49056 
L 298.133018 387.1152 
L 283.158327 378.22464 
L 254.122036 356.2704 
L 236.042836 338.67072 
L 242.617091 331.776 
L 276.218836 331.23168 
L 280.236436 347.37984 
L 280.966909 358.62912 
L 274.210036 352.6416 
L 264.896509 340.48512 
L 246.999927 325.60704 
L 242.799709 316.3536 
L 245.173745 311.45472 
L 251.565382 313.99488 
L 252.843709 310.36608 
L 262.157236 316.89792 
L 278.410255 331.59456 
L 295.576364 350.64576 
L 303.9768 370.42272 
L 301.420145 383.30496 
L 276.036218 372.41856 
L 263.618182 358.62912 
L 252.843709 338.30784 
L 248.278255 324.33696 
L 245.904218 320.34528 
L 253.391564 324.33696 
L 264.896509 328.87296 
L 282.975709 339.21504 
L 293.019709 353.18592 
L 278.227636 356.2704 
L 263.252945 346.2912 
L 246.269455 325.78848 
L 226.364073 309.096 
L 226.546691 296.03232 
L 247.182545 286.59744 
L 268.914109 301.47552 
L 292.654473 329.78016 
L 297.9504 350.10144 
L 295.211127 369.69696 
L 285.532364 369.15264 
L 272.201236 349.0128 
L 256.313455 325.78848 
L 233.851418 307.10016 
L 227.459782 298.57248 
L 238.782109 294.03648 
L 254.122036 305.83008 
L 272.749091 314.72064 
L 296.124218 350.46432 
L 325.343127 390.19968 
L 317.855782 392.01408 
L 295.393745 383.12352 
L 261.244145 359.35488 
L 243.164945 326.51424 
L 229.285964 299.1168 
L 235.494982 290.22624 
L 249.921818 286.23456 
L 276.401455 303.10848 
L 294.115418 333.77184 
L 306.533455 352.82304 
L 306.350836 361.16928 
L 291.558764 361.89504 
L 280.236436 355.00032 
L 264.896509 337.2192 
L 255.582982 319.25664 
L 239.512582 303.47136 
L 241.886618 304.74144 
L 260.878909 316.71648 
L 288.454255 333.95328 
L 302.698473 350.28288 
L 298.863491 364.4352 
L 299.228727 370.05984 
L 292.654473 367.70112 
L 280.784291 354.27456 
L 265.992218 339.75936 
L 262.339855 322.34112 
L 257.591782 321.43392 
L 261.974618 318.168 
L 270.922909 325.78848 
L 279.688582 330.50592 
L 282.610473 339.57792 
L 281.697382 344.29536 
L 291.193527 356.08896 
L 306.533455 363.70944 
L 311.281527 372.05568 
L 306.168218 369.69696 
L 290.097818 371.6928 
L 274.210036 361.53216 
L 267.087927 343.75104 
L 262.522473 319.0752 
L 249.921818 300.9312 
L 251.930618 293.49216 
L 271.653382 306.91872 
L 299.228727 337.76352 
L 333.926182 370.42272 
L 337.761164 388.38528 
L 327.351927 398.18304 
L 298.315636 387.1152 
L 275.8536 365.70528 
L 270.557673 340.66656 
L 258.870109 316.71648 
L 257.7744 307.64448 
L 259.235345 307.46304 
L 273.296945 316.3536 
L 286.628073 331.23168 
L 292.289236 341.57376 
L 277.497164 341.39232 
L 269.644582 336.312 
L 263.983418 323.97408 
L 267.635782 325.24416 
L 274.757891 331.41312 
L 286.262836 339.57792 
L 292.654473 347.1984 
L 290.463055 352.82304 
L 282.427855 348.28704 
L 272.383855 342.11808 
L 261.244145 336.49344 
L 257.043927 320.70816 
L 261.061527 317.2608 
L 259.7832 315.08352 
L 268.731491 325.96992 
L 286.993309 337.03776 
L 290.463055 352.46016 
L 295.576364 361.35072 
L 288.271636 364.61664 
L 277.131927 355.90752 
L 257.043927 338.67072 
L 248.278255 324.15552 
L 250.834909 310.18464 
L 263.435564 315.4464 
L 282.610473 330.14304 
L 293.567564 337.76352 
L 288.819491 358.62912 
L 289.732582 368.9712 
L 294.845891 367.51968 
L 291.010909 362.80224 
L 272.749091 351.19008 
L 257.409164 341.93664 
L 251.200145 328.51008 
L 265.444364 330.8688 
L 278.775491 335.94912 
L 290.828291 353.00448 
L 288.636873 360.08064 
L 288.636873 363.89088 
L 287.541164 363.89088 
L 280.601673 353.91168 
L 263.8008 340.30368 
L 248.278255 328.87296 
L 254.304655 321.7968 
L 266.722691 325.24416 
L 275.123127 332.13888 
L 280.236436 341.39232 
L 283.158327 345.74688 
L 291.010909 350.46432 
L 287.175927 355.3632 
L 285.167127 352.27872 
L 281.88 351.7344 
L 262.522473 334.86048 
L 262.157236 328.32864 
L 264.713891 328.32864 
L 273.479564 339.75936 
L 293.202327 357.90336 
L 307.263927 378.58752 
L 314.568655 392.5584 
L 294.298036 388.9296 
L 259.052727 367.1568 
L 238.416873 342.84384 
L 242.251855 318.53088 
L 250.287055 307.10016 
L 269.096727 316.53504 
L 291.741382 343.93248 
L 309.272727 368.24544 
L 306.350836 379.13184 
L 290.463055 376.77312 
L 273.8448 364.07232 
L 250.104436 336.49344 
L 230.564291 317.62368 
L 232.207855 306.91872 
L 257.043927 310.18464 
L 294.298036 340.66656 
L 311.281527 372.05568 
L 313.107709 405.98496 
L 300.689673 418.14144 
L 292.654473 415.2384 
L 265.992218 388.9296 
L 233.6688 359.8992 
L 221.250764 336.49344 
L 235.6776 324.69984 
L 260.148436 331.41312 
L 286.993309 344.29536 
L 293.750182 364.61664 
L 293.750182 385.66368 
L 305.9856 405.98496 
L 301.420145 413.424 
L 274.027418 396.36864 
L 242.069236 384.21216 
L 229.833818 371.14848 
L 229.6512 352.82304 
L 227.459782 327.60288 
L 249.556582 328.69152 
L 275.488364 348.1056 
L 282.245236 365.52384 
L 281.149527 390.01824 
L 276.949309 399.09024 
L 265.8096 386.38944 
L 251.748 368.42688 
L 234.034036 358.44768 
L 234.764509 355.18176 
L 249.7392 367.70112 
L 270.922909 378.76896 
L 268.183636 372.78144 
L 238.599491 355.3632 
L 228.372873 346.47264 
L 248.278255 348.28704 
L 263.618182 352.27872 
L 265.444364 361.7136 
L 254.122036 372.41856 
L 244.625891 380.40192 
L 241.338764 378.40608 
L 244.443273 370.42272 
L 252.113236 391.6512 
L 254.669891 405.62208 
L 249.556582 411.79104 
L 240.790909 403.98912 
L 236.590691 397.63872 
L 234.034036 388.38528 
L 235.494982 383.84928 
L 245.904218 384.93792 
L 264.166036 387.29664 
L 275.488364 391.83264 
L 280.236436 398.72736 
L 281.149527 403.80768 
L 271.105527 403.4448 
L 270.922909 399.27168 
L 268.366255 395.82432 
L 271.105527 396.73152 
L 282.062618 403.4448 
L 287.9064 407.9808 
L 288.636873 416.68992 
L 277.8624 415.60128 
L 265.444364 405.2592 
L 263.983418 396.55008 
L 267.270545 396.73152 
L 267.635782 393.64704 
L 268.731491 398.18304 
L 266.722691 405.07776 
L 271.836 418.68576 
L 265.079127 419.41152 
L 248.095636 418.14144 
L 239.329964 415.96416 
L 242.069236 412.69824 
L 249.921818 415.05696 
L 252.478473 416.50848 
L 253.026327 420.6816 
L 263.252945 425.39904 
L 253.026327 415.41984 
L 234.947127 411.24672 
L 234.216655 402.17472 
L 247.913018 401.44896 
L 258.870109 412.15392 
L 268.731491 416.50848 
L 274.575273 423.94752 
L 272.931709 421.04448 
L 257.409164 420.31872 
L 253.939418 413.06112 
L 249.556582 410.52096 
L 247.365164 405.44064 
L 248.643491 409.25088 
L 252.661091 415.96416 
L 264.531273 424.67328 
L 261.609382 428.12064 
L 251.565382 429.7536 
L 246.999927 422.496 
L 248.643491 416.50848 
L 250.104436 413.96832 
L 253.7568 423.58464 
L 261.426764 429.7536 
L 255.035127 429.02784 
L 238.051636 422.13312 
L 237.138545 417.0528 
L 243.164945 412.33536 
L 241.704 417.77856 
L 258.322255 426.66912 
L 265.626982 441.72864 
L 260.331055 443.18016 
L 236.042836 430.84224 
L 224.172655 416.68992 
L 221.433382 411.06528 
L 229.285964 415.2384 
L 230.199055 420.31872 
L 229.103345 425.94336 
L 234.034036 429.39072 
L 225.6336 422.85888 
L 216.320073 417.96 
L 218.146255 414.69408 
L 215.224364 413.78688 
L 213.763418 409.25088 
L 219.241964 415.60128 
L 226.911927 422.13312 
L 226.729309 423.58464 
L 219.972436 420.6816 
L 222.711709 425.76192 
L 228.007636 422.13312 
L 220.702909 424.12896 
L 218.511491 423.58464 
L 218.694109 427.57632 
L 223.6248 427.21344 
L 222.711709 424.67328 
L 227.459782 428.48352 
L 235.494982 433.01952 
L 239.147345 437.55552 
L 237.503782 437.0112 
L 238.416873 432.4752 
L 236.773309 431.02368 
L 226.181455 428.12064 
L 215.954836 423.04032 
L 213.032945 425.94336 
L 223.442182 423.04032 
L 234.947127 434.2896 
L 238.964727 443.3616 
L 230.929527 444.08736 
L 222.529091 437.73696 
L 213.763418 438.46272 
L 212.119855 437.19264 
L 213.032945 433.74528 
L 215.406982 432.4752 
L 221.250764 436.64832 
L 224.355273 436.28544 
L 222.529091 438.46272 
L 223.6248 436.28544 
L 221.068145 436.28544 
L 221.068145 435.55968 
L 225.816218 432.65664 
L 226.364073 433.3824 
L 224.903127 437.55552 
L 227.277164 437.0112 
L 223.807418 436.82976 
L 219.972436 437.9184 
L 217.5984 434.47104 
L 216.137455 430.6608 
L 209.197964 420.13728 
L 204.815127 418.14144 
L 208.650109 418.68576 
L 221.798618 425.03616 
L 229.833818 434.47104 
L 229.468582 434.83392 
L 216.867927 430.47936 
L 206.823927 427.39488 
L 213.032945 423.4032 
L 223.076945 430.29792 
L 222.711709 427.75776 
L 228.372873 433.3824 
L 234.216655 437.19264 
L 227.459782 438.64416 
L 214.493891 431.20512 
L 213.946036 430.29792 
L 216.137455 431.93088 
L 215.406982 435.92256 
L 217.5984 431.568 
L 219.424582 423.94752 
L 219.241964 415.78272 
L 227.094545 406.89216 
L 232.755709 400.90464 
L 237.869018 399.09024 
L 244.625891 406.89216 
L 249.191345 409.7952 
L 243.530182 409.06944 
L 249.7392 413.06112 
L 255.582982 415.41984 
L 259.965818 420.31872 
L 254.304655 419.41152 
L 242.799709 414.14976 
L 238.051636 408.70656 
L 241.886618 412.15392 
L 247.547782 413.78688 
L 248.095636 418.32288 
L 246.634691 409.7952 
L 246.634691 413.78688 
L 257.226545 417.96 
L 262.887709 418.50432 
L 251.930618 416.50848 
L 242.982327 416.50848 
L 248.460873 419.7744 
L 252.661091 419.41152 
L 254.304655 420.50016 
L 253.574182 419.23008 
L 253.7568 416.50848 
L 247.7304 415.2384 
L 245.173745 411.97248 
L 248.643491 413.06112 
L 237.138545 402.5376 
L 234.399273 404.71488 
L 239.147345 401.08608 
L 234.947127 395.28 
L 245.538982 405.2592 
L 261.792 413.78688 
L 263.983418 416.50848 
L 255.7656 423.76608 
L 258.322255 426.48768 
L 252.661091 430.11648 
L 238.782109 420.50016 
L 229.6512 411.06528 
L 234.947127 403.08192 
L 243.347564 408.52512 
L 248.643491 415.96416 
L 253.7568 418.32288 
L 247.913018 419.23008 
L 236.042836 418.14144 
L 237.138545 418.8672 
L 236.590691 411.79104 
L 232.573091 404.53344 
L 240.060436 406.71072 
L 252.661091 416.1456 
L 257.226545 423.22176 
L 246.999927 416.32704 
L 241.886618 415.41984 
L 240.243055 413.06112 
L 241.156145 405.62208 
L 237.321164 399.63456 
L 237.321164 397.27584 
L 246.086836 397.63872 
L 256.678691 410.7024 
L 254.122036 415.41984 
L 257.226545 421.77024 
L 258.687491 423.94752 
L 245.538982 422.67744 
L 236.773309 412.5168 
L 239.6952 408.52512 
L 250.834909 408.16224 
L 249.7392 407.79936 
L 241.156145 415.2384 
L 232.938327 409.06944 
L 232.390473 407.0736 
L 241.156145 406.1664 
L 250.834909 415.05696 
L 262.705091 426.48768 
L 257.409164 429.02784 
L 240.973527 420.13728 
L 230.199055 405.44064 
L 238.599491 406.89216 
L 251.017527 407.25504 
L 254.304655 415.60128 
L 250.834909 413.24256 
L 248.095636 418.68576 
L 246.817309 421.77024 
L 240.060436 420.13728 
L 239.147345 422.85888 
L 241.704 420.50016 
L 242.434473 413.424 
L 238.782109 411.42816 
L 235.312364 416.1456 
L 226.911927 408.70656 
L 224.355273 402.5376 
L 224.903127 399.45312 
L 239.6952 403.62624 
L 255.7656 412.5168 
L 261.426764 423.76608 
L 253.7568 429.57216 
L 241.521382 423.94752 
L 224.172655 417.96 
L 225.085745 409.25088 
L 227.277164 402.90048 
L 237.138545 401.6304 
L 243.895418 409.7952 
L 246.634691 412.69824 
L 241.338764 408.70656 
L 245.7216 408.888 
L 248.460873 413.96832 
L 249.556582 409.43232 
L 244.625891 410.33952 
L 241.886618 412.15392 
L 241.156145 411.06528 
L 243.347564 412.15392 
L 245.904218 411.97248 
L 248.278255 412.33536 
L 240.425673 404.53344 
L 238.964727 402.90048 
L 249.008727 409.06944 
L 253.574182 410.15808 
L 250.104436 417.77856 
L 245.7216 421.95168 
L 241.521382 413.78688 
L 244.991127 417.0528 
L 242.799709 410.88384 
L 242.251855 402.71904 
L 246.452073 408.52512 
L 257.226545 415.78272 
L 248.643491 417.59712 
L 243.347564 419.95584 
L 241.704 415.60128 
L 238.234255 413.24256 
L 233.6688 404.53344 
L 232.755709 400.7232 
L 245.356364 407.9808 
L 260.148436 418.50432 
L 259.052727 419.59296 
L 250.287055 420.50016 
L 237.503782 415.41984 
L 234.764509 411.42816 
L 248.643491 417.0528 
L 256.130836 420.86304 
L 252.113236 423.04032 
L 243.7128 414.51264 
L 235.494982 409.06944 
L 233.120945 400.54176 
L 228.007636 396.36864 
L 232.390473 398.9088 
L 242.982327 403.62624 
L 244.625891 404.89632 
L 243.530182 400.17888 
L 253.026327 411.42816 
L 264.896509 420.31872 
L 259.600582 424.85472 
L 248.278255 422.496 
L 243.347564 415.05696 
L 233.6688 402.17472 
L 242.982327 407.25504 
L 256.313455 411.06528 
L 252.295855 412.33536 
L 247.547782 416.50848 
L 249.556582 415.60128 
L 252.295855 421.40736 
L 251.565382 418.68576 
L 240.060436 413.424 
L 242.251855 408.16224 
L 245.538982 407.43648 
L 242.251855 409.25088 
L 242.617091 408.52512 
L 242.982327 409.7952 
L 248.095636 415.41984 
L 251.200145 412.33536 
L 249.373964 413.24256 
L 246.269455 410.15808 
L 243.7128 402.71904 
L 246.634691 404.17056 
L 251.017527 405.44064 
L 250.652291 430.84224 
L 243.530182 446.44608 
L 228.190255 444.81312 
L 219.6072 439.55136 
L 220.702909 438.8256 
L 217.963636 436.46688 
L 207.737018 431.20512 
L 199.5192 423.04032 
L 198.058255 413.78688 
L 203.354182 418.14144 
L 215.406982 426.85056 
L 225.085745 435.1968 
L 216.137455 436.46688 
L 216.867927 441.72864 
L 221.433382 444.2688 
L 220.885527 446.0832 
L 209.928436 437.19264 
L 206.823927 432.83808 
L 207.189164 427.57632 
L 204.449891 422.31456 
L 205.180364 420.86304 
L 207.371782 423.94752 
L 210.111055 421.5888 
L 207.371782 414.69408 
L 208.832727 424.12896 
L 215.041745 422.67744 
L 216.502691 418.32288 
L 227.277164 422.13312 
L 229.6512 424.67328 
L 236.590691 436.104 
L 249.008727 441.36576 
L 239.329964 435.74112 
L 232.207855 430.84224 
L 233.120945 426.85056 
L 238.051636 433.20096 
L 246.086836 436.82976 
L 238.599491 434.2896 
L 229.103345 429.57216 
L 225.6336 432.65664 
L 227.459782 429.57216 
L 227.094545 434.65248 
L 220.155055 431.93088 
L 217.5984 428.12064 
L 214.128655 418.68576 
L 219.972436 414.69408 
L 226.364073 421.77024 
L 228.920727 424.3104 
L 230.016436 420.50016 
L 229.103345 425.39904 
L 226.546691 430.6608 
L 226.911927 432.29376 
L 222.711709 426.1248 
L 213.763418 418.32288 
L 217.963636 413.06112 
L 225.268364 409.7952 
L 230.929527 414.51264 
L 245.7216 426.1248 
L 253.939418 425.2176 
L 251.200145 428.8464 
L 249.373964 429.57216 
L 236.590691 429.02784 
L 239.147345 430.84224 
L 245.356364 433.20096 
L 239.512582 424.85472 
L 228.007636 421.40736 
L 233.6688 430.6608 
L 236.225455 426.85056 
L 230.746909 427.032 
L 235.312364 425.94336 
L 235.6776 423.04032 
L 240.608291 430.47936 
L 243.530182 435.55968 
L 228.738109 430.29792 
L 224.720509 425.76192 
L 233.303564 424.3104 
L 229.285964 422.67744 
L 237.503782 423.58464 
L 242.251855 421.5888 
L 239.329964 419.23008 
L 244.443273 417.96 
L 242.982327 413.24256 
L 244.443273 415.78272 
L 249.921818 418.68576 
L 248.460873 417.0528 
L 251.565382 422.31456 
L 255.948218 427.75776 
L 257.043927 433.56384 
L 251.565382 430.84224 
L 242.799709 427.032 
L 244.808509 424.49184 
L 243.7128 415.2384 
L 247.182545 412.5168 
L 255.7656 410.15808 
L 261.792 409.97664 
L 263.252945 410.88384 
L 264.166036 416.1456 
L 268.001018 426.85056 
L 265.992218 428.8464 
L 261.974618 428.12064 
L 255.400364 425.03616 
L 245.538982 419.59296 
L 244.991127 412.5168 
L 243.164945 407.25504 
L 252.478473 409.25088 
L 253.939418 407.43648 
L 256.313455 406.1664 
L 260.148436 410.52096 
L 262.522473 410.33952 
L 269.644582 419.59296 
L 277.679782 422.31456 
L 279.140727 421.77024 
L 268.001018 416.32704 
L 256.678691 411.97248 
L 258.504873 415.41984 
L 267.087927 408.16224 
L 264.896509 399.99744 
L 282.793091 407.0736 
L 301.602764 415.05696 
L 291.376145 413.424 
L 279.323345 407.43648 
L 261.061527 391.6512 
L 259.965818 389.11104 
L 281.149527 397.0944 
L 287.358545 404.352 
L 287.541164 410.33952 
L 281.697382 408.888 
L 270.009818 405.62208 
L 267.270545 397.63872 
L 267.270545 395.09856 
L 277.679782 402.5376 
L 287.541164 405.80352 
L 280.966909 402.17472 
L 283.8888 403.08192 
L 279.505964 399.99744 
L 283.158327 404.17056 
L 287.9064 405.62208 
L 289.732582 404.89632 
L 283.706182 376.95456 
L 277.8624 358.62912 
L 278.592873 349.55712 
L 308.907491 376.2288 
L 331.369527 401.6304 
L 314.751273 415.41984 
L 280.236436 396.00576 
L 258.687491 370.05984 
L 242.434473 346.2912 
L 244.443273 334.67904 
L 269.096727 345.02112 
L 288.636873 359.53632 
L 293.202327 383.84928 
L 292.289236 396.55008 
L 291.376145 405.62208 
L 278.592873 398.54592 
L 257.591782 380.03904 
L 244.625891 366.2496 
L 242.434473 355.54464 
L 248.460873 353.91168 
L 254.669891 348.28704 
L 260.878909 344.11392 
L 260.331055 349.92 
L 268.731491 357.90336 
L 275.305745 363.528 
L 281.149527 374.59584 
L 287.723782 388.38528 
L 282.427855 392.92128 
L 273.114327 393.82848 
L 261.244145 387.65952 
L 252.661091 366.97536 
L 249.191345 344.4768 
L 255.582982 332.86464 
L 260.696291 336.49344 
L 274.757891 354.27456 
L 289.732582 370.7856 
L 303.246327 387.65952 
L 298.133018 389.65536 
L 272.018618 383.84928 
L 254.122036 377.31744 
L 247.7304 361.53216 
L 256.861309 348.83136 
L 251.565382 329.0544 
L 239.329964 316.89792 
L 238.782109 310.0032 
L 249.556582 305.64864 
L 265.261745 313.08768 
L 283.706182 341.02944 
L 285.714982 353.91168 
L 281.88 364.79808 
L 273.8448 369.8784 
L 270.557673 369.51552 
L 256.313455 360.62496 
L 244.443273 337.40064 
L 239.329964 312.36192 
L 244.443273 305.4672 
L 264.713891 317.2608 
L 281.514764 334.4976 
L 283.706182 346.83552 
L 273.8448 355.90752 
L 271.105527 361.16928 
L 272.931709 356.2704 
L 271.470764 343.5696 
L 271.105527 342.84384 
L 268.731491 347.37984 
L 269.279345 345.56544 
L 275.488364 358.62912 
L 279.8712 366.43104 
L 279.8712 363.16512 
L 261.426764 345.20256 
L 241.886618 329.0544 
L 236.590691 315.08352 
L 238.416873 306.01152 
L 251.565382 311.09184 
L 274.027418 321.7968 
L 295.758982 338.1264 
L 299.9592 360.26208 
L 296.124218 368.9712 
L 287.358545 368.42688 
L 272.201236 358.992 
L 255.948218 345.74688 
L 255.948218 329.23584 
L 267.8184 319.0752 
L 279.505964 323.6112 
L 291.558764 347.92416 
L 301.602764 374.4144 
L 301.602764 381.12768 
L 293.384945 373.32576 
L 269.279345 348.83136 
L 248.095636 331.59456 
L 236.955927 314.90208 
L 257.591782 300.74976 
L 272.566473 304.56 
L 286.262836 321.07104 
L 288.819491 347.56128 
L 298.133018 371.87424 
L 312.742473 383.66784 
L 311.464145 384.3936 
L 292.106618 379.67616 
L 270.375055 369.15264 
L 257.957018 349.37568 
L 257.7744 337.40064 
L 265.079127 337.94496 
L 276.584073 339.39648 
L 277.679782 338.1264 
L 273.8448 345.384 
L 278.045018 345.20256 
L 273.114327 346.2912 
L 273.296945 348.1056 
L 270.192436 345.02112 
L 268.548873 344.4768 
L 273.662182 341.21088 
L 286.445455 349.92 
L 285.167127 353.18592 
L 274.757891 354.456 
L 260.331055 356.45184 
L 271.470764 355.72608 
L 287.358545 352.82304 
L 288.819491 358.26624 
L 277.497164 357.72192 
L 264.348655 345.384 
L 255.582982 326.15136 
L 249.7392 303.47136 
L 249.556582 301.47552 
L 258.504873 305.10432 
L 274.940509 322.88544 
L 292.654473 341.39232 
L 307.9944 361.53216 
L 318.586255 386.02656 
L 312.012 393.28416 
L 290.463055 383.4864 
L 290.463055 383.4864 
" clip-path="url(#pd90b35fbff)" style="fill: none; stroke-dasharray: 5.55,2.4; stroke-dashoffset: 0; stroke: #800080; stroke-opacity: 0.7; stroke-width: 1.5"/>
   </g>
   <g id="line2d_30">
    <path d="M 81 77.76 
L 583.2 576.72 
" clip-path="url(#pd90b35fbff)" style="fill: none; stroke: #000000; stroke-width: 1.5; stroke-linecap: square"/>
   </g>
   <g id="line2d_31">
    <path d="M 81 554.04 
L 649 554.04 
" clip-path="url(#pd90b35fbff)" style="fill: none; stroke-dasharray: 9.6,2.4,1.5,2.4; stroke-dashoffset: 0; stroke: #000000; stroke-width: 1.5"/>
   </g>
   <g id="line2d_32">
    <path d="M 103.827273 576.72 
L 103.827273 -1 
" clip-path="url(#pd90b35fbff)" style="fill: none; stroke-dasharray: 9.6,2.4,1.5,2.4; stroke-dashoffset: 0; stroke: #000000; stroke-width: 1.5"/>
   </g>
   <g id="patch_3">
    <path d="M 81 576.72 
L 81 77.76 
" style="fill: none; stroke: #000000; stroke-width: 0.8; stroke-linejoin: miter; stroke-linecap: square"/>
   </g>
   <g id="patch_4">
    <path d="M 583.2 576.72 
L 583.2 77.76 
" style="fill: none; stroke: #000000; stroke-width: 0.8; stroke-linejoin: miter; stroke-linecap: square"/>
   </g>
   <g id="patch_5">
    <path d="M 81 576.72 
L 583.2 576.72 
" style="fill: none; stroke: #000000; stroke-width: 0.8; stroke-linejoin: miter; stroke-linecap: square"/>
   </g>
   <g id="patch_6">
    <path d="M 81 77.76 
L 583.2 77.76 
" style="fill: none; stroke: #000000; stroke-width: 0.8; stroke-linejoin: miter; stroke-linecap: square"/>
   </g>
   <g id="text_15">
    <!-- Phase diagram with an approximate initial 30% predator population -->
    <g transform="translate(128.307188 71.76) scale(0.12 -0.12)">
     <defs>
      <path id="DejaVuSans-68" d="M 3513 2113 
L 3513 0 
L 2938 0 
L 2938 2094 
Q 2938 2591 2744 2837 
Q 2550 3084 2163 3084 
Q 1697 3084 1428 2787 
Q 1159 2491 1159 1978 
L 1159 0 
L 581 0 
L 581 4863 
L 1159 4863 
L 1159 2956 
Q 1366 3272 1645 3428 
Q 1925 3584 2291 3584 
Q 2894 3584 3203 3211 
Q 3513 2838 3513 2113 
z
" transform="scale(0.015625)"/>
      <path id="DejaVuSans-73" d="M 2834 3397 
L 2834 2853 
Q 2591 2978 2328 3040 
Q 2066 3103 1784 3103 
Q 1356 3103 1142 2972 
Q 928 2841 928 2578 
Q 928 2378 1081 2264 
Q 1234 2150 1697 2047 
L 1894 2003 
Q 2506 1872 2764 1633 
Q 3022 1394 3022 966 
Q 3022 478 2636 193 
Q 2250 -91 1575 -91 
Q 1294 -91 989 -36 
Q 684 19 347 128 
L 347 722 
Q 666 556 975 473 
Q 1284 391 1588 391 
Q 1994 391 2212 530 
Q 2431 669 2431 922 
Q 2431 1156 2273 1281 
Q 2116 1406 1581 1522 
L 1381 1569 
Q 847 1681 609 1914 
Q 372 2147 372 2553 
Q 372 3047 722 3315 
Q 1072 3584 1716 3584 
Q 2034 3584 2315 3537 
Q 2597 3491 2834 3397 
z
" transform="scale(0.015625)"/>
      <path id="DejaVuSans-67" d="M 2906 1791 
Q 2906 2416 2648 2759 
Q 2391 3103 1925 3103 
Q 1463 3103 1205 2759 
Q 947 2416 947 1791 
Q 947 1169 1205 825 
Q 1463 481 1925 481 
Q 2391 481 2648 825 
Q 2906 1169 2906 1791 
z
M 3481 434 
Q 3481 -459 3084 -895 
Q 2688 -1331 1869 -1331 
Q 1566 -1331 1297 -1286 
Q 1028 -1241 775 -1147 
L 775 -588 
Q 1028 -725 1275 -790 
Q 1522 -856 1778 -856 
Q 2344 -856 2625 -561 
Q 2906 -266 2906 331 
L 2906 616 
Q 2728 306 2450 153 
Q 2172 0 1784 0 
Q 1141 0 747 490 
Q 353 981 353 1791 
Q 353 2603 747 3093 
Q 1141 3584 1784 3584 
Q 2172 3584 2450 3431 
Q 2728 3278 2906 2969 
L 2906 3500 
L 3481 3500 
L 3481 434 
z
" transform="scale(0.015625)"/>
      <path id="DejaVuSans-6d" d="M 3328 2828 
Q 3544 3216 3844 3400 
Q 4144 3584 4550 3584 
Q 5097 3584 5394 3201 
Q 5691 2819 5691 2113 
L 5691 0 
L 5113 0 
L 5113 2094 
Q 5113 2597 4934 2840 
Q 4756 3084 4391 3084 
Q 3944 3084 3684 2787 
Q 3425 2491 3425 1978 
L 3425 0 
L 2847 0 
L 2847 2094 
Q 2847 2600 2669 2842 
Q 2491 3084 2119 3084 
Q 1678 3084 1418 2786 
Q 1159 2488 1159 1978 
L 1159 0 
L 581 0 
L 581 3500 
L 1159 3500 
L 1159 2956 
Q 1356 3278 1631 3431 
Q 1906 3584 2284 3584 
Q 2666 3584 2933 3390 
Q 3200 3197 3328 2828 
z
" transform="scale(0.015625)"/>
      <path id="DejaVuSans-77" d="M 269 3500 
L 844 3500 
L 1563 769 
L 2278 3500 
L 2956 3500 
L 3675 769 
L 4391 3500 
L 4966 3500 
L 4050 0 
L 3372 0 
L 2619 2869 
L 1863 0 
L 1184 0 
L 269 3500 
z
" transform="scale(0.015625)"/>
      <path id="DejaVuSans-78" d="M 3513 3500 
L 2247 1797 
L 3578 0 
L 2900 0 
L 1881 1375 
L 863 0 
L 184 0 
L 1544 1831 
L 300 3500 
L 978 3500 
L 1906 2253 
L 2834 3500 
L 3513 3500 
z
" transform="scale(0.015625)"/>
      <path id="DejaVuSans-33" d="M 2597 2516 
Q 3050 2419 3304 2112 
Q 3559 1806 3559 1356 
Q 3559 666 3084 287 
Q 2609 -91 1734 -91 
Q 1441 -91 1130 -33 
Q 819 25 488 141 
L 488 750 
Q 750 597 1062 519 
Q 1375 441 1716 441 
Q 2309 441 2620 675 
Q 2931 909 2931 1356 
Q 2931 1769 2642 2001 
Q 2353 2234 1838 2234 
L 1294 2234 
L 1294 2753 
L 1863 2753 
Q 2328 2753 2575 2939 
Q 2822 3125 2822 3475 
Q 2822 3834 2567 4026 
Q 2313 4219 1838 4219 
Q 1578 4219 1281 4162 
Q 984 4106 628 3988 
L 628 4550 
Q 988 4650 1302 4700 
Q 1616 4750 1894 4750 
Q 2613 4750 3031 4423 
Q 3450 4097 3450 3541 
Q 3450 3153 3228 2886 
Q 3006 2619 2597 2516 
z
" transform="scale(0.015625)"/>
      <path id="DejaVuSans-25" d="M 4653 2053 
Q 4381 2053 4226 1822 
Q 4072 1591 4072 1178 
Q 4072 772 4226 539 
Q 4381 306 4653 306 
Q 4919 306 5073 539 
Q 5228 772 5228 1178 
Q 5228 1588 5073 1820 
Q 4919 2053 4653 2053 
z
M 4653 2450 
Q 5147 2450 5437 2106 
Q 5728 1763 5728 1178 
Q 5728 594 5436 251 
Q 5144 -91 4653 -91 
Q 4153 -91 3862 251 
Q 3572 594 3572 1178 
Q 3572 1766 3864 2108 
Q 4156 2450 4653 2450 
z
M 1428 4353 
Q 1159 4353 1004 4120 
Q 850 3888 850 3481 
Q 850 3069 1003 2837 
Q 1156 2606 1428 2606 
Q 1700 2606 1854 2837 
Q 2009 3069 2009 3481 
Q 2009 3884 1853 4118 
Q 1697 4353 1428 4353 
z
M 4250 4750 
L 4750 4750 
L 1831 -91 
L 1331 -91 
L 4250 4750 
z
M 1428 4750 
Q 1922 4750 2215 4408 
Q 2509 4066 2509 3481 
Q 2509 2891 2217 2550 
Q 1925 2209 1428 2209 
Q 931 2209 642 2551 
Q 353 2894 353 3481 
Q 353 4063 643 4406 
Q 934 4750 1428 4750 
z
" transform="scale(0.015625)"/>
     </defs>
     <use xlink:href="#DejaVuSans-50"/>
     <use xlink:href="#DejaVuSans-68" x="60.302734"/>
     <use xlink:href="#DejaVuSans-61" x="123.681641"/>
     <use xlink:href="#DejaVuSans-73" x="184.960938"/>
     <use xlink:href="#DejaVuSans-65" x="237.060547"/>
     <use xlink:href="#DejaVuSans-20" x="298.583984"/>
     <use xlink:href="#DejaVuSans-64" x="330.371094"/>
     <use xlink:href="#DejaVuSans-69" x="393.847656"/>
     <use xlink:href="#DejaVuSans-61" x="421.630859"/>
     <use xlink:href="#DejaVuSans-67" x="482.910156"/>
     <use xlink:href="#DejaVuSans-72" x="546.386719"/>
     <use xlink:href="#DejaVuSans-61" x="587.5"/>
     <use xlink:href="#DejaVuSans-6d" x="648.779297"/>
     <use xlink:href="#DejaVuSans-20" x="746.191406"/>
     <use xlink:href="#DejaVuSans-77" x="777.978516"/>
     <use xlink:href="#DejaVuSans-69" x="859.765625"/>
     <use xlink:href="#DejaVuSans-74" x="887.548828"/>
     <use xlink:href="#DejaVuSans-68" x="926.757812"/>
     <use xlink:href="#DejaVuSans-20" x="990.136719"/>
     <use xlink:href="#DejaVuSans-61" x="1021.923828"/>
     <use xlink:href="#DejaVuSans-6e" x="1083.203125"/>
     <use xlink:href="#DejaVuSans-20" x="1146.582031"/>
     <use xlink:href="#DejaVuSans-61" x="1178.369141"/>
     <use xlink:href="#DejaVuSans-70" x="1239.648438"/>
     <use xlink:href="#DejaVuSans-70" x="1303.125"/>
     <use xlink:href="#DejaVuSans-72" x="1366.601562"/>
     <use xlink:href="#DejaVuSans-6f" x="1405.464844"/>
     <use xlink:href="#DejaVuSans-78" x="1463.521484"/>
     <use xlink:href="#DejaVuSans-69" x="1522.701172"/>
     <use xlink:href="#DejaVuSans-6d" x="1550.484375"/>
     <use xlink:href="#DejaVuSans-61" x="1647.896484"/>
     <use xlink:href="#DejaVuSans-74" x="1709.175781"/>
     <use xlink:href="#DejaVuSans-65" x="1748.384766"/>
     <use xlink:href="#DejaVuSans-20" x="1809.908203"/>
     <use xlink:href="#DejaVuSans-69" x="1841.695312"/>
     <use xlink:href="#DejaVuSans-6e" x="1869.478516"/>
     <use xlink:href="#DejaVuSans-69" x="1932.857422"/>
     <use xlink:href="#DejaVuSans-74" x="1960.640625"/>
     <use xlink:href="#DejaVuSans-69" x="1999.849609"/>
     <use xlink:href="#DejaVuSans-61" x="2027.632812"/>
     <use xlink:href="#DejaVuSans-6c" x="2088.912109"/>
     <use xlink:href="#DejaVuSans-20" x="2116.695312"/>
     <use xlink:href="#DejaVuSans-33" x="2148.482422"/>
     <use xlink:href="#DejaVuSans-30" x="2212.105469"/>
     <use xlink:href="#DejaVuSans-25" x="2275.728516"/>
     <use xlink:href="#DejaVuSans-20" x="2370.748047"/>
     <use xlink:href="#DejaVuSans-70" x="2402.535156"/>
     <use xlink:href="#DejaVuSans-72" x="2466.011719"/>
     <use xlink:href="#DejaVuSans-65" x="2504.875"/>
     <use xlink:href="#DejaVuSans-64" x="2566.398438"/>
     <use xlink:href="#DejaVuSans-61" x="2629.875"/>
     <use xlink:href="#DejaVuSans-74" x="2691.154297"/>
     <use xlink:href="#DejaVuSans-6f" x="2730.363281"/>
     <use xlink:href="#DejaVuSans-72" x="2791.544922"/>
     <use xlink:href="#DejaVuSans-20" x="2832.658203"/>
     <use xlink:href="#DejaVuSans-70" x="2864.445312"/>
     <use xlink:href="#DejaVuSans-6f" x="2927.921875"/>
     <use xlink:href="#DejaVuSans-70" x="2989.103516"/>
     <use xlink:href="#DejaVuSans-75" x="3052.580078"/>
     <use xlink:href="#DejaVuSans-6c" x="3115.958984"/>
     <use xlink:href="#DejaVuSans-61" x="3143.742188"/>
     <use xlink:href="#DejaVuSans-74" x="3205.021484"/>
     <use xlink:href="#DejaVuSans-69" x="3244.230469"/>
     <use xlink:href="#DejaVuSans-6f" x="3272.013672"/>
     <use xlink:href="#DejaVuSans-6e" x="3333.195312"/>
    </g>
   </g>
   <g id="legend_1">
    <g id="patch_7">
     <path d="M 460.1375 115.11625 
L 576.2 115.11625 
Q 578.2 115.11625 578.2 113.11625 
L 578.2 84.76 
Q 578.2 82.76 576.2 82.76 
L 460.1375 82.76 
Q 458.1375 82.76 458.1375 84.76 
L 458.1375 113.11625 
Q 458.1375 115.11625 460.1375 115.11625 
z
" style="fill: #ffffff; opacity: 0.8; stroke: #cccccc; stroke-linejoin: miter"/>
    </g>
    <g id="PathCollection_5">
     <g>
      <use xlink:href="#m1f8b7f5647" x="472.1375" y="91.733437" style="fill: #0000ff; stroke: #0000ff"/>
     </g>
    </g>
    <g id="text_16">
     <!-- Initial population -->
     <g transform="translate(490.1375 94.358437) scale(0.1 -0.1)">
      <defs>
       <path id="DejaVuSans-49" d="M 628 4666 
L 1259 4666 
L 1259 0 
L 628 0 
L 628 4666 
z
" transform="scale(0.015625)"/>
      </defs>
      <use xlink:href="#DejaVuSans-49"/>
      <use xlink:href="#DejaVuSans-6e" x="29.492188"/>
      <use xlink:href="#DejaVuSans-69" x="92.871094"/>
      <use xlink:href="#DejaVuSans-74" x="120.654297"/>
      <use xlink:href="#DejaVuSans-69" x="159.863281"/>
      <use xlink:href="#DejaVuSans-61" x="187.646484"/>
      <use xlink:href="#DejaVuSans-6c" x="248.925781"/>
      <use xlink:href="#DejaVuSans-20" x="276.708984"/>
      <use xlink:href="#DejaVuSans-70" x="308.496094"/>
      <use xlink:href="#DejaVuSans-6f" x="371.972656"/>
      <use xlink:href="#DejaVuSans-70" x="433.154297"/>
      <use xlink:href="#DejaVuSans-75" x="496.630859"/>
      <use xlink:href="#DejaVuSans-6c" x="560.009766"/>
      <use xlink:href="#DejaVuSans-61" x="587.792969"/>
      <use xlink:href="#DejaVuSans-74" x="649.072266"/>
      <use xlink:href="#DejaVuSans-69" x="688.28125"/>
      <use xlink:href="#DejaVuSans-6f" x="716.064453"/>
      <use xlink:href="#DejaVuSans-6e" x="777.246094"/>
     </g>
    </g>
    <g id="PathCollection_6">
     <g>
      <use xlink:href="#m41fc84d9c5" x="472.1375" y="106.411562" style="fill: #ff0000; stroke: #ff0000"/>
     </g>
    </g>
    <g id="text_17">
     <!-- Final population -->
     <g transform="translate(490.1375 109.036562) scale(0.1 -0.1)">
      <defs>
       <path id="DejaVuSans-46" d="M 628 4666 
L 3309 4666 
L 3309 4134 
L 1259 4134 
L 1259 2759 
L 3109 2759 
L 3109 2228 
L 1259 2228 
L 1259 0 
L 628 0 
L 628 4666 
z
" transform="scale(0.015625)"/>
      </defs>
      <use xlink:href="#DejaVuSans-46"/>
      <use xlink:href="#DejaVuSans-69" x="50.269531"/>
      <use xlink:href="#DejaVuSans-6e" x="78.052734"/>
      <use xlink:href="#DejaVuSans-61" x="141.431641"/>
      <use xlink:href="#DejaVuSans-6c" x="202.710938"/>
      <use xlink:href="#DejaVuSans-20" x="230.494141"/>
      <use xlink:href="#DejaVuSans-70" x="262.28125"/>
      <use xlink:href="#DejaVuSans-6f" x="325.757812"/>
      <use xlink:href="#DejaVuSans-70" x="386.939453"/>
      <use xlink:href="#DejaVuSans-75" x="450.416016"/>
      <use xlink:href="#DejaVuSans-6c" x="513.794922"/>
      <use xlink:href="#DejaVuSans-61" x="541.578125"/>
      <use xlink:href="#DejaVuSans-74" x="602.857422"/>
      <use xlink:href="#DejaVuSans-69" x="642.066406"/>
      <use xlink:href="#DejaVuSans-6f" x="669.849609"/>
      <use xlink:href="#DejaVuSans-6e" x="731.03125"/>
     </g>
    </g>
   </g>
  </g>
 </g>
 <defs>
  <clipPath id="pd90b35fbff">
   <rect x="81" y="77.76" width="502.2" height="498.96"/>
  </clipPath>
 </defs>
</svg>
