<?xml version="1.0" encoding="utf-8" standalone="no"?>
<!DOCTYPE svg PUBLIC "-//W3C//DTD SVG 1.1//EN"
  "http://www.w3.org/Graphics/SVG/1.1/DTD/svg11.dtd">
<svg xmlns:xlink="http://www.w3.org/1999/xlink" width="648pt" height="648pt" viewBox="0 0 648 648" xmlns="http://www.w3.org/2000/svg" version="1.1">
 <metadata>
  <rdf:RDF xmlns:dc="http://purl.org/dc/elements/1.1/" xmlns:cc="http://creativecommons.org/ns#" xmlns:rdf="http://www.w3.org/1999/02/22-rdf-syntax-ns#">
   <cc:Work>
    <dc:type rdf:resource="http://purl.org/dc/dcmitype/StillImage"/>
    <dc:date>2025-06-09T12:51:25.023356</dc:date>
    <dc:format>image/svg+xml</dc:format>
    <dc:creator>
     <cc:Agent>
      <dc:title>Matplotlib v3.7.0, https://matplotlib.org/</dc:title>
     </cc:Agent>
    </dc:creator>
   </cc:Work>
  </rdf:RDF>
 </metadata>
 <defs>
  <style type="text/css">*{stroke-linejoin: round; stroke-linecap: butt}</style>
 </defs>
 <g id="figure_1">
  <g id="patch_1">
   <path d="M 0 648 
L 648 648 
L 648 0 
L 0 0 
z
" style="fill: #ffffff"/>
  </g>
  <g id="axes_1">
   <g id="patch_2">
    <path d="M 81 576.72 
L 583.2 576.72 
L 583.2 77.76 
L 81 77.76 
z
" style="fill: #ffffff"/>
   </g>
   <g id="PathCollection_1">
    <defs>
     <path id="mc02f6fb2eb" d="M -3.535534 3.535534 
L 3.535534 3.535534 
L 3.535534 -3.535534 
L -3.535534 -3.535534 
z
" style="stroke: #0000ff"/>
    </defs>
    <g clip-path="url(#p5c97087f1c)">
     <use xlink:href="#mc02f6fb2eb" x="156.603927" y="424.85472" style="fill: #0000ff; stroke: #0000ff"/>
    </g>
   </g>
   <g id="PathCollection_2">
    <defs>
     <path id="m2b43421a31" d="M -3.535534 3.535534 
L 3.535534 3.535534 
L 3.535534 -3.535534 
L -3.535534 -3.535534 
z
" style="stroke: #ff0000"/>
    </defs>
    <g clip-path="url(#p5c97087f1c)">
     <use xlink:href="#m2b43421a31" x="278.592873" y="305.64864" style="fill: #ff0000; stroke: #ff0000"/>
    </g>
   </g>
   <g id="PathCollection_3">
    <g clip-path="url(#p5c97087f1c)">
     <use xlink:href="#mc02f6fb2eb" x="156.603927" y="424.85472" style="fill: #0000ff; stroke: #0000ff"/>
    </g>
   </g>
   <g id="PathCollection_4">
    <g clip-path="url(#p5c97087f1c)">
     <use xlink:href="#m2b43421a31" x="309.637964" y="379.49472" style="fill: #ff0000; stroke: #ff0000"/>
    </g>
   </g>
   <g id="matplotlib.axis_1">
    <g id="xtick_1">
     <g id="line2d_1">
      <path d="M 103.827273 576.72 
L 103.827273 77.76 
" clip-path="url(#p5c97087f1c)" style="fill: none; stroke: #b0b0b0; stroke-width: 0.1; stroke-linecap: square"/>
     </g>
     <g id="line2d_2">
      <defs>
       <path id="m02777e4239" d="M 0 0 
L 0 3.5 
" style="stroke: #000000; stroke-width: 0.8"/>
      </defs>
      <g>
       <use xlink:href="#m02777e4239" x="103.827273" y="576.72" style="stroke: #000000; stroke-width: 0.8"/>
      </g>
     </g>
     <g id="text_1">
      <!-- 0 -->
      <g transform="translate(100.646023 591.318438) scale(0.1 -0.1)">
       <defs>
        <path id="DejaVuSans-30" d="M 2034 4250 
Q 1547 4250 1301 3770 
Q 1056 3291 1056 2328 
Q 1056 1369 1301 889 
Q 1547 409 2034 409 
Q 2525 409 2770 889 
Q 3016 1369 3016 2328 
Q 3016 3291 2770 3770 
Q 2525 4250 2034 4250 
z
M 2034 4750 
Q 2819 4750 3233 4129 
Q 3647 3509 3647 2328 
Q 3647 1150 3233 529 
Q 2819 -91 2034 -91 
Q 1250 -91 836 529 
Q 422 1150 422 2328 
Q 422 3509 836 4129 
Q 1250 4750 2034 4750 
z
" transform="scale(0.015625)"/>
       </defs>
       <use xlink:href="#DejaVuSans-30"/>
      </g>
     </g>
    </g>
    <g id="xtick_2">
     <g id="line2d_3">
      <path d="M 195.136364 576.72 
L 195.136364 77.76 
" clip-path="url(#p5c97087f1c)" style="fill: none; stroke: #b0b0b0; stroke-width: 0.1; stroke-linecap: square"/>
     </g>
     <g id="line2d_4">
      <g>
       <use xlink:href="#m02777e4239" x="195.136364" y="576.72" style="stroke: #000000; stroke-width: 0.8"/>
      </g>
     </g>
     <g id="text_2">
      <!-- 500 -->
      <g transform="translate(185.592614 591.318438) scale(0.1 -0.1)">
       <defs>
        <path id="DejaVuSans-35" d="M 691 4666 
L 3169 4666 
L 3169 4134 
L 1269 4134 
L 1269 2991 
Q 1406 3038 1543 3061 
Q 1681 3084 1819 3084 
Q 2600 3084 3056 2656 
Q 3513 2228 3513 1497 
Q 3513 744 3044 326 
Q 2575 -91 1722 -91 
Q 1428 -91 1123 -41 
Q 819 9 494 109 
L 494 744 
Q 775 591 1075 516 
Q 1375 441 1709 441 
Q 2250 441 2565 725 
Q 2881 1009 2881 1497 
Q 2881 1984 2565 2268 
Q 2250 2553 1709 2553 
Q 1456 2553 1204 2497 
Q 953 2441 691 2322 
L 691 4666 
z
" transform="scale(0.015625)"/>
       </defs>
       <use xlink:href="#DejaVuSans-35"/>
       <use xlink:href="#DejaVuSans-30" x="63.623047"/>
       <use xlink:href="#DejaVuSans-30" x="127.246094"/>
      </g>
     </g>
    </g>
    <g id="xtick_3">
     <g id="line2d_5">
      <path d="M 286.445455 576.72 
L 286.445455 77.76 
" clip-path="url(#p5c97087f1c)" style="fill: none; stroke: #b0b0b0; stroke-width: 0.1; stroke-linecap: square"/>
     </g>
     <g id="line2d_6">
      <g>
       <use xlink:href="#m02777e4239" x="286.445455" y="576.72" style="stroke: #000000; stroke-width: 0.8"/>
      </g>
     </g>
     <g id="text_3">
      <!-- 1000 -->
      <g transform="translate(273.720455 591.318438) scale(0.1 -0.1)">
       <defs>
        <path id="DejaVuSans-31" d="M 794 531 
L 1825 531 
L 1825 4091 
L 703 3866 
L 703 4441 
L 1819 4666 
L 2450 4666 
L 2450 531 
L 3481 531 
L 3481 0 
L 794 0 
L 794 531 
z
" transform="scale(0.015625)"/>
       </defs>
       <use xlink:href="#DejaVuSans-31"/>
       <use xlink:href="#DejaVuSans-30" x="63.623047"/>
       <use xlink:href="#DejaVuSans-30" x="127.246094"/>
       <use xlink:href="#DejaVuSans-30" x="190.869141"/>
      </g>
     </g>
    </g>
    <g id="xtick_4">
     <g id="line2d_7">
      <path d="M 377.754545 576.72 
L 377.754545 77.76 
" clip-path="url(#p5c97087f1c)" style="fill: none; stroke: #b0b0b0; stroke-width: 0.1; stroke-linecap: square"/>
     </g>
     <g id="line2d_8">
      <g>
       <use xlink:href="#m02777e4239" x="377.754545" y="576.72" style="stroke: #000000; stroke-width: 0.8"/>
      </g>
     </g>
     <g id="text_4">
      <!-- 1500 -->
      <g transform="translate(365.029545 591.318438) scale(0.1 -0.1)">
       <use xlink:href="#DejaVuSans-31"/>
       <use xlink:href="#DejaVuSans-35" x="63.623047"/>
       <use xlink:href="#DejaVuSans-30" x="127.246094"/>
       <use xlink:href="#DejaVuSans-30" x="190.869141"/>
      </g>
     </g>
    </g>
    <g id="xtick_5">
     <g id="line2d_9">
      <path d="M 469.063636 576.72 
L 469.063636 77.76 
" clip-path="url(#p5c97087f1c)" style="fill: none; stroke: #b0b0b0; stroke-width: 0.1; stroke-linecap: square"/>
     </g>
     <g id="line2d_10">
      <g>
       <use xlink:href="#m02777e4239" x="469.063636" y="576.72" style="stroke: #000000; stroke-width: 0.8"/>
      </g>
     </g>
     <g id="text_5">
      <!-- 2000 -->
      <g transform="translate(456.338636 591.318438) scale(0.1 -0.1)">
       <defs>
        <path id="DejaVuSans-32" d="M 1228 531 
L 3431 531 
L 3431 0 
L 469 0 
L 469 531 
Q 828 903 1448 1529 
Q 2069 2156 2228 2338 
Q 2531 2678 2651 2914 
Q 2772 3150 2772 3378 
Q 2772 3750 2511 3984 
Q 2250 4219 1831 4219 
Q 1534 4219 1204 4116 
Q 875 4013 500 3803 
L 500 4441 
Q 881 4594 1212 4672 
Q 1544 4750 1819 4750 
Q 2544 4750 2975 4387 
Q 3406 4025 3406 3419 
Q 3406 3131 3298 2873 
Q 3191 2616 2906 2266 
Q 2828 2175 2409 1742 
Q 1991 1309 1228 531 
z
" transform="scale(0.015625)"/>
       </defs>
       <use xlink:href="#DejaVuSans-32"/>
       <use xlink:href="#DejaVuSans-30" x="63.623047"/>
       <use xlink:href="#DejaVuSans-30" x="127.246094"/>
       <use xlink:href="#DejaVuSans-30" x="190.869141"/>
      </g>
     </g>
    </g>
    <g id="xtick_6">
     <g id="line2d_11">
      <path d="M 560.372727 576.72 
L 560.372727 77.76 
" clip-path="url(#p5c97087f1c)" style="fill: none; stroke: #b0b0b0; stroke-width: 0.1; stroke-linecap: square"/>
     </g>
     <g id="line2d_12">
      <g>
       <use xlink:href="#m02777e4239" x="560.372727" y="576.72" style="stroke: #000000; stroke-width: 0.8"/>
      </g>
     </g>
     <g id="text_6">
      <!-- 2500 -->
      <g transform="translate(547.647727 591.318438) scale(0.1 -0.1)">
       <use xlink:href="#DejaVuSans-32"/>
       <use xlink:href="#DejaVuSans-35" x="63.623047"/>
       <use xlink:href="#DejaVuSans-30" x="127.246094"/>
       <use xlink:href="#DejaVuSans-30" x="190.869141"/>
      </g>
     </g>
    </g>
    <g id="text_7">
     <!-- Predator population -->
     <g transform="translate(282.64375 604.996562) scale(0.1 -0.1)">
      <defs>
       <path id="DejaVuSans-50" d="M 1259 4147 
L 1259 2394 
L 2053 2394 
Q 2494 2394 2734 2622 
Q 2975 2850 2975 3272 
Q 2975 3691 2734 3919 
Q 2494 4147 2053 4147 
L 1259 4147 
z
M 628 4666 
L 2053 4666 
Q 2838 4666 3239 4311 
Q 3641 3956 3641 3272 
Q 3641 2581 3239 2228 
Q 2838 1875 2053 1875 
L 1259 1875 
L 1259 0 
L 628 0 
L 628 4666 
z
" transform="scale(0.015625)"/>
       <path id="DejaVuSans-72" d="M 2631 2963 
Q 2534 3019 2420 3045 
Q 2306 3072 2169 3072 
Q 1681 3072 1420 2755 
Q 1159 2438 1159 1844 
L 1159 0 
L 581 0 
L 581 3500 
L 1159 3500 
L 1159 2956 
Q 1341 3275 1631 3429 
Q 1922 3584 2338 3584 
Q 2397 3584 2469 3576 
Q 2541 3569 2628 3553 
L 2631 2963 
z
" transform="scale(0.015625)"/>
       <path id="DejaVuSans-65" d="M 3597 1894 
L 3597 1613 
L 953 1613 
Q 991 1019 1311 708 
Q 1631 397 2203 397 
Q 2534 397 2845 478 
Q 3156 559 3463 722 
L 3463 178 
Q 3153 47 2828 -22 
Q 2503 -91 2169 -91 
Q 1331 -91 842 396 
Q 353 884 353 1716 
Q 353 2575 817 3079 
Q 1281 3584 2069 3584 
Q 2775 3584 3186 3129 
Q 3597 2675 3597 1894 
z
M 3022 2063 
Q 3016 2534 2758 2815 
Q 2500 3097 2075 3097 
Q 1594 3097 1305 2825 
Q 1016 2553 972 2059 
L 3022 2063 
z
" transform="scale(0.015625)"/>
       <path id="DejaVuSans-64" d="M 2906 2969 
L 2906 4863 
L 3481 4863 
L 3481 0 
L 2906 0 
L 2906 525 
Q 2725 213 2448 61 
Q 2172 -91 1784 -91 
Q 1150 -91 751 415 
Q 353 922 353 1747 
Q 353 2572 751 3078 
Q 1150 3584 1784 3584 
Q 2172 3584 2448 3432 
Q 2725 3281 2906 2969 
z
M 947 1747 
Q 947 1113 1208 752 
Q 1469 391 1925 391 
Q 2381 391 2643 752 
Q 2906 1113 2906 1747 
Q 2906 2381 2643 2742 
Q 2381 3103 1925 3103 
Q 1469 3103 1208 2742 
Q 947 2381 947 1747 
z
" transform="scale(0.015625)"/>
       <path id="DejaVuSans-61" d="M 2194 1759 
Q 1497 1759 1228 1600 
Q 959 1441 959 1056 
Q 959 750 1161 570 
Q 1363 391 1709 391 
Q 2188 391 2477 730 
Q 2766 1069 2766 1631 
L 2766 1759 
L 2194 1759 
z
M 3341 1997 
L 3341 0 
L 2766 0 
L 2766 531 
Q 2569 213 2275 61 
Q 1981 -91 1556 -91 
Q 1019 -91 701 211 
Q 384 513 384 1019 
Q 384 1609 779 1909 
Q 1175 2209 1959 2209 
L 2766 2209 
L 2766 2266 
Q 2766 2663 2505 2880 
Q 2244 3097 1772 3097 
Q 1472 3097 1187 3025 
Q 903 2953 641 2809 
L 641 3341 
Q 956 3463 1253 3523 
Q 1550 3584 1831 3584 
Q 2591 3584 2966 3190 
Q 3341 2797 3341 1997 
z
" transform="scale(0.015625)"/>
       <path id="DejaVuSans-74" d="M 1172 4494 
L 1172 3500 
L 2356 3500 
L 2356 3053 
L 1172 3053 
L 1172 1153 
Q 1172 725 1289 603 
Q 1406 481 1766 481 
L 2356 481 
L 2356 0 
L 1766 0 
Q 1100 0 847 248 
Q 594 497 594 1153 
L 594 3053 
L 172 3053 
L 172 3500 
L 594 3500 
L 594 4494 
L 1172 4494 
z
" transform="scale(0.015625)"/>
       <path id="DejaVuSans-6f" d="M 1959 3097 
Q 1497 3097 1228 2736 
Q 959 2375 959 1747 
Q 959 1119 1226 758 
Q 1494 397 1959 397 
Q 2419 397 2687 759 
Q 2956 1122 2956 1747 
Q 2956 2369 2687 2733 
Q 2419 3097 1959 3097 
z
M 1959 3584 
Q 2709 3584 3137 3096 
Q 3566 2609 3566 1747 
Q 3566 888 3137 398 
Q 2709 -91 1959 -91 
Q 1206 -91 779 398 
Q 353 888 353 1747 
Q 353 2609 779 3096 
Q 1206 3584 1959 3584 
z
" transform="scale(0.015625)"/>
       <path id="DejaVuSans-20" transform="scale(0.015625)"/>
       <path id="DejaVuSans-70" d="M 1159 525 
L 1159 -1331 
L 581 -1331 
L 581 3500 
L 1159 3500 
L 1159 2969 
Q 1341 3281 1617 3432 
Q 1894 3584 2278 3584 
Q 2916 3584 3314 3078 
Q 3713 2572 3713 1747 
Q 3713 922 3314 415 
Q 2916 -91 2278 -91 
Q 1894 -91 1617 61 
Q 1341 213 1159 525 
z
M 3116 1747 
Q 3116 2381 2855 2742 
Q 2594 3103 2138 3103 
Q 1681 3103 1420 2742 
Q 1159 2381 1159 1747 
Q 1159 1113 1420 752 
Q 1681 391 2138 391 
Q 2594 391 2855 752 
Q 3116 1113 3116 1747 
z
" transform="scale(0.015625)"/>
       <path id="DejaVuSans-75" d="M 544 1381 
L 544 3500 
L 1119 3500 
L 1119 1403 
Q 1119 906 1312 657 
Q 1506 409 1894 409 
Q 2359 409 2629 706 
Q 2900 1003 2900 1516 
L 2900 3500 
L 3475 3500 
L 3475 0 
L 2900 0 
L 2900 538 
Q 2691 219 2414 64 
Q 2138 -91 1772 -91 
Q 1169 -91 856 284 
Q 544 659 544 1381 
z
M 1991 3584 
L 1991 3584 
z
" transform="scale(0.015625)"/>
       <path id="DejaVuSans-6c" d="M 603 4863 
L 1178 4863 
L 1178 0 
L 603 0 
L 603 4863 
z
" transform="scale(0.015625)"/>
       <path id="DejaVuSans-69" d="M 603 3500 
L 1178 3500 
L 1178 0 
L 603 0 
L 603 3500 
z
M 603 4863 
L 1178 4863 
L 1178 4134 
L 603 4134 
L 603 4863 
z
" transform="scale(0.015625)"/>
       <path id="DejaVuSans-6e" d="M 3513 2113 
L 3513 0 
L 2938 0 
L 2938 2094 
Q 2938 2591 2744 2837 
Q 2550 3084 2163 3084 
Q 1697 3084 1428 2787 
Q 1159 2491 1159 1978 
L 1159 0 
L 581 0 
L 581 3500 
L 1159 3500 
L 1159 2956 
Q 1366 3272 1645 3428 
Q 1925 3584 2291 3584 
Q 2894 3584 3203 3211 
Q 3513 2838 3513 2113 
z
" transform="scale(0.015625)"/>
      </defs>
      <use xlink:href="#DejaVuSans-50"/>
      <use xlink:href="#DejaVuSans-72" x="58.552734"/>
      <use xlink:href="#DejaVuSans-65" x="97.416016"/>
      <use xlink:href="#DejaVuSans-64" x="158.939453"/>
      <use xlink:href="#DejaVuSans-61" x="222.416016"/>
      <use xlink:href="#DejaVuSans-74" x="283.695312"/>
      <use xlink:href="#DejaVuSans-6f" x="322.904297"/>
      <use xlink:href="#DejaVuSans-72" x="384.085938"/>
      <use xlink:href="#DejaVuSans-20" x="425.199219"/>
      <use xlink:href="#DejaVuSans-70" x="456.986328"/>
      <use xlink:href="#DejaVuSans-6f" x="520.462891"/>
      <use xlink:href="#DejaVuSans-70" x="581.644531"/>
      <use xlink:href="#DejaVuSans-75" x="645.121094"/>
      <use xlink:href="#DejaVuSans-6c" x="708.5"/>
      <use xlink:href="#DejaVuSans-61" x="736.283203"/>
      <use xlink:href="#DejaVuSans-74" x="797.5625"/>
      <use xlink:href="#DejaVuSans-69" x="836.771484"/>
      <use xlink:href="#DejaVuSans-6f" x="864.554688"/>
      <use xlink:href="#DejaVuSans-6e" x="925.736328"/>
     </g>
    </g>
   </g>
   <g id="matplotlib.axis_2">
    <g id="ytick_1">
     <g id="line2d_13">
      <path d="M 81 554.04 
L 583.2 554.04 
" clip-path="url(#p5c97087f1c)" style="fill: none; stroke: #b0b0b0; stroke-width: 0.1; stroke-linecap: square"/>
     </g>
     <g id="line2d_14">
      <defs>
       <path id="m54450c20c5" d="M 0 0 
L -3.5 0 
" style="stroke: #000000; stroke-width: 0.8"/>
      </defs>
      <g>
       <use xlink:href="#m54450c20c5" x="81" y="554.04" style="stroke: #000000; stroke-width: 0.8"/>
      </g>
     </g>
     <g id="text_8">
      <!-- 0 -->
      <g transform="translate(67.6375 557.839219) scale(0.1 -0.1)">
       <use xlink:href="#DejaVuSans-30"/>
      </g>
     </g>
    </g>
    <g id="ytick_2">
     <g id="line2d_15">
      <path d="M 81 463.32 
L 583.2 463.32 
" clip-path="url(#p5c97087f1c)" style="fill: none; stroke: #b0b0b0; stroke-width: 0.1; stroke-linecap: square"/>
     </g>
     <g id="line2d_16">
      <g>
       <use xlink:href="#m54450c20c5" x="81" y="463.32" style="stroke: #000000; stroke-width: 0.8"/>
      </g>
     </g>
     <g id="text_9">
      <!-- 500 -->
      <g transform="translate(54.9125 467.119219) scale(0.1 -0.1)">
       <use xlink:href="#DejaVuSans-35"/>
       <use xlink:href="#DejaVuSans-30" x="63.623047"/>
       <use xlink:href="#DejaVuSans-30" x="127.246094"/>
      </g>
     </g>
    </g>
    <g id="ytick_3">
     <g id="line2d_17">
      <path d="M 81 372.6 
L 583.2 372.6 
" clip-path="url(#p5c97087f1c)" style="fill: none; stroke: #b0b0b0; stroke-width: 0.1; stroke-linecap: square"/>
     </g>
     <g id="line2d_18">
      <g>
       <use xlink:href="#m54450c20c5" x="81" y="372.6" style="stroke: #000000; stroke-width: 0.8"/>
      </g>
     </g>
     <g id="text_10">
      <!-- 1000 -->
      <g transform="translate(48.55 376.399219) scale(0.1 -0.1)">
       <use xlink:href="#DejaVuSans-31"/>
       <use xlink:href="#DejaVuSans-30" x="63.623047"/>
       <use xlink:href="#DejaVuSans-30" x="127.246094"/>
       <use xlink:href="#DejaVuSans-30" x="190.869141"/>
      </g>
     </g>
    </g>
    <g id="ytick_4">
     <g id="line2d_19">
      <path d="M 81 281.88 
L 583.2 281.88 
" clip-path="url(#p5c97087f1c)" style="fill: none; stroke: #b0b0b0; stroke-width: 0.1; stroke-linecap: square"/>
     </g>
     <g id="line2d_20">
      <g>
       <use xlink:href="#m54450c20c5" x="81" y="281.88" style="stroke: #000000; stroke-width: 0.8"/>
      </g>
     </g>
     <g id="text_11">
      <!-- 1500 -->
      <g transform="translate(48.55 285.679219) scale(0.1 -0.1)">
       <use xlink:href="#DejaVuSans-31"/>
       <use xlink:href="#DejaVuSans-35" x="63.623047"/>
       <use xlink:href="#DejaVuSans-30" x="127.246094"/>
       <use xlink:href="#DejaVuSans-30" x="190.869141"/>
      </g>
     </g>
    </g>
    <g id="ytick_5">
     <g id="line2d_21">
      <path d="M 81 191.16 
L 583.2 191.16 
" clip-path="url(#p5c97087f1c)" style="fill: none; stroke: #b0b0b0; stroke-width: 0.1; stroke-linecap: square"/>
     </g>
     <g id="line2d_22">
      <g>
       <use xlink:href="#m54450c20c5" x="81" y="191.16" style="stroke: #000000; stroke-width: 0.8"/>
      </g>
     </g>
     <g id="text_12">
      <!-- 2000 -->
      <g transform="translate(48.55 194.959219) scale(0.1 -0.1)">
       <use xlink:href="#DejaVuSans-32"/>
       <use xlink:href="#DejaVuSans-30" x="63.623047"/>
       <use xlink:href="#DejaVuSans-30" x="127.246094"/>
       <use xlink:href="#DejaVuSans-30" x="190.869141"/>
      </g>
     </g>
    </g>
    <g id="ytick_6">
     <g id="line2d_23">
      <path d="M 81 100.44 
L 583.2 100.44 
" clip-path="url(#p5c97087f1c)" style="fill: none; stroke: #b0b0b0; stroke-width: 0.1; stroke-linecap: square"/>
     </g>
     <g id="line2d_24">
      <g>
       <use xlink:href="#m54450c20c5" x="81" y="100.44" style="stroke: #000000; stroke-width: 0.8"/>
      </g>
     </g>
     <g id="text_13">
      <!-- 2500 -->
      <g transform="translate(48.55 104.239219) scale(0.1 -0.1)">
       <use xlink:href="#DejaVuSans-32"/>
       <use xlink:href="#DejaVuSans-35" x="63.623047"/>
       <use xlink:href="#DejaVuSans-30" x="127.246094"/>
       <use xlink:href="#DejaVuSans-30" x="190.869141"/>
      </g>
     </g>
    </g>
    <g id="text_14">
     <!-- Prey population -->
     <g transform="translate(42.470312 366.342344) rotate(-90) scale(0.1 -0.1)">
      <defs>
       <path id="DejaVuSans-79" d="M 2059 -325 
Q 1816 -950 1584 -1140 
Q 1353 -1331 966 -1331 
L 506 -1331 
L 506 -850 
L 844 -850 
Q 1081 -850 1212 -737 
Q 1344 -625 1503 -206 
L 1606 56 
L 191 3500 
L 800 3500 
L 1894 763 
L 2988 3500 
L 3597 3500 
L 2059 -325 
z
" transform="scale(0.015625)"/>
      </defs>
      <use xlink:href="#DejaVuSans-50"/>
      <use xlink:href="#DejaVuSans-72" x="58.552734"/>
      <use xlink:href="#DejaVuSans-65" x="97.416016"/>
      <use xlink:href="#DejaVuSans-79" x="158.939453"/>
      <use xlink:href="#DejaVuSans-20" x="218.119141"/>
      <use xlink:href="#DejaVuSans-70" x="249.90625"/>
      <use xlink:href="#DejaVuSans-6f" x="313.382812"/>
      <use xlink:href="#DejaVuSans-70" x="374.564453"/>
      <use xlink:href="#DejaVuSans-75" x="438.041016"/>
      <use xlink:href="#DejaVuSans-6c" x="501.419922"/>
      <use xlink:href="#DejaVuSans-61" x="529.203125"/>
      <use xlink:href="#DejaVuSans-74" x="590.482422"/>
      <use xlink:href="#DejaVuSans-69" x="629.691406"/>
      <use xlink:href="#DejaVuSans-6f" x="657.474609"/>
      <use xlink:href="#DejaVuSans-6e" x="718.65625"/>
     </g>
    </g>
   </g>
   <g id="line2d_25">
    <path d="M 156.603927 424.85472 
L 164.273891 355.18176 
L 185.4576 323.6112 
L 227.277164 371.6928 
L 272.749091 423.76608 
L 280.236436 452.25216 
L 252.661091 467.13024 
L 218.876727 465.86016 
L 196.779927 450.6192 
L 187.283782 430.11648 
L 187.283782 407.61792 
L 194.223273 396.91296 
L 203.171564 391.6512 
L 215.406982 394.73568 
L 236.225455 407.9808 
L 249.373964 415.96416 
L 241.521382 419.23008 
L 227.825018 408.52512 
L 219.424582 406.71072 
L 224.903127 401.81184 
L 229.6512 402.35616 
L 236.408073 407.25504 
L 239.329964 407.43648 
L 250.104436 419.23008 
L 260.696291 422.85888 
L 255.582982 430.11648 
L 242.434473 429.20928 
L 238.782109 417.59712 
L 233.851418 412.33536 
L 236.590691 408.70656 
L 229.285964 403.98912 
L 231.66 405.44064 
L 244.078036 403.08192 
L 246.452073 406.89216 
L 250.834909 409.97664 
L 259.965818 415.78272 
L 266.174836 424.3104 
L 271.288145 427.21344 
L 253.026327 421.5888 
L 234.216655 412.5168 
L 226.364073 396.73152 
L 229.103345 397.45728 
L 240.060436 400.17888 
L 249.191345 405.98496 
L 254.122036 411.06528 
L 248.278255 413.424 
L 248.826109 417.59712 
L 250.287055 426.48768 
L 251.200145 422.85888 
L 241.521382 419.23008 
L 245.538982 416.1456 
L 255.217745 418.50432 
L 255.035127 418.8672 
L 247.7304 415.78272 
L 244.625891 411.97248 
L 245.538982 410.52096 
L 245.356364 405.07776 
L 244.078036 405.98496 
L 252.478473 408.52512 
L 254.122036 416.87136 
L 251.382764 414.51264 
L 243.530182 409.61376 
L 236.408073 408.34368 
L 234.034036 402.71904 
L 235.860218 400.7232 
L 240.973527 399.99744 
L 253.391564 411.97248 
L 258.322255 415.05696 
L 253.574182 413.60544 
L 259.052727 414.14976 
L 257.957018 419.23008 
L 252.661091 424.3104 
L 246.634691 417.41568 
L 239.147345 411.79104 
L 240.973527 416.1456 
L 235.860218 407.0736 
L 235.494982 404.17056 
L 239.877818 410.33952 
L 237.503782 411.6096 
L 239.147345 414.14976 
L 241.886618 415.78272 
L 240.060436 416.87136 
L 242.799709 422.85888 
L 236.408073 418.50432 
L 234.581891 413.06112 
L 241.521382 409.7952 
L 246.269455 413.06112 
L 248.643491 407.43648 
L 248.826109 403.26336 
L 251.930618 399.99744 
L 249.191345 399.09024 
L 252.843709 404.71488 
L 261.974618 431.02368 
L 263.070327 448.44192 
L 242.434473 445.176 
L 225.816218 437.0112 
L 207.006545 425.94336 
L 202.623709 416.50848 
L 210.658909 420.86304 
L 216.320073 429.39072 
L 216.320073 433.3824 
L 215.772218 431.38656 
L 212.485091 426.1248 
L 217.781018 429.02784 
L 225.6336 435.01536 
L 222.894327 439.36992 
L 213.5808 433.74528 
L 210.293673 432.4752 
L 208.650109 426.30624 
L 214.859127 435.37824 
L 212.302473 428.8464 
L 205.728218 428.8464 
L 210.658909 431.38656 
L 219.059345 433.74528 
L 224.172655 434.65248 
L 221.250764 437.0112 
L 219.6072 435.92256 
L 219.059345 429.20928 
L 226.546691 430.29792 
L 233.303564 429.39072 
L 231.477382 431.93088 
L 230.929527 430.6608 
L 230.929527 435.01536 
L 225.816218 432.83808 
L 219.059345 425.94336 
L 224.720509 427.032 
L 231.112145 435.55968 
L 231.66 439.55136 
L 223.442182 439.18848 
L 209.380582 428.8464 
L 210.841527 425.03616 
L 218.328873 425.39904 
L 224.355273 431.02368 
L 219.972436 431.02368 
L 213.946036 425.2176 
L 212.667709 419.04864 
L 217.781018 412.33536 
L 227.6424 415.96416 
L 237.869018 420.6816 
L 243.7128 427.9392 
L 244.078036 433.56384 
L 242.251855 432.4752 
L 229.833818 427.75776 
L 224.355273 422.67744 
L 226.729309 423.4032 
L 219.6072 413.96832 
L 217.050545 411.24672 
L 230.746909 415.96416 
L 246.634691 428.48352 
L 248.278255 429.39072 
L 236.955927 421.40736 
L 239.147345 417.23424 
L 240.790909 415.41984 
L 248.460873 424.67328 
L 254.852509 432.83808 
L 246.817309 428.66496 
L 236.773309 431.38656 
L 228.190255 427.032 
L 216.685309 423.4032 
L 216.685309 411.97248 
L 221.981236 413.60544 
L 231.477382 417.59712 
L 238.234255 424.49184 
L 241.338764 430.11648 
L 232.755709 424.12896 
L 231.477382 422.67744 
L 227.6424 410.33952 
L 233.303564 415.41984 
L 249.373964 422.13312 
L 249.921818 433.3824 
L 238.964727 424.49184 
L 236.955927 418.8672 
L 240.425673 419.59296 
L 235.312364 415.05696 
L 238.051636 412.69824 
L 253.391564 422.13312 
L 260.696291 420.31872 
L 254.304655 416.50848 
L 258.322255 423.04032 
L 252.295855 419.7744 
L 245.538982 415.96416 
L 250.104436 420.13728 
L 261.061527 421.22592 
L 258.687491 419.95584 
L 247.913018 414.3312 
L 250.652291 416.50848 
L 260.513673 420.31872 
L 272.566473 428.66496 
L 269.096727 427.39488 
L 267.087927 430.84224 
L 255.035127 423.4032 
L 247.913018 417.23424 
L 247.365164 408.16224 
L 250.104436 406.52928 
L 264.713891 412.33536 
L 269.8272 419.95584 
L 255.582982 415.60128 
L 251.382764 410.88384 
L 251.748 407.43648 
L 255.582982 412.15392 
L 266.357455 414.14976 
L 268.731491 418.50432 
L 270.009818 420.50016 
L 271.836 425.58048 
L 267.087927 425.2176 
L 258.504873 406.71072 
L 252.478473 391.46976 
L 261.792 384.03072 
L 278.410255 392.01408 
L 300.872291 408.70656 
L 300.141818 416.50848 
L 287.9064 424.12896 
L 273.296945 417.0528 
L 252.113236 397.82016 
L 246.999927 386.93376 
L 257.226545 376.59168 
L 273.296945 387.1152 
L 292.106618 400.7232 
L 299.776582 414.3312 
L 297.037309 417.59712 
L 278.045018 409.06944 
L 259.417964 393.64704 
L 262.887709 382.94208 
L 277.679782 389.47392 
L 288.089018 396.91296 
L 287.358545 402.90048 
L 279.323345 403.80768 
L 281.88 402.90048 
L 269.644582 346.10976 
L 286.628073 345.74688 
L 299.046109 359.8992 
L 314.933891 382.21632 
L 310.185818 389.8368 
L 294.115418 388.74816 
L 274.210036 375.14016 
L 259.600582 356.45184 
L 268.366255 355.3632 
L 299.9592 365.16096 
L 321.142909 390.56256 
L 318.0384 410.33952 
L 288.089018 413.60544 
L 272.383855 398.54592 
L 255.400364 363.34656 
L 240.790909 333.40896 
L 244.625891 324.69984 
L 266.174836 335.4048 
L 296.306836 362.25792 
L 323.882182 399.27168 
L 314.386036 415.05696 
L 281.332145 409.25088 
L 249.373964 393.82848 
L 240.973527 364.61664 
L 234.034036 327.42144 
L 234.216655 312.54336 
L 253.208945 316.3536 
L 290.645673 350.46432 
L 327.899782 389.65536 
L 340.317818 423.04032 
L 317.307927 438.8256 
L 271.836 424.67328 
L 232.207855 382.94208 
L 210.658909 335.76768 
L 206.641309 295.488 
L 210.658909 270.63072 
L 235.312364 281.88 
L 274.027418 315.62784 
L 321.142909 374.05152 
L 357.118691 433.74528 
L 350.727055 448.8048 
L 293.384945 430.29792 
L 225.816218 387.1152 
L 189.109964 336.312 
L 183.4488 276.61824 
L 198.971345 247.95072 
L 228.738109 257.92992 
L 248.278255 286.96032 
L 271.105527 321.25248 
L 299.046109 356.81472 
L 316.760073 382.21632 
L 313.107709 401.6304 
L 282.793091 388.56672 
L 244.078036 360.08064 
L 221.068145 330.32448 
L 221.981236 303.83424 
L 231.294764 284.05728 
L 260.148436 298.93536 
L 292.471855 335.58624 
L 317.490545 373.68864 
L 335.021891 406.1664 
L 328.447636 418.32288 
L 299.776582 408.34368 
L 259.417964 379.8576 
L 227.825018 350.28288 
L 215.954836 325.78848 
L 225.450982 306.91872 
L 234.034036 288.04896 
L 239.329964 284.23872 
L 247.7304 287.50464 
L 275.670982 310.36608 
L 292.106618 335.04192 
L 307.446545 360.98784 
L 314.568655 382.21632 
L 296.306836 381.30912 
L 258.687491 358.44768 
L 234.581891 329.78016 
L 233.851418 309.64032 
L 241.156145 286.416 
L 242.069236 281.69856 
L 242.799709 285.32736 
L 249.921818 301.11264 
L 276.218836 325.60704 
L 303.611564 352.82304 
L 321.325527 382.5792 
L 310.551055 387.29664 
L 282.975709 366.97536 
L 244.991127 349.92 
L 239.512582 330.14304 
L 244.625891 302.20128 
L 252.843709 300.38688 
L 258.870109 320.52672 
L 277.131927 335.76768 
L 301.237527 350.8272 
L 314.568655 362.25792 
L 304.707273 368.78976 
L 274.757891 374.05152 
L 268.183636 361.53216 
L 260.878909 341.57376 
L 252.478473 329.59872 
L 246.086836 315.08352 
L 249.921818 315.26496 
L 248.643491 307.2816 
L 258.687491 310.9104 
L 266.357455 323.6112 
L 272.383855 331.776 
L 286.993309 349.55712 
L 295.9416 362.6208 
L 298.133018 366.43104 
L 293.384945 367.1568 
L 275.488364 356.45184 
L 265.8096 351.19008 
L 255.948218 334.86048 
L 262.339855 319.80096 
L 270.922909 321.7968 
L 292.289236 346.10976 
L 307.629164 366.43104 
L 314.568655 378.40608 
L 318.586255 389.29248 
L 290.463055 378.9504 
L 270.740291 369.51552 
L 259.600582 351.91584 
L 258.870109 336.85632 
L 264.531273 320.16384 
L 261.426764 312.7248 
L 257.591782 307.46304 
L 253.939418 310.36608 
L 255.217745 317.07936 
L 264.348655 327.96576 
L 286.445455 336.13056 
L 302.515855 351.00864 
L 307.081309 364.07232 
L 304.159418 371.6928 
L 284.801891 360.08064 
L 263.618182 346.47264 
L 243.347564 325.78848 
L 246.269455 309.82176 
L 261.244145 309.27744 
L 274.392655 322.52256 
L 290.097818 337.94496 
L 302.150618 360.98784 
L 315.481745 386.02656 
L 319.316727 390.56256 
L 315.846982 394.19136 
L 296.854691 382.03488 
L 277.131927 365.16096 
L 265.261745 350.8272 
L 262.705091 343.20672 
L 264.896509 338.85216 
L 271.470764 338.30784 
L 280.784291 340.48512 
L 282.975709 344.4768 
L 277.8624 337.76352 
L 270.192436 335.76768 
L 262.339855 335.22336 
L 278.045018 336.312 
L 291.010909 347.56128 
L 292.471855 351.00864 
L 288.089018 349.55712 
L 283.706182 352.6416 
L 280.966909 363.34656 
L 284.801891 365.88672 
L 276.584073 351.55296 
L 273.296945 351.91584 
L 269.8272 346.47264 
L 276.036218 343.5696 
L 294.115418 346.47264 
L 289.9152 347.37984 
L 285.532364 355.3632 
L 289.184727 360.8064 
L 301.054909 364.97952 
L 309.637964 370.96704 
L 298.863491 371.14848 
L 276.584073 369.15264 
L 270.192436 351.37152 
L 249.008727 326.87712 
L 232.025236 298.75392 
L 224.172655 290.952 
L 240.973527 293.6736 
L 275.305745 313.632 
L 297.402545 344.29536 
L 306.350836 367.88256 
L 311.464145 388.9296 
L 305.072509 399.27168 
L 285.8976 387.47808 
L 253.574182 356.63328 
L 227.094545 324.33696 
L 220.702909 296.3952 
L 240.060436 281.69856 
L 263.983418 296.03232 
L 281.88 328.1472 
L 297.9504 355.90752 
L 299.593964 367.70112 
L 298.498255 375.50304 
L 283.158327 366.43104 
L 264.166036 351.7344 
L 252.113236 341.21088 
L 251.930618 336.85632 
L 264.896509 335.4048 
L 278.227636 340.12224 
L 294.845891 352.46016 
L 292.106618 366.79392 
L 288.454255 376.2288 
L 294.298036 386.02656 
L 288.636873 391.28832 
L 270.375055 368.42688 
L 244.443273 338.48928 
L 226.546691 321.25248 
L 235.860218 317.07936 
L 265.444364 329.23584 
L 289.002109 336.13056 
L 296.672073 351.37152 
L 284.801891 365.70528 
L 269.461964 358.26624 
L 260.878909 343.93248 
L 249.556582 322.88544 
L 238.782109 306.55584 
L 229.285964 296.03232 
L 228.555491 292.7664 
L 251.382764 306.91872 
L 290.645673 341.57376 
L 313.107709 382.21632 
L 307.629164 413.96832 
L 292.837091 425.58048 
L 268.914109 414.51264 
L 246.269455 397.63872 
L 227.6424 377.31744 
L 213.032945 347.37984 
L 214.493891 335.58624 
L 226.729309 337.2192 
L 245.173745 337.76352 
L 264.166036 353.5488 
L 276.218836 371.6928 
L 266.905309 368.42688 
L 249.008727 361.53216 
L 239.877818 360.98784 
L 242.617091 364.97952 
L 252.295855 368.42688 
L 259.052727 372.96288 
L 263.618182 378.40608 
L 268.366255 382.21632 
L 264.713891 381.49056 
L 262.887709 380.40192 
L 262.705091 383.66784 
L 266.905309 387.29664 
L 257.409164 377.31744 
L 240.243055 357.35904 
L 223.990036 343.20672 
L 231.66 339.39648 
L 242.251855 340.30368 
L 255.7656 342.11808 
L 265.444364 357.54048 
L 277.8624 382.76064 
L 278.775491 388.9296 
L 270.922909 390.38112 
L 259.600582 385.48224 
L 244.991127 373.14432 
L 237.6864 364.07232 
L 240.425673 357.72192 
L 247.913018 359.17344 
L 250.287055 362.6208 
L 253.391564 372.41856 
L 265.261745 379.49472 
L 273.479564 407.79936 
L 275.488364 425.39904 
L 268.001018 430.84224 
L 247.913018 422.496 
L 225.816218 404.352 
L 213.5808 388.56672 
L 224.903127 376.04736 
L 244.991127 376.41024 
L 268.183636 385.48224 
L 286.262836 404.71488 
L 288.089018 415.60128 
L 282.427855 415.05696 
L 277.679782 414.3312 
L 271.836 407.61792 
L 264.713891 391.6512 
L 264.166036 384.57504 
L 270.922909 384.57504 
L 287.9064 396.00576 
L 303.9768 411.79104 
L 294.115418 417.0528 
L 278.775491 413.24256 
L 260.696291 394.55424 
L 254.304655 381.30912 
L 266.722691 380.40192 
L 273.479564 390.38112 
L 277.8624 406.71072 
L 286.993309 424.67328 
L 285.349745 431.02368 
L 260.513673 426.66912 
L 238.782109 412.15392 
L 234.034036 402.5376 
L 244.260655 402.5376 
L 251.930618 401.99328 
L 265.444364 410.88384 
L 280.053818 429.39072 
L 274.392655 433.56384 
L 260.148436 430.6608 
L 245.7216 423.04032 
L 237.869018 411.24672 
L 236.590691 397.63872 
L 234.764509 391.83264 
L 247.365164 402.71904 
L 271.288145 420.50016 
L 270.740291 425.94336 
L 258.687491 435.1968 
L 247.182545 436.104 
L 237.321164 430.6608 
L 235.312364 422.496 
L 237.321164 419.59296 
L 240.973527 416.50848 
L 236.590691 412.33536 
L 237.6864 414.3312 
L 246.269455 418.50432 
L 243.530182 427.39488 
L 240.790909 431.02368 
L 235.860218 432.11232 
L 230.564291 427.21344 
L 226.729309 413.424 
L 232.207855 403.4448 
L 236.042836 399.27168 
L 237.503782 411.42816 
L 247.547782 421.95168 
L 247.182545 431.93088 
L 237.321164 431.74944 
L 238.599491 426.85056 
L 236.225455 420.86304 
L 238.782109 419.7744 
L 237.869018 414.87552 
L 239.6952 415.96416 
L 248.826109 423.94752 
L 243.895418 425.76192 
L 245.7216 435.55968 
L 246.452073 436.104 
L 235.312364 431.93088 
L 220.885527 420.13728 
L 219.059345 419.04864 
L 231.842618 418.14144 
L 237.6864 429.20928 
L 246.269455 434.65248 
L 241.338764 435.01536 
L 230.746909 432.4752 
L 233.851418 429.93504 
L 240.060436 428.48352 
L 241.886618 430.6608 
L 245.173745 428.66496 
L 236.955927 429.20928 
L 236.955927 428.66496 
L 230.016436 431.02368 
L 230.929527 430.47936 
L 229.6512 434.47104 
L 234.216655 435.74112 
L 232.025236 433.01952 
L 224.355273 428.8464 
L 223.6248 419.7744 
L 229.6512 417.0528 
L 232.573091 419.41152 
L 233.303564 428.12064 
L 243.7128 431.20512 
L 245.7216 439.18848 
L 234.399273 435.01536 
L 236.955927 436.28544 
L 228.738109 429.57216 
L 223.076945 428.30208 
L 222.529091 429.39072 
L 222.894327 432.29376 
L 220.520291 423.76608 
L 222.346473 424.85472 
L 230.564291 427.032 
L 231.842618 428.48352 
L 228.190255 432.4752 
L 232.207855 432.4752 
L 235.860218 439.55136 
L 233.851418 444.81312 
L 222.894327 441.36576 
L 217.963636 432.4752 
L 207.737018 427.75776 
L 202.441091 423.94752 
L 207.919636 421.5888 
L 209.197964 420.50016 
L 205.180364 423.58464 
L 214.493891 422.496 
L 218.511491 420.50016 
L 218.328873 428.66496 
L 221.250764 426.85056 
L 219.424582 424.67328 
L 220.885527 422.496 
L 224.720509 429.20928 
L 223.6248 427.9392 
L 223.442182 434.47104 
L 223.807418 433.01952 
L 220.520291 426.1248 
L 219.972436 423.22176 
L 221.068145 420.13728 
L 225.998836 424.3104 
L 237.138545 433.92672 
L 233.120945 440.27712 
L 223.6248 441.00288 
L 211.572 435.37824 
L 208.832727 421.77024 
L 211.389382 404.89632 
L 218.694109 392.01408 
L 225.6336 393.10272 
L 235.494982 398.36448 
L 253.7568 412.87968 
L 258.504873 419.95584 
L 252.661091 422.13312 
L 244.078036 419.23008 
L 239.6952 413.424 
L 232.573091 402.17472 
L 251.748 404.89632 
L 258.870109 414.51264 
L 253.391564 409.97664 
L 245.173745 413.96832 
L 251.200145 418.50432 
L 249.008727 414.51264 
L 243.895418 413.78688 
L 246.269455 417.41568 
L 245.356364 414.51264 
L 236.773309 417.59712 
L 236.042836 411.24672 
L 240.790909 410.52096 
L 245.7216 406.71072 
L 243.7128 403.80768 
L 244.443273 404.352 
L 253.026327 408.34368 
L 259.417964 416.32704 
L 262.522473 422.31456 
L 254.852509 422.496 
L 243.530182 409.7952 
L 233.6688 404.53344 
L 232.390473 402.90048 
L 238.964727 406.89216 
L 233.486182 405.2592 
L 232.755709 406.1664 
L 237.869018 408.34368 
L 238.416873 413.06112 
L 233.120945 411.24672 
L 234.581891 409.06944 
L 239.512582 407.9808 
L 247.182545 415.60128 
L 257.409164 422.496 
L 252.295855 421.95168 
L 235.6776 410.33952 
L 223.990036 398.72736 
L 235.6776 399.45312 
L 251.017527 405.44064 
L 255.582982 414.87552 
L 245.7216 415.05696 
L 240.608291 417.0528 
L 246.086836 417.77856 
L 245.904218 417.59712 
L 239.329964 402.90048 
L 234.034036 394.55424 
L 235.129745 392.37696 
L 243.530182 396.91296 
L 259.7832 411.79104 
L 269.096727 424.49184 
L 264.531273 421.77024 
L 255.035127 421.22592 
L 251.565382 415.96416 
L 251.565382 415.96416 
L 257.043927 417.77856 
L 250.469673 423.4032 
L 246.269455 413.96832 
L 253.391564 418.50432 
L 255.7656 424.3104 
L 247.547782 420.31872 
L 238.234255 412.5168 
L 225.085745 405.80352 
L 230.381673 405.44064 
L 234.947127 408.16224 
L 243.895418 413.24256 
L 254.852509 412.15392 
L 252.113236 420.13728 
L 245.904218 418.8672 
L 245.7216 412.15392 
L 251.382764 410.52096 
L 254.122036 416.32704 
L 258.687491 418.8672 
L 229.103345 408.70656 
L 228.007636 396.73152 
L 232.025236 394.00992 
L 244.443273 403.62624 
L 249.556582 415.78272 
L 251.017527 421.04448 
L 250.287055 425.03616 
L 248.460873 429.02784 
L 238.599491 423.22176 
L 230.199055 418.68576 
L 233.6688 412.5168 
L 230.564291 405.44064 
L 237.869018 405.80352 
L 235.129745 398.0016 
L 242.982327 406.34784 
L 253.7568 415.2384 
L 252.478473 421.40736 
L 245.7216 420.86304 
L 240.060436 414.69408 
L 238.051636 407.61792 
L 240.973527 409.97664 
L 242.069236 409.25088 
L 244.991127 411.06528 
L 245.904218 415.41984 
L 232.390473 409.43232 
L 234.034036 405.80352 
L 243.7128 396.1872 
L 239.877818 398.36448 
L 238.964727 406.71072 
L 240.243055 406.89216 
L 255.217745 414.3312 
L 264.348655 418.14144 
L 268.183636 426.66912 
L 234.581891 414.14976 
L 237.869018 411.42816 
L 241.156145 411.6096 
L 245.356364 415.2384 
L 255.582982 414.14976 
L 256.130836 421.95168 
L 252.113236 426.30624 
L 245.7216 427.21344 
L 237.869018 415.05696 
L 230.016436 408.70656 
L 234.764509 403.62624 
L 241.156145 403.26336 
L 249.373964 410.52096 
L 253.574182 417.23424 
L 249.191345 423.22176 
L 245.173745 419.95584 
L 238.416873 417.77856 
L 240.973527 415.2384 
L 237.503782 405.98496 
L 242.434473 410.7024 
L 245.173745 413.78688 
L 243.530182 412.33536 
L 243.7128 410.7024 
L 248.643491 414.69408 
L 246.452073 415.78272 
L 245.538982 412.5168 
L 261.061527 419.04864 
L 270.922909 427.032 
L 262.339855 430.11648 
L 257.591782 426.66912 
L 248.460873 414.69408 
L 241.704 413.24256 
L 249.373964 409.43232 
L 251.748 409.43232 
L 247.7304 406.34784 
L 243.164945 406.89216 
L 248.095636 410.33952 
L 248.095636 408.34368 
L 245.7216 411.79104 
L 246.452073 409.06944 
L 249.191345 408.16224 
L 239.877818 403.98912 
L 245.7216 403.4448 
L 256.130836 403.08192 
L 257.226545 406.89216 
L 260.696291 409.43232 
L 256.130836 411.79104 
L 256.861309 419.04864 
L 256.678691 417.0528 
L 246.817309 406.52928 
L 245.356364 410.33952 
L 258.504873 417.23424 
L 264.531273 418.50432 
L 256.496073 424.67328 
L 255.7656 426.30624 
L 254.487273 430.11648 
L 247.7304 423.4032 
L 239.6952 416.87136 
L 234.399273 406.52928 
L 231.842618 398.18304 
L 242.251855 405.80352 
L 256.861309 434.83392 
L 257.043927 454.79232 
L 238.416873 450.43776 
L 219.6072 439.55136 
L 205.180364 428.66496 
L 205.5456 418.50432 
L 213.215564 413.96832 
L 216.502691 417.0528 
L 217.415782 419.41152 
L 219.6072 419.7744 
L 212.850327 424.3104 
L 215.224364 427.75776 
L 221.798618 433.01952 
L 219.241964 434.2896 
L 211.024145 431.568 
L 218.511491 435.37824 
L 223.807418 434.47104 
L 223.807418 436.46688 
L 220.885527 431.02368 
L 221.616 432.83808 
L 223.990036 428.12064 
L 218.328873 425.39904 
L 219.424582 422.67744 
L 221.616 422.13312 
L 222.346473 425.58048 
L 228.920727 438.46272 
L 225.268364 441.00288 
L 218.328873 433.92672 
L 215.954836 429.20928 
L 215.041745 423.22176 
L 217.233164 422.31456 
L 226.546691 425.39904 
L 231.477382 429.02784 
L 237.6864 440.64 
L 237.321164 445.90176 
L 225.998836 439.91424 
L 217.415782 431.568 
L 214.676509 419.59296 
L 214.859127 417.23424 
L 222.163855 415.96416 
L 235.494982 423.22176 
L 233.303564 425.58048 
L 226.364073 428.8464 
L 232.207855 427.9392 
L 233.120945 421.95168 
L 230.016436 425.39904 
L 236.773309 425.2176 
L 238.964727 432.4752 
L 234.764509 429.02784 
L 230.381673 425.58048 
L 240.243055 423.4032 
L 237.6864 423.58464 
L 228.738109 419.41152 
L 221.250764 419.04864 
L 222.529091 418.14144 
L 224.537891 412.5168 
L 234.581891 420.13728 
L 249.7392 432.83808 
L 242.982327 434.10816 
L 226.729309 426.1248 
L 223.990036 416.50848 
L 236.225455 422.31456 
L 245.538982 429.93504 
L 245.538982 435.01536 
L 238.234255 434.65248 
L 238.051636 438.46272 
L 235.494982 435.74112 
L 233.120945 432.29376 
L 232.938327 429.02784 
L 228.007636 423.58464 
L 224.537891 420.31872 
L 225.268364 421.04448 
L 234.399273 423.94752 
L 234.399273 427.75776 
L 223.807418 421.40736 
L 232.390473 424.49184 
L 248.643491 423.22176 
L 246.086836 423.76608 
L 238.782109 423.58464 
L 242.617091 418.50432 
L 241.521382 413.60544 
L 242.434473 415.41984 
L 264.531273 428.66496 
L 269.8272 429.57216 
L 256.496073 420.50016 
L 251.930618 417.59712 
L 255.7656 419.41152 
L 253.939418 426.85056 
L 253.7568 430.6608 
L 244.625891 427.75776 
L 232.025236 414.69408 
L 218.328873 398.0016 
L 220.155055 389.47392 
L 255.035127 413.06112 
L 267.270545 420.86304 
L 257.409164 426.30624 
L 259.600582 427.57632 
L 261.426764 429.39072 
L 249.556582 427.032 
L 242.434473 419.95584 
L 240.060436 409.43232 
L 242.617091 397.45728 
L 251.382764 402.17472 
L 263.435564 414.14976 
L 266.174836 422.13312 
L 263.070327 415.60128 
L 256.496073 415.78272 
L 259.965818 415.05696 
L 258.322255 418.32288 
L 261.426764 416.68992 
L 254.852509 412.87968 
L 260.148436 413.24256 
L 262.887709 411.97248 
L 267.087927 400.17888 
L 273.479564 392.01408 
L 280.053818 395.46144 
L 293.202327 407.0736 
L 293.9328 412.69824 
L 282.610473 413.424 
L 271.105527 404.71488 
L 273.479564 400.36032 
L 291.010909 404.71488 
L 290.097818 413.78688 
L 281.332145 406.34784 
L 262.522473 394.55424 
L 272.201236 392.73984 
L 285.167127 393.28416 
L 290.280436 398.36448 
L 287.541164 400.36032 
L 282.975709 395.82432 
L 279.140727 393.64704 
L 280.784291 396.1872 
L 277.497164 396.00576 
L 267.270545 397.82016 
L 265.261745 392.37696 
L 264.713891 388.56672 
L 269.279345 365.16096 
L 272.566473 344.4768 
L 276.036218 344.4768 
L 301.785382 368.60832 
L 323.151709 390.01824 
L 313.472945 401.26752 
L 289.184727 404.17056 
L 268.548873 386.208 
L 259.600582 364.61664 
L 261.609382 352.46016 
L 272.018618 354.63744 
L 286.445455 358.992 
L 283.8888 366.2496 
L 271.653382 368.42688 
L 269.8272 369.8784 
L 275.8536 378.40608 
L 278.227636 377.31744 
L 272.749091 367.33824 
L 259.052727 366.06816 
L 266.174836 369.33408 
L 281.149527 374.23296 
L 286.628073 376.41024 
L 284.254036 376.41024 
L 269.8272 377.136 
L 262.339855 371.14848 
L 271.288145 366.79392 
L 273.479564 363.16512 
L 264.896509 360.98784 
L 256.678691 359.71776 
L 251.200145 356.63328 
L 259.235345 353.73024 
L 270.922909 357.72192 
L 279.323345 363.16512 
L 279.505964 366.79392 
L 271.470764 372.6 
L 265.626982 375.86592 
L 266.905309 376.77312 
L 260.878909 371.87424 
L 244.078036 358.62912 
L 234.216655 338.30784 
L 235.129745 316.3536 
L 234.764509 303.28992 
L 242.982327 304.56 
L 255.035127 315.99072 
L 264.713891 330.8688 
L 285.167127 353.18592 
L 295.393745 367.1568 
L 300.324436 383.66784 
L 294.845891 388.56672 
L 267.453164 371.6928 
L 240.060436 341.02944 
L 223.6248 314.17632 
L 238.051636 308.37024 
L 259.965818 307.2816 
L 266.357455 312.90624 
L 270.009818 333.04608 
L 274.940509 347.1984 
L 289.9152 365.70528 
L 298.863491 374.05152 
L 285.167127 372.96288 
L 265.8096 362.80224 
L 246.452073 347.1984 
L 236.408073 326.51424 
L 232.573091 298.02816 
L 230.564291 286.59744 
L 229.6512 285.32736 
L 271.653382 318.89376 
L 303.9768 352.82304 
L 318.221018 375.3216 
L 299.9592 383.84928 
L 272.566473 371.51136 
L 247.365164 350.10144 
L 232.755709 324.33696 
L 231.66 299.1168 
L 224.537891 280.24704 
L 222.163855 273.53376 
L 244.260655 291.67776 
L 267.453164 315.80928 
L 289.002109 343.20672 
L 300.324436 367.88256 
L 299.9592 378.9504 
L 286.262836 381.672 
L 267.453164 367.1568 
L 252.843709 350.10144 
L 239.147345 325.60704 
L 232.573091 307.64448 
L 236.773309 303.83424 
L 263.070327 312.54336 
L 291.924 337.40064 
L 321.690764 378.22464 
L 341.596145 408.34368 
L 340.865673 426.48768 
L 324.430036 424.67328 
L 291.558764 401.6304 
L 266.722691 372.6 
L 245.173745 336.13056 
L 242.434473 326.15136 
L 257.7744 323.42976 
L 278.045018 331.41312 
L 296.854691 346.10976 
L 311.464145 366.2496 
L 323.882182 389.8368 
L 303.794182 383.12352 
L 274.940509 361.35072 
L 249.008727 332.50176 
L 232.207855 309.82176 
L 245.356364 293.12928 
L 272.383855 311.99904 
L 291.010909 329.23584 
L 301.420145 349.19424 
L 310.733673 372.96288 
L 311.646764 390.01824 
L 309.272727 391.10688 
L 291.924 378.58752 
L 258.139636 349.73856 
L 243.530182 322.34112 
L 232.938327 299.66112 
L 233.486182 290.40768 
L 257.409164 295.12512 
L 289.732582 315.4464 
L 322.238618 353.5488 
L 338.856873 390.19968 
L 331.186909 402.17472 
L 314.386036 405.2592 
L 280.236436 378.76896 
L 255.400364 337.94496 
L 233.6688 299.29824 
L 233.6688 284.05728 
L 245.7216 287.50464 
L 278.592873 305.64864 
L 278.592873 305.64864 
" clip-path="url(#p5c97087f1c)" style="fill: none; stroke-dasharray: 5.55,2.4; stroke-dashoffset: 0; stroke: #008000; stroke-opacity: 0.7; stroke-width: 1.5"/>
   </g>
   <g id="line2d_26">
    <path d="M 81 77.76 
L 583.2 576.72 
" clip-path="url(#p5c97087f1c)" style="fill: none; stroke: #000000; stroke-width: 1.5; stroke-linecap: square"/>
   </g>
   <g id="line2d_27">
    <path d="M 81 554.04 
L 649 554.04 
" clip-path="url(#p5c97087f1c)" style="fill: none; stroke-dasharray: 9.6,2.4,1.5,2.4; stroke-dashoffset: 0; stroke: #000000; stroke-width: 1.5"/>
   </g>
   <g id="line2d_28">
    <path d="M 103.827273 576.72 
L 103.827273 -1 
" clip-path="url(#p5c97087f1c)" style="fill: none; stroke-dasharray: 9.6,2.4,1.5,2.4; stroke-dashoffset: 0; stroke: #000000; stroke-width: 1.5"/>
   </g>
   <g id="line2d_29">
    <path d="M 156.603927 424.85472 
L 162.995564 356.2704 
L 181.44 328.69152 
L 220.520291 361.53216 
L 261.974618 403.26336 
L 286.445455 441.18432 
L 280.236436 466.76736 
L 245.904218 470.5776 
L 218.876727 460.05408 
L 209.928436 448.07904 
L 200.980145 427.75776 
L 198.240873 403.98912 
L 204.632509 392.19552 
L 216.137455 385.48224 
L 231.294764 392.73984 
L 248.643491 411.42816 
L 255.400364 422.13312 
L 245.7216 419.7744 
L 232.938327 414.87552 
L 238.234255 413.78688 
L 248.278255 422.13312 
L 248.095636 427.032 
L 238.964727 418.50432 
L 238.051636 407.43648 
L 242.069236 405.62208 
L 247.182545 410.33952 
L 245.904218 416.87136 
L 243.895418 418.32288 
L 241.704 416.32704 
L 247.182545 417.41568 
L 243.530182 422.31456 
L 240.060436 424.85472 
L 231.66 418.32288 
L 226.181455 412.15392 
L 217.781018 405.2592 
L 220.337673 403.08192 
L 231.112145 397.0944 
L 239.329964 401.81184 
L 247.182545 411.97248 
L 253.391564 412.87968 
L 249.921818 419.59296 
L 252.661091 422.13312 
L 245.356364 420.86304 
L 240.973527 419.23008 
L 241.338764 413.60544 
L 244.808509 416.68992 
L 243.895418 419.23008 
L 239.147345 413.424 
L 243.164945 417.59712 
L 239.147345 411.97248 
L 238.234255 405.80352 
L 240.243055 405.98496 
L 238.234255 405.98496 
L 241.886618 410.52096 
L 240.425673 409.61376 
L 229.103345 397.45728 
L 234.764509 392.19552 
L 258.322255 399.09024 
L 263.8008 410.15808 
L 253.026327 414.51264 
L 237.6864 411.97248 
L 223.442182 400.90464 
L 233.303564 399.816 
L 247.365164 403.4448 
L 247.7304 411.79104 
L 248.460873 419.7744 
L 246.086836 417.23424 
L 241.156145 414.51264 
L 238.234255 407.25504 
L 244.625891 403.80768 
L 240.790909 401.08608 
L 246.269455 416.68992 
L 247.365164 421.40736 
L 238.964727 421.95168 
L 234.947127 420.86304 
L 235.860218 416.68992 
L 235.860218 409.43232 
L 239.6952 409.61376 
L 244.991127 416.50848 
L 248.826109 417.96 
L 245.904218 417.0528 
L 246.634691 416.1456 
L 256.130836 417.0528 
L 255.217745 422.85888 
L 250.469673 423.04032 
L 243.7128 417.0528 
L 240.060436 406.1664 
L 245.173745 406.52928 
L 257.591782 411.42816 
L 264.896509 415.41984 
L 257.591782 412.5168 
L 244.808509 426.48768 
L 238.051636 435.1968 
L 228.190255 435.92256 
L 222.346473 435.01536 
L 221.981236 435.74112 
L 219.241964 424.49184 
L 219.424582 423.4032 
L 222.894327 416.1456 
L 222.163855 417.96 
L 232.025236 427.57632 
L 239.329964 438.09984 
L 235.312364 439.55136 
L 227.094545 435.1968 
L 219.972436 427.032 
L 210.841527 420.6816 
L 221.616 426.48768 
L 234.216655 434.83392 
L 229.468582 431.568 
L 225.816218 437.73696 
L 219.789818 432.29376 
L 217.781018 430.29792 
L 217.5984 429.02784 
L 217.963636 427.39488 
L 218.328873 433.56384 
L 222.711709 432.65664 
L 221.433382 436.104 
L 211.754618 432.65664 
L 209.928436 436.28544 
L 209.380582 427.57632 
L 206.276073 423.04032 
L 215.224364 424.12896 
L 222.711709 423.76608 
L 228.007636 431.02368 
L 230.199055 431.74944 
L 232.390473 442.27296 
L 229.833818 439.18848 
L 226.364073 439.55136 
L 223.990036 429.57216 
L 218.876727 428.48352 
L 231.112145 433.74528 
L 234.764509 436.64832 
L 233.303564 433.3824 
L 234.581891 437.37408 
L 228.190255 438.46272 
L 220.702909 436.46688 
L 212.667709 429.20928 
L 210.658909 420.50016 
L 211.024145 418.32288 
L 212.485091 415.2384 
L 219.6072 416.50848 
L 227.825018 422.496 
L 237.869018 430.6608 
L 231.477382 432.4752 
L 225.6336 430.29792 
L 218.511491 425.03616 
L 214.128655 415.41984 
L 211.389382 408.70656 
L 217.415782 412.33536 
L 221.433382 408.70656 
L 224.720509 409.7952 
L 235.494982 422.31456 
L 237.503782 432.29376 
L 234.764509 431.38656 
L 242.799709 434.83392 
L 241.521382 433.56384 
L 235.312364 431.20512 
L 228.555491 421.95168 
L 220.702909 417.96 
L 234.399273 420.86304 
L 244.625891 420.50016 
L 248.643491 429.57216 
L 245.538982 432.29376 
L 238.416873 428.8464 
L 239.147345 424.12896 
L 239.512582 420.50016 
L 237.321164 420.13728 
L 241.338764 417.59712 
L 244.625891 418.8672 
L 246.086836 422.13312 
L 243.7128 423.22176 
L 245.538982 424.49184 
L 243.347564 420.13728 
L 240.425673 409.43232 
L 245.538982 411.24672 
L 250.287055 411.97248 
L 248.643491 414.87552 
L 247.7304 415.60128 
L 248.095636 413.06112 
L 248.460873 408.16224 
L 249.921818 401.26752 
L 243.164945 402.71904 
L 254.852509 407.43648 
L 269.644582 416.50848 
L 274.392655 423.76608 
L 271.288145 431.20512 
L 261.061527 426.48768 
L 252.295855 425.03616 
L 248.643491 411.42816 
L 242.799709 403.80768 
L 249.556582 403.08192 
L 260.696291 411.79104 
L 268.001018 419.59296 
L 267.270545 423.58464 
L 263.252945 422.496 
L 249.7392 416.50848 
L 250.287055 409.06944 
L 252.295855 407.0736 
L 269.279345 413.78688 
L 272.749091 420.13728 
L 263.983418 421.5888 
L 255.035127 413.96832 
L 254.304655 407.25504 
L 261.426764 408.52512 
L 265.992218 398.18304 
L 274.210036 396.55008 
L 275.123127 394.55424 
L 283.340945 399.27168 
L 288.271636 407.79936 
L 276.766691 408.34368 
L 274.392655 404.89632 
L 266.357455 397.0944 
L 267.270545 391.6512 
L 270.375055 397.63872 
L 281.514764 401.6304 
L 287.541164 403.62624 
L 279.323345 401.44896 
L 282.427855 408.16224 
L 293.019709 415.41984 
L 283.523564 409.61376 
L 274.392655 403.4448 
L 265.444364 394.73568 
L 256.313455 388.38528 
L 268.548873 387.84096 
L 284.071418 396.91296 
L 286.628073 399.816 
L 271.105527 372.96288 
L 268.548873 349.73856 
L 286.445455 350.46432 
L 309.090109 370.42272 
L 331.369527 401.6304 
L 330.0912 417.96 
L 302.150618 415.78272 
L 266.174836 386.93376 
L 240.060436 349.92 
L 249.373964 326.87712 
L 268.366255 330.8688 
L 290.097818 353.36736 
L 307.446545 382.21632 
L 311.646764 402.71904 
L 304.889891 416.1456 
L 276.584073 404.53344 
L 249.191345 379.31328 
L 232.390473 349.92 
L 238.416873 337.2192 
L 260.331055 343.75104 
L 275.123127 358.62912 
L 286.810691 375.14016 
L 288.636873 383.12352 
L 272.201236 387.84096 
L 257.591782 389.65536 
L 251.930618 382.21632 
L 253.208945 364.61664 
L 250.469673 349.55712 
L 239.329964 337.94496 
L 239.6952 329.41728 
L 256.496073 329.59872 
L 279.505964 342.84384 
L 302.333236 374.23296 
L 318.768873 408.16224 
L 304.707273 427.21344 
L 277.131927 421.40736 
L 248.095636 394.19136 
L 234.399273 355.3632 
L 233.486182 321.25248 
L 237.321164 300.9312 
L 260.878909 315.4464 
L 297.767782 339.75936 
L 325.708364 379.8576 
L 331.004291 409.97664 
L 308.907491 417.0528 
L 279.8712 404.89632 
L 246.634691 361.53216 
L 228.555491 314.90208 
L 224.355273 293.49216 
L 248.095636 296.21376 
L 276.949309 312.54336 
L 305.9856 342.84384 
L 312.377236 374.4144 
L 313.107709 393.82848 
L 310.0032 396.00576 
L 262.705091 367.88256 
L 246.452073 345.384 
L 247.182545 323.6112 
L 255.400364 306.19296 
L 268.914109 310.36608 
L 284.436655 330.32448 
L 293.019709 354.63744 
L 309.820582 376.2288 
L 309.455345 392.01408 
L 286.810691 382.76064 
L 247.547782 335.94912 
L 239.329964 313.45056 
L 234.581891 292.58496 
L 240.608291 294.03648 
L 252.295855 300.024 
L 261.426764 309.64032 
L 274.575273 325.06272 
L 286.810691 335.76768 
L 295.576364 350.28288 
L 285.167127 352.82304 
L 266.357455 345.92832 
L 245.7216 326.87712 
L 240.608291 307.10016 
L 255.7656 298.57248 
L 272.749091 306.3744 
L 294.115418 337.40064 
L 316.212218 366.43104 
L 328.995491 387.65952 
L 318.0384 393.28416 
L 287.175927 383.84928 
L 259.600582 365.70528 
L 253.939418 336.312 
L 249.921818 305.83008 
L 258.870109 309.45888 
L 280.419055 325.24416 
L 307.081309 353.73024 
L 333.926182 385.66368 
L 345.065891 414.87552 
L 332.830473 424.67328 
L 302.515855 406.89216 
L 265.992218 361.53216 
L 234.764509 320.52672 
L 221.981236 294.21792 
L 232.755709 284.78304 
L 261.061527 293.31072 
L 288.271636 315.4464 
L 287.541164 326.69568 
L 284.436655 337.40064 
L 286.445455 347.74272 
L 290.463055 356.45184 
L 298.680873 355.54464 
L 299.228727 354.63744 
L 287.9064 355.54464 
L 262.887709 350.46432 
L 252.295855 329.9616 
L 245.173745 306.73728 
L 246.999927 293.12928 
L 260.878909 302.92704 
L 268.366255 317.62368 
L 275.670982 328.69152 
L 285.532364 336.312 
L 285.8976 344.4768 
L 282.975709 346.47264 
L 276.401455 343.38816 
L 267.087927 336.49344 
L 245.538982 316.3536 
L 241.338764 304.56 
L 238.964727 301.11264 
L 249.008727 298.2096 
L 254.122036 299.66112 
L 251.382764 302.7456 
L 262.522473 319.9824 
L 280.236436 340.66656 
L 305.802982 359.53632 
L 315.481745 374.95872 
L 306.533455 379.31328 
L 292.654473 379.49472 
L 256.130836 359.17344 
L 235.860218 331.59456 
L 239.877818 313.08768 
L 233.851418 291.31488 
L 245.904218 293.12928 
L 252.113236 303.28992 
L 261.426764 316.89792 
L 280.601673 324.15552 
L 295.576364 337.58208 
L 305.437745 359.17344 
L 305.620364 375.3216 
L 310.368436 391.6512 
L 306.716073 392.19552 
L 284.801891 370.42272 
L 258.322255 345.74688 
L 233.303564 319.61952 
L 233.486182 300.38688 
L 253.391564 293.6736 
L 280.419055 315.08352 
L 303.063709 343.20672 
L 313.838182 365.88672 
L 317.673164 377.49888 
L 312.559855 392.5584 
L 291.741382 375.86592 
L 265.079127 345.92832 
L 239.147345 323.42976 
L 230.564291 297.12096 
L 234.581891 282.60576 
L 260.513673 293.12928 
L 293.384945 322.88544 
L 328.630255 356.08896 
L 340.317818 392.01408 
L 331.552145 408.70656 
L 307.263927 407.0736 
L 277.8624 382.03488 
L 256.861309 346.2912 
L 243.347564 322.704 
L 252.113236 305.28576 
L 269.644582 307.2816 
L 297.219927 332.13888 
L 321.508145 365.3424 
L 323.334327 387.1152 
L 313.107709 388.20384 
L 290.463055 372.96288 
L 266.540073 350.46432 
L 259.600582 326.69568 
L 258.139636 320.52672 
L 266.174836 325.24416 
L 284.071418 335.04192 
L 305.437745 359.71776 
L 313.838182 378.76896 
L 306.350836 387.47808 
L 290.828291 384.03072 
L 260.878909 366.79392 
L 240.425673 337.76352 
L 225.998836 301.8384 
L 222.163855 275.5296 
L 222.163855 264.6432 
L 237.321164 279.88416 
L 275.488364 311.99904 
L 312.559855 353.5488 
L 341.230909 404.17056 
L 328.447636 427.39488 
L 289.184727 419.04864 
L 242.434473 381.30912 
L 204.084655 321.25248 
L 183.083564 272.26368 
L 186.188073 243.41472 
L 211.206764 245.77344 
L 251.200145 276.25536 
L 294.298036 324.69984 
L 328.447636 376.04736 
L 332.647855 408.52512 
L 310.185818 420.31872 
L 277.8624 415.78272 
L 248.826109 388.74816 
L 221.981236 347.56128 
L 214.128655 321.07104 
L 227.094545 302.38272 
L 247.365164 304.74144 
L 262.522473 315.99072 
L 278.775491 336.85632 
L 295.576364 362.25792 
L 311.646764 384.75648 
L 307.081309 387.65952 
L 285.349745 382.39776 
L 254.122036 366.43104 
L 237.869018 343.5696 
L 243.895418 327.78432 
L 273.8448 334.31616 
L 305.802982 360.62496 
L 310.0032 381.672 
L 310.916291 409.97664 
L 290.463055 414.3312 
L 280.966909 405.07776 
L 267.635782 386.75232 
L 245.538982 367.70112 
L 239.877818 348.64992 
L 247.547782 337.76352 
L 253.574182 333.22752 
L 257.7744 333.04608 
L 279.505964 354.09312 
L 302.698473 381.85344 
L 313.838182 404.17056 
L 294.663273 405.07776 
L 266.540073 401.6304 
L 249.191345 389.65536 
L 243.530182 367.33824 
L 232.938327 343.93248 
L 238.416873 329.9616 
L 253.391564 332.50176 
L 274.392655 348.83136 
L 287.358545 371.51136 
L 298.133018 393.10272 
L 299.411345 398.9088 
L 279.323345 392.92128 
L 260.878909 387.1152 
L 259.417964 380.03904 
L 259.7832 374.4144 
L 254.304655 364.4352 
L 263.435564 363.16512 
L 274.027418 365.88672 
L 278.410255 374.59584 
L 291.741382 390.744 
L 296.489455 404.53344 
L 269.8272 396.00576 
L 250.652291 388.74816 
L 239.512582 371.6928 
L 240.790909 353.5488 
L 249.7392 346.47264 
L 268.366255 357.1776 
L 283.706182 394.3728 
L 295.028509 426.30624 
L 289.002109 438.28128 
L 263.435564 435.01536 
L 235.6776 421.04448 
L 216.502691 394.91712 
L 219.059345 374.95872 
L 230.199055 362.43936 
L 243.7128 363.16512 
L 257.957018 369.33408 
L 278.227636 385.48224 
L 295.758982 404.17056 
L 297.402545 415.05696 
L 289.002109 417.96 
L 277.679782 410.52096 
L 268.548873 398.36448 
L 273.8448 396.1872 
L 286.628073 396.1872 
L 293.202327 404.71488 
L 292.106618 411.6096 
L 291.558764 412.33536 
L 283.158327 406.34784 
L 277.8624 405.07776 
L 279.688582 406.34784 
L 272.201236 398.18304 
L 273.662182 406.1664 
L 280.966909 415.60128 
L 287.358545 425.76192 
L 278.775491 428.48352 
L 258.139636 412.69824 
L 249.191345 406.1664 
L 262.522473 407.43648 
L 273.296945 409.06944 
L 275.123127 417.96 
L 271.470764 421.04448 
L 271.836 426.48768 
L 263.983418 420.86304 
L 248.460873 417.41568 
L 249.008727 409.61376 
L 259.417964 406.34784 
L 265.992218 415.2384 
L 267.453164 420.13728 
L 259.235345 421.77024 
L 251.565382 420.31872 
L 246.086836 418.50432 
L 245.7216 416.32704 
L 245.173745 410.7024 
L 255.400364 415.60128 
L 260.331055 426.85056 
L 257.957018 431.02368 
L 251.748 430.84224 
L 242.799709 423.58464 
L 241.338764 422.67744 
L 247.7304 421.5888 
L 256.678691 428.48352 
L 256.130836 432.4752 
L 248.826109 424.85472 
L 236.773309 413.06112 
L 237.503782 411.42816 
L 246.086836 420.50016 
L 246.817309 421.5888 
L 246.269455 422.67744 
L 242.069236 419.59296 
L 239.6952 415.60128 
L 244.260655 421.04448 
L 248.826109 420.31872 
L 253.208945 422.85888 
L 253.391564 429.39072 
L 247.7304 429.57216 
L 247.913018 431.38656 
L 246.086836 433.92672 
L 238.964727 435.1968 
L 232.390473 429.39072 
L 231.66 429.39072 
L 232.390473 424.85472 
L 232.755709 424.49184 
L 231.112145 422.67744 
L 237.321164 428.66496 
L 242.617091 430.84224 
L 242.069236 429.93504 
L 238.599491 431.74944 
L 234.764509 431.38656 
L 234.947127 429.39072 
L 238.782109 431.02368 
L 228.190255 424.12896 
L 228.738109 426.66912 
L 225.816218 424.3104 
L 226.181455 425.76192 
L 240.425673 435.74112 
L 239.877818 439.7328 
L 234.764509 435.37824 
L 231.66 435.37824 
L 234.581891 429.20928 
L 228.190255 425.03616 
L 228.920727 426.85056 
L 231.112145 423.76608 
L 233.851418 436.46688 
L 236.773309 443.18016 
L 231.842618 441.36576 
L 218.511491 432.11232 
L 211.937236 429.57216 
L 221.981236 431.93088 
L 221.798618 429.7536 
L 213.215564 421.77024 
L 216.502691 424.12896 
L 222.529091 426.1248 
L 219.059345 421.04448 
L 216.502691 426.30624 
L 212.485091 428.48352 
L 207.919636 423.22176 
L 199.701818 421.95168 
L 204.815127 421.5888 
L 207.006545 418.50432 
L 214.676509 419.23008 
L 223.807418 421.40736 
L 232.025236 431.20512 
L 234.034036 437.9184 
L 226.364073 439.18848 
L 219.972436 427.032 
L 216.685309 419.95584 
L 216.137455 418.32288 
L 218.146255 423.22176 
L 220.885527 420.13728 
L 218.694109 420.31872 
L 225.816218 427.75776 
L 234.216655 438.46272 
L 238.964727 441.36576 
L 232.390473 439.91424 
L 222.163855 433.3824 
L 217.415782 426.48768 
L 224.537891 420.31872 
L 232.938327 424.49184 
L 234.764509 431.93088 
L 232.025236 434.47104 
L 221.616 434.83392 
L 212.302473 433.3824 
L 204.449891 422.496 
L 199.5192 423.22176 
L 202.441091 417.0528 
L 211.572 404.89632 
L 228.372873 401.26752 
L 238.051636 400.7232 
L 240.425673 403.4448 
L 254.122036 413.96832 
L 252.478473 420.86304 
L 246.452073 422.13312 
L 253.939418 417.23424 
L 261.609382 410.52096 
L 258.322255 417.0528 
L 254.122036 419.41152 
L 254.852509 415.60128 
L 248.826109 410.52096 
L 246.817309 410.33952 
L 249.921818 419.41152 
L 246.634691 413.96832 
L 238.234255 408.52512 
L 241.886618 402.35616 
L 252.113236 410.52096 
L 262.339855 423.94752 
L 256.313455 420.6816 
L 248.460873 421.95168 
L 254.122036 425.2176 
L 260.696291 425.39904 
L 252.295855 418.8672 
L 235.494982 403.80768 
L 233.851418 404.89632 
L 241.886618 404.71488 
L 253.939418 415.41984 
L 254.669891 423.4032 
L 254.852509 420.86304 
L 252.478473 415.05696 
L 249.921818 414.69408 
L 257.409164 421.95168 
L 257.409164 426.30624 
L 260.878909 426.48768 
L 245.904218 422.13312 
L 239.147345 413.424 
L 239.6952 409.43232 
L 245.356364 410.88384 
L 241.156145 404.352 
L 236.042836 399.63456 
L 249.373964 411.97248 
L 258.322255 421.40736 
L 251.748 422.67744 
L 237.138545 412.15392 
L 233.6688 395.09856 
L 243.7128 391.28832 
L 259.052727 403.62624 
L 263.618182 417.23424 
L 253.391564 422.85888 
L 252.843709 416.50848 
L 249.7392 415.96416 
L 246.269455 411.06528 
L 243.7128 404.89632 
L 244.260655 399.27168 
L 247.182545 401.08608 
L 257.7744 405.80352 
L 258.139636 407.43648 
L 259.235345 409.25088 
L 255.948218 416.1456 
L 257.957018 417.23424 
L 245.356364 417.41568 
L 240.608291 416.68992 
L 241.338764 416.87136 
L 229.285964 403.98912 
L 226.364073 400.36032 
L 236.773309 402.5376 
L 239.329964 402.35616 
L 245.538982 411.6096 
L 245.356364 412.15392 
L 249.373964 418.32288 
L 251.930618 424.67328 
L 252.113236 424.67328 
L 248.278255 423.76608 
L 244.078036 420.6816 
L 240.608291 421.5888 
L 235.6776 421.22592 
L 226.546691 415.2384 
L 221.981236 405.07776 
L 230.381673 401.08608 
L 237.869018 411.42816 
L 238.051636 415.41984 
L 231.842618 415.78272 
L 233.851418 408.888 
L 233.303564 407.9808 
L 241.156145 409.25088 
L 249.373964 415.2384 
L 251.565382 416.1456 
L 243.7128 413.24256 
L 234.764509 407.43648 
L 239.877818 412.5168 
L 249.373964 413.06112 
L 255.035127 414.3312 
L 261.974618 418.68576 
L 257.7744 418.8672 
L 245.904218 421.22592 
L 227.277164 410.52096 
L 238.964727 409.97664 
L 236.408073 406.89216 
L 234.216655 410.15808 
L 241.521382 413.06112 
L 246.634691 414.69408 
L 242.617091 413.60544 
L 249.556582 411.42816 
L 254.122036 413.60544 
L 260.878909 423.94752 
L 262.887709 425.03616 
L 249.921818 427.9392 
L 245.356364 425.2176 
L 246.086836 425.03616 
L 240.790909 419.41152 
L 228.920727 415.41984 
L 236.225455 415.78272 
L 240.243055 415.60128 
L 240.243055 412.15392 
L 246.999927 413.96832 
L 244.443273 415.78272 
L 241.704 406.71072 
L 240.790909 403.4448 
L 239.147345 406.71072 
L 239.877818 408.34368 
L 238.416873 411.97248 
L 244.260655 414.69408 
L 238.599491 412.15392 
L 236.773309 413.24256 
L 241.156145 415.2384 
L 246.999927 417.23424 
L 244.260655 410.15808 
L 240.060436 410.7024 
L 243.164945 408.16224 
L 241.156145 401.6304 
L 237.321164 403.98912 
L 253.208945 416.68992 
L 256.313455 417.41568 
L 243.347564 416.32704 
L 242.069236 419.7744 
L 238.964727 415.96416 
L 232.938327 406.52928 
L 230.381673 406.34784 
L 244.260655 409.97664 
L 245.7216 412.69824 
L 243.347564 408.16224 
L 237.138545 406.89216 
L 232.207855 404.53344 
L 236.042836 400.17888 
L 244.078036 402.17472 
L 258.322255 413.06112 
L 262.705091 419.7744 
L 255.7656 423.58464 
L 251.930618 427.75776 
L 254.852509 424.49184 
L 248.826109 419.7744 
L 241.886618 415.96416 
L 241.886618 414.14976 
L 247.182545 407.9808 
L 256.496073 403.80768 
L 255.7656 407.25504 
L 248.095636 408.52512 
L 246.269455 405.07776 
L 243.164945 409.43232 
L 243.347564 402.5376 
L 240.973527 404.71488 
L 245.904218 409.06944 
L 248.460873 410.7024 
L 256.313455 413.96832 
L 250.652291 414.3312 
L 253.391564 413.424 
L 252.113236 413.60544 
L 254.487273 410.88384 
L 251.017527 410.7024 
L 239.329964 407.43648 
L 229.468582 402.17472 
L 232.207855 421.95168 
L 235.494982 435.92256 
L 230.564291 435.37824 
L 214.128655 434.2896 
L 209.5632 430.47936 
L 213.032945 430.29792 
L 217.5984 431.38656 
L 219.789818 428.12064 
L 222.346473 435.74112 
L 225.816218 437.19264 
L 222.346473 439.7328 
L 226.364073 439.36992 
L 224.537891 438.09984 
L 214.311273 424.67328 
L 209.928436 420.13728 
L 222.711709 426.30624 
L 228.190255 431.568 
L 224.172655 442.27296 
L 217.963636 440.64 
L 209.928436 430.11648 
L 207.5544 422.13312 
L 209.928436 415.05696 
L 216.867927 420.13728 
L 225.816218 430.11648 
L 227.6424 429.7536 
L 225.085745 432.83808 
L 223.807418 431.568 
L 219.789818 432.11232 
L 218.328873 433.01952 
L 213.946036 427.21344 
L 212.850327 428.48352 
L 224.537891 431.74944 
L 227.094545 430.6608 
L 218.876727 428.8464 
L 218.146255 429.39072 
L 220.155055 433.20096 
L 223.807418 434.10816 
L 221.616 427.57632 
L 229.6512 428.48352 
L 231.294764 429.02784 
L 227.825018 431.568 
L 235.494982 433.56384 
L 232.207855 435.92256 
L 225.268364 429.20928 
L 218.511491 424.49184 
L 222.346473 422.31456 
L 232.390473 421.40736 
L 232.390473 415.96416 
L 229.6512 421.5888 
L 239.877818 427.21344 
L 243.895418 430.29792 
L 240.425673 430.47936 
L 240.608291 436.28544 
L 235.129745 438.28128 
L 228.920727 431.02368 
L 225.816218 423.4032 
L 225.816218 419.59296 
L 227.277164 422.496 
L 230.199055 423.76608 
L 233.851418 426.48768 
L 228.555491 423.76608 
L 225.450982 419.59296 
L 231.66 421.04448 
L 243.347564 418.68576 
L 243.895418 424.67328 
L 243.895418 430.29792 
L 242.069236 429.20928 
L 241.338764 424.12896 
L 236.773309 418.68576 
L 236.042836 423.04032 
L 242.069236 431.38656 
L 253.7568 439.18848 
L 243.347564 441.5472 
L 229.103345 435.1968 
L 223.442182 426.1248 
L 228.007636 423.22176 
L 239.877818 422.67744 
L 247.182545 430.11648 
L 241.886618 435.01536 
L 229.285964 433.3824 
L 224.172655 423.4032 
L 225.998836 415.05696 
L 231.842618 415.05696 
L 236.225455 411.97248 
L 243.895418 415.96416 
L 246.999927 420.6816 
L 259.052727 432.83808 
L 254.487273 433.56384 
L 233.303564 425.76192 
L 233.120945 419.59296 
L 241.886618 419.41152 
L 248.460873 423.4032 
L 255.948218 429.7536 
L 258.139636 428.66496 
L 248.643491 425.39904 
L 244.808509 423.76608 
L 251.565382 417.96 
L 250.104436 417.96 
L 253.574182 422.85888 
L 262.887709 425.76192 
L 266.722691 424.49184 
L 255.217745 425.94336 
L 248.095636 415.78272 
L 256.130836 411.97248 
L 262.705091 412.87968 
L 256.496073 408.70656 
L 259.600582 411.97248 
L 265.261745 417.41568 
L 264.896509 419.23008 
L 265.992218 420.6816 
L 264.531273 416.68992 
L 253.391564 413.24256 
L 257.591782 412.69824 
L 251.748 401.81184 
L 247.182545 387.47808 
L 265.079127 386.208 
L 288.271636 400.54176 
L 292.654473 407.25504 
L 289.732582 411.97248 
L 282.610473 410.33952 
L 275.123127 407.9808 
L 268.914109 397.45728 
L 266.905309 393.28416 
L 275.305745 394.55424 
L 287.541164 398.54592 
L 292.471855 405.44064 
L 285.532364 404.71488 
L 278.045018 402.35616 
L 270.375055 398.72736 
L 271.653382 391.6512 
L 273.479564 389.8368 
L 277.8624 397.82016 
L 285.167127 409.06944 
L 279.8712 402.17472 
L 274.575273 400.90464 
L 276.218836 396.73152 
L 274.940509 396.1872 
L 286.993309 382.5792 
L 282.427855 362.6208 
L 279.688582 354.27456 
L 297.9504 361.7136 
L 315.299127 377.31744 
L 311.281527 385.11936 
L 294.845891 386.208 
L 281.149527 380.94624 
L 274.757891 365.88672 
L 273.114327 358.26624 
L 282.975709 357.54048 
L 297.402545 364.25376 
L 306.168218 378.9504 
L 303.428945 385.48224 
L 287.723782 387.47808 
L 281.514764 392.19552 
L 284.436655 392.01408 
L 289.732582 388.56672 
L 278.592873 383.30496 
L 269.8272 368.60832 
L 270.922909 367.70112 
L 274.392655 362.43936 
L 274.757891 360.62496 
L 276.949309 358.0848 
L 282.793091 369.51552 
L 290.097818 379.49472 
L 304.159418 399.99744 
L 293.9328 399.816 
L 264.713891 377.68032 
L 242.251855 351.91584 
L 252.661091 333.40896 
L 273.296945 337.40064 
L 297.767782 357.72192 
L 310.551055 380.03904 
L 311.464145 395.09856 
L 300.324436 401.26752 
L 273.114327 389.29248 
L 254.852509 370.24128 
L 243.164945 347.56128 
L 242.434473 330.14304 
L 253.391564 331.05024 
L 275.8536 345.20256 
L 294.480655 366.97536 
L 308.177018 384.3936 
L 297.219927 391.10688 
L 275.670982 383.4864 
L 247.182545 349.37568 
L 219.789818 312.54336 
L 213.763418 287.68608 
L 228.190255 287.3232 
L 252.661091 299.66112 
L 270.009818 313.81344 
L 288.454255 343.20672 
L 302.333236 372.78144 
L 318.403636 397.82016 
L 309.090109 394.73568 
L 279.688582 368.064 
L 248.460873 343.38816 
L 230.381673 317.62368 
L 234.034036 294.94368 
L 255.7656 293.6736 
L 277.131927 313.99488 
L 300.689673 343.75104 
L 318.586255 382.21632 
L 320.229818 404.71488 
L 303.063709 406.71072 
L 273.479564 380.03904 
L 239.877818 341.39232 
L 212.302473 296.3952 
L 218.328873 271.35648 
L 244.078036 279.70272 
L 283.158327 309.27744 
L 318.768873 356.2704 
L 340.683055 396.36864 
L 336.1176 416.32704 
L 304.707273 409.7952 
L 264.896509 377.31744 
L 229.285964 333.5904 
L 200.980145 287.3232 
L 194.405891 246.31776 
L 198.240873 225.6336 
L 217.781018 243.41472 
L 257.7744 281.69856 
L 308.359636 337.58208 
L 344.518036 387.1152 
L 348.718255 415.96416 
L 318.768873 416.68992 
L 276.218836 395.46144 
L 243.895418 351.55296 
L 225.268364 300.74976 
L 217.415782 275.71104 
L 230.564291 268.99776 
L 261.792 290.952 
L 310.0032 336.312 
L 352.370618 396.91296 
L 370.449818 441.36576 
L 351.457527 455.33664 
L 303.246327 438.8256 
L 249.191345 392.19552 
L 200.614909 325.78848 
L 180.709527 270.63072 
L 189.4752 238.69728 
L 214.311273 235.24992 
L 237.321164 253.93824 
L 266.357455 290.77056 
L 292.837091 333.5904 
L 308.542255 365.70528 
L 320.777673 381.30912 
L 314.751273 385.11936 
L 301.420145 389.47392 
L 276.036218 376.77312 
L 255.582982 350.10144 
L 247.365164 331.95744 
L 239.329964 315.62784 
L 241.704 301.29408 
L 261.426764 306.19296 
L 284.619273 329.23584 
L 314.568655 352.09728 
L 328.812873 375.50304 
L 318.768873 392.92128 
L 299.411345 383.66784 
L 274.940509 362.98368 
L 243.164945 334.86048 
L 223.076945 309.64032 
L 211.389382 284.78304 
L 221.068145 271.71936 
L 246.999927 280.9728 
L 273.296945 304.74144 
L 298.680873 336.49344 
L 306.350836 362.98368 
L 309.637964 379.49472 
L 309.637964 379.49472 
" clip-path="url(#p5c97087f1c)" style="fill: none; stroke-dasharray: 5.55,2.4; stroke-dashoffset: 0; stroke: #800080; stroke-opacity: 0.7; stroke-width: 1.5"/>
   </g>
   <g id="line2d_30">
    <path d="M 81 77.76 
L 583.2 576.72 
" clip-path="url(#p5c97087f1c)" style="fill: none; stroke: #000000; stroke-width: 1.5; stroke-linecap: square"/>
   </g>
   <g id="line2d_31">
    <path d="M 81 554.04 
L 649 554.04 
" clip-path="url(#p5c97087f1c)" style="fill: none; stroke-dasharray: 9.6,2.4,1.5,2.4; stroke-dashoffset: 0; stroke: #000000; stroke-width: 1.5"/>
   </g>
   <g id="line2d_32">
    <path d="M 103.827273 576.72 
L 103.827273 -1 
" clip-path="url(#p5c97087f1c)" style="fill: none; stroke-dasharray: 9.6,2.4,1.5,2.4; stroke-dashoffset: 0; stroke: #000000; stroke-width: 1.5"/>
   </g>
   <g id="patch_3">
    <path d="M 81 576.72 
L 81 77.76 
" style="fill: none; stroke: #000000; stroke-width: 0.8; stroke-linejoin: miter; stroke-linecap: square"/>
   </g>
   <g id="patch_4">
    <path d="M 583.2 576.72 
L 583.2 77.76 
" style="fill: none; stroke: #000000; stroke-width: 0.8; stroke-linejoin: miter; stroke-linecap: square"/>
   </g>
   <g id="patch_5">
    <path d="M 81 576.72 
L 583.2 576.72 
" style="fill: none; stroke: #000000; stroke-width: 0.8; stroke-linejoin: miter; stroke-linecap: square"/>
   </g>
   <g id="patch_6">
    <path d="M 81 77.76 
L 583.2 77.76 
" style="fill: none; stroke: #000000; stroke-width: 0.8; stroke-linejoin: miter; stroke-linecap: square"/>
   </g>
   <g id="text_15">
    <!-- Phase diagram with an approximate initial 10% predator population -->
    <g transform="translate(128.307188 71.76) scale(0.12 -0.12)">
     <defs>
      <path id="DejaVuSans-68" d="M 3513 2113 
L 3513 0 
L 2938 0 
L 2938 2094 
Q 2938 2591 2744 2837 
Q 2550 3084 2163 3084 
Q 1697 3084 1428 2787 
Q 1159 2491 1159 1978 
L 1159 0 
L 581 0 
L 581 4863 
L 1159 4863 
L 1159 2956 
Q 1366 3272 1645 3428 
Q 1925 3584 2291 3584 
Q 2894 3584 3203 3211 
Q 3513 2838 3513 2113 
z
" transform="scale(0.015625)"/>
      <path id="DejaVuSans-73" d="M 2834 3397 
L 2834 2853 
Q 2591 2978 2328 3040 
Q 2066 3103 1784 3103 
Q 1356 3103 1142 2972 
Q 928 2841 928 2578 
Q 928 2378 1081 2264 
Q 1234 2150 1697 2047 
L 1894 2003 
Q 2506 1872 2764 1633 
Q 3022 1394 3022 966 
Q 3022 478 2636 193 
Q 2250 -91 1575 -91 
Q 1294 -91 989 -36 
Q 684 19 347 128 
L 347 722 
Q 666 556 975 473 
Q 1284 391 1588 391 
Q 1994 391 2212 530 
Q 2431 669 2431 922 
Q 2431 1156 2273 1281 
Q 2116 1406 1581 1522 
L 1381 1569 
Q 847 1681 609 1914 
Q 372 2147 372 2553 
Q 372 3047 722 3315 
Q 1072 3584 1716 3584 
Q 2034 3584 2315 3537 
Q 2597 3491 2834 3397 
z
" transform="scale(0.015625)"/>
      <path id="DejaVuSans-67" d="M 2906 1791 
Q 2906 2416 2648 2759 
Q 2391 3103 1925 3103 
Q 1463 3103 1205 2759 
Q 947 2416 947 1791 
Q 947 1169 1205 825 
Q 1463 481 1925 481 
Q 2391 481 2648 825 
Q 2906 1169 2906 1791 
z
M 3481 434 
Q 3481 -459 3084 -895 
Q 2688 -1331 1869 -1331 
Q 1566 -1331 1297 -1286 
Q 1028 -1241 775 -1147 
L 775 -588 
Q 1028 -725 1275 -790 
Q 1522 -856 1778 -856 
Q 2344 -856 2625 -561 
Q 2906 -266 2906 331 
L 2906 616 
Q 2728 306 2450 153 
Q 2172 0 1784 0 
Q 1141 0 747 490 
Q 353 981 353 1791 
Q 353 2603 747 3093 
Q 1141 3584 1784 3584 
Q 2172 3584 2450 3431 
Q 2728 3278 2906 2969 
L 2906 3500 
L 3481 3500 
L 3481 434 
z
" transform="scale(0.015625)"/>
      <path id="DejaVuSans-6d" d="M 3328 2828 
Q 3544 3216 3844 3400 
Q 4144 3584 4550 3584 
Q 5097 3584 5394 3201 
Q 5691 2819 5691 2113 
L 5691 0 
L 5113 0 
L 5113 2094 
Q 5113 2597 4934 2840 
Q 4756 3084 4391 3084 
Q 3944 3084 3684 2787 
Q 3425 2491 3425 1978 
L 3425 0 
L 2847 0 
L 2847 2094 
Q 2847 2600 2669 2842 
Q 2491 3084 2119 3084 
Q 1678 3084 1418 2786 
Q 1159 2488 1159 1978 
L 1159 0 
L 581 0 
L 581 3500 
L 1159 3500 
L 1159 2956 
Q 1356 3278 1631 3431 
Q 1906 3584 2284 3584 
Q 2666 3584 2933 3390 
Q 3200 3197 3328 2828 
z
" transform="scale(0.015625)"/>
      <path id="DejaVuSans-77" d="M 269 3500 
L 844 3500 
L 1563 769 
L 2278 3500 
L 2956 3500 
L 3675 769 
L 4391 3500 
L 4966 3500 
L 4050 0 
L 3372 0 
L 2619 2869 
L 1863 0 
L 1184 0 
L 269 3500 
z
" transform="scale(0.015625)"/>
      <path id="DejaVuSans-78" d="M 3513 3500 
L 2247 1797 
L 3578 0 
L 2900 0 
L 1881 1375 
L 863 0 
L 184 0 
L 1544 1831 
L 300 3500 
L 978 3500 
L 1906 2253 
L 2834 3500 
L 3513 3500 
z
" transform="scale(0.015625)"/>
      <path id="DejaVuSans-25" d="M 4653 2053 
Q 4381 2053 4226 1822 
Q 4072 1591 4072 1178 
Q 4072 772 4226 539 
Q 4381 306 4653 306 
Q 4919 306 5073 539 
Q 5228 772 5228 1178 
Q 5228 1588 5073 1820 
Q 4919 2053 4653 2053 
z
M 4653 2450 
Q 5147 2450 5437 2106 
Q 5728 1763 5728 1178 
Q 5728 594 5436 251 
Q 5144 -91 4653 -91 
Q 4153 -91 3862 251 
Q 3572 594 3572 1178 
Q 3572 1766 3864 2108 
Q 4156 2450 4653 2450 
z
M 1428 4353 
Q 1159 4353 1004 4120 
Q 850 3888 850 3481 
Q 850 3069 1003 2837 
Q 1156 2606 1428 2606 
Q 1700 2606 1854 2837 
Q 2009 3069 2009 3481 
Q 2009 3884 1853 4118 
Q 1697 4353 1428 4353 
z
M 4250 4750 
L 4750 4750 
L 1831 -91 
L 1331 -91 
L 4250 4750 
z
M 1428 4750 
Q 1922 4750 2215 4408 
Q 2509 4066 2509 3481 
Q 2509 2891 2217 2550 
Q 1925 2209 1428 2209 
Q 931 2209 642 2551 
Q 353 2894 353 3481 
Q 353 4063 643 4406 
Q 934 4750 1428 4750 
z
" transform="scale(0.015625)"/>
     </defs>
     <use xlink:href="#DejaVuSans-50"/>
     <use xlink:href="#DejaVuSans-68" x="60.302734"/>
     <use xlink:href="#DejaVuSans-61" x="123.681641"/>
     <use xlink:href="#DejaVuSans-73" x="184.960938"/>
     <use xlink:href="#DejaVuSans-65" x="237.060547"/>
     <use xlink:href="#DejaVuSans-20" x="298.583984"/>
     <use xlink:href="#DejaVuSans-64" x="330.371094"/>
     <use xlink:href="#DejaVuSans-69" x="393.847656"/>
     <use xlink:href="#DejaVuSans-61" x="421.630859"/>
     <use xlink:href="#DejaVuSans-67" x="482.910156"/>
     <use xlink:href="#DejaVuSans-72" x="546.386719"/>
     <use xlink:href="#DejaVuSans-61" x="587.5"/>
     <use xlink:href="#DejaVuSans-6d" x="648.779297"/>
     <use xlink:href="#DejaVuSans-20" x="746.191406"/>
     <use xlink:href="#DejaVuSans-77" x="777.978516"/>
     <use xlink:href="#DejaVuSans-69" x="859.765625"/>
     <use xlink:href="#DejaVuSans-74" x="887.548828"/>
     <use xlink:href="#DejaVuSans-68" x="926.757812"/>
     <use xlink:href="#DejaVuSans-20" x="990.136719"/>
     <use xlink:href="#DejaVuSans-61" x="1021.923828"/>
     <use xlink:href="#DejaVuSans-6e" x="1083.203125"/>
     <use xlink:href="#DejaVuSans-20" x="1146.582031"/>
     <use xlink:href="#DejaVuSans-61" x="1178.369141"/>
     <use xlink:href="#DejaVuSans-70" x="1239.648438"/>
     <use xlink:href="#DejaVuSans-70" x="1303.125"/>
     <use xlink:href="#DejaVuSans-72" x="1366.601562"/>
     <use xlink:href="#DejaVuSans-6f" x="1405.464844"/>
     <use xlink:href="#DejaVuSans-78" x="1463.521484"/>
     <use xlink:href="#DejaVuSans-69" x="1522.701172"/>
     <use xlink:href="#DejaVuSans-6d" x="1550.484375"/>
     <use xlink:href="#DejaVuSans-61" x="1647.896484"/>
     <use xlink:href="#DejaVuSans-74" x="1709.175781"/>
     <use xlink:href="#DejaVuSans-65" x="1748.384766"/>
     <use xlink:href="#DejaVuSans-20" x="1809.908203"/>
     <use xlink:href="#DejaVuSans-69" x="1841.695312"/>
     <use xlink:href="#DejaVuSans-6e" x="1869.478516"/>
     <use xlink:href="#DejaVuSans-69" x="1932.857422"/>
     <use xlink:href="#DejaVuSans-74" x="1960.640625"/>
     <use xlink:href="#DejaVuSans-69" x="1999.849609"/>
     <use xlink:href="#DejaVuSans-61" x="2027.632812"/>
     <use xlink:href="#DejaVuSans-6c" x="2088.912109"/>
     <use xlink:href="#DejaVuSans-20" x="2116.695312"/>
     <use xlink:href="#DejaVuSans-31" x="2148.482422"/>
     <use xlink:href="#DejaVuSans-30" x="2212.105469"/>
     <use xlink:href="#DejaVuSans-25" x="2275.728516"/>
     <use xlink:href="#DejaVuSans-20" x="2370.748047"/>
     <use xlink:href="#DejaVuSans-70" x="2402.535156"/>
     <use xlink:href="#DejaVuSans-72" x="2466.011719"/>
     <use xlink:href="#DejaVuSans-65" x="2504.875"/>
     <use xlink:href="#DejaVuSans-64" x="2566.398438"/>
     <use xlink:href="#DejaVuSans-61" x="2629.875"/>
     <use xlink:href="#DejaVuSans-74" x="2691.154297"/>
     <use xlink:href="#DejaVuSans-6f" x="2730.363281"/>
     <use xlink:href="#DejaVuSans-72" x="2791.544922"/>
     <use xlink:href="#DejaVuSans-20" x="2832.658203"/>
     <use xlink:href="#DejaVuSans-70" x="2864.445312"/>
     <use xlink:href="#DejaVuSans-6f" x="2927.921875"/>
     <use xlink:href="#DejaVuSans-70" x="2989.103516"/>
     <use xlink:href="#DejaVuSans-75" x="3052.580078"/>
     <use xlink:href="#DejaVuSans-6c" x="3115.958984"/>
     <use xlink:href="#DejaVuSans-61" x="3143.742188"/>
     <use xlink:href="#DejaVuSans-74" x="3205.021484"/>
     <use xlink:href="#DejaVuSans-69" x="3244.230469"/>
     <use xlink:href="#DejaVuSans-6f" x="3272.013672"/>
     <use xlink:href="#DejaVuSans-6e" x="3333.195312"/>
    </g>
   </g>
   <g id="legend_1">
    <g id="patch_7">
     <path d="M 460.1375 115.11625 
L 576.2 115.11625 
Q 578.2 115.11625 578.2 113.11625 
L 578.2 84.76 
Q 578.2 82.76 576.2 82.76 
L 460.1375 82.76 
Q 458.1375 82.76 458.1375 84.76 
L 458.1375 113.11625 
Q 458.1375 115.11625 460.1375 115.11625 
z
" style="fill: #ffffff; opacity: 0.8; stroke: #cccccc; stroke-linejoin: miter"/>
    </g>
    <g id="PathCollection_5">
     <g>
      <use xlink:href="#mc02f6fb2eb" x="472.1375" y="91.733437" style="fill: #0000ff; stroke: #0000ff"/>
     </g>
    </g>
    <g id="text_16">
     <!-- Initial population -->
     <g transform="translate(490.1375 94.358437) scale(0.1 -0.1)">
      <defs>
       <path id="DejaVuSans-49" d="M 628 4666 
L 1259 4666 
L 1259 0 
L 628 0 
L 628 4666 
z
" transform="scale(0.015625)"/>
      </defs>
      <use xlink:href="#DejaVuSans-49"/>
      <use xlink:href="#DejaVuSans-6e" x="29.492188"/>
      <use xlink:href="#DejaVuSans-69" x="92.871094"/>
      <use xlink:href="#DejaVuSans-74" x="120.654297"/>
      <use xlink:href="#DejaVuSans-69" x="159.863281"/>
      <use xlink:href="#DejaVuSans-61" x="187.646484"/>
      <use xlink:href="#DejaVuSans-6c" x="248.925781"/>
      <use xlink:href="#DejaVuSans-20" x="276.708984"/>
      <use xlink:href="#DejaVuSans-70" x="308.496094"/>
      <use xlink:href="#DejaVuSans-6f" x="371.972656"/>
      <use xlink:href="#DejaVuSans-70" x="433.154297"/>
      <use xlink:href="#DejaVuSans-75" x="496.630859"/>
      <use xlink:href="#DejaVuSans-6c" x="560.009766"/>
      <use xlink:href="#DejaVuSans-61" x="587.792969"/>
      <use xlink:href="#DejaVuSans-74" x="649.072266"/>
      <use xlink:href="#DejaVuSans-69" x="688.28125"/>
      <use xlink:href="#DejaVuSans-6f" x="716.064453"/>
      <use xlink:href="#DejaVuSans-6e" x="777.246094"/>
     </g>
    </g>
    <g id="PathCollection_6">
     <g>
      <use xlink:href="#m2b43421a31" x="472.1375" y="106.411562" style="fill: #ff0000; stroke: #ff0000"/>
     </g>
    </g>
    <g id="text_17">
     <!-- Final population -->
     <g transform="translate(490.1375 109.036562) scale(0.1 -0.1)">
      <defs>
       <path id="DejaVuSans-46" d="M 628 4666 
L 3309 4666 
L 3309 4134 
L 1259 4134 
L 1259 2759 
L 3109 2759 
L 3109 2228 
L 1259 2228 
L 1259 0 
L 628 0 
L 628 4666 
z
" transform="scale(0.015625)"/>
      </defs>
      <use xlink:href="#DejaVuSans-46"/>
      <use xlink:href="#DejaVuSans-69" x="50.269531"/>
      <use xlink:href="#DejaVuSans-6e" x="78.052734"/>
      <use xlink:href="#DejaVuSans-61" x="141.431641"/>
      <use xlink:href="#DejaVuSans-6c" x="202.710938"/>
      <use xlink:href="#DejaVuSans-20" x="230.494141"/>
      <use xlink:href="#DejaVuSans-70" x="262.28125"/>
      <use xlink:href="#DejaVuSans-6f" x="325.757812"/>
      <use xlink:href="#DejaVuSans-70" x="386.939453"/>
      <use xlink:href="#DejaVuSans-75" x="450.416016"/>
      <use xlink:href="#DejaVuSans-6c" x="513.794922"/>
      <use xlink:href="#DejaVuSans-61" x="541.578125"/>
      <use xlink:href="#DejaVuSans-74" x="602.857422"/>
      <use xlink:href="#DejaVuSans-69" x="642.066406"/>
      <use xlink:href="#DejaVuSans-6f" x="669.849609"/>
      <use xlink:href="#DejaVuSans-6e" x="731.03125"/>
     </g>
    </g>
   </g>
  </g>
 </g>
 <defs>
  <clipPath id="p5c97087f1c">
   <rect x="81" y="77.76" width="502.2" height="498.96"/>
  </clipPath>
 </defs>
</svg>
