<?xml version="1.0" encoding="utf-8" standalone="no"?>
<!DOCTYPE svg PUBLIC "-//W3C//DTD SVG 1.1//EN"
  "http://www.w3.org/Graphics/SVG/1.1/DTD/svg11.dtd">
<svg xmlns:xlink="http://www.w3.org/1999/xlink" width="648pt" height="648pt" viewBox="0 0 648 648" xmlns="http://www.w3.org/2000/svg" version="1.1">
 <metadata>
  <rdf:RDF xmlns:dc="http://purl.org/dc/elements/1.1/" xmlns:cc="http://creativecommons.org/ns#" xmlns:rdf="http://www.w3.org/1999/02/22-rdf-syntax-ns#">
   <cc:Work>
    <dc:type rdf:resource="http://purl.org/dc/dcmitype/StillImage"/>
    <dc:date>2025-06-09T13:01:53.995323</dc:date>
    <dc:format>image/svg+xml</dc:format>
    <dc:creator>
     <cc:Agent>
      <dc:title>Matplotlib v3.7.0, https://matplotlib.org/</dc:title>
     </cc:Agent>
    </dc:creator>
   </cc:Work>
  </rdf:RDF>
 </metadata>
 <defs>
  <style type="text/css">*{stroke-linejoin: round; stroke-linecap: butt}</style>
 </defs>
 <g id="figure_1">
  <g id="patch_1">
   <path d="M 0 648 
L 648 648 
L 648 0 
L 0 0 
z
" style="fill: #ffffff"/>
  </g>
  <g id="axes_1">
   <g id="patch_2">
    <path d="M 81 576.72 
L 583.2 576.72 
L 583.2 77.76 
L 81 77.76 
z
" style="fill: #ffffff"/>
   </g>
   <g id="PathCollection_1">
    <defs>
     <path id="m4d0ea07f9a" d="M -3.535534 3.535534 
L 3.535534 3.535534 
L 3.535534 -3.535534 
L -3.535534 -3.535534 
z
" style="stroke: #0000ff"/>
    </defs>
    <g clip-path="url(#p82255dcad4)">
     <use xlink:href="#m4d0ea07f9a" x="289.367345" y="465.86016" style="fill: #0000ff; stroke: #0000ff"/>
    </g>
   </g>
   <g id="PathCollection_2">
    <defs>
     <path id="m6751635061" d="M -3.535534 3.535534 
L 3.535534 3.535534 
L 3.535534 -3.535534 
L -3.535534 -3.535534 
z
" style="stroke: #ff0000"/>
    </defs>
    <g clip-path="url(#p82255dcad4)">
     <use xlink:href="#m6751635061" x="261.061527" y="417.77856" style="fill: #ff0000; stroke: #ff0000"/>
    </g>
   </g>
   <g id="PathCollection_3">
    <g clip-path="url(#p82255dcad4)">
     <use xlink:href="#m4d0ea07f9a" x="289.367345" y="465.86016" style="fill: #0000ff; stroke: #0000ff"/>
    </g>
   </g>
   <g id="PathCollection_4">
    <g clip-path="url(#p82255dcad4)">
     <use xlink:href="#m6751635061" x="255.582982" y="424.49184" style="fill: #ff0000; stroke: #ff0000"/>
    </g>
   </g>
   <g id="matplotlib.axis_1">
    <g id="xtick_1">
     <g id="line2d_1">
      <path d="M 103.827273 576.72 
L 103.827273 77.76 
" clip-path="url(#p82255dcad4)" style="fill: none; stroke: #b0b0b0; stroke-width: 0.1; stroke-linecap: square"/>
     </g>
     <g id="line2d_2">
      <defs>
       <path id="md9f3d856d3" d="M 0 0 
L 0 3.5 
" style="stroke: #000000; stroke-width: 0.8"/>
      </defs>
      <g>
       <use xlink:href="#md9f3d856d3" x="103.827273" y="576.72" style="stroke: #000000; stroke-width: 0.8"/>
      </g>
     </g>
     <g id="text_1">
      <!-- 0 -->
      <g transform="translate(100.646023 591.318438) scale(0.1 -0.1)">
       <defs>
        <path id="DejaVuSans-30" d="M 2034 4250 
Q 1547 4250 1301 3770 
Q 1056 3291 1056 2328 
Q 1056 1369 1301 889 
Q 1547 409 2034 409 
Q 2525 409 2770 889 
Q 3016 1369 3016 2328 
Q 3016 3291 2770 3770 
Q 2525 4250 2034 4250 
z
M 2034 4750 
Q 2819 4750 3233 4129 
Q 3647 3509 3647 2328 
Q 3647 1150 3233 529 
Q 2819 -91 2034 -91 
Q 1250 -91 836 529 
Q 422 1150 422 2328 
Q 422 3509 836 4129 
Q 1250 4750 2034 4750 
z
" transform="scale(0.015625)"/>
       </defs>
       <use xlink:href="#DejaVuSans-30"/>
      </g>
     </g>
    </g>
    <g id="xtick_2">
     <g id="line2d_3">
      <path d="M 195.136364 576.72 
L 195.136364 77.76 
" clip-path="url(#p82255dcad4)" style="fill: none; stroke: #b0b0b0; stroke-width: 0.1; stroke-linecap: square"/>
     </g>
     <g id="line2d_4">
      <g>
       <use xlink:href="#md9f3d856d3" x="195.136364" y="576.72" style="stroke: #000000; stroke-width: 0.8"/>
      </g>
     </g>
     <g id="text_2">
      <!-- 500 -->
      <g transform="translate(185.592614 591.318438) scale(0.1 -0.1)">
       <defs>
        <path id="DejaVuSans-35" d="M 691 4666 
L 3169 4666 
L 3169 4134 
L 1269 4134 
L 1269 2991 
Q 1406 3038 1543 3061 
Q 1681 3084 1819 3084 
Q 2600 3084 3056 2656 
Q 3513 2228 3513 1497 
Q 3513 744 3044 326 
Q 2575 -91 1722 -91 
Q 1428 -91 1123 -41 
Q 819 9 494 109 
L 494 744 
Q 775 591 1075 516 
Q 1375 441 1709 441 
Q 2250 441 2565 725 
Q 2881 1009 2881 1497 
Q 2881 1984 2565 2268 
Q 2250 2553 1709 2553 
Q 1456 2553 1204 2497 
Q 953 2441 691 2322 
L 691 4666 
z
" transform="scale(0.015625)"/>
       </defs>
       <use xlink:href="#DejaVuSans-35"/>
       <use xlink:href="#DejaVuSans-30" x="63.623047"/>
       <use xlink:href="#DejaVuSans-30" x="127.246094"/>
      </g>
     </g>
    </g>
    <g id="xtick_3">
     <g id="line2d_5">
      <path d="M 286.445455 576.72 
L 286.445455 77.76 
" clip-path="url(#p82255dcad4)" style="fill: none; stroke: #b0b0b0; stroke-width: 0.1; stroke-linecap: square"/>
     </g>
     <g id="line2d_6">
      <g>
       <use xlink:href="#md9f3d856d3" x="286.445455" y="576.72" style="stroke: #000000; stroke-width: 0.8"/>
      </g>
     </g>
     <g id="text_3">
      <!-- 1000 -->
      <g transform="translate(273.720455 591.318438) scale(0.1 -0.1)">
       <defs>
        <path id="DejaVuSans-31" d="M 794 531 
L 1825 531 
L 1825 4091 
L 703 3866 
L 703 4441 
L 1819 4666 
L 2450 4666 
L 2450 531 
L 3481 531 
L 3481 0 
L 794 0 
L 794 531 
z
" transform="scale(0.015625)"/>
       </defs>
       <use xlink:href="#DejaVuSans-31"/>
       <use xlink:href="#DejaVuSans-30" x="63.623047"/>
       <use xlink:href="#DejaVuSans-30" x="127.246094"/>
       <use xlink:href="#DejaVuSans-30" x="190.869141"/>
      </g>
     </g>
    </g>
    <g id="xtick_4">
     <g id="line2d_7">
      <path d="M 377.754545 576.72 
L 377.754545 77.76 
" clip-path="url(#p82255dcad4)" style="fill: none; stroke: #b0b0b0; stroke-width: 0.1; stroke-linecap: square"/>
     </g>
     <g id="line2d_8">
      <g>
       <use xlink:href="#md9f3d856d3" x="377.754545" y="576.72" style="stroke: #000000; stroke-width: 0.8"/>
      </g>
     </g>
     <g id="text_4">
      <!-- 1500 -->
      <g transform="translate(365.029545 591.318438) scale(0.1 -0.1)">
       <use xlink:href="#DejaVuSans-31"/>
       <use xlink:href="#DejaVuSans-35" x="63.623047"/>
       <use xlink:href="#DejaVuSans-30" x="127.246094"/>
       <use xlink:href="#DejaVuSans-30" x="190.869141"/>
      </g>
     </g>
    </g>
    <g id="xtick_5">
     <g id="line2d_9">
      <path d="M 469.063636 576.72 
L 469.063636 77.76 
" clip-path="url(#p82255dcad4)" style="fill: none; stroke: #b0b0b0; stroke-width: 0.1; stroke-linecap: square"/>
     </g>
     <g id="line2d_10">
      <g>
       <use xlink:href="#md9f3d856d3" x="469.063636" y="576.72" style="stroke: #000000; stroke-width: 0.8"/>
      </g>
     </g>
     <g id="text_5">
      <!-- 2000 -->
      <g transform="translate(456.338636 591.318438) scale(0.1 -0.1)">
       <defs>
        <path id="DejaVuSans-32" d="M 1228 531 
L 3431 531 
L 3431 0 
L 469 0 
L 469 531 
Q 828 903 1448 1529 
Q 2069 2156 2228 2338 
Q 2531 2678 2651 2914 
Q 2772 3150 2772 3378 
Q 2772 3750 2511 3984 
Q 2250 4219 1831 4219 
Q 1534 4219 1204 4116 
Q 875 4013 500 3803 
L 500 4441 
Q 881 4594 1212 4672 
Q 1544 4750 1819 4750 
Q 2544 4750 2975 4387 
Q 3406 4025 3406 3419 
Q 3406 3131 3298 2873 
Q 3191 2616 2906 2266 
Q 2828 2175 2409 1742 
Q 1991 1309 1228 531 
z
" transform="scale(0.015625)"/>
       </defs>
       <use xlink:href="#DejaVuSans-32"/>
       <use xlink:href="#DejaVuSans-30" x="63.623047"/>
       <use xlink:href="#DejaVuSans-30" x="127.246094"/>
       <use xlink:href="#DejaVuSans-30" x="190.869141"/>
      </g>
     </g>
    </g>
    <g id="xtick_6">
     <g id="line2d_11">
      <path d="M 560.372727 576.72 
L 560.372727 77.76 
" clip-path="url(#p82255dcad4)" style="fill: none; stroke: #b0b0b0; stroke-width: 0.1; stroke-linecap: square"/>
     </g>
     <g id="line2d_12">
      <g>
       <use xlink:href="#md9f3d856d3" x="560.372727" y="576.72" style="stroke: #000000; stroke-width: 0.8"/>
      </g>
     </g>
     <g id="text_6">
      <!-- 2500 -->
      <g transform="translate(547.647727 591.318438) scale(0.1 -0.1)">
       <use xlink:href="#DejaVuSans-32"/>
       <use xlink:href="#DejaVuSans-35" x="63.623047"/>
       <use xlink:href="#DejaVuSans-30" x="127.246094"/>
       <use xlink:href="#DejaVuSans-30" x="190.869141"/>
      </g>
     </g>
    </g>
    <g id="text_7">
     <!-- Predator population -->
     <g transform="translate(282.64375 604.996562) scale(0.1 -0.1)">
      <defs>
       <path id="DejaVuSans-50" d="M 1259 4147 
L 1259 2394 
L 2053 2394 
Q 2494 2394 2734 2622 
Q 2975 2850 2975 3272 
Q 2975 3691 2734 3919 
Q 2494 4147 2053 4147 
L 1259 4147 
z
M 628 4666 
L 2053 4666 
Q 2838 4666 3239 4311 
Q 3641 3956 3641 3272 
Q 3641 2581 3239 2228 
Q 2838 1875 2053 1875 
L 1259 1875 
L 1259 0 
L 628 0 
L 628 4666 
z
" transform="scale(0.015625)"/>
       <path id="DejaVuSans-72" d="M 2631 2963 
Q 2534 3019 2420 3045 
Q 2306 3072 2169 3072 
Q 1681 3072 1420 2755 
Q 1159 2438 1159 1844 
L 1159 0 
L 581 0 
L 581 3500 
L 1159 3500 
L 1159 2956 
Q 1341 3275 1631 3429 
Q 1922 3584 2338 3584 
Q 2397 3584 2469 3576 
Q 2541 3569 2628 3553 
L 2631 2963 
z
" transform="scale(0.015625)"/>
       <path id="DejaVuSans-65" d="M 3597 1894 
L 3597 1613 
L 953 1613 
Q 991 1019 1311 708 
Q 1631 397 2203 397 
Q 2534 397 2845 478 
Q 3156 559 3463 722 
L 3463 178 
Q 3153 47 2828 -22 
Q 2503 -91 2169 -91 
Q 1331 -91 842 396 
Q 353 884 353 1716 
Q 353 2575 817 3079 
Q 1281 3584 2069 3584 
Q 2775 3584 3186 3129 
Q 3597 2675 3597 1894 
z
M 3022 2063 
Q 3016 2534 2758 2815 
Q 2500 3097 2075 3097 
Q 1594 3097 1305 2825 
Q 1016 2553 972 2059 
L 3022 2063 
z
" transform="scale(0.015625)"/>
       <path id="DejaVuSans-64" d="M 2906 2969 
L 2906 4863 
L 3481 4863 
L 3481 0 
L 2906 0 
L 2906 525 
Q 2725 213 2448 61 
Q 2172 -91 1784 -91 
Q 1150 -91 751 415 
Q 353 922 353 1747 
Q 353 2572 751 3078 
Q 1150 3584 1784 3584 
Q 2172 3584 2448 3432 
Q 2725 3281 2906 2969 
z
M 947 1747 
Q 947 1113 1208 752 
Q 1469 391 1925 391 
Q 2381 391 2643 752 
Q 2906 1113 2906 1747 
Q 2906 2381 2643 2742 
Q 2381 3103 1925 3103 
Q 1469 3103 1208 2742 
Q 947 2381 947 1747 
z
" transform="scale(0.015625)"/>
       <path id="DejaVuSans-61" d="M 2194 1759 
Q 1497 1759 1228 1600 
Q 959 1441 959 1056 
Q 959 750 1161 570 
Q 1363 391 1709 391 
Q 2188 391 2477 730 
Q 2766 1069 2766 1631 
L 2766 1759 
L 2194 1759 
z
M 3341 1997 
L 3341 0 
L 2766 0 
L 2766 531 
Q 2569 213 2275 61 
Q 1981 -91 1556 -91 
Q 1019 -91 701 211 
Q 384 513 384 1019 
Q 384 1609 779 1909 
Q 1175 2209 1959 2209 
L 2766 2209 
L 2766 2266 
Q 2766 2663 2505 2880 
Q 2244 3097 1772 3097 
Q 1472 3097 1187 3025 
Q 903 2953 641 2809 
L 641 3341 
Q 956 3463 1253 3523 
Q 1550 3584 1831 3584 
Q 2591 3584 2966 3190 
Q 3341 2797 3341 1997 
z
" transform="scale(0.015625)"/>
       <path id="DejaVuSans-74" d="M 1172 4494 
L 1172 3500 
L 2356 3500 
L 2356 3053 
L 1172 3053 
L 1172 1153 
Q 1172 725 1289 603 
Q 1406 481 1766 481 
L 2356 481 
L 2356 0 
L 1766 0 
Q 1100 0 847 248 
Q 594 497 594 1153 
L 594 3053 
L 172 3053 
L 172 3500 
L 594 3500 
L 594 4494 
L 1172 4494 
z
" transform="scale(0.015625)"/>
       <path id="DejaVuSans-6f" d="M 1959 3097 
Q 1497 3097 1228 2736 
Q 959 2375 959 1747 
Q 959 1119 1226 758 
Q 1494 397 1959 397 
Q 2419 397 2687 759 
Q 2956 1122 2956 1747 
Q 2956 2369 2687 2733 
Q 2419 3097 1959 3097 
z
M 1959 3584 
Q 2709 3584 3137 3096 
Q 3566 2609 3566 1747 
Q 3566 888 3137 398 
Q 2709 -91 1959 -91 
Q 1206 -91 779 398 
Q 353 888 353 1747 
Q 353 2609 779 3096 
Q 1206 3584 1959 3584 
z
" transform="scale(0.015625)"/>
       <path id="DejaVuSans-20" transform="scale(0.015625)"/>
       <path id="DejaVuSans-70" d="M 1159 525 
L 1159 -1331 
L 581 -1331 
L 581 3500 
L 1159 3500 
L 1159 2969 
Q 1341 3281 1617 3432 
Q 1894 3584 2278 3584 
Q 2916 3584 3314 3078 
Q 3713 2572 3713 1747 
Q 3713 922 3314 415 
Q 2916 -91 2278 -91 
Q 1894 -91 1617 61 
Q 1341 213 1159 525 
z
M 3116 1747 
Q 3116 2381 2855 2742 
Q 2594 3103 2138 3103 
Q 1681 3103 1420 2742 
Q 1159 2381 1159 1747 
Q 1159 1113 1420 752 
Q 1681 391 2138 391 
Q 2594 391 2855 752 
Q 3116 1113 3116 1747 
z
" transform="scale(0.015625)"/>
       <path id="DejaVuSans-75" d="M 544 1381 
L 544 3500 
L 1119 3500 
L 1119 1403 
Q 1119 906 1312 657 
Q 1506 409 1894 409 
Q 2359 409 2629 706 
Q 2900 1003 2900 1516 
L 2900 3500 
L 3475 3500 
L 3475 0 
L 2900 0 
L 2900 538 
Q 2691 219 2414 64 
Q 2138 -91 1772 -91 
Q 1169 -91 856 284 
Q 544 659 544 1381 
z
M 1991 3584 
L 1991 3584 
z
" transform="scale(0.015625)"/>
       <path id="DejaVuSans-6c" d="M 603 4863 
L 1178 4863 
L 1178 0 
L 603 0 
L 603 4863 
z
" transform="scale(0.015625)"/>
       <path id="DejaVuSans-69" d="M 603 3500 
L 1178 3500 
L 1178 0 
L 603 0 
L 603 3500 
z
M 603 4863 
L 1178 4863 
L 1178 4134 
L 603 4134 
L 603 4863 
z
" transform="scale(0.015625)"/>
       <path id="DejaVuSans-6e" d="M 3513 2113 
L 3513 0 
L 2938 0 
L 2938 2094 
Q 2938 2591 2744 2837 
Q 2550 3084 2163 3084 
Q 1697 3084 1428 2787 
Q 1159 2491 1159 1978 
L 1159 0 
L 581 0 
L 581 3500 
L 1159 3500 
L 1159 2956 
Q 1366 3272 1645 3428 
Q 1925 3584 2291 3584 
Q 2894 3584 3203 3211 
Q 3513 2838 3513 2113 
z
" transform="scale(0.015625)"/>
      </defs>
      <use xlink:href="#DejaVuSans-50"/>
      <use xlink:href="#DejaVuSans-72" x="58.552734"/>
      <use xlink:href="#DejaVuSans-65" x="97.416016"/>
      <use xlink:href="#DejaVuSans-64" x="158.939453"/>
      <use xlink:href="#DejaVuSans-61" x="222.416016"/>
      <use xlink:href="#DejaVuSans-74" x="283.695312"/>
      <use xlink:href="#DejaVuSans-6f" x="322.904297"/>
      <use xlink:href="#DejaVuSans-72" x="384.085938"/>
      <use xlink:href="#DejaVuSans-20" x="425.199219"/>
      <use xlink:href="#DejaVuSans-70" x="456.986328"/>
      <use xlink:href="#DejaVuSans-6f" x="520.462891"/>
      <use xlink:href="#DejaVuSans-70" x="581.644531"/>
      <use xlink:href="#DejaVuSans-75" x="645.121094"/>
      <use xlink:href="#DejaVuSans-6c" x="708.5"/>
      <use xlink:href="#DejaVuSans-61" x="736.283203"/>
      <use xlink:href="#DejaVuSans-74" x="797.5625"/>
      <use xlink:href="#DejaVuSans-69" x="836.771484"/>
      <use xlink:href="#DejaVuSans-6f" x="864.554688"/>
      <use xlink:href="#DejaVuSans-6e" x="925.736328"/>
     </g>
    </g>
   </g>
   <g id="matplotlib.axis_2">
    <g id="ytick_1">
     <g id="line2d_13">
      <path d="M 81 554.04 
L 583.2 554.04 
" clip-path="url(#p82255dcad4)" style="fill: none; stroke: #b0b0b0; stroke-width: 0.1; stroke-linecap: square"/>
     </g>
     <g id="line2d_14">
      <defs>
       <path id="mde6dab5f5f" d="M 0 0 
L -3.5 0 
" style="stroke: #000000; stroke-width: 0.8"/>
      </defs>
      <g>
       <use xlink:href="#mde6dab5f5f" x="81" y="554.04" style="stroke: #000000; stroke-width: 0.8"/>
      </g>
     </g>
     <g id="text_8">
      <!-- 0 -->
      <g transform="translate(67.6375 557.839219) scale(0.1 -0.1)">
       <use xlink:href="#DejaVuSans-30"/>
      </g>
     </g>
    </g>
    <g id="ytick_2">
     <g id="line2d_15">
      <path d="M 81 463.32 
L 583.2 463.32 
" clip-path="url(#p82255dcad4)" style="fill: none; stroke: #b0b0b0; stroke-width: 0.1; stroke-linecap: square"/>
     </g>
     <g id="line2d_16">
      <g>
       <use xlink:href="#mde6dab5f5f" x="81" y="463.32" style="stroke: #000000; stroke-width: 0.8"/>
      </g>
     </g>
     <g id="text_9">
      <!-- 500 -->
      <g transform="translate(54.9125 467.119219) scale(0.1 -0.1)">
       <use xlink:href="#DejaVuSans-35"/>
       <use xlink:href="#DejaVuSans-30" x="63.623047"/>
       <use xlink:href="#DejaVuSans-30" x="127.246094"/>
      </g>
     </g>
    </g>
    <g id="ytick_3">
     <g id="line2d_17">
      <path d="M 81 372.6 
L 583.2 372.6 
" clip-path="url(#p82255dcad4)" style="fill: none; stroke: #b0b0b0; stroke-width: 0.1; stroke-linecap: square"/>
     </g>
     <g id="line2d_18">
      <g>
       <use xlink:href="#mde6dab5f5f" x="81" y="372.6" style="stroke: #000000; stroke-width: 0.8"/>
      </g>
     </g>
     <g id="text_10">
      <!-- 1000 -->
      <g transform="translate(48.55 376.399219) scale(0.1 -0.1)">
       <use xlink:href="#DejaVuSans-31"/>
       <use xlink:href="#DejaVuSans-30" x="63.623047"/>
       <use xlink:href="#DejaVuSans-30" x="127.246094"/>
       <use xlink:href="#DejaVuSans-30" x="190.869141"/>
      </g>
     </g>
    </g>
    <g id="ytick_4">
     <g id="line2d_19">
      <path d="M 81 281.88 
L 583.2 281.88 
" clip-path="url(#p82255dcad4)" style="fill: none; stroke: #b0b0b0; stroke-width: 0.1; stroke-linecap: square"/>
     </g>
     <g id="line2d_20">
      <g>
       <use xlink:href="#mde6dab5f5f" x="81" y="281.88" style="stroke: #000000; stroke-width: 0.8"/>
      </g>
     </g>
     <g id="text_11">
      <!-- 1500 -->
      <g transform="translate(48.55 285.679219) scale(0.1 -0.1)">
       <use xlink:href="#DejaVuSans-31"/>
       <use xlink:href="#DejaVuSans-35" x="63.623047"/>
       <use xlink:href="#DejaVuSans-30" x="127.246094"/>
       <use xlink:href="#DejaVuSans-30" x="190.869141"/>
      </g>
     </g>
    </g>
    <g id="ytick_5">
     <g id="line2d_21">
      <path d="M 81 191.16 
L 583.2 191.16 
" clip-path="url(#p82255dcad4)" style="fill: none; stroke: #b0b0b0; stroke-width: 0.1; stroke-linecap: square"/>
     </g>
     <g id="line2d_22">
      <g>
       <use xlink:href="#mde6dab5f5f" x="81" y="191.16" style="stroke: #000000; stroke-width: 0.8"/>
      </g>
     </g>
     <g id="text_12">
      <!-- 2000 -->
      <g transform="translate(48.55 194.959219) scale(0.1 -0.1)">
       <use xlink:href="#DejaVuSans-32"/>
       <use xlink:href="#DejaVuSans-30" x="63.623047"/>
       <use xlink:href="#DejaVuSans-30" x="127.246094"/>
       <use xlink:href="#DejaVuSans-30" x="190.869141"/>
      </g>
     </g>
    </g>
    <g id="ytick_6">
     <g id="line2d_23">
      <path d="M 81 100.44 
L 583.2 100.44 
" clip-path="url(#p82255dcad4)" style="fill: none; stroke: #b0b0b0; stroke-width: 0.1; stroke-linecap: square"/>
     </g>
     <g id="line2d_24">
      <g>
       <use xlink:href="#mde6dab5f5f" x="81" y="100.44" style="stroke: #000000; stroke-width: 0.8"/>
      </g>
     </g>
     <g id="text_13">
      <!-- 2500 -->
      <g transform="translate(48.55 104.239219) scale(0.1 -0.1)">
       <use xlink:href="#DejaVuSans-32"/>
       <use xlink:href="#DejaVuSans-35" x="63.623047"/>
       <use xlink:href="#DejaVuSans-30" x="127.246094"/>
       <use xlink:href="#DejaVuSans-30" x="190.869141"/>
      </g>
     </g>
    </g>
    <g id="text_14">
     <!-- Prey population -->
     <g transform="translate(42.470312 366.342344) rotate(-90) scale(0.1 -0.1)">
      <defs>
       <path id="DejaVuSans-79" d="M 2059 -325 
Q 1816 -950 1584 -1140 
Q 1353 -1331 966 -1331 
L 506 -1331 
L 506 -850 
L 844 -850 
Q 1081 -850 1212 -737 
Q 1344 -625 1503 -206 
L 1606 56 
L 191 3500 
L 800 3500 
L 1894 763 
L 2988 3500 
L 3597 3500 
L 2059 -325 
z
" transform="scale(0.015625)"/>
      </defs>
      <use xlink:href="#DejaVuSans-50"/>
      <use xlink:href="#DejaVuSans-72" x="58.552734"/>
      <use xlink:href="#DejaVuSans-65" x="97.416016"/>
      <use xlink:href="#DejaVuSans-79" x="158.939453"/>
      <use xlink:href="#DejaVuSans-20" x="218.119141"/>
      <use xlink:href="#DejaVuSans-70" x="249.90625"/>
      <use xlink:href="#DejaVuSans-6f" x="313.382812"/>
      <use xlink:href="#DejaVuSans-70" x="374.564453"/>
      <use xlink:href="#DejaVuSans-75" x="438.041016"/>
      <use xlink:href="#DejaVuSans-6c" x="501.419922"/>
      <use xlink:href="#DejaVuSans-61" x="529.203125"/>
      <use xlink:href="#DejaVuSans-74" x="590.482422"/>
      <use xlink:href="#DejaVuSans-69" x="629.691406"/>
      <use xlink:href="#DejaVuSans-6f" x="657.474609"/>
      <use xlink:href="#DejaVuSans-6e" x="718.65625"/>
     </g>
    </g>
   </g>
   <g id="line2d_25">
    <path d="M 289.367345 465.86016 
L 304.342036 476.20224 
L 277.314545 474.2064 
L 256.678691 480.01248 
L 234.581891 479.6496 
L 213.032945 469.85184 
L 203.5368 461.14272 
L 202.075855 445.176 
L 202.623709 429.93504 
L 201.162764 413.424 
L 215.5896 409.06944 
L 237.503782 416.32704 
L 245.356364 422.13312 
L 239.147345 423.94752 
L 234.764509 419.7744 
L 247.182545 426.66912 
L 261.974618 434.10816 
L 257.591782 434.10816 
L 245.7216 427.75776 
L 242.617091 422.67744 
L 245.904218 419.41152 
L 255.400364 419.04864 
L 262.887709 420.86304 
L 264.713891 426.30624 
L 253.939418 422.13312 
L 248.643491 421.95168 
L 246.999927 418.68576 
L 247.547782 418.32288 
L 244.260655 404.53344 
L 240.973527 402.17472 
L 247.182545 407.0736 
L 248.278255 411.06528 
L 250.469673 415.78272 
L 249.921818 417.77856 
L 254.304655 427.75776 
L 259.052727 436.82976 
L 246.452073 429.93504 
L 241.886618 427.57632 
L 254.304655 420.86304 
L 255.217745 425.39904 
L 256.678691 426.1248 
L 247.547782 417.23424 
L 242.799709 413.24256 
L 248.643491 414.14976 
L 251.200145 421.77024 
L 263.252945 425.76192 
L 260.513673 422.85888 
L 246.086836 412.15392 
L 241.886618 409.97664 
L 254.669891 412.15392 
L 264.166036 426.30624 
L 261.609382 439.18848 
L 251.017527 435.01536 
L 237.503782 426.66912 
L 230.381673 420.13728 
L 238.782109 414.14976 
L 249.7392 416.50848 
L 257.409164 428.12064 
L 252.661091 424.85472 
L 248.460873 419.95584 
L 242.982327 415.2384 
L 246.086836 417.0528 
L 260.513673 413.96832 
L 261.609382 415.78272 
L 261.609382 419.95584 
L 254.304655 419.59296 
L 246.817309 415.96416 
L 249.373964 419.95584 
L 260.148436 430.29792 
L 262.339855 431.74944 
L 254.304655 429.93504 
L 246.452073 420.50016 
L 241.521382 410.33952 
L 241.886618 416.68992 
L 254.122036 421.40736 
L 253.026327 417.0528 
L 253.391564 411.42816 
L 254.304655 412.69824 
L 262.157236 423.04032 
L 264.531273 428.30208 
L 246.452073 422.31456 
L 238.964727 413.06112 
L 237.138545 405.2592 
L 233.6688 405.07776 
L 238.964727 406.71072 
L 251.565382 416.1456 
L 258.504873 422.13312 
L 257.7744 433.01952 
L 251.200145 429.93504 
L 243.895418 429.57216 
L 236.408073 420.31872 
L 238.051636 416.50848 
L 245.173745 414.51264 
L 245.356364 415.2384 
L 244.260655 414.69408 
L 258.139636 421.40736 
L 269.279345 429.7536 
L 266.905309 433.56384 
L 254.669891 425.58048 
L 244.625891 417.59712 
L 243.895418 409.97664 
L 242.617091 406.34784 
L 240.973527 405.62208 
L 246.634691 411.79104 
L 263.252945 420.86304 
L 265.626982 434.2896 
L 252.478473 433.01952 
L 241.338764 423.22176 
L 243.530182 415.41984 
L 246.269455 406.34784 
L 250.287055 409.7952 
L 255.7656 413.06112 
L 261.792 422.13312 
L 259.417964 428.48352 
L 249.008727 423.4032 
L 248.826109 418.68576 
L 248.095636 414.87552 
L 251.565382 420.50016 
L 256.861309 419.41152 
L 254.852509 417.96 
L 245.7216 420.6816 
L 249.191345 417.41568 
L 243.895418 416.50848 
L 240.425673 412.15392 
L 246.086836 413.60544 
L 251.565382 419.95584 
L 255.582982 424.85472 
L 251.382764 423.76608 
L 247.365164 422.85888 
L 245.173745 423.22176 
L 242.251855 418.68576 
L 248.826109 414.51264 
L 251.200145 412.5168 
L 252.113236 417.96 
L 253.391564 421.04448 
L 253.939418 418.68576 
L 265.261745 421.22592 
L 264.166036 422.13312 
L 259.7832 426.1248 
L 256.130836 428.12064 
L 247.365164 423.94752 
L 245.173745 417.41568 
L 245.538982 405.80352 
L 244.808509 409.25088 
L 259.417964 420.50016 
L 279.8712 428.48352 
L 270.375055 434.65248 
L 250.469673 429.20928 
L 244.808509 424.85472 
L 238.416873 417.41568 
L 240.790909 414.87552 
L 249.191345 420.50016 
L 248.643491 417.0528 
L 250.287055 416.87136 
L 250.287055 418.8672 
L 245.538982 417.23424 
L 250.104436 424.3104 
L 252.295855 419.23008 
L 245.904218 418.32288 
L 258.504873 426.30624 
L 253.574182 423.4032 
L 253.7568 428.66496 
L 253.208945 433.92672 
L 243.895418 429.20928 
L 232.207855 414.69408 
L 228.555491 406.71072 
L 235.312364 401.44896 
L 247.913018 407.9808 
L 258.322255 414.3312 
L 260.148436 425.2176 
L 257.409164 432.11232 
L 241.704 425.94336 
L 229.833818 420.86304 
L 243.164945 412.33536 
L 250.834909 412.15392 
L 255.7656 412.69824 
L 261.974618 418.32288 
L 265.8096 426.66912 
L 258.504873 426.30624 
L 248.826109 421.40736 
L 241.338764 421.5888 
L 243.347564 416.1456 
L 244.078036 414.51264 
L 249.008727 415.60128 
L 255.7656 415.60128 
L 256.313455 416.32704 
L 258.322255 416.68992 
L 263.983418 423.4032 
L 267.635782 425.39904 
L 267.270545 430.47936 
L 257.591782 430.84224 
L 240.973527 423.76608 
L 227.825018 413.60544 
L 225.998836 403.98912 
L 230.199055 397.45728 
L 242.251855 404.17056 
L 261.061527 417.77856 
L 261.061527 417.77856 
" clip-path="url(#p82255dcad4)" style="fill: none; stroke-dasharray: 5.55,2.4; stroke-dashoffset: 0; stroke: #008000; stroke-opacity: 0.7; stroke-width: 1.5"/>
   </g>
   <g id="line2d_26">
    <path d="M 81 77.76 
L 583.2 576.72 
" clip-path="url(#p82255dcad4)" style="fill: none; stroke: #000000; stroke-width: 1.5; stroke-linecap: square"/>
   </g>
   <g id="line2d_27">
    <path d="M 81 554.04 
L 649 554.04 
" clip-path="url(#p82255dcad4)" style="fill: none; stroke-dasharray: 9.6,2.4,1.5,2.4; stroke-dashoffset: 0; stroke: #000000; stroke-width: 1.5"/>
   </g>
   <g id="line2d_28">
    <path d="M 103.827273 576.72 
L 103.827273 -1 
" clip-path="url(#p82255dcad4)" style="fill: none; stroke-dasharray: 9.6,2.4,1.5,2.4; stroke-dashoffset: 0; stroke: #000000; stroke-width: 1.5"/>
   </g>
   <g id="line2d_29">
    <path d="M 289.367345 465.86016 
L 303.611564 472.75488 
L 277.497164 472.02912 
L 258.322255 476.38368 
L 236.408073 479.10528 
L 219.972436 475.29504 
L 201.162764 444.2688 
L 199.701818 434.10816 
L 204.997745 423.4032 
L 215.954836 425.2176 
L 230.016436 431.02368 
L 233.486182 433.01952 
L 231.66 427.9392 
L 227.277164 417.77856 
L 228.555491 411.79104 
L 244.443273 421.40736 
L 260.331055 427.75776 
L 256.313455 422.496 
L 248.278255 419.95584 
L 242.434473 415.78272 
L 246.452073 415.41984 
L 253.939418 422.31456 
L 261.426764 423.58464 
L 257.957018 423.4032 
L 250.652291 423.76608 
L 256.496073 422.13312 
L 258.322255 421.22592 
L 249.008727 419.04864 
L 244.260655 413.24256 
L 250.104436 413.24256 
L 240.790909 411.6096 
L 254.304655 417.0528 
L 263.252945 427.75776 
L 258.687491 431.02368 
L 249.921818 434.10816 
L 241.886618 433.01952 
L 232.938327 420.6816 
L 238.416873 407.25504 
L 250.287055 412.5168 
L 263.8008 421.22592 
L 259.052727 429.02784 
L 258.687491 428.8464 
L 252.113236 424.12896 
L 251.748 418.14144 
L 244.991127 414.51264 
L 239.877818 408.70656 
L 241.521382 405.44064 
L 257.591782 412.5168 
L 260.148436 413.06112 
L 248.643491 413.424 
L 252.113236 420.6816 
L 252.843709 419.04864 
L 250.287055 420.50016 
L 251.930618 419.41152 
L 253.391564 420.86304 
L 253.939418 416.68992 
L 260.696291 417.77856 
L 265.079127 418.32288 
L 263.8008 428.30208 
L 251.382764 423.22176 
L 237.503782 417.96 
L 239.147345 417.41568 
L 246.086836 418.32288 
L 253.939418 422.496 
L 256.130836 428.8464 
L 251.200145 429.02784 
L 248.826109 422.67744 
L 240.608291 415.05696 
L 250.834909 411.6096 
L 262.339855 415.96416 
L 265.261745 420.86304 
L 259.052727 424.85472 
L 251.748 420.6816 
L 246.999927 415.05696 
L 247.913018 406.1664 
L 255.217745 409.06944 
L 264.531273 421.5888 
L 258.322255 427.39488 
L 253.574182 423.4032 
L 255.400364 422.13312 
L 259.417964 416.1456 
L 258.687491 420.6816 
L 263.8008 419.23008 
L 252.661091 416.68992 
L 241.156145 411.42816 
L 240.060436 413.24256 
L 245.904218 415.60128 
L 245.904218 412.33536 
L 250.287055 413.06112 
L 252.661091 412.33536 
L 249.7392 410.15808 
L 248.826109 413.24256 
L 250.469673 417.41568 
L 256.313455 426.85056 
L 257.409164 427.21344 
L 255.948218 425.58048 
L 248.643491 422.31456 
L 235.6776 417.77856 
L 233.120945 408.34368 
L 238.416873 408.888 
L 255.948218 419.04864 
L 267.453164 426.85056 
L 255.035127 427.9392 
L 247.365164 422.496 
L 249.7392 416.32704 
L 252.661091 418.8672 
L 248.643491 413.60544 
L 245.173745 416.1456 
L 249.921818 408.888 
L 254.669891 410.15808 
L 262.887709 417.0528 
L 267.635782 419.41152 
L 257.591782 421.22592 
L 253.7568 419.95584 
L 250.652291 419.95584 
L 245.173745 421.04448 
L 246.999927 416.32704 
L 264.896509 426.30624 
L 272.201236 433.01952 
L 255.7656 431.74944 
L 246.999927 415.41984 
L 249.921818 406.89216 
L 263.435564 412.87968 
L 266.357455 419.95584 
L 258.322255 421.22592 
L 253.7568 422.85888 
L 257.043927 426.66912 
L 265.261745 434.10816 
L 265.079127 434.65248 
L 245.173745 425.58048 
L 232.755709 419.7744 
L 235.129745 411.24672 
L 240.973527 412.15392 
L 257.957018 420.31872 
L 260.331055 431.93088 
L 255.948218 433.20096 
L 244.808509 425.2176 
L 236.955927 415.60128 
L 237.503782 409.61376 
L 248.643491 404.352 
L 258.139636 417.23424 
L 268.914109 429.7536 
L 265.261745 432.83808 
L 251.565382 424.49184 
L 236.225455 412.69824 
L 238.782109 409.61376 
L 253.208945 412.69824 
L 255.400364 417.77856 
L 261.061527 421.5888 
L 263.618182 425.03616 
L 257.226545 421.40736 
L 247.547782 412.69824 
L 238.964727 408.52512 
L 238.782109 401.26752 
L 239.877818 406.52928 
L 251.382764 413.96832 
L 255.400364 421.04448 
L 247.182545 428.48352 
L 242.982327 426.85056 
L 239.6952 424.49184 
L 239.512582 421.04448 
L 230.564291 414.87552 
L 226.181455 408.16224 
L 237.869018 407.25504 
L 250.834909 411.06528 
L 251.200145 414.3312 
L 250.104436 414.51264 
L 255.217745 419.23008 
L 259.235345 423.22176 
L 260.696291 425.94336 
L 251.200145 423.94752 
L 248.095636 423.04032 
L 242.799709 416.68992 
L 246.452073 414.69408 
L 253.939418 414.51264 
L 256.678691 416.1456 
L 250.652291 417.96 
L 254.852509 425.39904 
L 250.652291 427.032 
L 244.078036 421.22592 
L 249.191345 415.96416 
L 260.513673 421.40736 
L 262.157236 418.50432 
L 257.591782 425.58048 
L 262.705091 435.01536 
L 259.052727 431.38656 
L 248.460873 427.75776 
L 245.173745 416.50848 
L 247.7304 413.78688 
L 249.373964 405.98496 
L 251.017527 411.42816 
L 252.295855 414.51264 
L 259.600582 420.86304 
L 271.105527 429.20928 
L 271.653382 431.74944 
L 264.348655 434.2896 
L 255.582982 424.49184 
L 255.582982 424.49184 
" clip-path="url(#p82255dcad4)" style="fill: none; stroke-dasharray: 5.55,2.4; stroke-dashoffset: 0; stroke: #800080; stroke-opacity: 0.7; stroke-width: 1.5"/>
   </g>
   <g id="line2d_30">
    <path d="M 81 77.76 
L 583.2 576.72 
" clip-path="url(#p82255dcad4)" style="fill: none; stroke: #000000; stroke-width: 1.5; stroke-linecap: square"/>
   </g>
   <g id="line2d_31">
    <path d="M 81 554.04 
L 649 554.04 
" clip-path="url(#p82255dcad4)" style="fill: none; stroke-dasharray: 9.6,2.4,1.5,2.4; stroke-dashoffset: 0; stroke: #000000; stroke-width: 1.5"/>
   </g>
   <g id="line2d_32">
    <path d="M 103.827273 576.72 
L 103.827273 -1 
" clip-path="url(#p82255dcad4)" style="fill: none; stroke-dasharray: 9.6,2.4,1.5,2.4; stroke-dashoffset: 0; stroke: #000000; stroke-width: 1.5"/>
   </g>
   <g id="patch_3">
    <path d="M 81 576.72 
L 81 77.76 
" style="fill: none; stroke: #000000; stroke-width: 0.8; stroke-linejoin: miter; stroke-linecap: square"/>
   </g>
   <g id="patch_4">
    <path d="M 583.2 576.72 
L 583.2 77.76 
" style="fill: none; stroke: #000000; stroke-width: 0.8; stroke-linejoin: miter; stroke-linecap: square"/>
   </g>
   <g id="patch_5">
    <path d="M 81 576.72 
L 583.2 576.72 
" style="fill: none; stroke: #000000; stroke-width: 0.8; stroke-linejoin: miter; stroke-linecap: square"/>
   </g>
   <g id="patch_6">
    <path d="M 81 77.76 
L 583.2 77.76 
" style="fill: none; stroke: #000000; stroke-width: 0.8; stroke-linejoin: miter; stroke-linecap: square"/>
   </g>
   <g id="text_15">
    <!-- Phase diagram with an approximate initial 40% predator population -->
    <g transform="translate(128.307188 71.76) scale(0.12 -0.12)">
     <defs>
      <path id="DejaVuSans-68" d="M 3513 2113 
L 3513 0 
L 2938 0 
L 2938 2094 
Q 2938 2591 2744 2837 
Q 2550 3084 2163 3084 
Q 1697 3084 1428 2787 
Q 1159 2491 1159 1978 
L 1159 0 
L 581 0 
L 581 4863 
L 1159 4863 
L 1159 2956 
Q 1366 3272 1645 3428 
Q 1925 3584 2291 3584 
Q 2894 3584 3203 3211 
Q 3513 2838 3513 2113 
z
" transform="scale(0.015625)"/>
      <path id="DejaVuSans-73" d="M 2834 3397 
L 2834 2853 
Q 2591 2978 2328 3040 
Q 2066 3103 1784 3103 
Q 1356 3103 1142 2972 
Q 928 2841 928 2578 
Q 928 2378 1081 2264 
Q 1234 2150 1697 2047 
L 1894 2003 
Q 2506 1872 2764 1633 
Q 3022 1394 3022 966 
Q 3022 478 2636 193 
Q 2250 -91 1575 -91 
Q 1294 -91 989 -36 
Q 684 19 347 128 
L 347 722 
Q 666 556 975 473 
Q 1284 391 1588 391 
Q 1994 391 2212 530 
Q 2431 669 2431 922 
Q 2431 1156 2273 1281 
Q 2116 1406 1581 1522 
L 1381 1569 
Q 847 1681 609 1914 
Q 372 2147 372 2553 
Q 372 3047 722 3315 
Q 1072 3584 1716 3584 
Q 2034 3584 2315 3537 
Q 2597 3491 2834 3397 
z
" transform="scale(0.015625)"/>
      <path id="DejaVuSans-67" d="M 2906 1791 
Q 2906 2416 2648 2759 
Q 2391 3103 1925 3103 
Q 1463 3103 1205 2759 
Q 947 2416 947 1791 
Q 947 1169 1205 825 
Q 1463 481 1925 481 
Q 2391 481 2648 825 
Q 2906 1169 2906 1791 
z
M 3481 434 
Q 3481 -459 3084 -895 
Q 2688 -1331 1869 -1331 
Q 1566 -1331 1297 -1286 
Q 1028 -1241 775 -1147 
L 775 -588 
Q 1028 -725 1275 -790 
Q 1522 -856 1778 -856 
Q 2344 -856 2625 -561 
Q 2906 -266 2906 331 
L 2906 616 
Q 2728 306 2450 153 
Q 2172 0 1784 0 
Q 1141 0 747 490 
Q 353 981 353 1791 
Q 353 2603 747 3093 
Q 1141 3584 1784 3584 
Q 2172 3584 2450 3431 
Q 2728 3278 2906 2969 
L 2906 3500 
L 3481 3500 
L 3481 434 
z
" transform="scale(0.015625)"/>
      <path id="DejaVuSans-6d" d="M 3328 2828 
Q 3544 3216 3844 3400 
Q 4144 3584 4550 3584 
Q 5097 3584 5394 3201 
Q 5691 2819 5691 2113 
L 5691 0 
L 5113 0 
L 5113 2094 
Q 5113 2597 4934 2840 
Q 4756 3084 4391 3084 
Q 3944 3084 3684 2787 
Q 3425 2491 3425 1978 
L 3425 0 
L 2847 0 
L 2847 2094 
Q 2847 2600 2669 2842 
Q 2491 3084 2119 3084 
Q 1678 3084 1418 2786 
Q 1159 2488 1159 1978 
L 1159 0 
L 581 0 
L 581 3500 
L 1159 3500 
L 1159 2956 
Q 1356 3278 1631 3431 
Q 1906 3584 2284 3584 
Q 2666 3584 2933 3390 
Q 3200 3197 3328 2828 
z
" transform="scale(0.015625)"/>
      <path id="DejaVuSans-77" d="M 269 3500 
L 844 3500 
L 1563 769 
L 2278 3500 
L 2956 3500 
L 3675 769 
L 4391 3500 
L 4966 3500 
L 4050 0 
L 3372 0 
L 2619 2869 
L 1863 0 
L 1184 0 
L 269 3500 
z
" transform="scale(0.015625)"/>
      <path id="DejaVuSans-78" d="M 3513 3500 
L 2247 1797 
L 3578 0 
L 2900 0 
L 1881 1375 
L 863 0 
L 184 0 
L 1544 1831 
L 300 3500 
L 978 3500 
L 1906 2253 
L 2834 3500 
L 3513 3500 
z
" transform="scale(0.015625)"/>
      <path id="DejaVuSans-34" d="M 2419 4116 
L 825 1625 
L 2419 1625 
L 2419 4116 
z
M 2253 4666 
L 3047 4666 
L 3047 1625 
L 3713 1625 
L 3713 1100 
L 3047 1100 
L 3047 0 
L 2419 0 
L 2419 1100 
L 313 1100 
L 313 1709 
L 2253 4666 
z
" transform="scale(0.015625)"/>
      <path id="DejaVuSans-25" d="M 4653 2053 
Q 4381 2053 4226 1822 
Q 4072 1591 4072 1178 
Q 4072 772 4226 539 
Q 4381 306 4653 306 
Q 4919 306 5073 539 
Q 5228 772 5228 1178 
Q 5228 1588 5073 1820 
Q 4919 2053 4653 2053 
z
M 4653 2450 
Q 5147 2450 5437 2106 
Q 5728 1763 5728 1178 
Q 5728 594 5436 251 
Q 5144 -91 4653 -91 
Q 4153 -91 3862 251 
Q 3572 594 3572 1178 
Q 3572 1766 3864 2108 
Q 4156 2450 4653 2450 
z
M 1428 4353 
Q 1159 4353 1004 4120 
Q 850 3888 850 3481 
Q 850 3069 1003 2837 
Q 1156 2606 1428 2606 
Q 1700 2606 1854 2837 
Q 2009 3069 2009 3481 
Q 2009 3884 1853 4118 
Q 1697 4353 1428 4353 
z
M 4250 4750 
L 4750 4750 
L 1831 -91 
L 1331 -91 
L 4250 4750 
z
M 1428 4750 
Q 1922 4750 2215 4408 
Q 2509 4066 2509 3481 
Q 2509 2891 2217 2550 
Q 1925 2209 1428 2209 
Q 931 2209 642 2551 
Q 353 2894 353 3481 
Q 353 4063 643 4406 
Q 934 4750 1428 4750 
z
" transform="scale(0.015625)"/>
     </defs>
     <use xlink:href="#DejaVuSans-50"/>
     <use xlink:href="#DejaVuSans-68" x="60.302734"/>
     <use xlink:href="#DejaVuSans-61" x="123.681641"/>
     <use xlink:href="#DejaVuSans-73" x="184.960938"/>
     <use xlink:href="#DejaVuSans-65" x="237.060547"/>
     <use xlink:href="#DejaVuSans-20" x="298.583984"/>
     <use xlink:href="#DejaVuSans-64" x="330.371094"/>
     <use xlink:href="#DejaVuSans-69" x="393.847656"/>
     <use xlink:href="#DejaVuSans-61" x="421.630859"/>
     <use xlink:href="#DejaVuSans-67" x="482.910156"/>
     <use xlink:href="#DejaVuSans-72" x="546.386719"/>
     <use xlink:href="#DejaVuSans-61" x="587.5"/>
     <use xlink:href="#DejaVuSans-6d" x="648.779297"/>
     <use xlink:href="#DejaVuSans-20" x="746.191406"/>
     <use xlink:href="#DejaVuSans-77" x="777.978516"/>
     <use xlink:href="#DejaVuSans-69" x="859.765625"/>
     <use xlink:href="#DejaVuSans-74" x="887.548828"/>
     <use xlink:href="#DejaVuSans-68" x="926.757812"/>
     <use xlink:href="#DejaVuSans-20" x="990.136719"/>
     <use xlink:href="#DejaVuSans-61" x="1021.923828"/>
     <use xlink:href="#DejaVuSans-6e" x="1083.203125"/>
     <use xlink:href="#DejaVuSans-20" x="1146.582031"/>
     <use xlink:href="#DejaVuSans-61" x="1178.369141"/>
     <use xlink:href="#DejaVuSans-70" x="1239.648438"/>
     <use xlink:href="#DejaVuSans-70" x="1303.125"/>
     <use xlink:href="#DejaVuSans-72" x="1366.601562"/>
     <use xlink:href="#DejaVuSans-6f" x="1405.464844"/>
     <use xlink:href="#DejaVuSans-78" x="1463.521484"/>
     <use xlink:href="#DejaVuSans-69" x="1522.701172"/>
     <use xlink:href="#DejaVuSans-6d" x="1550.484375"/>
     <use xlink:href="#DejaVuSans-61" x="1647.896484"/>
     <use xlink:href="#DejaVuSans-74" x="1709.175781"/>
     <use xlink:href="#DejaVuSans-65" x="1748.384766"/>
     <use xlink:href="#DejaVuSans-20" x="1809.908203"/>
     <use xlink:href="#DejaVuSans-69" x="1841.695312"/>
     <use xlink:href="#DejaVuSans-6e" x="1869.478516"/>
     <use xlink:href="#DejaVuSans-69" x="1932.857422"/>
     <use xlink:href="#DejaVuSans-74" x="1960.640625"/>
     <use xlink:href="#DejaVuSans-69" x="1999.849609"/>
     <use xlink:href="#DejaVuSans-61" x="2027.632812"/>
     <use xlink:href="#DejaVuSans-6c" x="2088.912109"/>
     <use xlink:href="#DejaVuSans-20" x="2116.695312"/>
     <use xlink:href="#DejaVuSans-34" x="2148.482422"/>
     <use xlink:href="#DejaVuSans-30" x="2212.105469"/>
     <use xlink:href="#DejaVuSans-25" x="2275.728516"/>
     <use xlink:href="#DejaVuSans-20" x="2370.748047"/>
     <use xlink:href="#DejaVuSans-70" x="2402.535156"/>
     <use xlink:href="#DejaVuSans-72" x="2466.011719"/>
     <use xlink:href="#DejaVuSans-65" x="2504.875"/>
     <use xlink:href="#DejaVuSans-64" x="2566.398438"/>
     <use xlink:href="#DejaVuSans-61" x="2629.875"/>
     <use xlink:href="#DejaVuSans-74" x="2691.154297"/>
     <use xlink:href="#DejaVuSans-6f" x="2730.363281"/>
     <use xlink:href="#DejaVuSans-72" x="2791.544922"/>
     <use xlink:href="#DejaVuSans-20" x="2832.658203"/>
     <use xlink:href="#DejaVuSans-70" x="2864.445312"/>
     <use xlink:href="#DejaVuSans-6f" x="2927.921875"/>
     <use xlink:href="#DejaVuSans-70" x="2989.103516"/>
     <use xlink:href="#DejaVuSans-75" x="3052.580078"/>
     <use xlink:href="#DejaVuSans-6c" x="3115.958984"/>
     <use xlink:href="#DejaVuSans-61" x="3143.742188"/>
     <use xlink:href="#DejaVuSans-74" x="3205.021484"/>
     <use xlink:href="#DejaVuSans-69" x="3244.230469"/>
     <use xlink:href="#DejaVuSans-6f" x="3272.013672"/>
     <use xlink:href="#DejaVuSans-6e" x="3333.195312"/>
    </g>
   </g>
   <g id="legend_1">
    <g id="patch_7">
     <path d="M 460.1375 115.11625 
L 576.2 115.11625 
Q 578.2 115.11625 578.2 113.11625 
L 578.2 84.76 
Q 578.2 82.76 576.2 82.76 
L 460.1375 82.76 
Q 458.1375 82.76 458.1375 84.76 
L 458.1375 113.11625 
Q 458.1375 115.11625 460.1375 115.11625 
z
" style="fill: #ffffff; opacity: 0.8; stroke: #cccccc; stroke-linejoin: miter"/>
    </g>
    <g id="PathCollection_5">
     <g>
      <use xlink:href="#m4d0ea07f9a" x="472.1375" y="91.733437" style="fill: #0000ff; stroke: #0000ff"/>
     </g>
    </g>
    <g id="text_16">
     <!-- Initial population -->
     <g transform="translate(490.1375 94.358437) scale(0.1 -0.1)">
      <defs>
       <path id="DejaVuSans-49" d="M 628 4666 
L 1259 4666 
L 1259 0 
L 628 0 
L 628 4666 
z
" transform="scale(0.015625)"/>
      </defs>
      <use xlink:href="#DejaVuSans-49"/>
      <use xlink:href="#DejaVuSans-6e" x="29.492188"/>
      <use xlink:href="#DejaVuSans-69" x="92.871094"/>
      <use xlink:href="#DejaVuSans-74" x="120.654297"/>
      <use xlink:href="#DejaVuSans-69" x="159.863281"/>
      <use xlink:href="#DejaVuSans-61" x="187.646484"/>
      <use xlink:href="#DejaVuSans-6c" x="248.925781"/>
      <use xlink:href="#DejaVuSans-20" x="276.708984"/>
      <use xlink:href="#DejaVuSans-70" x="308.496094"/>
      <use xlink:href="#DejaVuSans-6f" x="371.972656"/>
      <use xlink:href="#DejaVuSans-70" x="433.154297"/>
      <use xlink:href="#DejaVuSans-75" x="496.630859"/>
      <use xlink:href="#DejaVuSans-6c" x="560.009766"/>
      <use xlink:href="#DejaVuSans-61" x="587.792969"/>
      <use xlink:href="#DejaVuSans-74" x="649.072266"/>
      <use xlink:href="#DejaVuSans-69" x="688.28125"/>
      <use xlink:href="#DejaVuSans-6f" x="716.064453"/>
      <use xlink:href="#DejaVuSans-6e" x="777.246094"/>
     </g>
    </g>
    <g id="PathCollection_6">
     <g>
      <use xlink:href="#m6751635061" x="472.1375" y="106.411562" style="fill: #ff0000; stroke: #ff0000"/>
     </g>
    </g>
    <g id="text_17">
     <!-- Final population -->
     <g transform="translate(490.1375 109.036562) scale(0.1 -0.1)">
      <defs>
       <path id="DejaVuSans-46" d="M 628 4666 
L 3309 4666 
L 3309 4134 
L 1259 4134 
L 1259 2759 
L 3109 2759 
L 3109 2228 
L 1259 2228 
L 1259 0 
L 628 0 
L 628 4666 
z
" transform="scale(0.015625)"/>
      </defs>
      <use xlink:href="#DejaVuSans-46"/>
      <use xlink:href="#DejaVuSans-69" x="50.269531"/>
      <use xlink:href="#DejaVuSans-6e" x="78.052734"/>
      <use xlink:href="#DejaVuSans-61" x="141.431641"/>
      <use xlink:href="#DejaVuSans-6c" x="202.710938"/>
      <use xlink:href="#DejaVuSans-20" x="230.494141"/>
      <use xlink:href="#DejaVuSans-70" x="262.28125"/>
      <use xlink:href="#DejaVuSans-6f" x="325.757812"/>
      <use xlink:href="#DejaVuSans-70" x="386.939453"/>
      <use xlink:href="#DejaVuSans-75" x="450.416016"/>
      <use xlink:href="#DejaVuSans-6c" x="513.794922"/>
      <use xlink:href="#DejaVuSans-61" x="541.578125"/>
      <use xlink:href="#DejaVuSans-74" x="602.857422"/>
      <use xlink:href="#DejaVuSans-69" x="642.066406"/>
      <use xlink:href="#DejaVuSans-6f" x="669.849609"/>
      <use xlink:href="#DejaVuSans-6e" x="731.03125"/>
     </g>
    </g>
   </g>
  </g>
 </g>
 <defs>
  <clipPath id="p82255dcad4">
   <rect x="81" y="77.76" width="502.2" height="498.96"/>
  </clipPath>
 </defs>
</svg>
