<?xml version="1.0" encoding="utf-8" standalone="no"?>
<!DOCTYPE svg PUBLIC "-//W3C//DTD SVG 1.1//EN"
  "http://www.w3.org/Graphics/SVG/1.1/DTD/svg11.dtd">
<svg xmlns:xlink="http://www.w3.org/1999/xlink" width="1440pt" height="648pt" viewBox="0 0 1440 648" xmlns="http://www.w3.org/2000/svg" version="1.1">
 <metadata>
  <rdf:RDF xmlns:dc="http://purl.org/dc/elements/1.1/" xmlns:cc="http://creativecommons.org/ns#" xmlns:rdf="http://www.w3.org/1999/02/22-rdf-syntax-ns#">
   <cc:Work>
    <dc:type rdf:resource="http://purl.org/dc/dcmitype/StillImage"/>
    <dc:date>2025-06-09T12:58:34.008277</dc:date>
    <dc:format>image/svg+xml</dc:format>
    <dc:creator>
     <cc:Agent>
      <dc:title>Matplotlib v3.7.0, https://matplotlib.org/</dc:title>
     </cc:Agent>
    </dc:creator>
   </cc:Work>
  </rdf:RDF>
 </metadata>
 <defs>
  <style type="text/css">*{stroke-linejoin: round; stroke-linecap: butt}</style>
 </defs>
 <g id="figure_1">
  <g id="patch_1">
   <path d="M 0 648 
L 1440 648 
L 1440 0 
L 0 0 
z
" style="fill: #ffffff"/>
  </g>
  <g id="axes_1">
   <g id="patch_2">
    <path d="M 180 576.72 
L 1296 576.72 
L 1296 77.76 
L 180 77.76 
z
" style="fill: #ffffff"/>
   </g>
   <g id="matplotlib.axis_1">
    <g id="xtick_1">
     <g id="line2d_1">
      <defs>
       <path id="m2301f102d3" d="M 0 0 
L 0 3.5 
" style="stroke: #000000; stroke-width: 0.8"/>
      </defs>
      <g>
       <use xlink:href="#m2301f102d3" x="230.727273" y="576.72" style="stroke: #000000; stroke-width: 0.8"/>
      </g>
     </g>
     <g id="text_1">
      <!-- 0 -->
      <g transform="translate(227.546023 591.318438) scale(0.1 -0.1)">
       <defs>
        <path id="DejaVuSans-30" d="M 2034 4250 
Q 1547 4250 1301 3770 
Q 1056 3291 1056 2328 
Q 1056 1369 1301 889 
Q 1547 409 2034 409 
Q 2525 409 2770 889 
Q 3016 1369 3016 2328 
Q 3016 3291 2770 3770 
Q 2525 4250 2034 4250 
z
M 2034 4750 
Q 2819 4750 3233 4129 
Q 3647 3509 3647 2328 
Q 3647 1150 3233 529 
Q 2819 -91 2034 -91 
Q 1250 -91 836 529 
Q 422 1150 422 2328 
Q 422 3509 836 4129 
Q 1250 4750 2034 4750 
z
" transform="scale(0.015625)"/>
       </defs>
       <use xlink:href="#DejaVuSans-30"/>
      </g>
     </g>
    </g>
    <g id="xtick_2">
     <g id="line2d_2">
      <g>
       <use xlink:href="#m2301f102d3" x="358.182732" y="576.72" style="stroke: #000000; stroke-width: 0.8"/>
      </g>
     </g>
     <g id="text_2">
      <!-- 25 -->
      <g transform="translate(351.820232 591.318438) scale(0.1 -0.1)">
       <defs>
        <path id="DejaVuSans-32" d="M 1228 531 
L 3431 531 
L 3431 0 
L 469 0 
L 469 531 
Q 828 903 1448 1529 
Q 2069 2156 2228 2338 
Q 2531 2678 2651 2914 
Q 2772 3150 2772 3378 
Q 2772 3750 2511 3984 
Q 2250 4219 1831 4219 
Q 1534 4219 1204 4116 
Q 875 4013 500 3803 
L 500 4441 
Q 881 4594 1212 4672 
Q 1544 4750 1819 4750 
Q 2544 4750 2975 4387 
Q 3406 4025 3406 3419 
Q 3406 3131 3298 2873 
Q 3191 2616 2906 2266 
Q 2828 2175 2409 1742 
Q 1991 1309 1228 531 
z
" transform="scale(0.015625)"/>
        <path id="DejaVuSans-35" d="M 691 4666 
L 3169 4666 
L 3169 4134 
L 1269 4134 
L 1269 2991 
Q 1406 3038 1543 3061 
Q 1681 3084 1819 3084 
Q 2600 3084 3056 2656 
Q 3513 2228 3513 1497 
Q 3513 744 3044 326 
Q 2575 -91 1722 -91 
Q 1428 -91 1123 -41 
Q 819 9 494 109 
L 494 744 
Q 775 591 1075 516 
Q 1375 441 1709 441 
Q 2250 441 2565 725 
Q 2881 1009 2881 1497 
Q 2881 1984 2565 2268 
Q 2250 2553 1709 2553 
Q 1456 2553 1204 2497 
Q 953 2441 691 2322 
L 691 4666 
z
" transform="scale(0.015625)"/>
       </defs>
       <use xlink:href="#DejaVuSans-32"/>
       <use xlink:href="#DejaVuSans-35" x="63.623047"/>
      </g>
     </g>
    </g>
    <g id="xtick_3">
     <g id="line2d_3">
      <g>
       <use xlink:href="#m2301f102d3" x="485.638191" y="576.72" style="stroke: #000000; stroke-width: 0.8"/>
      </g>
     </g>
     <g id="text_3">
      <!-- 50 -->
      <g transform="translate(479.275691 591.318438) scale(0.1 -0.1)">
       <use xlink:href="#DejaVuSans-35"/>
       <use xlink:href="#DejaVuSans-30" x="63.623047"/>
      </g>
     </g>
    </g>
    <g id="xtick_4">
     <g id="line2d_4">
      <g>
       <use xlink:href="#m2301f102d3" x="613.09365" y="576.72" style="stroke: #000000; stroke-width: 0.8"/>
      </g>
     </g>
     <g id="text_4">
      <!-- 75 -->
      <g transform="translate(606.73115 591.318438) scale(0.1 -0.1)">
       <defs>
        <path id="DejaVuSans-37" d="M 525 4666 
L 3525 4666 
L 3525 4397 
L 1831 0 
L 1172 0 
L 2766 4134 
L 525 4134 
L 525 4666 
z
" transform="scale(0.015625)"/>
       </defs>
       <use xlink:href="#DejaVuSans-37"/>
       <use xlink:href="#DejaVuSans-35" x="63.623047"/>
      </g>
     </g>
    </g>
    <g id="xtick_5">
     <g id="line2d_5">
      <g>
       <use xlink:href="#m2301f102d3" x="740.549109" y="576.72" style="stroke: #000000; stroke-width: 0.8"/>
      </g>
     </g>
     <g id="text_5">
      <!-- 100 -->
      <g transform="translate(731.005359 591.318438) scale(0.1 -0.1)">
       <defs>
        <path id="DejaVuSans-31" d="M 794 531 
L 1825 531 
L 1825 4091 
L 703 3866 
L 703 4441 
L 1819 4666 
L 2450 4666 
L 2450 531 
L 3481 531 
L 3481 0 
L 794 0 
L 794 531 
z
" transform="scale(0.015625)"/>
       </defs>
       <use xlink:href="#DejaVuSans-31"/>
       <use xlink:href="#DejaVuSans-30" x="63.623047"/>
       <use xlink:href="#DejaVuSans-30" x="127.246094"/>
      </g>
     </g>
    </g>
    <g id="xtick_6">
     <g id="line2d_6">
      <g>
       <use xlink:href="#m2301f102d3" x="868.004568" y="576.72" style="stroke: #000000; stroke-width: 0.8"/>
      </g>
     </g>
     <g id="text_6">
      <!-- 125 -->
      <g transform="translate(858.460818 591.318438) scale(0.1 -0.1)">
       <use xlink:href="#DejaVuSans-31"/>
       <use xlink:href="#DejaVuSans-32" x="63.623047"/>
       <use xlink:href="#DejaVuSans-35" x="127.246094"/>
      </g>
     </g>
    </g>
    <g id="xtick_7">
     <g id="line2d_7">
      <g>
       <use xlink:href="#m2301f102d3" x="995.460027" y="576.72" style="stroke: #000000; stroke-width: 0.8"/>
      </g>
     </g>
     <g id="text_7">
      <!-- 150 -->
      <g transform="translate(985.916277 591.318438) scale(0.1 -0.1)">
       <use xlink:href="#DejaVuSans-31"/>
       <use xlink:href="#DejaVuSans-35" x="63.623047"/>
       <use xlink:href="#DejaVuSans-30" x="127.246094"/>
      </g>
     </g>
    </g>
    <g id="xtick_8">
     <g id="line2d_8">
      <g>
       <use xlink:href="#m2301f102d3" x="1122.915487" y="576.72" style="stroke: #000000; stroke-width: 0.8"/>
      </g>
     </g>
     <g id="text_8">
      <!-- 175 -->
      <g transform="translate(1113.371737 591.318438) scale(0.1 -0.1)">
       <use xlink:href="#DejaVuSans-31"/>
       <use xlink:href="#DejaVuSans-37" x="63.623047"/>
       <use xlink:href="#DejaVuSans-35" x="127.246094"/>
      </g>
     </g>
    </g>
    <g id="xtick_9">
     <g id="line2d_9">
      <g>
       <use xlink:href="#m2301f102d3" x="1250.370946" y="576.72" style="stroke: #000000; stroke-width: 0.8"/>
      </g>
     </g>
     <g id="text_9">
      <!-- 200 -->
      <g transform="translate(1240.827196 591.318438) scale(0.1 -0.1)">
       <use xlink:href="#DejaVuSans-32"/>
       <use xlink:href="#DejaVuSans-30" x="63.623047"/>
       <use xlink:href="#DejaVuSans-30" x="127.246094"/>
      </g>
     </g>
    </g>
    <g id="text_10">
     <!-- Days -->
     <g transform="translate(725.521875 604.996562) scale(0.1 -0.1)">
      <defs>
       <path id="DejaVuSans-44" d="M 1259 4147 
L 1259 519 
L 2022 519 
Q 2988 519 3436 956 
Q 3884 1394 3884 2338 
Q 3884 3275 3436 3711 
Q 2988 4147 2022 4147 
L 1259 4147 
z
M 628 4666 
L 1925 4666 
Q 3281 4666 3915 4102 
Q 4550 3538 4550 2338 
Q 4550 1131 3912 565 
Q 3275 0 1925 0 
L 628 0 
L 628 4666 
z
" transform="scale(0.015625)"/>
       <path id="DejaVuSans-61" d="M 2194 1759 
Q 1497 1759 1228 1600 
Q 959 1441 959 1056 
Q 959 750 1161 570 
Q 1363 391 1709 391 
Q 2188 391 2477 730 
Q 2766 1069 2766 1631 
L 2766 1759 
L 2194 1759 
z
M 3341 1997 
L 3341 0 
L 2766 0 
L 2766 531 
Q 2569 213 2275 61 
Q 1981 -91 1556 -91 
Q 1019 -91 701 211 
Q 384 513 384 1019 
Q 384 1609 779 1909 
Q 1175 2209 1959 2209 
L 2766 2209 
L 2766 2266 
Q 2766 2663 2505 2880 
Q 2244 3097 1772 3097 
Q 1472 3097 1187 3025 
Q 903 2953 641 2809 
L 641 3341 
Q 956 3463 1253 3523 
Q 1550 3584 1831 3584 
Q 2591 3584 2966 3190 
Q 3341 2797 3341 1997 
z
" transform="scale(0.015625)"/>
       <path id="DejaVuSans-79" d="M 2059 -325 
Q 1816 -950 1584 -1140 
Q 1353 -1331 966 -1331 
L 506 -1331 
L 506 -850 
L 844 -850 
Q 1081 -850 1212 -737 
Q 1344 -625 1503 -206 
L 1606 56 
L 191 3500 
L 800 3500 
L 1894 763 
L 2988 3500 
L 3597 3500 
L 2059 -325 
z
" transform="scale(0.015625)"/>
       <path id="DejaVuSans-73" d="M 2834 3397 
L 2834 2853 
Q 2591 2978 2328 3040 
Q 2066 3103 1784 3103 
Q 1356 3103 1142 2972 
Q 928 2841 928 2578 
Q 928 2378 1081 2264 
Q 1234 2150 1697 2047 
L 1894 2003 
Q 2506 1872 2764 1633 
Q 3022 1394 3022 966 
Q 3022 478 2636 193 
Q 2250 -91 1575 -91 
Q 1294 -91 989 -36 
Q 684 19 347 128 
L 347 722 
Q 666 556 975 473 
Q 1284 391 1588 391 
Q 1994 391 2212 530 
Q 2431 669 2431 922 
Q 2431 1156 2273 1281 
Q 2116 1406 1581 1522 
L 1381 1569 
Q 847 1681 609 1914 
Q 372 2147 372 2553 
Q 372 3047 722 3315 
Q 1072 3584 1716 3584 
Q 2034 3584 2315 3537 
Q 2597 3491 2834 3397 
z
" transform="scale(0.015625)"/>
      </defs>
      <use xlink:href="#DejaVuSans-44"/>
      <use xlink:href="#DejaVuSans-61" x="77.001953"/>
      <use xlink:href="#DejaVuSans-79" x="138.28125"/>
      <use xlink:href="#DejaVuSans-73" x="197.460938"/>
     </g>
    </g>
   </g>
   <g id="matplotlib.axis_2">
    <g id="ytick_1">
     <g id="line2d_10">
      <defs>
       <path id="m95929b0976" d="M 0 0 
L -3.5 0 
" style="stroke: #000000; stroke-width: 0.8"/>
      </defs>
      <g>
       <use xlink:href="#m95929b0976" x="180" y="508.170337" style="stroke: #000000; stroke-width: 0.8"/>
      </g>
     </g>
     <g id="text_11">
      <!-- 500 -->
      <g transform="translate(153.9125 511.969556) scale(0.1 -0.1)">
       <use xlink:href="#DejaVuSans-35"/>
       <use xlink:href="#DejaVuSans-30" x="63.623047"/>
       <use xlink:href="#DejaVuSans-30" x="127.246094"/>
      </g>
     </g>
    </g>
    <g id="ytick_2">
     <g id="line2d_11">
      <g>
       <use xlink:href="#m95929b0976" x="180" y="406.237753" style="stroke: #000000; stroke-width: 0.8"/>
      </g>
     </g>
     <g id="text_12">
      <!-- 1000 -->
      <g transform="translate(147.55 410.036972) scale(0.1 -0.1)">
       <use xlink:href="#DejaVuSans-31"/>
       <use xlink:href="#DejaVuSans-30" x="63.623047"/>
       <use xlink:href="#DejaVuSans-30" x="127.246094"/>
       <use xlink:href="#DejaVuSans-30" x="190.869141"/>
      </g>
     </g>
    </g>
    <g id="ytick_3">
     <g id="line2d_12">
      <g>
       <use xlink:href="#m95929b0976" x="180" y="304.305169" style="stroke: #000000; stroke-width: 0.8"/>
      </g>
     </g>
     <g id="text_13">
      <!-- 1500 -->
      <g transform="translate(147.55 308.104387) scale(0.1 -0.1)">
       <use xlink:href="#DejaVuSans-31"/>
       <use xlink:href="#DejaVuSans-35" x="63.623047"/>
       <use xlink:href="#DejaVuSans-30" x="127.246094"/>
       <use xlink:href="#DejaVuSans-30" x="190.869141"/>
      </g>
     </g>
    </g>
    <g id="ytick_4">
     <g id="line2d_13">
      <g>
       <use xlink:href="#m95929b0976" x="180" y="202.372584" style="stroke: #000000; stroke-width: 0.8"/>
      </g>
     </g>
     <g id="text_14">
      <!-- 2000 -->
      <g transform="translate(147.55 206.171803) scale(0.1 -0.1)">
       <use xlink:href="#DejaVuSans-32"/>
       <use xlink:href="#DejaVuSans-30" x="63.623047"/>
       <use xlink:href="#DejaVuSans-30" x="127.246094"/>
       <use xlink:href="#DejaVuSans-30" x="190.869141"/>
      </g>
     </g>
    </g>
    <g id="ytick_5">
     <g id="line2d_14">
      <g>
       <use xlink:href="#m95929b0976" x="180" y="100.44" style="stroke: #000000; stroke-width: 0.8"/>
      </g>
     </g>
     <g id="text_15">
      <!-- 2500 -->
      <g transform="translate(147.55 104.239219) scale(0.1 -0.1)">
       <use xlink:href="#DejaVuSans-32"/>
       <use xlink:href="#DejaVuSans-35" x="63.623047"/>
       <use xlink:href="#DejaVuSans-30" x="127.246094"/>
       <use xlink:href="#DejaVuSans-30" x="190.869141"/>
      </g>
     </g>
    </g>
    <g id="text_16">
     <!-- Population -->
     <g transform="translate(141.470313 353.506406) rotate(-90) scale(0.1 -0.1)">
      <defs>
       <path id="DejaVuSans-50" d="M 1259 4147 
L 1259 2394 
L 2053 2394 
Q 2494 2394 2734 2622 
Q 2975 2850 2975 3272 
Q 2975 3691 2734 3919 
Q 2494 4147 2053 4147 
L 1259 4147 
z
M 628 4666 
L 2053 4666 
Q 2838 4666 3239 4311 
Q 3641 3956 3641 3272 
Q 3641 2581 3239 2228 
Q 2838 1875 2053 1875 
L 1259 1875 
L 1259 0 
L 628 0 
L 628 4666 
z
" transform="scale(0.015625)"/>
       <path id="DejaVuSans-6f" d="M 1959 3097 
Q 1497 3097 1228 2736 
Q 959 2375 959 1747 
Q 959 1119 1226 758 
Q 1494 397 1959 397 
Q 2419 397 2687 759 
Q 2956 1122 2956 1747 
Q 2956 2369 2687 2733 
Q 2419 3097 1959 3097 
z
M 1959 3584 
Q 2709 3584 3137 3096 
Q 3566 2609 3566 1747 
Q 3566 888 3137 398 
Q 2709 -91 1959 -91 
Q 1206 -91 779 398 
Q 353 888 353 1747 
Q 353 2609 779 3096 
Q 1206 3584 1959 3584 
z
" transform="scale(0.015625)"/>
       <path id="DejaVuSans-70" d="M 1159 525 
L 1159 -1331 
L 581 -1331 
L 581 3500 
L 1159 3500 
L 1159 2969 
Q 1341 3281 1617 3432 
Q 1894 3584 2278 3584 
Q 2916 3584 3314 3078 
Q 3713 2572 3713 1747 
Q 3713 922 3314 415 
Q 2916 -91 2278 -91 
Q 1894 -91 1617 61 
Q 1341 213 1159 525 
z
M 3116 1747 
Q 3116 2381 2855 2742 
Q 2594 3103 2138 3103 
Q 1681 3103 1420 2742 
Q 1159 2381 1159 1747 
Q 1159 1113 1420 752 
Q 1681 391 2138 391 
Q 2594 391 2855 752 
Q 3116 1113 3116 1747 
z
" transform="scale(0.015625)"/>
       <path id="DejaVuSans-75" d="M 544 1381 
L 544 3500 
L 1119 3500 
L 1119 1403 
Q 1119 906 1312 657 
Q 1506 409 1894 409 
Q 2359 409 2629 706 
Q 2900 1003 2900 1516 
L 2900 3500 
L 3475 3500 
L 3475 0 
L 2900 0 
L 2900 538 
Q 2691 219 2414 64 
Q 2138 -91 1772 -91 
Q 1169 -91 856 284 
Q 544 659 544 1381 
z
M 1991 3584 
L 1991 3584 
z
" transform="scale(0.015625)"/>
       <path id="DejaVuSans-6c" d="M 603 4863 
L 1178 4863 
L 1178 0 
L 603 0 
L 603 4863 
z
" transform="scale(0.015625)"/>
       <path id="DejaVuSans-74" d="M 1172 4494 
L 1172 3500 
L 2356 3500 
L 2356 3053 
L 1172 3053 
L 1172 1153 
Q 1172 725 1289 603 
Q 1406 481 1766 481 
L 2356 481 
L 2356 0 
L 1766 0 
Q 1100 0 847 248 
Q 594 497 594 1153 
L 594 3053 
L 172 3053 
L 172 3500 
L 594 3500 
L 594 4494 
L 1172 4494 
z
" transform="scale(0.015625)"/>
       <path id="DejaVuSans-69" d="M 603 3500 
L 1178 3500 
L 1178 0 
L 603 0 
L 603 3500 
z
M 603 4863 
L 1178 4863 
L 1178 4134 
L 603 4134 
L 603 4863 
z
" transform="scale(0.015625)"/>
       <path id="DejaVuSans-6e" d="M 3513 2113 
L 3513 0 
L 2938 0 
L 2938 2094 
Q 2938 2591 2744 2837 
Q 2550 3084 2163 3084 
Q 1697 3084 1428 2787 
Q 1159 2491 1159 1978 
L 1159 0 
L 581 0 
L 581 3500 
L 1159 3500 
L 1159 2956 
Q 1366 3272 1645 3428 
Q 1925 3584 2291 3584 
Q 2894 3584 3203 3211 
Q 3513 2838 3513 2113 
z
" transform="scale(0.015625)"/>
      </defs>
      <use xlink:href="#DejaVuSans-50"/>
      <use xlink:href="#DejaVuSans-6f" x="56.677734"/>
      <use xlink:href="#DejaVuSans-70" x="117.859375"/>
      <use xlink:href="#DejaVuSans-75" x="181.335938"/>
      <use xlink:href="#DejaVuSans-6c" x="244.714844"/>
      <use xlink:href="#DejaVuSans-61" x="272.498047"/>
      <use xlink:href="#DejaVuSans-74" x="333.777344"/>
      <use xlink:href="#DejaVuSans-69" x="372.986328"/>
      <use xlink:href="#DejaVuSans-6f" x="400.769531"/>
      <use xlink:href="#DejaVuSans-6e" x="461.951172"/>
     </g>
    </g>
   </g>
   <g id="line2d_15">
    <path d="M 230.727273 406.645483 
L 235.825491 485.745169 
L 240.923709 521.829303 
L 246.021928 521.625438 
L 251.120146 485.949034 
L 256.218365 382.793258 
L 261.316583 302.062652 
L 266.414801 275.152449 
L 271.51302 296.354427 
L 276.611238 334.884944 
L 281.709456 370.153618 
L 286.807675 397.06382 
L 291.905893 418.469663 
L 297.004111 427.235865 
L 302.10233 415.411685 
L 307.200548 395.840629 
L 312.298767 380.143011 
L 317.396985 383.608719 
L 322.495203 397.267685 
L 327.593422 408.888 
L 332.69164 413.576899 
L 337.789858 412.557573 
L 342.888077 407.868674 
L 347.986295 415.615551 
L 353.084513 407.053213 
L 358.182732 403.791371 
L 363.28095 414.188494 
L 368.379169 418.877393 
L 373.477387 429.274517 
L 378.575605 425.808809 
L 383.673824 419.081258 
L 388.772042 410.722787 
L 393.87026 412.761438 
L 398.968479 421.11991 
L 404.066697 418.673528 
L 409.164915 425.197213 
L 414.263134 423.158562 
L 419.361352 418.673528 
L 424.459571 412.557573 
L 429.557789 409.091865 
L 434.656007 416.634876 
L 439.754226 430.089978 
L 444.852444 431.313169 
L 449.950662 421.11991 
L 455.048881 416.838742 
L 460.147099 419.896719 
L 465.245317 414.80009 
L 470.343536 409.907326 
L 475.441754 411.130517 
L 480.539973 412.557573 
L 485.638191 415.411685 
L 490.736409 410.315056 
L 495.834628 420.71218 
L 500.932846 432.128629 
L 506.031064 430.293843 
L 511.129283 426.012674 
L 516.227501 410.111191 
L 521.32572 400.937258 
L 526.423938 403.587506 
L 531.522156 413.780764 
L 536.620375 418.877393 
L 541.718593 434.167281 
L 546.816811 427.235865 
L 551.91503 431.109303 
L 557.013248 428.255191 
L 562.111466 433.35182 
L 567.209685 423.770157 
L 572.307903 423.974022 
L 577.406122 421.323775 
L 582.50434 425.808809 
L 587.602558 426.420404 
L 592.700777 433.35182 
L 597.798995 436.613663 
L 602.897213 422.546966 
L 607.995432 412.149843 
L 613.09365 407.868674 
L 618.191868 404.402966 
L 623.290087 407.257079 
L 628.388305 413.373034 
L 633.486524 422.343101 
L 638.584742 426.420404 
L 643.68296 417.042607 
L 648.781179 414.596225 
L 653.879397 415.003955 
L 658.977615 402.97591 
L 664.075834 402.56818 
L 669.174052 400.733393 
L 674.27227 411.742112 
L 679.370489 414.39236 
L 684.468707 414.596225 
L 689.566926 417.654202 
L 694.665144 407.664809 
L 699.763362 403.179775 
L 704.861581 407.868674 
L 709.959799 414.596225 
L 715.058017 412.965303 
L 720.156236 409.907326 
L 725.254454 400.937258 
L 730.352672 392.374921 
L 735.450891 399.510202 
L 740.549109 410.518921 
L 745.647328 419.081258 
L 750.745546 421.52764 
L 755.843764 419.285124 
L 760.941983 425.197213 
L 766.040201 415.411685 
L 771.138419 402.364315 
L 776.236638 396.452225 
L 781.334856 401.956584 
L 786.433074 406.441618 
L 791.531293 418.673528 
L 796.629511 414.188494 
L 801.72773 411.130517 
L 806.825948 401.141124 
L 811.924166 398.898607 
L 817.022385 405.218427 
L 822.120603 415.20782 
L 827.218821 428.459056 
L 832.31704 437.225258 
L 837.415258 438.448449 
L 842.513476 445.787596 
L 847.611695 441.506427 
L 852.709913 435.594337 
L 857.808132 418.673528 
L 862.90635 409.091865 
L 868.004568 406.033888 
L 873.102787 416.023281 
L 878.201005 424.789483 
L 883.299223 414.596225 
L 888.397442 408.888 
L 893.49566 413.169169 
L 898.593878 415.003955 
L 903.692097 428.662921 
L 908.790315 425.604944 
L 913.888534 425.401079 
L 918.986752 431.720899 
L 924.08497 423.362427 
L 929.183189 409.703461 
L 934.281407 412.965303 
L 939.379625 411.130517 
L 944.477844 404.606831 
L 949.576062 406.645483 
L 954.67428 422.954697 
L 959.772499 430.701573 
L 964.870717 423.974022 
L 969.968936 411.742112 
L 975.067154 405.830022 
L 980.165372 408.684135 
L 985.263591 415.411685 
L 990.361809 419.488989 
L 1000.558246 416.634876 
L 1005.656464 435.594337 
L 1010.754683 424.177888 
L 1015.852901 409.703461 
L 1020.951119 409.29573 
L 1026.049338 412.353708 
L 1031.147556 413.169169 
L 1036.245774 421.935371 
L 1041.343993 416.431011 
L 1046.442211 411.538247 
L 1051.540429 410.518921 
L 1056.638648 408.684135 
L 1061.736866 423.566292 
L 1066.835085 429.478382 
L 1071.933303 423.362427 
L 1077.031521 422.546966 
L 1082.12974 422.750831 
L 1087.227958 415.20782 
L 1092.326176 410.111191 
L 1097.424395 406.033888 
L 1102.522613 390.947865 
L 1107.620831 398.287011 
L 1112.71905 410.111191 
L 1117.817268 421.52764 
L 1122.915487 421.731506 
L 1128.013705 425.808809 
L 1138.210142 424.585618 
L 1143.30836 425.401079 
L 1148.406578 433.35182 
L 1153.504797 424.993348 
L 1158.603015 420.508315 
L 1163.701233 419.285124 
L 1168.799452 427.643596 
L 1173.89767 429.682247 
L 1178.995889 418.469663 
L 1184.094107 413.780764 
L 1189.192325 419.285124 
L 1194.290544 423.770157 
L 1199.388762 413.984629 
L 1204.48698 414.39236 
L 1209.585199 410.111191 
L 1214.683417 423.974022 
L 1219.781635 427.643596 
L 1224.879854 426.828135 
L 1229.978072 425.808809 
L 1235.076291 418.061933 
L 1240.174509 407.053213 
L 1245.272727 392.578787 
L 1245.272727 392.578787 
" clip-path="url(#p2e0f030fab)" style="fill: none; stroke: #1f77b4; stroke-width: 1.5; stroke-linecap: square"/>
   </g>
   <g id="line2d_16">
    <path d="M 230.727273 511.024449 
L 235.825491 482.891056 
L 240.923709 424.381753 
L 246.021928 340.797034 
L 251.120146 305.324494 
L 256.218365 383.812584 
L 261.316583 475.55191 
L 266.414801 528.149124 
L 271.51302 543.031281 
L 276.611238 537.526921 
L 281.709456 524.683416 
L 286.807675 508.781933 
L 297.004111 445.991461 
L 302.10233 436.002067 
L 307.200548 445.379865 
L 312.298767 462.300674 
L 317.396985 471.270742 
L 322.495203 472.493933 
L 327.593422 466.174112 
L 332.69164 460.873618 
L 337.789858 456.796315 
L 342.888077 455.980854 
L 347.986295 444.564404 
L 358.182732 455.165393 
L 363.28095 450.068764 
L 368.379169 445.991461 
L 378.575605 440.283236 
L 383.673824 432.740225 
L 388.772042 440.894831 
L 393.87026 447.214652 
L 398.968479 454.757663 
L 404.066697 457.00018 
L 409.164915 442.933483 
L 414.263134 437.021393 
L 419.361352 440.690966 
L 424.459571 447.826247 
L 429.557789 459.038831 
L 434.656007 458.019506 
L 439.754226 439.875506 
L 444.852444 432.740225 
L 449.950662 439.67164 
L 455.048881 441.098697 
L 460.147099 439.26391 
L 465.245317 447.418517 
L 470.343536 456.796315 
L 475.441754 454.146067 
L 480.539973 452.922876 
L 485.638191 454.146067 
L 490.736409 465.970247 
L 495.834628 457.00018 
L 500.932846 440.283236 
L 506.031064 423.974022 
L 511.129283 418.061933 
L 521.32572 449.253303 
L 526.423938 454.961528 
L 531.522156 456.796315 
L 536.620375 452.515146 
L 541.718593 436.409798 
L 546.816811 432.94409 
L 551.91503 431.109303 
L 557.013248 425.401079 
L 562.111466 420.71218 
L 567.209685 437.021393 
L 572.307903 436.205933 
L 577.406122 436.409798 
L 582.50434 438.244584 
L 587.602558 442.118022 
L 592.700777 431.313169 
L 597.798995 423.974022 
L 602.897213 426.62427 
L 613.09365 444.76827 
L 618.191868 456.388584 
L 623.290087 469.435955 
L 628.388305 466.581843 
L 633.486524 456.388584 
L 638.584742 444.360539 
L 643.68296 444.972135 
L 648.781179 440.894831 
L 653.879397 434.575011 
L 658.977615 436.817528 
L 664.075834 452.311281 
L 669.174052 464.135461 
L 674.27227 465.970247 
L 679.370489 466.174112 
L 684.468707 456.184719 
L 689.566926 442.118022 
L 694.665144 449.864899 
L 699.763362 461.689079 
L 704.861581 461.281348 
L 709.959799 451.08809 
L 715.058017 447.826247 
L 720.156236 445.379865 
L 725.254454 453.942202 
L 730.352672 464.339326 
L 735.450891 463.72773 
L 740.549109 457.40791 
L 745.647328 450.68036 
L 750.745546 445.787596 
L 755.843764 441.506427 
L 760.941983 429.682247 
L 766.040201 438.040719 
L 771.138419 449.049438 
L 776.236638 466.989573 
L 781.334856 473.105528 
L 786.433074 458.223371 
L 791.531293 444.972135 
L 796.629511 440.690966 
L 801.72773 432.332494 
L 806.825948 439.875506 
L 811.924166 450.068764 
L 817.022385 459.446562 
L 822.120603 460.058157 
L 827.218821 447.418517 
L 832.31704 434.167281 
L 837.415258 421.731506 
L 842.513476 417.246472 
L 847.611695 419.488989 
L 852.709913 420.100584 
L 857.808132 432.94409 
L 862.90635 448.641708 
L 868.004568 461.892944 
L 873.102787 449.049438 
L 878.201005 434.371146 
L 883.299223 446.399191 
L 888.397442 452.719011 
L 893.49566 453.942202 
L 898.593878 453.534472 
L 903.692097 440.894831 
L 908.790315 439.26391 
L 913.888534 435.798202 
L 918.986752 428.255191 
L 924.08497 431.313169 
L 929.183189 444.360539 
L 934.281407 436.205933 
L 939.379625 436.409798 
L 944.477844 452.515146 
L 949.576062 457.611775 
L 954.67428 448.845573 
L 959.772499 441.914157 
L 964.870717 437.836854 
L 969.968936 442.118022 
L 975.067154 451.291955 
L 980.165372 451.08809 
L 985.263591 451.49582 
L 990.361809 450.68036 
L 995.460027 455.165393 
L 1000.558246 451.291955 
L 1005.656464 429.070652 
L 1010.754683 429.274517 
L 1015.852901 441.914157 
L 1020.951119 440.894831 
L 1026.049338 439.67164 
L 1031.147556 446.195326 
L 1036.245774 443.545079 
L 1041.343993 451.291955 
L 1046.442211 456.388584 
L 1051.540429 466.785708 
L 1056.638648 471.678472 
L 1061.736866 454.146067 
L 1066.835085 447.214652 
L 1071.933303 444.360539 
L 1077.031521 434.575011 
L 1082.12974 430.701573 
L 1087.227958 433.963416 
L 1092.326176 430.701573 
L 1097.424395 442.525753 
L 1102.522613 462.096809 
L 1107.620831 466.581843 
L 1112.71905 456.796315 
L 1117.817268 449.049438 
L 1122.915487 453.330607 
L 1128.013705 449.253303 
L 1138.210142 450.476494 
L 1143.30836 444.360539 
L 1148.406578 433.555685 
L 1153.504797 436.205933 
L 1158.603015 438.652315 
L 1163.701233 439.67164 
L 1168.799452 426.62427 
L 1173.89767 424.585618 
L 1178.995889 437.021393 
L 1184.094107 443.748944 
L 1189.192325 437.429124 
L 1194.290544 437.429124 
L 1199.388762 448.437843 
L 1204.48698 453.126742 
L 1209.585199 461.281348 
L 1214.683417 448.030112 
L 1219.781635 442.525753 
L 1224.879854 438.652315 
L 1229.978072 424.789483 
L 1235.076291 424.585618 
L 1240.174509 437.429124 
L 1245.272727 459.650427 
L 1245.272727 459.650427 
" clip-path="url(#p2e0f030fab)" style="fill: none; stroke: #ff7f0e; stroke-width: 1.5; stroke-linecap: square"/>
   </g>
   <g id="line2d_17">
    <path d="M 230.727273 402.97591 
L 235.825491 352.009618 
L 240.923709 374.434787 
L 246.021928 458.223371 
L 251.120146 529.372315 
L 256.218365 554.04 
L 261.316583 543.031281 
L 266.414801 517.34427 
L 271.51302 481.260135 
L 276.611238 448.233978 
L 281.709456 425.808809 
L 286.807675 414.80009 
L 291.905893 424.789483 
L 297.004111 447.418517 
L 302.10233 469.23209 
L 307.200548 479.425348 
L 312.298767 478.202157 
L 317.396985 465.766382 
L 322.495203 450.884225 
L 327.593422 445.58373 
L 332.69164 446.195326 
L 337.789858 451.291955 
L 342.888077 456.796315 
L 347.986295 460.465888 
L 353.084513 463.72773 
L 358.182732 461.689079 
L 363.28095 456.388584 
L 368.379169 455.776989 
L 373.477387 448.233978 
L 378.575605 454.553798 
L 383.673824 468.82436 
L 388.772042 469.028225 
L 393.87026 460.669753 
L 398.968479 444.76827 
L 404.066697 444.972135 
L 409.164915 452.515146 
L 414.263134 460.465888 
L 419.361352 461.281348 
L 424.459571 460.262022 
L 429.557789 452.515146 
L 434.656007 445.991461 
L 439.754226 450.68036 
L 444.852444 456.592449 
L 449.950662 459.854292 
L 455.048881 462.708404 
L 460.147099 461.485213 
L 465.245317 458.427236 
L 470.343536 453.942202 
L 475.441754 455.369258 
L 480.539973 455.165393 
L 485.638191 451.08809 
L 490.736409 444.360539 
L 495.834628 442.933483 
L 500.932846 448.233978 
L 506.031064 466.377978 
L 511.129283 476.571236 
L 516.227501 476.978966 
L 521.32572 470.455281 
L 526.423938 462.096809 
L 531.522156 450.068764 
L 536.620375 449.253303 
L 541.718593 450.068764 
L 546.816811 460.465888 
L 551.91503 458.427236 
L 557.013248 466.989573 
L 562.111466 466.581843 
L 567.209685 459.854292 
L 572.307903 460.465888 
L 577.406122 462.91227 
L 582.50434 456.592449 
L 587.602558 452.107416 
L 592.700777 455.980854 
L 597.798995 460.058157 
L 602.897213 471.474607 
L 607.995432 472.901663 
L 613.09365 468.008899 
L 618.191868 459.854292 
L 623.290087 443.952809 
L 628.388305 440.690966 
L 633.486524 441.914157 
L 638.584742 449.864899 
L 643.68296 458.631101 
L 648.781179 465.154787 
L 653.879397 471.066876 
L 658.977615 480.852404 
L 664.075834 465.766382 
L 669.174052 455.776989 
L 674.27227 442.933483 
L 679.370489 440.079371 
L 684.468707 449.864899 
L 689.566926 460.873618 
L 694.665144 463.116135 
L 699.763362 455.776989 
L 704.861581 451.49582 
L 709.959799 454.961528 
L 715.058017 459.854292 
L 720.156236 465.358652 
L 725.254454 465.766382 
L 730.352672 463.931596 
L 735.450891 457.40791 
L 740.549109 452.719011 
L 745.647328 450.884225 
L 750.745546 453.330607 
L 755.843764 459.854292 
L 760.941983 465.766382 
L 766.040201 467.193438 
L 771.138419 469.23209 
L 776.236638 457.204045 
L 781.334856 445.58373 
L 786.433074 455.980854 
L 791.531293 457.00018 
L 796.629511 465.766382 
L 801.72773 477.182831 
L 806.825948 479.629213 
L 811.924166 471.678472 
L 817.022385 455.980854 
L 822.120603 445.379865 
L 827.218821 444.76827 
L 832.31704 449.253303 
L 837.415258 460.465888 
L 842.513476 457.611775 
L 847.611695 459.650427 
L 852.709913 464.950921 
L 857.808132 469.028225 
L 862.90635 462.91227 
L 868.004568 452.719011 
L 873.102787 455.573124 
L 878.201005 461.485213 
L 883.299223 459.650427 
L 888.397442 459.038831 
L 893.49566 453.534472 
L 898.593878 452.107416 
L 903.692097 451.08809 
L 908.790315 455.776989 
L 913.888534 459.446562 
L 918.986752 460.669753 
L 924.08497 465.970247 
L 929.183189 466.581843 
L 934.281407 471.474607 
L 939.379625 473.105528 
L 944.477844 463.523865 
L 949.576062 456.388584 
L 954.67428 448.845573 
L 959.772499 448.030112 
L 964.870717 458.834966 
L 969.968936 466.785708 
L 975.067154 463.523865 
L 980.165372 460.873618 
L 985.263591 453.738337 
L 990.361809 450.476494 
L 995.460027 447.418517 
L 1000.558246 452.719011 
L 1005.656464 455.980854 
L 1010.754683 467.193438 
L 1015.852901 469.028225 
L 1020.951119 470.455281 
L 1026.049338 468.620494 
L 1031.147556 461.281348 
L 1036.245774 455.165393 
L 1041.343993 452.922876 
L 1046.442211 452.719011 
L 1051.540429 443.341213 
L 1056.638648 440.283236 
L 1061.736866 442.933483 
L 1066.835085 443.952809 
L 1071.933303 452.922876 
L 1077.031521 463.523865 
L 1082.12974 467.193438 
L 1087.227958 471.474607 
L 1092.326176 479.833079 
L 1097.424395 472.086202 
L 1102.522613 467.601169 
L 1107.620831 455.776989 
L 1112.71905 453.738337 
L 1117.817268 450.068764 
L 1122.915487 445.58373 
L 1138.210142 445.58373 
L 1143.30836 450.884225 
L 1148.406578 453.738337 
L 1153.504797 459.446562 
L 1158.603015 461.485213 
L 1163.701233 461.689079 
L 1168.799452 466.377978 
L 1173.89767 466.377978 
L 1178.995889 465.154787 
L 1184.094107 463.116135 
L 1189.192325 463.931596 
L 1194.290544 459.446562 
L 1199.388762 458.223371 
L 1204.48698 453.126742 
L 1209.585199 449.253303 
L 1214.683417 448.641708 
L 1219.781635 450.476494 
L 1224.879854 455.165393 
L 1229.978072 470.047551 
L 1235.076291 477.998292 
L 1240.174509 476.163506 
L 1245.272727 468.416629 
L 1245.272727 468.416629 
" clip-path="url(#p2e0f030fab)" style="fill: none; stroke: #2ca02c; stroke-width: 1.5; stroke-linecap: square"/>
   </g>
   <g id="line2d_18">
    <path d="M 230.727273 100.44 
L 1245.272727 100.44 
L 1245.272727 100.44 
" clip-path="url(#p2e0f030fab)" style="fill: none; stroke: #d62728; stroke-width: 1.5; stroke-linecap: square"/>
   </g>
   <g id="patch_3">
    <path d="M 180 576.72 
L 180 77.76 
" style="fill: none; stroke: #000000; stroke-width: 0.8; stroke-linejoin: miter; stroke-linecap: square"/>
   </g>
   <g id="patch_4">
    <path d="M 1296 576.72 
L 1296 77.76 
" style="fill: none; stroke: #000000; stroke-width: 0.8; stroke-linejoin: miter; stroke-linecap: square"/>
   </g>
   <g id="patch_5">
    <path d="M 180 576.72 
L 1296 576.72 
" style="fill: none; stroke: #000000; stroke-width: 0.8; stroke-linejoin: miter; stroke-linecap: square"/>
   </g>
   <g id="patch_6">
    <path d="M 180 77.76 
L 1296 77.76 
" style="fill: none; stroke: #000000; stroke-width: 0.8; stroke-linejoin: miter; stroke-linecap: square"/>
   </g>
   <g id="text_17">
    <!-- Analysis of populations in Predator-Prey CA -->
    <g transform="translate(608.762812 71.76) scale(0.12 -0.12)">
     <defs>
      <path id="DejaVuSans-41" d="M 2188 4044 
L 1331 1722 
L 3047 1722 
L 2188 4044 
z
M 1831 4666 
L 2547 4666 
L 4325 0 
L 3669 0 
L 3244 1197 
L 1141 1197 
L 716 0 
L 50 0 
L 1831 4666 
z
" transform="scale(0.015625)"/>
      <path id="DejaVuSans-20" transform="scale(0.015625)"/>
      <path id="DejaVuSans-66" d="M 2375 4863 
L 2375 4384 
L 1825 4384 
Q 1516 4384 1395 4259 
Q 1275 4134 1275 3809 
L 1275 3500 
L 2222 3500 
L 2222 3053 
L 1275 3053 
L 1275 0 
L 697 0 
L 697 3053 
L 147 3053 
L 147 3500 
L 697 3500 
L 697 3744 
Q 697 4328 969 4595 
Q 1241 4863 1831 4863 
L 2375 4863 
z
" transform="scale(0.015625)"/>
      <path id="DejaVuSans-72" d="M 2631 2963 
Q 2534 3019 2420 3045 
Q 2306 3072 2169 3072 
Q 1681 3072 1420 2755 
Q 1159 2438 1159 1844 
L 1159 0 
L 581 0 
L 581 3500 
L 1159 3500 
L 1159 2956 
Q 1341 3275 1631 3429 
Q 1922 3584 2338 3584 
Q 2397 3584 2469 3576 
Q 2541 3569 2628 3553 
L 2631 2963 
z
" transform="scale(0.015625)"/>
      <path id="DejaVuSans-65" d="M 3597 1894 
L 3597 1613 
L 953 1613 
Q 991 1019 1311 708 
Q 1631 397 2203 397 
Q 2534 397 2845 478 
Q 3156 559 3463 722 
L 3463 178 
Q 3153 47 2828 -22 
Q 2503 -91 2169 -91 
Q 1331 -91 842 396 
Q 353 884 353 1716 
Q 353 2575 817 3079 
Q 1281 3584 2069 3584 
Q 2775 3584 3186 3129 
Q 3597 2675 3597 1894 
z
M 3022 2063 
Q 3016 2534 2758 2815 
Q 2500 3097 2075 3097 
Q 1594 3097 1305 2825 
Q 1016 2553 972 2059 
L 3022 2063 
z
" transform="scale(0.015625)"/>
      <path id="DejaVuSans-64" d="M 2906 2969 
L 2906 4863 
L 3481 4863 
L 3481 0 
L 2906 0 
L 2906 525 
Q 2725 213 2448 61 
Q 2172 -91 1784 -91 
Q 1150 -91 751 415 
Q 353 922 353 1747 
Q 353 2572 751 3078 
Q 1150 3584 1784 3584 
Q 2172 3584 2448 3432 
Q 2725 3281 2906 2969 
z
M 947 1747 
Q 947 1113 1208 752 
Q 1469 391 1925 391 
Q 2381 391 2643 752 
Q 2906 1113 2906 1747 
Q 2906 2381 2643 2742 
Q 2381 3103 1925 3103 
Q 1469 3103 1208 2742 
Q 947 2381 947 1747 
z
" transform="scale(0.015625)"/>
      <path id="DejaVuSans-2d" d="M 313 2009 
L 1997 2009 
L 1997 1497 
L 313 1497 
L 313 2009 
z
" transform="scale(0.015625)"/>
      <path id="DejaVuSans-43" d="M 4122 4306 
L 4122 3641 
Q 3803 3938 3442 4084 
Q 3081 4231 2675 4231 
Q 1875 4231 1450 3742 
Q 1025 3253 1025 2328 
Q 1025 1406 1450 917 
Q 1875 428 2675 428 
Q 3081 428 3442 575 
Q 3803 722 4122 1019 
L 4122 359 
Q 3791 134 3420 21 
Q 3050 -91 2638 -91 
Q 1578 -91 968 557 
Q 359 1206 359 2328 
Q 359 3453 968 4101 
Q 1578 4750 2638 4750 
Q 3056 4750 3426 4639 
Q 3797 4528 4122 4306 
z
" transform="scale(0.015625)"/>
     </defs>
     <use xlink:href="#DejaVuSans-41"/>
     <use xlink:href="#DejaVuSans-6e" x="68.408203"/>
     <use xlink:href="#DejaVuSans-61" x="131.787109"/>
     <use xlink:href="#DejaVuSans-6c" x="193.066406"/>
     <use xlink:href="#DejaVuSans-79" x="220.849609"/>
     <use xlink:href="#DejaVuSans-73" x="280.029297"/>
     <use xlink:href="#DejaVuSans-69" x="332.128906"/>
     <use xlink:href="#DejaVuSans-73" x="359.912109"/>
     <use xlink:href="#DejaVuSans-20" x="412.011719"/>
     <use xlink:href="#DejaVuSans-6f" x="443.798828"/>
     <use xlink:href="#DejaVuSans-66" x="504.980469"/>
     <use xlink:href="#DejaVuSans-20" x="540.185547"/>
     <use xlink:href="#DejaVuSans-70" x="571.972656"/>
     <use xlink:href="#DejaVuSans-6f" x="635.449219"/>
     <use xlink:href="#DejaVuSans-70" x="696.630859"/>
     <use xlink:href="#DejaVuSans-75" x="760.107422"/>
     <use xlink:href="#DejaVuSans-6c" x="823.486328"/>
     <use xlink:href="#DejaVuSans-61" x="851.269531"/>
     <use xlink:href="#DejaVuSans-74" x="912.548828"/>
     <use xlink:href="#DejaVuSans-69" x="951.757812"/>
     <use xlink:href="#DejaVuSans-6f" x="979.541016"/>
     <use xlink:href="#DejaVuSans-6e" x="1040.722656"/>
     <use xlink:href="#DejaVuSans-73" x="1104.101562"/>
     <use xlink:href="#DejaVuSans-20" x="1156.201172"/>
     <use xlink:href="#DejaVuSans-69" x="1187.988281"/>
     <use xlink:href="#DejaVuSans-6e" x="1215.771484"/>
     <use xlink:href="#DejaVuSans-20" x="1279.150391"/>
     <use xlink:href="#DejaVuSans-50" x="1310.9375"/>
     <use xlink:href="#DejaVuSans-72" x="1369.490234"/>
     <use xlink:href="#DejaVuSans-65" x="1408.353516"/>
     <use xlink:href="#DejaVuSans-64" x="1469.876953"/>
     <use xlink:href="#DejaVuSans-61" x="1533.353516"/>
     <use xlink:href="#DejaVuSans-74" x="1594.632812"/>
     <use xlink:href="#DejaVuSans-6f" x="1633.841797"/>
     <use xlink:href="#DejaVuSans-72" x="1695.023438"/>
     <use xlink:href="#DejaVuSans-2d" x="1729.761719"/>
     <use xlink:href="#DejaVuSans-50" x="1765.845703"/>
     <use xlink:href="#DejaVuSans-72" x="1824.398438"/>
     <use xlink:href="#DejaVuSans-65" x="1863.261719"/>
     <use xlink:href="#DejaVuSans-79" x="1924.785156"/>
     <use xlink:href="#DejaVuSans-20" x="1983.964844"/>
     <use xlink:href="#DejaVuSans-43" x="2015.751953"/>
     <use xlink:href="#DejaVuSans-41" x="2085.576172"/>
    </g>
   </g>
   <g id="legend_1">
    <g id="patch_7">
     <path d="M 1187.028125 571.72 
L 1289 571.72 
Q 1291 571.72 1291 569.72 
L 1291 512.0075 
Q 1291 510.0075 1289 510.0075 
L 1187.028125 510.0075 
Q 1185.028125 510.0075 1185.028125 512.0075 
L 1185.028125 569.72 
Q 1185.028125 571.72 1187.028125 571.72 
z
" style="fill: #ffffff; opacity: 0.8; stroke: #cccccc; stroke-linejoin: miter"/>
    </g>
    <g id="line2d_19">
     <path d="M 1189.028125 518.105937 
L 1199.028125 518.105937 
L 1209.028125 518.105937 
" style="fill: none; stroke: #1f77b4; stroke-width: 1.5; stroke-linecap: square"/>
    </g>
    <g id="text_18">
     <!-- Empty spaces -->
     <g transform="translate(1217.028125 521.605937) scale(0.1 -0.1)">
      <defs>
       <path id="DejaVuSans-45" d="M 628 4666 
L 3578 4666 
L 3578 4134 
L 1259 4134 
L 1259 2753 
L 3481 2753 
L 3481 2222 
L 1259 2222 
L 1259 531 
L 3634 531 
L 3634 0 
L 628 0 
L 628 4666 
z
" transform="scale(0.015625)"/>
       <path id="DejaVuSans-6d" d="M 3328 2828 
Q 3544 3216 3844 3400 
Q 4144 3584 4550 3584 
Q 5097 3584 5394 3201 
Q 5691 2819 5691 2113 
L 5691 0 
L 5113 0 
L 5113 2094 
Q 5113 2597 4934 2840 
Q 4756 3084 4391 3084 
Q 3944 3084 3684 2787 
Q 3425 2491 3425 1978 
L 3425 0 
L 2847 0 
L 2847 2094 
Q 2847 2600 2669 2842 
Q 2491 3084 2119 3084 
Q 1678 3084 1418 2786 
Q 1159 2488 1159 1978 
L 1159 0 
L 581 0 
L 581 3500 
L 1159 3500 
L 1159 2956 
Q 1356 3278 1631 3431 
Q 1906 3584 2284 3584 
Q 2666 3584 2933 3390 
Q 3200 3197 3328 2828 
z
" transform="scale(0.015625)"/>
       <path id="DejaVuSans-63" d="M 3122 3366 
L 3122 2828 
Q 2878 2963 2633 3030 
Q 2388 3097 2138 3097 
Q 1578 3097 1268 2742 
Q 959 2388 959 1747 
Q 959 1106 1268 751 
Q 1578 397 2138 397 
Q 2388 397 2633 464 
Q 2878 531 3122 666 
L 3122 134 
Q 2881 22 2623 -34 
Q 2366 -91 2075 -91 
Q 1284 -91 818 406 
Q 353 903 353 1747 
Q 353 2603 823 3093 
Q 1294 3584 2113 3584 
Q 2378 3584 2631 3529 
Q 2884 3475 3122 3366 
z
" transform="scale(0.015625)"/>
      </defs>
      <use xlink:href="#DejaVuSans-45"/>
      <use xlink:href="#DejaVuSans-6d" x="63.183594"/>
      <use xlink:href="#DejaVuSans-70" x="160.595703"/>
      <use xlink:href="#DejaVuSans-74" x="224.072266"/>
      <use xlink:href="#DejaVuSans-79" x="263.28125"/>
      <use xlink:href="#DejaVuSans-20" x="322.460938"/>
      <use xlink:href="#DejaVuSans-73" x="354.248047"/>
      <use xlink:href="#DejaVuSans-70" x="406.347656"/>
      <use xlink:href="#DejaVuSans-61" x="469.824219"/>
      <use xlink:href="#DejaVuSans-63" x="531.103516"/>
      <use xlink:href="#DejaVuSans-65" x="586.083984"/>
      <use xlink:href="#DejaVuSans-73" x="647.607422"/>
     </g>
    </g>
    <g id="line2d_20">
     <path d="M 1189.028125 532.784063 
L 1199.028125 532.784063 
L 1209.028125 532.784063 
" style="fill: none; stroke: #ff7f0e; stroke-width: 1.5; stroke-linecap: square"/>
    </g>
    <g id="text_19">
     <!-- Predators -->
     <g transform="translate(1217.028125 536.284063) scale(0.1 -0.1)">
      <use xlink:href="#DejaVuSans-50"/>
      <use xlink:href="#DejaVuSans-72" x="58.552734"/>
      <use xlink:href="#DejaVuSans-65" x="97.416016"/>
      <use xlink:href="#DejaVuSans-64" x="158.939453"/>
      <use xlink:href="#DejaVuSans-61" x="222.416016"/>
      <use xlink:href="#DejaVuSans-74" x="283.695312"/>
      <use xlink:href="#DejaVuSans-6f" x="322.904297"/>
      <use xlink:href="#DejaVuSans-72" x="384.085938"/>
      <use xlink:href="#DejaVuSans-73" x="425.199219"/>
     </g>
    </g>
    <g id="line2d_21">
     <path d="M 1189.028125 547.462188 
L 1199.028125 547.462188 
L 1209.028125 547.462188 
" style="fill: none; stroke: #2ca02c; stroke-width: 1.5; stroke-linecap: square"/>
    </g>
    <g id="text_20">
     <!-- Preys -->
     <g transform="translate(1217.028125 550.962188) scale(0.1 -0.1)">
      <use xlink:href="#DejaVuSans-50"/>
      <use xlink:href="#DejaVuSans-72" x="58.552734"/>
      <use xlink:href="#DejaVuSans-65" x="97.416016"/>
      <use xlink:href="#DejaVuSans-79" x="158.939453"/>
      <use xlink:href="#DejaVuSans-73" x="218.119141"/>
     </g>
    </g>
    <g id="line2d_22">
     <path d="M 1189.028125 562.140313 
L 1199.028125 562.140313 
L 1209.028125 562.140313 
" style="fill: none; stroke: #d62728; stroke-width: 1.5; stroke-linecap: square"/>
    </g>
    <g id="text_21">
     <!-- Total -->
     <g transform="translate(1217.028125 565.640313) scale(0.1 -0.1)">
      <defs>
       <path id="DejaVuSans-54" d="M -19 4666 
L 3928 4666 
L 3928 4134 
L 2272 4134 
L 2272 0 
L 1638 0 
L 1638 4134 
L -19 4134 
L -19 4666 
z
" transform="scale(0.015625)"/>
      </defs>
      <use xlink:href="#DejaVuSans-54"/>
      <use xlink:href="#DejaVuSans-6f" x="44.083984"/>
      <use xlink:href="#DejaVuSans-74" x="105.265625"/>
      <use xlink:href="#DejaVuSans-61" x="144.474609"/>
      <use xlink:href="#DejaVuSans-6c" x="205.753906"/>
     </g>
    </g>
   </g>
  </g>
 </g>
 <defs>
  <clipPath id="p2e0f030fab">
   <rect x="180" y="77.76" width="1116" height="498.96"/>
  </clipPath>
 </defs>
</svg>
