<?xml version="1.0" encoding="utf-8" standalone="no"?>
<!DOCTYPE svg PUBLIC "-//W3C//DTD SVG 1.1//EN"
  "http://www.w3.org/Graphics/SVG/1.1/DTD/svg11.dtd">
<svg xmlns:xlink="http://www.w3.org/1999/xlink" width="648pt" height="648pt" viewBox="0 0 648 648" xmlns="http://www.w3.org/2000/svg" version="1.1">
 <metadata>
  <rdf:RDF xmlns:dc="http://purl.org/dc/elements/1.1/" xmlns:cc="http://creativecommons.org/ns#" xmlns:rdf="http://www.w3.org/1999/02/22-rdf-syntax-ns#">
   <cc:Work>
    <dc:type rdf:resource="http://purl.org/dc/dcmitype/StillImage"/>
    <dc:date>2025-06-09T12:35:49.907840</dc:date>
    <dc:format>image/svg+xml</dc:format>
    <dc:creator>
     <cc:Agent>
      <dc:title>Matplotlib v3.7.0, https://matplotlib.org/</dc:title>
     </cc:Agent>
    </dc:creator>
   </cc:Work>
  </rdf:RDF>
 </metadata>
 <defs>
  <style type="text/css">*{stroke-linejoin: round; stroke-linecap: butt}</style>
 </defs>
 <g id="figure_1">
  <g id="patch_1">
   <path d="M 0 648 
L 648 648 
L 648 0 
L 0 0 
z
" style="fill: #ffffff"/>
  </g>
  <g id="axes_1">
   <g id="patch_2">
    <path d="M 81 576.72 
L 583.2 576.72 
L 583.2 77.76 
L 81 77.76 
z
" style="fill: #ffffff"/>
   </g>
   <g id="PathCollection_1">
    <defs>
     <path id="mdfdf5e2bbe" d="M -3.535534 3.535534 
L 3.535534 3.535534 
L 3.535534 -3.535534 
L -3.535534 -3.535534 
z
" style="stroke: #0000ff"/>
    </defs>
    <g clip-path="url(#pee57afb514)">
     <use xlink:href="#mdfdf5e2bbe" x="156.603927" y="424.85472" style="fill: #0000ff; stroke: #0000ff"/>
    </g>
   </g>
   <g id="PathCollection_2">
    <defs>
     <path id="m302a63978d" d="M -3.535534 3.535534 
L 3.535534 3.535534 
L 3.535534 -3.535534 
L -3.535534 -3.535534 
z
" style="stroke: #ff0000"/>
    </defs>
    <g clip-path="url(#pee57afb514)">
     <use xlink:href="#m302a63978d" x="243.7128" y="304.19712" style="fill: #ff0000; stroke: #ff0000"/>
    </g>
   </g>
   <g id="PathCollection_3">
    <g clip-path="url(#pee57afb514)">
     <use xlink:href="#mdfdf5e2bbe" x="156.603927" y="424.85472" style="fill: #0000ff; stroke: #0000ff"/>
    </g>
   </g>
   <g id="PathCollection_4">
    <g clip-path="url(#pee57afb514)">
     <use xlink:href="#m302a63978d" x="303.246327" y="365.16096" style="fill: #ff0000; stroke: #ff0000"/>
    </g>
   </g>
   <g id="matplotlib.axis_1">
    <g id="xtick_1">
     <g id="line2d_1">
      <path d="M 103.827273 576.72 
L 103.827273 77.76 
" clip-path="url(#pee57afb514)" style="fill: none; stroke: #b0b0b0; stroke-width: 0.1; stroke-linecap: square"/>
     </g>
     <g id="line2d_2">
      <defs>
       <path id="m509d03ae70" d="M 0 0 
L 0 3.5 
" style="stroke: #000000; stroke-width: 0.8"/>
      </defs>
      <g>
       <use xlink:href="#m509d03ae70" x="103.827273" y="576.72" style="stroke: #000000; stroke-width: 0.8"/>
      </g>
     </g>
     <g id="text_1">
      <!-- 0 -->
      <g transform="translate(100.646023 591.318438) scale(0.1 -0.1)">
       <defs>
        <path id="DejaVuSans-30" d="M 2034 4250 
Q 1547 4250 1301 3770 
Q 1056 3291 1056 2328 
Q 1056 1369 1301 889 
Q 1547 409 2034 409 
Q 2525 409 2770 889 
Q 3016 1369 3016 2328 
Q 3016 3291 2770 3770 
Q 2525 4250 2034 4250 
z
M 2034 4750 
Q 2819 4750 3233 4129 
Q 3647 3509 3647 2328 
Q 3647 1150 3233 529 
Q 2819 -91 2034 -91 
Q 1250 -91 836 529 
Q 422 1150 422 2328 
Q 422 3509 836 4129 
Q 1250 4750 2034 4750 
z
" transform="scale(0.015625)"/>
       </defs>
       <use xlink:href="#DejaVuSans-30"/>
      </g>
     </g>
    </g>
    <g id="xtick_2">
     <g id="line2d_3">
      <path d="M 195.136364 576.72 
L 195.136364 77.76 
" clip-path="url(#pee57afb514)" style="fill: none; stroke: #b0b0b0; stroke-width: 0.1; stroke-linecap: square"/>
     </g>
     <g id="line2d_4">
      <g>
       <use xlink:href="#m509d03ae70" x="195.136364" y="576.72" style="stroke: #000000; stroke-width: 0.8"/>
      </g>
     </g>
     <g id="text_2">
      <!-- 500 -->
      <g transform="translate(185.592614 591.318438) scale(0.1 -0.1)">
       <defs>
        <path id="DejaVuSans-35" d="M 691 4666 
L 3169 4666 
L 3169 4134 
L 1269 4134 
L 1269 2991 
Q 1406 3038 1543 3061 
Q 1681 3084 1819 3084 
Q 2600 3084 3056 2656 
Q 3513 2228 3513 1497 
Q 3513 744 3044 326 
Q 2575 -91 1722 -91 
Q 1428 -91 1123 -41 
Q 819 9 494 109 
L 494 744 
Q 775 591 1075 516 
Q 1375 441 1709 441 
Q 2250 441 2565 725 
Q 2881 1009 2881 1497 
Q 2881 1984 2565 2268 
Q 2250 2553 1709 2553 
Q 1456 2553 1204 2497 
Q 953 2441 691 2322 
L 691 4666 
z
" transform="scale(0.015625)"/>
       </defs>
       <use xlink:href="#DejaVuSans-35"/>
       <use xlink:href="#DejaVuSans-30" x="63.623047"/>
       <use xlink:href="#DejaVuSans-30" x="127.246094"/>
      </g>
     </g>
    </g>
    <g id="xtick_3">
     <g id="line2d_5">
      <path d="M 286.445455 576.72 
L 286.445455 77.76 
" clip-path="url(#pee57afb514)" style="fill: none; stroke: #b0b0b0; stroke-width: 0.1; stroke-linecap: square"/>
     </g>
     <g id="line2d_6">
      <g>
       <use xlink:href="#m509d03ae70" x="286.445455" y="576.72" style="stroke: #000000; stroke-width: 0.8"/>
      </g>
     </g>
     <g id="text_3">
      <!-- 1000 -->
      <g transform="translate(273.720455 591.318438) scale(0.1 -0.1)">
       <defs>
        <path id="DejaVuSans-31" d="M 794 531 
L 1825 531 
L 1825 4091 
L 703 3866 
L 703 4441 
L 1819 4666 
L 2450 4666 
L 2450 531 
L 3481 531 
L 3481 0 
L 794 0 
L 794 531 
z
" transform="scale(0.015625)"/>
       </defs>
       <use xlink:href="#DejaVuSans-31"/>
       <use xlink:href="#DejaVuSans-30" x="63.623047"/>
       <use xlink:href="#DejaVuSans-30" x="127.246094"/>
       <use xlink:href="#DejaVuSans-30" x="190.869141"/>
      </g>
     </g>
    </g>
    <g id="xtick_4">
     <g id="line2d_7">
      <path d="M 377.754545 576.72 
L 377.754545 77.76 
" clip-path="url(#pee57afb514)" style="fill: none; stroke: #b0b0b0; stroke-width: 0.1; stroke-linecap: square"/>
     </g>
     <g id="line2d_8">
      <g>
       <use xlink:href="#m509d03ae70" x="377.754545" y="576.72" style="stroke: #000000; stroke-width: 0.8"/>
      </g>
     </g>
     <g id="text_4">
      <!-- 1500 -->
      <g transform="translate(365.029545 591.318438) scale(0.1 -0.1)">
       <use xlink:href="#DejaVuSans-31"/>
       <use xlink:href="#DejaVuSans-35" x="63.623047"/>
       <use xlink:href="#DejaVuSans-30" x="127.246094"/>
       <use xlink:href="#DejaVuSans-30" x="190.869141"/>
      </g>
     </g>
    </g>
    <g id="xtick_5">
     <g id="line2d_9">
      <path d="M 469.063636 576.72 
L 469.063636 77.76 
" clip-path="url(#pee57afb514)" style="fill: none; stroke: #b0b0b0; stroke-width: 0.1; stroke-linecap: square"/>
     </g>
     <g id="line2d_10">
      <g>
       <use xlink:href="#m509d03ae70" x="469.063636" y="576.72" style="stroke: #000000; stroke-width: 0.8"/>
      </g>
     </g>
     <g id="text_5">
      <!-- 2000 -->
      <g transform="translate(456.338636 591.318438) scale(0.1 -0.1)">
       <defs>
        <path id="DejaVuSans-32" d="M 1228 531 
L 3431 531 
L 3431 0 
L 469 0 
L 469 531 
Q 828 903 1448 1529 
Q 2069 2156 2228 2338 
Q 2531 2678 2651 2914 
Q 2772 3150 2772 3378 
Q 2772 3750 2511 3984 
Q 2250 4219 1831 4219 
Q 1534 4219 1204 4116 
Q 875 4013 500 3803 
L 500 4441 
Q 881 4594 1212 4672 
Q 1544 4750 1819 4750 
Q 2544 4750 2975 4387 
Q 3406 4025 3406 3419 
Q 3406 3131 3298 2873 
Q 3191 2616 2906 2266 
Q 2828 2175 2409 1742 
Q 1991 1309 1228 531 
z
" transform="scale(0.015625)"/>
       </defs>
       <use xlink:href="#DejaVuSans-32"/>
       <use xlink:href="#DejaVuSans-30" x="63.623047"/>
       <use xlink:href="#DejaVuSans-30" x="127.246094"/>
       <use xlink:href="#DejaVuSans-30" x="190.869141"/>
      </g>
     </g>
    </g>
    <g id="xtick_6">
     <g id="line2d_11">
      <path d="M 560.372727 576.72 
L 560.372727 77.76 
" clip-path="url(#pee57afb514)" style="fill: none; stroke: #b0b0b0; stroke-width: 0.1; stroke-linecap: square"/>
     </g>
     <g id="line2d_12">
      <g>
       <use xlink:href="#m509d03ae70" x="560.372727" y="576.72" style="stroke: #000000; stroke-width: 0.8"/>
      </g>
     </g>
     <g id="text_6">
      <!-- 2500 -->
      <g transform="translate(547.647727 591.318438) scale(0.1 -0.1)">
       <use xlink:href="#DejaVuSans-32"/>
       <use xlink:href="#DejaVuSans-35" x="63.623047"/>
       <use xlink:href="#DejaVuSans-30" x="127.246094"/>
       <use xlink:href="#DejaVuSans-30" x="190.869141"/>
      </g>
     </g>
    </g>
    <g id="text_7">
     <!-- Predator population -->
     <g transform="translate(282.64375 604.996562) scale(0.1 -0.1)">
      <defs>
       <path id="DejaVuSans-50" d="M 1259 4147 
L 1259 2394 
L 2053 2394 
Q 2494 2394 2734 2622 
Q 2975 2850 2975 3272 
Q 2975 3691 2734 3919 
Q 2494 4147 2053 4147 
L 1259 4147 
z
M 628 4666 
L 2053 4666 
Q 2838 4666 3239 4311 
Q 3641 3956 3641 3272 
Q 3641 2581 3239 2228 
Q 2838 1875 2053 1875 
L 1259 1875 
L 1259 0 
L 628 0 
L 628 4666 
z
" transform="scale(0.015625)"/>
       <path id="DejaVuSans-72" d="M 2631 2963 
Q 2534 3019 2420 3045 
Q 2306 3072 2169 3072 
Q 1681 3072 1420 2755 
Q 1159 2438 1159 1844 
L 1159 0 
L 581 0 
L 581 3500 
L 1159 3500 
L 1159 2956 
Q 1341 3275 1631 3429 
Q 1922 3584 2338 3584 
Q 2397 3584 2469 3576 
Q 2541 3569 2628 3553 
L 2631 2963 
z
" transform="scale(0.015625)"/>
       <path id="DejaVuSans-65" d="M 3597 1894 
L 3597 1613 
L 953 1613 
Q 991 1019 1311 708 
Q 1631 397 2203 397 
Q 2534 397 2845 478 
Q 3156 559 3463 722 
L 3463 178 
Q 3153 47 2828 -22 
Q 2503 -91 2169 -91 
Q 1331 -91 842 396 
Q 353 884 353 1716 
Q 353 2575 817 3079 
Q 1281 3584 2069 3584 
Q 2775 3584 3186 3129 
Q 3597 2675 3597 1894 
z
M 3022 2063 
Q 3016 2534 2758 2815 
Q 2500 3097 2075 3097 
Q 1594 3097 1305 2825 
Q 1016 2553 972 2059 
L 3022 2063 
z
" transform="scale(0.015625)"/>
       <path id="DejaVuSans-64" d="M 2906 2969 
L 2906 4863 
L 3481 4863 
L 3481 0 
L 2906 0 
L 2906 525 
Q 2725 213 2448 61 
Q 2172 -91 1784 -91 
Q 1150 -91 751 415 
Q 353 922 353 1747 
Q 353 2572 751 3078 
Q 1150 3584 1784 3584 
Q 2172 3584 2448 3432 
Q 2725 3281 2906 2969 
z
M 947 1747 
Q 947 1113 1208 752 
Q 1469 391 1925 391 
Q 2381 391 2643 752 
Q 2906 1113 2906 1747 
Q 2906 2381 2643 2742 
Q 2381 3103 1925 3103 
Q 1469 3103 1208 2742 
Q 947 2381 947 1747 
z
" transform="scale(0.015625)"/>
       <path id="DejaVuSans-61" d="M 2194 1759 
Q 1497 1759 1228 1600 
Q 959 1441 959 1056 
Q 959 750 1161 570 
Q 1363 391 1709 391 
Q 2188 391 2477 730 
Q 2766 1069 2766 1631 
L 2766 1759 
L 2194 1759 
z
M 3341 1997 
L 3341 0 
L 2766 0 
L 2766 531 
Q 2569 213 2275 61 
Q 1981 -91 1556 -91 
Q 1019 -91 701 211 
Q 384 513 384 1019 
Q 384 1609 779 1909 
Q 1175 2209 1959 2209 
L 2766 2209 
L 2766 2266 
Q 2766 2663 2505 2880 
Q 2244 3097 1772 3097 
Q 1472 3097 1187 3025 
Q 903 2953 641 2809 
L 641 3341 
Q 956 3463 1253 3523 
Q 1550 3584 1831 3584 
Q 2591 3584 2966 3190 
Q 3341 2797 3341 1997 
z
" transform="scale(0.015625)"/>
       <path id="DejaVuSans-74" d="M 1172 4494 
L 1172 3500 
L 2356 3500 
L 2356 3053 
L 1172 3053 
L 1172 1153 
Q 1172 725 1289 603 
Q 1406 481 1766 481 
L 2356 481 
L 2356 0 
L 1766 0 
Q 1100 0 847 248 
Q 594 497 594 1153 
L 594 3053 
L 172 3053 
L 172 3500 
L 594 3500 
L 594 4494 
L 1172 4494 
z
" transform="scale(0.015625)"/>
       <path id="DejaVuSans-6f" d="M 1959 3097 
Q 1497 3097 1228 2736 
Q 959 2375 959 1747 
Q 959 1119 1226 758 
Q 1494 397 1959 397 
Q 2419 397 2687 759 
Q 2956 1122 2956 1747 
Q 2956 2369 2687 2733 
Q 2419 3097 1959 3097 
z
M 1959 3584 
Q 2709 3584 3137 3096 
Q 3566 2609 3566 1747 
Q 3566 888 3137 398 
Q 2709 -91 1959 -91 
Q 1206 -91 779 398 
Q 353 888 353 1747 
Q 353 2609 779 3096 
Q 1206 3584 1959 3584 
z
" transform="scale(0.015625)"/>
       <path id="DejaVuSans-20" transform="scale(0.015625)"/>
       <path id="DejaVuSans-70" d="M 1159 525 
L 1159 -1331 
L 581 -1331 
L 581 3500 
L 1159 3500 
L 1159 2969 
Q 1341 3281 1617 3432 
Q 1894 3584 2278 3584 
Q 2916 3584 3314 3078 
Q 3713 2572 3713 1747 
Q 3713 922 3314 415 
Q 2916 -91 2278 -91 
Q 1894 -91 1617 61 
Q 1341 213 1159 525 
z
M 3116 1747 
Q 3116 2381 2855 2742 
Q 2594 3103 2138 3103 
Q 1681 3103 1420 2742 
Q 1159 2381 1159 1747 
Q 1159 1113 1420 752 
Q 1681 391 2138 391 
Q 2594 391 2855 752 
Q 3116 1113 3116 1747 
z
" transform="scale(0.015625)"/>
       <path id="DejaVuSans-75" d="M 544 1381 
L 544 3500 
L 1119 3500 
L 1119 1403 
Q 1119 906 1312 657 
Q 1506 409 1894 409 
Q 2359 409 2629 706 
Q 2900 1003 2900 1516 
L 2900 3500 
L 3475 3500 
L 3475 0 
L 2900 0 
L 2900 538 
Q 2691 219 2414 64 
Q 2138 -91 1772 -91 
Q 1169 -91 856 284 
Q 544 659 544 1381 
z
M 1991 3584 
L 1991 3584 
z
" transform="scale(0.015625)"/>
       <path id="DejaVuSans-6c" d="M 603 4863 
L 1178 4863 
L 1178 0 
L 603 0 
L 603 4863 
z
" transform="scale(0.015625)"/>
       <path id="DejaVuSans-69" d="M 603 3500 
L 1178 3500 
L 1178 0 
L 603 0 
L 603 3500 
z
M 603 4863 
L 1178 4863 
L 1178 4134 
L 603 4134 
L 603 4863 
z
" transform="scale(0.015625)"/>
       <path id="DejaVuSans-6e" d="M 3513 2113 
L 3513 0 
L 2938 0 
L 2938 2094 
Q 2938 2591 2744 2837 
Q 2550 3084 2163 3084 
Q 1697 3084 1428 2787 
Q 1159 2491 1159 1978 
L 1159 0 
L 581 0 
L 581 3500 
L 1159 3500 
L 1159 2956 
Q 1366 3272 1645 3428 
Q 1925 3584 2291 3584 
Q 2894 3584 3203 3211 
Q 3513 2838 3513 2113 
z
" transform="scale(0.015625)"/>
      </defs>
      <use xlink:href="#DejaVuSans-50"/>
      <use xlink:href="#DejaVuSans-72" x="58.552734"/>
      <use xlink:href="#DejaVuSans-65" x="97.416016"/>
      <use xlink:href="#DejaVuSans-64" x="158.939453"/>
      <use xlink:href="#DejaVuSans-61" x="222.416016"/>
      <use xlink:href="#DejaVuSans-74" x="283.695312"/>
      <use xlink:href="#DejaVuSans-6f" x="322.904297"/>
      <use xlink:href="#DejaVuSans-72" x="384.085938"/>
      <use xlink:href="#DejaVuSans-20" x="425.199219"/>
      <use xlink:href="#DejaVuSans-70" x="456.986328"/>
      <use xlink:href="#DejaVuSans-6f" x="520.462891"/>
      <use xlink:href="#DejaVuSans-70" x="581.644531"/>
      <use xlink:href="#DejaVuSans-75" x="645.121094"/>
      <use xlink:href="#DejaVuSans-6c" x="708.5"/>
      <use xlink:href="#DejaVuSans-61" x="736.283203"/>
      <use xlink:href="#DejaVuSans-74" x="797.5625"/>
      <use xlink:href="#DejaVuSans-69" x="836.771484"/>
      <use xlink:href="#DejaVuSans-6f" x="864.554688"/>
      <use xlink:href="#DejaVuSans-6e" x="925.736328"/>
     </g>
    </g>
   </g>
   <g id="matplotlib.axis_2">
    <g id="ytick_1">
     <g id="line2d_13">
      <path d="M 81 554.04 
L 583.2 554.04 
" clip-path="url(#pee57afb514)" style="fill: none; stroke: #b0b0b0; stroke-width: 0.1; stroke-linecap: square"/>
     </g>
     <g id="line2d_14">
      <defs>
       <path id="m1bfacf3e4e" d="M 0 0 
L -3.5 0 
" style="stroke: #000000; stroke-width: 0.8"/>
      </defs>
      <g>
       <use xlink:href="#m1bfacf3e4e" x="81" y="554.04" style="stroke: #000000; stroke-width: 0.8"/>
      </g>
     </g>
     <g id="text_8">
      <!-- 0 -->
      <g transform="translate(67.6375 557.839219) scale(0.1 -0.1)">
       <use xlink:href="#DejaVuSans-30"/>
      </g>
     </g>
    </g>
    <g id="ytick_2">
     <g id="line2d_15">
      <path d="M 81 463.32 
L 583.2 463.32 
" clip-path="url(#pee57afb514)" style="fill: none; stroke: #b0b0b0; stroke-width: 0.1; stroke-linecap: square"/>
     </g>
     <g id="line2d_16">
      <g>
       <use xlink:href="#m1bfacf3e4e" x="81" y="463.32" style="stroke: #000000; stroke-width: 0.8"/>
      </g>
     </g>
     <g id="text_9">
      <!-- 500 -->
      <g transform="translate(54.9125 467.119219) scale(0.1 -0.1)">
       <use xlink:href="#DejaVuSans-35"/>
       <use xlink:href="#DejaVuSans-30" x="63.623047"/>
       <use xlink:href="#DejaVuSans-30" x="127.246094"/>
      </g>
     </g>
    </g>
    <g id="ytick_3">
     <g id="line2d_17">
      <path d="M 81 372.6 
L 583.2 372.6 
" clip-path="url(#pee57afb514)" style="fill: none; stroke: #b0b0b0; stroke-width: 0.1; stroke-linecap: square"/>
     </g>
     <g id="line2d_18">
      <g>
       <use xlink:href="#m1bfacf3e4e" x="81" y="372.6" style="stroke: #000000; stroke-width: 0.8"/>
      </g>
     </g>
     <g id="text_10">
      <!-- 1000 -->
      <g transform="translate(48.55 376.399219) scale(0.1 -0.1)">
       <use xlink:href="#DejaVuSans-31"/>
       <use xlink:href="#DejaVuSans-30" x="63.623047"/>
       <use xlink:href="#DejaVuSans-30" x="127.246094"/>
       <use xlink:href="#DejaVuSans-30" x="190.869141"/>
      </g>
     </g>
    </g>
    <g id="ytick_4">
     <g id="line2d_19">
      <path d="M 81 281.88 
L 583.2 281.88 
" clip-path="url(#pee57afb514)" style="fill: none; stroke: #b0b0b0; stroke-width: 0.1; stroke-linecap: square"/>
     </g>
     <g id="line2d_20">
      <g>
       <use xlink:href="#m1bfacf3e4e" x="81" y="281.88" style="stroke: #000000; stroke-width: 0.8"/>
      </g>
     </g>
     <g id="text_11">
      <!-- 1500 -->
      <g transform="translate(48.55 285.679219) scale(0.1 -0.1)">
       <use xlink:href="#DejaVuSans-31"/>
       <use xlink:href="#DejaVuSans-35" x="63.623047"/>
       <use xlink:href="#DejaVuSans-30" x="127.246094"/>
       <use xlink:href="#DejaVuSans-30" x="190.869141"/>
      </g>
     </g>
    </g>
    <g id="ytick_5">
     <g id="line2d_21">
      <path d="M 81 191.16 
L 583.2 191.16 
" clip-path="url(#pee57afb514)" style="fill: none; stroke: #b0b0b0; stroke-width: 0.1; stroke-linecap: square"/>
     </g>
     <g id="line2d_22">
      <g>
       <use xlink:href="#m1bfacf3e4e" x="81" y="191.16" style="stroke: #000000; stroke-width: 0.8"/>
      </g>
     </g>
     <g id="text_12">
      <!-- 2000 -->
      <g transform="translate(48.55 194.959219) scale(0.1 -0.1)">
       <use xlink:href="#DejaVuSans-32"/>
       <use xlink:href="#DejaVuSans-30" x="63.623047"/>
       <use xlink:href="#DejaVuSans-30" x="127.246094"/>
       <use xlink:href="#DejaVuSans-30" x="190.869141"/>
      </g>
     </g>
    </g>
    <g id="ytick_6">
     <g id="line2d_23">
      <path d="M 81 100.44 
L 583.2 100.44 
" clip-path="url(#pee57afb514)" style="fill: none; stroke: #b0b0b0; stroke-width: 0.1; stroke-linecap: square"/>
     </g>
     <g id="line2d_24">
      <g>
       <use xlink:href="#m1bfacf3e4e" x="81" y="100.44" style="stroke: #000000; stroke-width: 0.8"/>
      </g>
     </g>
     <g id="text_13">
      <!-- 2500 -->
      <g transform="translate(48.55 104.239219) scale(0.1 -0.1)">
       <use xlink:href="#DejaVuSans-32"/>
       <use xlink:href="#DejaVuSans-35" x="63.623047"/>
       <use xlink:href="#DejaVuSans-30" x="127.246094"/>
       <use xlink:href="#DejaVuSans-30" x="190.869141"/>
      </g>
     </g>
    </g>
    <g id="text_14">
     <!-- Prey population -->
     <g transform="translate(42.470312 366.342344) rotate(-90) scale(0.1 -0.1)">
      <defs>
       <path id="DejaVuSans-79" d="M 2059 -325 
Q 1816 -950 1584 -1140 
Q 1353 -1331 966 -1331 
L 506 -1331 
L 506 -850 
L 844 -850 
Q 1081 -850 1212 -737 
Q 1344 -625 1503 -206 
L 1606 56 
L 191 3500 
L 800 3500 
L 1894 763 
L 2988 3500 
L 3597 3500 
L 2059 -325 
z
" transform="scale(0.015625)"/>
      </defs>
      <use xlink:href="#DejaVuSans-50"/>
      <use xlink:href="#DejaVuSans-72" x="58.552734"/>
      <use xlink:href="#DejaVuSans-65" x="97.416016"/>
      <use xlink:href="#DejaVuSans-79" x="158.939453"/>
      <use xlink:href="#DejaVuSans-20" x="218.119141"/>
      <use xlink:href="#DejaVuSans-70" x="249.90625"/>
      <use xlink:href="#DejaVuSans-6f" x="313.382812"/>
      <use xlink:href="#DejaVuSans-70" x="374.564453"/>
      <use xlink:href="#DejaVuSans-75" x="438.041016"/>
      <use xlink:href="#DejaVuSans-6c" x="501.419922"/>
      <use xlink:href="#DejaVuSans-61" x="529.203125"/>
      <use xlink:href="#DejaVuSans-74" x="590.482422"/>
      <use xlink:href="#DejaVuSans-69" x="629.691406"/>
      <use xlink:href="#DejaVuSans-6f" x="657.474609"/>
      <use xlink:href="#DejaVuSans-6e" x="718.65625"/>
     </g>
    </g>
   </g>
   <g id="line2d_25">
    <path d="M 156.603927 424.85472 
L 167.195782 357.35904 
L 194.953745 331.41312 
L 239.329964 369.69696 
L 283.8888 422.67744 
L 287.541164 449.34912 
L 255.400364 460.77984 
L 232.755709 458.42112 
L 225.6336 451.70784 
L 220.702909 444.08736 
L 211.937236 434.65248 
L 217.050545 422.31456 
L 213.5808 418.14144 
L 213.5808 415.2384 
L 216.867927 407.79936 
L 221.981236 401.99328 
L 239.6952 409.97664 
L 252.478473 419.04864 
L 246.999927 417.0528 
L 237.869018 414.3312 
L 233.486182 414.14976 
L 234.216655 409.61376 
L 233.851418 409.7952 
L 233.120945 410.88384 
L 236.225455 411.79104 
L 242.799709 420.86304 
L 247.182545 424.85472 
L 246.634691 422.496 
L 244.991127 422.67744 
L 239.329964 415.60128 
L 238.234255 411.97248 
L 247.913018 412.15392 
L 258.504873 417.59712 
L 251.748 411.24672 
L 245.904218 408.888 
L 257.7744 414.3312 
L 268.914109 422.13312 
L 261.609382 422.31456 
L 241.704 414.87552 
L 231.294764 409.61376 
L 244.078036 409.97664 
L 251.565382 411.97248 
L 247.913018 413.60544 
L 253.7568 411.79104 
L 257.957018 413.78688 
L 254.304655 412.87968 
L 258.870109 416.87136 
L 260.148436 413.60544 
L 256.130836 412.87968 
L 243.347564 411.24672 
L 240.060436 410.7024 
L 244.625891 411.42816 
L 244.260655 413.424 
L 247.182545 417.23424 
L 250.104436 420.31872 
L 252.661091 423.76608 
L 247.7304 426.1248 
L 240.973527 417.96 
L 238.051636 411.42816 
L 240.060436 414.3312 
L 255.7656 415.2384 
L 261.974618 422.31456 
L 261.426764 419.23008 
L 251.017527 419.04864 
L 247.182545 411.6096 
L 240.243055 405.44064 
L 235.129745 394.00992 
L 241.521382 394.00992 
L 257.226545 397.45728 
L 265.992218 412.5168 
L 268.548873 418.50432 
L 260.513673 424.49184 
L 259.235345 421.77024 
L 245.7216 413.96832 
L 240.608291 406.89216 
L 246.086836 408.16224 
L 257.591782 410.33952 
L 264.348655 414.87552 
L 260.148436 424.12896 
L 260.878909 424.3104 
L 247.913018 422.13312 
L 240.425673 406.71072 
L 246.452073 402.35616 
L 249.373964 401.81184 
L 257.226545 409.25088 
L 268.183636 428.48352 
L 256.313455 429.7536 
L 241.886618 429.20928 
L 236.590691 419.04864 
L 224.720509 407.43648 
L 232.755709 429.57216 
L 245.538982 444.81312 
L 226.729309 439.18848 
L 212.119855 431.93088 
L 216.867927 432.11232 
L 221.068145 429.02784 
L 223.6248 431.93088 
L 233.486182 430.11648 
L 231.842618 435.74112 
L 232.025236 436.64832 
L 230.746909 436.82976 
L 227.6424 428.66496 
L 227.277164 431.568 
L 229.468582 435.37824 
L 225.6336 432.83808 
L 219.241964 422.85888 
L 218.876727 428.66496 
L 219.6072 430.29792 
L 218.146255 428.66496 
L 224.537891 427.032 
L 222.894327 426.66912 
L 227.094545 419.7744 
L 226.546691 417.0528 
L 238.051636 423.4032 
L 253.026327 437.73696 
L 250.287055 446.80896 
L 236.955927 442.27296 
L 222.894327 437.19264 
L 218.694109 429.7536 
L 214.311273 426.48768 
L 218.328873 433.74528 
L 233.303564 441.18432 
L 230.929527 436.28544 
L 222.529091 438.64416 
L 220.337673 428.30208 
L 209.745818 420.13728 
L 211.206764 421.40736 
L 225.6336 427.39488 
L 238.416873 437.55552 
L 238.964727 443.72448 
L 235.494982 436.46688 
L 221.250764 431.38656 
L 222.711709 423.76608 
L 232.938327 429.7536 
L 245.904218 437.9184 
L 240.973527 432.83808 
L 225.6336 425.76192 
L 221.068145 417.77856 
L 217.415782 412.69824 
L 221.068145 414.69408 
L 225.268364 420.6816 
L 231.477382 426.85056 
L 246.086836 440.82144 
L 240.973527 444.99456 
L 229.103345 447.17184 
L 225.816218 435.74112 
L 232.573091 433.01952 
L 232.207855 426.1248 
L 230.199055 429.93504 
L 234.399273 431.568 
L 227.825018 427.57632 
L 223.807418 422.31456 
L 223.6248 423.94752 
L 223.259564 419.95584 
L 223.259564 420.86304 
L 234.947127 428.12064 
L 236.773309 430.6608 
L 230.746909 428.30208 
L 221.068145 423.04032 
L 224.355273 423.58464 
L 230.199055 425.76192 
L 234.947127 424.67328 
L 241.338764 419.95584 
L 239.877818 420.6816 
L 248.278255 425.94336 
L 247.182545 427.21344 
L 245.538982 422.85888 
L 248.460873 422.67744 
L 250.104436 423.04032 
L 245.904218 418.68576 
L 241.521382 412.33536 
L 247.913018 415.2384 
L 255.582982 412.5168 
L 257.226545 418.68576 
L 262.339855 424.3104 
L 260.696291 428.30208 
L 250.469673 429.57216 
L 243.895418 423.4032 
L 239.512582 413.96832 
L 238.416873 411.24672 
L 244.260655 404.53344 
L 243.895418 401.6304 
L 260.878909 411.97248 
L 284.436655 430.84224 
L 286.628073 438.28128 
L 264.348655 436.104 
L 246.817309 427.9392 
L 236.773309 413.78688 
L 242.617091 403.4448 
L 255.035127 403.62624 
L 266.905309 415.2384 
L 270.922909 424.85472 
L 265.992218 431.20512 
L 259.600582 425.03616 
L 253.7568 422.85888 
L 259.7832 421.95168 
L 266.540073 416.50848 
L 264.348655 410.15808 
L 252.661091 404.53344 
L 259.417964 413.60544 
L 269.8272 419.23008 
L 264.713891 423.22176 
L 260.331055 426.48768 
L 257.591782 423.4032 
L 248.460873 402.5376 
L 257.043927 395.28 
L 269.8272 394.73568 
L 278.775491 397.63872 
L 285.714982 402.5376 
L 292.471855 412.5168 
L 288.271636 413.96832 
L 276.766691 410.7024 
L 277.497164 405.2592 
L 277.314545 401.08608 
L 277.131927 399.99744 
L 280.236436 400.54176 
L 286.080218 404.71488 
L 289.184727 407.25504 
L 289.184727 401.81184 
L 275.8536 398.72736 
L 278.958109 399.816 
L 286.993309 405.44064 
L 291.010909 413.24256 
L 281.697382 408.34368 
L 277.131927 402.5376 
L 280.966909 392.19552 
L 282.610473 396.36864 
L 287.9064 382.39776 
L 291.193527 372.78144 
L 295.9416 367.33824 
L 299.593964 366.43104 
L 301.237527 371.6928 
L 299.411345 377.31744 
L 299.228727 385.84512 
L 294.115418 390.92544 
L 281.697382 386.57088 
L 272.201236 371.51136 
L 270.740291 357.72192 
L 287.175927 366.2496 
L 311.646764 385.84512 
L 321.508145 404.71488 
L 307.263927 409.7952 
L 286.080218 399.99744 
L 261.244145 377.136 
L 257.7744 368.064 
L 265.8096 365.3424 
L 277.679782 368.42688 
L 277.131927 361.7136 
L 298.315636 386.38944 
L 314.0208 405.2592 
L 297.9504 401.44896 
L 274.940509 388.38528 
L 259.7832 376.95456 
L 258.687491 366.2496 
L 284.801891 366.43104 
L 299.228727 375.50304 
L 299.9592 389.11104 
L 300.507055 403.62624 
L 312.194618 413.96832 
L 307.446545 415.96416 
L 278.958109 402.5376 
L 261.974618 389.8368 
L 254.304655 366.43104 
L 254.852509 337.76352 
L 261.609382 324.33696 
L 306.350836 373.87008 
L 319.864582 394.55424 
L 311.464145 390.19968 
L 289.002109 386.02656 
L 275.488364 373.14432 
L 270.557673 354.27456 
L 272.931709 351.91584 
L 278.227636 350.8272 
L 281.697382 355.00032 
L 290.280436 359.17344 
L 288.636873 360.08064 
L 284.619273 360.08064 
L 295.393745 360.26208 
L 291.558764 364.07232 
L 290.463055 375.14016 
L 302.881091 384.3936 
L 301.420145 382.39776 
L 285.349745 373.32576 
L 281.149527 367.88256 
L 271.836 344.65824 
L 258.322255 324.5184 
L 255.7656 313.632 
L 277.314545 326.87712 
L 304.889891 352.82304 
L 326.0736 384.57504 
L 335.387127 399.27168 
L 314.568655 394.19136 
L 285.8976 371.51136 
L 259.600582 351.19008 
L 247.913018 335.76768 
L 254.122036 323.06688 
L 281.149527 329.59872 
L 297.219927 342.84384 
L 304.524655 365.16096 
L 299.9592 380.22048 
L 302.333236 382.76064 
L 287.541164 369.8784 
L 258.504873 345.20256 
L 248.278255 325.96992 
L 253.939418 319.61952 
L 277.131927 327.42144 
L 289.549964 335.94912 
L 304.342036 359.71776 
L 306.168218 373.87008 
L 299.593964 380.7648 
L 287.175927 374.77728 
L 285.532364 364.97952 
L 286.080218 355.00032 
L 288.454255 357.72192 
L 297.767782 363.89088 
L 306.168218 374.23296 
L 321.690764 381.49056 
L 321.142909 393.28416 
L 321.325527 392.01408 
L 307.263927 392.92128 
L 294.115418 387.47808 
L 291.193527 378.0432 
L 284.984509 362.07648 
L 281.332145 351.00864 
L 277.679782 338.30784 
L 275.305745 332.6832 
L 275.305745 328.32864 
L 282.975709 336.67488 
L 295.9416 358.0848 
L 315.664364 376.59168 
L 329.360727 388.38528 
L 324.612655 392.73984 
L 310.916291 403.80768 
L 295.9416 394.91712 
L 282.793091 368.78976 
L 261.244145 337.58208 
L 254.304655 319.25664 
L 267.453164 317.44224 
L 298.133018 336.13056 
L 329.543345 370.42272 
L 352.553236 407.79936 
L 350.361818 434.10816 
L 324.430036 422.67744 
L 286.262836 384.03072 
L 242.617091 340.30368 
L 242.982327 322.34112 
L 259.7832 321.97824 
L 293.750182 341.93664 
L 318.586255 367.70112 
L 336.1176 384.21216 
L 337.395927 397.63872 
L 333.560945 405.80352 
L 313.472945 400.7232 
L 289.002109 386.38944 
L 268.731491 360.44352 
L 273.8448 349.55712 
L 277.679782 347.01696 
L 294.845891 353.18592 
L 321.142909 374.23296 
L 331.917382 394.00992 
L 321.508145 395.64288 
L 304.707273 394.55424 
L 276.949309 371.87424 
L 257.043927 340.848 
L 251.565382 319.9824 
L 269.279345 317.07936 
L 304.707273 343.5696 
L 339.039491 375.3216 
L 352.370618 405.2592 
L 348.900873 418.8672 
L 318.0384 410.52096 
L 284.254036 373.68864 
L 258.322255 342.84384 
L 248.095636 328.87296 
L 262.887709 326.15136 
L 284.254036 329.59872 
L 312.194618 346.83552 
L 335.569745 380.22048 
L 350.544436 418.14144 
L 339.404727 426.66912 
L 305.072509 392.92128 
L 259.235345 353.5488 
L 228.920727 324.88128 
L 234.399273 310.54752 
L 272.566473 316.3536 
L 318.586255 343.93248 
L 345.065891 390.38112 
L 355.657745 420.50016 
L 349.813964 442.63584 
L 327.169309 440.64 
L 282.610473 408.16224 
L 240.060436 360.26208 
L 215.406982 318.89376 
L 222.163855 294.03648 
L 260.696291 311.09184 
L 308.907491 340.12224 
L 350.909673 392.73984 
L 364.423418 429.39072 
L 346.709455 439.00704 
L 305.9856 415.60128 
L 259.235345 374.95872 
L 237.138545 329.41728 
L 240.790909 317.62368 
L 270.740291 327.96576 
L 310.551055 352.82304 
L 339.222109 390.92544 
L 350.1792 417.96 
L 327.899782 415.78272 
L 295.028509 386.02656 
L 254.304655 362.6208 
L 232.573091 341.02944 
L 238.964727 325.60704 
L 257.226545 317.2608 
L 276.401455 324.88128 
L 297.402545 355.00032 
L 301.054909 375.3216 
L 287.541164 376.95456 
L 279.8712 374.77728 
L 278.775491 363.89088 
L 278.775491 347.56128 
L 269.8272 340.12224 
L 266.905309 348.1056 
L 287.541164 361.89504 
L 303.611564 369.15264 
L 297.402545 367.88256 
L 277.679782 363.528 
L 280.236436 357.90336 
L 288.636873 360.8064 
L 298.133018 368.24544 
L 301.420145 375.86592 
L 297.585164 370.96704 
L 287.175927 367.88256 
L 278.592873 368.064 
L 271.105527 358.0848 
L 266.722691 337.2192 
L 267.635782 339.9408 
L 282.975709 351.7344 
L 305.9856 376.04736 
L 331.734764 393.64704 
L 321.873382 399.27168 
L 295.758982 392.37696 
L 267.453164 382.03488 
L 247.547782 356.08896 
L 233.851418 324.15552 
L 244.443273 307.64448 
L 273.8448 321.07104 
L 305.255127 354.27456 
L 336.482836 397.27584 
L 341.596145 422.67744 
L 317.673164 431.38656 
L 277.497164 412.69824 
L 240.790909 375.3216 
L 221.798618 337.2192 
L 228.372873 321.25248 
L 253.574182 321.7968 
L 287.358545 351.19008 
L 315.664364 388.9296 
L 322.056 415.78272 
L 315.664364 437.0112 
L 291.376145 428.48352 
L 252.295855 399.09024 
L 225.6336 360.8064 
L 224.537891 335.94912 
L 251.017527 333.40896 
L 281.514764 348.46848 
L 305.072509 372.6 
L 312.377236 396.1872 
L 303.611564 410.15808 
L 285.8976 413.96832 
L 268.731491 401.08608 
L 252.843709 378.40608 
L 244.443273 360.08064 
L 260.331055 364.07232 
L 288.636873 378.40608 
L 306.716073 391.10688 
L 298.863491 395.09856 
L 271.105527 393.10272 
L 263.070327 385.48224 
L 260.696291 375.14016 
L 262.522473 363.89088 
L 267.270545 364.25376 
L 291.193527 378.58752 
L 308.177018 396.55008 
L 304.159418 401.08608 
L 278.045018 394.19136 
L 261.244145 374.05152 
L 264.166036 373.14432 
L 286.628073 376.77312 
L 285.714982 375.68448 
L 281.149527 377.86176 
L 284.071418 403.26336 
L 289.367345 421.22592 
L 282.610473 427.57632 
L 270.192436 423.04032 
L 251.930618 409.06944 
L 241.704 390.744 
L 254.304655 385.11936 
L 272.931709 386.75232 
L 282.610473 389.11104 
L 282.793091 397.45728 
L 286.628073 402.5376 
L 291.558764 405.80352 
L 291.924 405.44064 
L 285.8976 400.36032 
L 284.984509 398.72736 
L 291.010909 405.98496 
L 289.549964 409.25088 
L 287.9064 410.33952 
L 289.9152 415.2384 
L 283.523564 413.24256 
L 278.045018 410.33952 
L 281.88 402.90048 
L 282.062618 404.89632 
L 283.523564 400.90464 
L 275.8536 396.91296 
L 281.88 413.06112 
L 295.211127 424.85472 
L 285.532364 426.85056 
L 269.644582 420.50016 
L 270.375055 420.13728 
L 272.931709 425.76192 
L 266.357455 416.50848 
L 256.861309 409.7952 
L 265.992218 415.96416 
L 270.009818 413.424 
L 265.444364 417.0528 
L 269.8272 424.12896 
L 270.192436 429.7536 
L 264.348655 435.55968 
L 246.634691 423.76608 
L 235.6776 415.78272 
L 238.964727 408.34368 
L 250.287055 408.70656 
L 259.965818 414.87552 
L 268.183636 423.22176 
L 265.8096 426.30624 
L 267.270545 437.37408 
L 261.244145 439.18848 
L 246.452073 435.55968 
L 237.6864 428.48352 
L 230.929527 410.88384 
L 237.321164 405.62208 
L 247.365164 415.60128 
L 253.208945 423.58464 
L 251.748 426.85056 
L 243.347564 421.40736 
L 236.955927 410.7024 
L 237.321164 406.1664 
L 252.113236 422.13312 
L 256.496073 429.39072 
L 252.478473 438.46272 
L 243.7128 433.74528 
L 233.486182 425.76192 
L 230.016436 424.12896 
L 230.746909 419.95584 
L 237.138545 422.496 
L 243.347564 427.21344 
L 242.069236 431.02368 
L 236.955927 429.39072 
L 226.181455 423.04032 
L 218.146255 418.68576 
L 220.337673 421.04448 
L 226.546691 420.6816 
L 226.546691 424.67328 
L 234.399273 428.66496 
L 240.060436 435.01536 
L 241.521382 431.93088 
L 239.877818 438.8256 
L 234.216655 436.28544 
L 225.085745 430.29792 
L 217.415782 423.04032 
L 218.146255 420.50016 
L 222.346473 424.67328 
L 228.190255 427.39488 
L 229.285964 421.04448 
L 232.207855 419.23008 
L 232.573091 417.59712 
L 237.321164 424.3104 
L 242.434473 429.57216 
L 239.877818 437.73696 
L 230.016436 438.64416 
L 215.772218 434.83392 
L 213.946036 424.85472 
L 216.137455 425.76192 
L 220.520291 414.69408 
L 227.6424 412.15392 
L 238.234255 427.39488 
L 240.608291 433.74528 
L 235.129745 438.8256 
L 236.773309 439.00704 
L 235.494982 439.7328 
L 233.120945 444.2688 
L 230.016436 438.64416 
L 220.702909 435.01536 
L 218.511491 426.85056 
L 218.146255 424.85472 
L 217.415782 423.58464 
L 219.789818 424.67328 
L 225.816218 425.03616 
L 224.903127 426.1248 
L 231.294764 432.29376 
L 228.007636 436.64832 
L 226.729309 440.09568 
L 218.328873 430.11648 
L 216.137455 426.30624 
L 224.537891 425.2176 
L 221.250764 427.9392 
L 220.702909 429.93504 
L 218.146255 430.29792 
L 220.520291 426.66912 
L 220.885527 426.48768 
L 222.529091 422.85888 
L 224.172655 429.93504 
L 228.372873 431.20512 
L 230.199055 439.91424 
L 232.025236 432.83808 
L 224.355273 430.29792 
L 225.6336 431.74944 
L 225.816218 437.37408 
L 222.346473 438.28128 
L 228.738109 437.19264 
L 221.433382 433.92672 
L 215.5896 428.8464 
L 213.5808 432.11232 
L 205.728218 433.3824 
L 198.971345 425.2176 
L 201.345382 423.4032 
L 204.084655 429.39072 
L 208.102255 423.58464 
L 214.676509 421.22592 
L 219.6072 417.77856 
L 219.059345 409.43232 
L 217.963636 404.53344 
L 230.564291 394.55424 
L 245.7216 407.61792 
L 265.444364 419.23008 
L 263.252945 425.94336 
L 246.634691 427.39488 
L 239.512582 422.85888 
L 239.329964 414.87552 
L 240.243055 417.0528 
L 244.991127 415.78272 
L 240.243055 410.7024 
L 236.042836 408.70656 
L 241.338764 410.33952 
L 248.826109 415.2384 
L 252.843709 418.14144 
L 251.748 417.59712 
L 252.843709 422.67744 
L 259.600582 425.39904 
L 254.669891 428.66496 
L 242.799709 427.032 
L 235.312364 417.41568 
L 228.372873 408.70656 
L 227.459782 401.99328 
L 236.773309 405.62208 
L 245.538982 413.96832 
L 253.574182 422.85888 
L 247.913018 419.59296 
L 246.634691 417.77856 
L 248.460873 412.69824 
L 254.669891 411.97248 
L 254.669891 417.0528 
L 258.504873 415.41984 
L 250.104436 409.7952 
L 248.826109 407.43648 
L 251.930618 402.90048 
L 261.792 405.62208 
L 259.235345 409.97664 
L 263.070327 419.59296 
L 265.079127 418.14144 
L 265.444364 421.40736 
L 260.696291 423.94752 
L 246.269455 415.60128 
L 246.999927 415.05696 
L 250.469673 408.70656 
L 254.669891 411.42816 
L 256.678691 413.24256 
L 261.792 417.41568 
L 266.174836 419.59296 
L 252.113236 410.88384 
L 241.704 405.07776 
L 241.521382 399.816 
L 256.496073 400.36032 
L 268.914109 410.15808 
L 262.887709 417.23424 
L 251.382764 418.32288 
L 248.826109 409.97664 
L 253.391564 406.1664 
L 253.939418 412.15392 
L 260.878909 414.87552 
L 254.122036 420.86304 
L 249.373964 420.6816 
L 251.382764 417.0528 
L 258.504873 419.04864 
L 255.217745 417.96 
L 245.904218 423.04032 
L 243.895418 417.23424 
L 247.913018 415.05696 
L 253.939418 414.51264 
L 261.426764 416.50848 
L 257.226545 416.87136 
L 253.7568 416.1456 
L 249.921818 416.1456 
L 251.200145 411.97248 
L 261.609382 423.04032 
L 266.174836 418.8672 
L 256.496073 425.2176 
L 246.634691 420.86304 
L 237.503782 415.2384 
L 238.599491 413.96832 
L 240.608291 409.43232 
L 238.234255 411.06528 
L 242.434473 409.25088 
L 243.347564 416.1456 
L 244.808509 413.24256 
L 249.556582 416.68992 
L 255.217745 419.23008 
L 256.496073 423.04032 
L 251.930618 420.6816 
L 243.7128 419.04864 
L 241.886618 415.2384 
L 243.347564 406.71072 
L 250.104436 404.53344 
L 257.043927 408.888 
L 254.122036 415.2384 
L 258.870109 422.85888 
L 261.609382 425.76192 
L 243.7128 412.15392 
L 240.608291 410.15808 
L 250.287055 416.50848 
L 256.861309 421.77024 
L 248.278255 416.32704 
L 240.608291 417.23424 
L 240.243055 413.78688 
L 236.042836 408.52512 
L 241.338764 407.61792 
L 255.582982 416.87136 
L 259.235345 422.13312 
L 251.382764 421.95168 
L 239.512582 421.22592 
L 231.294764 414.3312 
L 231.66 404.17056 
L 237.503782 406.52928 
L 256.130836 409.25088 
L 264.713891 413.78688 
L 263.618182 418.68576 
L 253.391564 413.24256 
L 251.382764 414.3312 
L 252.113236 408.52512 
L 256.313455 416.68992 
L 256.496073 421.77024 
L 253.208945 422.85888 
L 245.538982 421.22592 
L 238.416873 418.50432 
L 239.512582 412.69824 
L 249.556582 409.25088 
L 246.817309 415.96416 
L 244.078036 416.50848 
L 241.338764 415.60128 
L 243.7128 409.25088 
L 237.869018 408.888 
L 242.069236 415.60128 
L 244.808509 414.3312 
L 256.678691 424.3104 
L 265.444364 428.12064 
L 259.965818 422.13312 
L 254.304655 424.67328 
L 246.634691 421.95168 
L 245.7216 416.1456 
L 242.982327 413.96832 
L 240.790909 409.61376 
L 252.113236 414.3312 
L 257.226545 419.41152 
L 249.191345 415.41984 
L 249.556582 416.1456 
L 249.7392 414.87552 
L 247.7304 412.87968 
L 245.7216 414.3312 
L 248.460873 410.15808 
L 238.782109 409.61376 
L 238.416873 409.43232 
L 240.608291 405.07776 
L 251.565382 410.7024 
L 260.878909 416.50848 
L 264.531273 425.03616 
L 253.574182 424.85472 
L 239.512582 415.60128 
L 236.955927 403.08192 
L 245.538982 400.36032 
L 258.870109 403.08192 
L 267.453164 414.69408 
L 270.557673 422.496 
L 263.070327 427.21344 
L 246.999927 421.5888 
L 237.138545 410.88384 
L 238.964727 406.71072 
L 243.7128 401.81184 
L 250.469673 406.34784 
L 258.504873 415.2384 
L 256.313455 412.87968 
L 250.652291 407.43648 
L 251.017527 413.78688 
L 258.870109 424.85472 
L 256.678691 429.02784 
L 251.565382 441.00288 
L 240.060436 446.62752 
L 221.250764 441.91008 
L 211.024145 433.20096 
L 212.119855 422.13312 
L 213.398182 422.13312 
L 213.5808 426.85056 
L 201.528 421.5888 
L 196.414691 416.1456 
L 198.423491 417.41568 
L 205.362982 423.58464 
L 208.284873 425.94336 
L 211.206764 434.2896 
L 213.5808 434.83392 
L 216.137455 428.8464 
L 217.781018 427.21344 
L 224.355273 429.02784 
L 231.66 432.11232 
L 232.390473 430.11648 
L 229.103345 432.29376 
L 222.894327 425.39904 
L 214.311273 423.22176 
L 213.763418 418.50432 
L 220.155055 422.85888 
L 228.372873 420.50016 
L 235.129745 423.58464 
L 235.860218 429.93504 
L 233.6688 433.92672 
L 234.216655 432.4752 
L 229.285964 437.37408 
L 227.825018 436.104 
L 230.016436 432.4752 
L 218.876727 421.5888 
L 218.511491 421.5888 
L 232.938327 422.85888 
L 233.851418 424.49184 
L 228.738109 427.21344 
L 222.894327 429.39072 
L 222.711709 431.93088 
L 225.998836 428.66496 
L 223.442182 425.76192 
L 232.207855 432.65664 
L 236.408073 436.104 
L 239.329964 436.64832 
L 238.234255 439.00704 
L 227.6424 431.93088 
L 223.807418 424.12896 
L 227.6424 425.39904 
L 225.6336 418.14144 
L 231.477382 414.87552 
L 242.617091 428.30208 
L 249.921818 438.46272 
L 238.416873 439.18848 
L 227.459782 435.1968 
L 234.947127 431.02368 
L 236.408073 431.38656 
L 227.277164 428.12064 
L 216.685309 416.68992 
L 221.981236 419.04864 
L 240.973527 431.02368 
L 246.634691 434.83392 
L 233.851418 431.93088 
L 229.833818 430.6608 
L 230.381673 427.032 
L 229.6512 415.60128 
L 230.199055 413.60544 
L 234.581891 424.49184 
L 240.973527 431.93088 
L 240.790909 434.83392 
L 235.312364 434.2896 
L 229.285964 426.85056 
L 231.842618 424.67328 
L 234.947127 424.49184 
L 229.6512 418.50432 
L 234.764509 420.86304 
L 237.869018 424.85472 
L 231.112145 417.41568 
L 232.755709 419.23008 
L 247.182545 421.5888 
L 252.295855 429.93504 
L 255.948218 429.02784 
L 261.061527 432.83808 
L 255.948218 429.7536 
L 249.373964 423.04032 
L 247.547782 418.8672 
L 252.295855 419.7744 
L 253.939418 414.87552 
L 259.052727 417.96 
L 257.957018 423.04032 
L 252.661091 420.50016 
L 248.826109 410.7024 
L 259.417964 415.2384 
L 267.087927 419.41152 
L 265.261745 426.1248 
L 258.322255 428.8464 
L 238.416873 421.40736 
L 233.486182 418.68576 
L 244.078036 416.1456 
L 251.748 420.86304 
L 255.035127 423.04032 
L 254.487273 419.41152 
L 247.365164 413.06112 
L 244.260655 409.06944 
L 255.035127 415.41984 
L 266.174836 415.2384 
L 266.357455 418.68576 
L 259.7832 417.77856 
L 256.130836 416.68992 
L 257.957018 413.96832 
L 255.948218 410.15808 
L 256.678691 411.79104 
L 260.878909 411.79104 
L 258.687491 408.34368 
L 258.139636 411.97248 
L 264.531273 415.41984 
L 262.522473 404.53344 
L 261.244145 391.46976 
L 264.896509 388.74816 
L 277.679782 398.72736 
L 293.9328 407.79936 
L 286.445455 407.0736 
L 282.245236 408.16224 
L 280.419055 405.44064 
L 269.8272 397.63872 
L 266.722691 393.10272 
L 283.706182 396.00576 
L 290.280436 397.63872 
L 282.610473 398.0016 
L 290.828291 407.0736 
L 299.411345 412.15392 
L 285.349745 404.352 
L 271.105527 399.63456 
L 274.575273 394.00992 
L 283.8888 399.45312 
L 289.549964 403.98912 
L 291.193527 406.52928 
L 280.966909 401.99328 
L 282.062618 404.71488 
L 295.758982 383.4864 
L 289.184727 374.05152 
L 283.8888 368.064 
L 295.211127 370.05984 
L 310.185818 385.3008 
L 312.012 397.45728 
L 303.428945 406.52928 
L 287.9064 398.18304 
L 270.192436 374.59584 
L 263.070327 357.54048 
L 280.601673 357.72192 
L 301.968 365.52384 
L 308.177018 386.93376 
L 307.811782 405.98496 
L 307.081309 410.88384 
L 287.723782 402.35616 
L 266.905309 388.0224 
L 263.252945 380.7648 
L 272.749091 373.32576 
L 276.766691 365.52384 
L 288.454255 375.3216 
L 295.9416 383.30496 
L 298.315636 386.38944 
L 282.975709 380.40192 
L 272.201236 373.87008 
L 272.566473 363.70944 
L 285.714982 368.60832 
L 297.402545 384.57504 
L 306.716073 402.5376 
L 300.689673 401.81184 
L 272.566473 391.10688 
L 251.200145 376.04736 
L 249.008727 349.37568 
L 266.540073 338.67072 
L 292.289236 350.28288 
L 309.455345 376.59168 
L 309.637964 404.89632 
L 309.090109 413.06112 
L 279.8712 388.9296 
L 251.200145 368.78976 
L 253.026327 355.18176 
L 275.670982 342.29952 
L 291.741382 355.72608 
L 299.776582 378.22464 
L 297.037309 384.57504 
L 300.689673 381.49056 
L 285.349745 360.8064 
L 267.270545 348.83136 
L 262.887709 343.93248 
L 279.505964 348.46848 
L 298.863491 352.09728 
L 306.716073 366.2496 
L 304.707273 375.14016 
L 299.411345 379.31328 
L 283.706182 368.78976 
L 263.8008 342.48096 
L 259.235345 321.7968 
L 272.749091 334.67904 
L 301.237527 356.08896 
L 322.421236 379.67616 
L 320.960291 398.36448 
L 309.090109 405.62208 
L 288.636873 389.47392 
L 268.001018 358.81056 
L 256.496073 339.39648 
L 265.626982 338.1264 
L 287.9064 341.93664 
L 294.298036 348.46848 
L 289.367345 357.72192 
L 300.507055 364.79808 
L 304.159418 373.68864 
L 297.037309 364.79808 
L 283.8888 363.89088 
L 279.140727 354.27456 
L 272.931709 347.92416 
L 271.836 337.2192 
L 270.009818 329.23584 
L 280.053818 337.2192 
L 298.680873 361.53216 
L 318.586255 383.84928 
L 317.307927 389.8368 
L 294.115418 386.93376 
L 280.236436 379.67616 
L 273.662182 366.79392 
L 282.245236 356.99616 
L 293.567564 354.63744 
L 303.428945 360.8064 
L 316.942691 380.94624 
L 315.664364 381.672 
L 301.968 374.05152 
L 277.679782 361.89504 
L 277.314545 341.7552 
L 278.958109 336.312 
L 292.471855 353.36736 
L 307.081309 360.44352 
L 316.212218 369.33408 
L 323.882182 379.13184 
L 338.856873 400.36032 
L 335.021891 406.89216 
L 306.168218 391.10688 
L 279.688582 372.6 
L 263.252945 347.37984 
L 262.157236 314.90208 
L 274.392655 313.08768 
L 292.837091 334.86048 
L 318.951491 366.06816 
L 334.474036 388.38528 
L 326.256218 396.00576 
L 302.150618 384.03072 
L 272.383855 352.82304 
L 247.913018 328.69152 
L 244.991127 316.71648 
L 272.749091 321.25248 
L 312.925091 357.35904 
L 330.821673 377.136 
L 333.378327 393.64704 
L 318.403636 399.63456 
L 306.716073 394.3728 
L 294.480655 376.77312 
L 283.706182 352.6416 
L 270.557673 344.65824 
L 267.635782 330.32448 
L 289.002109 337.94496 
L 320.229818 366.2496 
L 339.587345 391.83264 
L 339.769964 405.07776 
L 317.490545 404.71488 
L 286.080218 382.76064 
L 266.357455 353.00448 
L 251.200145 322.88544 
L 243.7128 304.19712 
L 243.7128 304.19712 
" clip-path="url(#pee57afb514)" style="fill: none; stroke-dasharray: 5.55,2.4; stroke-dashoffset: 0; stroke: #008000; stroke-opacity: 0.7; stroke-width: 1.5"/>
   </g>
   <g id="line2d_26">
    <path d="M 81 77.76 
L 583.2 576.72 
" clip-path="url(#pee57afb514)" style="fill: none; stroke: #000000; stroke-width: 1.5; stroke-linecap: square"/>
   </g>
   <g id="line2d_27">
    <path d="M 81 554.04 
L 649 554.04 
" clip-path="url(#pee57afb514)" style="fill: none; stroke-dasharray: 9.6,2.4,1.5,2.4; stroke-dashoffset: 0; stroke: #000000; stroke-width: 1.5"/>
   </g>
   <g id="line2d_28">
    <path d="M 103.827273 576.72 
L 103.827273 -1 
" clip-path="url(#pee57afb514)" style="fill: none; stroke-dasharray: 9.6,2.4,1.5,2.4; stroke-dashoffset: 0; stroke: #000000; stroke-width: 1.5"/>
   </g>
   <g id="line2d_29">
    <path d="M 156.603927 424.85472 
L 164.821745 357.90336 
L 194.040655 333.22752 
L 242.251855 370.7856 
L 298.863491 422.67744 
L 319.316727 460.05408 
L 292.654473 476.74656 
L 236.590691 469.30752 
L 196.962545 451.88928 
L 190.205673 427.39488 
L 198.240873 406.71072 
L 208.832727 402.17472 
L 216.685309 401.99328 
L 234.947127 407.43648 
L 242.069236 414.14976 
L 240.425673 414.3312 
L 243.164945 414.87552 
L 244.078036 412.33536 
L 253.574182 418.14144 
L 253.7568 422.31456 
L 252.843709 421.5888 
L 253.7568 419.59296 
L 251.565382 416.68992 
L 244.260655 411.79104 
L 243.530182 410.88384 
L 253.391564 417.96 
L 261.426764 425.03616 
L 252.843709 427.75776 
L 242.982327 422.496 
L 234.034036 410.7024 
L 221.433382 394.55424 
L 223.990036 396.1872 
L 232.390473 396.00576 
L 238.782109 402.17472 
L 252.478473 412.15392 
L 260.513673 417.77856 
L 252.478473 419.59296 
L 250.469673 417.96 
L 250.469673 415.60128 
L 248.826109 409.25088 
L 253.574182 409.61376 
L 257.7744 415.78272 
L 250.287055 417.59712 
L 244.078036 415.78272 
L 250.104436 417.77856 
L 251.748 413.24256 
L 245.356364 409.61376 
L 246.452073 415.41984 
L 248.278255 412.5168 
L 247.365164 412.69824 
L 244.443273 417.96 
L 246.269455 409.97664 
L 244.808509 399.09024 
L 249.556582 407.25504 
L 259.965818 414.3312 
L 258.322255 419.41152 
L 251.930618 425.03616 
L 242.982327 416.87136 
L 239.329964 418.32288 
L 243.164945 412.15392 
L 243.895418 411.6096 
L 248.278255 412.87968 
L 246.086836 415.05696 
L 243.164945 413.06112 
L 239.512582 413.06112 
L 243.7128 414.69408 
L 239.512582 413.424 
L 234.034036 409.25088 
L 236.042836 411.42816 
L 247.182545 414.14976 
L 250.652291 420.13728 
L 243.7128 413.424 
L 236.773309 410.33952 
L 245.538982 415.2384 
L 258.139636 422.85888 
L 250.834909 423.22176 
L 245.538982 418.14144 
L 248.460873 419.23008 
L 246.269455 424.85472 
L 247.365164 424.85472 
L 246.086836 424.85472 
L 247.913018 421.5888 
L 243.7128 414.69408 
L 231.294764 407.0736 
L 228.738109 398.72736 
L 242.799709 407.61792 
L 256.313455 419.41152 
L 252.661091 422.67744 
L 247.913018 417.77856 
L 240.608291 405.2592 
L 243.7128 404.53344 
L 259.417964 435.01536 
L 264.531273 454.61088 
L 235.129745 451.16352 
L 211.937236 443.54304 
L 205.5456 433.3824 
L 205.180364 423.94752 
L 203.354182 422.85888 
L 205.180364 421.40736 
L 203.171564 419.95584 
L 201.710618 417.96 
L 205.728218 422.31456 
L 213.215564 424.3104 
L 219.424582 424.67328 
L 218.511491 420.6816 
L 221.433382 424.67328 
L 229.468582 424.3104 
L 229.468582 427.032 
L 230.199055 429.93504 
L 236.225455 430.6608 
L 248.460873 443.72448 
L 243.895418 439.55136 
L 230.199055 434.10816 
L 240.243055 434.2896 
L 242.434473 431.568 
L 246.086836 430.29792 
L 245.356364 431.93088 
L 238.599491 430.11648 
L 238.782109 427.032 
L 241.156145 422.496 
L 237.321164 427.9392 
L 240.060436 435.92256 
L 234.947127 436.28544 
L 230.929527 431.38656 
L 226.911927 432.83808 
L 228.190255 433.20096 
L 227.459782 431.02368 
L 226.546691 434.83392 
L 229.468582 438.09984 
L 235.129745 441.72864 
L 220.520291 432.11232 
L 209.380582 423.4032 
L 218.511491 425.2176 
L 224.355273 427.9392 
L 235.860218 431.74944 
L 241.886618 440.27712 
L 231.66 432.4752 
L 222.346473 426.85056 
L 221.433382 428.8464 
L 223.442182 426.66912 
L 226.546691 427.032 
L 233.6688 427.21344 
L 228.190255 421.95168 
L 221.616 424.49184 
L 228.738109 431.38656 
L 236.225455 433.74528 
L 242.251855 428.12064 
L 239.147345 429.39072 
L 241.338764 431.02368 
L 238.782109 429.02784 
L 233.6688 423.76608 
L 229.833818 422.496 
L 234.216655 422.31456 
L 237.503782 422.85888 
L 233.6688 426.85056 
L 234.947127 434.47104 
L 233.6688 431.74944 
L 229.103345 426.30624 
L 224.355273 416.1456 
L 224.355273 413.424 
L 239.147345 417.96 
L 252.113236 429.02784 
L 246.634691 426.1248 
L 243.164945 428.48352 
L 241.521382 433.74528 
L 238.051636 428.30208 
L 240.790909 430.11648 
L 244.991127 424.49184 
L 238.416873 420.31872 
L 231.842618 412.87968 
L 227.094545 405.44064 
L 231.294764 400.17888 
L 247.547782 409.25088 
L 268.548873 424.12896 
L 275.8536 437.9184 
L 269.644582 438.09984 
L 245.7216 429.93504 
L 234.581891 419.95584 
L 239.877818 411.6096 
L 254.122036 410.33952 
L 275.670982 418.50432 
L 282.793091 430.84224 
L 278.410255 435.01536 
L 261.974618 431.20512 
L 254.487273 427.75776 
L 241.886618 418.32288 
L 239.877818 410.52096 
L 248.643491 413.06112 
L 255.035127 413.78688 
L 255.7656 415.41984 
L 261.609382 417.41568 
L 260.878909 418.8672 
L 258.322255 417.0528 
L 257.591782 421.40736 
L 257.409164 418.50432 
L 251.200145 411.97248 
L 246.269455 408.52512 
L 255.7656 412.69824 
L 262.887709 412.69824 
L 259.052727 414.14976 
L 265.079127 420.31872 
L 264.896509 422.496 
L 260.513673 420.50016 
L 260.696291 405.44064 
L 243.530182 393.28416 
L 254.669891 393.28416 
L 274.210036 396.00576 
L 287.358545 403.62624 
L 293.202327 413.60544 
L 291.741382 426.1248 
L 277.314545 419.23008 
L 253.939418 404.53344 
L 257.957018 395.09856 
L 273.296945 391.10688 
L 276.584073 392.01408 
L 280.236436 398.9088 
L 277.497164 402.17472 
L 280.784291 404.17056 
L 279.688582 397.63872 
L 275.670982 397.0944 
L 278.227636 393.4656 
L 284.071418 397.27584 
L 290.645673 403.98912 
L 296.672073 404.89632 
L 276.036218 398.36448 
L 263.618182 387.84096 
L 268.183636 358.26624 
L 287.9064 356.63328 
L 304.707273 366.2496 
L 313.838182 384.93792 
L 324.0648 409.7952 
L 308.177018 413.06112 
L 277.131927 394.91712 
L 256.496073 372.23712 
L 248.278255 344.11392 
L 264.348655 342.11808 
L 301.054909 363.34656 
L 336.300218 401.81184 
L 327.351927 417.0528 
L 304.342036 420.31872 
L 275.305745 415.96416 
L 258.322255 392.19552 
L 251.200145 360.98784 
L 253.026327 338.30784 
L 260.696291 336.13056 
L 285.349745 353.91168 
L 316.0296 382.21632 
L 324.0648 408.34368 
L 314.203418 417.0528 
L 284.984509 406.71072 
L 255.948218 382.03488 
L 252.478473 362.07648 
L 261.061527 349.37568 
L 274.027418 351.7344 
L 290.645673 368.42688 
L 300.141818 378.9504 
L 309.272727 391.83264 
L 302.150618 395.28 
L 278.045018 377.31744 
L 254.304655 366.61248 
L 253.391564 363.16512 
L 263.983418 351.55296 
L 285.8976 358.0848 
L 302.515855 375.3216 
L 294.298036 384.3936 
L 283.523564 384.57504 
L 283.158327 377.31744 
L 275.123127 370.60416 
L 279.505964 371.87424 
L 283.8888 361.35072 
L 277.314545 351.00864 
L 269.461964 348.28704 
L 275.488364 357.35904 
L 299.411345 362.98368 
L 304.342036 369.15264 
L 304.524655 380.03904 
L 303.794182 384.93792 
L 295.758982 380.22048 
L 278.045018 360.98784 
L 264.348655 337.94496 
L 271.288145 334.31616 
L 291.741382 346.10976 
L 305.620364 361.16928 
L 306.533455 378.0432 
L 311.829382 385.84512 
L 305.255127 389.11104 
L 288.636873 377.86176 
L 268.731491 361.16928 
L 253.026327 340.848 
L 265.626982 332.6832 
L 282.610473 331.95744 
L 315.299127 358.26624 
L 334.839273 393.82848 
L 333.926182 411.79104 
L 303.9768 401.81184 
L 263.435564 376.41024 
L 239.6952 336.85632 
L 240.243055 306.91872 
L 254.852509 299.84256 
L 275.123127 315.26496 
L 306.350836 347.37984 
L 337.578545 387.47808 
L 341.961382 403.4448 
L 311.098909 395.82432 
L 273.479564 373.87008 
L 247.182545 338.48928 
L 243.347564 312.54336 
L 262.522473 303.28992 
L 292.289236 330.14304 
L 321.325527 368.9712 
L 326.256218 382.21632 
L 326.621455 389.11104 
L 308.907491 390.01824 
L 291.010909 379.13184 
L 274.940509 359.8992 
L 279.8712 350.10144 
L 294.845891 352.82304 
L 323.699564 371.87424 
L 333.195709 400.36032 
L 338.491636 419.95584 
L 323.151709 411.6096 
L 289.549964 373.14432 
L 266.540073 346.47264 
L 256.678691 328.51008 
L 267.8184 320.8896 
L 291.193527 322.88544 
L 314.386036 348.28704 
L 330.821673 376.59168 
L 330.456436 397.82016 
L 326.0736 398.72736 
L 299.776582 388.56672 
L 271.105527 363.70944 
L 248.095636 341.57376 
L 255.217745 323.97408 
L 275.123127 319.43808 
L 305.437745 347.1984 
L 330.456436 384.93792 
L 354.014182 416.87136 
L 353.283709 433.3824 
L 320.595055 426.85056 
L 275.488364 395.46144 
L 239.147345 344.29536 
L 230.746909 301.11264 
L 256.313455 288.41184 
L 291.010909 317.98656 
L 324.0648 365.16096 
L 356.570836 402.71904 
L 354.927273 420.86304 
L 325.343127 404.17056 
L 282.610473 374.59584 
L 254.122036 345.92832 
L 243.895418 322.88544 
L 260.148436 310.18464 
L 285.8976 317.44224 
L 306.533455 347.92416 
L 323.516945 375.86592 
L 341.230909 407.0736 
L 335.752364 409.7952 
L 303.794182 385.3008 
L 269.096727 363.16512 
L 242.982327 342.48096 
L 244.808509 318.53088 
L 274.027418 317.80512 
L 310.0032 345.02112 
L 330.273818 376.41024 
L 349.631345 400.54176 
L 348.1704 417.59712 
L 329.908582 415.96416 
L 293.567564 391.28832 
L 249.921818 350.64576 
L 224.720509 307.2816 
L 239.6952 287.68608 
L 280.236436 314.72064 
L 322.603855 355.3632 
L 361.136291 401.81184 
L 367.162691 431.20512 
L 346.526836 434.83392 
L 294.663273 414.51264 
L 241.338764 362.43936 
L 221.616 312.54336 
L 231.477382 286.96032 
L 270.192436 306.19296 
L 322.238618 347.01696 
L 360.040582 396.91296 
L 374.832655 432.65664 
L 359.127491 447.8976 
L 315.116509 419.59296 
L 267.087927 383.84928 
L 227.6424 339.9408 
L 223.990036 308.73312 
L 244.991127 292.7664 
L 276.218836 314.5392 
L 304.707273 344.11392 
L 331.917382 378.0432 
L 346.892073 405.07776 
L 352.553236 421.40736 
L 332.465236 421.77024 
L 297.767782 412.33536 
L 269.096727 388.9296 
L 253.574182 355.3632 
L 250.469673 335.04192 
L 254.487273 320.70816 
L 279.505964 331.23168 
L 311.829382 356.81472 
L 324.247418 379.8576 
L 326.256218 403.26336 
L 320.0472 408.52512 
L 305.802982 402.17472 
L 282.062618 388.20384 
L 258.504873 362.80224 
L 257.7744 345.20256 
L 265.261745 338.1264 
L 282.793091 341.39232 
L 293.750182 355.18176 
L 300.689673 373.32576 
L 309.637964 388.0224 
L 300.872291 382.5792 
L 286.080218 373.14432 
L 269.096727 356.63328 
L 256.678691 344.83968 
L 263.618182 339.39648 
L 281.697382 337.03776 
L 285.167127 344.29536 
L 280.784291 355.54464 
L 290.645673 365.52384 
L 301.054909 374.77728 
L 301.785382 380.7648 
L 296.672073 384.57504 
L 288.089018 381.85344 
L 280.966909 370.42272 
L 273.296945 352.82304 
L 265.8096 341.02944 
L 276.949309 335.94912 
L 292.654473 349.19424 
L 310.551055 370.60416 
L 306.898691 380.7648 
L 306.533455 390.01824 
L 294.663273 382.5792 
L 276.036218 365.3424 
L 265.992218 351.37152 
L 246.817309 331.776 
L 246.817309 315.4464 
L 263.618182 308.55168 
L 304.889891 344.4768 
L 347.257309 399.63456 
L 358.579636 431.20512 
L 330.456436 425.58048 
L 275.123127 399.816 
L 228.190255 369.8784 
L 232.390473 338.67072 
L 255.400364 312.90624 
L 287.723782 332.50176 
L 322.786473 374.95872 
L 347.074691 420.86304 
L 344.1528 442.63584 
L 305.072509 435.1968 
L 250.469673 404.89632 
L 218.328873 372.23712 
L 217.233164 340.48512 
L 240.060436 319.80096 
L 265.444364 327.05856 
L 297.9504 355.00032 
L 322.969091 396.1872 
L 320.960291 417.96 
L 300.324436 423.4032 
L 270.557673 400.17888 
L 253.026327 376.59168 
L 249.7392 365.88672 
L 265.8096 367.51968 
L 282.427855 374.95872 
L 290.645673 381.85344 
L 282.610473 376.2288 
L 272.931709 378.76896 
L 273.479564 378.58752 
L 271.105527 373.68864 
L 272.566473 375.3216 
L 275.123127 379.67616 
L 280.053818 381.85344 
L 271.288145 378.22464 
L 274.575273 383.12352 
L 287.358545 390.56256 
L 287.723782 388.20384 
L 282.793091 396.1872 
L 283.706182 394.55424 
L 278.958109 378.22464 
L 264.531273 373.14432 
L 261.609382 366.61248 
L 274.757891 370.7856 
L 289.367345 383.84928 
L 299.9592 394.3728 
L 288.636873 397.63872 
L 283.706182 420.13728 
L 276.401455 431.74944 
L 259.052727 422.67744 
L 236.955927 405.98496 
L 234.216655 387.47808 
L 250.834909 379.8576 
L 268.548873 384.21216 
L 282.245236 392.01408 
L 295.211127 410.15808 
L 310.551055 423.76608 
L 293.567564 418.50432 
L 265.444364 404.71488 
L 257.957018 394.55424 
L 262.522473 387.29664 
L 263.8008 379.67616 
L 273.296945 387.47808 
L 288.271636 401.6304 
L 299.593964 412.15392 
L 301.420145 421.04448 
L 293.202327 421.5888 
L 277.131927 418.50432 
L 260.148436 399.09024 
L 253.574182 385.48224 
L 271.653382 387.1152 
L 292.471855 399.99744 
L 303.246327 429.39072 
L 301.054909 439.36992 
L 274.575273 432.11232 
L 250.834909 419.59296 
L 249.556582 411.24672 
L 256.678691 405.07776 
L 266.540073 415.2384 
L 278.592873 424.49184 
L 273.296945 421.77024 
L 273.114327 425.03616 
L 263.618182 418.32288 
L 255.948218 414.69408 
L 258.504873 410.7024 
L 260.878909 415.78272 
L 264.166036 420.50016 
L 258.322255 422.496 
L 257.226545 422.13312 
L 255.7656 421.04448 
L 255.948218 424.85472 
L 260.513673 430.11648 
L 242.434473 419.04864 
L 221.433382 411.97248 
L 221.433382 401.81184 
L 238.051636 403.80768 
L 257.226545 407.61792 
L 268.548873 415.78272 
L 268.731491 425.2176 
L 266.540073 431.38656 
L 252.661091 421.04448 
L 244.625891 417.96 
L 244.078036 413.424 
L 247.365164 416.87136 
L 257.226545 421.22592 
L 257.043927 427.21344 
L 254.304655 425.76192 
L 251.748 421.95168 
L 239.147345 415.96416 
L 234.947127 407.79936 
L 243.530182 411.06528 
L 255.217745 418.32288 
L 246.999927 425.94336 
L 246.086836 430.6608 
L 250.104436 430.6608 
L 243.347564 425.39904 
L 245.356364 430.29792 
L 247.547782 429.02784 
L 235.494982 423.94752 
L 230.199055 423.58464 
L 239.512582 430.47936 
L 240.243055 426.66912 
L 234.947127 430.11648 
L 236.042836 426.48768 
L 221.981236 425.39904 
L 220.885527 422.67744 
L 230.381673 422.85888 
L 233.303564 429.93504 
L 235.6776 436.46688 
L 230.929527 432.4752 
L 228.190255 427.032 
L 229.285964 424.85472 
L 235.129745 422.496 
L 238.964727 423.58464 
L 240.060436 431.02368 
L 238.416873 430.6608 
L 235.6776 433.01952 
L 230.199055 434.47104 
L 227.825018 428.66496 
L 228.372873 426.66912 
L 226.546691 427.75776 
L 228.372873 427.032 
L 227.459782 425.2176 
L 223.259564 422.13312 
L 224.355273 425.94336 
L 221.433382 427.9392 
L 228.738109 430.29792 
L 233.6688 433.74528 
L 231.66 429.39072 
L 218.694109 428.66496 
L 212.485091 423.94752 
L 210.293673 416.1456 
L 219.241964 417.96 
L 237.503782 422.85888 
L 247.547782 427.9392 
L 242.434473 430.11648 
L 241.338764 437.19264 
L 241.156145 439.91424 
L 225.816218 429.39072 
L 223.6248 423.4032 
L 221.250764 416.1456 
L 230.746909 425.2176 
L 237.321164 431.20512 
L 229.468582 429.02784 
L 228.738109 428.12064 
L 225.268364 423.22176 
L 218.511491 417.41568 
L 215.5896 410.52096 
L 216.867927 417.23424 
L 220.885527 421.95168 
L 228.555491 433.74528 
L 234.216655 439.18848 
L 230.381673 441.91008 
L 223.807418 437.73696 
L 217.233164 425.76192 
L 215.954836 421.5888 
L 218.694109 414.69408 
L 232.755709 423.58464 
L 239.512582 431.02368 
L 227.277164 430.6608 
L 217.5984 426.48768 
L 215.041745 428.30208 
L 219.6072 436.82976 
L 223.076945 439.00704 
L 221.068145 441.5472 
L 213.763418 430.84224 
L 211.206764 414.69408 
L 221.798618 411.97248 
L 238.416873 411.6096 
L 242.799709 408.70656 
L 243.530182 405.80352 
L 245.356364 403.08192 
L 256.130836 408.70656 
L 261.609382 417.96 
L 262.705091 421.04448 
L 264.713891 417.59712 
L 245.356364 409.25088 
L 234.216655 399.27168 
L 240.790909 398.9088 
L 255.035127 405.2592 
L 264.713891 413.424 
L 270.922909 424.67328 
L 268.548873 427.39488 
L 254.852509 425.39904 
L 243.347564 424.49184 
L 238.416873 417.77856 
L 238.782109 408.16224 
L 242.251855 409.25088 
L 251.017527 411.6096 
L 258.504873 418.8672 
L 254.487273 423.04032 
L 248.460873 420.13728 
L 240.425673 410.15808 
L 234.216655 406.34784 
L 236.408073 410.33952 
L 242.982327 411.06528 
L 244.078036 413.96832 
L 250.469673 418.14144 
L 251.382764 415.96416 
L 247.913018 415.60128 
L 251.930618 410.88384 
L 255.400364 409.97664 
L 258.322255 415.78272 
L 254.304655 417.96 
L 246.634691 419.95584 
L 245.356364 424.49184 
L 243.530182 417.77856 
L 239.147345 416.68992 
L 240.425673 405.62208 
L 247.365164 406.1664 
L 253.939418 410.33952 
L 246.817309 411.24672 
L 248.278255 414.69408 
L 255.217745 418.68576 
L 257.591782 424.85472 
L 258.504873 435.1968 
L 251.017527 435.74112 
L 239.6952 428.12064 
L 236.408073 426.30624 
L 232.025236 413.24256 
L 230.929527 407.61792 
L 232.207855 404.17056 
L 232.755709 406.52928 
L 244.808509 409.06944 
L 245.173745 413.60544 
L 249.191345 414.87552 
L 249.921818 419.7744 
L 255.7656 423.58464 
L 249.373964 417.96 
L 238.416873 410.15808 
L 242.251855 413.24256 
L 256.313455 418.50432 
L 253.391564 421.04448 
L 247.7304 422.85888 
L 250.469673 418.50432 
L 255.7656 416.1456 
L 254.487273 417.0528 
L 248.095636 413.424 
L 249.556582 415.41984 
L 253.7568 411.24672 
L 258.322255 415.41984 
L 255.400364 417.41568 
L 247.913018 417.23424 
L 249.556582 417.96 
L 255.400364 417.59712 
L 257.591782 417.77856 
L 254.304655 421.5888 
L 249.191345 418.68576 
L 249.191345 417.59712 
L 254.487273 424.12896 
L 256.678691 417.23424 
L 259.7832 417.96 
L 266.357455 421.04448 
L 258.504873 423.04032 
L 257.409164 428.12064 
L 257.043927 421.40736 
L 253.7568 420.86304 
L 256.861309 418.50432 
L 251.930618 416.1456 
L 245.356364 408.888 
L 248.826109 410.7024 
L 252.843709 415.60128 
L 246.634691 412.69824 
L 240.790909 407.9808 
L 239.6952 406.1664 
L 249.7392 411.06528 
L 257.957018 413.24256 
L 258.687491 424.67328 
L 259.235345 426.85056 
L 249.7392 420.31872 
L 238.782109 418.14144 
L 237.321164 413.06112 
L 233.303564 409.97664 
L 244.991127 421.40736 
L 248.643491 423.4032 
L 240.973527 421.5888 
L 237.138545 417.96 
L 228.555491 408.70656 
L 231.66 403.98912 
L 244.260655 411.42816 
L 251.382764 406.52928 
L 249.373964 407.79936 
L 249.556582 407.25504 
L 261.061527 408.16224 
L 261.974618 412.5168 
L 257.591782 417.41568 
L 262.157236 423.4032 
L 256.130836 417.23424 
L 254.487273 417.23424 
L 254.669891 417.96 
L 253.939418 416.1456 
L 251.200145 417.59712 
L 248.278255 415.05696 
L 244.991127 414.87552 
L 253.208945 415.2384 
L 254.487273 417.96 
L 252.295855 420.6816 
L 256.861309 422.67744 
L 245.173745 420.50016 
L 239.6952 418.14144 
L 236.773309 405.62208 
L 236.590691 401.6304 
L 247.7304 408.34368 
L 254.852509 411.79104 
L 259.7832 422.496 
L 257.7744 422.31456 
L 238.416873 414.69408 
L 232.573091 413.78688 
L 238.051636 408.70656 
L 239.512582 411.6096 
L 245.904218 408.16224 
L 250.469673 416.1456 
L 253.391564 415.78272 
L 248.095636 410.33952 
L 244.260655 408.16224 
L 243.347564 408.16224 
L 257.043927 417.59712 
L 262.157236 424.12896 
L 254.487273 425.39904 
L 237.138545 420.6816 
L 240.973527 417.41568 
L 250.834909 419.95584 
L 253.026327 417.0528 
L 240.790909 411.79104 
L 240.243055 410.15808 
L 249.191345 413.60544 
L 243.530182 411.42816 
L 243.347564 411.79104 
L 251.565382 414.69408 
L 255.948218 421.22592 
L 249.191345 421.77024 
L 240.060436 415.05696 
L 231.842618 402.17472 
L 240.973527 406.89216 
L 257.409164 412.69824 
L 256.861309 413.78688 
L 248.278255 408.888 
L 250.834909 412.33536 
L 259.7832 409.25088 
L 255.582982 407.79936 
L 259.052727 408.34368 
L 267.453164 412.5168 
L 263.070327 409.25088 
L 262.339855 427.39488 
L 271.288145 447.35328 
L 259.235345 453.3408 
L 230.016436 435.55968 
L 217.781018 430.29792 
L 210.658909 415.96416 
L 213.763418 414.87552 
L 222.711709 420.13728 
L 231.842618 435.01536 
L 234.216655 446.44608 
L 225.268364 447.35328 
L 211.754618 439.18848 
L 202.258473 429.93504 
L 203.719418 423.22176 
L 213.215564 423.58464 
L 223.076945 431.02368 
L 224.355273 437.37408 
L 220.702909 437.0112 
L 212.850327 430.6608 
L 212.850327 423.94752 
L 220.155055 429.57216 
L 219.059345 422.67744 
L 213.032945 416.87136 
L 214.859127 419.7744 
L 215.406982 418.68576 
L 218.511491 429.93504 
L 226.364073 433.56384 
L 221.068145 433.92672 
L 216.867927 428.30208 
L 221.068145 419.7744 
L 230.929527 425.03616 
L 240.973527 436.104 
L 237.321164 437.0112 
L 225.998836 431.02368 
L 226.364073 428.12064 
L 227.825018 424.3104 
L 231.66 434.2896 
L 241.156145 442.4544 
L 238.051636 441.72864 
L 236.773309 442.99872 
L 238.416873 439.55136 
L 230.929527 437.37408 
L 227.825018 430.11648 
L 219.972436 421.5888 
L 221.616 417.77856 
L 228.190255 426.66912 
L 232.573091 425.58048 
L 230.746909 423.04032 
L 226.364073 430.47936 
L 228.920727 429.7536 
L 221.981236 418.68576 
L 222.711709 422.13312 
L 232.207855 424.67328 
L 244.808509 433.3824 
L 244.808509 432.29376 
L 233.120945 421.5888 
L 234.581891 419.41152 
L 239.877818 427.21344 
L 244.991127 433.92672 
L 246.452073 432.11232 
L 246.269455 430.29792 
L 243.164945 424.85472 
L 242.251855 421.22592 
L 247.913018 423.76608 
L 254.304655 426.85056 
L 251.748 429.7536 
L 244.991127 425.94336 
L 242.799709 427.39488 
L 237.321164 430.11648 
L 231.477382 426.30624 
L 225.6336 411.42816 
L 231.112145 411.06528 
L 244.443273 421.22592 
L 251.748 432.11232 
L 243.895418 437.0112 
L 239.512582 439.18848 
L 235.494982 431.568 
L 240.060436 426.85056 
L 243.164945 427.57632 
L 239.329964 422.67744 
L 237.6864 419.23008 
L 242.617091 412.69824 
L 245.7216 414.14976 
L 248.278255 420.13728 
L 249.7392 419.7744 
L 247.913018 418.68576 
L 252.113236 419.59296 
L 266.357455 432.29376 
L 267.087927 435.1968 
L 261.792 432.11232 
L 250.287055 421.95168 
L 239.147345 409.61376 
L 243.7128 413.06112 
L 265.444364 419.95584 
L 274.940509 422.31456 
L 274.757891 428.48352 
L 259.600582 428.12064 
L 249.373964 422.496 
L 247.547782 407.0736 
L 249.921818 405.07776 
L 256.313455 404.89632 
L 258.687491 414.3312 
L 270.375055 422.67744 
L 273.662182 428.8464 
L 256.678691 417.59712 
L 250.287055 417.0528 
L 257.591782 420.13728 
L 260.148436 416.87136 
L 257.591782 416.32704 
L 255.217745 411.06528 
L 262.887709 410.7024 
L 270.192436 413.24256 
L 267.8184 417.41568 
L 261.609382 419.59296 
L 260.878909 415.41984 
L 259.600582 405.62208 
L 259.235345 401.08608 
L 255.035127 393.64704 
L 250.834909 387.65952 
L 259.965818 387.84096 
L 278.410255 398.72736 
L 275.123127 398.72736 
L 262.887709 394.91712 
L 266.357455 393.10272 
L 281.88 402.17472 
L 295.9416 409.43232 
L 288.819491 407.9808 
L 276.036218 404.53344 
L 276.401455 403.4448 
L 275.488364 397.0944 
L 280.784291 397.82016 
L 286.445455 398.18304 
L 285.714982 393.82848 
L 282.610473 394.73568 
L 276.218836 391.46976 
L 281.332145 391.10688 
L 290.828291 401.26752 
L 295.576364 386.75232 
L 286.445455 370.24128 
L 279.688582 356.99616 
L 290.097818 357.54048 
L 314.0208 379.31328 
L 333.560945 406.1664 
L 321.142909 416.1456 
L 293.384945 401.6304 
L 266.905309 372.41856 
L 252.295855 345.92832 
L 272.383855 344.83968 
L 312.012 374.59584 
L 332.465236 402.17472 
L 328.630255 422.31456 
L 294.115418 411.24672 
L 261.244145 378.40608 
L 246.086836 344.83968 
L 247.7304 330.68736 
L 271.836 337.76352 
L 306.350836 365.3424 
L 326.438836 396.1872 
L 309.455345 410.52096 
L 288.454255 405.80352 
L 260.331055 386.38944 
L 252.843709 372.78144 
L 256.678691 362.98368 
L 280.601673 369.33408 
L 285.8976 369.15264 
L 284.801891 375.86592 
L 288.819491 389.47392 
L 294.663273 397.0944 
L 284.254036 382.5792 
L 274.392655 370.42272 
L 271.836 373.32576 
L 283.706182 380.7648 
L 294.845891 384.75648 
L 284.984509 385.48224 
L 269.8272 378.9504 
L 259.965818 363.70944 
L 261.426764 343.93248 
L 268.914109 340.48512 
L 284.984509 357.1776 
L 307.446545 383.30496 
L 311.646764 405.07776 
L 303.611564 408.70656 
L 284.984509 392.5584 
L 260.148436 358.992 
L 240.790909 329.78016 
L 242.799709 317.98656 
L 274.757891 326.15136 
L 311.464145 351.7344 
L 327.717164 380.40192 
L 326.0736 394.91712 
L 293.9328 389.47392 
L 275.670982 365.88672 
L 263.618182 340.848 
L 263.252945 336.49344 
L 265.992218 327.05856 
L 274.027418 330.8688 
L 283.523564 341.21088 
L 304.707273 361.53216 
L 321.142909 386.75232 
L 313.472945 391.83264 
L 298.315636 388.38528 
L 287.9064 378.40608 
L 271.105527 365.88672 
L 270.009818 355.3632 
L 278.227636 338.85216 
L 280.236436 333.95328 
L 276.401455 339.0336 
L 279.505964 356.45184 
L 295.576364 366.97536 
L 303.9768 372.05568 
L 293.019709 364.97952 
L 276.949309 357.35904 
L 266.540073 352.27872 
L 270.557673 341.21088 
L 274.757891 328.51008 
L 277.497164 332.32032 
L 283.523564 342.6624 
L 295.9416 361.53216 
L 308.359636 374.05152 
L 303.794182 372.23712 
L 286.080218 361.35072 
L 271.836 356.99616 
L 278.045018 360.44352 
L 292.289236 361.53216 
L 296.124218 360.8064 
L 300.507055 376.95456 
L 309.820582 393.64704 
L 312.377236 395.82432 
L 309.637964 381.85344 
L 284.436655 372.6 
L 272.566473 360.44352 
L 274.027418 345.74688 
L 284.071418 349.0128 
L 298.863491 353.18592 
L 306.533455 360.62496 
L 302.333236 368.42688 
L 307.9944 387.29664 
L 313.107709 401.6304 
L 311.281527 390.19968 
L 296.854691 367.33824 
L 270.375055 360.8064 
L 257.226545 344.4768 
L 263.070327 323.6112 
L 273.662182 317.07936 
L 283.158327 332.13888 
L 304.524655 360.44352 
L 333.378327 386.75232 
L 346.892073 407.0736 
L 338.491636 407.9808 
L 318.586255 404.89632 
L 285.8976 382.39776 
L 253.391564 356.08896 
L 244.260655 325.96992 
L 257.957018 306.3744 
L 278.958109 323.97408 
L 301.602764 352.46016 
L 328.265018 386.75232 
L 340.865673 403.4448 
L 324.795273 397.0944 
L 309.637964 386.93376 
L 287.9064 380.40192 
L 275.123127 367.51968 
L 275.305745 352.46016 
L 275.670982 339.21504 
L 282.062618 341.93664 
L 296.489455 349.55712 
L 305.072509 362.98368 
L 303.246327 365.16096 
L 303.246327 365.16096 
" clip-path="url(#pee57afb514)" style="fill: none; stroke-dasharray: 5.55,2.4; stroke-dashoffset: 0; stroke: #800080; stroke-opacity: 0.7; stroke-width: 1.5"/>
   </g>
   <g id="line2d_30">
    <path d="M 81 77.76 
L 583.2 576.72 
" clip-path="url(#pee57afb514)" style="fill: none; stroke: #000000; stroke-width: 1.5; stroke-linecap: square"/>
   </g>
   <g id="line2d_31">
    <path d="M 81 554.04 
L 649 554.04 
" clip-path="url(#pee57afb514)" style="fill: none; stroke-dasharray: 9.6,2.4,1.5,2.4; stroke-dashoffset: 0; stroke: #000000; stroke-width: 1.5"/>
   </g>
   <g id="line2d_32">
    <path d="M 103.827273 576.72 
L 103.827273 -1 
" clip-path="url(#pee57afb514)" style="fill: none; stroke-dasharray: 9.6,2.4,1.5,2.4; stroke-dashoffset: 0; stroke: #000000; stroke-width: 1.5"/>
   </g>
   <g id="patch_3">
    <path d="M 81 576.72 
L 81 77.76 
" style="fill: none; stroke: #000000; stroke-width: 0.8; stroke-linejoin: miter; stroke-linecap: square"/>
   </g>
   <g id="patch_4">
    <path d="M 583.2 576.72 
L 583.2 77.76 
" style="fill: none; stroke: #000000; stroke-width: 0.8; stroke-linejoin: miter; stroke-linecap: square"/>
   </g>
   <g id="patch_5">
    <path d="M 81 576.72 
L 583.2 576.72 
" style="fill: none; stroke: #000000; stroke-width: 0.8; stroke-linejoin: miter; stroke-linecap: square"/>
   </g>
   <g id="patch_6">
    <path d="M 81 77.76 
L 583.2 77.76 
" style="fill: none; stroke: #000000; stroke-width: 0.8; stroke-linejoin: miter; stroke-linecap: square"/>
   </g>
   <g id="text_15">
    <!-- Phase diagram with an approximate initial 10% predator population -->
    <g transform="translate(128.307188 71.76) scale(0.12 -0.12)">
     <defs>
      <path id="DejaVuSans-68" d="M 3513 2113 
L 3513 0 
L 2938 0 
L 2938 2094 
Q 2938 2591 2744 2837 
Q 2550 3084 2163 3084 
Q 1697 3084 1428 2787 
Q 1159 2491 1159 1978 
L 1159 0 
L 581 0 
L 581 4863 
L 1159 4863 
L 1159 2956 
Q 1366 3272 1645 3428 
Q 1925 3584 2291 3584 
Q 2894 3584 3203 3211 
Q 3513 2838 3513 2113 
z
" transform="scale(0.015625)"/>
      <path id="DejaVuSans-73" d="M 2834 3397 
L 2834 2853 
Q 2591 2978 2328 3040 
Q 2066 3103 1784 3103 
Q 1356 3103 1142 2972 
Q 928 2841 928 2578 
Q 928 2378 1081 2264 
Q 1234 2150 1697 2047 
L 1894 2003 
Q 2506 1872 2764 1633 
Q 3022 1394 3022 966 
Q 3022 478 2636 193 
Q 2250 -91 1575 -91 
Q 1294 -91 989 -36 
Q 684 19 347 128 
L 347 722 
Q 666 556 975 473 
Q 1284 391 1588 391 
Q 1994 391 2212 530 
Q 2431 669 2431 922 
Q 2431 1156 2273 1281 
Q 2116 1406 1581 1522 
L 1381 1569 
Q 847 1681 609 1914 
Q 372 2147 372 2553 
Q 372 3047 722 3315 
Q 1072 3584 1716 3584 
Q 2034 3584 2315 3537 
Q 2597 3491 2834 3397 
z
" transform="scale(0.015625)"/>
      <path id="DejaVuSans-67" d="M 2906 1791 
Q 2906 2416 2648 2759 
Q 2391 3103 1925 3103 
Q 1463 3103 1205 2759 
Q 947 2416 947 1791 
Q 947 1169 1205 825 
Q 1463 481 1925 481 
Q 2391 481 2648 825 
Q 2906 1169 2906 1791 
z
M 3481 434 
Q 3481 -459 3084 -895 
Q 2688 -1331 1869 -1331 
Q 1566 -1331 1297 -1286 
Q 1028 -1241 775 -1147 
L 775 -588 
Q 1028 -725 1275 -790 
Q 1522 -856 1778 -856 
Q 2344 -856 2625 -561 
Q 2906 -266 2906 331 
L 2906 616 
Q 2728 306 2450 153 
Q 2172 0 1784 0 
Q 1141 0 747 490 
Q 353 981 353 1791 
Q 353 2603 747 3093 
Q 1141 3584 1784 3584 
Q 2172 3584 2450 3431 
Q 2728 3278 2906 2969 
L 2906 3500 
L 3481 3500 
L 3481 434 
z
" transform="scale(0.015625)"/>
      <path id="DejaVuSans-6d" d="M 3328 2828 
Q 3544 3216 3844 3400 
Q 4144 3584 4550 3584 
Q 5097 3584 5394 3201 
Q 5691 2819 5691 2113 
L 5691 0 
L 5113 0 
L 5113 2094 
Q 5113 2597 4934 2840 
Q 4756 3084 4391 3084 
Q 3944 3084 3684 2787 
Q 3425 2491 3425 1978 
L 3425 0 
L 2847 0 
L 2847 2094 
Q 2847 2600 2669 2842 
Q 2491 3084 2119 3084 
Q 1678 3084 1418 2786 
Q 1159 2488 1159 1978 
L 1159 0 
L 581 0 
L 581 3500 
L 1159 3500 
L 1159 2956 
Q 1356 3278 1631 3431 
Q 1906 3584 2284 3584 
Q 2666 3584 2933 3390 
Q 3200 3197 3328 2828 
z
" transform="scale(0.015625)"/>
      <path id="DejaVuSans-77" d="M 269 3500 
L 844 3500 
L 1563 769 
L 2278 3500 
L 2956 3500 
L 3675 769 
L 4391 3500 
L 4966 3500 
L 4050 0 
L 3372 0 
L 2619 2869 
L 1863 0 
L 1184 0 
L 269 3500 
z
" transform="scale(0.015625)"/>
      <path id="DejaVuSans-78" d="M 3513 3500 
L 2247 1797 
L 3578 0 
L 2900 0 
L 1881 1375 
L 863 0 
L 184 0 
L 1544 1831 
L 300 3500 
L 978 3500 
L 1906 2253 
L 2834 3500 
L 3513 3500 
z
" transform="scale(0.015625)"/>
      <path id="DejaVuSans-25" d="M 4653 2053 
Q 4381 2053 4226 1822 
Q 4072 1591 4072 1178 
Q 4072 772 4226 539 
Q 4381 306 4653 306 
Q 4919 306 5073 539 
Q 5228 772 5228 1178 
Q 5228 1588 5073 1820 
Q 4919 2053 4653 2053 
z
M 4653 2450 
Q 5147 2450 5437 2106 
Q 5728 1763 5728 1178 
Q 5728 594 5436 251 
Q 5144 -91 4653 -91 
Q 4153 -91 3862 251 
Q 3572 594 3572 1178 
Q 3572 1766 3864 2108 
Q 4156 2450 4653 2450 
z
M 1428 4353 
Q 1159 4353 1004 4120 
Q 850 3888 850 3481 
Q 850 3069 1003 2837 
Q 1156 2606 1428 2606 
Q 1700 2606 1854 2837 
Q 2009 3069 2009 3481 
Q 2009 3884 1853 4118 
Q 1697 4353 1428 4353 
z
M 4250 4750 
L 4750 4750 
L 1831 -91 
L 1331 -91 
L 4250 4750 
z
M 1428 4750 
Q 1922 4750 2215 4408 
Q 2509 4066 2509 3481 
Q 2509 2891 2217 2550 
Q 1925 2209 1428 2209 
Q 931 2209 642 2551 
Q 353 2894 353 3481 
Q 353 4063 643 4406 
Q 934 4750 1428 4750 
z
" transform="scale(0.015625)"/>
     </defs>
     <use xlink:href="#DejaVuSans-50"/>
     <use xlink:href="#DejaVuSans-68" x="60.302734"/>
     <use xlink:href="#DejaVuSans-61" x="123.681641"/>
     <use xlink:href="#DejaVuSans-73" x="184.960938"/>
     <use xlink:href="#DejaVuSans-65" x="237.060547"/>
     <use xlink:href="#DejaVuSans-20" x="298.583984"/>
     <use xlink:href="#DejaVuSans-64" x="330.371094"/>
     <use xlink:href="#DejaVuSans-69" x="393.847656"/>
     <use xlink:href="#DejaVuSans-61" x="421.630859"/>
     <use xlink:href="#DejaVuSans-67" x="482.910156"/>
     <use xlink:href="#DejaVuSans-72" x="546.386719"/>
     <use xlink:href="#DejaVuSans-61" x="587.5"/>
     <use xlink:href="#DejaVuSans-6d" x="648.779297"/>
     <use xlink:href="#DejaVuSans-20" x="746.191406"/>
     <use xlink:href="#DejaVuSans-77" x="777.978516"/>
     <use xlink:href="#DejaVuSans-69" x="859.765625"/>
     <use xlink:href="#DejaVuSans-74" x="887.548828"/>
     <use xlink:href="#DejaVuSans-68" x="926.757812"/>
     <use xlink:href="#DejaVuSans-20" x="990.136719"/>
     <use xlink:href="#DejaVuSans-61" x="1021.923828"/>
     <use xlink:href="#DejaVuSans-6e" x="1083.203125"/>
     <use xlink:href="#DejaVuSans-20" x="1146.582031"/>
     <use xlink:href="#DejaVuSans-61" x="1178.369141"/>
     <use xlink:href="#DejaVuSans-70" x="1239.648438"/>
     <use xlink:href="#DejaVuSans-70" x="1303.125"/>
     <use xlink:href="#DejaVuSans-72" x="1366.601562"/>
     <use xlink:href="#DejaVuSans-6f" x="1405.464844"/>
     <use xlink:href="#DejaVuSans-78" x="1463.521484"/>
     <use xlink:href="#DejaVuSans-69" x="1522.701172"/>
     <use xlink:href="#DejaVuSans-6d" x="1550.484375"/>
     <use xlink:href="#DejaVuSans-61" x="1647.896484"/>
     <use xlink:href="#DejaVuSans-74" x="1709.175781"/>
     <use xlink:href="#DejaVuSans-65" x="1748.384766"/>
     <use xlink:href="#DejaVuSans-20" x="1809.908203"/>
     <use xlink:href="#DejaVuSans-69" x="1841.695312"/>
     <use xlink:href="#DejaVuSans-6e" x="1869.478516"/>
     <use xlink:href="#DejaVuSans-69" x="1932.857422"/>
     <use xlink:href="#DejaVuSans-74" x="1960.640625"/>
     <use xlink:href="#DejaVuSans-69" x="1999.849609"/>
     <use xlink:href="#DejaVuSans-61" x="2027.632812"/>
     <use xlink:href="#DejaVuSans-6c" x="2088.912109"/>
     <use xlink:href="#DejaVuSans-20" x="2116.695312"/>
     <use xlink:href="#DejaVuSans-31" x="2148.482422"/>
     <use xlink:href="#DejaVuSans-30" x="2212.105469"/>
     <use xlink:href="#DejaVuSans-25" x="2275.728516"/>
     <use xlink:href="#DejaVuSans-20" x="2370.748047"/>
     <use xlink:href="#DejaVuSans-70" x="2402.535156"/>
     <use xlink:href="#DejaVuSans-72" x="2466.011719"/>
     <use xlink:href="#DejaVuSans-65" x="2504.875"/>
     <use xlink:href="#DejaVuSans-64" x="2566.398438"/>
     <use xlink:href="#DejaVuSans-61" x="2629.875"/>
     <use xlink:href="#DejaVuSans-74" x="2691.154297"/>
     <use xlink:href="#DejaVuSans-6f" x="2730.363281"/>
     <use xlink:href="#DejaVuSans-72" x="2791.544922"/>
     <use xlink:href="#DejaVuSans-20" x="2832.658203"/>
     <use xlink:href="#DejaVuSans-70" x="2864.445312"/>
     <use xlink:href="#DejaVuSans-6f" x="2927.921875"/>
     <use xlink:href="#DejaVuSans-70" x="2989.103516"/>
     <use xlink:href="#DejaVuSans-75" x="3052.580078"/>
     <use xlink:href="#DejaVuSans-6c" x="3115.958984"/>
     <use xlink:href="#DejaVuSans-61" x="3143.742188"/>
     <use xlink:href="#DejaVuSans-74" x="3205.021484"/>
     <use xlink:href="#DejaVuSans-69" x="3244.230469"/>
     <use xlink:href="#DejaVuSans-6f" x="3272.013672"/>
     <use xlink:href="#DejaVuSans-6e" x="3333.195312"/>
    </g>
   </g>
   <g id="legend_1">
    <g id="patch_7">
     <path d="M 460.1375 115.11625 
L 576.2 115.11625 
Q 578.2 115.11625 578.2 113.11625 
L 578.2 84.76 
Q 578.2 82.76 576.2 82.76 
L 460.1375 82.76 
Q 458.1375 82.76 458.1375 84.76 
L 458.1375 113.11625 
Q 458.1375 115.11625 460.1375 115.11625 
z
" style="fill: #ffffff; opacity: 0.8; stroke: #cccccc; stroke-linejoin: miter"/>
    </g>
    <g id="PathCollection_5">
     <g>
      <use xlink:href="#mdfdf5e2bbe" x="472.1375" y="91.733437" style="fill: #0000ff; stroke: #0000ff"/>
     </g>
    </g>
    <g id="text_16">
     <!-- Initial population -->
     <g transform="translate(490.1375 94.358437) scale(0.1 -0.1)">
      <defs>
       <path id="DejaVuSans-49" d="M 628 4666 
L 1259 4666 
L 1259 0 
L 628 0 
L 628 4666 
z
" transform="scale(0.015625)"/>
      </defs>
      <use xlink:href="#DejaVuSans-49"/>
      <use xlink:href="#DejaVuSans-6e" x="29.492188"/>
      <use xlink:href="#DejaVuSans-69" x="92.871094"/>
      <use xlink:href="#DejaVuSans-74" x="120.654297"/>
      <use xlink:href="#DejaVuSans-69" x="159.863281"/>
      <use xlink:href="#DejaVuSans-61" x="187.646484"/>
      <use xlink:href="#DejaVuSans-6c" x="248.925781"/>
      <use xlink:href="#DejaVuSans-20" x="276.708984"/>
      <use xlink:href="#DejaVuSans-70" x="308.496094"/>
      <use xlink:href="#DejaVuSans-6f" x="371.972656"/>
      <use xlink:href="#DejaVuSans-70" x="433.154297"/>
      <use xlink:href="#DejaVuSans-75" x="496.630859"/>
      <use xlink:href="#DejaVuSans-6c" x="560.009766"/>
      <use xlink:href="#DejaVuSans-61" x="587.792969"/>
      <use xlink:href="#DejaVuSans-74" x="649.072266"/>
      <use xlink:href="#DejaVuSans-69" x="688.28125"/>
      <use xlink:href="#DejaVuSans-6f" x="716.064453"/>
      <use xlink:href="#DejaVuSans-6e" x="777.246094"/>
     </g>
    </g>
    <g id="PathCollection_6">
     <g>
      <use xlink:href="#m302a63978d" x="472.1375" y="106.411562" style="fill: #ff0000; stroke: #ff0000"/>
     </g>
    </g>
    <g id="text_17">
     <!-- Final population -->
     <g transform="translate(490.1375 109.036562) scale(0.1 -0.1)">
      <defs>
       <path id="DejaVuSans-46" d="M 628 4666 
L 3309 4666 
L 3309 4134 
L 1259 4134 
L 1259 2759 
L 3109 2759 
L 3109 2228 
L 1259 2228 
L 1259 0 
L 628 0 
L 628 4666 
z
" transform="scale(0.015625)"/>
      </defs>
      <use xlink:href="#DejaVuSans-46"/>
      <use xlink:href="#DejaVuSans-69" x="50.269531"/>
      <use xlink:href="#DejaVuSans-6e" x="78.052734"/>
      <use xlink:href="#DejaVuSans-61" x="141.431641"/>
      <use xlink:href="#DejaVuSans-6c" x="202.710938"/>
      <use xlink:href="#DejaVuSans-20" x="230.494141"/>
      <use xlink:href="#DejaVuSans-70" x="262.28125"/>
      <use xlink:href="#DejaVuSans-6f" x="325.757812"/>
      <use xlink:href="#DejaVuSans-70" x="386.939453"/>
      <use xlink:href="#DejaVuSans-75" x="450.416016"/>
      <use xlink:href="#DejaVuSans-6c" x="513.794922"/>
      <use xlink:href="#DejaVuSans-61" x="541.578125"/>
      <use xlink:href="#DejaVuSans-74" x="602.857422"/>
      <use xlink:href="#DejaVuSans-69" x="642.066406"/>
      <use xlink:href="#DejaVuSans-6f" x="669.849609"/>
      <use xlink:href="#DejaVuSans-6e" x="731.03125"/>
     </g>
    </g>
   </g>
  </g>
 </g>
 <defs>
  <clipPath id="pee57afb514">
   <rect x="81" y="77.76" width="502.2" height="498.96"/>
  </clipPath>
 </defs>
</svg>
