<?xml version="1.0" encoding="utf-8" standalone="no"?>
<!DOCTYPE svg PUBLIC "-//W3C//DTD SVG 1.1//EN"
  "http://www.w3.org/Graphics/SVG/1.1/DTD/svg11.dtd">
<svg xmlns:xlink="http://www.w3.org/1999/xlink" width="648pt" height="648pt" viewBox="0 0 648 648" xmlns="http://www.w3.org/2000/svg" version="1.1">
 <metadata>
  <rdf:RDF xmlns:dc="http://purl.org/dc/elements/1.1/" xmlns:cc="http://creativecommons.org/ns#" xmlns:rdf="http://www.w3.org/1999/02/22-rdf-syntax-ns#">
   <cc:Work>
    <dc:type rdf:resource="http://purl.org/dc/dcmitype/StillImage"/>
    <dc:date>2025-06-09T12:41:51.177941</dc:date>
    <dc:format>image/svg+xml</dc:format>
    <dc:creator>
     <cc:Agent>
      <dc:title>Matplotlib v3.7.0, https://matplotlib.org/</dc:title>
     </cc:Agent>
    </dc:creator>
   </cc:Work>
  </rdf:RDF>
 </metadata>
 <defs>
  <style type="text/css">*{stroke-linejoin: round; stroke-linecap: butt}</style>
 </defs>
 <g id="figure_1">
  <g id="patch_1">
   <path d="M 0 648 
L 648 648 
L 648 0 
L 0 0 
z
" style="fill: #ffffff"/>
  </g>
  <g id="axes_1">
   <g id="patch_2">
    <path d="M 81 576.72 
L 583.2 576.72 
L 583.2 77.76 
L 81 77.76 
z
" style="fill: #ffffff"/>
   </g>
   <g id="PathCollection_1">
    <defs>
     <path id="md145a77be8" d="M -3.535534 3.535534 
L 3.535534 3.535534 
L 3.535534 -3.535534 
L -3.535534 -3.535534 
z
" style="stroke: #0000ff"/>
    </defs>
    <g clip-path="url(#p7ef84fb04f)">
     <use xlink:href="#md145a77be8" x="241.338764" y="509.04288" style="fill: #0000ff; stroke: #0000ff"/>
    </g>
   </g>
   <g id="PathCollection_2">
    <defs>
     <path id="m2aecde6348" d="M -3.535534 3.535534 
L 3.535534 3.535534 
L 3.535534 -3.535534 
L -3.535534 -3.535534 
z
" style="stroke: #ff0000"/>
    </defs>
    <g clip-path="url(#p7ef84fb04f)">
     <use xlink:href="#m2aecde6348" x="282.245236" y="326.87712" style="fill: #ff0000; stroke: #ff0000"/>
    </g>
   </g>
   <g id="PathCollection_3">
    <g clip-path="url(#p7ef84fb04f)">
     <use xlink:href="#md145a77be8" x="241.338764" y="509.04288" style="fill: #0000ff; stroke: #0000ff"/>
    </g>
   </g>
   <g id="PathCollection_4">
    <g clip-path="url(#p7ef84fb04f)">
     <use xlink:href="#m2aecde6348" x="299.593964" y="390.56256" style="fill: #ff0000; stroke: #ff0000"/>
    </g>
   </g>
   <g id="matplotlib.axis_1">
    <g id="xtick_1">
     <g id="line2d_1">
      <path d="M 103.827273 576.72 
L 103.827273 77.76 
" clip-path="url(#p7ef84fb04f)" style="fill: none; stroke: #b0b0b0; stroke-width: 0.1; stroke-linecap: square"/>
     </g>
     <g id="line2d_2">
      <defs>
       <path id="m9d611df75d" d="M 0 0 
L 0 3.5 
" style="stroke: #000000; stroke-width: 0.8"/>
      </defs>
      <g>
       <use xlink:href="#m9d611df75d" x="103.827273" y="576.72" style="stroke: #000000; stroke-width: 0.8"/>
      </g>
     </g>
     <g id="text_1">
      <!-- 0 -->
      <g transform="translate(100.646023 591.318438) scale(0.1 -0.1)">
       <defs>
        <path id="DejaVuSans-30" d="M 2034 4250 
Q 1547 4250 1301 3770 
Q 1056 3291 1056 2328 
Q 1056 1369 1301 889 
Q 1547 409 2034 409 
Q 2525 409 2770 889 
Q 3016 1369 3016 2328 
Q 3016 3291 2770 3770 
Q 2525 4250 2034 4250 
z
M 2034 4750 
Q 2819 4750 3233 4129 
Q 3647 3509 3647 2328 
Q 3647 1150 3233 529 
Q 2819 -91 2034 -91 
Q 1250 -91 836 529 
Q 422 1150 422 2328 
Q 422 3509 836 4129 
Q 1250 4750 2034 4750 
z
" transform="scale(0.015625)"/>
       </defs>
       <use xlink:href="#DejaVuSans-30"/>
      </g>
     </g>
    </g>
    <g id="xtick_2">
     <g id="line2d_3">
      <path d="M 195.136364 576.72 
L 195.136364 77.76 
" clip-path="url(#p7ef84fb04f)" style="fill: none; stroke: #b0b0b0; stroke-width: 0.1; stroke-linecap: square"/>
     </g>
     <g id="line2d_4">
      <g>
       <use xlink:href="#m9d611df75d" x="195.136364" y="576.72" style="stroke: #000000; stroke-width: 0.8"/>
      </g>
     </g>
     <g id="text_2">
      <!-- 500 -->
      <g transform="translate(185.592614 591.318438) scale(0.1 -0.1)">
       <defs>
        <path id="DejaVuSans-35" d="M 691 4666 
L 3169 4666 
L 3169 4134 
L 1269 4134 
L 1269 2991 
Q 1406 3038 1543 3061 
Q 1681 3084 1819 3084 
Q 2600 3084 3056 2656 
Q 3513 2228 3513 1497 
Q 3513 744 3044 326 
Q 2575 -91 1722 -91 
Q 1428 -91 1123 -41 
Q 819 9 494 109 
L 494 744 
Q 775 591 1075 516 
Q 1375 441 1709 441 
Q 2250 441 2565 725 
Q 2881 1009 2881 1497 
Q 2881 1984 2565 2268 
Q 2250 2553 1709 2553 
Q 1456 2553 1204 2497 
Q 953 2441 691 2322 
L 691 4666 
z
" transform="scale(0.015625)"/>
       </defs>
       <use xlink:href="#DejaVuSans-35"/>
       <use xlink:href="#DejaVuSans-30" x="63.623047"/>
       <use xlink:href="#DejaVuSans-30" x="127.246094"/>
      </g>
     </g>
    </g>
    <g id="xtick_3">
     <g id="line2d_5">
      <path d="M 286.445455 576.72 
L 286.445455 77.76 
" clip-path="url(#p7ef84fb04f)" style="fill: none; stroke: #b0b0b0; stroke-width: 0.1; stroke-linecap: square"/>
     </g>
     <g id="line2d_6">
      <g>
       <use xlink:href="#m9d611df75d" x="286.445455" y="576.72" style="stroke: #000000; stroke-width: 0.8"/>
      </g>
     </g>
     <g id="text_3">
      <!-- 1000 -->
      <g transform="translate(273.720455 591.318438) scale(0.1 -0.1)">
       <defs>
        <path id="DejaVuSans-31" d="M 794 531 
L 1825 531 
L 1825 4091 
L 703 3866 
L 703 4441 
L 1819 4666 
L 2450 4666 
L 2450 531 
L 3481 531 
L 3481 0 
L 794 0 
L 794 531 
z
" transform="scale(0.015625)"/>
       </defs>
       <use xlink:href="#DejaVuSans-31"/>
       <use xlink:href="#DejaVuSans-30" x="63.623047"/>
       <use xlink:href="#DejaVuSans-30" x="127.246094"/>
       <use xlink:href="#DejaVuSans-30" x="190.869141"/>
      </g>
     </g>
    </g>
    <g id="xtick_4">
     <g id="line2d_7">
      <path d="M 377.754545 576.72 
L 377.754545 77.76 
" clip-path="url(#p7ef84fb04f)" style="fill: none; stroke: #b0b0b0; stroke-width: 0.1; stroke-linecap: square"/>
     </g>
     <g id="line2d_8">
      <g>
       <use xlink:href="#m9d611df75d" x="377.754545" y="576.72" style="stroke: #000000; stroke-width: 0.8"/>
      </g>
     </g>
     <g id="text_4">
      <!-- 1500 -->
      <g transform="translate(365.029545 591.318438) scale(0.1 -0.1)">
       <use xlink:href="#DejaVuSans-31"/>
       <use xlink:href="#DejaVuSans-35" x="63.623047"/>
       <use xlink:href="#DejaVuSans-30" x="127.246094"/>
       <use xlink:href="#DejaVuSans-30" x="190.869141"/>
      </g>
     </g>
    </g>
    <g id="xtick_5">
     <g id="line2d_9">
      <path d="M 469.063636 576.72 
L 469.063636 77.76 
" clip-path="url(#p7ef84fb04f)" style="fill: none; stroke: #b0b0b0; stroke-width: 0.1; stroke-linecap: square"/>
     </g>
     <g id="line2d_10">
      <g>
       <use xlink:href="#m9d611df75d" x="469.063636" y="576.72" style="stroke: #000000; stroke-width: 0.8"/>
      </g>
     </g>
     <g id="text_5">
      <!-- 2000 -->
      <g transform="translate(456.338636 591.318438) scale(0.1 -0.1)">
       <defs>
        <path id="DejaVuSans-32" d="M 1228 531 
L 3431 531 
L 3431 0 
L 469 0 
L 469 531 
Q 828 903 1448 1529 
Q 2069 2156 2228 2338 
Q 2531 2678 2651 2914 
Q 2772 3150 2772 3378 
Q 2772 3750 2511 3984 
Q 2250 4219 1831 4219 
Q 1534 4219 1204 4116 
Q 875 4013 500 3803 
L 500 4441 
Q 881 4594 1212 4672 
Q 1544 4750 1819 4750 
Q 2544 4750 2975 4387 
Q 3406 4025 3406 3419 
Q 3406 3131 3298 2873 
Q 3191 2616 2906 2266 
Q 2828 2175 2409 1742 
Q 1991 1309 1228 531 
z
" transform="scale(0.015625)"/>
       </defs>
       <use xlink:href="#DejaVuSans-32"/>
       <use xlink:href="#DejaVuSans-30" x="63.623047"/>
       <use xlink:href="#DejaVuSans-30" x="127.246094"/>
       <use xlink:href="#DejaVuSans-30" x="190.869141"/>
      </g>
     </g>
    </g>
    <g id="xtick_6">
     <g id="line2d_11">
      <path d="M 560.372727 576.72 
L 560.372727 77.76 
" clip-path="url(#p7ef84fb04f)" style="fill: none; stroke: #b0b0b0; stroke-width: 0.1; stroke-linecap: square"/>
     </g>
     <g id="line2d_12">
      <g>
       <use xlink:href="#m9d611df75d" x="560.372727" y="576.72" style="stroke: #000000; stroke-width: 0.8"/>
      </g>
     </g>
     <g id="text_6">
      <!-- 2500 -->
      <g transform="translate(547.647727 591.318438) scale(0.1 -0.1)">
       <use xlink:href="#DejaVuSans-32"/>
       <use xlink:href="#DejaVuSans-35" x="63.623047"/>
       <use xlink:href="#DejaVuSans-30" x="127.246094"/>
       <use xlink:href="#DejaVuSans-30" x="190.869141"/>
      </g>
     </g>
    </g>
    <g id="text_7">
     <!-- Predator population -->
     <g transform="translate(282.64375 604.996562) scale(0.1 -0.1)">
      <defs>
       <path id="DejaVuSans-50" d="M 1259 4147 
L 1259 2394 
L 2053 2394 
Q 2494 2394 2734 2622 
Q 2975 2850 2975 3272 
Q 2975 3691 2734 3919 
Q 2494 4147 2053 4147 
L 1259 4147 
z
M 628 4666 
L 2053 4666 
Q 2838 4666 3239 4311 
Q 3641 3956 3641 3272 
Q 3641 2581 3239 2228 
Q 2838 1875 2053 1875 
L 1259 1875 
L 1259 0 
L 628 0 
L 628 4666 
z
" transform="scale(0.015625)"/>
       <path id="DejaVuSans-72" d="M 2631 2963 
Q 2534 3019 2420 3045 
Q 2306 3072 2169 3072 
Q 1681 3072 1420 2755 
Q 1159 2438 1159 1844 
L 1159 0 
L 581 0 
L 581 3500 
L 1159 3500 
L 1159 2956 
Q 1341 3275 1631 3429 
Q 1922 3584 2338 3584 
Q 2397 3584 2469 3576 
Q 2541 3569 2628 3553 
L 2631 2963 
z
" transform="scale(0.015625)"/>
       <path id="DejaVuSans-65" d="M 3597 1894 
L 3597 1613 
L 953 1613 
Q 991 1019 1311 708 
Q 1631 397 2203 397 
Q 2534 397 2845 478 
Q 3156 559 3463 722 
L 3463 178 
Q 3153 47 2828 -22 
Q 2503 -91 2169 -91 
Q 1331 -91 842 396 
Q 353 884 353 1716 
Q 353 2575 817 3079 
Q 1281 3584 2069 3584 
Q 2775 3584 3186 3129 
Q 3597 2675 3597 1894 
z
M 3022 2063 
Q 3016 2534 2758 2815 
Q 2500 3097 2075 3097 
Q 1594 3097 1305 2825 
Q 1016 2553 972 2059 
L 3022 2063 
z
" transform="scale(0.015625)"/>
       <path id="DejaVuSans-64" d="M 2906 2969 
L 2906 4863 
L 3481 4863 
L 3481 0 
L 2906 0 
L 2906 525 
Q 2725 213 2448 61 
Q 2172 -91 1784 -91 
Q 1150 -91 751 415 
Q 353 922 353 1747 
Q 353 2572 751 3078 
Q 1150 3584 1784 3584 
Q 2172 3584 2448 3432 
Q 2725 3281 2906 2969 
z
M 947 1747 
Q 947 1113 1208 752 
Q 1469 391 1925 391 
Q 2381 391 2643 752 
Q 2906 1113 2906 1747 
Q 2906 2381 2643 2742 
Q 2381 3103 1925 3103 
Q 1469 3103 1208 2742 
Q 947 2381 947 1747 
z
" transform="scale(0.015625)"/>
       <path id="DejaVuSans-61" d="M 2194 1759 
Q 1497 1759 1228 1600 
Q 959 1441 959 1056 
Q 959 750 1161 570 
Q 1363 391 1709 391 
Q 2188 391 2477 730 
Q 2766 1069 2766 1631 
L 2766 1759 
L 2194 1759 
z
M 3341 1997 
L 3341 0 
L 2766 0 
L 2766 531 
Q 2569 213 2275 61 
Q 1981 -91 1556 -91 
Q 1019 -91 701 211 
Q 384 513 384 1019 
Q 384 1609 779 1909 
Q 1175 2209 1959 2209 
L 2766 2209 
L 2766 2266 
Q 2766 2663 2505 2880 
Q 2244 3097 1772 3097 
Q 1472 3097 1187 3025 
Q 903 2953 641 2809 
L 641 3341 
Q 956 3463 1253 3523 
Q 1550 3584 1831 3584 
Q 2591 3584 2966 3190 
Q 3341 2797 3341 1997 
z
" transform="scale(0.015625)"/>
       <path id="DejaVuSans-74" d="M 1172 4494 
L 1172 3500 
L 2356 3500 
L 2356 3053 
L 1172 3053 
L 1172 1153 
Q 1172 725 1289 603 
Q 1406 481 1766 481 
L 2356 481 
L 2356 0 
L 1766 0 
Q 1100 0 847 248 
Q 594 497 594 1153 
L 594 3053 
L 172 3053 
L 172 3500 
L 594 3500 
L 594 4494 
L 1172 4494 
z
" transform="scale(0.015625)"/>
       <path id="DejaVuSans-6f" d="M 1959 3097 
Q 1497 3097 1228 2736 
Q 959 2375 959 1747 
Q 959 1119 1226 758 
Q 1494 397 1959 397 
Q 2419 397 2687 759 
Q 2956 1122 2956 1747 
Q 2956 2369 2687 2733 
Q 2419 3097 1959 3097 
z
M 1959 3584 
Q 2709 3584 3137 3096 
Q 3566 2609 3566 1747 
Q 3566 888 3137 398 
Q 2709 -91 1959 -91 
Q 1206 -91 779 398 
Q 353 888 353 1747 
Q 353 2609 779 3096 
Q 1206 3584 1959 3584 
z
" transform="scale(0.015625)"/>
       <path id="DejaVuSans-20" transform="scale(0.015625)"/>
       <path id="DejaVuSans-70" d="M 1159 525 
L 1159 -1331 
L 581 -1331 
L 581 3500 
L 1159 3500 
L 1159 2969 
Q 1341 3281 1617 3432 
Q 1894 3584 2278 3584 
Q 2916 3584 3314 3078 
Q 3713 2572 3713 1747 
Q 3713 922 3314 415 
Q 2916 -91 2278 -91 
Q 1894 -91 1617 61 
Q 1341 213 1159 525 
z
M 3116 1747 
Q 3116 2381 2855 2742 
Q 2594 3103 2138 3103 
Q 1681 3103 1420 2742 
Q 1159 2381 1159 1747 
Q 1159 1113 1420 752 
Q 1681 391 2138 391 
Q 2594 391 2855 752 
Q 3116 1113 3116 1747 
z
" transform="scale(0.015625)"/>
       <path id="DejaVuSans-75" d="M 544 1381 
L 544 3500 
L 1119 3500 
L 1119 1403 
Q 1119 906 1312 657 
Q 1506 409 1894 409 
Q 2359 409 2629 706 
Q 2900 1003 2900 1516 
L 2900 3500 
L 3475 3500 
L 3475 0 
L 2900 0 
L 2900 538 
Q 2691 219 2414 64 
Q 2138 -91 1772 -91 
Q 1169 -91 856 284 
Q 544 659 544 1381 
z
M 1991 3584 
L 1991 3584 
z
" transform="scale(0.015625)"/>
       <path id="DejaVuSans-6c" d="M 603 4863 
L 1178 4863 
L 1178 0 
L 603 0 
L 603 4863 
z
" transform="scale(0.015625)"/>
       <path id="DejaVuSans-69" d="M 603 3500 
L 1178 3500 
L 1178 0 
L 603 0 
L 603 3500 
z
M 603 4863 
L 1178 4863 
L 1178 4134 
L 603 4134 
L 603 4863 
z
" transform="scale(0.015625)"/>
       <path id="DejaVuSans-6e" d="M 3513 2113 
L 3513 0 
L 2938 0 
L 2938 2094 
Q 2938 2591 2744 2837 
Q 2550 3084 2163 3084 
Q 1697 3084 1428 2787 
Q 1159 2491 1159 1978 
L 1159 0 
L 581 0 
L 581 3500 
L 1159 3500 
L 1159 2956 
Q 1366 3272 1645 3428 
Q 1925 3584 2291 3584 
Q 2894 3584 3203 3211 
Q 3513 2838 3513 2113 
z
" transform="scale(0.015625)"/>
      </defs>
      <use xlink:href="#DejaVuSans-50"/>
      <use xlink:href="#DejaVuSans-72" x="58.552734"/>
      <use xlink:href="#DejaVuSans-65" x="97.416016"/>
      <use xlink:href="#DejaVuSans-64" x="158.939453"/>
      <use xlink:href="#DejaVuSans-61" x="222.416016"/>
      <use xlink:href="#DejaVuSans-74" x="283.695312"/>
      <use xlink:href="#DejaVuSans-6f" x="322.904297"/>
      <use xlink:href="#DejaVuSans-72" x="384.085938"/>
      <use xlink:href="#DejaVuSans-20" x="425.199219"/>
      <use xlink:href="#DejaVuSans-70" x="456.986328"/>
      <use xlink:href="#DejaVuSans-6f" x="520.462891"/>
      <use xlink:href="#DejaVuSans-70" x="581.644531"/>
      <use xlink:href="#DejaVuSans-75" x="645.121094"/>
      <use xlink:href="#DejaVuSans-6c" x="708.5"/>
      <use xlink:href="#DejaVuSans-61" x="736.283203"/>
      <use xlink:href="#DejaVuSans-74" x="797.5625"/>
      <use xlink:href="#DejaVuSans-69" x="836.771484"/>
      <use xlink:href="#DejaVuSans-6f" x="864.554688"/>
      <use xlink:href="#DejaVuSans-6e" x="925.736328"/>
     </g>
    </g>
   </g>
   <g id="matplotlib.axis_2">
    <g id="ytick_1">
     <g id="line2d_13">
      <path d="M 81 554.04 
L 583.2 554.04 
" clip-path="url(#p7ef84fb04f)" style="fill: none; stroke: #b0b0b0; stroke-width: 0.1; stroke-linecap: square"/>
     </g>
     <g id="line2d_14">
      <defs>
       <path id="me7f8fcf994" d="M 0 0 
L -3.5 0 
" style="stroke: #000000; stroke-width: 0.8"/>
      </defs>
      <g>
       <use xlink:href="#me7f8fcf994" x="81" y="554.04" style="stroke: #000000; stroke-width: 0.8"/>
      </g>
     </g>
     <g id="text_8">
      <!-- 0 -->
      <g transform="translate(67.6375 557.839219) scale(0.1 -0.1)">
       <use xlink:href="#DejaVuSans-30"/>
      </g>
     </g>
    </g>
    <g id="ytick_2">
     <g id="line2d_15">
      <path d="M 81 463.32 
L 583.2 463.32 
" clip-path="url(#p7ef84fb04f)" style="fill: none; stroke: #b0b0b0; stroke-width: 0.1; stroke-linecap: square"/>
     </g>
     <g id="line2d_16">
      <g>
       <use xlink:href="#me7f8fcf994" x="81" y="463.32" style="stroke: #000000; stroke-width: 0.8"/>
      </g>
     </g>
     <g id="text_9">
      <!-- 500 -->
      <g transform="translate(54.9125 467.119219) scale(0.1 -0.1)">
       <use xlink:href="#DejaVuSans-35"/>
       <use xlink:href="#DejaVuSans-30" x="63.623047"/>
       <use xlink:href="#DejaVuSans-30" x="127.246094"/>
      </g>
     </g>
    </g>
    <g id="ytick_3">
     <g id="line2d_17">
      <path d="M 81 372.6 
L 583.2 372.6 
" clip-path="url(#p7ef84fb04f)" style="fill: none; stroke: #b0b0b0; stroke-width: 0.1; stroke-linecap: square"/>
     </g>
     <g id="line2d_18">
      <g>
       <use xlink:href="#me7f8fcf994" x="81" y="372.6" style="stroke: #000000; stroke-width: 0.8"/>
      </g>
     </g>
     <g id="text_10">
      <!-- 1000 -->
      <g transform="translate(48.55 376.399219) scale(0.1 -0.1)">
       <use xlink:href="#DejaVuSans-31"/>
       <use xlink:href="#DejaVuSans-30" x="63.623047"/>
       <use xlink:href="#DejaVuSans-30" x="127.246094"/>
       <use xlink:href="#DejaVuSans-30" x="190.869141"/>
      </g>
     </g>
    </g>
    <g id="ytick_4">
     <g id="line2d_19">
      <path d="M 81 281.88 
L 583.2 281.88 
" clip-path="url(#p7ef84fb04f)" style="fill: none; stroke: #b0b0b0; stroke-width: 0.1; stroke-linecap: square"/>
     </g>
     <g id="line2d_20">
      <g>
       <use xlink:href="#me7f8fcf994" x="81" y="281.88" style="stroke: #000000; stroke-width: 0.8"/>
      </g>
     </g>
     <g id="text_11">
      <!-- 1500 -->
      <g transform="translate(48.55 285.679219) scale(0.1 -0.1)">
       <use xlink:href="#DejaVuSans-31"/>
       <use xlink:href="#DejaVuSans-35" x="63.623047"/>
       <use xlink:href="#DejaVuSans-30" x="127.246094"/>
       <use xlink:href="#DejaVuSans-30" x="190.869141"/>
      </g>
     </g>
    </g>
    <g id="ytick_5">
     <g id="line2d_21">
      <path d="M 81 191.16 
L 583.2 191.16 
" clip-path="url(#p7ef84fb04f)" style="fill: none; stroke: #b0b0b0; stroke-width: 0.1; stroke-linecap: square"/>
     </g>
     <g id="line2d_22">
      <g>
       <use xlink:href="#me7f8fcf994" x="81" y="191.16" style="stroke: #000000; stroke-width: 0.8"/>
      </g>
     </g>
     <g id="text_12">
      <!-- 2000 -->
      <g transform="translate(48.55 194.959219) scale(0.1 -0.1)">
       <use xlink:href="#DejaVuSans-32"/>
       <use xlink:href="#DejaVuSans-30" x="63.623047"/>
       <use xlink:href="#DejaVuSans-30" x="127.246094"/>
       <use xlink:href="#DejaVuSans-30" x="190.869141"/>
      </g>
     </g>
    </g>
    <g id="ytick_6">
     <g id="line2d_23">
      <path d="M 81 100.44 
L 583.2 100.44 
" clip-path="url(#p7ef84fb04f)" style="fill: none; stroke: #b0b0b0; stroke-width: 0.1; stroke-linecap: square"/>
     </g>
     <g id="line2d_24">
      <g>
       <use xlink:href="#me7f8fcf994" x="81" y="100.44" style="stroke: #000000; stroke-width: 0.8"/>
      </g>
     </g>
     <g id="text_13">
      <!-- 2500 -->
      <g transform="translate(48.55 104.239219) scale(0.1 -0.1)">
       <use xlink:href="#DejaVuSans-32"/>
       <use xlink:href="#DejaVuSans-35" x="63.623047"/>
       <use xlink:href="#DejaVuSans-30" x="127.246094"/>
       <use xlink:href="#DejaVuSans-30" x="190.869141"/>
      </g>
     </g>
    </g>
    <g id="text_14">
     <!-- Prey population -->
     <g transform="translate(42.470312 366.342344) rotate(-90) scale(0.1 -0.1)">
      <defs>
       <path id="DejaVuSans-79" d="M 2059 -325 
Q 1816 -950 1584 -1140 
Q 1353 -1331 966 -1331 
L 506 -1331 
L 506 -850 
L 844 -850 
Q 1081 -850 1212 -737 
Q 1344 -625 1503 -206 
L 1606 56 
L 191 3500 
L 800 3500 
L 1894 763 
L 2988 3500 
L 3597 3500 
L 2059 -325 
z
" transform="scale(0.015625)"/>
      </defs>
      <use xlink:href="#DejaVuSans-50"/>
      <use xlink:href="#DejaVuSans-72" x="58.552734"/>
      <use xlink:href="#DejaVuSans-65" x="97.416016"/>
      <use xlink:href="#DejaVuSans-79" x="158.939453"/>
      <use xlink:href="#DejaVuSans-20" x="218.119141"/>
      <use xlink:href="#DejaVuSans-70" x="249.90625"/>
      <use xlink:href="#DejaVuSans-6f" x="313.382812"/>
      <use xlink:href="#DejaVuSans-70" x="374.564453"/>
      <use xlink:href="#DejaVuSans-75" x="438.041016"/>
      <use xlink:href="#DejaVuSans-6c" x="501.419922"/>
      <use xlink:href="#DejaVuSans-61" x="529.203125"/>
      <use xlink:href="#DejaVuSans-74" x="590.482422"/>
      <use xlink:href="#DejaVuSans-69" x="629.691406"/>
      <use xlink:href="#DejaVuSans-6f" x="657.474609"/>
      <use xlink:href="#DejaVuSans-6e" x="718.65625"/>
     </g>
    </g>
   </g>
   <g id="line2d_25">
    <path d="M 241.338764 509.04288 
L 225.085745 515.21184 
L 187.831636 503.05536 
L 158.977964 488.90304 
L 152.038473 473.11776 
L 152.038473 455.33664 
L 147.655636 436.46688 
L 152.403709 423.94752 
L 158.977964 402.5376 
L 162.812945 377.68032 
L 174.135273 369.33408 
L 191.849236 369.8784 
L 209.745818 395.28 
L 227.094545 410.33952 
L 230.929527 417.96 
L 231.294764 421.95168 
L 239.147345 428.12064 
L 238.599491 426.66912 
L 238.782109 425.76192 
L 234.399273 419.41152 
L 237.138545 419.23008 
L 241.704 416.87136 
L 240.608291 416.50848 
L 246.452073 419.95584 
L 241.886618 412.87968 
L 239.147345 413.96832 
L 242.434473 414.87552 
L 246.634691 413.24256 
L 248.095636 418.8672 
L 249.373964 417.96 
L 251.017527 423.76608 
L 243.530182 414.87552 
L 237.138545 410.7024 
L 249.7392 418.14144 
L 255.7656 414.87552 
L 245.7216 410.88384 
L 238.599491 411.42816 
L 241.886618 411.42816 
L 238.234255 417.0528 
L 233.486182 406.52928 
L 226.364073 398.54592 
L 234.034036 400.17888 
L 249.373964 412.5168 
L 262.522473 422.67744 
L 261.061527 428.48352 
L 246.086836 424.67328 
L 235.6776 413.60544 
L 233.120945 406.1664 
L 233.851418 397.45728 
L 240.425673 402.90048 
L 251.930618 409.97664 
L 261.609382 419.7744 
L 262.157236 425.76192 
L 248.826109 423.4032 
L 238.234255 418.50432 
L 229.6512 411.6096 
L 229.468582 400.7232 
L 230.564291 396.00576 
L 245.538982 404.89632 
L 261.792 411.06528 
L 257.591782 414.51264 
L 247.182545 410.15808 
L 244.078036 410.33952 
L 250.652291 412.87968 
L 248.826109 413.78688 
L 236.408073 412.15392 
L 236.225455 410.33952 
L 240.790909 403.62624 
L 241.521382 403.62624 
L 244.078036 404.53344 
L 249.373964 413.06112 
L 256.496073 413.78688 
L 248.095636 410.52096 
L 249.373964 417.0528 
L 249.921818 422.31456 
L 248.643491 420.13728 
L 254.669891 416.50848 
L 257.957018 420.50016 
L 250.287055 418.8672 
L 251.200145 418.8672 
L 250.652291 413.24256 
L 254.304655 411.42816 
L 250.469673 411.6096 
L 243.347564 407.61792 
L 239.877818 409.7952 
L 246.817309 413.06112 
L 249.191345 414.51264 
L 260.513673 419.7744 
L 261.974618 424.12896 
L 257.591782 424.67328 
L 247.182545 418.32288 
L 249.556582 418.50432 
L 253.7568 433.20096 
L 248.643491 450.07488 
L 227.825018 437.55552 
L 210.476291 431.38656 
L 210.658909 427.21344 
L 212.485091 424.85472 
L 219.424582 427.75776 
L 226.911927 434.10816 
L 228.555491 439.36992 
L 220.155055 437.0112 
L 213.946036 428.12064 
L 212.119855 424.3104 
L 218.876727 427.75776 
L 230.016436 430.6608 
L 231.112145 430.6608 
L 226.181455 435.92256 
L 222.529091 433.74528 
L 218.328873 426.85056 
L 222.346473 426.85056 
L 229.468582 433.01952 
L 232.390473 439.18848 
L 232.573091 435.55968 
L 213.946036 419.95584 
L 220.155055 423.22176 
L 235.312364 425.2176 
L 242.982327 431.93088 
L 240.060436 439.18848 
L 225.816218 431.74944 
L 219.789818 421.77024 
L 216.685309 421.77024 
L 217.5984 428.66496 
L 219.424582 426.30624 
L 219.6072 427.57632 
L 217.415782 423.58464 
L 214.128655 428.66496 
L 211.572 426.66912 
L 207.737018 418.14144 
L 215.224364 414.3312 
L 219.972436 421.04448 
L 228.738109 430.47936 
L 234.764509 439.91424 
L 233.851418 443.90592 
L 224.903127 442.27296 
L 227.094545 438.28128 
L 224.903127 435.01536 
L 219.424582 424.49184 
L 216.867927 417.77856 
L 228.007636 421.22592 
L 241.338764 421.04448 
L 248.460873 432.11232 
L 245.904218 440.82144 
L 244.443273 440.09568 
L 238.599491 434.83392 
L 229.6512 428.8464 
L 229.833818 427.57632 
L 233.486182 420.50016 
L 240.608291 418.8672 
L 237.138545 420.86304 
L 242.617091 426.85056 
L 243.530182 420.50016 
L 241.156145 425.39904 
L 243.7128 432.11232 
L 238.599491 432.4752 
L 241.156145 430.47936 
L 241.521382 422.31456 
L 236.225455 411.24672 
L 238.051636 410.33952 
L 246.634691 414.69408 
L 252.478473 418.8672 
L 259.417964 430.29792 
L 264.531273 441.00288 
L 253.391564 441.18432 
L 248.460873 443.3616 
L 233.120945 431.20512 
L 211.572 412.15392 
L 223.990036 409.61376 
L 238.234255 412.33536 
L 250.652291 415.78272 
L 247.913018 422.13312 
L 244.808509 428.12064 
L 247.913018 427.9392 
L 242.617091 420.31872 
L 241.521382 419.59296 
L 242.251855 414.69408 
L 231.294764 408.34368 
L 238.416873 413.06112 
L 249.191345 417.23424 
L 255.400364 421.04448 
L 255.7656 417.77856 
L 256.678691 421.77024 
L 263.435564 420.6816 
L 263.618182 424.85472 
L 262.339855 429.20928 
L 259.052727 428.66496 
L 254.122036 426.1248 
L 248.278255 416.50848 
L 235.860218 406.1664 
L 242.617091 407.25504 
L 261.061527 410.33952 
L 272.383855 418.68576 
L 279.140727 429.02784 
L 279.505964 435.74112 
L 262.157236 427.9392 
L 253.574182 419.04864 
L 246.817309 406.52928 
L 247.913018 399.99744 
L 260.148436 407.25504 
L 261.792 406.1664 
L 269.461964 416.32704 
L 278.227636 422.496 
L 270.922909 423.4032 
L 265.444364 419.7744 
L 258.504873 402.5376 
L 262.887709 395.82432 
L 279.8712 401.6304 
L 287.723782 407.43648 
L 288.454255 410.15808 
L 283.340945 413.24256 
L 279.505964 405.07776 
L 275.305745 401.99328 
L 273.662182 397.0944 
L 276.949309 395.28 
L 293.750182 404.352 
L 304.342036 408.888 
L 303.063709 407.43648 
L 285.349745 404.53344 
L 279.8712 399.816 
L 290.828291 401.26752 
L 302.698473 414.51264 
L 299.228727 418.32288 
L 279.8712 407.9808 
L 265.261745 394.73568 
L 263.618182 390.01824 
L 267.087927 386.93376 
L 271.836 382.21632 
L 287.541164 368.60832 
L 292.654473 366.61248 
L 300.507055 366.61248 
L 317.125309 381.12768 
L 323.334327 396.55008 
L 309.272727 397.27584 
L 286.628073 385.84512 
L 279.140727 379.31328 
L 279.8712 367.88256 
L 278.227636 363.89088 
L 278.410255 358.992 
L 291.193527 369.8784 
L 315.481745 398.18304 
L 319.864582 409.97664 
L 305.620364 409.06944 
L 275.670982 390.744 
L 258.139636 366.79392 
L 254.122036 344.65824 
L 274.027418 345.384 
L 297.767782 361.89504 
L 309.637964 381.49056 
L 315.481745 403.80768 
L 304.707273 413.78688 
L 285.8976 397.27584 
L 259.600582 371.32992 
L 246.817309 349.92 
L 264.166036 346.65408 
L 289.367345 355.18176 
L 316.942691 381.12768 
L 331.186909 407.9808 
L 321.873382 421.5888 
L 292.837091 406.89216 
L 255.217745 379.67616 
L 233.120945 348.28704 
L 247.182545 336.49344 
L 276.218836 342.6624 
L 299.593964 362.6208 
L 307.081309 388.20384 
L 302.333236 395.09856 
L 289.002109 404.352 
L 279.505964 389.47392 
L 274.027418 385.3008 
L 266.905309 367.88256 
L 262.157236 355.90752 
L 264.348655 351.7344 
L 281.514764 351.55296 
L 305.620364 374.59584 
L 315.116509 389.8368 
L 298.498255 384.57504 
L 274.210036 374.05152 
L 256.130836 346.10976 
L 257.7744 332.6832 
L 269.096727 327.24 
L 280.601673 327.05856 
L 287.358545 343.20672 
L 298.863491 360.98784 
L 312.194618 369.8784 
L 303.246327 376.59168 
L 292.106618 375.3216 
L 282.793091 364.25376 
L 276.766691 360.44352 
L 272.931709 350.28288 
L 270.009818 346.65408 
L 279.688582 352.6416 
L 296.124218 363.528 
L 305.802982 367.51968 
L 296.854691 376.95456 
L 280.784291 374.77728 
L 277.314545 366.2496 
L 275.670982 357.54048 
L 273.662182 348.46848 
L 265.261745 342.6624 
L 270.375055 348.28704 
L 283.340945 347.56128 
L 296.672073 357.54048 
L 305.072509 362.6208 
L 302.881091 373.87008 
L 293.9328 381.672 
L 287.175927 378.76896 
L 283.523564 370.24128 
L 265.261745 347.74272 
L 252.295855 324.69984 
L 253.7568 310.18464 
L 272.931709 318.53088 
L 303.063709 344.83968 
L 323.882182 378.22464 
L 338.491636 405.98496 
L 335.204509 411.06528 
L 307.811782 396.73152 
L 270.557673 373.14432 
L 258.687491 350.8272 
L 270.375055 334.31616 
L 293.567564 341.93664 
L 315.846982 362.80224 
L 335.021891 397.27584 
L 343.057091 412.69824 
L 332.282618 406.89216 
L 295.758982 386.75232 
L 260.513673 356.99616 
L 241.156145 327.05856 
L 246.634691 310.54752 
L 265.8096 310.54752 
L 285.714982 316.3536 
L 309.637964 348.64992 
L 334.474036 384.03072 
L 349.996582 407.61792 
L 342.691855 417.0528 
L 306.168218 404.17056 
L 270.740291 381.85344 
L 244.991127 348.1056 
L 241.886618 315.80928 
L 252.295855 308.55168 
L 269.461964 311.63616 
L 297.585164 344.83968 
L 326.256218 379.67616 
L 344.883273 397.27584 
L 343.787564 406.1664 
L 326.0736 408.70656 
L 292.106618 388.56672 
L 274.392655 360.8064 
L 260.696291 336.85632 
L 262.522473 327.96576 
L 274.392655 331.776 
L 306.533455 367.1568 
L 320.0472 378.76896 
L 317.125309 392.01408 
L 301.785382 393.64704 
L 288.819491 379.67616 
L 282.610473 363.89088 
L 265.8096 347.56128 
L 262.705091 335.4048 
L 280.236436 343.38816 
L 302.515855 361.16928 
L 328.812873 382.39776 
L 336.1176 401.44896 
L 319.864582 410.52096 
L 295.028509 388.9296 
L 260.513673 353.5488 
L 243.7128 323.6112 
L 241.156145 310.9104 
L 253.208945 312.18048 
L 287.9064 329.78016 
L 315.664364 361.16928 
L 336.300218 387.1152 
L 339.587345 403.98912 
L 333.195709 411.42816 
L 307.263927 400.7232 
L 274.575273 381.30912 
L 255.7656 360.26208 
L 248.460873 335.94912 
L 261.061527 324.33696 
L 276.401455 326.15136 
L 297.9504 353.73024 
L 318.403636 377.86176 
L 335.569745 392.92128 
L 333.560945 400.17888 
L 313.838182 399.27168 
L 290.097818 390.92544 
L 275.488364 368.24544 
L 271.288145 344.4768 
L 270.740291 329.23584 
L 280.966909 334.13472 
L 299.9592 347.37984 
L 322.238618 367.33824 
L 337.943782 392.01408 
L 329.908582 398.0016 
L 299.411345 383.4864 
L 273.296945 362.07648 
L 267.635782 341.57376 
L 275.8536 333.22752 
L 301.968 345.56544 
L 328.995491 376.95456 
L 354.1968 410.88384 
L 345.613745 418.8672 
L 304.342036 406.52928 
L 266.905309 381.49056 
L 250.652291 351.37152 
L 253.208945 327.42144 
L 270.557673 326.3328 
L 297.9504 351.19008 
L 329.725964 383.66784 
L 341.596145 405.80352 
L 322.056 406.71072 
L 257.591782 366.97536 
L 245.7216 341.21088 
L 254.852509 313.45056 
L 268.366255 306.55584 
L 277.8624 325.06272 
L 297.037309 352.6416 
L 328.630255 385.66368 
L 331.004291 400.7232 
L 305.255127 390.01824 
L 275.123127 375.14016 
L 253.208945 354.81888 
L 251.382764 325.24416 
L 254.852509 309.45888 
L 270.192436 316.71648 
L 288.454255 335.04192 
L 308.907491 367.70112 
L 334.291418 399.99744 
L 331.186909 411.6096 
L 313.290327 406.52928 
L 276.949309 382.39776 
L 255.582982 361.16928 
L 240.608291 338.67072 
L 247.365164 313.81344 
L 265.626982 311.09184 
L 289.367345 339.21504 
L 318.586255 372.41856 
L 338.856873 406.34784 
L 325.343127 410.52096 
L 287.723782 384.57504 
L 261.244145 362.07648 
L 247.547782 344.11392 
L 248.460873 327.05856 
L 273.662182 330.14304 
L 310.185818 352.09728 
L 322.238618 381.49056 
L 317.125309 398.72736 
L 297.767782 378.76896 
L 275.305745 366.2496 
L 264.166036 354.81888 
L 283.8888 364.61664 
L 307.629164 378.76896 
L 317.125309 394.19136 
L 310.916291 405.80352 
L 288.454255 404.53344 
L 271.105527 390.744 
L 259.417964 366.79392 
L 248.095636 327.60288 
L 270.557673 338.48928 
L 306.533455 366.79392 
L 334.656655 407.43648 
L 331.369527 426.48768 
L 301.054909 424.3104 
L 262.887709 409.25088 
L 243.895418 382.94208 
L 238.416873 354.456 
L 238.964727 332.50176 
L 255.582982 335.22336 
L 286.993309 359.35488 
L 328.812873 400.54176 
L 326.621455 421.77024 
L 294.298036 418.68576 
L 259.965818 406.89216 
L 242.251855 387.84096 
L 239.147345 356.45184 
L 234.947127 335.4048 
L 251.200145 335.76768 
L 276.218836 345.20256 
L 299.593964 371.32992 
L 316.394836 409.7952 
L 308.907491 433.74528 
L 287.175927 438.8256 
L 251.200145 421.22592 
L 230.929527 390.19968 
L 222.529091 353.18592 
L 228.920727 331.776 
L 242.617091 330.14304 
L 276.584073 355.90752 
L 313.655564 389.47392 
L 311.646764 422.67744 
L 283.523564 438.8256 
L 254.122036 435.1968 
L 239.6952 418.8672 
L 228.372873 398.18304 
L 220.885527 382.94208 
L 240.973527 378.76896 
L 265.079127 378.22464 
L 297.9504 405.80352 
L 292.654473 405.62208 
L 275.670982 400.36032 
L 273.296945 400.36032 
L 280.966909 399.99744 
L 283.706182 401.08608 
L 281.332145 405.07776 
L 279.140727 399.27168 
L 279.8712 405.44064 
L 297.767782 412.87968 
L 295.393745 412.5168 
L 282.975709 407.61792 
L 274.392655 399.63456 
L 275.305745 398.0016 
L 284.254036 396.73152 
L 294.480655 405.62208 
L 302.333236 416.68992 
L 298.863491 430.6608 
L 268.183636 423.04032 
L 252.843709 415.2384 
L 255.582982 405.07776 
L 261.974618 406.52928 
L 274.575273 412.69824 
L 277.679782 427.9392 
L 277.497164 433.3824 
L 262.705091 426.48768 
L 241.704 414.87552 
L 239.329964 409.61376 
L 246.269455 412.5168 
L 259.235345 423.4032 
L 269.644582 430.84224 
L 266.357455 432.65664 
L 256.313455 427.57632 
L 246.999927 424.3104 
L 246.999927 421.04448 
L 242.251855 410.88384 
L 244.078036 411.79104 
L 253.7568 417.0528 
L 266.174836 424.12896 
L 259.7832 419.59296 
L 244.443273 411.6096 
L 246.086836 409.43232 
L 258.870109 413.78688 
L 262.887709 413.424 
L 255.582982 414.3312 
L 258.687491 421.04448 
L 259.052727 416.68992 
L 264.896509 427.032 
L 270.922909 431.93088 
L 256.678691 430.6608 
L 250.834909 425.76192 
L 237.321164 414.69408 
L 238.964727 413.78688 
L 255.948218 424.3104 
L 258.504873 430.47936 
L 252.843709 432.83808 
L 249.921818 435.74112 
L 244.808509 433.01952 
L 235.6776 418.50432 
L 239.6952 411.79104 
L 242.069236 417.41568 
L 255.400364 430.11648 
L 264.348655 441.18432 
L 252.661091 438.46272 
L 227.6424 428.12064 
L 232.755709 428.12064 
L 232.938327 423.94752 
L 231.66 424.3104 
L 231.477382 423.4032 
L 227.277164 416.50848 
L 231.477382 415.96416 
L 240.790909 426.1248 
L 252.113236 439.91424 
L 247.365164 443.18016 
L 234.764509 444.45024 
L 221.981236 429.02784 
L 224.172655 425.76192 
L 234.399273 422.13312 
L 237.6864 423.58464 
L 243.895418 419.04864 
L 244.260655 422.85888 
L 248.278255 431.568 
L 249.921818 438.46272 
L 249.191345 439.7328 
L 241.704 436.82976 
L 244.078036 434.2896 
L 240.425673 435.1968 
L 237.869018 430.84224 
L 231.112145 435.1968 
L 237.321164 434.47104 
L 238.051636 433.56384 
L 229.833818 428.12064 
L 224.537891 430.47936 
L 227.094545 429.57216 
L 222.711709 427.75776 
L 226.729309 427.032 
L 233.486182 430.29792 
L 229.833818 430.47936 
L 222.346473 429.93504 
L 215.772218 425.2176 
L 212.667709 423.22176 
L 211.754618 423.04032 
L 215.041745 425.94336 
L 225.816218 434.10816 
L 228.920727 438.09984 
L 217.5984 432.83808 
L 216.137455 425.39904 
L 221.616 425.39904 
L 226.729309 425.03616 
L 227.277164 428.66496 
L 226.546691 430.11648 
L 227.459782 426.85056 
L 226.546691 428.8464 
L 225.085745 431.20512 
L 219.059345 433.01952 
L 215.406982 431.568 
L 213.398182 426.1248 
L 220.520291 428.66496 
L 231.112145 434.47104 
L 225.998836 433.92672 
L 223.259564 438.28128 
L 221.433382 437.9184 
L 222.894327 433.01952 
L 221.433382 433.74528 
L 213.946036 429.93504 
L 207.371782 418.68576 
L 209.928436 415.41984 
L 217.415782 429.20928 
L 228.555491 429.39072 
L 231.294764 426.85056 
L 230.381673 423.22176 
L 228.007636 418.50432 
L 224.720509 411.24672 
L 238.234255 407.61792 
L 251.748 410.33952 
L 245.356364 409.7952 
L 242.617091 414.51264 
L 255.948218 424.85472 
L 261.974618 428.30208 
L 241.886618 424.49184 
L 233.851418 416.32704 
L 225.998836 403.26336 
L 222.894327 400.54176 
L 228.190255 396.1872 
L 236.955927 401.99328 
L 248.278255 415.96416 
L 250.834909 428.12064 
L 256.313455 437.55552 
L 250.652291 441.36576 
L 237.321164 428.12064 
L 216.867927 415.96416 
L 211.754618 401.26752 
L 226.181455 407.25504 
L 241.338764 406.52928 
L 240.425673 410.52096 
L 249.7392 407.61792 
L 257.7744 409.06944 
L 260.148436 417.77856 
L 259.965818 423.04032 
L 245.7216 421.95168 
L 242.617091 419.59296 
L 241.886618 417.23424 
L 242.799709 416.1456 
L 239.6952 408.888 
L 237.6864 406.89216 
L 249.373964 411.42816 
L 246.634691 406.1664 
L 246.634691 412.5168 
L 260.148436 414.14976 
L 265.8096 420.86304 
L 258.870109 421.40736 
L 251.930618 420.50016 
L 255.7656 421.40736 
L 268.366255 425.03616 
L 268.183636 427.57632 
L 249.7392 423.58464 
L 249.008727 415.96416 
L 247.7304 413.24256 
L 253.026327 415.78272 
L 248.826109 415.96416 
L 248.826109 411.06528 
L 246.817309 414.51264 
L 247.365164 408.16224 
L 240.425673 403.80768 
L 251.017527 407.0736 
L 261.426764 412.69824 
L 266.357455 420.31872 
L 251.017527 421.5888 
L 244.808509 419.95584 
L 244.991127 417.77856 
L 245.538982 413.78688 
L 249.921818 412.15392 
L 250.469673 413.06112 
L 250.652291 419.04864 
L 253.208945 418.14144 
L 252.661091 417.96 
L 239.6952 410.88384 
L 230.016436 407.0736 
L 231.477382 402.71904 
L 245.7216 405.07776 
L 263.435564 416.68992 
L 264.713891 422.85888 
L 256.861309 423.94752 
L 257.591782 419.7744 
L 242.617091 416.50848 
L 236.408073 411.42816 
L 245.538982 414.87552 
L 246.999927 412.33536 
L 241.156145 409.25088 
L 239.147345 405.44064 
L 246.452073 405.07776 
L 251.930618 411.42816 
L 244.991127 414.87552 
L 246.452073 410.33952 
L 249.191345 416.32704 
L 257.226545 421.40736 
L 257.043927 420.6816 
L 244.625891 415.96416 
L 245.7216 409.43232 
L 244.078036 411.42816 
L 240.790909 408.888 
L 240.060436 405.2592 
L 249.921818 409.61376 
L 256.313455 411.24672 
L 251.017527 407.79936 
L 249.373964 408.888 
L 246.634691 408.888 
L 239.512582 404.89632 
L 238.964727 399.27168 
L 248.643491 403.62624 
L 254.487273 409.25088 
L 254.304655 416.1456 
L 255.400364 421.5888 
L 244.443273 425.94336 
L 227.094545 417.0528 
L 224.172655 408.52512 
L 234.216655 405.98496 
L 244.625891 409.25088 
L 260.696291 416.87136 
L 262.522473 430.6608 
L 252.113236 428.30208 
L 238.782109 417.23424 
L 238.051636 411.6096 
L 236.955927 407.25504 
L 239.6952 411.42816 
L 247.547782 417.0528 
L 246.817309 418.14144 
L 233.6688 403.98912 
L 238.782109 407.25504 
L 245.7216 404.71488 
L 242.982327 402.90048 
L 242.799709 397.82016 
L 256.496073 405.07776 
L 265.992218 413.96832 
L 267.087927 421.95168 
L 259.600582 427.39488 
L 248.278255 423.04032 
L 250.834909 419.7744 
L 244.625891 412.69824 
L 239.329964 407.25504 
L 246.999927 411.24672 
L 251.565382 418.14144 
L 250.652291 420.50016 
L 249.191345 417.77856 
L 247.365164 410.88384 
L 250.287055 412.33536 
L 247.365164 409.43232 
L 250.104436 413.06112 
L 253.208945 423.22176 
L 252.113236 418.32288 
L 246.634691 415.78272 
L 248.095636 408.70656 
L 248.278255 406.89216 
L 255.400364 412.69824 
L 259.417964 414.51264 
L 256.313455 412.69824 
L 245.904218 404.53344 
L 242.617091 405.98496 
L 249.373964 408.70656 
L 251.382764 411.24672 
L 258.504873 416.87136 
L 254.122036 424.12896 
L 246.452073 416.1456 
L 236.042836 404.17056 
L 241.886618 405.2592 
L 257.226545 415.41984 
L 260.878909 416.32704 
L 247.7304 414.87552 
L 238.051636 412.15392 
L 236.773309 408.52512 
L 229.833818 401.6304 
L 238.234255 397.82016 
L 240.790909 394.19136 
L 249.008727 398.72736 
L 253.208945 403.80768 
L 251.930618 409.7952 
L 252.113236 414.87552 
L 246.086836 410.7024 
L 246.999927 418.14144 
L 255.400364 415.2384 
L 251.748 413.60544 
L 242.251855 407.25504 
L 240.973527 400.7232 
L 255.217745 428.8464 
L 261.974618 444.99456 
L 250.834909 448.8048 
L 236.590691 443.54304 
L 219.972436 441.91008 
L 214.676509 439.00704 
L 207.371782 424.49184 
L 200.614909 423.94752 
L 208.284873 422.67744 
L 215.5896 429.57216 
L 217.781018 431.02368 
L 222.529091 435.1968 
L 221.068145 435.92256 
L 214.128655 435.74112 
L 203.5368 433.56384 
L 202.441091 428.12064 
L 198.423491 421.40736 
L 200.980145 419.7744 
L 205.910836 417.41568 
L 211.572 416.68992 
L 217.415782 427.9392 
L 224.172655 426.48768 
L 227.277164 426.48768 
L 228.555491 422.496 
L 231.66 424.49184 
L 236.773309 428.8464 
L 231.66 432.29376 
L 226.546691 429.7536 
L 221.981236 427.9392 
L 224.355273 429.39072 
L 227.825018 423.4032 
L 225.6336 423.94752 
L 232.938327 433.20096 
L 237.6864 438.64416 
L 223.990036 435.01536 
L 215.406982 431.568 
L 221.798618 430.6608 
L 225.6336 426.30624 
L 229.468582 425.03616 
L 237.869018 433.20096 
L 238.599491 433.56384 
L 231.477382 438.46272 
L 220.337673 430.11648 
L 215.954836 423.04032 
L 215.954836 416.50848 
L 223.6248 414.87552 
L 232.207855 424.67328 
L 243.164945 434.47104 
L 245.7216 437.73696 
L 242.434473 437.0112 
L 237.869018 428.30208 
L 229.285964 419.95584 
L 229.285964 414.51264 
L 239.512582 419.7744 
L 251.565382 431.38656 
L 258.504873 439.36992 
L 257.591782 439.00704 
L 251.748 441.72864 
L 236.225455 435.1968 
L 224.355273 425.2176 
L 228.007636 416.68992 
L 247.913018 427.032 
L 254.304655 435.37824 
L 244.625891 440.09568 
L 231.842618 430.47936 
L 222.346473 421.5888 
L 230.929527 415.96416 
L 238.964727 416.87136 
L 250.104436 429.02784 
L 254.669891 436.104 
L 250.469673 438.28128 
L 239.329964 427.75776 
L 222.529091 421.40736 
L 225.998836 421.22592 
L 236.590691 424.85472 
L 237.6864 426.85056 
L 237.869018 430.11648 
L 240.973527 431.74944 
L 237.503782 430.29792 
L 240.608291 423.76608 
L 242.982327 420.31872 
L 245.538982 427.032 
L 244.808509 421.95168 
L 233.486182 413.60544 
L 234.581891 412.15392 
L 240.243055 413.60544 
L 246.634691 423.4032 
L 255.400364 426.1248 
L 264.348655 433.74528 
L 251.017527 430.6608 
L 239.329964 427.39488 
L 243.164945 419.41152 
L 254.487273 414.3312 
L 256.861309 411.42816 
L 249.556582 411.79104 
L 267.8184 429.39072 
L 268.001018 430.11648 
L 268.001018 434.10816 
L 270.740291 436.64832 
L 249.191345 425.58048 
L 236.955927 409.61376 
L 234.764509 397.27584 
L 250.834909 396.55008 
L 268.914109 405.62208 
L 282.427855 419.95584 
L 291.376145 435.01536 
L 288.819491 439.91424 
L 241.521382 416.50848 
L 240.608291 412.15392 
L 251.200145 405.98496 
L 247.913018 398.9088 
L 257.957018 402.5376 
L 270.375055 413.06112 
L 268.183636 409.7952 
L 261.061527 408.70656 
L 253.208945 398.54592 
L 250.104436 386.75232 
L 267.270545 387.47808 
L 293.019709 403.80768 
L 303.063709 422.13312 
L 289.367345 419.95584 
L 262.887709 402.5376 
L 254.669891 384.21216 
L 259.7832 381.85344 
L 291.924 396.55008 
L 310.551055 418.32288 
L 313.655564 429.57216 
L 288.271636 421.5888 
L 270.192436 401.81184 
L 258.139636 384.93792 
L 263.8008 381.12768 
L 280.784291 386.75232 
L 294.845891 396.00576 
L 304.524655 407.0736 
L 301.785382 411.6096 
L 286.993309 399.45312 
L 273.296945 367.33824 
L 272.931709 345.56544 
L 288.636873 345.92832 
L 315.664364 375.68448 
L 340.865673 404.71488 
L 326.256218 412.87968 
L 293.750182 405.07776 
L 270.557673 390.56256 
L 266.905309 372.05568 
L 263.618182 352.6416 
L 266.357455 341.02944 
L 274.757891 346.2912 
L 287.358545 356.2704 
L 303.611564 380.40192 
L 312.925091 405.44064 
L 315.116509 426.66912 
L 288.819491 415.05696 
L 255.035127 384.93792 
L 243.347564 358.992 
L 253.574182 344.4768 
L 280.236436 347.01696 
L 301.785382 370.60416 
L 317.855782 396.91296 
L 319.499345 414.87552 
L 296.672073 409.43232 
L 275.123127 391.10688 
L 262.887709 370.24128 
L 255.948218 351.7344 
L 278.045018 354.63744 
L 302.333236 363.89088 
L 315.299127 382.39776 
L 325.890982 411.6096 
L 318.768873 423.04032 
L 293.750182 407.25504 
L 250.287055 377.31744 
L 223.6248 345.92832 
L 242.982327 327.60288 
L 281.514764 326.87712 
L 303.611564 349.73856 
L 319.681964 389.29248 
L 336.848073 425.58048 
L 321.508145 425.58048 
L 284.254036 393.10272 
L 238.051636 351.55296 
L 221.798618 320.34528 
L 243.530182 302.92704 
L 285.714982 321.97824 
L 323.334327 366.61248 
L 337.395927 399.27168 
L 325.708364 415.41984 
L 291.193527 406.34784 
L 246.634691 362.80224 
L 225.450982 324.88128 
L 229.833818 299.66112 
L 264.348655 307.82592 
L 309.820582 344.65824 
L 340.1352 383.66784 
L 341.413527 408.888 
L 320.412436 415.60128 
L 296.489455 402.17472 
L 268.001018 370.24128 
L 254.669891 346.83552 
L 263.618182 341.39232 
L 287.723782 350.64576 
L 301.237527 355.18176 
L 300.689673 363.16512 
L 296.124218 375.3216 
L 306.168218 377.86176 
L 301.054909 373.32576 
L 281.149527 353.5488 
L 265.079127 346.83552 
L 265.992218 343.20672 
L 284.254036 349.73856 
L 298.498255 352.09728 
L 299.228727 362.07648 
L 303.9768 378.58752 
L 298.133018 380.03904 
L 286.810691 366.79392 
L 271.288145 351.00864 
L 259.235345 331.59456 
L 266.357455 334.67904 
L 283.706182 351.19008 
L 307.9944 368.9712 
L 307.446545 377.49888 
L 300.141818 387.65952 
L 308.359636 397.63872 
L 306.898691 397.82016 
L 300.507055 383.12352 
L 272.383855 361.89504 
L 252.295855 337.2192 
L 261.609382 324.5184 
L 296.672073 336.67488 
L 317.307927 360.8064 
L 340.1352 393.10272 
L 331.917382 411.79104 
L 318.586255 407.0736 
L 287.175927 375.50304 
L 255.400364 341.21088 
L 239.877818 311.45472 
L 247.913018 304.56 
L 278.227636 319.0752 
L 317.673164 350.10144 
L 340.865673 388.20384 
L 339.769964 415.2384 
L 319.681964 419.23008 
L 288.636873 392.01408 
L 256.678691 355.3632 
L 238.599491 321.25248 
L 233.6688 301.65696 
L 250.287055 308.00736 
L 287.723782 332.6832 
L 318.586255 364.07232 
L 341.048291 398.0016 
L 343.057091 418.14144 
L 327.717164 422.13312 
L 270.740291 378.40608 
L 250.104436 343.20672 
L 249.7392 327.24 
L 267.087927 321.61536 
L 274.757891 319.9824 
L 290.645673 335.76768 
L 314.933891 367.51968 
L 333.013091 390.744 
L 333.743564 398.9088 
L 305.802982 393.10272 
L 271.105527 373.5072 
L 249.191345 351.7344 
L 253.391564 334.67904 
L 265.992218 321.07104 
L 282.245236 326.87712 
L 282.245236 326.87712 
" clip-path="url(#p7ef84fb04f)" style="fill: none; stroke-dasharray: 5.55,2.4; stroke-dashoffset: 0; stroke: #008000; stroke-opacity: 0.7; stroke-width: 1.5"/>
   </g>
   <g id="line2d_26">
    <path d="M 81 77.76 
L 583.2 576.72 
" clip-path="url(#p7ef84fb04f)" style="fill: none; stroke: #000000; stroke-width: 1.5; stroke-linecap: square"/>
   </g>
   <g id="line2d_27">
    <path d="M 81 554.04 
L 649 554.04 
" clip-path="url(#p7ef84fb04f)" style="fill: none; stroke-dasharray: 9.6,2.4,1.5,2.4; stroke-dashoffset: 0; stroke: #000000; stroke-width: 1.5"/>
   </g>
   <g id="line2d_28">
    <path d="M 103.827273 576.72 
L 103.827273 -1 
" clip-path="url(#p7ef84fb04f)" style="fill: none; stroke-dasharray: 9.6,2.4,1.5,2.4; stroke-dashoffset: 0; stroke: #000000; stroke-width: 1.5"/>
   </g>
   <g id="line2d_29">
    <path d="M 241.338764 509.04288 
L 222.894327 514.1232 
L 190.205673 498.51936 
L 167.926255 482.00832 
L 164.273891 466.58592 
L 164.639127 446.9904 
L 165.3696 427.75776 
L 165.917455 408.16224 
L 170.117673 396.00576 
L 179.979055 380.94624 
L 197.145164 378.22464 
L 215.041745 388.56672 
L 231.477382 402.71904 
L 241.156145 410.88384 
L 241.704 421.40736 
L 241.338764 429.20928 
L 233.486182 429.57216 
L 234.034036 427.032 
L 235.6776 424.3104 
L 227.277164 413.06112 
L 224.172655 407.61792 
L 232.207855 406.34784 
L 232.207855 408.52512 
L 244.260655 419.04864 
L 242.982327 423.58464 
L 238.051636 423.4032 
L 233.6688 418.68576 
L 232.755709 410.52096 
L 230.564291 410.52096 
L 229.833818 405.62208 
L 233.120945 400.90464 
L 244.625891 404.53344 
L 257.043927 413.60544 
L 261.792 421.77024 
L 260.878909 423.76608 
L 257.957018 427.39488 
L 254.122036 426.1248 
L 244.260655 421.40736 
L 244.260655 422.13312 
L 240.790909 405.98496 
L 238.416873 408.888 
L 249.191345 418.32288 
L 257.226545 423.58464 
L 251.382764 420.86304 
L 243.164945 412.69824 
L 245.538982 401.99328 
L 248.643491 404.53344 
L 255.7656 418.14144 
L 256.313455 425.94336 
L 242.251855 423.76608 
L 229.103345 414.69408 
L 223.807418 405.80352 
L 235.129745 402.71904 
L 239.512582 408.16224 
L 253.574182 419.04864 
L 250.652291 428.12064 
L 238.416873 417.77856 
L 231.66 415.78272 
L 244.260655 415.2384 
L 245.356364 413.424 
L 244.443273 416.87136 
L 248.826109 414.87552 
L 246.999927 411.42816 
L 242.799709 410.15808 
L 241.156145 405.44064 
L 237.321164 399.816 
L 243.530182 404.352 
L 256.861309 412.5168 
L 263.252945 420.31872 
L 259.235345 428.48352 
L 255.035127 421.5888 
L 241.521382 414.3312 
L 234.216655 405.44064 
L 238.416873 403.08192 
L 242.251855 401.99328 
L 247.547782 399.09024 
L 253.391564 407.25504 
L 260.878909 412.69824 
L 264.713891 415.05696 
L 262.339855 415.05696 
L 257.226545 417.23424 
L 257.409164 417.96 
L 258.139636 423.22176 
L 248.643491 422.496 
L 247.182545 414.69408 
L 247.547782 411.97248 
L 249.008727 409.06944 
L 251.382764 413.96832 
L 248.460873 420.50016 
L 244.443273 423.76608 
L 251.748 422.13312 
L 254.852509 440.64 
L 247.913018 440.27712 
L 232.573091 438.8256 
L 220.520291 432.4752 
L 216.137455 427.57632 
L 219.059345 420.50016 
L 214.859127 414.14976 
L 221.433382 424.49184 
L 232.938327 434.10816 
L 226.729309 432.29376 
L 223.076945 437.73696 
L 220.155055 433.92672 
L 223.442182 433.56384 
L 226.911927 429.20928 
L 219.241964 421.04448 
L 217.233164 419.59296 
L 223.6248 421.22592 
L 228.190255 425.58048 
L 226.729309 421.5888 
L 221.981236 418.8672 
L 219.059345 415.96416 
L 216.867927 416.1456 
L 224.355273 420.13728 
L 233.303564 430.29792 
L 240.608291 438.28128 
L 238.782109 442.81728 
L 227.277164 441.91008 
L 217.781018 437.0112 
L 218.876727 436.82976 
L 226.546691 432.65664 
L 227.094545 438.09984 
L 224.537891 440.64 
L 221.616 442.99872 
L 213.946036 441.00288 
L 203.902036 424.49184 
L 215.772218 425.2176 
L 226.181455 429.57216 
L 227.825018 437.55552 
L 224.172655 441.18432 
L 219.059345 435.55968 
L 210.293673 427.9392 
L 210.658909 427.21344 
L 221.433382 424.49184 
L 228.555491 429.93504 
L 225.998836 425.94336 
L 224.537891 423.04032 
L 233.120945 422.67744 
L 242.617091 427.39488 
L 249.191345 432.11232 
L 248.278255 431.02368 
L 238.599491 431.38656 
L 233.120945 423.94752 
L 219.059345 419.41152 
L 216.867927 412.15392 
L 230.929527 413.06112 
L 251.930618 431.568 
L 256.678691 446.62752 
L 247.182545 448.26048 
L 232.025236 439.55136 
L 228.190255 435.1968 
L 231.477382 435.55968 
L 227.094545 435.1968 
L 228.920727 429.7536 
L 226.729309 428.8464 
L 226.729309 426.48768 
L 228.920727 427.75776 
L 234.399273 427.9392 
L 232.755709 425.94336 
L 233.851418 424.49184 
L 233.303564 425.2176 
L 239.6952 431.93088 
L 248.095636 432.83808 
L 245.538982 435.1968 
L 234.034036 429.02784 
L 229.833818 425.58048 
L 234.947127 427.57632 
L 242.982327 424.67328 
L 243.530182 428.8464 
L 242.251855 426.30624 
L 242.799709 419.23008 
L 250.469673 422.85888 
L 258.139636 427.39488 
L 260.148436 430.47936 
L 257.409164 429.93504 
L 247.182545 422.13312 
L 243.347564 412.15392 
L 249.7392 411.24672 
L 256.678691 414.3312 
L 274.027418 432.4752 
L 265.992218 436.104 
L 250.469673 427.39488 
L 245.904218 426.1248 
L 239.512582 412.69824 
L 233.851418 406.52928 
L 241.886618 398.18304 
L 249.921818 404.17056 
L 264.166036 418.32288 
L 279.8712 425.94336 
L 278.045018 433.56384 
L 261.244145 429.02784 
L 241.338764 419.04864 
L 236.225455 408.16224 
L 236.590691 399.99744 
L 255.582982 405.44064 
L 278.410255 421.5888 
L 286.262836 434.2896 
L 265.079127 433.20096 
L 247.7304 421.04448 
L 240.243055 410.88384 
L 245.904218 403.4448 
L 260.331055 409.25088 
L 272.931709 418.68576 
L 280.966909 413.60544 
L 263.252945 407.0736 
L 259.965818 403.98912 
L 267.635782 403.80768 
L 273.114327 401.99328 
L 272.383855 399.09024 
L 276.949309 396.91296 
L 284.436655 404.71488 
L 296.854691 417.23424 
L 289.732582 413.60544 
L 273.8448 406.1664 
L 270.740291 395.64288 
L 271.470764 385.48224 
L 270.740291 384.75648 
L 277.8624 387.47808 
L 290.828291 397.0944 
L 302.333236 409.61376 
L 300.872291 412.5168 
L 292.289236 409.61376 
L 274.575273 397.45728 
L 260.878909 385.3008 
L 268.914109 389.8368 
L 293.9328 400.54176 
L 301.602764 389.8368 
L 283.158327 373.32576 
L 286.810691 360.98784 
L 309.820582 368.24544 
L 324.977891 387.84096 
L 313.838182 402.71904 
L 295.9416 396.91296 
L 282.062618 377.86176 
L 275.8536 363.70944 
L 284.619273 357.54048 
L 294.298036 358.44768 
L 316.577455 379.13184 
L 331.552145 405.98496 
L 326.986691 427.57632 
L 298.680873 414.51264 
L 265.626982 389.65536 
L 248.826109 363.70944 
L 254.122036 343.93248 
L 277.497164 353.36736 
L 308.907491 370.60416 
L 325.525745 395.46144 
L 319.316727 415.60128 
L 290.097818 410.15808 
L 254.487273 390.744 
L 246.999927 358.81056 
L 259.600582 334.67904 
L 269.461964 335.04192 
L 279.688582 355.54464 
L 293.019709 376.04736 
L 310.551055 393.10272 
L 316.394836 405.44064 
L 294.115418 407.79936 
L 257.7744 394.00992 
L 237.138545 370.42272 
L 250.104436 347.01696 
L 270.740291 343.02528 
L 288.454255 362.07648 
L 299.228727 386.02656 
L 306.898691 401.08608 
L 302.333236 401.6304 
L 278.045018 381.49056 
L 259.417964 363.89088 
L 255.948218 345.56544 
L 263.618182 337.40064 
L 267.453164 339.75936 
L 274.210036 346.83552 
L 292.654473 361.7136 
L 314.568655 379.67616 
L 321.690764 390.01824 
L 298.680873 391.6512 
L 283.523564 381.672 
L 274.210036 367.70112 
L 267.8184 359.71776 
L 268.001018 346.10976 
L 264.166036 334.31616 
L 270.009818 328.1472 
L 274.027418 331.95744 
L 290.463055 347.01696 
L 316.577455 376.59168 
L 339.039491 397.63872 
L 330.273818 406.89216 
L 299.9592 397.63872 
L 269.279345 380.03904 
L 250.104436 351.91584 
L 250.652291 322.34112 
L 268.731491 317.07936 
L 279.505964 332.50176 
L 293.384945 356.99616 
L 311.829382 369.15264 
L 317.490545 383.84928 
L 303.611564 390.744 
L 293.384945 393.28416 
L 277.679782 377.86176 
L 261.609382 346.2912 
L 242.982327 318.168 
L 244.625891 306.91872 
L 272.749091 315.08352 
L 302.881091 340.66656 
L 307.263927 367.70112 
L 313.472945 387.65952 
L 316.577455 390.744 
L 298.680873 375.50304 
L 277.131927 363.16512 
L 267.087927 352.82304 
L 273.114327 350.8272 
L 297.219927 360.26208 
L 305.802982 369.69696 
L 300.141818 373.87008 
L 287.723782 368.24544 
L 285.167127 370.60416 
L 279.8712 367.70112 
L 284.619273 360.8064 
L 292.654473 360.98784 
L 306.716073 365.16096 
L 309.455345 366.61248 
L 310.916291 378.40608 
L 320.229818 397.45728 
L 315.299127 390.01824 
L 306.716073 380.22048 
L 280.236436 367.51968 
L 270.740291 357.35904 
L 276.949309 346.2912 
L 290.828291 348.28704 
L 295.028509 345.20256 
L 301.968 358.81056 
L 307.9944 376.04736 
L 321.508145 395.09856 
L 319.316727 394.55424 
L 298.498255 375.68448 
L 269.644582 353.36736 
L 268.183636 336.312 
L 283.8888 340.848 
L 305.072509 356.45184 
L 313.472945 371.14848 
L 317.307927 376.41024 
L 301.420145 377.86176 
L 296.306836 369.69696 
L 286.993309 365.70528 
L 295.9416 359.71776 
L 299.411345 349.92 
L 291.376145 357.35904 
L 291.741382 360.98784 
L 291.193527 363.16512 
L 293.384945 357.54048 
L 292.837091 354.27456 
L 286.810691 353.91168 
L 281.88 349.92 
L 290.097818 349.0128 
L 288.636873 342.6624 
L 288.819491 345.02112 
L 286.993309 357.90336 
L 288.454255 364.97952 
L 294.298036 369.15264 
L 293.019709 366.43104 
L 292.837091 359.35488 
L 279.140727 357.54048 
L 277.314545 353.91168 
L 286.445455 356.63328 
L 299.411345 358.62912 
L 315.116509 369.15264 
L 327.899782 383.30496 
L 329.543345 396.1872 
L 313.290327 396.55008 
L 289.732582 376.2288 
L 277.497164 353.00448 
L 266.905309 336.13056 
L 259.600582 328.87296 
L 266.357455 325.4256 
L 279.140727 327.24 
L 290.280436 339.9408 
L 304.524655 361.89504 
L 322.238618 383.12352 
L 329.178109 394.19136 
L 322.603855 396.55008 
L 302.515855 396.36864 
L 289.002109 383.84928 
L 284.254036 374.77728 
L 278.592873 357.1776 
L 271.288145 340.66656 
L 274.575273 338.67072 
L 297.9504 360.44352 
L 320.960291 375.14016 
L 330.456436 385.66368 
L 326.986691 396.55008 
L 304.524655 400.17888 
L 298.863491 397.27584 
L 281.514764 375.3216 
L 270.375055 355.90752 
L 260.331055 335.58624 
L 268.548873 330.8688 
L 289.367345 341.02944 
L 307.629164 365.3424 
L 325.890982 395.09856 
L 329.725964 406.71072 
L 322.603855 403.80768 
L 291.558764 390.38112 
L 263.435564 360.44352 
L 247.7304 334.31616 
L 255.7656 322.704 
L 279.688582 324.5184 
L 311.829382 355.90752 
L 330.639055 384.3936 
L 328.0824 400.36032 
L 307.9944 396.55008 
L 283.523564 380.94624 
L 267.8184 356.81472 
L 253.026327 336.13056 
L 262.522473 325.24416 
L 282.427855 334.4976 
L 301.420145 353.91168 
L 301.602764 366.61248 
L 297.585164 375.86592 
L 293.9328 371.6928 
L 295.576364 366.2496 
L 280.419055 353.18592 
L 261.061527 343.93248 
L 254.669891 329.59872 
L 267.8184 326.15136 
L 284.254036 334.31616 
L 296.672073 355.00032 
L 307.446545 368.24544 
L 311.098909 381.12768 
L 304.707273 381.672 
L 300.324436 376.2288 
L 294.663273 374.4144 
L 269.8272 361.53216 
L 264.348655 350.64576 
L 275.123127 339.75936 
L 289.367345 347.37984 
L 303.611564 369.33408 
L 310.551055 384.75648 
L 302.515855 381.30912 
L 284.071418 367.51968 
L 262.157236 343.75104 
L 247.7304 330.14304 
L 258.504873 322.704 
L 291.558764 331.05024 
L 323.882182 368.60832 
L 344.700655 405.80352 
L 332.830473 411.6096 
L 301.968 405.44064 
L 266.357455 381.12768 
L 246.634691 354.81888 
L 238.599491 327.78432 
L 256.678691 324.33696 
L 290.645673 344.4768 
L 323.151709 383.84928 
L 332.282618 417.23424 
L 318.221018 426.48768 
L 285.349745 419.95584 
L 252.661091 393.28416 
L 242.069236 363.70944 
L 244.078036 336.13056 
L 260.878909 334.86048 
L 294.845891 358.44768 
L 330.273818 395.28 
L 332.1 410.88384 
L 303.063709 411.24672 
L 265.444364 400.7232 
L 252.478473 378.76896 
L 257.226545 357.1776 
L 264.896509 348.46848 
L 284.071418 361.53216 
L 310.733673 387.65952 
L 316.760073 405.2592 
L 299.9592 410.7024 
L 280.236436 409.61376 
L 260.513673 390.744 
L 242.617091 354.63744 
L 228.007636 330.50592 
L 244.991127 326.87712 
L 289.002109 357.72192 
L 324.612655 386.57088 
L 328.265018 415.60128 
L 302.698473 421.04448 
L 278.775491 409.43232 
L 258.322255 388.74816 
L 241.521382 363.528 
L 235.494982 339.75936 
L 250.287055 341.02944 
L 277.314545 360.26208 
L 306.168218 386.38944 
L 313.107709 413.60544 
L 297.402545 418.14144 
L 271.836 401.81184 
L 259.052727 406.89216 
L 253.026327 408.34368 
L 252.295855 407.0736 
L 254.122036 396.1872 
L 259.235345 400.36032 
L 267.8184 397.0944 
L 263.983418 394.73568 
L 264.531273 388.9296 
L 264.531273 389.47392 
L 273.8448 395.82432 
L 280.053818 402.5376 
L 295.758982 411.97248 
L 297.767782 420.50016 
L 279.688582 413.96832 
L 263.252945 399.45312 
L 268.731491 395.64288 
L 278.227636 394.91712 
L 281.149527 394.55424 
L 287.723782 399.63456 
L 291.010909 408.70656 
L 294.298036 409.61376 
L 286.262836 410.52096 
L 272.018618 403.80768 
L 260.878909 391.46976 
L 271.470764 393.64704 
L 280.419055 405.98496 
L 293.567564 424.49184 
L 296.854691 435.55968 
L 284.071418 434.47104 
L 252.843709 425.2176 
L 237.6864 408.52512 
L 234.581891 395.28 
L 251.200145 395.82432 
L 266.357455 403.98912 
L 268.731491 416.87136 
L 273.296945 422.13312 
L 256.861309 418.14144 
L 251.017527 417.41568 
L 253.7568 417.0528 
L 257.043927 412.33536 
L 260.513673 413.78688 
L 265.992218 422.13312 
L 267.087927 428.48352 
L 260.331055 429.7536 
L 253.026327 425.76192 
L 246.817309 418.8672 
L 243.530182 411.06528 
L 244.443273 412.33536 
L 245.7216 415.41984 
L 241.704 411.6096 
L 243.530182 416.1456 
L 251.748 422.13312 
L 248.095636 423.76608 
L 236.408073 419.59296 
L 234.216655 421.5888 
L 243.164945 422.13312 
L 243.347564 417.96 
L 239.147345 418.32288 
L 241.338764 417.41568 
L 239.877818 418.14144 
L 240.425673 420.13728 
L 237.321164 422.496 
L 239.877818 423.58464 
L 242.982327 420.86304 
L 236.408073 417.96 
L 233.851418 417.23424 
L 249.191345 420.13728 
L 254.304655 421.40736 
L 253.7568 427.39488 
L 246.269455 423.94752 
L 235.6776 424.67328 
L 240.243055 426.30624 
L 249.191345 426.30624 
L 241.521382 425.94336 
L 232.938327 423.22176 
L 231.66 420.6816 
L 233.6688 421.22592 
L 245.356364 435.01536 
L 244.625891 438.8256 
L 234.764509 442.4544 
L 228.920727 434.83392 
L 221.068145 427.21344 
L 230.381673 425.39904 
L 241.886618 429.20928 
L 242.069236 427.75776 
L 243.164945 423.4032 
L 250.469673 424.85472 
L 250.104436 426.85056 
L 245.7216 433.56384 
L 240.608291 431.74944 
L 229.285964 425.39904 
L 228.007636 421.04448 
L 234.581891 429.57216 
L 234.581891 431.93088 
L 228.372873 432.11232 
L 228.920727 430.47936 
L 227.094545 428.30208 
L 216.685309 421.5888 
L 220.337673 419.95584 
L 224.720509 423.58464 
L 218.876727 422.31456 
L 217.5984 418.50432 
L 225.998836 422.13312 
L 230.381673 427.39488 
L 236.773309 435.74112 
L 235.494982 436.28544 
L 222.711709 434.65248 
L 221.798618 429.93504 
L 227.825018 431.568 
L 232.573091 430.6608 
L 236.225455 432.11232 
L 233.6688 431.93088 
L 229.468582 435.74112 
L 227.459782 435.01536 
L 227.094545 438.09984 
L 220.885527 432.83808 
L 218.511491 427.21344 
L 221.798618 427.57632 
L 220.337673 429.02784 
L 219.972436 428.8464 
L 225.450982 430.11648 
L 220.337673 427.9392 
L 222.894327 427.75776 
L 227.825018 432.11232 
L 228.190255 437.73696 
L 223.807418 434.2896 
L 217.050545 433.74528 
L 213.032945 428.30208 
L 209.015345 426.66912 
L 206.093455 421.40736 
L 208.467491 423.76608 
L 215.772218 425.03616 
L 225.450982 431.02368 
L 232.390473 439.36992 
L 230.746909 437.73696 
L 219.059345 434.83392 
L 222.711709 432.65664 
L 221.616 429.39072 
L 223.442182 422.85888 
L 224.720509 409.43232 
L 226.364073 406.34784 
L 237.503782 405.80352 
L 252.295855 419.59296 
L 258.322255 420.6816 
L 246.634691 417.41568 
L 240.243055 413.60544 
L 245.7216 411.06528 
L 243.7128 413.96832 
L 237.6864 409.7952 
L 237.321164 403.26336 
L 249.191345 397.82016 
L 265.079127 411.97248 
L 277.497164 425.03616 
L 273.479564 432.29376 
L 258.504873 423.22176 
L 245.538982 418.68576 
L 238.416873 414.69408 
L 243.7128 411.06528 
L 245.538982 401.81184 
L 249.921818 400.17888 
L 259.965818 401.81184 
L 251.200145 400.17888 
L 268.548873 413.60544 
L 273.662182 416.1456 
L 263.983418 419.23008 
L 251.748 414.14976 
L 238.599491 407.9808 
L 244.078036 406.89216 
L 255.582982 405.44064 
L 265.626982 415.05696 
L 261.061527 419.23008 
L 251.748 419.7744 
L 255.400364 422.31456 
L 250.104436 417.77856 
L 248.826109 417.77856 
L 245.7216 417.0528 
L 239.147345 411.6096 
L 239.877818 415.96416 
L 255.7656 428.12064 
L 263.070327 428.48352 
L 247.913018 419.04864 
L 241.521382 414.3312 
L 242.434473 413.06112 
L 262.157236 423.94752 
L 260.878909 421.5888 
L 244.991127 413.06112 
L 233.486182 407.25504 
L 240.790909 404.352 
L 258.322255 415.05696 
L 253.574182 413.424 
L 253.208945 414.87552 
L 252.843709 414.51264 
L 256.861309 414.14976 
L 254.487273 409.61376 
L 251.748 407.79936 
L 251.017527 405.2592 
L 246.999927 404.53344 
L 248.460873 406.52928 
L 256.496073 411.6096 
L 259.052727 415.78272 
L 252.843709 417.23424 
L 253.7568 421.40736 
L 247.365164 413.24256 
L 242.251855 406.52928 
L 231.294764 397.82016 
L 230.929527 402.90048 
L 239.6952 407.61792 
L 246.999927 412.33536 
L 253.026327 422.13312 
L 253.7568 419.7744 
L 247.547782 417.23424 
L 250.834909 410.15808 
L 261.609382 411.06528 
L 270.192436 423.22176 
L 265.8096 423.04032 
L 261.426764 427.57632 
L 246.634691 422.496 
L 240.790909 416.68992 
L 240.973527 410.33952 
L 237.869018 403.62624 
L 244.443273 399.09024 
L 250.469673 403.4448 
L 252.113236 407.0736 
L 255.948218 410.7024 
L 255.7656 411.79104 
L 250.469673 406.34784 
L 248.643491 404.71488 
L 253.208945 407.25504 
L 261.609382 414.87552 
L 269.461964 423.04032 
L 254.304655 419.04864 
L 243.164945 418.50432 
L 240.243055 412.87968 
L 234.399273 403.26336 
L 242.617091 406.52928 
L 253.939418 413.06112 
L 262.339855 421.95168 
L 252.295855 419.7744 
L 236.408073 416.68992 
L 243.7128 417.41568 
L 253.026327 423.04032 
L 254.852509 425.94336 
L 243.7128 422.496 
L 241.156145 419.7744 
L 234.399273 408.34368 
L 236.408073 408.34368 
L 242.799709 405.2592 
L 250.104436 413.06112 
L 259.235345 422.31456 
L 254.487273 426.1248 
L 256.861309 428.30208 
L 250.834909 428.8464 
L 242.069236 424.49184 
L 241.521382 421.04448 
L 244.808509 420.86304 
L 246.086836 422.85888 
L 242.434473 419.59296 
L 246.086836 423.76608 
L 237.321164 421.04448 
L 236.408073 419.95584 
L 235.129745 413.424 
L 230.929527 410.15808 
L 240.608291 405.62208 
L 253.208945 415.41984 
L 256.130836 419.23008 
L 245.356364 416.1456 
L 238.782109 417.96 
L 227.6424 412.15392 
L 225.816218 410.88384 
L 231.66 413.60544 
L 232.755709 413.06112 
L 233.486182 409.7952 
L 244.078036 410.52096 
L 252.843709 417.96 
L 252.478473 419.7744 
L 248.826109 415.60128 
L 243.164945 410.7024 
L 248.278255 405.62208 
L 251.200145 397.45728 
L 251.565382 399.27168 
L 254.122036 403.62624 
L 258.687491 408.888 
L 258.139636 416.1456 
L 249.008727 413.78688 
L 243.347564 412.87968 
L 248.643491 409.06944 
L 253.208945 413.06112 
L 253.939418 422.13312 
L 252.478473 422.31456 
L 247.7304 419.04864 
L 247.547782 415.41984 
L 245.7216 408.888 
L 246.999927 410.7024 
L 249.921818 412.15392 
L 243.530182 408.16224 
L 233.6688 406.1664 
L 239.147345 407.9808 
L 249.7392 411.24672 
L 260.148436 413.78688 
L 257.409164 419.41152 
L 254.669891 420.31872 
L 252.295855 413.96832 
L 246.817309 412.33536 
L 253.026327 409.61376 
L 261.426764 412.87968 
L 257.226545 417.41568 
L 246.452073 412.69824 
L 234.399273 412.69824 
L 246.999927 413.60544 
L 259.7832 419.41152 
L 252.843709 420.6816 
L 241.886618 418.8672 
L 242.434473 416.1456 
L 240.243055 411.42816 
L 239.877818 404.89632 
L 250.834909 419.7744 
L 255.217745 441.72864 
L 245.356364 444.99456 
L 226.911927 438.28128 
L 216.137455 433.92672 
L 216.502691 427.032 
L 211.024145 425.2176 
L 213.946036 429.7536 
L 216.502691 431.93088 
L 212.119855 432.11232 
L 211.024145 430.11648 
L 215.954836 427.21344 
L 215.5896 428.8464 
L 208.467491 428.48352 
L 198.423491 425.76192 
L 200.067055 423.04032 
L 212.302473 428.30208 
L 221.068145 424.49184 
L 223.259564 428.48352 
L 230.564291 432.65664 
L 228.738109 428.8464 
L 223.990036 427.57632 
L 231.477382 428.48352 
L 236.225455 426.85056 
L 231.477382 429.93504 
L 223.990036 428.8464 
L 222.711709 426.30624 
L 223.807418 427.57632 
L 219.789818 427.9392 
L 227.459782 437.37408 
L 228.555491 440.45856 
L 228.190255 441.36576 
L 213.763418 435.74112 
L 212.119855 430.47936 
L 217.415782 423.94752 
L 223.990036 426.85056 
L 227.6424 429.20928 
L 225.816218 426.30624 
L 229.468582 420.50016 
L 243.347564 431.20512 
L 240.973527 429.57216 
L 232.207855 434.47104 
L 226.181455 431.93088 
L 228.007636 436.104 
L 230.381673 435.55968 
L 218.694109 429.02784 
L 218.876727 425.58048 
L 223.6248 421.5888 
L 226.181455 422.31456 
L 225.450982 419.41152 
L 231.112145 421.04448 
L 236.042836 427.21344 
L 240.243055 429.7536 
L 243.895418 429.39072 
L 243.164945 423.4032 
L 246.634691 425.94336 
L 250.104436 431.20512 
L 242.069236 428.66496 
L 237.869018 425.03616 
L 234.216655 423.58464 
L 237.869018 428.48352 
L 242.251855 432.29376 
L 251.565382 443.18016 
L 253.7568 441.36576 
L 237.869018 436.28544 
L 228.920727 432.4752 
L 225.450982 419.23008 
L 221.250764 416.87136 
L 223.6248 418.68576 
L 221.433382 418.8672 
L 221.798618 414.3312 
L 238.964727 420.50016 
L 250.104436 424.85472 
L 248.460873 426.1248 
L 240.243055 432.11232 
L 240.243055 438.8256 
L 234.034036 429.02784 
L 225.998836 418.50432 
L 228.372873 410.52096 
L 245.7216 413.424 
L 255.948218 417.41568 
L 257.226545 420.31872 
L 263.435564 429.39072 
L 260.148436 430.11648 
L 243.164945 427.9392 
L 240.425673 423.76608 
L 242.982327 422.13312 
L 237.503782 414.3312 
L 233.851418 410.88384 
L 247.547782 411.79104 
L 252.113236 421.04448 
L 260.513673 423.22176 
L 265.992218 427.032 
L 261.974618 427.39488 
L 256.313455 429.57216 
L 255.582982 427.39488 
L 254.669891 425.03616 
L 251.565382 412.69824 
L 246.086836 406.52928 
L 251.200145 410.33952 
L 265.079127 417.96 
L 280.236436 427.57632 
L 281.149527 433.92672 
L 271.105527 434.10816 
L 258.139636 429.20928 
L 248.278255 414.87552 
L 247.7304 406.1664 
L 257.7744 409.43232 
L 277.314545 419.59296 
L 284.254036 427.39488 
L 268.914109 426.30624 
L 254.487273 417.77856 
L 253.7568 403.26336 
L 265.079127 394.91712 
L 283.158327 396.00576 
L 283.523564 397.27584 
L 279.505964 399.45312 
L 281.514764 401.44896 
L 289.9152 405.80352 
L 294.480655 405.62208 
L 296.672073 412.33536 
L 291.924 409.97664 
L 271.105527 399.816 
L 252.113236 381.30912 
L 264.348655 383.30496 
L 287.541164 390.38112 
L 297.9504 406.71072 
L 302.515855 416.32704 
L 293.9328 416.32704 
L 277.497164 407.79936 
L 263.618182 395.64288 
L 273.8448 394.19136 
L 288.819491 397.82016 
L 285.714982 399.09024 
L 284.436655 402.90048 
L 285.8976 382.5792 
L 278.045018 362.80224 
L 288.454255 367.88256 
L 304.524655 375.14016 
L 311.646764 387.1152 
L 293.019709 386.93376 
L 278.775491 374.4144 
L 272.383855 364.61664 
L 279.140727 365.16096 
L 299.593964 372.6 
L 308.359636 383.30496 
L 308.359636 395.64288 
L 304.342036 400.17888 
L 301.785382 395.82432 
L 292.837091 389.11104 
L 277.679782 382.21632 
L 266.174836 376.2288 
L 290.097818 365.88672 
L 288.454255 374.4144 
L 294.480655 390.56256 
L 306.533455 407.9808 
L 295.393745 411.97248 
L 267.270545 392.19552 
L 239.147345 361.53216 
L 227.6424 328.1472 
L 246.452073 323.24832 
L 285.349745 339.75936 
L 331.734764 387.65952 
L 357.483927 426.48768 
L 344.335418 451.5264 
L 291.741382 440.27712 
L 237.6864 404.89632 
L 205.362982 357.1776 
L 215.041745 318.89376 
L 238.782109 300.9312 
L 269.461964 312.7248 
L 313.290327 355.90752 
L 345.796364 404.71488 
L 350.544436 442.63584 
L 331.004291 447.53472 
L 283.706182 420.31872 
L 235.129745 371.51136 
L 209.745818 324.15552 
L 215.406982 296.93952 
L 246.269455 297.84672 
L 281.149527 320.16384 
L 315.481745 363.16512 
L 346.892073 408.70656 
L 346.892073 426.85056 
L 309.272727 418.50432 
L 266.357455 389.65536 
L 232.573091 348.83136 
L 228.555491 311.09184 
L 257.043927 300.9312 
L 291.376145 324.88128 
L 322.969091 369.51552 
L 339.769964 396.91296 
L 324.977891 404.53344 
L 299.776582 396.36864 
L 270.557673 374.23296 
L 252.843709 338.85216 
L 251.565382 319.9824 
L 265.992218 310.9104 
L 285.167127 327.78432 
L 305.255127 352.27872 
L 320.960291 377.68032 
L 322.969091 392.37696 
L 304.889891 385.66368 
L 276.401455 360.98784 
L 257.409164 339.21504 
L 268.366255 339.57792 
L 269.461964 332.6832 
L 271.288145 330.14304 
L 282.062618 340.48512 
L 291.010909 354.456 
L 315.299127 372.6 
L 312.012 379.31328 
L 303.794182 383.12352 
L 289.367345 375.50304 
L 281.697382 361.89504 
L 267.635782 341.39232 
L 265.992218 340.48512 
L 287.358545 339.0336 
L 319.316727 362.98368 
L 332.465236 388.38528 
L 333.013091 403.80768 
L 316.760073 403.08192 
L 288.089018 386.75232 
L 263.435564 350.64576 
L 253.939418 317.2608 
L 261.426764 311.99904 
L 296.489455 332.50176 
L 329.908582 367.33824 
L 352.370618 402.35616 
L 359.492727 424.49184 
L 333.195709 428.30208 
L 302.515855 415.60128 
L 270.922909 375.86592 
L 240.243055 332.86464 
L 221.250764 299.29824 
L 234.947127 283.33152 
L 273.114327 298.2096 
L 361.684145 401.99328 
L 372.093382 443.72448 
L 341.048291 441.91008 
L 305.072509 407.61792 
L 265.992218 364.79808 
L 237.6864 338.48928 
L 243.164945 316.53504 
L 259.235345 312.18048 
L 283.706182 330.50592 
L 305.072509 355.72608 
L 315.116509 370.7856 
L 320.0472 383.12352 
L 317.673164 391.83264 
L 306.350836 392.5584 
L 292.289236 385.84512 
L 283.158327 373.87008 
L 272.931709 350.28288 
L 272.931709 345.56544 
L 275.670982 340.848 
L 281.332145 347.01696 
L 288.271636 346.47264 
L 298.315636 354.09312 
L 303.246327 364.79808 
L 314.203418 379.67616 
L 324.247418 391.28832 
L 320.777673 393.10272 
L 299.593964 390.56256 
L 299.593964 390.56256 
" clip-path="url(#p7ef84fb04f)" style="fill: none; stroke-dasharray: 5.55,2.4; stroke-dashoffset: 0; stroke: #800080; stroke-opacity: 0.7; stroke-width: 1.5"/>
   </g>
   <g id="line2d_30">
    <path d="M 81 77.76 
L 583.2 576.72 
" clip-path="url(#p7ef84fb04f)" style="fill: none; stroke: #000000; stroke-width: 1.5; stroke-linecap: square"/>
   </g>
   <g id="line2d_31">
    <path d="M 81 554.04 
L 649 554.04 
" clip-path="url(#p7ef84fb04f)" style="fill: none; stroke-dasharray: 9.6,2.4,1.5,2.4; stroke-dashoffset: 0; stroke: #000000; stroke-width: 1.5"/>
   </g>
   <g id="line2d_32">
    <path d="M 103.827273 576.72 
L 103.827273 -1 
" clip-path="url(#p7ef84fb04f)" style="fill: none; stroke-dasharray: 9.6,2.4,1.5,2.4; stroke-dashoffset: 0; stroke: #000000; stroke-width: 1.5"/>
   </g>
   <g id="patch_3">
    <path d="M 81 576.72 
L 81 77.76 
" style="fill: none; stroke: #000000; stroke-width: 0.8; stroke-linejoin: miter; stroke-linecap: square"/>
   </g>
   <g id="patch_4">
    <path d="M 583.2 576.72 
L 583.2 77.76 
" style="fill: none; stroke: #000000; stroke-width: 0.8; stroke-linejoin: miter; stroke-linecap: square"/>
   </g>
   <g id="patch_5">
    <path d="M 81 576.72 
L 583.2 576.72 
" style="fill: none; stroke: #000000; stroke-width: 0.8; stroke-linejoin: miter; stroke-linecap: square"/>
   </g>
   <g id="patch_6">
    <path d="M 81 77.76 
L 583.2 77.76 
" style="fill: none; stroke: #000000; stroke-width: 0.8; stroke-linejoin: miter; stroke-linecap: square"/>
   </g>
   <g id="text_15">
    <!-- Phase diagram with an approximate initial 30% predator population -->
    <g transform="translate(128.307188 71.76) scale(0.12 -0.12)">
     <defs>
      <path id="DejaVuSans-68" d="M 3513 2113 
L 3513 0 
L 2938 0 
L 2938 2094 
Q 2938 2591 2744 2837 
Q 2550 3084 2163 3084 
Q 1697 3084 1428 2787 
Q 1159 2491 1159 1978 
L 1159 0 
L 581 0 
L 581 4863 
L 1159 4863 
L 1159 2956 
Q 1366 3272 1645 3428 
Q 1925 3584 2291 3584 
Q 2894 3584 3203 3211 
Q 3513 2838 3513 2113 
z
" transform="scale(0.015625)"/>
      <path id="DejaVuSans-73" d="M 2834 3397 
L 2834 2853 
Q 2591 2978 2328 3040 
Q 2066 3103 1784 3103 
Q 1356 3103 1142 2972 
Q 928 2841 928 2578 
Q 928 2378 1081 2264 
Q 1234 2150 1697 2047 
L 1894 2003 
Q 2506 1872 2764 1633 
Q 3022 1394 3022 966 
Q 3022 478 2636 193 
Q 2250 -91 1575 -91 
Q 1294 -91 989 -36 
Q 684 19 347 128 
L 347 722 
Q 666 556 975 473 
Q 1284 391 1588 391 
Q 1994 391 2212 530 
Q 2431 669 2431 922 
Q 2431 1156 2273 1281 
Q 2116 1406 1581 1522 
L 1381 1569 
Q 847 1681 609 1914 
Q 372 2147 372 2553 
Q 372 3047 722 3315 
Q 1072 3584 1716 3584 
Q 2034 3584 2315 3537 
Q 2597 3491 2834 3397 
z
" transform="scale(0.015625)"/>
      <path id="DejaVuSans-67" d="M 2906 1791 
Q 2906 2416 2648 2759 
Q 2391 3103 1925 3103 
Q 1463 3103 1205 2759 
Q 947 2416 947 1791 
Q 947 1169 1205 825 
Q 1463 481 1925 481 
Q 2391 481 2648 825 
Q 2906 1169 2906 1791 
z
M 3481 434 
Q 3481 -459 3084 -895 
Q 2688 -1331 1869 -1331 
Q 1566 -1331 1297 -1286 
Q 1028 -1241 775 -1147 
L 775 -588 
Q 1028 -725 1275 -790 
Q 1522 -856 1778 -856 
Q 2344 -856 2625 -561 
Q 2906 -266 2906 331 
L 2906 616 
Q 2728 306 2450 153 
Q 2172 0 1784 0 
Q 1141 0 747 490 
Q 353 981 353 1791 
Q 353 2603 747 3093 
Q 1141 3584 1784 3584 
Q 2172 3584 2450 3431 
Q 2728 3278 2906 2969 
L 2906 3500 
L 3481 3500 
L 3481 434 
z
" transform="scale(0.015625)"/>
      <path id="DejaVuSans-6d" d="M 3328 2828 
Q 3544 3216 3844 3400 
Q 4144 3584 4550 3584 
Q 5097 3584 5394 3201 
Q 5691 2819 5691 2113 
L 5691 0 
L 5113 0 
L 5113 2094 
Q 5113 2597 4934 2840 
Q 4756 3084 4391 3084 
Q 3944 3084 3684 2787 
Q 3425 2491 3425 1978 
L 3425 0 
L 2847 0 
L 2847 2094 
Q 2847 2600 2669 2842 
Q 2491 3084 2119 3084 
Q 1678 3084 1418 2786 
Q 1159 2488 1159 1978 
L 1159 0 
L 581 0 
L 581 3500 
L 1159 3500 
L 1159 2956 
Q 1356 3278 1631 3431 
Q 1906 3584 2284 3584 
Q 2666 3584 2933 3390 
Q 3200 3197 3328 2828 
z
" transform="scale(0.015625)"/>
      <path id="DejaVuSans-77" d="M 269 3500 
L 844 3500 
L 1563 769 
L 2278 3500 
L 2956 3500 
L 3675 769 
L 4391 3500 
L 4966 3500 
L 4050 0 
L 3372 0 
L 2619 2869 
L 1863 0 
L 1184 0 
L 269 3500 
z
" transform="scale(0.015625)"/>
      <path id="DejaVuSans-78" d="M 3513 3500 
L 2247 1797 
L 3578 0 
L 2900 0 
L 1881 1375 
L 863 0 
L 184 0 
L 1544 1831 
L 300 3500 
L 978 3500 
L 1906 2253 
L 2834 3500 
L 3513 3500 
z
" transform="scale(0.015625)"/>
      <path id="DejaVuSans-33" d="M 2597 2516 
Q 3050 2419 3304 2112 
Q 3559 1806 3559 1356 
Q 3559 666 3084 287 
Q 2609 -91 1734 -91 
Q 1441 -91 1130 -33 
Q 819 25 488 141 
L 488 750 
Q 750 597 1062 519 
Q 1375 441 1716 441 
Q 2309 441 2620 675 
Q 2931 909 2931 1356 
Q 2931 1769 2642 2001 
Q 2353 2234 1838 2234 
L 1294 2234 
L 1294 2753 
L 1863 2753 
Q 2328 2753 2575 2939 
Q 2822 3125 2822 3475 
Q 2822 3834 2567 4026 
Q 2313 4219 1838 4219 
Q 1578 4219 1281 4162 
Q 984 4106 628 3988 
L 628 4550 
Q 988 4650 1302 4700 
Q 1616 4750 1894 4750 
Q 2613 4750 3031 4423 
Q 3450 4097 3450 3541 
Q 3450 3153 3228 2886 
Q 3006 2619 2597 2516 
z
" transform="scale(0.015625)"/>
      <path id="DejaVuSans-25" d="M 4653 2053 
Q 4381 2053 4226 1822 
Q 4072 1591 4072 1178 
Q 4072 772 4226 539 
Q 4381 306 4653 306 
Q 4919 306 5073 539 
Q 5228 772 5228 1178 
Q 5228 1588 5073 1820 
Q 4919 2053 4653 2053 
z
M 4653 2450 
Q 5147 2450 5437 2106 
Q 5728 1763 5728 1178 
Q 5728 594 5436 251 
Q 5144 -91 4653 -91 
Q 4153 -91 3862 251 
Q 3572 594 3572 1178 
Q 3572 1766 3864 2108 
Q 4156 2450 4653 2450 
z
M 1428 4353 
Q 1159 4353 1004 4120 
Q 850 3888 850 3481 
Q 850 3069 1003 2837 
Q 1156 2606 1428 2606 
Q 1700 2606 1854 2837 
Q 2009 3069 2009 3481 
Q 2009 3884 1853 4118 
Q 1697 4353 1428 4353 
z
M 4250 4750 
L 4750 4750 
L 1831 -91 
L 1331 -91 
L 4250 4750 
z
M 1428 4750 
Q 1922 4750 2215 4408 
Q 2509 4066 2509 3481 
Q 2509 2891 2217 2550 
Q 1925 2209 1428 2209 
Q 931 2209 642 2551 
Q 353 2894 353 3481 
Q 353 4063 643 4406 
Q 934 4750 1428 4750 
z
" transform="scale(0.015625)"/>
     </defs>
     <use xlink:href="#DejaVuSans-50"/>
     <use xlink:href="#DejaVuSans-68" x="60.302734"/>
     <use xlink:href="#DejaVuSans-61" x="123.681641"/>
     <use xlink:href="#DejaVuSans-73" x="184.960938"/>
     <use xlink:href="#DejaVuSans-65" x="237.060547"/>
     <use xlink:href="#DejaVuSans-20" x="298.583984"/>
     <use xlink:href="#DejaVuSans-64" x="330.371094"/>
     <use xlink:href="#DejaVuSans-69" x="393.847656"/>
     <use xlink:href="#DejaVuSans-61" x="421.630859"/>
     <use xlink:href="#DejaVuSans-67" x="482.910156"/>
     <use xlink:href="#DejaVuSans-72" x="546.386719"/>
     <use xlink:href="#DejaVuSans-61" x="587.5"/>
     <use xlink:href="#DejaVuSans-6d" x="648.779297"/>
     <use xlink:href="#DejaVuSans-20" x="746.191406"/>
     <use xlink:href="#DejaVuSans-77" x="777.978516"/>
     <use xlink:href="#DejaVuSans-69" x="859.765625"/>
     <use xlink:href="#DejaVuSans-74" x="887.548828"/>
     <use xlink:href="#DejaVuSans-68" x="926.757812"/>
     <use xlink:href="#DejaVuSans-20" x="990.136719"/>
     <use xlink:href="#DejaVuSans-61" x="1021.923828"/>
     <use xlink:href="#DejaVuSans-6e" x="1083.203125"/>
     <use xlink:href="#DejaVuSans-20" x="1146.582031"/>
     <use xlink:href="#DejaVuSans-61" x="1178.369141"/>
     <use xlink:href="#DejaVuSans-70" x="1239.648438"/>
     <use xlink:href="#DejaVuSans-70" x="1303.125"/>
     <use xlink:href="#DejaVuSans-72" x="1366.601562"/>
     <use xlink:href="#DejaVuSans-6f" x="1405.464844"/>
     <use xlink:href="#DejaVuSans-78" x="1463.521484"/>
     <use xlink:href="#DejaVuSans-69" x="1522.701172"/>
     <use xlink:href="#DejaVuSans-6d" x="1550.484375"/>
     <use xlink:href="#DejaVuSans-61" x="1647.896484"/>
     <use xlink:href="#DejaVuSans-74" x="1709.175781"/>
     <use xlink:href="#DejaVuSans-65" x="1748.384766"/>
     <use xlink:href="#DejaVuSans-20" x="1809.908203"/>
     <use xlink:href="#DejaVuSans-69" x="1841.695312"/>
     <use xlink:href="#DejaVuSans-6e" x="1869.478516"/>
     <use xlink:href="#DejaVuSans-69" x="1932.857422"/>
     <use xlink:href="#DejaVuSans-74" x="1960.640625"/>
     <use xlink:href="#DejaVuSans-69" x="1999.849609"/>
     <use xlink:href="#DejaVuSans-61" x="2027.632812"/>
     <use xlink:href="#DejaVuSans-6c" x="2088.912109"/>
     <use xlink:href="#DejaVuSans-20" x="2116.695312"/>
     <use xlink:href="#DejaVuSans-33" x="2148.482422"/>
     <use xlink:href="#DejaVuSans-30" x="2212.105469"/>
     <use xlink:href="#DejaVuSans-25" x="2275.728516"/>
     <use xlink:href="#DejaVuSans-20" x="2370.748047"/>
     <use xlink:href="#DejaVuSans-70" x="2402.535156"/>
     <use xlink:href="#DejaVuSans-72" x="2466.011719"/>
     <use xlink:href="#DejaVuSans-65" x="2504.875"/>
     <use xlink:href="#DejaVuSans-64" x="2566.398438"/>
     <use xlink:href="#DejaVuSans-61" x="2629.875"/>
     <use xlink:href="#DejaVuSans-74" x="2691.154297"/>
     <use xlink:href="#DejaVuSans-6f" x="2730.363281"/>
     <use xlink:href="#DejaVuSans-72" x="2791.544922"/>
     <use xlink:href="#DejaVuSans-20" x="2832.658203"/>
     <use xlink:href="#DejaVuSans-70" x="2864.445312"/>
     <use xlink:href="#DejaVuSans-6f" x="2927.921875"/>
     <use xlink:href="#DejaVuSans-70" x="2989.103516"/>
     <use xlink:href="#DejaVuSans-75" x="3052.580078"/>
     <use xlink:href="#DejaVuSans-6c" x="3115.958984"/>
     <use xlink:href="#DejaVuSans-61" x="3143.742188"/>
     <use xlink:href="#DejaVuSans-74" x="3205.021484"/>
     <use xlink:href="#DejaVuSans-69" x="3244.230469"/>
     <use xlink:href="#DejaVuSans-6f" x="3272.013672"/>
     <use xlink:href="#DejaVuSans-6e" x="3333.195312"/>
    </g>
   </g>
   <g id="legend_1">
    <g id="patch_7">
     <path d="M 460.1375 115.11625 
L 576.2 115.11625 
Q 578.2 115.11625 578.2 113.11625 
L 578.2 84.76 
Q 578.2 82.76 576.2 82.76 
L 460.1375 82.76 
Q 458.1375 82.76 458.1375 84.76 
L 458.1375 113.11625 
Q 458.1375 115.11625 460.1375 115.11625 
z
" style="fill: #ffffff; opacity: 0.8; stroke: #cccccc; stroke-linejoin: miter"/>
    </g>
    <g id="PathCollection_5">
     <g>
      <use xlink:href="#md145a77be8" x="472.1375" y="91.733437" style="fill: #0000ff; stroke: #0000ff"/>
     </g>
    </g>
    <g id="text_16">
     <!-- Initial population -->
     <g transform="translate(490.1375 94.358437) scale(0.1 -0.1)">
      <defs>
       <path id="DejaVuSans-49" d="M 628 4666 
L 1259 4666 
L 1259 0 
L 628 0 
L 628 4666 
z
" transform="scale(0.015625)"/>
      </defs>
      <use xlink:href="#DejaVuSans-49"/>
      <use xlink:href="#DejaVuSans-6e" x="29.492188"/>
      <use xlink:href="#DejaVuSans-69" x="92.871094"/>
      <use xlink:href="#DejaVuSans-74" x="120.654297"/>
      <use xlink:href="#DejaVuSans-69" x="159.863281"/>
      <use xlink:href="#DejaVuSans-61" x="187.646484"/>
      <use xlink:href="#DejaVuSans-6c" x="248.925781"/>
      <use xlink:href="#DejaVuSans-20" x="276.708984"/>
      <use xlink:href="#DejaVuSans-70" x="308.496094"/>
      <use xlink:href="#DejaVuSans-6f" x="371.972656"/>
      <use xlink:href="#DejaVuSans-70" x="433.154297"/>
      <use xlink:href="#DejaVuSans-75" x="496.630859"/>
      <use xlink:href="#DejaVuSans-6c" x="560.009766"/>
      <use xlink:href="#DejaVuSans-61" x="587.792969"/>
      <use xlink:href="#DejaVuSans-74" x="649.072266"/>
      <use xlink:href="#DejaVuSans-69" x="688.28125"/>
      <use xlink:href="#DejaVuSans-6f" x="716.064453"/>
      <use xlink:href="#DejaVuSans-6e" x="777.246094"/>
     </g>
    </g>
    <g id="PathCollection_6">
     <g>
      <use xlink:href="#m2aecde6348" x="472.1375" y="106.411562" style="fill: #ff0000; stroke: #ff0000"/>
     </g>
    </g>
    <g id="text_17">
     <!-- Final population -->
     <g transform="translate(490.1375 109.036562) scale(0.1 -0.1)">
      <defs>
       <path id="DejaVuSans-46" d="M 628 4666 
L 3309 4666 
L 3309 4134 
L 1259 4134 
L 1259 2759 
L 3109 2759 
L 3109 2228 
L 1259 2228 
L 1259 0 
L 628 0 
L 628 4666 
z
" transform="scale(0.015625)"/>
      </defs>
      <use xlink:href="#DejaVuSans-46"/>
      <use xlink:href="#DejaVuSans-69" x="50.269531"/>
      <use xlink:href="#DejaVuSans-6e" x="78.052734"/>
      <use xlink:href="#DejaVuSans-61" x="141.431641"/>
      <use xlink:href="#DejaVuSans-6c" x="202.710938"/>
      <use xlink:href="#DejaVuSans-20" x="230.494141"/>
      <use xlink:href="#DejaVuSans-70" x="262.28125"/>
      <use xlink:href="#DejaVuSans-6f" x="325.757812"/>
      <use xlink:href="#DejaVuSans-70" x="386.939453"/>
      <use xlink:href="#DejaVuSans-75" x="450.416016"/>
      <use xlink:href="#DejaVuSans-6c" x="513.794922"/>
      <use xlink:href="#DejaVuSans-61" x="541.578125"/>
      <use xlink:href="#DejaVuSans-74" x="602.857422"/>
      <use xlink:href="#DejaVuSans-69" x="642.066406"/>
      <use xlink:href="#DejaVuSans-6f" x="669.849609"/>
      <use xlink:href="#DejaVuSans-6e" x="731.03125"/>
     </g>
    </g>
   </g>
  </g>
 </g>
 <defs>
  <clipPath id="p7ef84fb04f">
   <rect x="81" y="77.76" width="502.2" height="498.96"/>
  </clipPath>
 </defs>
</svg>
