<?xml version="1.0" encoding="utf-8" standalone="no"?>
<!DOCTYPE svg PUBLIC "-//W3C//DTD SVG 1.1//EN"
  "http://www.w3.org/Graphics/SVG/1.1/DTD/svg11.dtd">
<svg xmlns:xlink="http://www.w3.org/1999/xlink" width="648pt" height="648pt" viewBox="0 0 648 648" xmlns="http://www.w3.org/2000/svg" version="1.1">
 <metadata>
  <rdf:RDF xmlns:dc="http://purl.org/dc/elements/1.1/" xmlns:cc="http://creativecommons.org/ns#" xmlns:rdf="http://www.w3.org/1999/02/22-rdf-syntax-ns#">
   <cc:Work>
    <dc:type rdf:resource="http://purl.org/dc/dcmitype/StillImage"/>
    <dc:date>2025-06-09T12:38:45.494522</dc:date>
    <dc:format>image/svg+xml</dc:format>
    <dc:creator>
     <cc:Agent>
      <dc:title>Matplotlib v3.7.0, https://matplotlib.org/</dc:title>
     </cc:Agent>
    </dc:creator>
   </cc:Work>
  </rdf:RDF>
 </metadata>
 <defs>
  <style type="text/css">*{stroke-linejoin: round; stroke-linecap: butt}</style>
 </defs>
 <g id="figure_1">
  <g id="patch_1">
   <path d="M 0 648 
L 648 648 
L 648 0 
L 0 0 
z
" style="fill: #ffffff"/>
  </g>
  <g id="axes_1">
   <g id="patch_2">
    <path d="M 81 576.72 
L 583.2 576.72 
L 583.2 77.76 
L 81 77.76 
z
" style="fill: #ffffff"/>
   </g>
   <g id="PathCollection_1">
    <defs>
     <path id="md4c346c4ec" d="M -3.535534 3.535534 
L 3.535534 3.535534 
L 3.535534 -3.535534 
L -3.535534 -3.535534 
z
" style="stroke: #0000ff"/>
    </defs>
    <g clip-path="url(#pe45ff0173b)">
     <use xlink:href="#md4c346c4ec" x="201.893236" y="469.85184" style="fill: #0000ff; stroke: #0000ff"/>
    </g>
   </g>
   <g id="PathCollection_2">
    <defs>
     <path id="m4df6d72e65" d="M -3.535534 3.535534 
L 3.535534 3.535534 
L 3.535534 -3.535534 
L -3.535534 -3.535534 
z
" style="stroke: #ff0000"/>
    </defs>
    <g clip-path="url(#pe45ff0173b)">
     <use xlink:href="#m4df6d72e65" x="233.303564" y="299.47968" style="fill: #ff0000; stroke: #ff0000"/>
    </g>
   </g>
   <g id="PathCollection_3">
    <g clip-path="url(#pe45ff0173b)">
     <use xlink:href="#md4c346c4ec" x="201.893236" y="469.85184" style="fill: #0000ff; stroke: #0000ff"/>
    </g>
   </g>
   <g id="PathCollection_4">
    <g clip-path="url(#pe45ff0173b)">
     <use xlink:href="#m4df6d72e65" x="261.426764" y="340.848" style="fill: #ff0000; stroke: #ff0000"/>
    </g>
   </g>
   <g id="matplotlib.axis_1">
    <g id="xtick_1">
     <g id="line2d_1">
      <path d="M 103.827273 576.72 
L 103.827273 77.76 
" clip-path="url(#pe45ff0173b)" style="fill: none; stroke: #b0b0b0; stroke-width: 0.1; stroke-linecap: square"/>
     </g>
     <g id="line2d_2">
      <defs>
       <path id="m98ec25e3c2" d="M 0 0 
L 0 3.5 
" style="stroke: #000000; stroke-width: 0.8"/>
      </defs>
      <g>
       <use xlink:href="#m98ec25e3c2" x="103.827273" y="576.72" style="stroke: #000000; stroke-width: 0.8"/>
      </g>
     </g>
     <g id="text_1">
      <!-- 0 -->
      <g transform="translate(100.646023 591.318438) scale(0.1 -0.1)">
       <defs>
        <path id="DejaVuSans-30" d="M 2034 4250 
Q 1547 4250 1301 3770 
Q 1056 3291 1056 2328 
Q 1056 1369 1301 889 
Q 1547 409 2034 409 
Q 2525 409 2770 889 
Q 3016 1369 3016 2328 
Q 3016 3291 2770 3770 
Q 2525 4250 2034 4250 
z
M 2034 4750 
Q 2819 4750 3233 4129 
Q 3647 3509 3647 2328 
Q 3647 1150 3233 529 
Q 2819 -91 2034 -91 
Q 1250 -91 836 529 
Q 422 1150 422 2328 
Q 422 3509 836 4129 
Q 1250 4750 2034 4750 
z
" transform="scale(0.015625)"/>
       </defs>
       <use xlink:href="#DejaVuSans-30"/>
      </g>
     </g>
    </g>
    <g id="xtick_2">
     <g id="line2d_3">
      <path d="M 195.136364 576.72 
L 195.136364 77.76 
" clip-path="url(#pe45ff0173b)" style="fill: none; stroke: #b0b0b0; stroke-width: 0.1; stroke-linecap: square"/>
     </g>
     <g id="line2d_4">
      <g>
       <use xlink:href="#m98ec25e3c2" x="195.136364" y="576.72" style="stroke: #000000; stroke-width: 0.8"/>
      </g>
     </g>
     <g id="text_2">
      <!-- 500 -->
      <g transform="translate(185.592614 591.318438) scale(0.1 -0.1)">
       <defs>
        <path id="DejaVuSans-35" d="M 691 4666 
L 3169 4666 
L 3169 4134 
L 1269 4134 
L 1269 2991 
Q 1406 3038 1543 3061 
Q 1681 3084 1819 3084 
Q 2600 3084 3056 2656 
Q 3513 2228 3513 1497 
Q 3513 744 3044 326 
Q 2575 -91 1722 -91 
Q 1428 -91 1123 -41 
Q 819 9 494 109 
L 494 744 
Q 775 591 1075 516 
Q 1375 441 1709 441 
Q 2250 441 2565 725 
Q 2881 1009 2881 1497 
Q 2881 1984 2565 2268 
Q 2250 2553 1709 2553 
Q 1456 2553 1204 2497 
Q 953 2441 691 2322 
L 691 4666 
z
" transform="scale(0.015625)"/>
       </defs>
       <use xlink:href="#DejaVuSans-35"/>
       <use xlink:href="#DejaVuSans-30" x="63.623047"/>
       <use xlink:href="#DejaVuSans-30" x="127.246094"/>
      </g>
     </g>
    </g>
    <g id="xtick_3">
     <g id="line2d_5">
      <path d="M 286.445455 576.72 
L 286.445455 77.76 
" clip-path="url(#pe45ff0173b)" style="fill: none; stroke: #b0b0b0; stroke-width: 0.1; stroke-linecap: square"/>
     </g>
     <g id="line2d_6">
      <g>
       <use xlink:href="#m98ec25e3c2" x="286.445455" y="576.72" style="stroke: #000000; stroke-width: 0.8"/>
      </g>
     </g>
     <g id="text_3">
      <!-- 1000 -->
      <g transform="translate(273.720455 591.318438) scale(0.1 -0.1)">
       <defs>
        <path id="DejaVuSans-31" d="M 794 531 
L 1825 531 
L 1825 4091 
L 703 3866 
L 703 4441 
L 1819 4666 
L 2450 4666 
L 2450 531 
L 3481 531 
L 3481 0 
L 794 0 
L 794 531 
z
" transform="scale(0.015625)"/>
       </defs>
       <use xlink:href="#DejaVuSans-31"/>
       <use xlink:href="#DejaVuSans-30" x="63.623047"/>
       <use xlink:href="#DejaVuSans-30" x="127.246094"/>
       <use xlink:href="#DejaVuSans-30" x="190.869141"/>
      </g>
     </g>
    </g>
    <g id="xtick_4">
     <g id="line2d_7">
      <path d="M 377.754545 576.72 
L 377.754545 77.76 
" clip-path="url(#pe45ff0173b)" style="fill: none; stroke: #b0b0b0; stroke-width: 0.1; stroke-linecap: square"/>
     </g>
     <g id="line2d_8">
      <g>
       <use xlink:href="#m98ec25e3c2" x="377.754545" y="576.72" style="stroke: #000000; stroke-width: 0.8"/>
      </g>
     </g>
     <g id="text_4">
      <!-- 1500 -->
      <g transform="translate(365.029545 591.318438) scale(0.1 -0.1)">
       <use xlink:href="#DejaVuSans-31"/>
       <use xlink:href="#DejaVuSans-35" x="63.623047"/>
       <use xlink:href="#DejaVuSans-30" x="127.246094"/>
       <use xlink:href="#DejaVuSans-30" x="190.869141"/>
      </g>
     </g>
    </g>
    <g id="xtick_5">
     <g id="line2d_9">
      <path d="M 469.063636 576.72 
L 469.063636 77.76 
" clip-path="url(#pe45ff0173b)" style="fill: none; stroke: #b0b0b0; stroke-width: 0.1; stroke-linecap: square"/>
     </g>
     <g id="line2d_10">
      <g>
       <use xlink:href="#m98ec25e3c2" x="469.063636" y="576.72" style="stroke: #000000; stroke-width: 0.8"/>
      </g>
     </g>
     <g id="text_5">
      <!-- 2000 -->
      <g transform="translate(456.338636 591.318438) scale(0.1 -0.1)">
       <defs>
        <path id="DejaVuSans-32" d="M 1228 531 
L 3431 531 
L 3431 0 
L 469 0 
L 469 531 
Q 828 903 1448 1529 
Q 2069 2156 2228 2338 
Q 2531 2678 2651 2914 
Q 2772 3150 2772 3378 
Q 2772 3750 2511 3984 
Q 2250 4219 1831 4219 
Q 1534 4219 1204 4116 
Q 875 4013 500 3803 
L 500 4441 
Q 881 4594 1212 4672 
Q 1544 4750 1819 4750 
Q 2544 4750 2975 4387 
Q 3406 4025 3406 3419 
Q 3406 3131 3298 2873 
Q 3191 2616 2906 2266 
Q 2828 2175 2409 1742 
Q 1991 1309 1228 531 
z
" transform="scale(0.015625)"/>
       </defs>
       <use xlink:href="#DejaVuSans-32"/>
       <use xlink:href="#DejaVuSans-30" x="63.623047"/>
       <use xlink:href="#DejaVuSans-30" x="127.246094"/>
       <use xlink:href="#DejaVuSans-30" x="190.869141"/>
      </g>
     </g>
    </g>
    <g id="xtick_6">
     <g id="line2d_11">
      <path d="M 560.372727 576.72 
L 560.372727 77.76 
" clip-path="url(#pe45ff0173b)" style="fill: none; stroke: #b0b0b0; stroke-width: 0.1; stroke-linecap: square"/>
     </g>
     <g id="line2d_12">
      <g>
       <use xlink:href="#m98ec25e3c2" x="560.372727" y="576.72" style="stroke: #000000; stroke-width: 0.8"/>
      </g>
     </g>
     <g id="text_6">
      <!-- 2500 -->
      <g transform="translate(547.647727 591.318438) scale(0.1 -0.1)">
       <use xlink:href="#DejaVuSans-32"/>
       <use xlink:href="#DejaVuSans-35" x="63.623047"/>
       <use xlink:href="#DejaVuSans-30" x="127.246094"/>
       <use xlink:href="#DejaVuSans-30" x="190.869141"/>
      </g>
     </g>
    </g>
    <g id="text_7">
     <!-- Predator population -->
     <g transform="translate(282.64375 604.996562) scale(0.1 -0.1)">
      <defs>
       <path id="DejaVuSans-50" d="M 1259 4147 
L 1259 2394 
L 2053 2394 
Q 2494 2394 2734 2622 
Q 2975 2850 2975 3272 
Q 2975 3691 2734 3919 
Q 2494 4147 2053 4147 
L 1259 4147 
z
M 628 4666 
L 2053 4666 
Q 2838 4666 3239 4311 
Q 3641 3956 3641 3272 
Q 3641 2581 3239 2228 
Q 2838 1875 2053 1875 
L 1259 1875 
L 1259 0 
L 628 0 
L 628 4666 
z
" transform="scale(0.015625)"/>
       <path id="DejaVuSans-72" d="M 2631 2963 
Q 2534 3019 2420 3045 
Q 2306 3072 2169 3072 
Q 1681 3072 1420 2755 
Q 1159 2438 1159 1844 
L 1159 0 
L 581 0 
L 581 3500 
L 1159 3500 
L 1159 2956 
Q 1341 3275 1631 3429 
Q 1922 3584 2338 3584 
Q 2397 3584 2469 3576 
Q 2541 3569 2628 3553 
L 2631 2963 
z
" transform="scale(0.015625)"/>
       <path id="DejaVuSans-65" d="M 3597 1894 
L 3597 1613 
L 953 1613 
Q 991 1019 1311 708 
Q 1631 397 2203 397 
Q 2534 397 2845 478 
Q 3156 559 3463 722 
L 3463 178 
Q 3153 47 2828 -22 
Q 2503 -91 2169 -91 
Q 1331 -91 842 396 
Q 353 884 353 1716 
Q 353 2575 817 3079 
Q 1281 3584 2069 3584 
Q 2775 3584 3186 3129 
Q 3597 2675 3597 1894 
z
M 3022 2063 
Q 3016 2534 2758 2815 
Q 2500 3097 2075 3097 
Q 1594 3097 1305 2825 
Q 1016 2553 972 2059 
L 3022 2063 
z
" transform="scale(0.015625)"/>
       <path id="DejaVuSans-64" d="M 2906 2969 
L 2906 4863 
L 3481 4863 
L 3481 0 
L 2906 0 
L 2906 525 
Q 2725 213 2448 61 
Q 2172 -91 1784 -91 
Q 1150 -91 751 415 
Q 353 922 353 1747 
Q 353 2572 751 3078 
Q 1150 3584 1784 3584 
Q 2172 3584 2448 3432 
Q 2725 3281 2906 2969 
z
M 947 1747 
Q 947 1113 1208 752 
Q 1469 391 1925 391 
Q 2381 391 2643 752 
Q 2906 1113 2906 1747 
Q 2906 2381 2643 2742 
Q 2381 3103 1925 3103 
Q 1469 3103 1208 2742 
Q 947 2381 947 1747 
z
" transform="scale(0.015625)"/>
       <path id="DejaVuSans-61" d="M 2194 1759 
Q 1497 1759 1228 1600 
Q 959 1441 959 1056 
Q 959 750 1161 570 
Q 1363 391 1709 391 
Q 2188 391 2477 730 
Q 2766 1069 2766 1631 
L 2766 1759 
L 2194 1759 
z
M 3341 1997 
L 3341 0 
L 2766 0 
L 2766 531 
Q 2569 213 2275 61 
Q 1981 -91 1556 -91 
Q 1019 -91 701 211 
Q 384 513 384 1019 
Q 384 1609 779 1909 
Q 1175 2209 1959 2209 
L 2766 2209 
L 2766 2266 
Q 2766 2663 2505 2880 
Q 2244 3097 1772 3097 
Q 1472 3097 1187 3025 
Q 903 2953 641 2809 
L 641 3341 
Q 956 3463 1253 3523 
Q 1550 3584 1831 3584 
Q 2591 3584 2966 3190 
Q 3341 2797 3341 1997 
z
" transform="scale(0.015625)"/>
       <path id="DejaVuSans-74" d="M 1172 4494 
L 1172 3500 
L 2356 3500 
L 2356 3053 
L 1172 3053 
L 1172 1153 
Q 1172 725 1289 603 
Q 1406 481 1766 481 
L 2356 481 
L 2356 0 
L 1766 0 
Q 1100 0 847 248 
Q 594 497 594 1153 
L 594 3053 
L 172 3053 
L 172 3500 
L 594 3500 
L 594 4494 
L 1172 4494 
z
" transform="scale(0.015625)"/>
       <path id="DejaVuSans-6f" d="M 1959 3097 
Q 1497 3097 1228 2736 
Q 959 2375 959 1747 
Q 959 1119 1226 758 
Q 1494 397 1959 397 
Q 2419 397 2687 759 
Q 2956 1122 2956 1747 
Q 2956 2369 2687 2733 
Q 2419 3097 1959 3097 
z
M 1959 3584 
Q 2709 3584 3137 3096 
Q 3566 2609 3566 1747 
Q 3566 888 3137 398 
Q 2709 -91 1959 -91 
Q 1206 -91 779 398 
Q 353 888 353 1747 
Q 353 2609 779 3096 
Q 1206 3584 1959 3584 
z
" transform="scale(0.015625)"/>
       <path id="DejaVuSans-20" transform="scale(0.015625)"/>
       <path id="DejaVuSans-70" d="M 1159 525 
L 1159 -1331 
L 581 -1331 
L 581 3500 
L 1159 3500 
L 1159 2969 
Q 1341 3281 1617 3432 
Q 1894 3584 2278 3584 
Q 2916 3584 3314 3078 
Q 3713 2572 3713 1747 
Q 3713 922 3314 415 
Q 2916 -91 2278 -91 
Q 1894 -91 1617 61 
Q 1341 213 1159 525 
z
M 3116 1747 
Q 3116 2381 2855 2742 
Q 2594 3103 2138 3103 
Q 1681 3103 1420 2742 
Q 1159 2381 1159 1747 
Q 1159 1113 1420 752 
Q 1681 391 2138 391 
Q 2594 391 2855 752 
Q 3116 1113 3116 1747 
z
" transform="scale(0.015625)"/>
       <path id="DejaVuSans-75" d="M 544 1381 
L 544 3500 
L 1119 3500 
L 1119 1403 
Q 1119 906 1312 657 
Q 1506 409 1894 409 
Q 2359 409 2629 706 
Q 2900 1003 2900 1516 
L 2900 3500 
L 3475 3500 
L 3475 0 
L 2900 0 
L 2900 538 
Q 2691 219 2414 64 
Q 2138 -91 1772 -91 
Q 1169 -91 856 284 
Q 544 659 544 1381 
z
M 1991 3584 
L 1991 3584 
z
" transform="scale(0.015625)"/>
       <path id="DejaVuSans-6c" d="M 603 4863 
L 1178 4863 
L 1178 0 
L 603 0 
L 603 4863 
z
" transform="scale(0.015625)"/>
       <path id="DejaVuSans-69" d="M 603 3500 
L 1178 3500 
L 1178 0 
L 603 0 
L 603 3500 
z
M 603 4863 
L 1178 4863 
L 1178 4134 
L 603 4134 
L 603 4863 
z
" transform="scale(0.015625)"/>
       <path id="DejaVuSans-6e" d="M 3513 2113 
L 3513 0 
L 2938 0 
L 2938 2094 
Q 2938 2591 2744 2837 
Q 2550 3084 2163 3084 
Q 1697 3084 1428 2787 
Q 1159 2491 1159 1978 
L 1159 0 
L 581 0 
L 581 3500 
L 1159 3500 
L 1159 2956 
Q 1366 3272 1645 3428 
Q 1925 3584 2291 3584 
Q 2894 3584 3203 3211 
Q 3513 2838 3513 2113 
z
" transform="scale(0.015625)"/>
      </defs>
      <use xlink:href="#DejaVuSans-50"/>
      <use xlink:href="#DejaVuSans-72" x="58.552734"/>
      <use xlink:href="#DejaVuSans-65" x="97.416016"/>
      <use xlink:href="#DejaVuSans-64" x="158.939453"/>
      <use xlink:href="#DejaVuSans-61" x="222.416016"/>
      <use xlink:href="#DejaVuSans-74" x="283.695312"/>
      <use xlink:href="#DejaVuSans-6f" x="322.904297"/>
      <use xlink:href="#DejaVuSans-72" x="384.085938"/>
      <use xlink:href="#DejaVuSans-20" x="425.199219"/>
      <use xlink:href="#DejaVuSans-70" x="456.986328"/>
      <use xlink:href="#DejaVuSans-6f" x="520.462891"/>
      <use xlink:href="#DejaVuSans-70" x="581.644531"/>
      <use xlink:href="#DejaVuSans-75" x="645.121094"/>
      <use xlink:href="#DejaVuSans-6c" x="708.5"/>
      <use xlink:href="#DejaVuSans-61" x="736.283203"/>
      <use xlink:href="#DejaVuSans-74" x="797.5625"/>
      <use xlink:href="#DejaVuSans-69" x="836.771484"/>
      <use xlink:href="#DejaVuSans-6f" x="864.554688"/>
      <use xlink:href="#DejaVuSans-6e" x="925.736328"/>
     </g>
    </g>
   </g>
   <g id="matplotlib.axis_2">
    <g id="ytick_1">
     <g id="line2d_13">
      <path d="M 81 554.04 
L 583.2 554.04 
" clip-path="url(#pe45ff0173b)" style="fill: none; stroke: #b0b0b0; stroke-width: 0.1; stroke-linecap: square"/>
     </g>
     <g id="line2d_14">
      <defs>
       <path id="m834658abff" d="M 0 0 
L -3.5 0 
" style="stroke: #000000; stroke-width: 0.8"/>
      </defs>
      <g>
       <use xlink:href="#m834658abff" x="81" y="554.04" style="stroke: #000000; stroke-width: 0.8"/>
      </g>
     </g>
     <g id="text_8">
      <!-- 0 -->
      <g transform="translate(67.6375 557.839219) scale(0.1 -0.1)">
       <use xlink:href="#DejaVuSans-30"/>
      </g>
     </g>
    </g>
    <g id="ytick_2">
     <g id="line2d_15">
      <path d="M 81 463.32 
L 583.2 463.32 
" clip-path="url(#pe45ff0173b)" style="fill: none; stroke: #b0b0b0; stroke-width: 0.1; stroke-linecap: square"/>
     </g>
     <g id="line2d_16">
      <g>
       <use xlink:href="#m834658abff" x="81" y="463.32" style="stroke: #000000; stroke-width: 0.8"/>
      </g>
     </g>
     <g id="text_9">
      <!-- 500 -->
      <g transform="translate(54.9125 467.119219) scale(0.1 -0.1)">
       <use xlink:href="#DejaVuSans-35"/>
       <use xlink:href="#DejaVuSans-30" x="63.623047"/>
       <use xlink:href="#DejaVuSans-30" x="127.246094"/>
      </g>
     </g>
    </g>
    <g id="ytick_3">
     <g id="line2d_17">
      <path d="M 81 372.6 
L 583.2 372.6 
" clip-path="url(#pe45ff0173b)" style="fill: none; stroke: #b0b0b0; stroke-width: 0.1; stroke-linecap: square"/>
     </g>
     <g id="line2d_18">
      <g>
       <use xlink:href="#m834658abff" x="81" y="372.6" style="stroke: #000000; stroke-width: 0.8"/>
      </g>
     </g>
     <g id="text_10">
      <!-- 1000 -->
      <g transform="translate(48.55 376.399219) scale(0.1 -0.1)">
       <use xlink:href="#DejaVuSans-31"/>
       <use xlink:href="#DejaVuSans-30" x="63.623047"/>
       <use xlink:href="#DejaVuSans-30" x="127.246094"/>
       <use xlink:href="#DejaVuSans-30" x="190.869141"/>
      </g>
     </g>
    </g>
    <g id="ytick_4">
     <g id="line2d_19">
      <path d="M 81 281.88 
L 583.2 281.88 
" clip-path="url(#pe45ff0173b)" style="fill: none; stroke: #b0b0b0; stroke-width: 0.1; stroke-linecap: square"/>
     </g>
     <g id="line2d_20">
      <g>
       <use xlink:href="#m834658abff" x="81" y="281.88" style="stroke: #000000; stroke-width: 0.8"/>
      </g>
     </g>
     <g id="text_11">
      <!-- 1500 -->
      <g transform="translate(48.55 285.679219) scale(0.1 -0.1)">
       <use xlink:href="#DejaVuSans-31"/>
       <use xlink:href="#DejaVuSans-35" x="63.623047"/>
       <use xlink:href="#DejaVuSans-30" x="127.246094"/>
       <use xlink:href="#DejaVuSans-30" x="190.869141"/>
      </g>
     </g>
    </g>
    <g id="ytick_5">
     <g id="line2d_21">
      <path d="M 81 191.16 
L 583.2 191.16 
" clip-path="url(#pe45ff0173b)" style="fill: none; stroke: #b0b0b0; stroke-width: 0.1; stroke-linecap: square"/>
     </g>
     <g id="line2d_22">
      <g>
       <use xlink:href="#m834658abff" x="81" y="191.16" style="stroke: #000000; stroke-width: 0.8"/>
      </g>
     </g>
     <g id="text_12">
      <!-- 2000 -->
      <g transform="translate(48.55 194.959219) scale(0.1 -0.1)">
       <use xlink:href="#DejaVuSans-32"/>
       <use xlink:href="#DejaVuSans-30" x="63.623047"/>
       <use xlink:href="#DejaVuSans-30" x="127.246094"/>
       <use xlink:href="#DejaVuSans-30" x="190.869141"/>
      </g>
     </g>
    </g>
    <g id="ytick_6">
     <g id="line2d_23">
      <path d="M 81 100.44 
L 583.2 100.44 
" clip-path="url(#pe45ff0173b)" style="fill: none; stroke: #b0b0b0; stroke-width: 0.1; stroke-linecap: square"/>
     </g>
     <g id="line2d_24">
      <g>
       <use xlink:href="#m834658abff" x="81" y="100.44" style="stroke: #000000; stroke-width: 0.8"/>
      </g>
     </g>
     <g id="text_13">
      <!-- 2500 -->
      <g transform="translate(48.55 104.239219) scale(0.1 -0.1)">
       <use xlink:href="#DejaVuSans-32"/>
       <use xlink:href="#DejaVuSans-35" x="63.623047"/>
       <use xlink:href="#DejaVuSans-30" x="127.246094"/>
       <use xlink:href="#DejaVuSans-30" x="190.869141"/>
      </g>
     </g>
    </g>
    <g id="text_14">
     <!-- Prey population -->
     <g transform="translate(42.470312 366.342344) rotate(-90) scale(0.1 -0.1)">
      <defs>
       <path id="DejaVuSans-79" d="M 2059 -325 
Q 1816 -950 1584 -1140 
Q 1353 -1331 966 -1331 
L 506 -1331 
L 506 -850 
L 844 -850 
Q 1081 -850 1212 -737 
Q 1344 -625 1503 -206 
L 1606 56 
L 191 3500 
L 800 3500 
L 1894 763 
L 2988 3500 
L 3597 3500 
L 2059 -325 
z
" transform="scale(0.015625)"/>
      </defs>
      <use xlink:href="#DejaVuSans-50"/>
      <use xlink:href="#DejaVuSans-72" x="58.552734"/>
      <use xlink:href="#DejaVuSans-65" x="97.416016"/>
      <use xlink:href="#DejaVuSans-79" x="158.939453"/>
      <use xlink:href="#DejaVuSans-20" x="218.119141"/>
      <use xlink:href="#DejaVuSans-70" x="249.90625"/>
      <use xlink:href="#DejaVuSans-6f" x="313.382812"/>
      <use xlink:href="#DejaVuSans-70" x="374.564453"/>
      <use xlink:href="#DejaVuSans-75" x="438.041016"/>
      <use xlink:href="#DejaVuSans-6c" x="501.419922"/>
      <use xlink:href="#DejaVuSans-61" x="529.203125"/>
      <use xlink:href="#DejaVuSans-74" x="590.482422"/>
      <use xlink:href="#DejaVuSans-69" x="629.691406"/>
      <use xlink:href="#DejaVuSans-6f" x="657.474609"/>
      <use xlink:href="#DejaVuSans-6e" x="718.65625"/>
     </g>
    </g>
   </g>
   <g id="line2d_25">
    <path d="M 201.893236 469.85184 
L 204.449891 443.18016 
L 216.867927 414.69408 
L 242.982327 418.50432 
L 266.540073 437.9184 
L 280.419055 458.60256 
L 259.417964 461.68704 
L 238.416873 461.68704 
L 224.355273 456.24384 
L 211.206764 442.81728 
L 208.467491 434.2896 
L 209.928436 419.7744 
L 214.493891 409.61376 
L 220.337673 399.816 
L 232.207855 399.99744 
L 247.547782 413.96832 
L 250.287055 420.50016 
L 249.556582 421.40736 
L 249.7392 421.22592 
L 240.243055 412.69824 
L 233.6688 409.7952 
L 243.530182 406.71072 
L 253.391564 412.69824 
L 261.974618 421.40736 
L 264.166036 430.6608 
L 263.8008 427.9392 
L 240.790909 421.95168 
L 224.720509 409.61376 
L 216.867927 389.11104 
L 223.6248 393.28416 
L 240.973527 406.34784 
L 254.122036 417.77856 
L 253.574182 429.7536 
L 244.443273 423.76608 
L 244.991127 420.50016 
L 241.156145 420.13728 
L 239.512582 418.50432 
L 245.173745 416.87136 
L 243.895418 413.424 
L 247.365164 413.06112 
L 244.808509 410.33952 
L 255.582982 415.05696 
L 272.931709 426.1248 
L 259.417964 423.4032 
L 236.225455 412.15392 
L 234.216655 411.97248 
L 231.112145 401.99328 
L 233.120945 401.44896 
L 252.113236 410.15808 
L 264.896509 419.23008 
L 266.357455 423.58464 
L 250.652291 420.50016 
L 232.938327 409.97664 
L 242.982327 406.34784 
L 255.035127 407.79936 
L 252.113236 410.7024 
L 253.026327 418.68576 
L 255.217745 421.5888 
L 247.7304 418.14144 
L 249.008727 416.50848 
L 243.895418 413.96832 
L 244.260655 418.14144 
L 250.287055 416.87136 
L 249.556582 416.1456 
L 250.287055 417.96 
L 247.182545 415.60128 
L 246.634691 414.87552 
L 246.999927 416.87136 
L 241.338764 413.96832 
L 250.104436 413.60544 
L 259.965818 424.67328 
L 255.7656 422.13312 
L 244.625891 421.22592 
L 237.138545 411.24672 
L 248.460873 411.79104 
L 253.574182 406.89216 
L 255.400364 414.3312 
L 257.409164 419.7744 
L 248.643491 418.50432 
L 245.173745 413.06112 
L 253.208945 411.6096 
L 259.052727 413.78688 
L 253.574182 414.87552 
L 243.530182 407.43648 
L 251.382764 408.16224 
L 259.600582 408.34368 
L 249.556582 411.79104 
L 242.251855 405.98496 
L 243.7128 405.44064 
L 255.582982 409.61376 
L 265.626982 417.0528 
L 273.114327 441.5472 
L 254.852509 441.18432 
L 233.120945 439.7328 
L 223.076945 433.3824 
L 221.068145 425.94336 
L 222.529091 431.568 
L 236.408073 431.93088 
L 229.833818 431.20512 
L 222.163855 438.09984 
L 219.059345 433.20096 
L 213.763418 431.38656 
L 213.763418 430.29792 
L 217.5984 433.20096 
L 216.137455 429.39072 
L 211.024145 425.76192 
L 208.832727 423.58464 
L 209.197964 425.58048 
L 209.015345 424.85472 
L 219.424582 430.11648 
L 223.807418 425.39904 
L 223.807418 425.39904 
L 215.5896 416.87136 
L 212.667709 414.69408 
L 230.929527 416.32704 
L 245.7216 440.09568 
L 238.051636 437.19264 
L 228.007636 435.37824 
L 220.702909 422.31456 
L 233.120945 426.66912 
L 234.399273 428.30208 
L 233.120945 433.74528 
L 240.243055 438.8256 
L 233.6688 437.0112 
L 226.364073 436.104 
L 223.990036 428.66496 
L 227.094545 426.30624 
L 224.355273 422.67744 
L 219.241964 421.5888 
L 232.207855 428.8464 
L 227.6424 427.9392 
L 215.406982 419.7744 
L 214.859127 418.14144 
L 225.268364 418.8672 
L 232.755709 422.496 
L 230.381673 419.04864 
L 233.303564 418.8672 
L 232.573091 417.59712 
L 235.860218 426.66912 
L 245.538982 431.20512 
L 248.826109 431.20512 
L 238.416873 433.20096 
L 229.833818 429.20928 
L 233.303564 432.65664 
L 235.312364 431.74944 
L 228.190255 427.57632 
L 224.537891 424.67328 
L 233.851418 423.22176 
L 242.434473 428.66496 
L 235.312364 427.032 
L 232.755709 429.39072 
L 234.399273 427.9392 
L 230.016436 429.7536 
L 225.268364 429.20928 
L 222.711709 419.95584 
L 221.250764 420.6816 
L 232.025236 425.2176 
L 235.312364 418.14144 
L 233.6688 414.87552 
L 239.6952 422.13312 
L 243.7128 431.74944 
L 239.329964 431.20512 
L 238.782109 429.39072 
L 239.512582 430.47936 
L 236.590691 429.93504 
L 236.955927 427.57632 
L 235.860218 431.93088 
L 239.147345 426.85056 
L 232.390473 414.3312 
L 226.181455 409.43232 
L 242.069236 414.69408 
L 256.678691 431.20512 
L 250.469673 431.74944 
L 236.955927 423.04032 
L 237.321164 416.87136 
L 238.964727 410.15808 
L 243.164945 403.62624 
L 258.687491 413.24256 
L 274.940509 420.86304 
L 274.757891 425.2176 
L 270.009818 423.22176 
L 255.217745 416.1456 
L 247.7304 411.97248 
L 251.017527 411.24672 
L 261.792 421.77024 
L 267.270545 419.7744 
L 270.557673 429.20928 
L 276.401455 432.29376 
L 272.201236 432.4752 
L 266.174836 428.8464 
L 257.043927 421.04448 
L 255.7656 410.88384 
L 258.870109 409.97664 
L 267.453164 409.61376 
L 260.878909 410.88384 
L 255.035127 416.87136 
L 250.834909 407.9808 
L 239.512582 401.26752 
L 253.391564 404.89632 
L 273.662182 411.6096 
L 279.688582 426.1248 
L 274.210036 422.496 
L 259.965818 408.16224 
L 262.522473 400.17888 
L 271.470764 390.92544 
L 284.254036 399.99744 
L 291.741382 407.25504 
L 295.576364 415.78272 
L 285.714982 421.22592 
L 277.314545 415.60128 
L 268.183636 401.81184 
L 262.522473 391.83264 
L 267.8184 390.92544 
L 278.410255 396.00576 
L 293.202327 408.16224 
L 299.046109 410.7024 
L 286.628073 414.14976 
L 275.305745 408.70656 
L 273.296945 401.44896 
L 278.592873 396.55008 
L 277.314545 384.57504 
L 274.575273 381.49056 
L 279.140727 384.57504 
L 288.089018 391.28832 
L 293.750182 397.82016 
L 294.115418 379.49472 
L 281.332145 363.89088 
L 277.8624 351.55296 
L 275.488364 350.46432 
L 306.350836 372.23712 
L 336.300218 397.45728 
L 323.516945 415.60128 
L 292.289236 415.05696 
L 268.731491 396.91296 
L 253.026327 365.16096 
L 246.999927 337.94496 
L 255.948218 330.32448 
L 290.280436 352.82304 
L 320.595055 388.56672 
L 331.004291 421.5888 
L 307.263927 420.13728 
L 275.8536 410.7024 
L 260.513673 400.90464 
L 253.026327 374.23296 
L 244.991127 355.00032 
L 248.460873 342.11808 
L 264.713891 341.21088 
L 287.9064 351.55296 
L 302.698473 376.95456 
L 326.256218 415.2384 
L 328.0824 434.2896 
L 289.367345 417.77856 
L 245.904218 384.21216 
L 233.486182 353.18592 
L 241.886618 330.14304 
L 260.878909 321.7968 
L 292.106618 341.93664 
L 338.856873 391.10688 
L 354.379418 425.94336 
L 315.846982 428.12064 
L 273.114327 412.5168 
L 240.973527 383.12352 
L 229.285964 339.9408 
L 242.617091 311.45472 
L 272.018618 316.17216 
L 312.012 353.91168 
L 340.500436 395.46144 
L 340.683055 419.23008 
L 306.716073 418.14144 
L 272.383855 385.66368 
L 235.860218 339.57792 
L 230.564291 305.64864 
L 257.409164 309.096 
L 302.698473 342.48096 
L 343.604945 384.3936 
L 342.326618 408.52512 
L 314.386036 415.60128 
L 282.975709 384.57504 
L 254.304655 345.92832 
L 250.287055 323.24832 
L 274.575273 324.5184 
L 305.255127 347.37984 
L 324.795273 370.42272 
L 325.160509 381.12768 
L 300.872291 384.57504 
L 290.828291 377.49888 
L 278.592873 356.99616 
L 263.618182 333.22752 
L 266.357455 324.5184 
L 284.619273 341.93664 
L 313.838182 363.89088 
L 328.630255 384.93792 
L 331.552145 405.44064 
L 301.602764 395.46144 
L 264.713891 366.97536 
L 236.042836 334.13472 
L 237.503782 308.55168 
L 251.017527 299.66112 
L 278.775491 319.80096 
L 313.107709 354.27456 
L 333.378327 387.84096 
L 321.873382 401.99328 
L 302.515855 397.27584 
L 280.966909 376.95456 
L 260.513673 351.00864 
L 254.122036 339.57792 
L 264.713891 335.58624 
L 285.714982 338.30784 
L 312.012 360.98784 
L 329.178109 388.56672 
L 323.334327 402.71904 
L 313.290327 406.52928 
L 295.393745 396.1872 
L 282.427855 371.51136 
L 270.740291 351.7344 
L 270.740291 339.75936 
L 289.549964 342.48096 
L 299.9592 347.01696 
L 312.194618 362.80224 
L 312.742473 370.7856 
L 301.602764 372.23712 
L 297.585164 373.32576 
L 298.315636 362.80224 
L 295.576364 356.2704 
L 299.593964 361.35072 
L 302.881091 361.35072 
L 300.141818 357.90336 
L 302.881091 360.26208 
L 309.272727 365.52384 
L 314.386036 372.6 
L 319.681964 382.39776 
L 304.889891 385.11936 
L 292.837091 371.32992 
L 272.566473 347.1984 
L 265.992218 335.4048 
L 280.784291 341.93664 
L 311.098909 359.71776 
L 333.560945 382.94208 
L 342.326618 404.89632 
L 323.151709 406.71072 
L 295.758982 385.66368 
L 264.531273 348.28704 
L 246.086836 317.62368 
L 241.704 304.56 
L 276.949309 317.44224 
L 329.178109 353.00448 
L 365.884364 403.4448 
L 369.354109 432.29376 
L 347.439927 435.74112 
L 310.368436 415.05696 
L 270.375055 370.05984 
L 237.869018 339.21504 
L 241.156145 322.52256 
L 279.505964 327.78432 
L 311.281527 348.46848 
L 332.282618 372.23712 
L 334.656655 394.19136 
L 324.247418 404.53344 
L 309.272727 397.0944 
L 286.993309 372.23712 
L 265.444364 347.1984 
L 261.609382 334.13472 
L 266.722691 331.05024 
L 287.541164 341.02944 
L 306.716073 360.44352 
L 313.472945 373.32576 
L 318.403636 388.0224 
L 320.960291 401.81184 
L 313.655564 398.0016 
L 291.010909 375.68448 
L 270.375055 348.46848 
L 259.235345 328.32864 
L 264.531273 320.70816 
L 280.053818 329.78016 
L 302.515855 348.83136 
L 324.977891 368.78976 
L 335.204509 392.92128 
L 330.639055 394.73568 
L 315.299127 390.56256 
L 291.558764 374.05152 
L 274.027418 357.72192 
L 263.252945 351.00864 
L 270.922909 347.01696 
L 285.714982 346.2912 
L 302.150618 354.63744 
L 322.056 376.41024 
L 330.821673 395.09856 
L 327.899782 399.816 
L 312.559855 394.3728 
L 295.9416 378.0432 
L 282.610473 358.81056 
L 285.349745 354.81888 
L 291.010909 358.26624 
L 303.611564 362.25792 
L 312.012 366.79392 
L 312.377236 368.9712 
L 314.751273 374.59584 
L 311.646764 383.12352 
L 311.464145 385.3008 
L 312.012 382.5792 
L 287.723782 378.40608 
L 270.375055 370.05984 
L 268.731491 354.27456 
L 272.383855 337.94496 
L 283.340945 344.11392 
L 294.845891 357.35904 
L 300.141818 364.61664 
L 298.680873 370.60416 
L 301.054909 371.6928 
L 298.315636 370.42272 
L 294.845891 366.79392 
L 286.628073 367.51968 
L 273.479564 357.90336 
L 269.644582 341.57376 
L 272.018618 334.86048 
L 282.062618 346.2912 
L 290.828291 353.36736 
L 300.324436 360.26208 
L 287.541164 364.25376 
L 275.123127 362.43936 
L 273.662182 354.09312 
L 271.288145 342.29952 
L 276.766691 341.21088 
L 284.071418 345.74688 
L 295.758982 360.44352 
L 302.333236 373.14432 
L 302.333236 386.57088 
L 299.593964 385.48224 
L 279.140727 365.3424 
L 259.052727 349.37568 
L 249.373964 336.49344 
L 261.244145 331.95744 
L 291.193527 346.10976 
L 314.568655 364.79808 
L 323.334327 385.11936 
L 315.299127 396.36864 
L 309.820582 401.6304 
L 300.324436 387.84096 
L 277.497164 367.70112 
L 267.8184 355.00032 
L 276.584073 350.46432 
L 290.463055 352.6416 
L 302.881091 369.15264 
L 305.802982 379.67616 
L 304.342036 390.744 
L 305.9856 392.37696 
L 295.211127 387.47808 
L 287.358545 378.9504 
L 289.184727 380.03904 
L 295.576364 378.40608 
L 295.028509 382.76064 
L 290.097818 380.7648 
L 287.175927 384.75648 
L 283.158327 381.12768 
L 261.792 354.81888 
L 268.001018 353.18592 
L 291.924 366.43104 
L 307.446545 387.84096 
L 310.185818 405.98496 
L 300.872291 413.60544 
L 280.784291 410.52096 
L 258.504873 394.91712 
L 247.365164 370.96704 
L 237.321164 342.84384 
L 236.225455 323.42976 
L 247.913018 319.43808 
L 282.062618 341.21088 
L 314.386036 376.59168 
L 333.195709 417.0528 
L 326.621455 443.18016 
L 291.010909 435.37824 
L 249.191345 409.7952 
L 219.972436 383.12352 
L 218.694109 351.7344 
L 240.973527 336.85632 
L 280.601673 355.72608 
L 312.559855 384.93792 
L 315.299127 414.14976 
L 307.629164 426.30624 
L 283.8888 416.68992 
L 257.043927 401.26752 
L 244.625891 380.7648 
L 251.200145 364.61664 
L 262.887709 359.71776 
L 279.323345 362.25792 
L 305.802982 388.9296 
L 318.221018 416.32704 
L 305.9856 428.30208 
L 268.914109 407.9808 
L 240.608291 404.53344 
L 238.599491 393.82848 
L 254.487273 396.91296 
L 275.670982 402.90048 
L 277.679782 407.61792 
L 266.174836 400.54176 
L 265.626982 398.54592 
L 277.679782 399.09024 
L 284.254036 401.81184 
L 283.8888 409.06944 
L 280.236436 404.53344 
L 282.610473 405.62208 
L 276.949309 400.36032 
L 275.8536 397.27584 
L 276.584073 390.38112 
L 266.540073 384.21216 
L 269.8272 387.1152 
L 304.159418 406.71072 
L 310.368436 421.40736 
L 292.106618 420.86304 
L 269.461964 414.3312 
L 261.244145 401.6304 
L 265.079127 392.19552 
L 277.314545 396.00576 
L 283.158327 404.53344 
L 291.924 423.4032 
L 290.097818 430.29792 
L 281.149527 432.83808 
L 267.8184 433.01952 
L 259.052727 426.85056 
L 255.217745 424.3104 
L 248.643491 416.32704 
L 242.617091 405.07776 
L 250.287055 405.2592 
L 262.522473 410.33952 
L 273.8448 418.32288 
L 275.8536 421.22592 
L 272.018618 429.57216 
L 268.731491 432.4752 
L 259.052727 431.568 
L 247.913018 424.12896 
L 239.329964 411.79104 
L 243.530182 411.97248 
L 264.531273 420.50016 
L 268.548873 423.58464 
L 254.304655 421.22592 
L 254.852509 419.95584 
L 249.008727 417.41568 
L 239.877818 412.69824 
L 245.173745 409.25088 
L 255.948218 415.41984 
L 263.435564 422.85888 
L 260.696291 428.48352 
L 243.347564 420.31872 
L 251.382764 417.77856 
L 262.157236 422.85888 
L 262.522473 424.3104 
L 255.948218 425.58048 
L 243.7128 420.50016 
L 235.860218 421.40736 
L 240.608291 417.96 
L 239.147345 420.13728 
L 245.7216 431.568 
L 245.173745 431.93088 
L 234.581891 434.2896 
L 238.599491 433.3824 
L 239.6952 433.3824 
L 226.911927 429.39072 
L 213.946036 426.1248 
L 215.5896 420.86304 
L 227.6424 418.32288 
L 242.799709 429.20928 
L 251.382764 432.4752 
L 248.643491 434.65248 
L 245.356364 433.92672 
L 239.877818 438.46272 
L 232.573091 431.38656 
L 228.738109 429.20928 
L 230.381673 426.48768 
L 232.755709 429.02784 
L 232.207855 429.20928 
L 224.172655 430.29792 
L 222.529091 428.12064 
L 224.537891 427.57632 
L 223.076945 426.1248 
L 222.529091 424.49184 
L 222.711709 420.86304 
L 226.546691 420.31872 
L 234.764509 430.29792 
L 238.782109 437.37408 
L 240.790909 443.54304 
L 231.842618 439.55136 
L 222.163855 420.6816 
L 221.250764 422.31456 
L 220.702909 414.69408 
L 225.085745 413.24256 
L 243.895418 429.93504 
L 241.338764 434.47104 
L 232.755709 432.65664 
L 231.294764 433.74528 
L 228.555491 430.84224 
L 222.529091 421.77024 
L 229.6512 420.50016 
L 241.156145 427.57632 
L 246.999927 434.65248 
L 242.799709 437.55552 
L 231.842618 439.18848 
L 219.6072 432.29376 
L 224.355273 427.21344 
L 234.034036 433.3824 
L 233.6688 433.01952 
L 228.555491 431.74944 
L 223.076945 433.20096 
L 222.711709 432.29376 
L 223.990036 434.2896 
L 229.103345 439.91424 
L 229.468582 439.91424 
L 223.076945 435.74112 
L 221.798618 429.20928 
L 219.789818 421.04448 
L 219.789818 424.3104 
L 226.181455 425.58048 
L 230.564291 433.20096 
L 230.016436 436.82976 
L 217.5984 431.02368 
L 207.189164 420.50016 
L 209.745818 416.87136 
L 216.685309 416.87136 
L 223.442182 425.94336 
L 237.321164 437.19264 
L 236.590691 443.18016 
L 227.825018 444.08736 
L 217.050545 436.64832 
L 207.5544 425.03616 
L 205.728218 421.5888 
L 214.493891 425.58048 
L 222.529091 417.77856 
L 228.555491 409.97664 
L 230.381673 409.61376 
L 235.129745 407.0736 
L 238.782109 407.25504 
L 238.782109 403.08192 
L 244.625891 407.43648 
L 247.182545 409.61376 
L 244.260655 413.96832 
L 242.069236 407.61792 
L 240.608291 405.80352 
L 238.964727 403.4448 
L 231.842618 397.45728 
L 234.764509 399.27168 
L 252.843709 406.71072 
L 259.235345 421.95168 
L 247.7304 420.31872 
L 240.790909 422.13312 
L 245.173745 419.23008 
L 243.530182 415.60128 
L 241.338764 414.87552 
L 251.565382 419.7744 
L 247.547782 413.78688 
L 243.895418 412.5168 
L 252.295855 416.50848 
L 259.7832 423.58464 
L 264.348655 426.66912 
L 262.157236 418.8672 
L 251.930618 414.14976 
L 255.7656 415.60128 
L 259.052727 411.06528 
L 257.7744 405.98496 
L 248.460873 398.0016 
L 247.913018 400.90464 
L 256.678691 407.43648 
L 255.582982 408.888 
L 244.991127 411.79104 
L 251.382764 410.7024 
L 263.983418 425.58048 
L 268.731491 431.74944 
L 250.469673 429.20928 
L 241.156145 423.94752 
L 235.129745 416.68992 
L 232.938327 405.62208 
L 234.764509 399.816 
L 242.799709 403.80768 
L 252.661091 410.33952 
L 247.7304 412.69824 
L 246.086836 419.04864 
L 246.086836 422.13312 
L 236.773309 421.5888 
L 232.390473 418.32288 
L 242.251855 414.87552 
L 249.373964 413.96832 
L 258.139636 420.50016 
L 259.052727 425.03616 
L 258.139636 424.85472 
L 250.834909 424.3104 
L 251.565382 426.85056 
L 244.078036 421.95168 
L 241.156145 415.60128 
L 240.790909 409.97664 
L 241.338764 407.61792 
L 244.808509 410.7024 
L 245.173745 415.60128 
L 251.930618 414.51264 
L 255.582982 408.70656 
L 257.409164 406.89216 
L 253.026327 412.15392 
L 254.669891 415.2384 
L 247.7304 409.97664 
L 251.382764 408.34368 
L 262.522473 410.88384 
L 251.930618 415.78272 
L 243.530182 412.33536 
L 248.095636 412.87968 
L 256.313455 422.85888 
L 256.313455 427.032 
L 246.999927 423.94752 
L 242.982327 415.05696 
L 245.356364 412.15392 
L 247.547782 413.60544 
L 251.930618 417.59712 
L 249.556582 419.41152 
L 239.877818 419.23008 
L 238.599491 419.04864 
L 238.234255 422.85888 
L 230.746909 416.68992 
L 228.190255 409.7952 
L 233.120945 409.61376 
L 242.982327 415.60128 
L 240.973527 415.2384 
L 239.877818 418.50432 
L 247.547782 420.50016 
L 253.026327 417.23424 
L 256.496073 420.6816 
L 259.600582 424.3104 
L 254.487273 420.86304 
L 238.599491 409.97664 
L 230.564291 408.34368 
L 232.755709 407.25504 
L 237.138545 399.45312 
L 246.817309 404.352 
L 262.522473 416.87136 
L 266.357455 420.50016 
L 267.635782 432.29376 
L 260.696291 429.20928 
L 247.547782 421.77024 
L 241.704 414.69408 
L 244.078036 407.61792 
L 248.643491 405.98496 
L 256.496073 413.06112 
L 259.052727 421.5888 
L 258.687491 435.1968 
L 251.200145 429.93504 
L 249.008727 433.01952 
L 251.565382 427.57632 
L 241.521382 421.95168 
L 236.773309 413.96832 
L 232.390473 403.98912 
L 240.973527 404.17056 
L 245.538982 405.07776 
L 246.452073 411.79104 
L 241.521382 411.24672 
L 241.338764 418.68576 
L 260.696291 424.85472 
L 250.287055 422.496 
L 230.016436 415.60128 
L 231.294764 412.33536 
L 242.617091 405.98496 
L 255.7656 417.77856 
L 251.930618 418.8672 
L 241.521382 419.59296 
L 244.808509 416.1456 
L 247.547782 410.7024 
L 246.269455 413.78688 
L 245.356364 421.95168 
L 250.469673 425.39904 
L 247.365164 429.93504 
L 232.390473 414.87552 
L 222.711709 408.888 
L 225.6336 390.56256 
L 240.973527 393.82848 
L 256.861309 403.4448 
L 260.513673 414.3312 
L 257.043927 419.7744 
L 257.043927 428.12064 
L 244.078036 420.50016 
L 243.347564 417.23424 
L 240.425673 409.97664 
L 231.112145 406.52928 
L 237.6864 404.17056 
L 242.251855 405.80352 
L 240.060436 407.43648 
L 237.6864 406.52928 
L 248.278255 408.16224 
L 255.582982 409.7952 
L 258.504873 409.7952 
L 266.174836 419.59296 
L 265.8096 419.41152 
L 261.426764 418.8672 
L 262.339855 429.20928 
L 253.208945 428.8464 
L 247.182545 426.48768 
L 242.982327 423.58464 
L 239.512582 419.41152 
L 245.904218 415.41984 
L 247.365164 408.16224 
L 246.086836 410.33952 
L 249.556582 412.69824 
L 249.7392 411.24672 
L 253.208945 413.60544 
L 254.122036 411.97248 
L 252.661091 411.79104 
L 255.582982 407.79936 
L 257.7744 428.66496 
L 250.652291 448.62336 
L 238.964727 450.43776 
L 213.398182 439.36992 
L 211.389382 435.55968 
L 216.685309 434.65248 
L 222.894327 435.1968 
L 220.520291 429.57216 
L 215.406982 423.76608 
L 216.137455 423.04032 
L 214.128655 424.3104 
L 226.364073 431.20512 
L 230.016436 434.2896 
L 220.885527 431.74944 
L 219.424582 427.21344 
L 228.372873 431.20512 
L 226.364073 432.4752 
L 223.076945 433.20096 
L 225.268364 434.65248 
L 222.894327 437.73696 
L 220.885527 436.46688 
L 220.885527 431.568 
L 212.667709 417.0528 
L 219.424582 416.32704 
L 225.268364 418.68576 
L 229.6512 419.7744 
L 231.477382 426.30624 
L 230.929527 425.39904 
L 232.207855 433.01952 
L 233.486182 434.65248 
L 229.833818 437.37408 
L 230.564291 439.36992 
L 221.250764 432.4752 
L 215.954836 430.11648 
L 224.720509 425.94336 
L 233.303564 429.93504 
L 230.929527 432.83808 
L 229.468582 434.83392 
L 229.103345 436.46688 
L 225.085745 429.39072 
L 217.781018 424.67328 
L 219.424582 421.5888 
L 226.364073 422.67744 
L 225.450982 427.57632 
L 224.172655 423.04032 
L 225.085745 428.12064 
L 222.163855 421.40736 
L 222.346473 421.5888 
L 225.816218 420.50016 
L 229.833818 425.39904 
L 236.042836 432.65664 
L 242.069236 438.64416 
L 240.973527 438.28128 
L 226.911927 429.7536 
L 220.337673 423.04032 
L 238.416873 420.86304 
L 244.260655 417.41568 
L 242.982327 423.94752 
L 239.512582 426.48768 
L 247.913018 438.28128 
L 256.130836 441.36576 
L 245.7216 440.27712 
L 230.746909 434.83392 
L 227.277164 423.94752 
L 227.6424 415.41984 
L 227.459782 415.96416 
L 228.190255 415.96416 
L 227.825018 420.6816 
L 239.329964 432.65664 
L 242.982327 433.74528 
L 232.207855 435.55968 
L 225.6336 433.20096 
L 226.364073 430.47936 
L 236.042836 428.8464 
L 239.877818 423.58464 
L 243.7128 430.11648 
L 249.008727 426.66912 
L 243.895418 422.85888 
L 236.955927 420.50016 
L 235.312364 422.31456 
L 242.617091 417.0528 
L 242.982327 417.41568 
L 252.843709 414.3312 
L 263.8008 422.13312 
L 264.531273 430.84224 
L 261.061527 432.4752 
L 250.287055 424.67328 
L 237.869018 419.59296 
L 240.060436 406.34784 
L 252.295855 408.888 
L 267.453164 413.96832 
L 272.931709 419.59296 
L 267.453164 421.04448 
L 261.974618 426.30624 
L 258.322255 426.85056 
L 248.826109 424.3104 
L 250.469673 421.04448 
L 253.026327 417.77856 
L 259.235345 419.04864 
L 256.678691 418.8672 
L 256.861309 419.95584 
L 256.313455 414.87552 
L 257.957018 413.96832 
L 254.122036 404.53344 
L 256.861309 404.53344 
L 264.348655 401.6304 
L 275.123127 410.7024 
L 275.305745 415.78272 
L 272.749091 415.96416 
L 269.644582 424.3104 
L 270.922909 426.66912 
L 266.905309 424.49184 
L 260.878909 418.32288 
L 255.7656 415.78272 
L 264.531273 418.14144 
L 261.426764 402.90048 
L 262.705091 394.19136 
L 274.940509 395.09856 
L 284.984509 404.352 
L 280.419055 407.79936 
L 287.723782 406.89216 
L 289.002109 405.62208 
L 278.958109 402.5376 
L 270.740291 401.81184 
L 280.053818 400.7232 
L 289.184727 408.888 
L 292.837091 413.78688 
L 281.697382 411.24672 
L 270.375055 401.44896 
L 270.009818 398.72736 
L 277.497164 399.45312 
L 271.653382 392.5584 
L 270.740291 390.92544 
L 284.801891 396.73152 
L 296.124218 399.09024 
L 301.968 412.15392 
L 308.359636 420.13728 
L 290.828291 415.05696 
L 257.226545 370.7856 
L 243.530182 323.06688 
L 259.235345 314.35776 
L 306.716073 348.83136 
L 347.987782 403.80768 
L 346.526836 431.568 
L 297.9504 425.58048 
L 255.948218 394.55424 
L 233.851418 348.64992 
L 238.051636 324.15552 
L 270.009818 324.88128 
L 301.237527 350.8272 
L 320.595055 383.30496 
L 330.639055 420.50016 
L 320.229818 427.75776 
L 281.332145 401.99328 
L 241.156145 374.4144 
L 237.503782 351.55296 
L 268.366255 350.46432 
L 300.324436 366.2496 
L 316.760073 393.28416 
L 319.864582 417.59712 
L 301.420145 416.32704 
L 269.8272 396.73152 
L 248.643491 371.87424 
L 246.817309 360.44352 
L 257.957018 349.55712 
L 274.210036 344.4768 
L 284.984509 353.00448 
L 293.750182 373.87008 
L 303.794182 390.19968 
L 302.698473 400.54176 
L 297.037309 400.54176 
L 285.167127 390.92544 
L 272.931709 376.59168 
L 269.8272 369.33408 
L 278.045018 368.24544 
L 286.262836 370.05984 
L 286.262836 369.51552 
L 295.028509 376.77312 
L 303.063709 380.03904 
L 289.367345 385.48224 
L 290.828291 392.01408 
L 285.8976 379.31328 
L 272.018618 352.46016 
L 257.043927 334.86048 
L 269.279345 343.38816 
L 301.968 350.10144 
L 334.474036 378.40608 
L 332.465236 393.82848 
L 299.411345 396.36864 
L 283.340945 381.85344 
L 272.566473 351.37152 
L 270.557673 334.67904 
L 278.410255 336.67488 
L 307.629164 356.81472 
L 323.334327 368.24544 
L 316.942691 377.136 
L 301.054909 377.31744 
L 283.340945 370.24128 
L 276.218836 350.64576 
L 282.245236 338.30784 
L 297.402545 350.46432 
L 304.707273 368.42688 
L 316.760073 376.95456 
L 316.577455 381.672 
L 295.9416 380.94624 
L 279.8712 370.05984 
L 269.279345 350.8272 
L 275.670982 343.20672 
L 288.819491 345.384 
L 302.515855 365.70528 
L 310.733673 376.41024 
L 298.863491 373.68864 
L 283.523564 357.72192 
L 267.635782 335.76768 
L 262.887709 321.7968 
L 273.479564 323.97408 
L 297.9504 341.57376 
L 325.160509 372.78144 
L 341.048291 403.26336 
L 312.742473 387.29664 
L 273.114327 360.44352 
L 255.400364 336.67488 
L 261.609382 319.25664 
L 282.245236 326.15136 
L 314.203418 352.27872 
L 338.309018 391.83264 
L 333.195709 409.06944 
L 309.455345 405.07776 
L 280.053818 377.86176 
L 267.635782 349.0128 
L 266.174836 326.15136 
L 276.218836 327.60288 
L 295.9416 342.84384 
L 321.508145 370.7856 
L 348.900873 406.34784 
L 347.987782 420.86304 
L 316.577455 408.888 
L 273.662182 376.95456 
L 248.643491 341.7552 
L 242.617091 313.26912 
L 254.852509 301.65696 
L 284.254036 317.80512 
L 320.229818 359.17344 
L 351.274909 396.36864 
L 361.318909 415.60128 
L 334.839273 419.59296 
L 301.420145 407.61792 
L 272.749091 377.136 
L 258.322255 337.03776 
L 257.957018 318.53088 
L 274.575273 320.34528 
L 313.838182 345.384 
L 351.274909 394.91712 
L 365.884364 416.87136 
L 347.805164 414.3312 
L 316.942691 403.26336 
L 283.8888 385.3008 
L 259.600582 345.56544 
L 256.313455 317.80512 
L 262.339855 305.10432 
L 268.548873 310.18464 
L 293.567564 336.49344 
L 328.812873 368.9712 
L 353.466327 400.36032 
L 353.648945 416.68992 
L 322.056 409.7952 
L 279.140727 369.69696 
L 244.808509 319.43808 
L 233.303564 299.47968 
L 233.303564 299.47968 
" clip-path="url(#pe45ff0173b)" style="fill: none; stroke-dasharray: 5.55,2.4; stroke-dashoffset: 0; stroke: #008000; stroke-opacity: 0.7; stroke-width: 1.5"/>
   </g>
   <g id="line2d_26">
    <path d="M 81 77.76 
L 583.2 576.72 
" clip-path="url(#pe45ff0173b)" style="fill: none; stroke: #000000; stroke-width: 1.5; stroke-linecap: square"/>
   </g>
   <g id="line2d_27">
    <path d="M 81 554.04 
L 649 554.04 
" clip-path="url(#pe45ff0173b)" style="fill: none; stroke-dasharray: 9.6,2.4,1.5,2.4; stroke-dashoffset: 0; stroke: #000000; stroke-width: 1.5"/>
   </g>
   <g id="line2d_28">
    <path d="M 103.827273 576.72 
L 103.827273 -1 
" clip-path="url(#pe45ff0173b)" style="fill: none; stroke-dasharray: 9.6,2.4,1.5,2.4; stroke-dashoffset: 0; stroke: #000000; stroke-width: 1.5"/>
   </g>
   <g id="line2d_29">
    <path d="M 201.893236 469.85184 
L 205.180364 439.7328 
L 215.954836 407.25504 
L 237.6864 419.7744 
L 256.678691 434.83392 
L 257.591782 450.25632 
L 247.182545 460.05408 
L 229.103345 457.15104 
L 219.424582 446.0832 
L 209.380582 431.568 
L 204.267273 415.2384 
L 203.5368 403.08192 
L 206.641309 393.64704 
L 216.502691 392.92128 
L 235.312364 406.89216 
L 248.643491 413.78688 
L 254.487273 421.40736 
L 253.7568 431.93088 
L 248.826109 428.8464 
L 239.512582 426.30624 
L 243.895418 425.58048 
L 248.278255 422.31456 
L 243.895418 423.76608 
L 235.312364 422.67744 
L 233.851418 419.04864 
L 234.399273 415.78272 
L 223.990036 405.2592 
L 231.842618 401.81184 
L 246.269455 403.08192 
L 255.7656 411.06528 
L 258.870109 416.32704 
L 251.748 414.69408 
L 248.278255 414.69408 
L 252.843709 418.14144 
L 250.652291 420.6816 
L 246.817309 421.04448 
L 243.895418 418.50432 
L 244.078036 416.32704 
L 244.991127 415.78272 
L 240.243055 409.7952 
L 239.512582 413.424 
L 246.086836 418.32288 
L 255.948218 421.5888 
L 262.522473 425.76192 
L 250.287055 417.23424 
L 244.443273 417.59712 
L 243.164945 413.96832 
L 242.251855 419.04864 
L 245.7216 421.40736 
L 247.913018 420.6816 
L 246.999927 419.7744 
L 239.877818 412.15392 
L 244.443273 410.52096 
L 252.295855 413.60544 
L 252.661091 413.06112 
L 256.678691 423.58464 
L 251.930618 425.58048 
L 245.904218 426.66912 
L 243.7128 426.30624 
L 238.234255 417.41568 
L 228.555491 403.80768 
L 227.6424 402.71904 
L 239.6952 407.79936 
L 250.652291 417.59712 
L 253.208945 421.77024 
L 245.356364 420.31872 
L 232.390473 419.04864 
L 230.381673 415.96416 
L 237.6864 414.14976 
L 242.617091 408.70656 
L 241.886618 404.89632 
L 241.704 406.1664 
L 244.078036 411.06528 
L 252.478473 414.51264 
L 251.200145 409.97664 
L 245.7216 406.71072 
L 247.7304 410.33952 
L 254.304655 415.78272 
L 260.148436 418.50432 
L 254.487273 419.95584 
L 246.086836 414.87552 
L 240.790909 413.24256 
L 246.634691 407.79936 
L 246.999927 408.52512 
L 244.078036 404.17056 
L 248.278255 404.352 
L 252.478473 411.06528 
L 253.208945 411.24672 
L 258.322255 413.06112 
L 266.540073 416.1456 
L 259.965818 419.23008 
L 257.043927 430.6608 
L 248.278255 434.47104 
L 230.746909 435.1968 
L 224.903127 433.20096 
L 220.885527 426.48768 
L 221.068145 422.67744 
L 229.468582 425.03616 
L 227.277164 426.1248 
L 223.990036 428.30208 
L 224.172655 429.02784 
L 224.720509 429.39072 
L 231.112145 430.47936 
L 227.459782 429.93504 
L 225.085745 432.29376 
L 226.181455 428.12064 
L 230.381673 428.66496 
L 232.207855 431.02368 
L 227.459782 430.84224 
L 229.468582 429.02784 
L 229.833818 431.20512 
L 225.450982 428.30208 
L 227.094545 426.48768 
L 238.234255 433.01952 
L 243.164945 437.9184 
L 227.459782 434.10816 
L 227.825018 436.82976 
L 232.025236 434.10816 
L 234.034036 434.65248 
L 235.494982 434.47104 
L 235.312364 436.64832 
L 235.129745 436.46688 
L 234.764509 443.72448 
L 233.6688 438.64416 
L 229.285964 435.37824 
L 227.825018 432.4752 
L 225.268364 429.02784 
L 221.068145 430.11648 
L 220.155055 427.9392 
L 219.241964 430.29792 
L 218.511491 436.28544 
L 213.5808 431.02368 
L 215.041745 431.02368 
L 225.450982 439.00704 
L 228.738109 434.47104 
L 226.364073 429.39072 
L 235.494982 435.92256 
L 238.234255 440.27712 
L 233.486182 430.84224 
L 232.207855 429.39072 
L 229.468582 425.39904 
L 230.564291 426.66912 
L 234.947127 426.66912 
L 228.738109 424.67328 
L 231.66 426.30624 
L 240.608291 429.39072 
L 246.452073 431.568 
L 246.634691 435.92256 
L 244.625891 437.73696 
L 239.147345 437.19264 
L 228.190255 421.04448 
L 215.772218 408.70656 
L 219.972436 405.62208 
L 231.842618 414.51264 
L 244.808509 429.20928 
L 248.278255 441.00288 
L 237.138545 444.2688 
L 215.406982 430.11648 
L 224.720509 431.93088 
L 232.207855 429.02784 
L 229.103345 430.11648 
L 225.085745 428.30208 
L 232.938327 425.76192 
L 232.938327 423.94752 
L 229.103345 422.496 
L 235.129745 423.76608 
L 239.877818 424.12896 
L 238.234255 425.58048 
L 236.590691 427.21344 
L 237.503782 418.50432 
L 239.329964 417.77856 
L 246.817309 423.76608 
L 252.295855 424.67328 
L 244.625891 424.12896 
L 244.808509 426.48768 
L 243.7128 420.31872 
L 236.042836 414.69408 
L 243.164945 416.32704 
L 255.217745 414.14976 
L 257.043927 416.50848 
L 263.983418 417.0528 
L 264.713891 423.4032 
L 277.314545 430.47936 
L 271.288145 430.11648 
L 251.017527 425.58048 
L 240.973527 411.06528 
L 251.017527 409.61376 
L 255.400364 408.16224 
L 263.435564 413.24256 
L 274.575273 420.6816 
L 278.227636 427.032 
L 269.644582 429.02784 
L 259.235345 418.8672 
L 255.400364 409.61376 
L 259.965818 412.5168 
L 263.435564 411.06528 
L 260.878909 407.79936 
L 259.600582 406.52928 
L 265.8096 409.43232 
L 271.470764 417.23424 
L 278.045018 430.11648 
L 273.296945 424.49184 
L 258.322255 416.1456 
L 253.026327 410.7024 
L 259.965818 401.81184 
L 268.001018 392.5584 
L 280.601673 395.09856 
L 290.280436 402.35616 
L 298.498255 415.96416 
L 303.794182 420.86304 
L 282.793091 414.14976 
L 269.279345 409.61376 
L 268.731491 402.90048 
L 263.8008 394.73568 
L 266.905309 393.64704 
L 277.497164 399.09024 
L 293.750182 408.16224 
L 289.367345 411.06528 
L 274.575273 402.90048 
L 267.087927 398.54592 
L 275.305745 391.28832 
L 277.8624 394.19136 
L 289.9152 398.72736 
L 294.663273 402.35616 
L 298.498255 407.9808 
L 286.262836 407.61792 
L 276.218836 399.63456 
L 273.114327 363.89088 
L 271.288145 345.74688 
L 287.175927 344.83968 
L 319.864582 376.41024 
L 341.230909 410.52096 
L 324.612655 411.97248 
L 289.002109 401.6304 
L 264.713891 380.94624 
L 255.400364 351.55296 
L 265.079127 339.39648 
L 292.289236 355.72608 
L 318.403636 387.1152 
L 324.795273 410.33952 
L 305.437745 408.52512 
L 274.940509 395.46144 
L 254.852509 378.0432 
L 263.070327 361.16928 
L 271.653382 355.18176 
L 274.940509 354.09312 
L 289.367345 366.43104 
L 305.9856 383.66784 
L 309.090109 392.19552 
L 302.515855 395.09856 
L 295.028509 404.17056 
L 297.9504 408.888 
L 279.688582 396.73152 
L 260.878909 375.68448 
L 253.939418 352.82304 
L 267.087927 352.82304 
L 284.071418 358.62912 
L 286.262836 364.79808 
L 294.480655 376.95456 
L 302.150618 385.11936 
L 297.767782 389.47392 
L 298.863491 396.73152 
L 292.654473 392.5584 
L 273.479564 382.76064 
L 264.348655 370.05984 
L 262.522473 353.5488 
L 269.096727 351.91584 
L 284.436655 361.16928 
L 293.9328 372.05568 
L 303.9768 384.03072 
L 294.115418 378.76896 
L 273.662182 359.8992 
L 265.992218 349.19424 
L 274.027418 347.92416 
L 290.097818 349.19424 
L 299.593964 354.09312 
L 303.9768 374.59584 
L 304.889891 381.85344 
L 302.881091 385.66368 
L 287.541164 376.77312 
L 270.009818 362.80224 
L 264.896509 353.18592 
L 283.706182 352.46016 
L 291.924 356.2704 
L 284.801891 359.35488 
L 293.750182 361.7136 
L 306.898691 371.6928 
L 312.012 380.94624 
L 299.776582 381.12768 
L 282.610473 375.3216 
L 276.949309 358.0848 
L 268.548873 340.848 
L 275.123127 341.7552 
L 297.219927 357.1776 
L 310.368436 374.4144 
L 313.838182 388.20384 
L 293.750182 383.12352 
L 272.749091 369.15264 
L 265.444364 351.00864 
L 269.279345 331.95744 
L 278.410255 336.49344 
L 291.193527 345.384 
L 315.299127 371.6928 
L 307.446545 375.68448 
L 290.645673 369.51552 
L 272.749091 348.1056 
L 267.453164 333.22752 
L 278.775491 339.9408 
L 305.437745 357.1776 
L 323.334327 379.67616 
L 331.917382 398.54592 
L 309.637964 391.46976 
L 286.810691 380.58336 
L 274.575273 366.79392 
L 284.619273 356.2704 
L 298.863491 363.89088 
L 311.464145 378.0432 
L 324.247418 394.00992 
L 332.647855 404.89632 
L 304.524655 395.64288 
L 282.610473 377.86176 
L 274.392655 360.26208 
L 267.270545 346.10976 
L 278.045018 339.57792 
L 294.663273 352.6416 
L 318.951491 370.7856 
L 326.0736 390.19968 
L 324.795273 395.28 
L 315.116509 395.46144 
L 293.9328 372.23712 
L 274.210036 354.09312 
L 280.053818 347.37984 
L 295.9416 356.45184 
L 311.646764 367.1568 
L 331.917382 388.0224 
L 328.995491 399.45312 
L 317.307927 403.08192 
L 308.907491 393.64704 
L 289.184727 369.15264 
L 275.123127 345.74688 
L 257.591782 326.15136 
L 257.957018 318.168 
L 282.245236 324.88128 
L 308.542255 348.28704 
L 325.708364 374.23296 
L 341.778764 397.0944 
L 337.761164 405.44064 
L 308.177018 388.38528 
L 281.149527 365.70528 
L 265.444364 355.18176 
L 265.444364 347.74272 
L 285.349745 344.11392 
L 303.611564 355.54464 
L 313.838182 379.31328 
L 315.846982 385.84512 
L 323.516945 395.64288 
L 312.742473 392.5584 
L 296.306836 374.4144 
L 275.305745 352.82304 
L 269.096727 348.64992 
L 285.8976 353.5488 
L 310.368436 352.82304 
L 326.438836 371.32992 
L 328.0824 386.208 
L 322.786473 390.56256 
L 307.811782 374.59584 
L 278.592873 350.10144 
L 253.391564 327.42144 
L 249.008727 310.72896 
L 260.148436 315.26496 
L 297.767782 344.4768 
L 338.309018 384.93792 
L 346.526836 398.36448 
L 326.986691 398.9088 
L 300.872291 390.19968 
L 272.566473 376.2288 
L 257.7744 350.28288 
L 252.661091 320.52672 
L 257.591782 307.82592 
L 270.375055 321.07104 
L 307.263927 354.456 
L 342.691855 384.75648 
L 360.2232 406.71072 
L 340.865673 413.424 
L 303.246327 403.98912 
L 265.626982 385.66368 
L 245.356364 349.92 
L 234.581891 315.4464 
L 233.120945 293.49216 
L 258.870109 301.65696 
L 304.159418 340.48512 
L 352.370618 391.6512 
L 374.2848 429.7536 
L 367.527927 447.8976 
L 318.586255 429.39072 
L 257.591782 383.66784 
L 211.206764 325.06272 
L 206.641309 278.97696 
L 229.103345 261.9216 
L 268.183636 292.58496 
L 318.0384 348.1056 
L 357.849164 399.27168 
L 362.232 425.03616 
L 341.048291 427.39488 
L 293.567564 406.52928 
L 251.930618 369.33408 
L 232.390473 338.30784 
L 245.356364 319.80096 
L 281.88 328.1472 
L 314.386036 360.08064 
L 336.1176 401.6304 
L 340.865673 425.94336 
L 316.942691 415.60128 
L 278.775491 383.30496 
L 234.034036 348.46848 
L 236.225455 320.8896 
L 250.469673 302.7456 
L 267.087927 314.5392 
L 286.445455 339.21504 
L 318.403636 379.49472 
L 338.856873 403.08192 
L 326.0736 398.18304 
L 285.714982 376.59168 
L 239.877818 350.8272 
L 232.207855 313.99488 
L 257.957018 305.28576 
L 293.384945 325.60704 
L 322.786473 368.24544 
L 337.030691 407.61792 
L 335.752364 427.9392 
L 305.802982 404.71488 
L 263.8008 372.78144 
L 233.6688 334.67904 
L 245.173745 307.2816 
L 275.8536 313.08768 
L 305.802982 344.83968 
L 324.430036 383.66784 
L 338.856873 409.43232 
L 319.499345 396.73152 
L 284.436655 379.31328 
L 248.460873 347.56128 
L 240.973527 325.06272 
L 255.7656 312.54336 
L 267.635782 315.26496 
L 272.931709 329.78016 
L 283.340945 341.02944 
L 305.072509 360.62496 
L 324.0648 390.19968 
L 327.717164 406.1664 
L 324.612655 405.98496 
L 291.376145 396.1872 
L 248.826109 378.58752 
L 247.547782 352.6416 
L 261.426764 339.39648 
L 278.958109 342.48096 
L 301.420145 370.60416 
L 322.603855 395.64288 
L 315.664364 409.06944 
L 285.532364 410.15808 
L 266.540073 397.82016 
L 249.921818 370.7856 
L 242.069236 352.46016 
L 268.548873 359.17344 
L 305.255127 375.68448 
L 311.829382 395.09856 
L 310.551055 419.23008 
L 295.758982 428.12064 
L 274.392655 413.424 
L 252.113236 383.4864 
L 241.521382 362.07648 
L 241.156145 343.75104 
L 266.722691 343.75104 
L 288.636873 353.18592 
L 311.464145 384.93792 
L 320.229818 413.424 
L 309.820582 429.20928 
L 289.549964 418.32288 
L 253.391564 389.65536 
L 238.234255 369.33408 
L 245.173745 362.98368 
L 256.496073 353.91168 
L 266.540073 356.81472 
L 284.801891 373.5072 
L 292.837091 388.9296 
L 293.384945 405.80352 
L 284.619273 403.08192 
L 276.218836 391.28832 
L 248.095636 372.96288 
L 232.207855 364.25376 
L 241.886618 359.35488 
L 258.504873 356.99616 
L 267.270545 363.70944 
L 276.584073 390.92544 
L 283.340945 420.31872 
L 278.227636 436.104 
L 255.400364 430.84224 
L 231.112145 412.5168 
L 225.085745 395.46144 
L 231.842618 378.9504 
L 248.460873 378.40608 
L 259.7832 378.58752 
L 265.992218 383.66784 
L 277.497164 391.28832 
L 303.9768 406.1664 
L 305.802982 420.31872 
L 298.498255 430.47936 
L 275.488364 418.50432 
L 257.043927 401.99328 
L 245.538982 382.21632 
L 252.295855 376.2288 
L 275.488364 388.74816 
L 298.863491 403.26336 
L 304.889891 421.40736 
L 292.471855 418.8672 
L 267.8184 410.33952 
L 267.8184 405.2592 
L 284.436655 410.88384 
L 286.810691 421.5888 
L 282.427855 425.76192 
L 277.131927 429.02784 
L 261.426764 415.2384 
L 248.643491 409.7952 
L 262.157236 409.7952 
L 276.401455 415.41984 
L 263.252945 416.87136 
L 252.113236 415.78272 
L 253.391564 415.05696 
L 260.148436 410.88384 
L 260.331055 411.97248 
L 257.7744 412.33536 
L 269.644582 421.04448 
L 280.966909 433.01952 
L 275.488364 438.46272 
L 258.322255 435.1968 
L 240.060436 426.85056 
L 227.094545 412.69824 
L 227.094545 406.71072 
L 235.129745 411.24672 
L 241.704 409.97664 
L 253.208945 419.41152 
L 260.148436 431.02368 
L 252.113236 433.3824 
L 240.060436 422.31456 
L 233.303564 409.43232 
L 239.6952 405.2592 
L 253.939418 406.34784 
L 266.357455 416.32704 
L 273.479564 433.3824 
L 260.878909 431.74944 
L 249.191345 419.04864 
L 252.113236 413.424 
L 251.565382 417.59712 
L 257.043927 427.21344 
L 258.870109 431.02368 
L 253.026327 429.7536 
L 241.156145 426.1248 
L 238.416873 421.22592 
L 241.886618 419.7744 
L 249.373964 424.3104 
L 247.182545 421.04448 
L 247.7304 425.2176 
L 247.913018 433.01952 
L 252.843709 437.0112 
L 247.913018 440.09568 
L 243.164945 438.09984 
L 232.025236 436.104 
L 230.564291 431.74944 
L 237.6864 434.65248 
L 232.755709 433.92672 
L 222.894327 426.85056 
L 218.694109 417.59712 
L 227.459782 416.50848 
L 232.938327 424.12896 
L 235.860218 420.86304 
L 230.016436 424.12896 
L 240.243055 434.65248 
L 246.817309 432.83808 
L 235.860218 431.74944 
L 222.529091 427.032 
L 216.137455 423.76608 
L 207.737018 415.05696 
L 200.249673 406.1664 
L 205.5456 407.61792 
L 220.155055 417.0528 
L 229.103345 421.40736 
L 224.720509 423.58464 
L 224.720509 428.8464 
L 235.860218 432.4752 
L 241.886618 438.8256 
L 221.798618 444.99456 
L 212.119855 431.20512 
L 211.754618 419.7744 
L 217.233164 415.78272 
L 219.424582 415.96416 
L 218.328873 421.40736 
L 220.337673 429.39072 
L 226.364073 433.92672 
L 224.720509 434.10816 
L 218.876727 429.93504 
L 224.903127 431.74944 
L 233.120945 436.46688 
L 225.085745 431.93088 
L 220.520291 433.92672 
L 224.537891 429.93504 
L 217.5984 431.568 
L 211.572 423.4032 
L 213.215564 421.22592 
L 220.702909 425.76192 
L 222.529091 431.02368 
L 215.5896 431.02368 
L 206.641309 424.49184 
L 207.189164 422.31456 
L 207.5544 416.32704 
L 213.5808 418.14144 
L 215.041745 422.13312 
L 218.511491 431.02368 
L 223.807418 432.11232 
L 221.068145 429.93504 
L 216.685309 425.76192 
L 215.954836 428.48352 
L 211.754618 425.58048 
L 209.380582 430.29792 
L 216.502691 429.57216 
L 216.685309 432.29376 
L 211.389382 422.67744 
L 211.572 427.39488 
L 216.502691 425.58048 
L 212.850327 424.67328 
L 218.694109 432.11232 
L 216.320073 424.67328 
L 219.424582 418.14144 
L 228.738109 417.0528 
L 233.303564 411.79104 
L 219.424582 400.17888 
L 220.885527 395.64288 
L 232.207855 400.90464 
L 240.425673 412.33536 
L 246.999927 414.14976 
L 249.191345 419.41152 
L 253.026327 419.23008 
L 246.999927 420.6816 
L 240.425673 418.8672 
L 241.338764 419.59296 
L 245.356364 421.22592 
L 243.164945 414.69408 
L 235.6776 413.06112 
L 237.321164 409.7952 
L 243.7128 410.33952 
L 244.078036 407.43648 
L 242.617091 408.70656 
L 237.869018 411.79104 
L 234.216655 411.06528 
L 231.477382 402.35616 
L 233.6688 403.98912 
L 244.260655 410.33952 
L 257.226545 423.58464 
L 262.157236 433.01952 
L 256.861309 432.65664 
L 248.460873 426.66912 
L 236.590691 419.95584 
L 228.920727 411.42816 
L 233.851418 402.90048 
L 240.790909 396.1872 
L 248.643491 409.25088 
L 255.217745 418.32288 
L 258.322255 422.31456 
L 249.008727 421.77024 
L 245.904218 420.31872 
L 244.260655 416.50848 
L 244.260655 419.7744 
L 255.948218 421.77024 
L 248.460873 419.04864 
L 239.329964 416.50848 
L 238.234255 407.0736 
L 241.156145 400.54176 
L 244.443273 409.61376 
L 251.565382 416.50848 
L 254.487273 417.59712 
L 245.356364 415.96416 
L 243.530182 413.60544 
L 250.834909 415.96416 
L 250.652291 417.41568 
L 250.104436 416.68992 
L 246.269455 410.33952 
L 249.191345 413.24256 
L 253.208945 411.6096 
L 260.513673 417.0528 
L 270.557673 427.9392 
L 264.713891 433.3824 
L 233.6688 416.68992 
L 235.312364 412.5168 
L 236.955927 409.61376 
L 242.799709 409.97664 
L 243.895418 419.7744 
L 244.625891 418.32288 
L 238.599491 419.95584 
L 242.069236 414.14976 
L 241.156145 410.52096 
L 245.538982 413.424 
L 253.391564 418.8672 
L 254.852509 413.06112 
L 247.182545 415.2384 
L 249.7392 417.23424 
L 253.7568 419.59296 
L 251.017527 420.31872 
L 232.938327 415.05696 
L 234.581891 411.42816 
L 239.147345 410.88384 
L 231.842618 406.34784 
L 238.782109 411.6096 
L 248.278255 412.33536 
L 248.095636 416.68992 
L 248.643491 412.5168 
L 250.834909 412.5168 
L 250.469673 418.14144 
L 254.852509 421.77024 
L 247.913018 417.23424 
L 241.886618 416.68992 
L 234.399273 412.33536 
L 240.790909 412.87968 
L 248.460873 408.34368 
L 255.582982 409.97664 
L 253.208945 412.69824 
L 250.287055 414.51264 
L 249.373964 419.23008 
L 254.304655 422.85888 
L 253.939418 428.12064 
L 245.7216 420.86304 
L 246.452073 417.23424 
L 245.904218 413.06112 
L 241.704 402.90048 
L 244.443273 400.7232 
L 247.182545 396.73152 
L 254.669891 405.44064 
L 277.314545 420.86304 
L 279.688582 426.1248 
L 268.001018 427.39488 
L 254.852509 421.04448 
L 234.581891 409.7952 
L 235.494982 403.80768 
L 252.295855 407.25504 
L 242.982327 413.24256 
L 240.790909 411.24672 
L 239.877818 409.25088 
L 240.060436 416.50848 
L 246.634691 417.59712 
L 247.182545 425.58048 
L 255.035127 431.568 
L 242.982327 423.4032 
L 233.120945 422.13312 
L 242.617091 414.69408 
L 244.625891 422.496 
L 242.434473 420.50016 
L 240.243055 423.94752 
L 239.512582 417.0528 
L 240.060436 415.96416 
L 240.973527 413.60544 
L 234.947127 409.06944 
L 229.6512 401.6304 
L 227.825018 392.19552 
L 241.338764 394.91712 
L 252.295855 408.34368 
L 251.930618 413.06112 
L 243.895418 417.0528 
L 240.425673 414.87552 
L 239.877818 410.15808 
L 243.164945 408.52512 
L 245.356364 403.4448 
L 247.7304 401.26752 
L 257.226545 408.34368 
L 260.878909 415.2384 
L 258.870109 418.68576 
L 262.705091 423.4032 
L 254.487273 422.67744 
L 239.877818 419.23008 
L 230.929527 413.78688 
L 236.408073 413.78688 
L 245.356364 417.41568 
L 251.930618 419.41152 
L 245.538982 418.14144 
L 244.625891 412.69824 
L 247.7304 415.05696 
L 247.7304 412.15392 
L 244.625891 411.6096 
L 239.147345 407.79936 
L 235.312364 400.90464 
L 257.409164 414.3312 
L 255.7656 420.13728 
L 249.7392 413.96832 
L 249.7392 411.6096 
L 256.678691 414.51264 
L 251.930618 411.79104 
L 251.565382 413.06112 
L 259.600582 419.7744 
L 260.696291 419.95584 
L 246.452073 414.3312 
L 240.973527 409.25088 
L 249.7392 408.52512 
L 260.148436 412.69824 
L 272.566473 421.22592 
L 265.8096 423.04032 
L 245.7216 417.41568 
L 244.625891 440.45856 
L 245.904218 451.5264 
L 229.468582 448.26048 
L 214.859127 440.09568 
L 202.623709 425.2176 
L 204.267273 419.23008 
L 213.032945 421.22592 
L 215.5896 427.75776 
L 218.146255 431.38656 
L 217.5984 431.93088 
L 217.233164 432.11232 
L 217.963636 431.93088 
L 223.990036 428.30208 
L 214.493891 424.85472 
L 210.476291 424.85472 
L 214.311273 425.2176 
L 223.259564 421.95168 
L 226.364073 427.9392 
L 227.459782 423.94752 
L 230.564291 430.29792 
L 232.207855 432.11232 
L 232.025236 431.93088 
L 233.303564 429.20928 
L 230.929527 427.9392 
L 235.312364 429.57216 
L 234.581891 427.75776 
L 227.277164 430.6608 
L 234.034036 432.4752 
L 236.590691 439.18848 
L 235.494982 441.72864 
L 227.094545 434.83392 
L 219.6072 426.66912 
L 220.520291 421.22592 
L 219.972436 419.7744 
L 218.694109 417.96 
L 224.903127 420.86304 
L 231.112145 422.13312 
L 234.764509 421.95168 
L 229.6512 424.85472 
L 239.6952 431.74944 
L 246.999927 446.9904 
L 239.6952 449.712 
L 221.433382 443.18016 
L 208.102255 436.64832 
L 207.006545 425.76192 
L 211.389382 421.40736 
L 215.954836 425.03616 
L 219.424582 426.85056 
L 220.702909 433.92672 
L 221.433382 431.74944 
L 221.068145 431.38656 
L 220.337673 429.02784 
L 215.224364 423.04032 
L 217.5984 417.0528 
L 229.6512 422.67744 
L 232.207855 421.77024 
L 227.094545 421.5888 
L 221.616 420.31872 
L 216.320073 419.7744 
L 218.876727 417.59712 
L 226.364073 417.59712 
L 233.851418 422.85888 
L 237.6864 424.49184 
L 237.503782 425.2176 
L 237.138545 426.1248 
L 244.260655 433.92672 
L 242.069236 430.29792 
L 229.285964 431.02368 
L 225.268364 421.22592 
L 225.998836 415.78272 
L 231.112145 418.8672 
L 244.260655 426.1248 
L 236.225455 421.04448 
L 237.6864 419.7744 
L 247.547782 418.32288 
L 254.487273 421.77024 
L 259.965818 433.20096 
L 258.687491 435.37824 
L 249.7392 429.7536 
L 242.251855 420.6816 
L 241.704 410.88384 
L 251.748 408.52512 
L 254.304655 412.69824 
L 259.052727 416.68992 
L 259.235345 424.67328 
L 265.261745 429.57216 
L 257.409164 429.02784 
L 247.365164 423.04032 
L 246.269455 417.59712 
L 250.834909 417.77856 
L 256.861309 423.4032 
L 254.122036 411.79104 
L 250.834909 408.52512 
L 261.244145 404.352 
L 272.566473 414.3312 
L 281.332145 422.496 
L 266.905309 418.14144 
L 263.8008 414.3312 
L 263.070327 412.5168 
L 265.261745 416.50848 
L 264.713891 418.50432 
L 264.896509 423.4032 
L 267.635782 431.568 
L 272.383855 438.09984 
L 262.522473 434.47104 
L 246.999927 423.58464 
L 243.164945 411.97248 
L 242.799709 403.98912 
L 245.356364 398.72736 
L 251.565382 400.7232 
L 265.444364 402.5376 
L 270.192436 407.25504 
L 271.836 409.7952 
L 279.505964 409.97664 
L 284.436655 413.06112 
L 276.218836 408.16224 
L 273.114327 403.98912 
L 275.123127 405.80352 
L 276.766691 404.17056 
L 279.505964 405.2592 
L 283.340945 404.17056 
L 287.541164 404.352 
L 277.131927 400.36032 
L 269.279345 400.7232 
L 281.697382 396.91296 
L 275.305745 392.37696 
L 274.392655 389.65536 
L 294.845891 403.4448 
L 301.420145 408.16224 
L 284.071418 405.07776 
L 275.8536 402.5376 
L 279.8712 399.27168 
L 275.488364 389.29248 
L 272.018618 382.94208 
L 284.436655 390.19968 
L 293.9328 405.44064 
L 291.558764 393.82848 
L 282.793091 375.86592 
L 282.610473 365.3424 
L 295.393745 367.70112 
L 306.168218 379.49472 
L 315.664364 396.55008 
L 311.281527 403.26336 
L 291.558764 396.1872 
L 269.461964 380.94624 
L 267.635782 368.60832 
L 282.610473 364.61664 
L 293.750182 373.14432 
L 307.9944 384.21216 
L 309.090109 390.01824 
L 288.271636 386.208 
L 276.584073 386.02656 
L 286.080218 388.56672 
L 289.549964 391.28832 
L 282.427855 388.56672 
L 279.688582 393.10272 
L 280.784291 389.8368 
L 278.592873 382.21632 
L 289.002109 375.50304 
L 287.358545 374.77728 
L 291.924 382.03488 
L 276.584073 377.31744 
L 278.410255 380.22048 
L 289.732582 374.59584 
L 291.741382 380.94624 
L 288.636873 384.21216 
L 296.672073 386.57088 
L 295.9416 386.75232 
L 286.262836 378.9504 
L 277.497164 380.03904 
L 291.924 383.84928 
L 298.680873 382.5792 
L 284.984509 381.30912 
L 275.670982 384.03072 
L 276.949309 373.68864 
L 270.009818 357.1776 
L 259.235345 339.9408 
L 264.348655 333.95328 
L 292.837091 348.83136 
L 310.733673 370.24128 
L 316.760073 386.75232 
L 304.342036 390.92544 
L 282.610473 378.76896 
L 273.662182 362.43936 
L 264.531273 353.73024 
L 275.488364 358.26624 
L 299.046109 362.07648 
L 303.611564 371.32992 
L 300.141818 377.31744 
L 290.463055 372.78144 
L 291.376145 364.25376 
L 277.8624 349.0128 
L 270.740291 349.37568 
L 292.654473 355.00032 
L 304.159418 358.44768 
L 302.333236 367.88256 
L 298.498255 382.5792 
L 307.9944 388.9296 
L 313.472945 391.46976 
L 293.019709 386.208 
L 264.896509 370.42272 
L 258.687491 351.7344 
L 262.522473 323.24832 
L 274.392655 321.61536 
L 292.106618 348.28704 
L 323.699564 375.3216 
L 329.178109 380.94624 
L 297.219927 373.32576 
L 269.096727 360.26208 
L 264.166036 341.57376 
L 272.201236 324.88128 
L 289.549964 333.04608 
L 300.507055 347.01696 
L 308.907491 363.528 
L 310.0032 375.14016 
L 312.194618 379.8576 
L 297.585164 375.50304 
L 280.601673 361.7136 
L 273.662182 347.92416 
L 270.922909 331.23168 
L 292.106618 335.04192 
L 311.281527 360.62496 
L 329.178109 394.3728 
L 337.030691 402.17472 
L 325.160509 404.17056 
L 292.106618 390.744 
L 265.261745 358.992 
L 265.8096 331.59456 
L 274.757891 321.43392 
L 291.558764 333.77184 
L 320.595055 366.43104 
L 336.482836 391.10688 
L 341.596145 404.89632 
L 317.855782 396.1872 
L 285.8976 379.13184 
L 261.244145 356.2704 
L 252.478473 333.77184 
L 266.357455 325.96992 
L 285.714982 330.14304 
L 307.629164 348.1056 
L 329.908582 384.3936 
L 344.335418 407.43648 
L 333.560945 410.33952 
L 313.472945 401.08608 
L 290.097818 382.5792 
L 273.662182 358.44768 
L 257.957018 340.30368 
L 269.279345 335.76768 
L 278.592873 334.86048 
L 292.837091 346.47264 
L 316.942691 365.3424 
L 331.369527 390.38112 
L 335.569745 411.06528 
L 321.690764 411.79104 
L 294.663273 392.01408 
L 258.870109 355.3632 
L 231.66 325.60704 
L 227.094545 299.47968 
L 251.565382 296.75808 
L 290.463055 329.23584 
L 321.508145 359.8992 
L 336.482836 391.10688 
L 327.717164 405.98496 
L 306.716073 397.63872 
L 283.340945 376.41024 
L 263.618182 353.00448 
L 261.426764 340.848 
L 261.426764 340.848 
" clip-path="url(#pe45ff0173b)" style="fill: none; stroke-dasharray: 5.55,2.4; stroke-dashoffset: 0; stroke: #800080; stroke-opacity: 0.7; stroke-width: 1.5"/>
   </g>
   <g id="line2d_30">
    <path d="M 81 77.76 
L 583.2 576.72 
" clip-path="url(#pe45ff0173b)" style="fill: none; stroke: #000000; stroke-width: 1.5; stroke-linecap: square"/>
   </g>
   <g id="line2d_31">
    <path d="M 81 554.04 
L 649 554.04 
" clip-path="url(#pe45ff0173b)" style="fill: none; stroke-dasharray: 9.6,2.4,1.5,2.4; stroke-dashoffset: 0; stroke: #000000; stroke-width: 1.5"/>
   </g>
   <g id="line2d_32">
    <path d="M 103.827273 576.72 
L 103.827273 -1 
" clip-path="url(#pe45ff0173b)" style="fill: none; stroke-dasharray: 9.6,2.4,1.5,2.4; stroke-dashoffset: 0; stroke: #000000; stroke-width: 1.5"/>
   </g>
   <g id="patch_3">
    <path d="M 81 576.72 
L 81 77.76 
" style="fill: none; stroke: #000000; stroke-width: 0.8; stroke-linejoin: miter; stroke-linecap: square"/>
   </g>
   <g id="patch_4">
    <path d="M 583.2 576.72 
L 583.2 77.76 
" style="fill: none; stroke: #000000; stroke-width: 0.8; stroke-linejoin: miter; stroke-linecap: square"/>
   </g>
   <g id="patch_5">
    <path d="M 81 576.72 
L 583.2 576.72 
" style="fill: none; stroke: #000000; stroke-width: 0.8; stroke-linejoin: miter; stroke-linecap: square"/>
   </g>
   <g id="patch_6">
    <path d="M 81 77.76 
L 583.2 77.76 
" style="fill: none; stroke: #000000; stroke-width: 0.8; stroke-linejoin: miter; stroke-linecap: square"/>
   </g>
   <g id="text_15">
    <!-- Phase diagram with an approximate initial 20% predator population -->
    <g transform="translate(128.307188 71.76) scale(0.12 -0.12)">
     <defs>
      <path id="DejaVuSans-68" d="M 3513 2113 
L 3513 0 
L 2938 0 
L 2938 2094 
Q 2938 2591 2744 2837 
Q 2550 3084 2163 3084 
Q 1697 3084 1428 2787 
Q 1159 2491 1159 1978 
L 1159 0 
L 581 0 
L 581 4863 
L 1159 4863 
L 1159 2956 
Q 1366 3272 1645 3428 
Q 1925 3584 2291 3584 
Q 2894 3584 3203 3211 
Q 3513 2838 3513 2113 
z
" transform="scale(0.015625)"/>
      <path id="DejaVuSans-73" d="M 2834 3397 
L 2834 2853 
Q 2591 2978 2328 3040 
Q 2066 3103 1784 3103 
Q 1356 3103 1142 2972 
Q 928 2841 928 2578 
Q 928 2378 1081 2264 
Q 1234 2150 1697 2047 
L 1894 2003 
Q 2506 1872 2764 1633 
Q 3022 1394 3022 966 
Q 3022 478 2636 193 
Q 2250 -91 1575 -91 
Q 1294 -91 989 -36 
Q 684 19 347 128 
L 347 722 
Q 666 556 975 473 
Q 1284 391 1588 391 
Q 1994 391 2212 530 
Q 2431 669 2431 922 
Q 2431 1156 2273 1281 
Q 2116 1406 1581 1522 
L 1381 1569 
Q 847 1681 609 1914 
Q 372 2147 372 2553 
Q 372 3047 722 3315 
Q 1072 3584 1716 3584 
Q 2034 3584 2315 3537 
Q 2597 3491 2834 3397 
z
" transform="scale(0.015625)"/>
      <path id="DejaVuSans-67" d="M 2906 1791 
Q 2906 2416 2648 2759 
Q 2391 3103 1925 3103 
Q 1463 3103 1205 2759 
Q 947 2416 947 1791 
Q 947 1169 1205 825 
Q 1463 481 1925 481 
Q 2391 481 2648 825 
Q 2906 1169 2906 1791 
z
M 3481 434 
Q 3481 -459 3084 -895 
Q 2688 -1331 1869 -1331 
Q 1566 -1331 1297 -1286 
Q 1028 -1241 775 -1147 
L 775 -588 
Q 1028 -725 1275 -790 
Q 1522 -856 1778 -856 
Q 2344 -856 2625 -561 
Q 2906 -266 2906 331 
L 2906 616 
Q 2728 306 2450 153 
Q 2172 0 1784 0 
Q 1141 0 747 490 
Q 353 981 353 1791 
Q 353 2603 747 3093 
Q 1141 3584 1784 3584 
Q 2172 3584 2450 3431 
Q 2728 3278 2906 2969 
L 2906 3500 
L 3481 3500 
L 3481 434 
z
" transform="scale(0.015625)"/>
      <path id="DejaVuSans-6d" d="M 3328 2828 
Q 3544 3216 3844 3400 
Q 4144 3584 4550 3584 
Q 5097 3584 5394 3201 
Q 5691 2819 5691 2113 
L 5691 0 
L 5113 0 
L 5113 2094 
Q 5113 2597 4934 2840 
Q 4756 3084 4391 3084 
Q 3944 3084 3684 2787 
Q 3425 2491 3425 1978 
L 3425 0 
L 2847 0 
L 2847 2094 
Q 2847 2600 2669 2842 
Q 2491 3084 2119 3084 
Q 1678 3084 1418 2786 
Q 1159 2488 1159 1978 
L 1159 0 
L 581 0 
L 581 3500 
L 1159 3500 
L 1159 2956 
Q 1356 3278 1631 3431 
Q 1906 3584 2284 3584 
Q 2666 3584 2933 3390 
Q 3200 3197 3328 2828 
z
" transform="scale(0.015625)"/>
      <path id="DejaVuSans-77" d="M 269 3500 
L 844 3500 
L 1563 769 
L 2278 3500 
L 2956 3500 
L 3675 769 
L 4391 3500 
L 4966 3500 
L 4050 0 
L 3372 0 
L 2619 2869 
L 1863 0 
L 1184 0 
L 269 3500 
z
" transform="scale(0.015625)"/>
      <path id="DejaVuSans-78" d="M 3513 3500 
L 2247 1797 
L 3578 0 
L 2900 0 
L 1881 1375 
L 863 0 
L 184 0 
L 1544 1831 
L 300 3500 
L 978 3500 
L 1906 2253 
L 2834 3500 
L 3513 3500 
z
" transform="scale(0.015625)"/>
      <path id="DejaVuSans-25" d="M 4653 2053 
Q 4381 2053 4226 1822 
Q 4072 1591 4072 1178 
Q 4072 772 4226 539 
Q 4381 306 4653 306 
Q 4919 306 5073 539 
Q 5228 772 5228 1178 
Q 5228 1588 5073 1820 
Q 4919 2053 4653 2053 
z
M 4653 2450 
Q 5147 2450 5437 2106 
Q 5728 1763 5728 1178 
Q 5728 594 5436 251 
Q 5144 -91 4653 -91 
Q 4153 -91 3862 251 
Q 3572 594 3572 1178 
Q 3572 1766 3864 2108 
Q 4156 2450 4653 2450 
z
M 1428 4353 
Q 1159 4353 1004 4120 
Q 850 3888 850 3481 
Q 850 3069 1003 2837 
Q 1156 2606 1428 2606 
Q 1700 2606 1854 2837 
Q 2009 3069 2009 3481 
Q 2009 3884 1853 4118 
Q 1697 4353 1428 4353 
z
M 4250 4750 
L 4750 4750 
L 1831 -91 
L 1331 -91 
L 4250 4750 
z
M 1428 4750 
Q 1922 4750 2215 4408 
Q 2509 4066 2509 3481 
Q 2509 2891 2217 2550 
Q 1925 2209 1428 2209 
Q 931 2209 642 2551 
Q 353 2894 353 3481 
Q 353 4063 643 4406 
Q 934 4750 1428 4750 
z
" transform="scale(0.015625)"/>
     </defs>
     <use xlink:href="#DejaVuSans-50"/>
     <use xlink:href="#DejaVuSans-68" x="60.302734"/>
     <use xlink:href="#DejaVuSans-61" x="123.681641"/>
     <use xlink:href="#DejaVuSans-73" x="184.960938"/>
     <use xlink:href="#DejaVuSans-65" x="237.060547"/>
     <use xlink:href="#DejaVuSans-20" x="298.583984"/>
     <use xlink:href="#DejaVuSans-64" x="330.371094"/>
     <use xlink:href="#DejaVuSans-69" x="393.847656"/>
     <use xlink:href="#DejaVuSans-61" x="421.630859"/>
     <use xlink:href="#DejaVuSans-67" x="482.910156"/>
     <use xlink:href="#DejaVuSans-72" x="546.386719"/>
     <use xlink:href="#DejaVuSans-61" x="587.5"/>
     <use xlink:href="#DejaVuSans-6d" x="648.779297"/>
     <use xlink:href="#DejaVuSans-20" x="746.191406"/>
     <use xlink:href="#DejaVuSans-77" x="777.978516"/>
     <use xlink:href="#DejaVuSans-69" x="859.765625"/>
     <use xlink:href="#DejaVuSans-74" x="887.548828"/>
     <use xlink:href="#DejaVuSans-68" x="926.757812"/>
     <use xlink:href="#DejaVuSans-20" x="990.136719"/>
     <use xlink:href="#DejaVuSans-61" x="1021.923828"/>
     <use xlink:href="#DejaVuSans-6e" x="1083.203125"/>
     <use xlink:href="#DejaVuSans-20" x="1146.582031"/>
     <use xlink:href="#DejaVuSans-61" x="1178.369141"/>
     <use xlink:href="#DejaVuSans-70" x="1239.648438"/>
     <use xlink:href="#DejaVuSans-70" x="1303.125"/>
     <use xlink:href="#DejaVuSans-72" x="1366.601562"/>
     <use xlink:href="#DejaVuSans-6f" x="1405.464844"/>
     <use xlink:href="#DejaVuSans-78" x="1463.521484"/>
     <use xlink:href="#DejaVuSans-69" x="1522.701172"/>
     <use xlink:href="#DejaVuSans-6d" x="1550.484375"/>
     <use xlink:href="#DejaVuSans-61" x="1647.896484"/>
     <use xlink:href="#DejaVuSans-74" x="1709.175781"/>
     <use xlink:href="#DejaVuSans-65" x="1748.384766"/>
     <use xlink:href="#DejaVuSans-20" x="1809.908203"/>
     <use xlink:href="#DejaVuSans-69" x="1841.695312"/>
     <use xlink:href="#DejaVuSans-6e" x="1869.478516"/>
     <use xlink:href="#DejaVuSans-69" x="1932.857422"/>
     <use xlink:href="#DejaVuSans-74" x="1960.640625"/>
     <use xlink:href="#DejaVuSans-69" x="1999.849609"/>
     <use xlink:href="#DejaVuSans-61" x="2027.632812"/>
     <use xlink:href="#DejaVuSans-6c" x="2088.912109"/>
     <use xlink:href="#DejaVuSans-20" x="2116.695312"/>
     <use xlink:href="#DejaVuSans-32" x="2148.482422"/>
     <use xlink:href="#DejaVuSans-30" x="2212.105469"/>
     <use xlink:href="#DejaVuSans-25" x="2275.728516"/>
     <use xlink:href="#DejaVuSans-20" x="2370.748047"/>
     <use xlink:href="#DejaVuSans-70" x="2402.535156"/>
     <use xlink:href="#DejaVuSans-72" x="2466.011719"/>
     <use xlink:href="#DejaVuSans-65" x="2504.875"/>
     <use xlink:href="#DejaVuSans-64" x="2566.398438"/>
     <use xlink:href="#DejaVuSans-61" x="2629.875"/>
     <use xlink:href="#DejaVuSans-74" x="2691.154297"/>
     <use xlink:href="#DejaVuSans-6f" x="2730.363281"/>
     <use xlink:href="#DejaVuSans-72" x="2791.544922"/>
     <use xlink:href="#DejaVuSans-20" x="2832.658203"/>
     <use xlink:href="#DejaVuSans-70" x="2864.445312"/>
     <use xlink:href="#DejaVuSans-6f" x="2927.921875"/>
     <use xlink:href="#DejaVuSans-70" x="2989.103516"/>
     <use xlink:href="#DejaVuSans-75" x="3052.580078"/>
     <use xlink:href="#DejaVuSans-6c" x="3115.958984"/>
     <use xlink:href="#DejaVuSans-61" x="3143.742188"/>
     <use xlink:href="#DejaVuSans-74" x="3205.021484"/>
     <use xlink:href="#DejaVuSans-69" x="3244.230469"/>
     <use xlink:href="#DejaVuSans-6f" x="3272.013672"/>
     <use xlink:href="#DejaVuSans-6e" x="3333.195312"/>
    </g>
   </g>
   <g id="legend_1">
    <g id="patch_7">
     <path d="M 460.1375 115.11625 
L 576.2 115.11625 
Q 578.2 115.11625 578.2 113.11625 
L 578.2 84.76 
Q 578.2 82.76 576.2 82.76 
L 460.1375 82.76 
Q 458.1375 82.76 458.1375 84.76 
L 458.1375 113.11625 
Q 458.1375 115.11625 460.1375 115.11625 
z
" style="fill: #ffffff; opacity: 0.8; stroke: #cccccc; stroke-linejoin: miter"/>
    </g>
    <g id="PathCollection_5">
     <g>
      <use xlink:href="#md4c346c4ec" x="472.1375" y="91.733437" style="fill: #0000ff; stroke: #0000ff"/>
     </g>
    </g>
    <g id="text_16">
     <!-- Initial population -->
     <g transform="translate(490.1375 94.358437) scale(0.1 -0.1)">
      <defs>
       <path id="DejaVuSans-49" d="M 628 4666 
L 1259 4666 
L 1259 0 
L 628 0 
L 628 4666 
z
" transform="scale(0.015625)"/>
      </defs>
      <use xlink:href="#DejaVuSans-49"/>
      <use xlink:href="#DejaVuSans-6e" x="29.492188"/>
      <use xlink:href="#DejaVuSans-69" x="92.871094"/>
      <use xlink:href="#DejaVuSans-74" x="120.654297"/>
      <use xlink:href="#DejaVuSans-69" x="159.863281"/>
      <use xlink:href="#DejaVuSans-61" x="187.646484"/>
      <use xlink:href="#DejaVuSans-6c" x="248.925781"/>
      <use xlink:href="#DejaVuSans-20" x="276.708984"/>
      <use xlink:href="#DejaVuSans-70" x="308.496094"/>
      <use xlink:href="#DejaVuSans-6f" x="371.972656"/>
      <use xlink:href="#DejaVuSans-70" x="433.154297"/>
      <use xlink:href="#DejaVuSans-75" x="496.630859"/>
      <use xlink:href="#DejaVuSans-6c" x="560.009766"/>
      <use xlink:href="#DejaVuSans-61" x="587.792969"/>
      <use xlink:href="#DejaVuSans-74" x="649.072266"/>
      <use xlink:href="#DejaVuSans-69" x="688.28125"/>
      <use xlink:href="#DejaVuSans-6f" x="716.064453"/>
      <use xlink:href="#DejaVuSans-6e" x="777.246094"/>
     </g>
    </g>
    <g id="PathCollection_6">
     <g>
      <use xlink:href="#m4df6d72e65" x="472.1375" y="106.411562" style="fill: #ff0000; stroke: #ff0000"/>
     </g>
    </g>
    <g id="text_17">
     <!-- Final population -->
     <g transform="translate(490.1375 109.036562) scale(0.1 -0.1)">
      <defs>
       <path id="DejaVuSans-46" d="M 628 4666 
L 3309 4666 
L 3309 4134 
L 1259 4134 
L 1259 2759 
L 3109 2759 
L 3109 2228 
L 1259 2228 
L 1259 0 
L 628 0 
L 628 4666 
z
" transform="scale(0.015625)"/>
      </defs>
      <use xlink:href="#DejaVuSans-46"/>
      <use xlink:href="#DejaVuSans-69" x="50.269531"/>
      <use xlink:href="#DejaVuSans-6e" x="78.052734"/>
      <use xlink:href="#DejaVuSans-61" x="141.431641"/>
      <use xlink:href="#DejaVuSans-6c" x="202.710938"/>
      <use xlink:href="#DejaVuSans-20" x="230.494141"/>
      <use xlink:href="#DejaVuSans-70" x="262.28125"/>
      <use xlink:href="#DejaVuSans-6f" x="325.757812"/>
      <use xlink:href="#DejaVuSans-70" x="386.939453"/>
      <use xlink:href="#DejaVuSans-75" x="450.416016"/>
      <use xlink:href="#DejaVuSans-6c" x="513.794922"/>
      <use xlink:href="#DejaVuSans-61" x="541.578125"/>
      <use xlink:href="#DejaVuSans-74" x="602.857422"/>
      <use xlink:href="#DejaVuSans-69" x="642.066406"/>
      <use xlink:href="#DejaVuSans-6f" x="669.849609"/>
      <use xlink:href="#DejaVuSans-6e" x="731.03125"/>
     </g>
    </g>
   </g>
  </g>
 </g>
 <defs>
  <clipPath id="pe45ff0173b">
   <rect x="81" y="77.76" width="502.2" height="498.96"/>
  </clipPath>
 </defs>
</svg>
