<?xml version="1.0" encoding="utf-8" standalone="no"?>
<!DOCTYPE svg PUBLIC "-//W3C//DTD SVG 1.1//EN"
  "http://www.w3.org/Graphics/SVG/1.1/DTD/svg11.dtd">
<svg xmlns:xlink="http://www.w3.org/1999/xlink" width="1440pt" height="648pt" viewBox="0 0 1440 648" xmlns="http://www.w3.org/2000/svg" version="1.1">
 <metadata>
  <rdf:RDF xmlns:dc="http://purl.org/dc/elements/1.1/" xmlns:cc="http://creativecommons.org/ns#" xmlns:rdf="http://www.w3.org/1999/02/22-rdf-syntax-ns#">
   <cc:Work>
    <dc:type rdf:resource="http://purl.org/dc/dcmitype/StillImage"/>
    <dc:date>2025-06-09T13:37:04.621161</dc:date>
    <dc:format>image/svg+xml</dc:format>
    <dc:creator>
     <cc:Agent>
      <dc:title>Matplotlib v3.7.0, https://matplotlib.org/</dc:title>
     </cc:Agent>
    </dc:creator>
   </cc:Work>
  </rdf:RDF>
 </metadata>
 <defs>
  <style type="text/css">*{stroke-linejoin: round; stroke-linecap: butt}</style>
 </defs>
 <g id="figure_1">
  <g id="patch_1">
   <path d="M 0 648 
L 1440 648 
L 1440 0 
L 0 0 
z
" style="fill: #ffffff"/>
  </g>
  <g id="axes_1">
   <g id="patch_2">
    <path d="M 180 576.72 
L 1296 576.72 
L 1296 77.76 
L 180 77.76 
z
" style="fill: #ffffff"/>
   </g>
   <g id="matplotlib.axis_1">
    <g id="xtick_1">
     <g id="line2d_1">
      <defs>
       <path id="m5f6704cc75" d="M 0 0 
L 0 3.5 
" style="stroke: #000000; stroke-width: 0.8"/>
      </defs>
      <g>
       <use xlink:href="#m5f6704cc75" x="230.727273" y="576.72" style="stroke: #000000; stroke-width: 0.8"/>
      </g>
     </g>
     <g id="text_1">
      <!-- 0 -->
      <g transform="translate(227.546023 591.318438) scale(0.1 -0.1)">
       <defs>
        <path id="DejaVuSans-30" d="M 2034 4250 
Q 1547 4250 1301 3770 
Q 1056 3291 1056 2328 
Q 1056 1369 1301 889 
Q 1547 409 2034 409 
Q 2525 409 2770 889 
Q 3016 1369 3016 2328 
Q 3016 3291 2770 3770 
Q 2525 4250 2034 4250 
z
M 2034 4750 
Q 2819 4750 3233 4129 
Q 3647 3509 3647 2328 
Q 3647 1150 3233 529 
Q 2819 -91 2034 -91 
Q 1250 -91 836 529 
Q 422 1150 422 2328 
Q 422 3509 836 4129 
Q 1250 4750 2034 4750 
z
" transform="scale(0.015625)"/>
       </defs>
       <use xlink:href="#DejaVuSans-30"/>
      </g>
     </g>
    </g>
    <g id="xtick_2">
     <g id="line2d_2">
      <g>
       <use xlink:href="#m5f6704cc75" x="434.042995" y="576.72" style="stroke: #000000; stroke-width: 0.8"/>
      </g>
     </g>
     <g id="text_2">
      <!-- 100 -->
      <g transform="translate(424.499245 591.318438) scale(0.1 -0.1)">
       <defs>
        <path id="DejaVuSans-31" d="M 794 531 
L 1825 531 
L 1825 4091 
L 703 3866 
L 703 4441 
L 1819 4666 
L 2450 4666 
L 2450 531 
L 3481 531 
L 3481 0 
L 794 0 
L 794 531 
z
" transform="scale(0.015625)"/>
       </defs>
       <use xlink:href="#DejaVuSans-31"/>
       <use xlink:href="#DejaVuSans-30" x="63.623047"/>
       <use xlink:href="#DejaVuSans-30" x="127.246094"/>
      </g>
     </g>
    </g>
    <g id="xtick_3">
     <g id="line2d_3">
      <g>
       <use xlink:href="#m5f6704cc75" x="637.358717" y="576.72" style="stroke: #000000; stroke-width: 0.8"/>
      </g>
     </g>
     <g id="text_3">
      <!-- 200 -->
      <g transform="translate(627.814967 591.318438) scale(0.1 -0.1)">
       <defs>
        <path id="DejaVuSans-32" d="M 1228 531 
L 3431 531 
L 3431 0 
L 469 0 
L 469 531 
Q 828 903 1448 1529 
Q 2069 2156 2228 2338 
Q 2531 2678 2651 2914 
Q 2772 3150 2772 3378 
Q 2772 3750 2511 3984 
Q 2250 4219 1831 4219 
Q 1534 4219 1204 4116 
Q 875 4013 500 3803 
L 500 4441 
Q 881 4594 1212 4672 
Q 1544 4750 1819 4750 
Q 2544 4750 2975 4387 
Q 3406 4025 3406 3419 
Q 3406 3131 3298 2873 
Q 3191 2616 2906 2266 
Q 2828 2175 2409 1742 
Q 1991 1309 1228 531 
z
" transform="scale(0.015625)"/>
       </defs>
       <use xlink:href="#DejaVuSans-32"/>
       <use xlink:href="#DejaVuSans-30" x="63.623047"/>
       <use xlink:href="#DejaVuSans-30" x="127.246094"/>
      </g>
     </g>
    </g>
    <g id="xtick_4">
     <g id="line2d_4">
      <g>
       <use xlink:href="#m5f6704cc75" x="840.67444" y="576.72" style="stroke: #000000; stroke-width: 0.8"/>
      </g>
     </g>
     <g id="text_4">
      <!-- 300 -->
      <g transform="translate(831.13069 591.318438) scale(0.1 -0.1)">
       <defs>
        <path id="DejaVuSans-33" d="M 2597 2516 
Q 3050 2419 3304 2112 
Q 3559 1806 3559 1356 
Q 3559 666 3084 287 
Q 2609 -91 1734 -91 
Q 1441 -91 1130 -33 
Q 819 25 488 141 
L 488 750 
Q 750 597 1062 519 
Q 1375 441 1716 441 
Q 2309 441 2620 675 
Q 2931 909 2931 1356 
Q 2931 1769 2642 2001 
Q 2353 2234 1838 2234 
L 1294 2234 
L 1294 2753 
L 1863 2753 
Q 2328 2753 2575 2939 
Q 2822 3125 2822 3475 
Q 2822 3834 2567 4026 
Q 2313 4219 1838 4219 
Q 1578 4219 1281 4162 
Q 984 4106 628 3988 
L 628 4550 
Q 988 4650 1302 4700 
Q 1616 4750 1894 4750 
Q 2613 4750 3031 4423 
Q 3450 4097 3450 3541 
Q 3450 3153 3228 2886 
Q 3006 2619 2597 2516 
z
" transform="scale(0.015625)"/>
       </defs>
       <use xlink:href="#DejaVuSans-33"/>
       <use xlink:href="#DejaVuSans-30" x="63.623047"/>
       <use xlink:href="#DejaVuSans-30" x="127.246094"/>
      </g>
     </g>
    </g>
    <g id="xtick_5">
     <g id="line2d_5">
      <g>
       <use xlink:href="#m5f6704cc75" x="1043.990162" y="576.72" style="stroke: #000000; stroke-width: 0.8"/>
      </g>
     </g>
     <g id="text_5">
      <!-- 400 -->
      <g transform="translate(1034.446412 591.318438) scale(0.1 -0.1)">
       <defs>
        <path id="DejaVuSans-34" d="M 2419 4116 
L 825 1625 
L 2419 1625 
L 2419 4116 
z
M 2253 4666 
L 3047 4666 
L 3047 1625 
L 3713 1625 
L 3713 1100 
L 3047 1100 
L 3047 0 
L 2419 0 
L 2419 1100 
L 313 1100 
L 313 1709 
L 2253 4666 
z
" transform="scale(0.015625)"/>
       </defs>
       <use xlink:href="#DejaVuSans-34"/>
       <use xlink:href="#DejaVuSans-30" x="63.623047"/>
       <use xlink:href="#DejaVuSans-30" x="127.246094"/>
      </g>
     </g>
    </g>
    <g id="xtick_6">
     <g id="line2d_6">
      <g>
       <use xlink:href="#m5f6704cc75" x="1247.305884" y="576.72" style="stroke: #000000; stroke-width: 0.8"/>
      </g>
     </g>
     <g id="text_6">
      <!-- 500 -->
      <g transform="translate(1237.762134 591.318438) scale(0.1 -0.1)">
       <defs>
        <path id="DejaVuSans-35" d="M 691 4666 
L 3169 4666 
L 3169 4134 
L 1269 4134 
L 1269 2991 
Q 1406 3038 1543 3061 
Q 1681 3084 1819 3084 
Q 2600 3084 3056 2656 
Q 3513 2228 3513 1497 
Q 3513 744 3044 326 
Q 2575 -91 1722 -91 
Q 1428 -91 1123 -41 
Q 819 9 494 109 
L 494 744 
Q 775 591 1075 516 
Q 1375 441 1709 441 
Q 2250 441 2565 725 
Q 2881 1009 2881 1497 
Q 2881 1984 2565 2268 
Q 2250 2553 1709 2553 
Q 1456 2553 1204 2497 
Q 953 2441 691 2322 
L 691 4666 
z
" transform="scale(0.015625)"/>
       </defs>
       <use xlink:href="#DejaVuSans-35"/>
       <use xlink:href="#DejaVuSans-30" x="63.623047"/>
       <use xlink:href="#DejaVuSans-30" x="127.246094"/>
      </g>
     </g>
    </g>
    <g id="text_7">
     <!-- Days -->
     <g transform="translate(725.521875 604.996562) scale(0.1 -0.1)">
      <defs>
       <path id="DejaVuSans-44" d="M 1259 4147 
L 1259 519 
L 2022 519 
Q 2988 519 3436 956 
Q 3884 1394 3884 2338 
Q 3884 3275 3436 3711 
Q 2988 4147 2022 4147 
L 1259 4147 
z
M 628 4666 
L 1925 4666 
Q 3281 4666 3915 4102 
Q 4550 3538 4550 2338 
Q 4550 1131 3912 565 
Q 3275 0 1925 0 
L 628 0 
L 628 4666 
z
" transform="scale(0.015625)"/>
       <path id="DejaVuSans-61" d="M 2194 1759 
Q 1497 1759 1228 1600 
Q 959 1441 959 1056 
Q 959 750 1161 570 
Q 1363 391 1709 391 
Q 2188 391 2477 730 
Q 2766 1069 2766 1631 
L 2766 1759 
L 2194 1759 
z
M 3341 1997 
L 3341 0 
L 2766 0 
L 2766 531 
Q 2569 213 2275 61 
Q 1981 -91 1556 -91 
Q 1019 -91 701 211 
Q 384 513 384 1019 
Q 384 1609 779 1909 
Q 1175 2209 1959 2209 
L 2766 2209 
L 2766 2266 
Q 2766 2663 2505 2880 
Q 2244 3097 1772 3097 
Q 1472 3097 1187 3025 
Q 903 2953 641 2809 
L 641 3341 
Q 956 3463 1253 3523 
Q 1550 3584 1831 3584 
Q 2591 3584 2966 3190 
Q 3341 2797 3341 1997 
z
" transform="scale(0.015625)"/>
       <path id="DejaVuSans-79" d="M 2059 -325 
Q 1816 -950 1584 -1140 
Q 1353 -1331 966 -1331 
L 506 -1331 
L 506 -850 
L 844 -850 
Q 1081 -850 1212 -737 
Q 1344 -625 1503 -206 
L 1606 56 
L 191 3500 
L 800 3500 
L 1894 763 
L 2988 3500 
L 3597 3500 
L 2059 -325 
z
" transform="scale(0.015625)"/>
       <path id="DejaVuSans-73" d="M 2834 3397 
L 2834 2853 
Q 2591 2978 2328 3040 
Q 2066 3103 1784 3103 
Q 1356 3103 1142 2972 
Q 928 2841 928 2578 
Q 928 2378 1081 2264 
Q 1234 2150 1697 2047 
L 1894 2003 
Q 2506 1872 2764 1633 
Q 3022 1394 3022 966 
Q 3022 478 2636 193 
Q 2250 -91 1575 -91 
Q 1294 -91 989 -36 
Q 684 19 347 128 
L 347 722 
Q 666 556 975 473 
Q 1284 391 1588 391 
Q 1994 391 2212 530 
Q 2431 669 2431 922 
Q 2431 1156 2273 1281 
Q 2116 1406 1581 1522 
L 1381 1569 
Q 847 1681 609 1914 
Q 372 2147 372 2553 
Q 372 3047 722 3315 
Q 1072 3584 1716 3584 
Q 2034 3584 2315 3537 
Q 2597 3491 2834 3397 
z
" transform="scale(0.015625)"/>
      </defs>
      <use xlink:href="#DejaVuSans-44"/>
      <use xlink:href="#DejaVuSans-61" x="77.001953"/>
      <use xlink:href="#DejaVuSans-79" x="138.28125"/>
      <use xlink:href="#DejaVuSans-73" x="197.460938"/>
     </g>
    </g>
   </g>
   <g id="matplotlib.axis_2">
    <g id="ytick_1">
     <g id="line2d_7">
      <defs>
       <path id="mc928c47f74" d="M 0 0 
L -3.5 0 
" style="stroke: #000000; stroke-width: 0.8"/>
      </defs>
      <g>
       <use xlink:href="#mc928c47f74" x="180" y="539.54939" style="stroke: #000000; stroke-width: 0.8"/>
      </g>
     </g>
     <g id="text_8">
      <!-- 2000 -->
      <g transform="translate(147.55 543.348609) scale(0.1 -0.1)">
       <use xlink:href="#DejaVuSans-32"/>
       <use xlink:href="#DejaVuSans-30" x="63.623047"/>
       <use xlink:href="#DejaVuSans-30" x="127.246094"/>
       <use xlink:href="#DejaVuSans-30" x="190.869141"/>
      </g>
     </g>
    </g>
    <g id="ytick_2">
     <g id="line2d_8">
      <g>
       <use xlink:href="#mc928c47f74" x="180" y="429.772043" style="stroke: #000000; stroke-width: 0.8"/>
      </g>
     </g>
     <g id="text_9">
      <!-- 4000 -->
      <g transform="translate(147.55 433.571261) scale(0.1 -0.1)">
       <use xlink:href="#DejaVuSans-34"/>
       <use xlink:href="#DejaVuSans-30" x="63.623047"/>
       <use xlink:href="#DejaVuSans-30" x="127.246094"/>
       <use xlink:href="#DejaVuSans-30" x="190.869141"/>
      </g>
     </g>
    </g>
    <g id="ytick_3">
     <g id="line2d_9">
      <g>
       <use xlink:href="#mc928c47f74" x="180" y="319.994695" style="stroke: #000000; stroke-width: 0.8"/>
      </g>
     </g>
     <g id="text_10">
      <!-- 6000 -->
      <g transform="translate(147.55 323.793914) scale(0.1 -0.1)">
       <defs>
        <path id="DejaVuSans-36" d="M 2113 2584 
Q 1688 2584 1439 2293 
Q 1191 2003 1191 1497 
Q 1191 994 1439 701 
Q 1688 409 2113 409 
Q 2538 409 2786 701 
Q 3034 994 3034 1497 
Q 3034 2003 2786 2293 
Q 2538 2584 2113 2584 
z
M 3366 4563 
L 3366 3988 
Q 3128 4100 2886 4159 
Q 2644 4219 2406 4219 
Q 1781 4219 1451 3797 
Q 1122 3375 1075 2522 
Q 1259 2794 1537 2939 
Q 1816 3084 2150 3084 
Q 2853 3084 3261 2657 
Q 3669 2231 3669 1497 
Q 3669 778 3244 343 
Q 2819 -91 2113 -91 
Q 1303 -91 875 529 
Q 447 1150 447 2328 
Q 447 3434 972 4092 
Q 1497 4750 2381 4750 
Q 2619 4750 2861 4703 
Q 3103 4656 3366 4563 
z
" transform="scale(0.015625)"/>
       </defs>
       <use xlink:href="#DejaVuSans-36"/>
       <use xlink:href="#DejaVuSans-30" x="63.623047"/>
       <use xlink:href="#DejaVuSans-30" x="127.246094"/>
       <use xlink:href="#DejaVuSans-30" x="190.869141"/>
      </g>
     </g>
    </g>
    <g id="ytick_4">
     <g id="line2d_10">
      <g>
       <use xlink:href="#mc928c47f74" x="180" y="210.217348" style="stroke: #000000; stroke-width: 0.8"/>
      </g>
     </g>
     <g id="text_11">
      <!-- 8000 -->
      <g transform="translate(147.55 214.016566) scale(0.1 -0.1)">
       <defs>
        <path id="DejaVuSans-38" d="M 2034 2216 
Q 1584 2216 1326 1975 
Q 1069 1734 1069 1313 
Q 1069 891 1326 650 
Q 1584 409 2034 409 
Q 2484 409 2743 651 
Q 3003 894 3003 1313 
Q 3003 1734 2745 1975 
Q 2488 2216 2034 2216 
z
M 1403 2484 
Q 997 2584 770 2862 
Q 544 3141 544 3541 
Q 544 4100 942 4425 
Q 1341 4750 2034 4750 
Q 2731 4750 3128 4425 
Q 3525 4100 3525 3541 
Q 3525 3141 3298 2862 
Q 3072 2584 2669 2484 
Q 3125 2378 3379 2068 
Q 3634 1759 3634 1313 
Q 3634 634 3220 271 
Q 2806 -91 2034 -91 
Q 1263 -91 848 271 
Q 434 634 434 1313 
Q 434 1759 690 2068 
Q 947 2378 1403 2484 
z
M 1172 3481 
Q 1172 3119 1398 2916 
Q 1625 2713 2034 2713 
Q 2441 2713 2670 2916 
Q 2900 3119 2900 3481 
Q 2900 3844 2670 4047 
Q 2441 4250 2034 4250 
Q 1625 4250 1398 4047 
Q 1172 3844 1172 3481 
z
" transform="scale(0.015625)"/>
       </defs>
       <use xlink:href="#DejaVuSans-38"/>
       <use xlink:href="#DejaVuSans-30" x="63.623047"/>
       <use xlink:href="#DejaVuSans-30" x="127.246094"/>
       <use xlink:href="#DejaVuSans-30" x="190.869141"/>
      </g>
     </g>
    </g>
    <g id="ytick_5">
     <g id="line2d_11">
      <g>
       <use xlink:href="#mc928c47f74" x="180" y="100.44" style="stroke: #000000; stroke-width: 0.8"/>
      </g>
     </g>
     <g id="text_12">
      <!-- 10000 -->
      <g transform="translate(141.1875 104.239219) scale(0.1 -0.1)">
       <use xlink:href="#DejaVuSans-31"/>
       <use xlink:href="#DejaVuSans-30" x="63.623047"/>
       <use xlink:href="#DejaVuSans-30" x="127.246094"/>
       <use xlink:href="#DejaVuSans-30" x="190.869141"/>
       <use xlink:href="#DejaVuSans-30" x="254.492188"/>
      </g>
     </g>
    </g>
    <g id="text_13">
     <!-- Population -->
     <g transform="translate(135.107812 353.506406) rotate(-90) scale(0.1 -0.1)">
      <defs>
       <path id="DejaVuSans-50" d="M 1259 4147 
L 1259 2394 
L 2053 2394 
Q 2494 2394 2734 2622 
Q 2975 2850 2975 3272 
Q 2975 3691 2734 3919 
Q 2494 4147 2053 4147 
L 1259 4147 
z
M 628 4666 
L 2053 4666 
Q 2838 4666 3239 4311 
Q 3641 3956 3641 3272 
Q 3641 2581 3239 2228 
Q 2838 1875 2053 1875 
L 1259 1875 
L 1259 0 
L 628 0 
L 628 4666 
z
" transform="scale(0.015625)"/>
       <path id="DejaVuSans-6f" d="M 1959 3097 
Q 1497 3097 1228 2736 
Q 959 2375 959 1747 
Q 959 1119 1226 758 
Q 1494 397 1959 397 
Q 2419 397 2687 759 
Q 2956 1122 2956 1747 
Q 2956 2369 2687 2733 
Q 2419 3097 1959 3097 
z
M 1959 3584 
Q 2709 3584 3137 3096 
Q 3566 2609 3566 1747 
Q 3566 888 3137 398 
Q 2709 -91 1959 -91 
Q 1206 -91 779 398 
Q 353 888 353 1747 
Q 353 2609 779 3096 
Q 1206 3584 1959 3584 
z
" transform="scale(0.015625)"/>
       <path id="DejaVuSans-70" d="M 1159 525 
L 1159 -1331 
L 581 -1331 
L 581 3500 
L 1159 3500 
L 1159 2969 
Q 1341 3281 1617 3432 
Q 1894 3584 2278 3584 
Q 2916 3584 3314 3078 
Q 3713 2572 3713 1747 
Q 3713 922 3314 415 
Q 2916 -91 2278 -91 
Q 1894 -91 1617 61 
Q 1341 213 1159 525 
z
M 3116 1747 
Q 3116 2381 2855 2742 
Q 2594 3103 2138 3103 
Q 1681 3103 1420 2742 
Q 1159 2381 1159 1747 
Q 1159 1113 1420 752 
Q 1681 391 2138 391 
Q 2594 391 2855 752 
Q 3116 1113 3116 1747 
z
" transform="scale(0.015625)"/>
       <path id="DejaVuSans-75" d="M 544 1381 
L 544 3500 
L 1119 3500 
L 1119 1403 
Q 1119 906 1312 657 
Q 1506 409 1894 409 
Q 2359 409 2629 706 
Q 2900 1003 2900 1516 
L 2900 3500 
L 3475 3500 
L 3475 0 
L 2900 0 
L 2900 538 
Q 2691 219 2414 64 
Q 2138 -91 1772 -91 
Q 1169 -91 856 284 
Q 544 659 544 1381 
z
M 1991 3584 
L 1991 3584 
z
" transform="scale(0.015625)"/>
       <path id="DejaVuSans-6c" d="M 603 4863 
L 1178 4863 
L 1178 0 
L 603 0 
L 603 4863 
z
" transform="scale(0.015625)"/>
       <path id="DejaVuSans-74" d="M 1172 4494 
L 1172 3500 
L 2356 3500 
L 2356 3053 
L 1172 3053 
L 1172 1153 
Q 1172 725 1289 603 
Q 1406 481 1766 481 
L 2356 481 
L 2356 0 
L 1766 0 
Q 1100 0 847 248 
Q 594 497 594 1153 
L 594 3053 
L 172 3053 
L 172 3500 
L 594 3500 
L 594 4494 
L 1172 4494 
z
" transform="scale(0.015625)"/>
       <path id="DejaVuSans-69" d="M 603 3500 
L 1178 3500 
L 1178 0 
L 603 0 
L 603 3500 
z
M 603 4863 
L 1178 4863 
L 1178 4134 
L 603 4134 
L 603 4863 
z
" transform="scale(0.015625)"/>
       <path id="DejaVuSans-6e" d="M 3513 2113 
L 3513 0 
L 2938 0 
L 2938 2094 
Q 2938 2591 2744 2837 
Q 2550 3084 2163 3084 
Q 1697 3084 1428 2787 
Q 1159 2491 1159 1978 
L 1159 0 
L 581 0 
L 581 3500 
L 1159 3500 
L 1159 2956 
Q 1366 3272 1645 3428 
Q 1925 3584 2291 3584 
Q 2894 3584 3203 3211 
Q 3513 2838 3513 2113 
z
" transform="scale(0.015625)"/>
      </defs>
      <use xlink:href="#DejaVuSans-50"/>
      <use xlink:href="#DejaVuSans-6f" x="56.677734"/>
      <use xlink:href="#DejaVuSans-70" x="117.859375"/>
      <use xlink:href="#DejaVuSans-75" x="181.335938"/>
      <use xlink:href="#DejaVuSans-6c" x="244.714844"/>
      <use xlink:href="#DejaVuSans-61" x="272.498047"/>
      <use xlink:href="#DejaVuSans-74" x="333.777344"/>
      <use xlink:href="#DejaVuSans-69" x="372.986328"/>
      <use xlink:href="#DejaVuSans-6f" x="400.769531"/>
      <use xlink:href="#DejaVuSans-6e" x="461.951172"/>
     </g>
    </g>
   </g>
   <g id="line2d_12">
    <path d="M 230.727273 323.562459 
L 234.793587 418.410087 
L 236.826744 449.586854 
L 238.859902 459.576592 
L 240.893059 444.152875 
L 242.926216 398.540387 
L 244.959373 359.624318 
L 246.992531 350.732352 
L 249.025688 365.991404 
L 251.058845 392.667299 
L 253.092002 417.641646 
L 255.125159 433.230029 
L 257.158317 436.248906 
L 259.191474 434.931578 
L 261.224631 425.545615 
L 263.257788 415.555876 
L 265.290946 414.622769 
L 267.324103 425.380949 
L 269.35726 432.955586 
L 271.390417 436.523349 
L 273.423574 443.439322 
L 275.456732 439.487338 
L 277.489889 438.499342 
L 279.523046 441.792662 
L 281.556203 442.067106 
L 283.589361 438.55423 
L 285.622518 432.845808 
L 287.655675 433.230029 
L 289.688832 436.194017 
L 291.721989 437.017348 
L 293.755147 438.005344 
L 295.788304 436.413572 
L 297.821461 437.785789 
L 299.854618 436.248906 
L 301.887776 430.979593 
L 303.920933 429.113379 
L 305.95409 431.199148 
L 307.987247 435.919574 
L 310.020404 436.852682 
L 312.053562 435.370687 
L 314.086719 438.224898 
L 316.119876 438.334676 
L 318.153033 436.358683 
L 320.186191 438.99334 
L 322.219348 434.492469 
L 324.252505 438.334676 
L 326.285662 441.408441 
L 328.318819 450.959071 
L 330.351977 449.31241 
L 332.385134 448.873301 
L 334.418291 445.689758 
L 336.451448 438.883562 
L 338.484606 440.310668 
L 340.517763 443.713766 
L 342.55092 441.957328 
L 344.584077 439.158006 
L 346.617234 434.986467 
L 348.650392 430.320929 
L 350.683549 433.778916 
L 352.716706 438.499342 
L 354.749863 444.207764 
L 356.783021 441.408441 
L 358.816178 438.224898 
L 360.849335 437.7309 
L 362.882492 433.778916 
L 364.915649 431.583369 
L 366.948807 432.35181 
L 368.981964 436.029351 
L 371.015121 437.34668 
L 373.048278 443.93332 
L 375.081436 442.670881 
L 377.114593 441.079109 
L 379.14775 438.828674 
L 381.180907 439.487338 
L 383.214064 441.079109 
L 385.247222 441.737773 
L 387.280379 443.494211 
L 389.313536 443.823543 
L 391.346693 451.837289 
L 393.379851 449.696631 
L 395.413008 448.708635 
L 397.446165 441.408441 
L 399.479322 439.322672 
L 401.51248 439.212894 
L 403.545637 443.000213 
L 405.578794 446.348422 
L 407.611951 444.591985 
L 409.645108 444.37243 
L 411.678266 440.530223 
L 413.711423 437.127125 
L 415.74458 439.158006 
L 417.777737 444.701762 
L 419.810895 440.475334 
L 421.844052 436.852682 
L 423.877209 438.883562 
L 425.910366 438.609119 
L 427.943523 441.792662 
L 429.976681 442.506215 
L 432.009838 441.682885 
L 434.042995 441.243775 
L 436.076152 444.152875 
L 438.10931 444.37243 
L 440.142467 446.293533 
L 442.175624 439.487338 
L 444.208781 437.401568 
L 446.241938 435.151133 
L 448.275096 426.698277 
L 450.308253 426.314056 
L 452.34141 434.986467 
L 454.374567 444.756651 
L 456.407725 449.422188 
L 458.440882 448.763524 
L 460.474039 445.19576 
L 462.507196 437.456457 
L 464.540353 428.399826 
L 466.573511 428.784046 
L 468.606668 436.08424 
L 470.639825 442.231772 
L 472.672982 442.506215 
L 474.70614 445.964201 
L 476.739297 442.28666 
L 478.772454 442.231772 
L 480.805611 444.646873 
L 482.838768 445.250649 
L 484.871926 449.092856 
L 486.905083 447.885305 
L 488.93824 444.646873 
L 490.971397 443.713766 
L 493.004555 436.468461 
L 495.037712 432.79092 
L 497.070869 432.077367 
L 499.104026 433.010474 
L 501.137183 434.492469 
L 505.203498 442.176883 
L 507.236655 437.511346 
L 509.269812 434.712023 
L 511.30297 436.468461 
L 513.336127 432.955586 
L 515.369284 432.79092 
L 517.402441 433.99847 
L 519.435598 434.602246 
L 521.468756 436.633127 
L 523.501913 437.950455 
L 525.53507 443.10999 
L 527.568227 442.28666 
L 529.601385 437.895566 
L 531.634542 438.55423 
L 533.667699 439.981336 
L 535.700856 438.115121 
L 537.734013 437.621123 
L 539.767171 443.384434 
L 541.800328 446.677754 
L 543.833485 446.348422 
L 545.866642 445.470203 
L 547.8998 442.506215 
L 549.932957 437.182014 
L 551.966114 435.864685 
L 553.999271 442.176883 
L 558.065586 446.677754 
L 560.098743 444.317541 
L 562.1319 434.382691 
L 564.165057 433.17514 
L 566.198215 436.468461 
L 568.231372 435.864685 
L 570.264529 433.449584 
L 572.297686 435.645131 
L 574.330844 438.334676 
L 576.364001 440.365557 
L 578.397158 434.492469 
L 580.430315 431.473591 
L 582.463472 438.005344 
L 584.49663 441.902439 
L 586.529787 440.914443 
L 588.562944 447.940194 
L 590.596101 454.142614 
L 592.629259 446.128867 
L 594.662416 440.914443 
L 596.695573 439.597115 
L 598.72873 443.164879 
L 600.761887 443.768654 
L 602.795045 446.622865 
L 604.828202 448.763524 
L 606.861359 445.909313 
L 608.894516 442.451326 
L 610.927674 438.005344 
L 612.960831 436.08424 
L 614.993988 438.17001 
L 617.027145 445.360426 
L 619.060302 445.305537 
L 621.09346 446.183756 
L 623.126617 444.37243 
L 625.159774 439.212894 
L 627.192931 434.876689 
L 629.226089 433.833804 
L 633.292403 436.90757 
L 635.32556 436.90757 
L 637.358717 438.718896 
L 639.391875 442.012217 
L 641.425032 444.317541 
L 643.458189 444.482207 
L 645.491346 444.427318 
L 647.524504 441.847551 
L 649.557661 439.761781 
L 651.590818 445.689758 
L 653.623975 445.250649 
L 655.657132 443.329545 
L 657.69029 438.718896 
L 659.723447 436.688015 
L 661.756604 434.876689 
L 663.789761 436.742904 
L 665.822919 444.591985 
L 667.856076 455.075721 
L 669.889233 454.032836 
L 671.92239 448.434192 
L 673.955547 442.341549 
L 675.988705 439.871559 
L 678.021862 438.55423 
L 680.055019 443.439322 
L 682.088176 447.775528 
L 684.121334 450.465073 
L 686.154491 445.085983 
L 688.187648 437.072236 
L 690.220805 426.314056 
L 692.253962 425.655392 
L 694.28712 425.380949 
L 696.320277 429.662265 
L 698.353434 433.504472 
L 700.386591 431.748035 
L 702.419749 434.986467 
L 704.452906 441.298664 
L 710.552377 432.35181 
L 712.585535 430.650261 
L 714.618692 430.320929 
L 716.651849 436.413572 
L 718.685006 438.883562 
L 722.751321 443.164879 
L 724.784478 448.48908 
L 726.817635 447.775528 
L 728.850792 442.780658 
L 730.88395 438.773785 
L 732.917107 436.962459 
L 734.950264 438.718896 
L 736.983421 444.482207 
L 739.016579 445.250649 
L 741.049736 446.513088 
L 743.082893 441.573107 
L 745.11605 438.664008 
L 747.149208 436.248906 
L 749.182365 436.194017 
L 751.215522 439.542227 
L 753.248679 436.194017 
L 755.281836 436.358683 
L 757.314994 436.962459 
L 759.348151 433.888693 
L 761.381308 431.034482 
L 763.414465 434.547357 
L 765.447623 437.291791 
L 767.48078 441.133998 
L 769.513937 443.823543 
L 771.547094 444.097986 
L 773.580251 436.029351 
L 775.613409 433.669138 
L 777.646566 432.626254 
L 779.679723 436.194017 
L 781.71288 442.670881 
L 783.746038 447.446196 
L 785.779195 448.763524 
L 787.812352 447.720639 
L 789.845509 442.780658 
L 791.878666 438.444453 
L 793.911824 441.024221 
L 795.944981 439.377561 
L 797.978138 439.706893 
L 800.011295 439.706893 
L 802.044453 441.957328 
L 804.07761 446.183756 
L 806.110767 446.403311 
L 808.143924 440.310668 
L 810.177081 440.036225 
L 814.243396 441.573107 
L 816.276553 436.08424 
L 818.30971 438.279787 
L 820.342868 439.652004 
L 822.376025 443.219768 
L 824.409182 448.48908 
L 826.442339 445.305537 
L 828.475496 439.871559 
L 830.508654 437.127125 
L 832.541811 435.919574 
L 834.574968 438.17001 
L 836.608125 442.506215 
L 838.641283 446.073979 
L 842.707597 441.188887 
L 844.740754 442.067106 
L 846.773911 439.871559 
L 848.807069 441.627996 
L 850.840226 446.403311 
L 852.873383 445.250649 
L 854.90654 439.706893 
L 856.939698 438.609119 
L 858.972855 437.017348 
L 861.006012 437.127125 
L 863.039169 440.914443 
L 865.072326 443.878432 
L 867.105484 444.262652 
L 869.138641 447.061975 
L 871.171798 440.530223 
L 873.204955 440.530223 
L 875.238113 437.291791 
L 877.27127 434.382691 
L 879.304427 432.516476 
L 881.337584 440.365557 
L 883.370741 443.5491 
L 885.403899 443.439322 
L 887.437056 447.28153 
L 889.470213 444.701762 
L 891.50337 440.200891 
L 893.536528 434.602246 
L 895.569685 435.919574 
L 897.602842 438.828674 
L 899.635999 439.048228 
L 901.669156 436.468461 
L 903.702314 438.389564 
L 905.735471 440.530223 
L 907.768628 444.097986 
L 909.801785 443.274656 
L 911.834943 438.99334 
L 913.8681 437.34668 
L 915.901257 438.279787 
L 917.934414 437.291791 
L 919.967572 438.718896 
L 922.000729 437.072236 
L 924.033886 441.847551 
L 926.067043 443.384434 
L 928.1002 436.303795 
L 930.133358 439.048228 
L 932.166515 437.017348 
L 934.199672 438.718896 
L 936.232829 440.969332 
L 938.265987 444.207764 
L 940.299144 447.885305 
L 942.332301 439.267783 
L 944.365458 438.224898 
L 946.398615 433.833804 
L 948.431773 431.308925 
L 950.46493 428.125382 
L 952.498087 434.327803 
L 954.531244 441.133998 
L 956.564402 441.792662 
L 958.597559 439.542227 
L 960.630716 433.61425 
L 962.663873 441.133998 
L 964.69703 449.422188 
L 966.730188 448.214637 
L 968.763345 440.694889 
L 970.796502 440.914443 
L 972.829659 441.792662 
L 974.862817 444.537096 
L 976.895974 441.627996 
L 980.962288 440.091113 
L 982.995445 441.518219 
L 985.028603 437.072236 
L 987.06176 440.914443 
L 989.094917 449.037967 
L 991.128074 454.197502 
L 993.161232 456.063717 
L 995.194389 449.202633 
L 997.227546 443.93332 
L 999.260703 444.482207 
L 1001.29386 444.207764 
L 1003.327018 447.116864 
L 1005.360175 443.274656 
L 1007.393332 438.389564 
L 1009.426489 436.578238 
L 1011.459647 439.597115 
L 1013.492804 446.897309 
L 1015.525961 443.055102 
L 1017.559118 437.236902 
L 1019.592275 433.833804 
L 1023.65859 434.602246 
L 1025.691747 439.103117 
L 1029.758062 450.684627 
L 1031.791219 449.257522 
L 1033.824376 436.029351 
L 1035.857533 432.187144 
L 1037.89069 432.296922 
L 1039.923848 430.814927 
L 1041.957005 439.597115 
L 1043.990162 444.866428 
L 1046.023319 448.92819 
L 1048.056477 443.274656 
L 1050.089634 438.444453 
L 1052.122791 432.022478 
L 1054.155948 431.802924 
L 1056.189105 429.003601 
L 1058.222263 436.468461 
L 1062.288577 441.298664 
L 1064.321734 438.883562 
L 1066.354892 442.945324 
L 1068.388049 444.921317 
L 1070.421206 442.506215 
L 1074.48752 433.943582 
L 1076.520678 435.041355 
L 1078.553835 437.017348 
L 1080.586992 443.055102 
L 1082.620149 443.713766 
L 1084.653307 440.749777 
L 1086.686464 438.224898 
L 1088.719621 437.621123 
L 1092.785936 438.005344 
L 1094.819093 437.621123 
L 1096.85225 441.408441 
L 1098.885407 444.646873 
L 1100.918564 447.171752 
L 1102.951722 451.068848 
L 1104.984879 449.477076 
L 1107.018036 452.22151 
L 1109.051193 450.190629 
L 1111.084351 450.410184 
L 1113.117508 443.988209 
L 1115.150665 435.700019 
L 1117.183822 433.17514 
L 1121.250137 438.279787 
L 1123.283294 434.876689 
L 1125.316451 439.981336 
L 1127.349608 443.274656 
L 1129.382766 447.940194 
L 1131.415923 441.243775 
L 1133.44908 435.096244 
L 1135.482237 432.187144 
L 1137.515394 432.79092 
L 1139.548552 434.272914 
L 1141.581709 434.986467 
L 1143.614866 436.578238 
L 1145.648023 442.835547 
L 1147.681181 446.183756 
L 1149.714338 443.055102 
L 1151.747495 438.773785 
L 1153.780652 433.010474 
L 1155.813809 435.864685 
L 1157.846967 429.88182 
L 1159.880124 431.254037 
L 1161.913281 434.821801 
L 1163.946438 432.681142 
L 1165.979596 430.375818 
L 1168.012753 436.962459 
L 1170.04591 441.188887 
L 1172.079067 447.391307 
L 1174.112224 447.007086 
L 1176.145382 443.768654 
L 1178.178539 442.945324 
L 1180.211696 439.377561 
L 1182.244853 436.742904 
L 1184.278011 431.418703 
L 1186.311168 434.053359 
L 1188.344325 435.26091 
L 1192.410639 439.212894 
L 1194.443797 439.048228 
L 1196.476954 441.737773 
L 1198.510111 446.128867 
L 1200.543268 444.921317 
L 1202.576426 446.567977 
L 1204.609583 449.75152 
L 1206.64274 450.355295 
L 1208.675897 454.087725 
L 1210.709054 448.10486 
L 1212.742212 448.598858 
L 1214.775369 442.396438 
L 1216.808526 445.19576 
L 1218.841683 443.219768 
L 1220.874841 441.573107 
L 1222.907998 441.627996 
L 1224.941155 441.353553 
L 1226.974312 435.809797 
L 1229.007469 439.542227 
L 1231.040627 440.914443 
L 1233.073784 437.785789 
L 1235.106941 434.382691 
L 1237.140098 435.645131 
L 1239.173256 436.633127 
L 1241.206413 444.811539 
L 1243.23957 442.506215 
L 1245.272727 440.694889 
L 1245.272727 440.694889 
" clip-path="url(#p2e001eba42)" style="fill: none; stroke: #1f77b4; stroke-width: 1.5; stroke-linecap: square"/>
   </g>
   <g id="line2d_13">
    <path d="M 230.727273 536.530513 
L 232.76043 520.063911 
L 234.793587 504.859748 
L 236.826744 474.780755 
L 238.859902 431.912701 
L 240.893059 414.238548 
L 242.926216 446.513088 
L 244.959373 493.772236 
L 246.992531 521.32635 
L 249.025688 532.249197 
L 251.058845 533.237193 
L 253.092002 524.015895 
L 257.158317 480.763621 
L 259.191474 466.053456 
L 261.224631 468.029448 
L 263.257788 482.02606 
L 265.290946 488.118703 
L 267.324103 485.593824 
L 269.35726 482.84939 
L 271.390417 479.007183 
L 273.423574 471.816767 
L 277.489889 475.38453 
L 279.523046 470.279884 
L 281.556203 467.864782 
L 283.589361 472.365653 
L 285.622518 478.403408 
L 287.655675 480.104956 
L 289.688832 476.262749 
L 291.721989 474.231868 
L 293.755147 475.329642 
L 295.788304 472.420542 
L 297.821461 468.907667 
L 299.854618 471.871655 
L 303.920933 485.209603 
L 305.95409 484.550939 
L 307.987247 480.214734 
L 310.020404 479.94029 
L 312.053562 480.489177 
L 314.086719 478.128964 
L 316.119876 471.652101 
L 318.153033 468.907667 
L 320.186191 469.62122 
L 322.219348 478.238742 
L 324.252505 479.391404 
L 326.285662 475.274753 
L 328.318819 465.943679 
L 330.351977 462.375915 
L 332.385134 460.729255 
L 334.418291 464.900794 
L 336.451448 474.616089 
L 338.484606 473.024318 
L 340.517763 469.346776 
L 342.55092 467.590339 
L 344.584077 466.053456 
L 346.617234 471.26788 
L 348.650392 480.544066 
L 350.683549 482.410281 
L 352.716706 477.4703 
L 354.749863 471.542323 
L 358.816178 465.779013 
L 360.849335 466.437677 
L 362.882492 470.609216 
L 364.915649 475.933417 
L 368.981964 478.513185 
L 371.015121 478.019187 
L 373.048278 475.658974 
L 375.081436 470.279884 
L 377.114593 466.547454 
L 379.14775 468.249003 
L 383.214064 474.506312 
L 385.247222 476.701859 
L 387.280379 478.019187 
L 389.313536 475.494308 
L 391.346693 466.876786 
L 393.379851 466.053456 
L 395.413008 463.199245 
L 397.446165 467.864782 
L 399.479322 466.767009 
L 401.51248 469.895663 
L 403.545637 467.864782 
L 405.578794 467.53545 
L 407.611951 470.00544 
L 409.645108 467.864782 
L 411.678266 467.261007 
L 413.711423 474.780755 
L 415.74458 474.231868 
L 417.777737 466.437677 
L 419.810895 473.079206 
L 421.844052 476.372527 
L 423.877209 476.427415 
L 425.910366 476.921413 
L 427.943523 471.26788 
L 429.976681 469.676108 
L 432.009838 474.945421 
L 434.042995 476.592081 
L 438.10931 471.322769 
L 440.142467 465.559458 
L 442.175624 470.609216 
L 444.208781 467.755005 
L 446.241938 467.700116 
L 448.275096 482.684724 
L 450.308253 492.400019 
L 452.34141 489.930029 
L 454.374567 483.233611 
L 456.407725 475.933417 
L 458.440882 465.504569 
L 460.474039 458.753262 
L 462.507196 463.254134 
L 464.540353 478.403408 
L 466.573511 486.801375 
L 468.606668 484.166718 
L 470.639825 479.610958 
L 472.672982 472.255876 
L 474.70614 464.24213 
L 476.739297 465.779013 
L 478.772454 465.449681 
L 480.805611 470.499439 
L 482.838768 472.09121 
L 484.871926 466.327899 
L 486.905083 462.321026 
L 488.93824 462.650358 
L 490.971397 461.881917 
L 493.004555 466.382788 
L 497.070869 473.408538 
L 499.104026 478.513185 
L 501.137183 482.520058 
L 503.170341 477.909409 
L 505.203498 470.609216 
L 507.236655 474.945421 
L 509.269812 474.945421 
L 511.30297 474.451423 
L 513.336127 475.494308 
L 515.369284 479.226738 
L 517.402441 482.574947 
L 519.435598 480.489177 
L 521.468756 480.214734 
L 523.501913 476.427415 
L 525.53507 471.158103 
L 527.568227 470.883659 
L 529.601385 472.585208 
L 531.634542 467.151229 
L 533.667699 466.382788 
L 535.700856 472.255876 
L 537.734013 473.847648 
L 539.767171 470.664105 
L 541.800328 468.523446 
L 543.833485 467.645227 
L 545.866642 461.058587 
L 547.8998 462.485692 
L 549.932957 473.573204 
L 551.966114 476.537193 
L 553.999271 473.243872 
L 556.032428 470.828771 
L 558.065586 459.851036 
L 560.098743 461.497696 
L 562.1319 472.475431 
L 564.165057 472.475431 
L 566.198215 471.048325 
L 570.264529 482.904279 
L 572.297686 483.068945 
L 574.330844 472.365653 
L 576.364001 471.542323 
L 578.397158 479.720736 
L 580.430315 480.159845 
L 582.463472 476.482304 
L 584.49663 477.964298 
L 586.529787 480.3794 
L 590.596101 455.13061 
L 592.629259 462.869913 
L 594.662416 467.755005 
L 596.695573 466.986563 
L 598.72873 466.767009 
L 600.761887 470.609216 
L 602.795045 469.401665 
L 604.828202 464.681239 
L 606.861359 460.345034 
L 608.894516 461.497696 
L 610.927674 469.840774 
L 612.960831 477.360523 
L 614.993988 479.610958 
L 617.027145 473.792759 
L 619.060302 470.115218 
L 621.09346 466.71212 
L 623.126617 465.230126 
L 625.159774 472.036321 
L 627.192931 474.835644 
L 629.226089 472.91454 
L 631.259246 471.706989 
L 633.292403 472.694985 
L 635.32556 470.993437 
L 637.358717 473.847648 
L 639.391875 471.652101 
L 641.425032 468.79789 
L 643.458189 465.559458 
L 645.491346 465.120348 
L 647.524504 473.682982 
L 649.557661 472.530319 
L 651.590818 466.657231 
L 653.623975 465.88879 
L 655.657132 464.132352 
L 657.69029 463.309022 
L 659.723447 465.614347 
L 663.789761 482.080949 
L 665.822919 479.226738 
L 667.856076 469.236999 
L 669.889233 463.528577 
L 671.92239 463.473688 
L 673.955547 465.230126 
L 675.988705 470.828771 
L 678.021862 476.756747 
L 680.055019 475.933417 
L 682.088176 470.718993 
L 684.121334 464.022575 
L 686.154491 464.62635 
L 688.187648 466.931675 
L 690.220805 474.5612 
L 692.253962 482.684724 
L 694.28712 486.087822 
L 696.320277 485.374269 
L 698.353434 481.696728 
L 700.386591 483.947164 
L 702.419749 480.159845 
L 704.452906 471.212991 
L 706.486063 472.749874 
L 708.51922 471.981433 
L 710.552377 471.871655 
L 712.585535 475.988306 
L 714.618692 479.501181 
L 716.651849 478.183853 
L 718.685006 476.592081 
L 720.718164 473.902536 
L 722.751321 472.036321 
L 726.817635 464.351907 
L 728.850792 463.912798 
L 730.88395 467.261007 
L 732.917107 472.365653 
L 734.950264 474.780755 
L 736.983421 474.067202 
L 739.016579 471.926544 
L 741.049736 469.291888 
L 743.082893 468.743001 
L 745.11605 471.597212 
L 747.149208 475.604085 
L 749.182365 475.658974 
L 751.215522 473.298761 
L 753.248679 476.262749 
L 755.281836 472.585208 
L 757.314994 471.158103 
L 759.348151 476.043195 
L 761.381308 476.921413 
L 765.447623 476.262749 
L 769.513937 462.650358 
L 771.547094 462.485692 
L 773.580251 469.072333 
L 775.613409 474.616089 
L 777.646566 479.720736 
L 779.679723 482.080949 
L 781.71288 478.897406 
L 783.746038 471.212991 
L 785.779195 465.339903 
L 787.812352 462.430803 
L 789.845509 463.309022 
L 791.878666 464.516573 
L 793.911824 468.029448 
L 795.944981 473.024318 
L 797.978138 478.73274 
L 800.011295 480.159845 
L 802.044453 476.098083 
L 804.07761 468.633224 
L 806.110767 466.602343 
L 808.143924 469.511442 
L 810.177081 466.657231 
L 812.210239 465.943679 
L 814.243396 468.413669 
L 816.276553 475.988306 
L 818.30971 480.983175 
L 820.342868 483.2885 
L 822.376025 479.007183 
L 824.409182 466.931675 
L 826.442339 461.881917 
L 828.475496 466.986563 
L 830.508654 471.322769 
L 832.541811 478.019187 
L 834.574968 480.873398 
L 836.608125 472.365653 
L 838.641283 465.943679 
L 840.67444 467.315895 
L 842.707597 468.413669 
L 844.740754 472.09121 
L 846.773911 477.909409 
L 848.807069 473.73787 
L 850.840226 464.022575 
L 852.873383 460.784143 
L 854.90654 468.688112 
L 856.939698 473.792759 
L 858.972855 475.658974 
L 861.006012 475.164976 
L 863.039169 473.35365 
L 865.072326 473.188984 
L 867.105484 470.938548 
L 869.138641 465.559458 
L 871.171798 468.578335 
L 873.204955 467.041452 
L 875.238113 468.35878 
L 877.27127 473.463427 
L 879.304427 479.501181 
L 881.337584 477.086079 
L 883.370741 474.396534 
L 885.403899 469.456554 
L 887.437056 460.564589 
L 889.470213 459.466815 
L 891.50337 465.669235 
L 893.536528 474.231868 
L 895.569685 474.122091 
L 897.602842 472.036321 
L 899.635999 472.969429 
L 901.669156 474.231868 
L 903.702314 476.152972 
L 905.735471 473.73787 
L 907.768628 466.821897 
L 909.801785 465.339903 
L 911.834943 469.566331 
L 913.8681 472.200987 
L 915.901257 472.036321 
L 917.934414 473.024318 
L 919.967572 477.854521 
L 922.000729 481.312507 
L 924.033886 471.26788 
L 926.067043 466.876786 
L 928.1002 467.809894 
L 930.133358 469.401665 
L 932.166515 475.768751 
L 936.232829 480.324511 
L 938.265987 471.322769 
L 940.299144 465.06546 
L 942.332301 469.730997 
L 944.365458 473.408538 
L 946.398615 474.945421 
L 948.431773 477.250745 
L 950.46493 483.727609 
L 952.498087 480.434288 
L 954.531244 473.628093 
L 956.564402 470.499439 
L 958.597559 471.981433 
L 960.630716 479.610958 
L 962.663873 477.744743 
L 964.69703 468.523446 
L 966.730188 465.943679 
L 968.763345 469.950552 
L 970.796502 469.18211 
L 972.829659 472.585208 
L 974.862817 469.346776 
L 976.895974 470.170106 
L 978.929131 467.370784 
L 980.962288 465.285015 
L 982.995445 473.518316 
L 985.028603 482.465169 
L 987.06176 480.050068 
L 989.094917 476.64697 
L 991.128074 465.724124 
L 993.161232 457.381045 
L 995.194389 458.204376 
L 997.227546 466.327899 
L 999.260703 470.938548 
L 1001.29386 472.804763 
L 1003.327018 466.986563 
L 1005.360175 468.578335 
L 1007.393332 475.00031 
L 1009.426489 476.152972 
L 1011.459647 472.255876 
L 1013.492804 465.06546 
L 1015.525961 465.285015 
L 1017.559118 465.120348 
L 1019.592275 468.688112 
L 1021.625433 478.622962 
L 1023.65859 490.149584 
L 1025.691747 487.954037 
L 1027.724904 480.763621 
L 1029.758062 465.449681 
L 1031.791219 458.753262 
L 1033.824376 462.705247 
L 1035.857533 469.127222 
L 1037.89069 478.952294 
L 1039.923848 486.526931 
L 1041.957005 484.770494 
L 1043.990162 475.164976 
L 1046.023319 465.010571 
L 1048.056477 462.046583 
L 1050.089634 463.967686 
L 1052.122791 474.506312 
L 1054.155948 484.221607 
L 1056.189105 485.978045 
L 1058.222263 477.086079 
L 1060.25542 473.243872 
L 1062.288577 471.926544 
L 1064.321734 472.585208 
L 1066.354892 468.029448 
L 1068.388049 463.912798 
L 1070.421206 464.187241 
L 1072.454363 465.504569 
L 1074.48752 472.91454 
L 1076.520678 478.622962 
L 1078.553835 477.031191 
L 1080.586992 467.425673 
L 1082.620149 463.583466 
L 1084.653307 464.736128 
L 1086.686464 467.919671 
L 1088.719621 472.200987 
L 1090.752778 473.463427 
L 1092.785936 470.170106 
L 1094.819093 473.73787 
L 1096.85225 474.890532 
L 1098.885407 474.780755 
L 1100.918564 470.664105 
L 1102.951722 470.773882 
L 1104.984879 471.26788 
L 1107.018036 465.394792 
L 1109.051193 463.309022 
L 1111.084351 456.393049 
L 1113.117508 464.406796 
L 1115.150665 474.17698 
L 1117.183822 479.94029 
L 1119.216979 476.317638 
L 1121.250137 475.988306 
L 1123.283294 482.794501 
L 1125.316451 480.598955 
L 1127.349608 473.682982 
L 1129.382766 462.924802 
L 1131.415923 464.297018 
L 1133.44908 467.151229 
L 1135.482237 473.73787 
L 1137.515394 476.592081 
L 1139.548552 478.183853 
L 1141.581709 483.068945 
L 1143.614866 482.245615 
L 1145.648023 475.110087 
L 1147.681181 470.060329 
L 1149.714338 465.394792 
L 1151.747495 467.645227 
L 1153.780652 472.475431 
L 1155.813809 473.35365 
L 1157.846967 483.343388 
L 1159.880124 476.921413 
L 1161.913281 472.420542 
L 1163.946438 474.17698 
L 1165.979596 481.147841 
L 1168.012753 480.214734 
L 1172.079067 466.218122 
L 1174.112224 466.053456 
L 1176.145382 469.18211 
L 1178.178539 467.53545 
L 1180.211696 468.139226 
L 1182.244853 470.279884 
L 1184.278011 477.580077 
L 1186.311168 478.897406 
L 1188.344325 479.501181 
L 1190.377482 476.207861 
L 1192.410639 477.305634 
L 1194.443797 476.537193 
L 1196.476954 474.396534 
L 1198.510111 470.389661 
L 1200.543268 472.969429 
L 1202.576426 471.652101 
L 1204.609583 467.151229 
L 1208.675897 454.362168 
L 1210.709054 458.259264 
L 1212.742212 461.881917 
L 1214.775369 468.249003 
L 1216.808526 467.645227 
L 1218.841683 469.401665 
L 1220.874841 469.346776 
L 1222.907998 470.773882 
L 1224.941155 477.4703 
L 1226.974312 479.720736 
L 1229.007469 475.00031 
L 1231.040627 470.883659 
L 1233.073784 469.127222 
L 1235.106941 475.219864 
L 1237.140098 482.190726 
L 1239.173256 478.622962 
L 1241.206413 468.194114 
L 1243.23957 470.279884 
L 1245.272727 470.060329 
L 1245.272727 470.060329 
" clip-path="url(#p2e001eba42)" style="fill: none; stroke: #ff7f0e; stroke-width: 1.5; stroke-linecap: square"/>
   </g>
   <g id="line2d_14">
    <path d="M 230.727273 539.000503 
L 232.76043 508.866621 
L 234.793587 475.82364 
L 236.826744 474.725866 
L 240.893059 540.702052 
L 242.926216 554.04 
L 244.959373 545.696922 
L 246.992531 527.034773 
L 249.025688 500.852875 
L 251.058845 473.188984 
L 253.092002 457.435934 
L 255.125159 463.857909 
L 257.158317 482.080949 
L 259.191474 498.108441 
L 261.224631 505.518412 
L 263.257788 501.511539 
L 265.290946 496.352004 
L 267.324103 488.118703 
L 269.35726 483.2885 
L 273.423574 483.837386 
L 275.456732 485.978045 
L 277.489889 485.209603 
L 279.523046 487.020929 
L 281.556203 489.161588 
L 283.589361 488.173591 
L 285.622518 487.844259 
L 287.655675 485.75849 
L 289.688832 486.636709 
L 291.721989 487.844259 
L 293.755147 485.75849 
L 295.788304 490.259361 
L 297.821461 492.400019 
L 301.887776 489.436031 
L 303.920933 484.770494 
L 305.95409 483.343388 
L 307.987247 482.959167 
L 310.020404 482.300503 
L 312.053562 483.233611 
L 314.086719 482.739613 
L 316.119876 489.106699 
L 318.153033 493.827125 
L 320.186191 490.478916 
L 322.219348 486.362265 
L 324.252505 481.367396 
L 326.285662 482.410281 
L 328.318819 482.190726 
L 330.351977 487.40515 
L 332.385134 489.49092 
L 334.418291 488.502924 
L 336.451448 485.593824 
L 340.517763 486.032933 
L 342.55092 489.545808 
L 344.584077 493.882014 
L 346.617234 492.839129 
L 348.650392 488.22848 
L 350.683549 482.904279 
L 354.749863 483.343388 
L 356.783021 488.942033 
L 358.816178 495.089564 
L 362.882492 494.705344 
L 364.915649 491.576689 
L 366.948807 489.49092 
L 368.981964 484.550939 
L 371.015121 483.727609 
L 373.048278 479.501181 
L 375.081436 486.142711 
L 377.114593 491.466912 
L 379.14775 492.015799 
L 381.180907 488.22848 
L 383.214064 483.508054 
L 385.247222 480.653843 
L 387.280379 477.580077 
L 389.313536 479.775624 
L 391.346693 480.3794 
L 393.379851 483.343388 
L 395.413008 487.185595 
L 397.446165 489.820252 
L 399.479322 493.003795 
L 401.51248 489.984918 
L 403.545637 488.22848 
L 405.578794 485.209603 
L 407.611951 484.49605 
L 409.645108 486.856263 
L 411.678266 491.302246 
L 413.711423 487.185595 
L 415.74458 485.703601 
L 417.777737 487.954037 
L 419.810895 485.538935 
L 421.844052 485.868267 
L 423.877209 483.782498 
L 425.910366 483.562943 
L 427.943523 486.032933 
L 429.976681 486.911152 
L 432.009838 482.465169 
L 434.042995 481.257619 
L 436.076152 480.928287 
L 438.10931 483.398277 
L 440.142467 487.240484 
L 442.175624 488.996922 
L 444.208781 493.936902 
L 446.241938 496.242227 
L 448.275096 489.710474 
L 450.308253 480.3794 
L 452.34141 474.17698 
L 454.374567 471.103214 
L 456.407725 473.73787 
L 458.440882 484.825382 
L 460.474039 495.144453 
L 462.507196 498.382885 
L 464.540353 492.290242 
L 466.573511 483.508054 
L 468.606668 478.842517 
L 470.639825 477.250745 
L 472.672982 484.331384 
L 474.70614 488.887144 
L 476.739297 491.027803 
L 478.772454 491.412023 
L 480.805611 483.947164 
L 482.838768 481.751617 
L 484.871926 483.67272 
L 486.905083 488.887144 
L 488.93824 491.796244 
L 490.971397 493.497793 
L 493.004555 496.242227 
L 495.037712 496.352004 
L 497.070869 493.60757 
L 499.104026 487.569816 
L 501.137183 482.080949 
L 503.170341 482.794501 
L 505.203498 486.307377 
L 507.236655 486.636709 
L 509.269812 489.436031 
L 511.30297 488.173591 
L 513.336127 490.643582 
L 515.369284 487.075818 
L 517.402441 482.520058 
L 519.435598 484.002052 
L 521.468756 482.245615 
L 523.501913 484.715605 
L 525.53507 484.825382 
L 527.568227 485.923156 
L 529.601385 488.612701 
L 531.634542 493.388015 
L 533.667699 492.729351 
L 535.700856 488.722478 
L 537.734013 487.624705 
L 539.767171 485.044937 
L 541.800328 483.892275 
L 543.833485 485.099826 
L 545.866642 492.564685 
L 547.8998 494.101568 
L 549.932957 488.338258 
L 551.966114 486.691597 
L 553.999271 483.67272 
L 556.032428 483.892275 
L 558.065586 492.564685 
L 560.098743 493.278238 
L 562.1319 492.235353 
L 564.165057 493.442904 
L 566.198215 491.576689 
L 568.231372 486.142711 
L 570.264529 482.739613 
L 572.297686 480.3794 
L 574.330844 488.393146 
L 576.364001 487.185595 
L 578.397158 484.880271 
L 580.430315 487.460039 
L 582.463472 484.605828 
L 584.49663 479.226738 
L 586.529787 477.799632 
L 588.562944 483.398277 
L 590.596101 489.820252 
L 594.662416 490.424027 
L 596.695573 492.509797 
L 598.72873 489.161588 
L 600.761887 484.715605 
L 602.795045 483.068945 
L 604.828202 485.648712 
L 606.861359 492.839129 
L 608.894516 495.144453 
L 610.927674 491.247357 
L 612.960831 485.648712 
L 614.993988 481.312507 
L 617.027145 479.94029 
L 619.060302 483.67272 
L 621.09346 486.197599 
L 623.126617 489.49092 
L 625.159774 487.844259 
L 627.192931 489.381142 
L 629.226089 492.345131 
L 631.259246 491.96091 
L 633.292403 489.49092 
L 635.32556 491.192469 
L 637.358717 486.526931 
L 639.391875 485.429158 
L 641.425032 485.978045 
L 643.458189 489.05181 
L 645.491346 489.545808 
L 647.524504 483.562943 
L 649.557661 486.801375 
L 651.590818 486.746486 
L 653.623975 487.954037 
L 655.657132 491.631578 
L 657.69029 497.065557 
L 659.723447 496.791113 
L 661.756604 490.259361 
L 663.789761 480.269622 
L 665.822919 475.274753 
L 667.856076 474.780755 
L 669.889233 481.532062 
L 671.92239 487.185595 
L 673.955547 491.521801 
L 675.988705 488.393146 
L 678.021862 483.782498 
L 680.055019 479.720736 
L 682.088176 480.598955 
L 684.121334 484.605828 
L 686.154491 489.381142 
L 688.187648 495.089564 
L 690.220805 498.218219 
L 692.253962 490.753359 
L 694.28712 487.624705 
L 696.320277 484.056941 
L 698.353434 483.892275 
L 700.386591 483.398277 
L 702.419749 483.947164 
L 704.452906 486.58182 
L 706.486063 488.008925 
L 708.51922 491.741355 
L 710.552377 494.87001 
L 712.585535 492.454908 
L 714.618692 489.271365 
L 716.651849 484.49605 
L 718.685006 483.617832 
L 720.718164 484.221607 
L 722.751321 483.892275 
L 724.784478 482.520058 
L 726.817635 486.966041 
L 728.850792 492.400019 
L 730.88395 493.058683 
L 732.917107 489.765363 
L 734.950264 485.593824 
L 736.983421 480.544066 
L 741.049736 483.2885 
L 743.082893 488.777367 
L 745.11605 488.832256 
L 747.149208 487.240484 
L 749.182365 487.240484 
L 751.215522 486.252488 
L 753.248679 486.636709 
L 755.281836 490.149584 
L 757.314994 490.972914 
L 759.348151 489.161588 
L 761.381308 491.13758 
L 763.414465 488.008925 
L 765.447623 485.538935 
L 767.48078 488.393146 
L 769.513937 492.619574 
L 771.547094 492.509797 
L 773.580251 493.991791 
L 775.613409 490.808248 
L 777.646566 486.746486 
L 779.679723 480.818509 
L 781.71288 477.525189 
L 783.746038 480.434288 
L 785.779195 484.990048 
L 789.845509 493.003795 
L 791.878666 496.132449 
L 793.911824 490.039806 
L 795.944981 486.691597 
L 797.978138 480.653843 
L 800.011295 479.226738 
L 802.044453 481.038064 
L 804.07761 484.276496 
L 806.110767 486.087822 
L 810.177081 492.400019 
L 812.210239 492.345131 
L 814.243396 489.106699 
L 816.276553 487.020929 
L 818.30971 479.830513 
L 820.342868 476.152972 
L 822.376025 476.866525 
L 824.409182 483.67272 
L 826.442339 491.906021 
L 828.475496 492.235353 
L 830.508654 490.643582 
L 832.541811 485.154714 
L 834.574968 480.050068 
L 836.608125 484.221607 
L 838.641283 487.075818 
L 840.67444 488.063814 
L 842.707597 489.49092 
L 844.740754 484.93516 
L 846.773911 481.312507 
L 848.807069 483.727609 
L 850.840226 488.66759 
L 852.873383 493.058683 
L 854.90654 490.69847 
L 856.939698 486.691597 
L 858.972855 486.417154 
L 861.006012 486.801375 
L 863.039169 484.825382 
L 865.072326 482.02606 
L 867.105484 483.892275 
L 869.138641 486.472043 
L 871.171798 489.984918 
L 873.204955 491.521801 
L 875.238113 493.442904 
L 877.27127 491.247357 
L 879.304427 487.075818 
L 881.337584 481.641839 
L 883.370741 481.147841 
L 887.437056 491.247357 
L 889.470213 494.924898 
L 891.50337 493.223349 
L 893.536528 490.259361 
L 895.569685 489.05181 
L 897.602842 488.22848 
L 899.635999 487.075818 
L 901.669156 488.393146 
L 903.702314 484.550939 
L 905.735471 484.825382 
L 907.768628 488.173591 
L 909.801785 490.478916 
L 911.834943 490.533804 
L 913.8681 489.545808 
L 915.901257 488.777367 
L 917.934414 488.777367 
L 919.967572 482.520058 
L 922.000729 480.708732 
L 924.033886 485.978045 
L 926.067043 488.832256 
L 928.1002 494.979787 
L 932.166515 486.307377 
L 934.199672 482.245615 
L 936.232829 477.799632 
L 938.265987 483.562943 
L 940.299144 486.142711 
L 942.332301 490.094695 
L 944.365458 487.460039 
L 946.398615 490.31425 
L 948.431773 490.533804 
L 950.46493 487.240484 
L 952.498087 484.331384 
L 954.531244 484.331384 
L 956.564402 486.801375 
L 958.597559 487.569816 
L 960.630716 485.868267 
L 962.663873 480.214734 
L 964.69703 481.147841 
L 966.730188 484.93516 
L 968.763345 488.448035 
L 970.796502 488.996922 
L 972.829659 484.715605 
L 974.862817 485.209603 
L 976.895974 487.295373 
L 978.929131 490.918025 
L 980.962288 493.717348 
L 982.995445 484.056941 
L 985.028603 479.55607 
L 987.06176 478.128964 
L 989.094917 473.408538 
L 991.128074 479.171849 
L 993.161232 485.648712 
L 995.194389 491.686467 
L 997.227546 488.832256 
L 999.260703 483.67272 
L 1001.29386 482.080949 
L 1003.327018 484.990048 
L 1005.360175 487.240484 
L 1007.393332 485.703601 
L 1009.426489 486.362265 
L 1011.459647 487.240484 
L 1013.492804 487.130707 
L 1015.525961 490.753359 
L 1017.559118 496.736225 
L 1019.592275 496.571559 
L 1021.625433 486.197599 
L 1023.65859 474.341646 
L 1025.691747 472.036321 
L 1027.724904 473.35365 
L 1029.758062 482.959167 
L 1031.791219 491.082691 
L 1033.824376 500.358877 
L 1035.857533 497.779109 
L 1037.89069 487.844259 
L 1039.923848 481.751617 
L 1041.957005 474.725866 
L 1043.990162 479.062072 
L 1046.023319 485.154714 
L 1048.056477 493.772236 
L 1050.089634 496.681336 
L 1052.122791 492.564685 
L 1054.155948 483.068945 
L 1056.189105 484.11183 
L 1060.25542 486.966041 
L 1062.288577 485.868267 
L 1064.321734 487.624705 
L 1066.354892 488.118703 
L 1070.421206 492.400019 
L 1072.454363 495.473785 
L 1074.48752 492.235353 
L 1076.520678 485.429158 
L 1078.553835 485.044937 
L 1080.586992 488.612701 
L 1082.620149 491.796244 
L 1084.653307 493.60757 
L 1086.686464 492.948906 
L 1088.719621 489.271365 
L 1090.752778 487.844259 
L 1092.785936 490.918025 
L 1094.819093 487.734482 
L 1096.85225 482.794501 
L 1098.885407 479.665847 
L 1100.918564 481.257619 
L 1102.951722 477.250745 
L 1104.984879 478.348519 
L 1107.018036 481.477173 
L 1109.051193 485.593824 
L 1111.084351 492.290242 
L 1115.150665 489.216476 
L 1117.183822 485.978045 
L 1119.216979 487.020929 
L 1121.250137 484.825382 
L 1123.283294 481.422285 
L 1125.316451 478.513185 
L 1127.349608 482.135837 
L 1129.382766 488.22848 
L 1131.415923 493.552682 
L 1133.44908 496.846002 
L 1137.515394 489.710474 
L 1139.548552 486.636709 
L 1141.581709 481.038064 
L 1143.614866 480.269622 
L 1145.648023 481.147841 
L 1147.681181 482.84939 
L 1149.714338 490.643582 
L 1151.747495 492.674463 
L 1153.780652 493.60757 
L 1155.813809 489.87514 
L 1157.846967 485.868267 
L 1159.880124 490.918025 
L 1161.913281 491.851133 
L 1163.946438 492.235353 
L 1165.979596 487.569816 
L 1168.012753 481.916283 
L 1170.04591 484.605828 
L 1172.079067 485.484046 
L 1174.112224 486.032933 
L 1176.145382 486.142711 
L 1178.178539 488.612701 
L 1180.211696 491.576689 
L 1182.244853 492.070687 
L 1184.278011 490.094695 
L 1186.311168 486.142711 
L 1188.344325 484.331384 
L 1190.377482 485.703601 
L 1192.410639 482.574947 
L 1194.443797 483.508054 
L 1196.476954 482.959167 
L 1198.510111 482.574947 
L 1200.543268 481.20273 
L 1202.576426 480.873398 
L 1204.609583 482.190726 
L 1206.64274 487.954037 
L 1208.675897 490.643582 
L 1210.709054 492.729351 
L 1212.742212 488.612701 
L 1214.775369 488.448035 
L 1216.808526 486.252488 
L 1218.841683 486.472043 
L 1220.874841 488.173591 
L 1222.907998 486.691597 
L 1224.941155 480.269622 
L 1226.974312 483.562943 
L 1229.007469 484.550939 
L 1231.040627 487.295373 
L 1233.073784 492.180465 
L 1235.106941 489.49092 
L 1237.140098 481.257619 
L 1239.173256 483.837386 
L 1241.206413 486.087822 
L 1243.23957 486.307377 
L 1245.272727 488.338258 
L 1245.272727 488.338258 
" clip-path="url(#p2e001eba42)" style="fill: none; stroke: #2ca02c; stroke-width: 1.5; stroke-linecap: square"/>
   </g>
   <g id="line2d_15">
    <path d="M 230.727273 100.44 
L 1245.272727 100.44 
L 1245.272727 100.44 
" clip-path="url(#p2e001eba42)" style="fill: none; stroke: #d62728; stroke-width: 1.5; stroke-linecap: square"/>
   </g>
   <g id="patch_3">
    <path d="M 180 576.72 
L 180 77.76 
" style="fill: none; stroke: #000000; stroke-width: 0.8; stroke-linejoin: miter; stroke-linecap: square"/>
   </g>
   <g id="patch_4">
    <path d="M 1296 576.72 
L 1296 77.76 
" style="fill: none; stroke: #000000; stroke-width: 0.8; stroke-linejoin: miter; stroke-linecap: square"/>
   </g>
   <g id="patch_5">
    <path d="M 180 576.72 
L 1296 576.72 
" style="fill: none; stroke: #000000; stroke-width: 0.8; stroke-linejoin: miter; stroke-linecap: square"/>
   </g>
   <g id="patch_6">
    <path d="M 180 77.76 
L 1296 77.76 
" style="fill: none; stroke: #000000; stroke-width: 0.8; stroke-linejoin: miter; stroke-linecap: square"/>
   </g>
   <g id="text_14">
    <!-- Analysis of populations in Predator-Prey CA -->
    <g transform="translate(608.762812 71.76) scale(0.12 -0.12)">
     <defs>
      <path id="DejaVuSans-41" d="M 2188 4044 
L 1331 1722 
L 3047 1722 
L 2188 4044 
z
M 1831 4666 
L 2547 4666 
L 4325 0 
L 3669 0 
L 3244 1197 
L 1141 1197 
L 716 0 
L 50 0 
L 1831 4666 
z
" transform="scale(0.015625)"/>
      <path id="DejaVuSans-20" transform="scale(0.015625)"/>
      <path id="DejaVuSans-66" d="M 2375 4863 
L 2375 4384 
L 1825 4384 
Q 1516 4384 1395 4259 
Q 1275 4134 1275 3809 
L 1275 3500 
L 2222 3500 
L 2222 3053 
L 1275 3053 
L 1275 0 
L 697 0 
L 697 3053 
L 147 3053 
L 147 3500 
L 697 3500 
L 697 3744 
Q 697 4328 969 4595 
Q 1241 4863 1831 4863 
L 2375 4863 
z
" transform="scale(0.015625)"/>
      <path id="DejaVuSans-72" d="M 2631 2963 
Q 2534 3019 2420 3045 
Q 2306 3072 2169 3072 
Q 1681 3072 1420 2755 
Q 1159 2438 1159 1844 
L 1159 0 
L 581 0 
L 581 3500 
L 1159 3500 
L 1159 2956 
Q 1341 3275 1631 3429 
Q 1922 3584 2338 3584 
Q 2397 3584 2469 3576 
Q 2541 3569 2628 3553 
L 2631 2963 
z
" transform="scale(0.015625)"/>
      <path id="DejaVuSans-65" d="M 3597 1894 
L 3597 1613 
L 953 1613 
Q 991 1019 1311 708 
Q 1631 397 2203 397 
Q 2534 397 2845 478 
Q 3156 559 3463 722 
L 3463 178 
Q 3153 47 2828 -22 
Q 2503 -91 2169 -91 
Q 1331 -91 842 396 
Q 353 884 353 1716 
Q 353 2575 817 3079 
Q 1281 3584 2069 3584 
Q 2775 3584 3186 3129 
Q 3597 2675 3597 1894 
z
M 3022 2063 
Q 3016 2534 2758 2815 
Q 2500 3097 2075 3097 
Q 1594 3097 1305 2825 
Q 1016 2553 972 2059 
L 3022 2063 
z
" transform="scale(0.015625)"/>
      <path id="DejaVuSans-64" d="M 2906 2969 
L 2906 4863 
L 3481 4863 
L 3481 0 
L 2906 0 
L 2906 525 
Q 2725 213 2448 61 
Q 2172 -91 1784 -91 
Q 1150 -91 751 415 
Q 353 922 353 1747 
Q 353 2572 751 3078 
Q 1150 3584 1784 3584 
Q 2172 3584 2448 3432 
Q 2725 3281 2906 2969 
z
M 947 1747 
Q 947 1113 1208 752 
Q 1469 391 1925 391 
Q 2381 391 2643 752 
Q 2906 1113 2906 1747 
Q 2906 2381 2643 2742 
Q 2381 3103 1925 3103 
Q 1469 3103 1208 2742 
Q 947 2381 947 1747 
z
" transform="scale(0.015625)"/>
      <path id="DejaVuSans-2d" d="M 313 2009 
L 1997 2009 
L 1997 1497 
L 313 1497 
L 313 2009 
z
" transform="scale(0.015625)"/>
      <path id="DejaVuSans-43" d="M 4122 4306 
L 4122 3641 
Q 3803 3938 3442 4084 
Q 3081 4231 2675 4231 
Q 1875 4231 1450 3742 
Q 1025 3253 1025 2328 
Q 1025 1406 1450 917 
Q 1875 428 2675 428 
Q 3081 428 3442 575 
Q 3803 722 4122 1019 
L 4122 359 
Q 3791 134 3420 21 
Q 3050 -91 2638 -91 
Q 1578 -91 968 557 
Q 359 1206 359 2328 
Q 359 3453 968 4101 
Q 1578 4750 2638 4750 
Q 3056 4750 3426 4639 
Q 3797 4528 4122 4306 
z
" transform="scale(0.015625)"/>
     </defs>
     <use xlink:href="#DejaVuSans-41"/>
     <use xlink:href="#DejaVuSans-6e" x="68.408203"/>
     <use xlink:href="#DejaVuSans-61" x="131.787109"/>
     <use xlink:href="#DejaVuSans-6c" x="193.066406"/>
     <use xlink:href="#DejaVuSans-79" x="220.849609"/>
     <use xlink:href="#DejaVuSans-73" x="280.029297"/>
     <use xlink:href="#DejaVuSans-69" x="332.128906"/>
     <use xlink:href="#DejaVuSans-73" x="359.912109"/>
     <use xlink:href="#DejaVuSans-20" x="412.011719"/>
     <use xlink:href="#DejaVuSans-6f" x="443.798828"/>
     <use xlink:href="#DejaVuSans-66" x="504.980469"/>
     <use xlink:href="#DejaVuSans-20" x="540.185547"/>
     <use xlink:href="#DejaVuSans-70" x="571.972656"/>
     <use xlink:href="#DejaVuSans-6f" x="635.449219"/>
     <use xlink:href="#DejaVuSans-70" x="696.630859"/>
     <use xlink:href="#DejaVuSans-75" x="760.107422"/>
     <use xlink:href="#DejaVuSans-6c" x="823.486328"/>
     <use xlink:href="#DejaVuSans-61" x="851.269531"/>
     <use xlink:href="#DejaVuSans-74" x="912.548828"/>
     <use xlink:href="#DejaVuSans-69" x="951.757812"/>
     <use xlink:href="#DejaVuSans-6f" x="979.541016"/>
     <use xlink:href="#DejaVuSans-6e" x="1040.722656"/>
     <use xlink:href="#DejaVuSans-73" x="1104.101562"/>
     <use xlink:href="#DejaVuSans-20" x="1156.201172"/>
     <use xlink:href="#DejaVuSans-69" x="1187.988281"/>
     <use xlink:href="#DejaVuSans-6e" x="1215.771484"/>
     <use xlink:href="#DejaVuSans-20" x="1279.150391"/>
     <use xlink:href="#DejaVuSans-50" x="1310.9375"/>
     <use xlink:href="#DejaVuSans-72" x="1369.490234"/>
     <use xlink:href="#DejaVuSans-65" x="1408.353516"/>
     <use xlink:href="#DejaVuSans-64" x="1469.876953"/>
     <use xlink:href="#DejaVuSans-61" x="1533.353516"/>
     <use xlink:href="#DejaVuSans-74" x="1594.632812"/>
     <use xlink:href="#DejaVuSans-6f" x="1633.841797"/>
     <use xlink:href="#DejaVuSans-72" x="1695.023438"/>
     <use xlink:href="#DejaVuSans-2d" x="1729.761719"/>
     <use xlink:href="#DejaVuSans-50" x="1765.845703"/>
     <use xlink:href="#DejaVuSans-72" x="1824.398438"/>
     <use xlink:href="#DejaVuSans-65" x="1863.261719"/>
     <use xlink:href="#DejaVuSans-79" x="1924.785156"/>
     <use xlink:href="#DejaVuSans-20" x="1983.964844"/>
     <use xlink:href="#DejaVuSans-43" x="2015.751953"/>
     <use xlink:href="#DejaVuSans-41" x="2085.576172"/>
    </g>
   </g>
   <g id="legend_1">
    <g id="patch_7">
     <path d="M 1187.028125 571.72 
L 1289 571.72 
Q 1291 571.72 1291 569.72 
L 1291 512.0075 
Q 1291 510.0075 1289 510.0075 
L 1187.028125 510.0075 
Q 1185.028125 510.0075 1185.028125 512.0075 
L 1185.028125 569.72 
Q 1185.028125 571.72 1187.028125 571.72 
z
" style="fill: #ffffff; opacity: 0.8; stroke: #cccccc; stroke-linejoin: miter"/>
    </g>
    <g id="line2d_16">
     <path d="M 1189.028125 518.105937 
L 1199.028125 518.105937 
L 1209.028125 518.105937 
" style="fill: none; stroke: #1f77b4; stroke-width: 1.5; stroke-linecap: square"/>
    </g>
    <g id="text_15">
     <!-- Empty spaces -->
     <g transform="translate(1217.028125 521.605937) scale(0.1 -0.1)">
      <defs>
       <path id="DejaVuSans-45" d="M 628 4666 
L 3578 4666 
L 3578 4134 
L 1259 4134 
L 1259 2753 
L 3481 2753 
L 3481 2222 
L 1259 2222 
L 1259 531 
L 3634 531 
L 3634 0 
L 628 0 
L 628 4666 
z
" transform="scale(0.015625)"/>
       <path id="DejaVuSans-6d" d="M 3328 2828 
Q 3544 3216 3844 3400 
Q 4144 3584 4550 3584 
Q 5097 3584 5394 3201 
Q 5691 2819 5691 2113 
L 5691 0 
L 5113 0 
L 5113 2094 
Q 5113 2597 4934 2840 
Q 4756 3084 4391 3084 
Q 3944 3084 3684 2787 
Q 3425 2491 3425 1978 
L 3425 0 
L 2847 0 
L 2847 2094 
Q 2847 2600 2669 2842 
Q 2491 3084 2119 3084 
Q 1678 3084 1418 2786 
Q 1159 2488 1159 1978 
L 1159 0 
L 581 0 
L 581 3500 
L 1159 3500 
L 1159 2956 
Q 1356 3278 1631 3431 
Q 1906 3584 2284 3584 
Q 2666 3584 2933 3390 
Q 3200 3197 3328 2828 
z
" transform="scale(0.015625)"/>
       <path id="DejaVuSans-63" d="M 3122 3366 
L 3122 2828 
Q 2878 2963 2633 3030 
Q 2388 3097 2138 3097 
Q 1578 3097 1268 2742 
Q 959 2388 959 1747 
Q 959 1106 1268 751 
Q 1578 397 2138 397 
Q 2388 397 2633 464 
Q 2878 531 3122 666 
L 3122 134 
Q 2881 22 2623 -34 
Q 2366 -91 2075 -91 
Q 1284 -91 818 406 
Q 353 903 353 1747 
Q 353 2603 823 3093 
Q 1294 3584 2113 3584 
Q 2378 3584 2631 3529 
Q 2884 3475 3122 3366 
z
" transform="scale(0.015625)"/>
      </defs>
      <use xlink:href="#DejaVuSans-45"/>
      <use xlink:href="#DejaVuSans-6d" x="63.183594"/>
      <use xlink:href="#DejaVuSans-70" x="160.595703"/>
      <use xlink:href="#DejaVuSans-74" x="224.072266"/>
      <use xlink:href="#DejaVuSans-79" x="263.28125"/>
      <use xlink:href="#DejaVuSans-20" x="322.460938"/>
      <use xlink:href="#DejaVuSans-73" x="354.248047"/>
      <use xlink:href="#DejaVuSans-70" x="406.347656"/>
      <use xlink:href="#DejaVuSans-61" x="469.824219"/>
      <use xlink:href="#DejaVuSans-63" x="531.103516"/>
      <use xlink:href="#DejaVuSans-65" x="586.083984"/>
      <use xlink:href="#DejaVuSans-73" x="647.607422"/>
     </g>
    </g>
    <g id="line2d_17">
     <path d="M 1189.028125 532.784063 
L 1199.028125 532.784063 
L 1209.028125 532.784063 
" style="fill: none; stroke: #ff7f0e; stroke-width: 1.5; stroke-linecap: square"/>
    </g>
    <g id="text_16">
     <!-- Predators -->
     <g transform="translate(1217.028125 536.284063) scale(0.1 -0.1)">
      <use xlink:href="#DejaVuSans-50"/>
      <use xlink:href="#DejaVuSans-72" x="58.552734"/>
      <use xlink:href="#DejaVuSans-65" x="97.416016"/>
      <use xlink:href="#DejaVuSans-64" x="158.939453"/>
      <use xlink:href="#DejaVuSans-61" x="222.416016"/>
      <use xlink:href="#DejaVuSans-74" x="283.695312"/>
      <use xlink:href="#DejaVuSans-6f" x="322.904297"/>
      <use xlink:href="#DejaVuSans-72" x="384.085938"/>
      <use xlink:href="#DejaVuSans-73" x="425.199219"/>
     </g>
    </g>
    <g id="line2d_18">
     <path d="M 1189.028125 547.462188 
L 1199.028125 547.462188 
L 1209.028125 547.462188 
" style="fill: none; stroke: #2ca02c; stroke-width: 1.5; stroke-linecap: square"/>
    </g>
    <g id="text_17">
     <!-- Preys -->
     <g transform="translate(1217.028125 550.962188) scale(0.1 -0.1)">
      <use xlink:href="#DejaVuSans-50"/>
      <use xlink:href="#DejaVuSans-72" x="58.552734"/>
      <use xlink:href="#DejaVuSans-65" x="97.416016"/>
      <use xlink:href="#DejaVuSans-79" x="158.939453"/>
      <use xlink:href="#DejaVuSans-73" x="218.119141"/>
     </g>
    </g>
    <g id="line2d_19">
     <path d="M 1189.028125 562.140313 
L 1199.028125 562.140313 
L 1209.028125 562.140313 
" style="fill: none; stroke: #d62728; stroke-width: 1.5; stroke-linecap: square"/>
    </g>
    <g id="text_18">
     <!-- Total -->
     <g transform="translate(1217.028125 565.640313) scale(0.1 -0.1)">
      <defs>
       <path id="DejaVuSans-54" d="M -19 4666 
L 3928 4666 
L 3928 4134 
L 2272 4134 
L 2272 0 
L 1638 0 
L 1638 4134 
L -19 4134 
L -19 4666 
z
" transform="scale(0.015625)"/>
      </defs>
      <use xlink:href="#DejaVuSans-54"/>
      <use xlink:href="#DejaVuSans-6f" x="44.083984"/>
      <use xlink:href="#DejaVuSans-74" x="105.265625"/>
      <use xlink:href="#DejaVuSans-61" x="144.474609"/>
      <use xlink:href="#DejaVuSans-6c" x="205.753906"/>
     </g>
    </g>
   </g>
  </g>
 </g>
 <defs>
  <clipPath id="p2e001eba42">
   <rect x="180" y="77.76" width="1116" height="498.96"/>
  </clipPath>
 </defs>
</svg>
